{
  "header": {
    "keySignatures": [],
    "meta": [
      {
        "text": "J. S. Bach",
        "ticks": 3,
        "type": "text"
      }
    ],
    "name": "Toccata and Fugue in Dm",
    "ppq": 256,
    "tempos": [
      {
        "bpm": 20,
        "ticks": 3
      },
      {
        "bpm": 17.00000850000425,
        "ticks": 35
      },
      {
        "bpm": 20,
        "ticks": 227
      },
      {
        "bpm": 22.000005866668232,
        "ticks": 451
      },
      {
        "bpm": 17.00000850000425,
        "ticks": 691
      },
      {
        "bpm": 20,
        "ticks": 867
      },
      {
        "bpm": 22.000005866668232,
        "ticks": 1027
      },
      {
        "bpm": 17.00000850000425,
        "ticks": 1267
      },
      {
        "bpm": 20,
        "ticks": 1475
      },
      {
        "bpm": 22.000005866668232,
        "ticks": 1907
      },
      {
        "bpm": 10,
        "ticks": 2643
      },
      {
        "bpm": 15,
        "ticks": 2707
      },
      {
        "bpm": 84.000084000084,
        "ticks": 2899
      },
      {
        "bpm": 82.00014760026568,
        "ticks": 3347
      },
      {
        "bpm": 84.000084000084,
        "ticks": 3795
      },
      {
        "bpm": 86.00017486702222,
        "ticks": 4435
      },
      {
        "bpm": 82.00014760026568,
        "ticks": 5427
      },
      {
        "bpm": 84.000084000084,
        "ticks": 5875
      },
      {
        "bpm": 86.00017486702222,
        "ticks": 6387
      },
      {
        "bpm": 84.000084000084,
        "ticks": 7507
      },
      {
        "bpm": 80,
        "ticks": 9619
      },
      {
        "bpm": 70.00007000007,
        "ticks": 9875
      },
      {
        "bpm": 50,
        "ticks": 10131
      },
      {
        "bpm": 40,
        "ticks": 10387
      },
      {
        "bpm": 40,
        "ticks": 10643
      },
      {
        "bpm": 10,
        "ticks": 10899
      },
      {
        "bpm": 40,
        "ticks": 10931
      },
      {
        "bpm": 60,
        "ticks": 11155
      },
      {
        "bpm": 40,
        "ticks": 11347
      },
      {
        "bpm": 68.00014960032912,
        "ticks": 12243
      },
      {
        "bpm": 40,
        "ticks": 15891
      },
      {
        "bpm": 58.00004253336452,
        "ticks": 16019
      },
      {
        "bpm": 50,
        "ticks": 16531
      },
      {
        "bpm": 40,
        "ticks": 16787
      },
      {
        "bpm": 20,
        "ticks": 16915
      },
      {
        "bpm": 57.000031350017245,
        "ticks": 17043
      },
      {
        "bpm": 50,
        "ticks": 17555
      },
      {
        "bpm": 40,
        "ticks": 17811
      },
      {
        "bpm": 35.000035000035,
        "ticks": 17939
      },
      {
        "bpm": 56.000082133453795,
        "ticks": 18195
      },
      {
        "bpm": 30,
        "ticks": 19283
      },
      {
        "bpm": 50,
        "ticks": 19347
      },
      {
        "bpm": 40,
        "ticks": 19603
      },
      {
        "bpm": 30,
        "ticks": 19731
      },
      {
        "bpm": 55.00000458333371,
        "ticks": 19859
      },
      {
        "bpm": 50,
        "ticks": 20371
      },
      {
        "bpm": 40,
        "ticks": 20755
      },
      {
        "bpm": 55.00000458333371,
        "ticks": 21267
      },
      {
        "bpm": 40,
        "ticks": 21395
      },
      {
        "bpm": 20,
        "ticks": 21459
      },
      {
        "bpm": 60,
        "ticks": 21555
      },
      {
        "bpm": 40,
        "ticks": 22066
      },
      {
        "bpm": 85.00016291697892,
        "ticks": 22579
      },
      {
        "bpm": 80,
        "ticks": 26888
      },
      {
        "bpm": 75,
        "ticks": 27144
      },
      {
        "bpm": 70.00007000007,
        "ticks": 27315
      },
      {
        "bpm": 65.00013541694878,
        "ticks": 27485
      },
      {
        "bpm": 50,
        "ticks": 27699
      },
      {
        "bpm": 40,
        "ticks": 28211
      },
      {
        "bpm": 30,
        "ticks": 29491
      },
      {
        "bpm": 25,
        "ticks": 29683
      },
      {
        "bpm": 20,
        "ticks": 30003
      },
      {
        "bpm": 15,
        "ticks": 30515
      },
      {
        "bpm": 5,
        "ticks": 30771
      },
      {
        "bpm": 90.0002250005625,
        "ticks": 30835
      },
      {
        "bpm": 80,
        "ticks": 128563
      },
      {
        "bpm": 70.00007000007,
        "ticks": 128819
      },
      {
        "bpm": 60,
        "ticks": 129075
      },
      {
        "bpm": 50,
        "ticks": 129331
      },
      {
        "bpm": 40,
        "ticks": 129586
      },
      {
        "bpm": 60,
        "ticks": 130355
      },
      {
        "bpm": 55.00000458333371,
        "ticks": 132179
      },
      {
        "bpm": 50,
        "ticks": 132435
      },
      {
        "bpm": 40,
        "ticks": 132787
      },
      {
        "bpm": 30,
        "ticks": 132915
      },
      {
        "bpm": 40,
        "ticks": 134451
      },
      {
        "bpm": 30,
        "ticks": 135219
      },
      {
        "bpm": 66.00013860029107,
        "ticks": 136755
      },
      {
        "bpm": 62.000124000248,
        "ticks": 139475
      },
      {
        "bpm": 55.00000458333371,
        "ticks": 139763
      },
      {
        "bpm": 50,
        "ticks": 139923
      },
      {
        "bpm": 32,
        "ticks": 140083
      },
      {
        "bpm": 58.00004253336452,
        "ticks": 140467
      },
      {
        "bpm": 54.00000540000054,
        "ticks": 143539
      },
      {
        "bpm": 50,
        "ticks": 144051
      },
      {
        "bpm": 45.000045000045,
        "ticks": 144553
      },
      {
        "bpm": 40,
        "ticks": 145203
      },
      {
        "bpm": 35.000035000035,
        "ticks": 145715
      },
      {
        "bpm": 30,
        "ticks": 146227
      },
      {
        "bpm": 45.000045000045,
        "ticks": 146483
      }
    ],
    "timeSignatures": [
      {
        "ticks": 1251,
        "timeSignature": [
          36,
          32
        ],
        "measures": 0
      },
      {
        "ticks": 2387,
        "timeSignature": [
          4,
          4
        ],
        "measures": 0.015407986111111112
      },
      {
        "ticks": 4435,
        "timeSignature": [
          33,
          32
        ],
        "measures": 2.015407986111111
      },
      {
        "ticks": 5491,
        "timeSignature": [
          4,
          4
        ],
        "measures": 2.031032986111111
      },
      {
        "ticks": 6515,
        "timeSignature": [
          33,
          32
        ],
        "measures": 3.031032986111111
      },
      {
        "ticks": 7571,
        "timeSignature": [
          4,
          4
        ],
        "measures": 3.046657986111111
      },
      {
        "ticks": 11667,
        "timeSignature": [
          9,
          8
        ],
        "measures": 7.046657986111111
      },
      {
        "ticks": 12819,
        "timeSignature": [
          4,
          4
        ],
        "measures": 7.296657986111111
      },
      {
        "ticks": 21011,
        "timeSignature": [
          33,
          32
        ],
        "measures": 15.29665798611111
      },
      {
        "ticks": 22067,
        "timeSignature": [
          4,
          4
        ],
        "measures": 15.31228298611111
      },
      {
        "ticks": 129587,
        "timeSignature": [
          5,
          4
        ],
        "measures": 120.31228298611111
      },
      {
        "ticks": 130867,
        "timeSignature": [
          4,
          4
        ],
        "measures": 121.31228298611111
      },
      {
        "ticks": 135987,
        "timeSignature": [
          5,
          4
        ],
        "measures": 126.31228298611111
      },
      {
        "ticks": 137267,
        "timeSignature": [
          4,
          4
        ],
        "measures": 127.31228298611111
      },
      {
        "ticks": 146483,
        "timeSignature": [
          6,
          4
        ],
        "measures": 136.31228298611111
      }
    ]
  },
  "tracks": [
    {
      "channel": 0,
      "controlChanges": {},
      "pitchBends": [],
      "instrument": {
        "family": "piano",
        "name": "acoustic grand piano",
        "number": 0
      },
      "name": "&Chords and Keys",
      "notes": [],
      "endOfTrackTicks": 0
    },
    {
      "channel": 0,
      "controlChanges": {
        "7": [
          {
            "number": 7,
            "ticks": 0,
            "time": 0,
            "value": 0.7874015748031497
          }
        ],
        "10": [
          {
            "number": 10,
            "ticks": 0,
            "time": 0,
            "value": 0.5039370078740157
          }
        ]
      },
      "pitchBends": [],
      "instrument": {
        "family": "organ",
        "name": "church organ",
        "number": 19
      },
      "name": "Manual",
      "notes": [
        {
          "duration": 0.1588537695312766,
          "durationTicks": 61,
          "midi": 81,
          "name": "A5",
          "ticks": 65072,
          "time": 245.62196681250003,
          "velocity": 0.5039370078740157
        },
        {
          "duration": 0.3177075390624964,
          "durationTicks": 122,
          "midi": 65,
          "name": "F4",
          "ticks": 65072,
          "time": 245.62196681250003,
          "velocity": 0.5039370078740157
        },
        {
          "duration": 0.1588537695312482,
          "durationTicks": 61,
          "midi": 77,
          "name": "F5",
          "ticks": 65136,
          "time": 245.78863306250005,
          "velocity": 0.5039370078740157
        },
        {
          "duration": 0.1588537695312482,
          "durationTicks": 61,
          "midi": 76,
          "name": "E5",
          "ticks": 65200,
          "time": 245.95529931250005,
          "velocity": 0.5039370078740157
        },
        {
          "duration": 0.15885376953121977,
          "durationTicks": 61,
          "midi": 77,
          "name": "F5",
          "ticks": 65264,
          "time": 246.12196556250007,
          "velocity": 0.5039370078740157
        },
        {
          "duration": 0.3177075390624964,
          "durationTicks": 122,
          "midi": 72,
          "name": "C5",
          "ticks": 65328,
          "time": 246.28863181250006,
          "velocity": 0.5039370078740157
        },
        {
          "duration": 0.1588537695312482,
          "durationTicks": 61,
          "midi": 77,
          "name": "F5",
          "ticks": 65392,
          "time": 246.45529806250005,
          "velocity": 0.5039370078740157
        },
        {
          "duration": 0.1588537695312766,
          "durationTicks": 61,
          "midi": 76,
          "name": "E5",
          "ticks": 65456,
          "time": 246.62196431250004,
          "velocity": 0.5039370078740157
        },
        {
          "duration": 0.1588537695312766,
          "durationTicks": 61,
          "midi": 77,
          "name": "F5",
          "ticks": 65520,
          "time": 246.78863056250003,
          "velocity": 0.5039370078740157
        },
        {
          "duration": 0.1588537695312482,
          "durationTicks": 61,
          "midi": 81,
          "name": "A5",
          "ticks": 65584,
          "time": 246.95529681250005,
          "velocity": 0.5039370078740157
        },
        {
          "duration": 0.3177075390624964,
          "durationTicks": 122,
          "midi": 65,
          "name": "F4",
          "ticks": 65584,
          "time": 246.95529681250005,
          "velocity": 0.5039370078740157
        },
        {
          "duration": 0.15885376953121977,
          "durationTicks": 61,
          "midi": 77,
          "name": "F5",
          "ticks": 65648,
          "time": 247.12196306250007,
          "velocity": 0.5039370078740157
        },
        {
          "duration": 0.15885376953121977,
          "durationTicks": 61,
          "midi": 76,
          "name": "E5",
          "ticks": 65712,
          "time": 247.28862931250006,
          "velocity": 0.5039370078740157
        },
        {
          "duration": 0.1588537695312482,
          "durationTicks": 61,
          "midi": 77,
          "name": "F5",
          "ticks": 65776,
          "time": 247.45529556250005,
          "velocity": 0.5039370078740157
        },
        {
          "duration": 0.3177075390624964,
          "durationTicks": 122,
          "midi": 72,
          "name": "C5",
          "ticks": 65840,
          "time": 247.62196181250005,
          "velocity": 0.5039370078740157
        },
        {
          "duration": 0.1588537695312766,
          "durationTicks": 61,
          "midi": 77,
          "name": "F5",
          "ticks": 65904,
          "time": 247.78862806250004,
          "velocity": 0.5039370078740157
        },
        {
          "duration": 0.1588537695312482,
          "durationTicks": 61,
          "midi": 76,
          "name": "E5",
          "ticks": 65968,
          "time": 247.95529431250006,
          "velocity": 0.5039370078740157
        },
        {
          "duration": 0.1588537695312482,
          "durationTicks": 61,
          "midi": 77,
          "name": "F5",
          "ticks": 66032,
          "time": 248.12196056250005,
          "velocity": 0.5039370078740157
        },
        {
          "duration": 0.15885376953121977,
          "durationTicks": 61,
          "midi": 79,
          "name": "G5",
          "ticks": 66096,
          "time": 248.28862681250007,
          "velocity": 0.5039370078740157
        },
        {
          "duration": 0.3177075390624964,
          "durationTicks": 122,
          "midi": 64,
          "name": "E4",
          "ticks": 66096,
          "time": 248.28862681250007,
          "velocity": 0.5039370078740157
        },
        {
          "duration": 0.15885376953121977,
          "durationTicks": 61,
          "midi": 76,
          "name": "E5",
          "ticks": 66160,
          "time": 248.45529306250006,
          "velocity": 0.5039370078740157
        },
        {
          "duration": 0.1588537695312482,
          "durationTicks": 61,
          "midi": 74,
          "name": "D5",
          "ticks": 66224,
          "time": 248.62195931250005,
          "velocity": 0.5039370078740157
        },
        {
          "duration": 0.1588537695312766,
          "durationTicks": 61,
          "midi": 76,
          "name": "E5",
          "ticks": 66288,
          "time": 248.78862556250004,
          "velocity": 0.5039370078740157
        },
        {
          "duration": 0.3177075390624964,
          "durationTicks": 122,
          "midi": 72,
          "name": "C5",
          "ticks": 66352,
          "time": 248.95529181250004,
          "velocity": 0.5039370078740157
        },
        {
          "duration": 0.1588537695312482,
          "durationTicks": 61,
          "midi": 76,
          "name": "E5",
          "ticks": 66416,
          "time": 249.12195806250006,
          "velocity": 0.5039370078740157
        },
        {
          "duration": 0.1588537695312482,
          "durationTicks": 61,
          "midi": 74,
          "name": "D5",
          "ticks": 66480,
          "time": 249.28862431250005,
          "velocity": 0.5039370078740157
        },
        {
          "duration": 0.15885376953121977,
          "durationTicks": 61,
          "midi": 76,
          "name": "E5",
          "ticks": 66544,
          "time": 249.45529056250007,
          "velocity": 0.5039370078740157
        },
        {
          "duration": 0.1588537695312482,
          "durationTicks": 61,
          "midi": 79,
          "name": "G5",
          "ticks": 66608,
          "time": 249.62195681250006,
          "velocity": 0.5039370078740157
        },
        {
          "duration": 0.3177075390624964,
          "durationTicks": 122,
          "midi": 64,
          "name": "E4",
          "ticks": 66608,
          "time": 249.62195681250006,
          "velocity": 0.5039370078740157
        },
        {
          "duration": 0.1588537695312482,
          "durationTicks": 61,
          "midi": 76,
          "name": "E5",
          "ticks": 66672,
          "time": 249.78862306250005,
          "velocity": 0.5039370078740157
        },
        {
          "duration": 0.1588537695312766,
          "durationTicks": 61,
          "midi": 74,
          "name": "D5",
          "ticks": 66736,
          "time": 249.95528931250004,
          "velocity": 0.5039370078740157
        },
        {
          "duration": 0.1588537695312766,
          "durationTicks": 61,
          "midi": 76,
          "name": "E5",
          "ticks": 66800,
          "time": 250.12195556250003,
          "velocity": 0.5039370078740157
        },
        {
          "duration": 0.3177075390624964,
          "durationTicks": 122,
          "midi": 72,
          "name": "C5",
          "ticks": 66864,
          "time": 250.28862181250005,
          "velocity": 0.5039370078740157
        },
        {
          "duration": 0.1588537695312482,
          "durationTicks": 61,
          "midi": 76,
          "name": "E5",
          "ticks": 66928,
          "time": 250.45528806250005,
          "velocity": 0.5039370078740157
        },
        {
          "duration": 0.15885376953121977,
          "durationTicks": 61,
          "midi": 74,
          "name": "D5",
          "ticks": 66992,
          "time": 250.62195431250007,
          "velocity": 0.5039370078740157
        },
        {
          "duration": 0.1588537695312482,
          "durationTicks": 61,
          "midi": 76,
          "name": "E5",
          "ticks": 67056,
          "time": 250.78862056250006,
          "velocity": 0.5039370078740157
        },
        {
          "duration": 0.1588537695312482,
          "durationTicks": 61,
          "midi": 71,
          "name": "B4",
          "ticks": 68144,
          "time": 253.62194681250006,
          "velocity": 0.5039370078740157
        },
        {
          "duration": 0.1588537695312482,
          "durationTicks": 61,
          "midi": 67,
          "name": "G4",
          "ticks": 68208,
          "time": 253.78861306250005,
          "velocity": 0.5039370078740157
        },
        {
          "duration": 0.15885376953121977,
          "durationTicks": 61,
          "midi": 71,
          "name": "B4",
          "ticks": 68272,
          "time": 253.95527931250007,
          "velocity": 0.5039370078740157
        },
        {
          "duration": 0.1588537695312482,
          "durationTicks": 61,
          "midi": 74,
          "name": "D5",
          "ticks": 68336,
          "time": 254.12194556250006,
          "velocity": 0.5039370078740157
        },
        {
          "duration": 0.1588537695312482,
          "durationTicks": 61,
          "midi": 77,
          "name": "F5",
          "ticks": 68400,
          "time": 254.28861181250005,
          "velocity": 0.5039370078740157
        },
        {
          "duration": 0.1588537695312766,
          "durationTicks": 61,
          "midi": 81,
          "name": "A5",
          "ticks": 68464,
          "time": 254.45527806250004,
          "velocity": 0.5039370078740157
        },
        {
          "duration": 0.1588537695312766,
          "durationTicks": 61,
          "midi": 77,
          "name": "F5",
          "ticks": 68528,
          "time": 254.62194431250003,
          "velocity": 0.5039370078740157
        },
        {
          "duration": 0.1588537695312482,
          "durationTicks": 61,
          "midi": 74,
          "name": "D5",
          "ticks": 68592,
          "time": 254.78861056250005,
          "velocity": 0.5039370078740157
        },
        {
          "duration": 0.15885376953121977,
          "durationTicks": 61,
          "midi": 70,
          "name": "A#4",
          "ticks": 69168,
          "time": 256.28860681250006,
          "velocity": 0.5039370078740157
        },
        {
          "duration": 0.15885376953121977,
          "durationTicks": 61,
          "midi": 67,
          "name": "G4",
          "ticks": 69232,
          "time": 256.45527306250005,
          "velocity": 0.5039370078740157
        },
        {
          "duration": 0.1588537695312766,
          "durationTicks": 61,
          "midi": 70,
          "name": "A#4",
          "ticks": 69296,
          "time": 256.62193931250005,
          "velocity": 0.5039370078740157
        },
        {
          "duration": 0.1588537695312766,
          "durationTicks": 61,
          "midi": 72,
          "name": "C5",
          "ticks": 69360,
          "time": 256.78860556250004,
          "velocity": 0.5039370078740157
        },
        {
          "duration": 0.15885376953121977,
          "durationTicks": 61,
          "midi": 76,
          "name": "E5",
          "ticks": 69424,
          "time": 256.9552718125001,
          "velocity": 0.5039370078740157
        },
        {
          "duration": 0.1588537695312766,
          "durationTicks": 61,
          "midi": 79,
          "name": "G5",
          "ticks": 69488,
          "time": 257.1219380625,
          "velocity": 0.5039370078740157
        },
        {
          "duration": 0.15885376953121977,
          "durationTicks": 61,
          "midi": 76,
          "name": "E5",
          "ticks": 69552,
          "time": 257.28860431250007,
          "velocity": 0.5039370078740157
        },
        {
          "duration": 0.15885376953121977,
          "durationTicks": 61,
          "midi": 72,
          "name": "C5",
          "ticks": 69616,
          "time": 257.45527056250006,
          "velocity": 0.5039370078740157
        },
        {
          "duration": 0.1588537695312766,
          "durationTicks": 61,
          "midi": 69,
          "name": "A4",
          "ticks": 70192,
          "time": 258.95526681250004,
          "velocity": 0.5039370078740157
        },
        {
          "duration": 0.1588537695312766,
          "durationTicks": 61,
          "midi": 65,
          "name": "F4",
          "ticks": 70256,
          "time": 259.12193306250003,
          "velocity": 0.5039370078740157
        },
        {
          "duration": 0.15885376953121977,
          "durationTicks": 61,
          "midi": 69,
          "name": "A4",
          "ticks": 70320,
          "time": 259.2885993125001,
          "velocity": 0.5039370078740157
        },
        {
          "duration": 0.1588537695312766,
          "durationTicks": 61,
          "midi": 70,
          "name": "A#4",
          "ticks": 70384,
          "time": 259.4552655625,
          "velocity": 0.5039370078740157
        },
        {
          "duration": 0.15885376953121977,
          "durationTicks": 61,
          "midi": 74,
          "name": "D5",
          "ticks": 70448,
          "time": 259.62193181250007,
          "velocity": 0.5039370078740157
        },
        {
          "duration": 0.1588537695312766,
          "durationTicks": 61,
          "midi": 77,
          "name": "F5",
          "ticks": 70512,
          "time": 259.78859806250006,
          "velocity": 0.5039370078740157
        },
        {
          "duration": 0.15885376953121977,
          "durationTicks": 61,
          "midi": 74,
          "name": "D5",
          "ticks": 70576,
          "time": 259.95526431250005,
          "velocity": 0.5039370078740157
        },
        {
          "duration": 0.1588537695312766,
          "durationTicks": 61,
          "midi": 70,
          "name": "A#4",
          "ticks": 70640,
          "time": 260.12193056250004,
          "velocity": 0.5039370078740157
        },
        {
          "duration": 0.15885376953121977,
          "durationTicks": 61,
          "midi": 67,
          "name": "G4",
          "ticks": 71216,
          "time": 261.6219268125001,
          "velocity": 0.5039370078740157
        },
        {
          "duration": 0.15885376953121977,
          "durationTicks": 61,
          "midi": 64,
          "name": "E4",
          "ticks": 71280,
          "time": 261.78859306250007,
          "velocity": 0.5039370078740157
        },
        {
          "duration": 0.15885376953121977,
          "durationTicks": 61,
          "midi": 67,
          "name": "G4",
          "ticks": 71344,
          "time": 261.95525931250006,
          "velocity": 0.5039370078740157
        },
        {
          "duration": 0.1588537695312766,
          "durationTicks": 61,
          "midi": 70,
          "name": "A#4",
          "ticks": 71408,
          "time": 262.12192556250005,
          "velocity": 0.5039370078740157
        },
        {
          "duration": 0.1588537695312766,
          "durationTicks": 61,
          "midi": 73,
          "name": "C#5",
          "ticks": 71472,
          "time": 262.28859181250004,
          "velocity": 0.5039370078740157
        },
        {
          "duration": 0.1588537695312766,
          "durationTicks": 61,
          "midi": 76,
          "name": "E5",
          "ticks": 71536,
          "time": 262.45525806250004,
          "velocity": 0.5039370078740157
        },
        {
          "duration": 0.1588537695312766,
          "durationTicks": 61,
          "midi": 73,
          "name": "C#5",
          "ticks": 71600,
          "time": 262.6219243125,
          "velocity": 0.5039370078740157
        },
        {
          "duration": 0.15885376953121977,
          "durationTicks": 61,
          "midi": 70,
          "name": "A#4",
          "ticks": 71664,
          "time": 262.7885905625001,
          "velocity": 0.5039370078740157
        },
        {
          "duration": 0.1588537695312766,
          "durationTicks": 61,
          "midi": 49,
          "name": "C#3",
          "ticks": 75312,
          "time": 272.28856681250005,
          "velocity": 0.6299212598425197
        },
        {
          "duration": 0.1588537695312766,
          "durationTicks": 61,
          "midi": 45,
          "name": "A2",
          "ticks": 75376,
          "time": 272.45523306250004,
          "velocity": 0.6299212598425197
        },
        {
          "duration": 0.1588537695312766,
          "durationTicks": 61,
          "midi": 49,
          "name": "C#3",
          "ticks": 75440,
          "time": 272.62189931250003,
          "velocity": 0.6299212598425197
        },
        {
          "duration": 0.1588537695312766,
          "durationTicks": 61,
          "midi": 52,
          "name": "E3",
          "ticks": 75504,
          "time": 272.7885655625,
          "velocity": 0.6299212598425197
        },
        {
          "duration": 0.15885376953121977,
          "durationTicks": 61,
          "midi": 55,
          "name": "G3",
          "ticks": 75568,
          "time": 272.9552318125001,
          "velocity": 0.6299212598425197
        },
        {
          "duration": 0.15885376953121977,
          "durationTicks": 61,
          "midi": 58,
          "name": "A#3",
          "ticks": 75632,
          "time": 273.12189806250007,
          "velocity": 0.6299212598425197
        },
        {
          "duration": 0.15885376953121977,
          "durationTicks": 61,
          "midi": 55,
          "name": "G3",
          "ticks": 75696,
          "time": 273.28856431250006,
          "velocity": 0.6299212598425197
        },
        {
          "duration": 0.1588537695312766,
          "durationTicks": 61,
          "midi": 52,
          "name": "E3",
          "ticks": 75760,
          "time": 273.45523056250005,
          "velocity": 0.6299212598425197
        },
        {
          "duration": 0.15885376953121977,
          "durationTicks": 61,
          "midi": 50,
          "name": "D3",
          "ticks": 76336,
          "time": 274.9552268125001,
          "velocity": 0.6299212598425197
        },
        {
          "duration": 0.1588537695312766,
          "durationTicks": 61,
          "midi": 45,
          "name": "A2",
          "ticks": 76400,
          "time": 275.1218930625,
          "velocity": 0.6299212598425197
        },
        {
          "duration": 0.15885376953121977,
          "durationTicks": 61,
          "midi": 50,
          "name": "D3",
          "ticks": 76464,
          "time": 275.28855931250007,
          "velocity": 0.6299212598425197
        },
        {
          "duration": 0.1588537695312766,
          "durationTicks": 61,
          "midi": 53,
          "name": "F3",
          "ticks": 76528,
          "time": 275.45522556250006,
          "velocity": 0.6299212598425197
        },
        {
          "duration": 0.15885376953121977,
          "durationTicks": 61,
          "midi": 57,
          "name": "A3",
          "ticks": 76592,
          "time": 275.62189181250005,
          "velocity": 0.6299212598425197
        },
        {
          "duration": 0.1588537695312766,
          "durationTicks": 61,
          "midi": 62,
          "name": "D4",
          "ticks": 76656,
          "time": 275.78855806250004,
          "velocity": 0.6299212598425197
        },
        {
          "duration": 0.1588537695312766,
          "durationTicks": 61,
          "midi": 57,
          "name": "A3",
          "ticks": 76720,
          "time": 275.95522431250004,
          "velocity": 0.6299212598425197
        },
        {
          "duration": 0.15885376953121977,
          "durationTicks": 61,
          "midi": 53,
          "name": "F3",
          "ticks": 76784,
          "time": 276.1218905625001,
          "velocity": 0.6299212598425197
        },
        {
          "duration": 0.15885376953121977,
          "durationTicks": 61,
          "midi": 49,
          "name": "C#3",
          "ticks": 77360,
          "time": 277.62188681250007,
          "velocity": 0.6299212598425197
        },
        {
          "duration": 0.1588537695312766,
          "durationTicks": 61,
          "midi": 45,
          "name": "A2",
          "ticks": 77424,
          "time": 277.78855306250006,
          "velocity": 0.6299212598425197
        },
        {
          "duration": 0.1588537695312766,
          "durationTicks": 61,
          "midi": 49,
          "name": "C#3",
          "ticks": 77488,
          "time": 277.95521931250005,
          "velocity": 0.6299212598425197
        },
        {
          "duration": 0.1588537695312766,
          "durationTicks": 61,
          "midi": 52,
          "name": "E3",
          "ticks": 77552,
          "time": 278.12188556250004,
          "velocity": 0.6299212598425197
        },
        {
          "duration": 0.1588537695312766,
          "durationTicks": 61,
          "midi": 55,
          "name": "G3",
          "ticks": 77616,
          "time": 278.28855181250003,
          "velocity": 0.6299212598425197
        },
        {
          "duration": 0.15885376953121977,
          "durationTicks": 61,
          "midi": 58,
          "name": "A#3",
          "ticks": 77680,
          "time": 278.4552180625001,
          "velocity": 0.6299212598425197
        },
        {
          "duration": 0.15885376953121977,
          "durationTicks": 61,
          "midi": 55,
          "name": "G3",
          "ticks": 77744,
          "time": 278.6218843125001,
          "velocity": 0.6299212598425197
        },
        {
          "duration": 0.15885376953121977,
          "durationTicks": 61,
          "midi": 52,
          "name": "E3",
          "ticks": 77808,
          "time": 278.78855056250006,
          "velocity": 0.6299212598425197
        },
        {
          "duration": 0.1588537695312766,
          "durationTicks": 61,
          "midi": 50,
          "name": "D3",
          "ticks": 78384,
          "time": 280.28854681250004,
          "velocity": 0.6299212598425197
        },
        {
          "duration": 0.1588537695312766,
          "durationTicks": 61,
          "midi": 45,
          "name": "A2",
          "ticks": 78448,
          "time": 280.45521306250004,
          "velocity": 0.6299212598425197
        },
        {
          "duration": 0.1588537695312766,
          "durationTicks": 61,
          "midi": 50,
          "name": "D3",
          "ticks": 78512,
          "time": 280.6218793125,
          "velocity": 0.6299212598425197
        },
        {
          "duration": 0.15885376953121977,
          "durationTicks": 61,
          "midi": 53,
          "name": "F3",
          "ticks": 78576,
          "time": 280.7885455625001,
          "velocity": 0.6299212598425197
        },
        {
          "duration": 0.15885376953121977,
          "durationTicks": 61,
          "midi": 57,
          "name": "A3",
          "ticks": 78640,
          "time": 280.95521181250007,
          "velocity": 0.6299212598425197
        },
        {
          "duration": 0.15885376953121977,
          "durationTicks": 61,
          "midi": 62,
          "name": "D4",
          "ticks": 78704,
          "time": 281.12187806250006,
          "velocity": 0.6299212598425197
        },
        {
          "duration": 0.1588537695312766,
          "durationTicks": 61,
          "midi": 57,
          "name": "A3",
          "ticks": 78768,
          "time": 281.28854431250005,
          "velocity": 0.6299212598425197
        },
        {
          "duration": 0.1588537695312766,
          "durationTicks": 61,
          "midi": 53,
          "name": "F3",
          "ticks": 78832,
          "time": 281.45521056250004,
          "velocity": 0.6299212598425197
        },
        {
          "duration": 0.1588537695312766,
          "durationTicks": 61,
          "midi": 52,
          "name": "E3",
          "ticks": 79408,
          "time": 282.9552068125,
          "velocity": 0.6299212598425197
        },
        {
          "duration": 0.15885376953121977,
          "durationTicks": 61,
          "midi": 49,
          "name": "C#3",
          "ticks": 79472,
          "time": 283.1218730625001,
          "velocity": 0.6299212598425197
        },
        {
          "duration": 0.1588537695312766,
          "durationTicks": 61,
          "midi": 52,
          "name": "E3",
          "ticks": 79536,
          "time": 283.28853931250006,
          "velocity": 0.6299212598425197
        },
        {
          "duration": 0.15885376953121977,
          "durationTicks": 61,
          "midi": 55,
          "name": "G3",
          "ticks": 79600,
          "time": 283.45520556250005,
          "velocity": 0.6299212598425197
        },
        {
          "duration": 0.1588537695312766,
          "durationTicks": 61,
          "midi": 58,
          "name": "A#3",
          "ticks": 79664,
          "time": 283.62187181250005,
          "velocity": 0.6299212598425197
        },
        {
          "duration": 0.1588537695312766,
          "durationTicks": 61,
          "midi": 61,
          "name": "C#4",
          "ticks": 79728,
          "time": 283.78853806250004,
          "velocity": 0.6299212598425197
        },
        {
          "duration": 0.15885376953121977,
          "durationTicks": 61,
          "midi": 58,
          "name": "A#3",
          "ticks": 79792,
          "time": 283.9552043125001,
          "velocity": 0.6299212598425197
        },
        {
          "duration": 0.1588537695312766,
          "durationTicks": 61,
          "midi": 55,
          "name": "G3",
          "ticks": 79856,
          "time": 284.1218705625,
          "velocity": 0.6299212598425197
        },
        {
          "duration": 0.1588537695312766,
          "durationTicks": 61,
          "midi": 53,
          "name": "F3",
          "ticks": 80432,
          "time": 285.62186681250006,
          "velocity": 0.6299212598425197
        },
        {
          "duration": 0.15885376953121977,
          "durationTicks": 61,
          "midi": 50,
          "name": "D3",
          "ticks": 80496,
          "time": 285.78853306250005,
          "velocity": 0.6299212598425197
        },
        {
          "duration": 0.1588537695312766,
          "durationTicks": 61,
          "midi": 53,
          "name": "F3",
          "ticks": 80560,
          "time": 285.95519931250004,
          "velocity": 0.6299212598425197
        },
        {
          "duration": 0.1588537695312766,
          "durationTicks": 61,
          "midi": 57,
          "name": "A3",
          "ticks": 80624,
          "time": 286.12186556250003,
          "velocity": 0.6299212598425197
        },
        {
          "duration": 0.15885376953121977,
          "durationTicks": 61,
          "midi": 62,
          "name": "D4",
          "ticks": 80688,
          "time": 286.2885318125001,
          "velocity": 0.6299212598425197
        },
        {
          "duration": 0.1588537695312766,
          "durationTicks": 61,
          "midi": 65,
          "name": "F4",
          "ticks": 80752,
          "time": 286.4551980625,
          "velocity": 0.6299212598425197
        },
        {
          "duration": 0.15885376953121977,
          "durationTicks": 61,
          "midi": 62,
          "name": "D4",
          "ticks": 80816,
          "time": 286.62186431250007,
          "velocity": 0.6299212598425197
        },
        {
          "duration": 0.1588537695312766,
          "durationTicks": 61,
          "midi": 57,
          "name": "A3",
          "ticks": 80880,
          "time": 286.78853056250006,
          "velocity": 0.6299212598425197
        },
        {
          "duration": 0.15885376953121977,
          "durationTicks": 61,
          "midi": 52,
          "name": "E3",
          "ticks": 81456,
          "time": 288.2885268125001,
          "velocity": 0.6299212598425197
        },
        {
          "duration": 0.1588537695312766,
          "durationTicks": 61,
          "midi": 49,
          "name": "C#3",
          "ticks": 81520,
          "time": 288.45519306250003,
          "velocity": 0.6299212598425197
        },
        {
          "duration": 0.15885376953121977,
          "durationTicks": 61,
          "midi": 52,
          "name": "E3",
          "ticks": 81584,
          "time": 288.6218593125001,
          "velocity": 0.6299212598425197
        },
        {
          "duration": 0.15885376953133346,
          "durationTicks": 61,
          "midi": 55,
          "name": "G3",
          "ticks": 81648,
          "time": 288.7885255625,
          "velocity": 0.6299212598425197
        },
        {
          "duration": 0.15885376953121977,
          "durationTicks": 61,
          "midi": 58,
          "name": "A#3",
          "ticks": 81712,
          "time": 288.95519181250006,
          "velocity": 0.6299212598425197
        },
        {
          "duration": 0.1588537695312766,
          "durationTicks": 61,
          "midi": 61,
          "name": "C#4",
          "ticks": 81776,
          "time": 289.12185806250005,
          "velocity": 0.6299212598425197
        },
        {
          "duration": 0.15885376953121977,
          "durationTicks": 61,
          "midi": 58,
          "name": "A#3",
          "ticks": 81840,
          "time": 289.28852431250004,
          "velocity": 0.6299212598425197
        },
        {
          "duration": 0.15885376953121977,
          "durationTicks": 61,
          "midi": 55,
          "name": "G3",
          "ticks": 81904,
          "time": 289.4551905625001,
          "velocity": 0.6299212598425197
        },
        {
          "duration": 0.15885376953121977,
          "durationTicks": 61,
          "midi": 53,
          "name": "F3",
          "ticks": 82480,
          "time": 290.9551868125001,
          "velocity": 0.6299212598425197
        },
        {
          "duration": 0.1588537695312766,
          "durationTicks": 61,
          "midi": 50,
          "name": "D3",
          "ticks": 82544,
          "time": 291.12185306250007,
          "velocity": 0.6299212598425197
        },
        {
          "duration": 0.15885376953121977,
          "durationTicks": 61,
          "midi": 53,
          "name": "F3",
          "ticks": 82608,
          "time": 291.28851931250006,
          "velocity": 0.6299212598425197
        },
        {
          "duration": 0.1588537695312766,
          "durationTicks": 61,
          "midi": 57,
          "name": "A3",
          "ticks": 82672,
          "time": 291.45518556250005,
          "velocity": 0.6299212598425197
        },
        {
          "duration": 0.1588537695312766,
          "durationTicks": 61,
          "midi": 62,
          "name": "D4",
          "ticks": 82736,
          "time": 291.62185181250004,
          "velocity": 0.6299212598425197
        },
        {
          "duration": 0.15885376953121977,
          "durationTicks": 61,
          "midi": 65,
          "name": "F4",
          "ticks": 82800,
          "time": 291.7885180625001,
          "velocity": 0.6299212598425197
        },
        {
          "duration": 0.1588537695312766,
          "durationTicks": 61,
          "midi": 62,
          "name": "D4",
          "ticks": 82864,
          "time": 291.9551843125,
          "velocity": 0.6299212598425197
        },
        {
          "duration": 0.15885376953121977,
          "durationTicks": 61,
          "midi": 57,
          "name": "A3",
          "ticks": 82928,
          "time": 292.1218505625001,
          "velocity": 0.6299212598425197
        },
        {
          "duration": 0.15885376953121977,
          "durationTicks": 61,
          "midi": 55,
          "name": "G3",
          "ticks": 83504,
          "time": 293.62184681250005,
          "velocity": 0.6299212598425197
        },
        {
          "duration": 0.1588537695312766,
          "durationTicks": 61,
          "midi": 52,
          "name": "E3",
          "ticks": 83568,
          "time": 293.78851306250004,
          "velocity": 0.6299212598425197
        },
        {
          "duration": 0.1588537695312766,
          "durationTicks": 61,
          "midi": 55,
          "name": "G3",
          "ticks": 83632,
          "time": 293.95517931250004,
          "velocity": 0.6299212598425197
        },
        {
          "duration": 0.15885376953121977,
          "durationTicks": 61,
          "midi": 58,
          "name": "A#3",
          "ticks": 83696,
          "time": 294.1218455625001,
          "velocity": 0.6299212598425197
        },
        {
          "duration": 0.1588537695312766,
          "durationTicks": 61,
          "midi": 61,
          "name": "C#4",
          "ticks": 83760,
          "time": 294.2885118125,
          "velocity": 0.6299212598425197
        },
        {
          "duration": 0.15885376953121977,
          "durationTicks": 61,
          "midi": 64,
          "name": "E4",
          "ticks": 83824,
          "time": 294.45517806250007,
          "velocity": 0.6299212598425197
        },
        {
          "duration": 0.1588537695312766,
          "durationTicks": 61,
          "midi": 61,
          "name": "C#4",
          "ticks": 83888,
          "time": 294.62184431250006,
          "velocity": 0.6299212598425197
        },
        {
          "duration": 0.15885376953121977,
          "durationTicks": 61,
          "midi": 58,
          "name": "A#3",
          "ticks": 83952,
          "time": 294.78851056250005,
          "velocity": 0.6299212598425197
        }
      ],
      "endOfTrackTicks": 84013
    },
    {
      "channel": 1,
      "controlChanges": {
        "7": [
          {
            "number": 7,
            "ticks": 0,
            "time": 0,
            "value": 0.7874015748031497
          }
        ],
        "10": [
          {
            "number": 10,
            "ticks": 0,
            "time": 0,
            "value": 0.5039370078740157
          }
        ]
      },
      "pitchBends": [],
      "instrument": {
        "family": "organ",
        "name": "church organ",
        "number": 19
      },
      "name": "Manual",
      "notes": [
        {
          "duration": 0.1875,
          "durationTicks": 16,
          "midi": 81,
          "name": "A5",
          "ticks": 0,
          "time": 0,
          "velocity": 0.8818897637795275
        },
        {
          "duration": 0.375,
          "durationTicks": 32,
          "midi": 69,
          "name": "A4",
          "ticks": 0,
          "time": 0,
          "velocity": 0.8818897637795275
        },
        {
          "duration": 0.1875,
          "durationTicks": 16,
          "midi": 79,
          "name": "G5",
          "ticks": 16,
          "time": 0.1875,
          "velocity": 0.8818897637795275
        },
        {
          "duration": 0.1875,
          "durationTicks": 16,
          "midi": 67,
          "name": "G4",
          "ticks": 16,
          "time": 0.1875,
          "velocity": 0.8818897637795275
        },
        {
          "duration": 2.1996772265625,
          "durationTicks": 160,
          "midi": 81,
          "name": "A5",
          "ticks": 32,
          "time": 0.375,
          "velocity": 0.8818897637795275
        },
        {
          "duration": 2.1996772265625,
          "durationTicks": 160,
          "midi": 69,
          "name": "A4",
          "ticks": 32,
          "time": 0.375,
          "velocity": 0.8818897637795275
        },
        {
          "duration": 0.19370402343749982,
          "durationTicks": 16,
          "midi": 79,
          "name": "G5",
          "ticks": 224,
          "time": 3.0158534765625005,
          "velocity": 0.8818897637795275
        },
        {
          "duration": 0.19370402343749982,
          "durationTicks": 16,
          "midi": 67,
          "name": "G4",
          "ticks": 224,
          "time": 3.0158534765625005,
          "velocity": 0.8818897637795275
        },
        {
          "duration": 0.1875,
          "durationTicks": 16,
          "midi": 77,
          "name": "F5",
          "ticks": 240,
          "time": 3.2095575000000003,
          "velocity": 0.8818897637795275
        },
        {
          "duration": 0.1875,
          "durationTicks": 16,
          "midi": 65,
          "name": "F4",
          "ticks": 240,
          "time": 3.2095575000000003,
          "velocity": 0.8818897637795275
        },
        {
          "duration": 0.1875,
          "durationTicks": 16,
          "midi": 76,
          "name": "E5",
          "ticks": 256,
          "time": 3.3970575000000003,
          "velocity": 0.8818897637795275
        },
        {
          "duration": 0.1875,
          "durationTicks": 16,
          "midi": 64,
          "name": "E4",
          "ticks": 256,
          "time": 3.3970575000000003,
          "velocity": 0.8818897637795275
        },
        {
          "duration": 0.1875,
          "durationTicks": 16,
          "midi": 74,
          "name": "D5",
          "ticks": 272,
          "time": 3.5845575000000003,
          "velocity": 0.8818897637795275
        },
        {
          "duration": 0.1875,
          "durationTicks": 16,
          "midi": 62,
          "name": "D4",
          "ticks": 272,
          "time": 3.5845575000000003,
          "velocity": 0.8818897637795275
        },
        {
          "duration": 0.36328125000000044,
          "durationTicks": 31,
          "midi": 73,
          "name": "C#5",
          "ticks": 288,
          "time": 3.7720575000000003,
          "velocity": 0.8818897637795275
        },
        {
          "duration": 0.36328125000000044,
          "durationTicks": 31,
          "midi": 61,
          "name": "C#4",
          "ticks": 288,
          "time": 3.7720575000000003,
          "velocity": 0.8818897637795275
        },
        {
          "duration": 0.71484375,
          "durationTicks": 61,
          "midi": 74,
          "name": "D5",
          "ticks": 320,
          "time": 4.147057500000001,
          "velocity": 0.8818897637795275
        },
        {
          "duration": 0.71484375,
          "durationTicks": 61,
          "midi": 62,
          "name": "D4",
          "ticks": 320,
          "time": 4.147057500000001,
          "velocity": 0.8818897637795275
        },
        {
          "duration": 0.17045449999999995,
          "durationTicks": 16,
          "midi": 69,
          "name": "A4",
          "ticks": 656,
          "time": 7.866162031250001,
          "velocity": 0.8818897637795275
        },
        {
          "duration": 0.17045449999999995,
          "durationTicks": 16,
          "midi": 67,
          "name": "G4",
          "ticks": 672,
          "time": 8.03661653125,
          "velocity": 0.8818897637795275
        },
        {
          "duration": 1.9758930703125,
          "durationTicks": 144,
          "midi": 69,
          "name": "A4",
          "ticks": 688,
          "time": 8.20707103125,
          "velocity": 0.8818897637795275
        },
        {
          "duration": 0.3694852734374994,
          "durationTicks": 31,
          "midi": 64,
          "name": "E4",
          "ticks": 864,
          "time": 10.6241403515625,
          "velocity": 0.8818897637795275
        },
        {
          "duration": 0.36328125,
          "durationTicks": 31,
          "midi": 65,
          "name": "F4",
          "ticks": 896,
          "time": 11.005344375,
          "velocity": 0.8818897637795275
        },
        {
          "duration": 0.36328125,
          "durationTicks": 31,
          "midi": 61,
          "name": "C#4",
          "ticks": 928,
          "time": 11.380344375,
          "velocity": 0.8818897637795275
        },
        {
          "duration": 0.71484375,
          "durationTicks": 61,
          "midi": 62,
          "name": "D4",
          "ticks": 960,
          "time": 11.755344375,
          "velocity": 0.8818897637795275
        },
        {
          "duration": 0.3816425703124988,
          "durationTicks": 32,
          "midi": 57,
          "name": "A3",
          "ticks": 1248,
          "time": 14.89490340625,
          "velocity": 0.8818897637795275
        },
        {
          "duration": 0.21118807031249887,
          "durationTicks": 16,
          "midi": 55,
          "name": "G3",
          "ticks": 1264,
          "time": 15.06535790625,
          "velocity": 0.8818897637795275
        },
        {
          "duration": 2.205881250000001,
          "durationTicks": 160,
          "midi": 57,
          "name": "A3",
          "ticks": 1280,
          "time": 15.276545976562499,
          "velocity": 0.8818897637795275
        },
        {
          "duration": 5.177555531249997,
          "durationTicks": 468,
          "midi": 61,
          "name": "C#4",
          "ticks": 2190,
          "time": 26.04237771875,
          "velocity": 0.8818897637795275
        },
        {
          "duration": 5.3970158437499975,
          "durationTicks": 461,
          "midi": 64,
          "name": "E4",
          "ticks": 2220,
          "time": 26.36197990625,
          "velocity": 0.8818897637795275
        },
        {
          "duration": 4.297585218749997,
          "durationTicks": 244,
          "midi": 62,
          "name": "D4",
          "ticks": 2640,
          "time": 30.83641053125,
          "velocity": 0.8818897637795275
        },
        {
          "duration": 0.1741476679687537,
          "durationTicks": 61,
          "midi": 61,
          "name": "C#4",
          "ticks": 3344,
          "time": 36.60999897265625,
          "velocity": 0.8818897637795275
        },
        {
          "duration": 0.11432906249999775,
          "durationTicks": 40,
          "midi": 62,
          "name": "D4",
          "ticks": 3408,
          "time": 36.7927213203125,
          "velocity": 0.8818897637795275
        },
        {
          "duration": 0.11718728906250675,
          "durationTicks": 41,
          "midi": 64,
          "name": "E4",
          "ticks": 3450,
          "time": 36.9127668359375,
          "velocity": 0.8818897637795275
        },
        {
          "duration": 0.11718728906249964,
          "durationTicks": 41,
          "midi": 61,
          "name": "C#4",
          "ticks": 3493,
          "time": 37.035670578125,
          "velocity": 0.8818897637795275
        },
        {
          "duration": 0.11432906249999775,
          "durationTicks": 40,
          "midi": 62,
          "name": "D4",
          "ticks": 3536,
          "time": 37.1585743203125,
          "velocity": 0.8818897637795275
        },
        {
          "duration": 0.11718728906249964,
          "durationTicks": 41,
          "midi": 64,
          "name": "E4",
          "ticks": 3578,
          "time": 37.2786198359375,
          "velocity": 0.8818897637795275
        },
        {
          "duration": 0.11718728906249964,
          "durationTicks": 41,
          "midi": 61,
          "name": "C#4",
          "ticks": 3621,
          "time": 37.401523578125,
          "velocity": 0.8818897637795275
        },
        {
          "duration": 0.11432906250000485,
          "durationTicks": 40,
          "midi": 62,
          "name": "D4",
          "ticks": 3664,
          "time": 37.5244273203125,
          "velocity": 0.8818897637795275
        },
        {
          "duration": 0.11718728906249964,
          "durationTicks": 41,
          "midi": 64,
          "name": "E4",
          "ticks": 3706,
          "time": 37.6444728359375,
          "velocity": 0.8818897637795275
        },
        {
          "duration": 0.11718728906249964,
          "durationTicks": 41,
          "midi": 61,
          "name": "C#4",
          "ticks": 3749,
          "time": 37.767376578125,
          "velocity": 0.8818897637795275
        },
        {
          "duration": 0.17040487499999557,
          "durationTicks": 61,
          "midi": 62,
          "name": "D4",
          "ticks": 3792,
          "time": 37.8902803203125,
          "velocity": 0.8818897637795275
        },
        {
          "duration": 0.1702007226562543,
          "durationTicks": 61,
          "midi": 64,
          "name": "E4",
          "ticks": 3856,
          "time": 38.069055722656245,
          "velocity": 0.8818897637795275
        },
        {
          "duration": 0.11160703124999571,
          "durationTicks": 40,
          "midi": 65,
          "name": "F4",
          "ticks": 3920,
          "time": 38.24762697265625,
          "velocity": 0.8818897637795275
        },
        {
          "duration": 0.11439720703125289,
          "durationTicks": 41,
          "midi": 67,
          "name": "G4",
          "ticks": 3962,
          "time": 38.364814355468745,
          "velocity": 0.8818897637795275
        },
        {
          "duration": 0.11439720703124578,
          "durationTicks": 41,
          "midi": 64,
          "name": "E4",
          "ticks": 4005,
          "time": 38.4847919140625,
          "velocity": 0.8818897637795275
        },
        {
          "duration": 0.11160703125000282,
          "durationTicks": 40,
          "midi": 65,
          "name": "F4",
          "ticks": 4048,
          "time": 38.604769472656244,
          "velocity": 0.8818897637795275
        },
        {
          "duration": 0.11439720703125289,
          "durationTicks": 41,
          "midi": 67,
          "name": "G4",
          "ticks": 4090,
          "time": 38.72195685546875,
          "velocity": 0.8818897637795275
        },
        {
          "duration": 0.11439720703124578,
          "durationTicks": 41,
          "midi": 64,
          "name": "E4",
          "ticks": 4133,
          "time": 38.8419344140625,
          "velocity": 0.8818897637795275
        },
        {
          "duration": 0.11160703125000282,
          "durationTicks": 40,
          "midi": 65,
          "name": "F4",
          "ticks": 4176,
          "time": 38.961911972656246,
          "velocity": 0.8818897637795275
        },
        {
          "duration": 0.11439720703124578,
          "durationTicks": 41,
          "midi": 67,
          "name": "G4",
          "ticks": 4218,
          "time": 39.07909935546875,
          "velocity": 0.8818897637795275
        },
        {
          "duration": 0.11439720703125289,
          "durationTicks": 41,
          "midi": 64,
          "name": "E4",
          "ticks": 4261,
          "time": 39.199076914062495,
          "velocity": 0.8818897637795275
        },
        {
          "duration": 0.1702007226562472,
          "durationTicks": 61,
          "midi": 65,
          "name": "F4",
          "ticks": 4304,
          "time": 39.31905447265625,
          "velocity": 0.8818897637795275
        },
        {
          "duration": 0.1702007226562543,
          "durationTicks": 61,
          "midi": 67,
          "name": "G4",
          "ticks": 4368,
          "time": 39.497625722656245,
          "velocity": 0.8818897637795275
        },
        {
          "duration": 0.10920607812499838,
          "durationTicks": 40,
          "midi": 69,
          "name": "A4",
          "ticks": 4432,
          "time": 39.67619697265625,
          "velocity": 0.8818897637795275
        },
        {
          "duration": 0.11173669140625009,
          "durationTicks": 41,
          "midi": 70,
          "name": "A#4",
          "ticks": 4474,
          "time": 39.79085362109375,
          "velocity": 0.8818897637795275
        },
        {
          "duration": 0.11173669140625009,
          "durationTicks": 41,
          "midi": 67,
          "name": "G4",
          "ticks": 4517,
          "time": 39.9080408828125,
          "velocity": 0.8818897637795275
        },
        {
          "duration": 0.10901140625000494,
          "durationTicks": 40,
          "midi": 69,
          "name": "A4",
          "ticks": 4560,
          "time": 40.02522814453125,
          "velocity": 0.8818897637795275
        },
        {
          "duration": 0.11173669140625009,
          "durationTicks": 41,
          "midi": 70,
          "name": "A#4",
          "ticks": 4602,
          "time": 40.13969012109375,
          "velocity": 0.8818897637795275
        },
        {
          "duration": 0.11173669140625009,
          "durationTicks": 41,
          "midi": 67,
          "name": "G4",
          "ticks": 4645,
          "time": 40.2568773828125,
          "velocity": 0.8818897637795275
        },
        {
          "duration": 0.10901140624999783,
          "durationTicks": 40,
          "midi": 69,
          "name": "A4",
          "ticks": 4688,
          "time": 40.37406464453125,
          "velocity": 0.8818897637795275
        },
        {
          "duration": 0.11173669140625009,
          "durationTicks": 41,
          "midi": 70,
          "name": "A#4",
          "ticks": 4730,
          "time": 40.48852662109375,
          "velocity": 0.8818897637795275
        },
        {
          "duration": 0.11173669140625009,
          "durationTicks": 41,
          "midi": 67,
          "name": "G4",
          "ticks": 4773,
          "time": 40.6057138828125,
          "velocity": 0.8818897637795275
        },
        {
          "duration": 0.16624239453125256,
          "durationTicks": 61,
          "midi": 69,
          "name": "A4",
          "ticks": 4816,
          "time": 40.72290114453125,
          "velocity": 0.8818897637795275
        },
        {
          "duration": 0.17395299609375314,
          "durationTicks": 61,
          "midi": 73,
          "name": "C#5",
          "ticks": 5424,
          "time": 42.37987451953125,
          "velocity": 0.8818897637795275
        },
        {
          "duration": 0.11432906249999775,
          "durationTicks": 40,
          "midi": 74,
          "name": "D5",
          "ticks": 5488,
          "time": 42.5624021953125,
          "velocity": 0.8818897637795275
        },
        {
          "duration": 0.11718728906250675,
          "durationTicks": 41,
          "midi": 76,
          "name": "E5",
          "ticks": 5530,
          "time": 42.682447710937495,
          "velocity": 0.8818897637795275
        },
        {
          "duration": 0.11718728906249964,
          "durationTicks": 41,
          "midi": 73,
          "name": "C#5",
          "ticks": 5573,
          "time": 42.805351453125,
          "velocity": 0.8818897637795275
        },
        {
          "duration": 0.11432906249999775,
          "durationTicks": 40,
          "midi": 74,
          "name": "D5",
          "ticks": 5616,
          "time": 42.9282551953125,
          "velocity": 0.8818897637795275
        },
        {
          "duration": 0.11718728906249964,
          "durationTicks": 41,
          "midi": 76,
          "name": "E5",
          "ticks": 5658,
          "time": 43.0483007109375,
          "velocity": 0.8818897637795275
        },
        {
          "duration": 0.11718728906249964,
          "durationTicks": 41,
          "midi": 73,
          "name": "C#5",
          "ticks": 5701,
          "time": 43.171204453125,
          "velocity": 0.8818897637795275
        },
        {
          "duration": 0.11432906250000485,
          "durationTicks": 40,
          "midi": 74,
          "name": "D5",
          "ticks": 5744,
          "time": 43.294108195312496,
          "velocity": 0.8818897637795275
        },
        {
          "duration": 0.11718728906249964,
          "durationTicks": 41,
          "midi": 76,
          "name": "E5",
          "ticks": 5786,
          "time": 43.4141537109375,
          "velocity": 0.8818897637795275
        },
        {
          "duration": 0.11718728906249964,
          "durationTicks": 41,
          "midi": 73,
          "name": "C#5",
          "ticks": 5829,
          "time": 43.537057453125,
          "velocity": 0.8818897637795275
        },
        {
          "duration": 0.17040487499999557,
          "durationTicks": 61,
          "midi": 74,
          "name": "D5",
          "ticks": 5872,
          "time": 43.6599611953125,
          "velocity": 0.8818897637795275
        },
        {
          "duration": 0.1702007226562543,
          "durationTicks": 61,
          "midi": 76,
          "name": "E5",
          "ticks": 5936,
          "time": 43.83873659765624,
          "velocity": 0.8818897637795275
        },
        {
          "duration": 0.11160703124999571,
          "durationTicks": 40,
          "midi": 77,
          "name": "F5",
          "ticks": 6000,
          "time": 44.01730784765625,
          "velocity": 0.8818897637795275
        },
        {
          "duration": 0.11439720703125289,
          "durationTicks": 41,
          "midi": 79,
          "name": "G5",
          "ticks": 6042,
          "time": 44.134495230468744,
          "velocity": 0.8818897637795275
        },
        {
          "duration": 0.11439720703125289,
          "durationTicks": 41,
          "midi": 76,
          "name": "E5",
          "ticks": 6085,
          "time": 44.2544727890625,
          "velocity": 0.8818897637795275
        },
        {
          "duration": 0.11160703125000282,
          "durationTicks": 40,
          "midi": 77,
          "name": "F5",
          "ticks": 6128,
          "time": 44.37445034765624,
          "velocity": 0.8818897637795275
        },
        {
          "duration": 0.11439720703125289,
          "durationTicks": 41,
          "midi": 79,
          "name": "G5",
          "ticks": 6170,
          "time": 44.491637730468746,
          "velocity": 0.8818897637795275
        },
        {
          "duration": 0.11439720703124578,
          "durationTicks": 41,
          "midi": 76,
          "name": "E5",
          "ticks": 6213,
          "time": 44.6116152890625,
          "velocity": 0.8818897637795275
        },
        {
          "duration": 0.11160703125000282,
          "durationTicks": 40,
          "midi": 77,
          "name": "F5",
          "ticks": 6256,
          "time": 44.731592847656245,
          "velocity": 0.8818897637795275
        },
        {
          "duration": 0.11439720703124578,
          "durationTicks": 41,
          "midi": 79,
          "name": "G5",
          "ticks": 6298,
          "time": 44.84878023046875,
          "velocity": 0.8818897637795275
        },
        {
          "duration": 0.11439720703125289,
          "durationTicks": 41,
          "midi": 76,
          "name": "E5",
          "ticks": 6341,
          "time": 44.968757789062494,
          "velocity": 0.8818897637795275
        },
        {
          "duration": 0.1664370664062531,
          "durationTicks": 61,
          "midi": 77,
          "name": "F5",
          "ticks": 6384,
          "time": 45.08873534765625,
          "velocity": 0.8818897637795275
        },
        {
          "duration": 0.16624239453124545,
          "durationTicks": 61,
          "midi": 79,
          "name": "G5",
          "ticks": 6448,
          "time": 45.26334826953125,
          "velocity": 0.8818897637795275
        },
        {
          "duration": 0.10901140625000494,
          "durationTicks": 40,
          "midi": 81,
          "name": "A5",
          "ticks": 6512,
          "time": 45.437766519531245,
          "velocity": 0.8818897637795275
        },
        {
          "duration": 0.11173669140625009,
          "durationTicks": 41,
          "midi": 82,
          "name": "A#5",
          "ticks": 6554,
          "time": 45.55222849609375,
          "velocity": 0.8818897637795275
        },
        {
          "duration": 0.11173669140625009,
          "durationTicks": 41,
          "midi": 79,
          "name": "G5",
          "ticks": 6597,
          "time": 45.669415757812494,
          "velocity": 0.8818897637795275
        },
        {
          "duration": 0.10901140624999783,
          "durationTicks": 40,
          "midi": 81,
          "name": "A5",
          "ticks": 6640,
          "time": 45.78660301953125,
          "velocity": 0.8818897637795275
        },
        {
          "duration": 0.11173669140625009,
          "durationTicks": 41,
          "midi": 82,
          "name": "A#5",
          "ticks": 6682,
          "time": 45.901064996093744,
          "velocity": 0.8818897637795275
        },
        {
          "duration": 0.11173669140625009,
          "durationTicks": 41,
          "midi": 79,
          "name": "G5",
          "ticks": 6725,
          "time": 46.0182522578125,
          "velocity": 0.8818897637795275
        },
        {
          "duration": 0.10901140624999783,
          "durationTicks": 40,
          "midi": 81,
          "name": "A5",
          "ticks": 6768,
          "time": 46.135439519531246,
          "velocity": 0.8818897637795275
        },
        {
          "duration": 0.11173669140625009,
          "durationTicks": 41,
          "midi": 82,
          "name": "A#5",
          "ticks": 6810,
          "time": 46.24990149609375,
          "velocity": 0.8818897637795275
        },
        {
          "duration": 0.11173669140625009,
          "durationTicks": 41,
          "midi": 79,
          "name": "G5",
          "ticks": 6853,
          "time": 46.367088757812496,
          "velocity": 0.8818897637795275
        },
        {
          "duration": 0.16624239453125256,
          "durationTicks": 61,
          "midi": 81,
          "name": "A5",
          "ticks": 6896,
          "time": 46.484276019531244,
          "velocity": 0.8818897637795275
        },
        {
          "duration": 0.17000605078124664,
          "durationTicks": 61,
          "midi": 81,
          "name": "A5",
          "ticks": 7504,
          "time": 48.14124939453125,
          "velocity": 0.8818897637795275
        },
        {
          "duration": 0.11160703125000282,
          "durationTicks": 40,
          "midi": 79,
          "name": "G5",
          "ticks": 7568,
          "time": 48.31962597265625,
          "velocity": 0.8818897637795275
        },
        {
          "duration": 0.11439720703125289,
          "durationTicks": 41,
          "midi": 82,
          "name": "A#5",
          "ticks": 7610,
          "time": 48.43681335546875,
          "velocity": 0.8818897637795275
        },
        {
          "duration": 0.11439720703124578,
          "durationTicks": 41,
          "midi": 76,
          "name": "E5",
          "ticks": 7653,
          "time": 48.5567909140625,
          "velocity": 0.8818897637795275
        },
        {
          "duration": 0.11160703125000282,
          "durationTicks": 40,
          "midi": 79,
          "name": "G5",
          "ticks": 7696,
          "time": 48.67676847265625,
          "velocity": 0.8818897637795275
        },
        {
          "duration": 0.11439720703124578,
          "durationTicks": 41,
          "midi": 82,
          "name": "A#5",
          "ticks": 7738,
          "time": 48.79395585546875,
          "velocity": 0.8818897637795275
        },
        {
          "duration": 0.11439720703125289,
          "durationTicks": 41,
          "midi": 76,
          "name": "E5",
          "ticks": 7781,
          "time": 48.9139334140625,
          "velocity": 0.8818897637795275
        },
        {
          "duration": 0.11160703124999571,
          "durationTicks": 40,
          "midi": 77,
          "name": "F5",
          "ticks": 7824,
          "time": 49.03391097265625,
          "velocity": 0.8818897637795275
        },
        {
          "duration": 0.11439720703125289,
          "durationTicks": 41,
          "midi": 81,
          "name": "A5",
          "ticks": 7866,
          "time": 49.15109835546875,
          "velocity": 0.8818897637795275
        },
        {
          "duration": 0.11439720703125289,
          "durationTicks": 41,
          "midi": 74,
          "name": "D5",
          "ticks": 7909,
          "time": 49.2710759140625,
          "velocity": 0.8818897637795275
        },
        {
          "duration": 0.11160703124999571,
          "durationTicks": 40,
          "midi": 77,
          "name": "F5",
          "ticks": 7952,
          "time": 49.39105347265625,
          "velocity": 0.8818897637795275
        },
        {
          "duration": 0.11439720703125289,
          "durationTicks": 41,
          "midi": 81,
          "name": "A5",
          "ticks": 7994,
          "time": 49.50824085546875,
          "velocity": 0.8818897637795275
        },
        {
          "duration": 0.11439720703124578,
          "durationTicks": 41,
          "midi": 74,
          "name": "D5",
          "ticks": 8037,
          "time": 49.6282184140625,
          "velocity": 0.8818897637795275
        },
        {
          "duration": 0.11160703125000282,
          "durationTicks": 40,
          "midi": 76,
          "name": "E5",
          "ticks": 8080,
          "time": 49.74819597265625,
          "velocity": 0.8818897637795275
        },
        {
          "duration": 0.11439720703124578,
          "durationTicks": 41,
          "midi": 79,
          "name": "G5",
          "ticks": 8122,
          "time": 49.86538335546875,
          "velocity": 0.8818897637795275
        },
        {
          "duration": 0.11439720703125289,
          "durationTicks": 41,
          "midi": 72,
          "name": "C5",
          "ticks": 8165,
          "time": 49.9853609140625,
          "velocity": 0.8818897637795275
        },
        {
          "duration": 0.11160703125000282,
          "durationTicks": 40,
          "midi": 76,
          "name": "E5",
          "ticks": 8208,
          "time": 50.10533847265625,
          "velocity": 0.8818897637795275
        },
        {
          "duration": 0.11439720703124578,
          "durationTicks": 41,
          "midi": 79,
          "name": "G5",
          "ticks": 8250,
          "time": 50.22252585546875,
          "velocity": 0.8818897637795275
        },
        {
          "duration": 0.11439720703125289,
          "durationTicks": 41,
          "midi": 72,
          "name": "C5",
          "ticks": 8293,
          "time": 50.3425034140625,
          "velocity": 0.8818897637795275
        },
        {
          "duration": 0.11160703124999571,
          "durationTicks": 40,
          "midi": 74,
          "name": "D5",
          "ticks": 8336,
          "time": 50.46248097265625,
          "velocity": 0.8818897637795275
        },
        {
          "duration": 0.11439720703125289,
          "durationTicks": 41,
          "midi": 77,
          "name": "F5",
          "ticks": 8378,
          "time": 50.57966835546875,
          "velocity": 0.8818897637795275
        },
        {
          "duration": 0.11439720703124578,
          "durationTicks": 41,
          "midi": 70,
          "name": "A#4",
          "ticks": 8421,
          "time": 50.6996459140625,
          "velocity": 0.8818897637795275
        },
        {
          "duration": 0.11160703125000282,
          "durationTicks": 40,
          "midi": 74,
          "name": "D5",
          "ticks": 8464,
          "time": 50.81962347265625,
          "velocity": 0.8818897637795275
        },
        {
          "duration": 0.11439720703125289,
          "durationTicks": 41,
          "midi": 77,
          "name": "F5",
          "ticks": 8506,
          "time": 50.93681085546875,
          "velocity": 0.8818897637795275
        },
        {
          "duration": 0.11439720703124578,
          "durationTicks": 41,
          "midi": 70,
          "name": "A#4",
          "ticks": 8549,
          "time": 51.0567884140625,
          "velocity": 0.8818897637795275
        },
        {
          "duration": 0.11160703125000282,
          "durationTicks": 40,
          "midi": 72,
          "name": "C5",
          "ticks": 8592,
          "time": 51.17676597265625,
          "velocity": 0.8818897637795275
        },
        {
          "duration": 0.11439720703124578,
          "durationTicks": 41,
          "midi": 76,
          "name": "E5",
          "ticks": 8634,
          "time": 51.29395335546875,
          "velocity": 0.8818897637795275
        },
        {
          "duration": 0.11439720703125289,
          "durationTicks": 41,
          "midi": 69,
          "name": "A4",
          "ticks": 8677,
          "time": 51.4139309140625,
          "velocity": 0.8818897637795275
        },
        {
          "duration": 0.11160703125000282,
          "durationTicks": 40,
          "midi": 72,
          "name": "C5",
          "ticks": 8720,
          "time": 51.53390847265625,
          "velocity": 0.8818897637795275
        },
        {
          "duration": 0.11439720703124578,
          "durationTicks": 41,
          "midi": 76,
          "name": "E5",
          "ticks": 8762,
          "time": 51.65109585546875,
          "velocity": 0.8818897637795275
        },
        {
          "duration": 0.11439720703125289,
          "durationTicks": 41,
          "midi": 69,
          "name": "A4",
          "ticks": 8805,
          "time": 51.7710734140625,
          "velocity": 0.8818897637795275
        },
        {
          "duration": 0.11160703124999571,
          "durationTicks": 40,
          "midi": 70,
          "name": "A#4",
          "ticks": 8848,
          "time": 51.89105097265625,
          "velocity": 0.8818897637795275
        },
        {
          "duration": 0.11439720703125289,
          "durationTicks": 41,
          "midi": 74,
          "name": "D5",
          "ticks": 8890,
          "time": 52.00823835546875,
          "velocity": 0.8818897637795275
        },
        {
          "duration": 0.11439720703124578,
          "durationTicks": 41,
          "midi": 67,
          "name": "G4",
          "ticks": 8933,
          "time": 52.1282159140625,
          "velocity": 0.8818897637795275
        },
        {
          "duration": 0.11160703125000282,
          "durationTicks": 40,
          "midi": 70,
          "name": "A#4",
          "ticks": 8976,
          "time": 52.24819347265625,
          "velocity": 0.8818897637795275
        },
        {
          "duration": 0.11439720703125289,
          "durationTicks": 41,
          "midi": 74,
          "name": "D5",
          "ticks": 9018,
          "time": 52.36538085546875,
          "velocity": 0.8818897637795275
        },
        {
          "duration": 0.11439720703124578,
          "durationTicks": 41,
          "midi": 67,
          "name": "G4",
          "ticks": 9061,
          "time": 52.4853584140625,
          "velocity": 0.8818897637795275
        },
        {
          "duration": 0.11160703125000282,
          "durationTicks": 40,
          "midi": 69,
          "name": "A4",
          "ticks": 9104,
          "time": 52.60533597265625,
          "velocity": 0.8818897637795275
        },
        {
          "duration": 0.11439720703124578,
          "durationTicks": 41,
          "midi": 72,
          "name": "C5",
          "ticks": 9146,
          "time": 52.72252335546875,
          "velocity": 0.8818897637795275
        },
        {
          "duration": 0.11439720703125289,
          "durationTicks": 41,
          "midi": 65,
          "name": "F4",
          "ticks": 9189,
          "time": 52.8425009140625,
          "velocity": 0.8818897637795275
        },
        {
          "duration": 0.11160703124999571,
          "durationTicks": 40,
          "midi": 69,
          "name": "A4",
          "ticks": 9232,
          "time": 52.96247847265625,
          "velocity": 0.8818897637795275
        },
        {
          "duration": 0.11439720703125289,
          "durationTicks": 41,
          "midi": 72,
          "name": "C5",
          "ticks": 9274,
          "time": 53.07966585546875,
          "velocity": 0.8818897637795275
        },
        {
          "duration": 0.11439720703125289,
          "durationTicks": 41,
          "midi": 65,
          "name": "F4",
          "ticks": 9317,
          "time": 53.1996434140625,
          "velocity": 0.8818897637795275
        },
        {
          "duration": 0.11160703124999571,
          "durationTicks": 40,
          "midi": 67,
          "name": "G4",
          "ticks": 9360,
          "time": 53.31962097265625,
          "velocity": 0.8818897637795275
        },
        {
          "duration": 0.11439720703125289,
          "durationTicks": 41,
          "midi": 70,
          "name": "A#4",
          "ticks": 9402,
          "time": 53.43680835546875,
          "velocity": 0.8818897637795275
        },
        {
          "duration": 0.11439720703124578,
          "durationTicks": 41,
          "midi": 64,
          "name": "E4",
          "ticks": 9445,
          "time": 53.5567859140625,
          "velocity": 0.8818897637795275
        },
        {
          "duration": 0.11160703125000282,
          "durationTicks": 40,
          "midi": 67,
          "name": "G4",
          "ticks": 9488,
          "time": 53.67676347265625,
          "velocity": 0.8818897637795275
        },
        {
          "duration": 0.11439720703124578,
          "durationTicks": 41,
          "midi": 70,
          "name": "A#4",
          "ticks": 9530,
          "time": 53.79395085546875,
          "velocity": 0.8818897637795275
        },
        {
          "duration": 0.11439720703125289,
          "durationTicks": 41,
          "midi": 64,
          "name": "E4",
          "ticks": 9573,
          "time": 53.9139284140625,
          "velocity": 0.8818897637795275
        },
        {
          "duration": 0.11676896484375021,
          "durationTicks": 40,
          "midi": 65,
          "name": "F4",
          "ticks": 9616,
          "time": 54.03390597265625,
          "velocity": 0.8818897637795275
        },
        {
          "duration": 0.1201171875,
          "durationTicks": 41,
          "midi": 69,
          "name": "A4",
          "ticks": 9658,
          "time": 54.1565343125,
          "velocity": 0.8818897637795275
        },
        {
          "duration": 0.1201171875,
          "durationTicks": 41,
          "midi": 62,
          "name": "D4",
          "ticks": 9701,
          "time": 54.282510875,
          "velocity": 0.8818897637795275
        },
        {
          "duration": 0.1171875,
          "durationTicks": 40,
          "midi": 65,
          "name": "F4",
          "ticks": 9744,
          "time": 54.4084874375,
          "velocity": 0.8818897637795275
        },
        {
          "duration": 0.1201171875,
          "durationTicks": 41,
          "midi": 69,
          "name": "A4",
          "ticks": 9786,
          "time": 54.5315343125,
          "velocity": 0.8818897637795275
        },
        {
          "duration": 0.1201171875,
          "durationTicks": 41,
          "midi": 62,
          "name": "D4",
          "ticks": 9829,
          "time": 54.657510875,
          "velocity": 0.8818897637795275
        },
        {
          "duration": 0.1326728671875017,
          "durationTicks": 40,
          "midi": 64,
          "name": "E4",
          "ticks": 9872,
          "time": 54.7834874375,
          "velocity": 0.8818897637795275
        },
        {
          "duration": 0.1372766484374992,
          "durationTicks": 41,
          "midi": 67,
          "name": "G4",
          "ticks": 9914,
          "time": 54.9228567265625,
          "velocity": 0.8818897637795275
        },
        {
          "duration": 0.1372766484374992,
          "durationTicks": 41,
          "midi": 61,
          "name": "C#4",
          "ticks": 9957,
          "time": 55.066829796875,
          "velocity": 0.8818897637795275
        },
        {
          "duration": 0.13392843749999628,
          "durationTicks": 40,
          "midi": 64,
          "name": "E4",
          "ticks": 10000,
          "time": 55.2108028671875,
          "velocity": 0.8818897637795275
        },
        {
          "duration": 0.1372766484374992,
          "durationTicks": 41,
          "midi": 67,
          "name": "G4",
          "ticks": 10042,
          "time": 55.3514277265625,
          "velocity": 0.8818897637795275
        },
        {
          "duration": 0.1372766484374992,
          "durationTicks": 41,
          "midi": 61,
          "name": "C#4",
          "ticks": 10085,
          "time": 55.495400796875,
          "velocity": 0.8818897637795275
        },
        {
          "duration": 2.9261718750000014,
          "durationTicks": 500,
          "midi": 61,
          "name": "C#4",
          "ticks": 10384,
          "time": 56.835356000000004,
          "velocity": 0.8818897637795275
        },
        {
          "duration": 3.193359375,
          "durationTicks": 500,
          "midi": 64,
          "name": "E4",
          "ticks": 10414,
          "time": 57.007621625000006,
          "velocity": 0.8818897637795275
        },
        {
          "duration": 2.173828125,
          "durationTicks": 371,
          "midi": 67,
          "name": "G4",
          "ticks": 10444,
          "time": 57.183402875000006,
          "velocity": 0.8818897637795275
        },
        {
          "duration": 3.744140625,
          "durationTicks": 543,
          "midi": 70,
          "name": "A#4",
          "ticks": 10474,
          "time": 57.359184125000006,
          "velocity": 0.8818897637795275
        },
        {
          "duration": 0.234375,
          "durationTicks": 31,
          "midi": 69,
          "name": "A4",
          "ticks": 10928,
          "time": 60.529106000000006,
          "velocity": 0.8818897637795275
        },
        {
          "duration": 0.181640625,
          "durationTicks": 31,
          "midi": 67,
          "name": "G4",
          "ticks": 10960,
          "time": 60.769340375000006,
          "velocity": 0.8818897637795275
        },
        {
          "duration": 0.181640625,
          "durationTicks": 31,
          "midi": 65,
          "name": "F4",
          "ticks": 10992,
          "time": 60.956840375000006,
          "velocity": 0.8818897637795275
        },
        {
          "duration": 0.181640625,
          "durationTicks": 31,
          "midi": 64,
          "name": "E4",
          "ticks": 11024,
          "time": 61.144340375000006,
          "velocity": 0.8818897637795275
        },
        {
          "duration": 0.181640625,
          "durationTicks": 31,
          "midi": 62,
          "name": "D4",
          "ticks": 11056,
          "time": 61.331840375000006,
          "velocity": 0.8818897637795275
        },
        {
          "duration": 0.181640625,
          "durationTicks": 31,
          "midi": 61,
          "name": "C#4",
          "ticks": 11088,
          "time": 61.519340375000006,
          "velocity": 0.8818897637795275
        },
        {
          "duration": 0.181640625,
          "durationTicks": 31,
          "midi": 59,
          "name": "B3",
          "ticks": 11120,
          "time": 61.706840375000006,
          "velocity": 0.8818897637795275
        },
        {
          "duration": 0.244140625,
          "durationTicks": 61,
          "midi": 61,
          "name": "C#4",
          "ticks": 11152,
          "time": 61.894340375000006,
          "velocity": 0.8818897637795275
        },
        {
          "duration": 0.23828125,
          "durationTicks": 61,
          "midi": 57,
          "name": "A3",
          "ticks": 11216,
          "time": 62.150199750000006,
          "velocity": 0.8818897637795275
        },
        {
          "duration": 0.23828125,
          "durationTicks": 61,
          "midi": 61,
          "name": "C#4",
          "ticks": 11280,
          "time": 62.400199750000006,
          "velocity": 0.8818897637795275
        },
        {
          "duration": 0.17578125,
          "durationTicks": 31,
          "midi": 64,
          "name": "E4",
          "ticks": 11344,
          "time": 62.650199750000006,
          "velocity": 0.8818897637795275
        },
        {
          "duration": 0.181640625,
          "durationTicks": 31,
          "midi": 67,
          "name": "G4",
          "ticks": 11376,
          "time": 62.831840375000006,
          "velocity": 0.8818897637795275
        },
        {
          "duration": 0.064453125,
          "durationTicks": 11,
          "midi": 67,
          "name": "G4",
          "ticks": 11408,
          "time": 63.019340375000006,
          "velocity": 0.8818897637795275
        },
        {
          "duration": 0.064453125,
          "durationTicks": 11,
          "midi": 65,
          "name": "F4",
          "ticks": 11422,
          "time": 63.101371625000006,
          "velocity": 0.8818897637795275
        },
        {
          "duration": 0.064453125,
          "durationTicks": 11,
          "midi": 67,
          "name": "G4",
          "ticks": 11436,
          "time": 63.183402875000006,
          "velocity": 0.8818897637795275
        },
        {
          "duration": 0.064453125,
          "durationTicks": 11,
          "midi": 65,
          "name": "F4",
          "ticks": 11450,
          "time": 63.265434125000006,
          "velocity": 0.8818897637795275
        },
        {
          "duration": 0.064453125,
          "durationTicks": 11,
          "midi": 67,
          "name": "G4",
          "ticks": 11464,
          "time": 63.347465375000006,
          "velocity": 0.8818897637795275
        },
        {
          "duration": 0.064453125,
          "durationTicks": 11,
          "midi": 65,
          "name": "F4",
          "ticks": 11478,
          "time": 63.429496625000006,
          "velocity": 0.8818897637795275
        },
        {
          "duration": 0.064453125,
          "durationTicks": 11,
          "midi": 67,
          "name": "G4",
          "ticks": 11492,
          "time": 63.511527875000006,
          "velocity": 0.8818897637795275
        },
        {
          "duration": 0.064453125,
          "durationTicks": 11,
          "midi": 65,
          "name": "F4",
          "ticks": 11506,
          "time": 63.593559125000006,
          "velocity": 0.8818897637795275
        },
        {
          "duration": 0.064453125,
          "durationTicks": 11,
          "midi": 67,
          "name": "G4",
          "ticks": 11520,
          "time": 63.675590375000006,
          "velocity": 0.8818897637795275
        },
        {
          "duration": 0.064453125,
          "durationTicks": 11,
          "midi": 65,
          "name": "F4",
          "ticks": 11534,
          "time": 63.757621625000006,
          "velocity": 0.8818897637795275
        },
        {
          "duration": 0.064453125,
          "durationTicks": 11,
          "midi": 67,
          "name": "G4",
          "ticks": 11548,
          "time": 63.839652875000006,
          "velocity": 0.8818897637795275
        },
        {
          "duration": 0.064453125,
          "durationTicks": 11,
          "midi": 65,
          "name": "F4",
          "ticks": 11562,
          "time": 63.921684125000006,
          "velocity": 0.8818897637795275
        },
        {
          "duration": 0.064453125,
          "durationTicks": 11,
          "midi": 67,
          "name": "G4",
          "ticks": 11576,
          "time": 64.00371537500001,
          "velocity": 0.8818897637795275
        },
        {
          "duration": 0.357421875,
          "durationTicks": 61,
          "midi": 64,
          "name": "E4",
          "ticks": 11600,
          "time": 64.14434037500001,
          "velocity": 0.8818897637795275
        },
        {
          "duration": 2.25,
          "durationTicks": 384,
          "midi": 65,
          "name": "F4",
          "ticks": 11664,
          "time": 64.51934037500001,
          "velocity": 0.8818897637795275
        },
        {
          "duration": 2.25,
          "durationTicks": 384,
          "midi": 62,
          "name": "D4",
          "ticks": 11664,
          "time": 64.51934037500001,
          "velocity": 0.8818897637795275
        },
        {
          "duration": 0.21748577343750242,
          "durationTicks": 61,
          "midi": 69,
          "name": "A4",
          "ticks": 12240,
          "time": 67.89434037500001,
          "velocity": 0.8818897637795275
        },
        {
          "duration": 0.10340050781249488,
          "durationTicks": 30,
          "midi": 74,
          "name": "D5",
          "ticks": 12304,
          "time": 68.12216619921877,
          "velocity": 0.8818897637795275
        },
        {
          "duration": 0.10340050781250909,
          "durationTicks": 30,
          "midi": 76,
          "name": "E5",
          "ticks": 12368,
          "time": 68.34275394921876,
          "velocity": 0.8818897637795275
        },
        {
          "duration": 0.10340050781249488,
          "durationTicks": 30,
          "midi": 77,
          "name": "F5",
          "ticks": 12432,
          "time": 68.56334169921877,
          "velocity": 0.8818897637795275
        },
        {
          "duration": 0.10340050781250909,
          "durationTicks": 30,
          "midi": 74,
          "name": "D5",
          "ticks": 12496,
          "time": 68.78392944921876,
          "velocity": 0.8818897637795275
        },
        {
          "duration": 0.10340050781249488,
          "durationTicks": 30,
          "midi": 76,
          "name": "E5",
          "ticks": 12560,
          "time": 69.00451719921877,
          "velocity": 0.8818897637795275
        },
        {
          "duration": 0.10340050781250909,
          "durationTicks": 30,
          "midi": 77,
          "name": "F5",
          "ticks": 12624,
          "time": 69.22510494921876,
          "velocity": 0.8818897637795275
        },
        {
          "duration": 0.10340050781249488,
          "durationTicks": 30,
          "midi": 79,
          "name": "G5",
          "ticks": 12688,
          "time": 69.44569269921877,
          "velocity": 0.8818897637795275
        },
        {
          "duration": 0.10340050781250909,
          "durationTicks": 30,
          "midi": 76,
          "name": "E5",
          "ticks": 12752,
          "time": 69.66628044921876,
          "velocity": 0.8818897637795275
        },
        {
          "duration": 0.10340050781249488,
          "durationTicks": 30,
          "midi": 77,
          "name": "F5",
          "ticks": 12816,
          "time": 69.88686819921877,
          "velocity": 0.8818897637795275
        },
        {
          "duration": 0.10340050781250909,
          "durationTicks": 30,
          "midi": 79,
          "name": "G5",
          "ticks": 12880,
          "time": 70.10745594921876,
          "velocity": 0.8818897637795275
        },
        {
          "duration": 0.10340050781249488,
          "durationTicks": 30,
          "midi": 81,
          "name": "A5",
          "ticks": 12944,
          "time": 70.32804369921877,
          "velocity": 0.8818897637795275
        },
        {
          "duration": 0.10340050781250909,
          "durationTicks": 30,
          "midi": 77,
          "name": "F5",
          "ticks": 13008,
          "time": 70.54863144921876,
          "velocity": 0.8818897637795275
        },
        {
          "duration": 0.10340050781249488,
          "durationTicks": 30,
          "midi": 79,
          "name": "G5",
          "ticks": 13072,
          "time": 70.76921919921877,
          "velocity": 0.8818897637795275
        },
        {
          "duration": 0.10340050781250909,
          "durationTicks": 30,
          "midi": 81,
          "name": "A5",
          "ticks": 13136,
          "time": 70.98980694921876,
          "velocity": 0.8818897637795275
        },
        {
          "duration": 0.10340050781249488,
          "durationTicks": 30,
          "midi": 82,
          "name": "A#5",
          "ticks": 13200,
          "time": 71.21039469921877,
          "velocity": 0.8818897637795275
        },
        {
          "duration": 0.10340050781250909,
          "durationTicks": 30,
          "midi": 79,
          "name": "G5",
          "ticks": 13264,
          "time": 71.43098244921876,
          "velocity": 0.8818897637795275
        },
        {
          "duration": 0.10340050781249488,
          "durationTicks": 30,
          "midi": 81,
          "name": "A5",
          "ticks": 13328,
          "time": 71.65157019921877,
          "velocity": 0.8818897637795275
        },
        {
          "duration": 0.10340050781250909,
          "durationTicks": 30,
          "midi": 77,
          "name": "F5",
          "ticks": 13392,
          "time": 71.87215794921876,
          "velocity": 0.8818897637795275
        },
        {
          "duration": 0.10340050781249488,
          "durationTicks": 30,
          "midi": 79,
          "name": "G5",
          "ticks": 13456,
          "time": 72.09274569921877,
          "velocity": 0.8818897637795275
        },
        {
          "duration": 0.10340050781250909,
          "durationTicks": 30,
          "midi": 76,
          "name": "E5",
          "ticks": 13520,
          "time": 72.31333344921876,
          "velocity": 0.8818897637795275
        },
        {
          "duration": 0.10340050781249488,
          "durationTicks": 30,
          "midi": 77,
          "name": "F5",
          "ticks": 13584,
          "time": 72.53392119921877,
          "velocity": 0.8818897637795275
        },
        {
          "duration": 0.10340050781250909,
          "durationTicks": 30,
          "midi": 74,
          "name": "D5",
          "ticks": 13648,
          "time": 72.75450894921876,
          "velocity": 0.8818897637795275
        },
        {
          "duration": 0.10340050781249488,
          "durationTicks": 30,
          "midi": 76,
          "name": "E5",
          "ticks": 13712,
          "time": 72.97509669921877,
          "velocity": 0.8818897637795275
        },
        {
          "duration": 0.10340050781250909,
          "durationTicks": 30,
          "midi": 73,
          "name": "C#5",
          "ticks": 13776,
          "time": 73.19568444921876,
          "velocity": 0.8818897637795275
        },
        {
          "duration": 0.10340050781249488,
          "durationTicks": 30,
          "midi": 74,
          "name": "D5",
          "ticks": 13840,
          "time": 73.41627219921877,
          "velocity": 0.8818897637795275
        },
        {
          "duration": 0.10340050781250909,
          "durationTicks": 30,
          "midi": 69,
          "name": "A4",
          "ticks": 13904,
          "time": 73.63685994921876,
          "velocity": 0.8818897637795275
        },
        {
          "duration": 0.10340050781249488,
          "durationTicks": 30,
          "midi": 70,
          "name": "A#4",
          "ticks": 13968,
          "time": 73.85744769921877,
          "velocity": 0.8818897637795275
        },
        {
          "duration": 0.10340050781250909,
          "durationTicks": 30,
          "midi": 67,
          "name": "G4",
          "ticks": 14032,
          "time": 74.07803544921876,
          "velocity": 0.8818897637795275
        },
        {
          "duration": 0.10340050781249488,
          "durationTicks": 30,
          "midi": 69,
          "name": "A4",
          "ticks": 14096,
          "time": 74.29862319921877,
          "velocity": 0.8818897637795275
        },
        {
          "duration": 0.10340050781250909,
          "durationTicks": 30,
          "midi": 65,
          "name": "F4",
          "ticks": 14160,
          "time": 74.51921094921876,
          "velocity": 0.8818897637795275
        },
        {
          "duration": 0.10340050781249488,
          "durationTicks": 30,
          "midi": 67,
          "name": "G4",
          "ticks": 14224,
          "time": 74.73979869921877,
          "velocity": 0.8818897637795275
        },
        {
          "duration": 0.10340050781250909,
          "durationTicks": 30,
          "midi": 64,
          "name": "E4",
          "ticks": 14288,
          "time": 74.96038644921876,
          "velocity": 0.8818897637795275
        },
        {
          "duration": 0.10340050781249488,
          "durationTicks": 30,
          "midi": 65,
          "name": "F4",
          "ticks": 14352,
          "time": 75.18097419921877,
          "velocity": 0.8818897637795275
        },
        {
          "duration": 0.10340050781250909,
          "durationTicks": 30,
          "midi": 62,
          "name": "D4",
          "ticks": 14416,
          "time": 75.40156194921876,
          "velocity": 0.8818897637795275
        },
        {
          "duration": 0.10340050781249488,
          "durationTicks": 30,
          "midi": 64,
          "name": "E4",
          "ticks": 14480,
          "time": 75.62214969921877,
          "velocity": 0.8818897637795275
        },
        {
          "duration": 0.10340050781250909,
          "durationTicks": 30,
          "midi": 61,
          "name": "C#4",
          "ticks": 14544,
          "time": 75.84273744921876,
          "velocity": 0.8818897637795275
        },
        {
          "duration": 0.10340050781249488,
          "durationTicks": 30,
          "midi": 65,
          "name": "F4",
          "ticks": 14608,
          "time": 76.06332519921877,
          "velocity": 0.8818897637795275
        },
        {
          "duration": 0.10340050781250909,
          "durationTicks": 30,
          "midi": 62,
          "name": "D4",
          "ticks": 14672,
          "time": 76.28391294921876,
          "velocity": 0.8818897637795275
        },
        {
          "duration": 0.10340050781249488,
          "durationTicks": 30,
          "midi": 64,
          "name": "E4",
          "ticks": 14736,
          "time": 76.50450069921877,
          "velocity": 0.8818897637795275
        },
        {
          "duration": 0.10340050781250909,
          "durationTicks": 30,
          "midi": 61,
          "name": "C#4",
          "ticks": 14800,
          "time": 76.72508844921876,
          "velocity": 0.8818897637795275
        },
        {
          "duration": 0.10340050781249488,
          "durationTicks": 30,
          "midi": 62,
          "name": "D4",
          "ticks": 14864,
          "time": 76.94567619921877,
          "velocity": 0.8818897637795275
        },
        {
          "duration": 0.10340050781250909,
          "durationTicks": 30,
          "midi": 57,
          "name": "A3",
          "ticks": 14928,
          "time": 77.16626394921876,
          "velocity": 0.8818897637795275
        },
        {
          "duration": 0.10340050781249488,
          "durationTicks": 30,
          "midi": 58,
          "name": "A#3",
          "ticks": 14992,
          "time": 77.38685169921877,
          "velocity": 0.8818897637795275
        },
        {
          "duration": 0.10340050781250909,
          "durationTicks": 30,
          "midi": 55,
          "name": "G3",
          "ticks": 15056,
          "time": 77.60743944921876,
          "velocity": 0.8818897637795275
        },
        {
          "duration": 0.10340050781249488,
          "durationTicks": 30,
          "midi": 57,
          "name": "A3",
          "ticks": 15120,
          "time": 77.82802719921877,
          "velocity": 0.8818897637795275
        },
        {
          "duration": 0.10340050781250909,
          "durationTicks": 30,
          "midi": 53,
          "name": "F3",
          "ticks": 15184,
          "time": 78.04861494921876,
          "velocity": 0.8818897637795275
        },
        {
          "duration": 0.10340050781249488,
          "durationTicks": 30,
          "midi": 55,
          "name": "G3",
          "ticks": 15248,
          "time": 78.26920269921877,
          "velocity": 0.8818897637795275
        },
        {
          "duration": 0.10340050781250909,
          "durationTicks": 30,
          "midi": 52,
          "name": "E3",
          "ticks": 15312,
          "time": 78.48979044921876,
          "velocity": 0.8818897637795275
        },
        {
          "duration": 0.10340050781249488,
          "durationTicks": 30,
          "midi": 53,
          "name": "F3",
          "ticks": 15376,
          "time": 78.71037819921877,
          "velocity": 0.8818897637795275
        },
        {
          "duration": 0.10340050781250909,
          "durationTicks": 30,
          "midi": 50,
          "name": "D3",
          "ticks": 15440,
          "time": 78.93096594921876,
          "velocity": 0.8818897637795275
        },
        {
          "duration": 0.10340050781249488,
          "durationTicks": 30,
          "midi": 55,
          "name": "G3",
          "ticks": 15504,
          "time": 79.15155369921877,
          "velocity": 0.8818897637795275
        },
        {
          "duration": 0.10340050781250909,
          "durationTicks": 30,
          "midi": 52,
          "name": "E3",
          "ticks": 15568,
          "time": 79.37214144921876,
          "velocity": 0.8818897637795275
        },
        {
          "duration": 0.10340050781249488,
          "durationTicks": 30,
          "midi": 53,
          "name": "F3",
          "ticks": 15632,
          "time": 79.59272919921877,
          "velocity": 0.8818897637795275
        },
        {
          "duration": 0.10340050781250909,
          "durationTicks": 30,
          "midi": 50,
          "name": "D3",
          "ticks": 15696,
          "time": 79.81331694921876,
          "velocity": 0.8818897637795275
        },
        {
          "duration": 0.10340050781249488,
          "durationTicks": 30,
          "midi": 52,
          "name": "E3",
          "ticks": 15760,
          "time": 80.03390469921877,
          "velocity": 0.8818897637795275
        },
        {
          "duration": 0.10340050781250909,
          "durationTicks": 30,
          "midi": 49,
          "name": "C#3",
          "ticks": 15824,
          "time": 80.25449244921876,
          "velocity": 0.8818897637795275
        },
        {
          "duration": 0.7076056757812523,
          "durationTicks": 122,
          "midi": 50,
          "name": "D3",
          "ticks": 15888,
          "time": 80.47508019921877,
          "velocity": 0.8818897637795275
        },
        {
          "duration": 0.13072459375000278,
          "durationTicks": 31,
          "midi": 62,
          "name": "D4",
          "ticks": 16016,
          "time": 81.21784212500002,
          "velocity": 0.8818897637795275
        },
        {
          "duration": 0.12526930468750663,
          "durationTicks": 31,
          "midi": 65,
          "name": "F4",
          "ticks": 16048,
          "time": 81.35260766406252,
          "velocity": 0.8818897637795275
        },
        {
          "duration": 0.12526930468749242,
          "durationTicks": 31,
          "midi": 70,
          "name": "A#4",
          "ticks": 16080,
          "time": 81.48191791406252,
          "velocity": 0.8818897637795275
        },
        {
          "duration": 0.12526930468749242,
          "durationTicks": 31,
          "midi": 65,
          "name": "F4",
          "ticks": 16112,
          "time": 81.61122816406252,
          "velocity": 0.8818897637795275
        },
        {
          "duration": 0.12526930468750663,
          "durationTicks": 31,
          "midi": 60,
          "name": "C4",
          "ticks": 16144,
          "time": 81.74053841406251,
          "velocity": 0.8818897637795275
        },
        {
          "duration": 0.12526930468750663,
          "durationTicks": 31,
          "midi": 64,
          "name": "E4",
          "ticks": 16176,
          "time": 81.86984866406252,
          "velocity": 0.8818897637795275
        },
        {
          "duration": 0.12526930468749242,
          "durationTicks": 31,
          "midi": 69,
          "name": "A4",
          "ticks": 16208,
          "time": 81.99915891406252,
          "velocity": 0.8818897637795275
        },
        {
          "duration": 0.12526930468749242,
          "durationTicks": 31,
          "midi": 64,
          "name": "E4",
          "ticks": 16240,
          "time": 82.12846916406252,
          "velocity": 0.8818897637795275
        },
        {
          "duration": 0.12526930468750663,
          "durationTicks": 31,
          "midi": 58,
          "name": "A#3",
          "ticks": 16272,
          "time": 82.25777941406251,
          "velocity": 0.8818897637795275
        },
        {
          "duration": 0.12526930468750663,
          "durationTicks": 31,
          "midi": 62,
          "name": "D4",
          "ticks": 16304,
          "time": 82.38708966406251,
          "velocity": 0.8818897637795275
        },
        {
          "duration": 0.12526930468750663,
          "durationTicks": 31,
          "midi": 67,
          "name": "G4",
          "ticks": 16336,
          "time": 82.51639991406252,
          "velocity": 0.8818897637795275
        },
        {
          "duration": 0.12526930468749242,
          "durationTicks": 31,
          "midi": 62,
          "name": "D4",
          "ticks": 16368,
          "time": 82.64571016406252,
          "velocity": 0.8818897637795275
        },
        {
          "duration": 0.12526930468749242,
          "durationTicks": 31,
          "midi": 57,
          "name": "A3",
          "ticks": 16400,
          "time": 82.77502041406252,
          "velocity": 0.8818897637795275
        },
        {
          "duration": 0.12526930468750663,
          "durationTicks": 31,
          "midi": 61,
          "name": "C#4",
          "ticks": 16432,
          "time": 82.90433066406251,
          "velocity": 0.8818897637795275
        },
        {
          "duration": 0.12526930468750663,
          "durationTicks": 31,
          "midi": 64,
          "name": "E4",
          "ticks": 16464,
          "time": 83.03364091406252,
          "velocity": 0.8818897637795275
        },
        {
          "duration": 0.12526930468749242,
          "durationTicks": 31,
          "midi": 69,
          "name": "A4",
          "ticks": 16496,
          "time": 83.16295116406252,
          "velocity": 0.8818897637795275
        },
        {
          "duration": 0.28399783593748396,
          "durationTicks": 61,
          "midi": 62,
          "name": "D4",
          "ticks": 16528,
          "time": 83.29226141406252,
          "velocity": 0.8818897637795275
        },
        {
          "duration": 0.28593750000000284,
          "durationTicks": 61,
          "midi": 65,
          "name": "F4",
          "ticks": 16592,
          "time": 83.59032175000002,
          "velocity": 0.8818897637795275
        },
        {
          "duration": 0.28593750000000284,
          "durationTicks": 61,
          "midi": 70,
          "name": "A#4",
          "ticks": 16592,
          "time": 83.59032175000002,
          "velocity": 0.8818897637795275
        },
        {
          "duration": 0.28593750000000284,
          "durationTicks": 61,
          "midi": 64,
          "name": "E4",
          "ticks": 16720,
          "time": 84.19032175000001,
          "velocity": 0.8818897637795275
        },
        {
          "duration": 0.28593750000000284,
          "durationTicks": 61,
          "midi": 69,
          "name": "A4",
          "ticks": 16720,
          "time": 84.19032175000001,
          "velocity": 0.8818897637795275
        },
        {
          "duration": 0.357421875,
          "durationTicks": 61,
          "midi": 62,
          "name": "D4",
          "ticks": 16848,
          "time": 84.86180612500002,
          "velocity": 0.8818897637795275
        },
        {
          "duration": 0.357421875,
          "durationTicks": 61,
          "midi": 67,
          "name": "G4",
          "ticks": 16848,
          "time": 84.86180612500002,
          "velocity": 0.8818897637795275
        },
        {
          "duration": 1.412109375,
          "durationTicks": 122,
          "midi": 64,
          "name": "E4",
          "ticks": 16912,
          "time": 85.23680612500002,
          "velocity": 0.8818897637795275
        },
        {
          "duration": 1.412109375,
          "durationTicks": 122,
          "midi": 69,
          "name": "A4",
          "ticks": 16912,
          "time": 85.23680612500002,
          "velocity": 0.8818897637795275
        },
        {
          "duration": 1.412109375,
          "durationTicks": 122,
          "midi": 61,
          "name": "C#4",
          "ticks": 16912,
          "time": 85.23680612500002,
          "velocity": 0.8818897637795275
        },
        {
          "duration": 0.15028776562499502,
          "durationTicks": 31,
          "midi": 62,
          "name": "D4",
          "ticks": 17040,
          "time": 86.71922800000002,
          "velocity": 0.6299212598425197
        },
        {
          "duration": 0.12746703515624347,
          "durationTicks": 31,
          "midi": 65,
          "name": "F4",
          "ticks": 17072,
          "time": 86.87362760546877,
          "velocity": 0.6299212598425197
        },
        {
          "duration": 0.12746703515624347,
          "durationTicks": 31,
          "midi": 70,
          "name": "A#4",
          "ticks": 17104,
          "time": 87.00520648046877,
          "velocity": 0.6299212598425197
        },
        {
          "duration": 0.12746703515625768,
          "durationTicks": 31,
          "midi": 65,
          "name": "F4",
          "ticks": 17136,
          "time": 87.13678535546876,
          "velocity": 0.6299212598425197
        },
        {
          "duration": 0.12746703515625768,
          "durationTicks": 31,
          "midi": 60,
          "name": "C4",
          "ticks": 17168,
          "time": 87.26836423046876,
          "velocity": 0.6299212598425197
        },
        {
          "duration": 0.12746703515624347,
          "durationTicks": 31,
          "midi": 64,
          "name": "E4",
          "ticks": 17200,
          "time": 87.39994310546876,
          "velocity": 0.6299212598425197
        },
        {
          "duration": 0.12746703515624347,
          "durationTicks": 31,
          "midi": 69,
          "name": "A4",
          "ticks": 17232,
          "time": 87.53152198046877,
          "velocity": 0.6299212598425197
        },
        {
          "duration": 0.12746703515624347,
          "durationTicks": 31,
          "midi": 64,
          "name": "E4",
          "ticks": 17264,
          "time": 87.66310085546877,
          "velocity": 0.6299212598425197
        },
        {
          "duration": 0.12746703515624347,
          "durationTicks": 31,
          "midi": 58,
          "name": "A#3",
          "ticks": 17296,
          "time": 87.79467973046877,
          "velocity": 0.6299212598425197
        },
        {
          "duration": 0.12746703515625768,
          "durationTicks": 31,
          "midi": 62,
          "name": "D4",
          "ticks": 17328,
          "time": 87.92625860546876,
          "velocity": 0.6299212598425197
        },
        {
          "duration": 0.12746703515625768,
          "durationTicks": 31,
          "midi": 67,
          "name": "G4",
          "ticks": 17360,
          "time": 88.05783748046876,
          "velocity": 0.6299212598425197
        },
        {
          "duration": 0.12746703515624347,
          "durationTicks": 31,
          "midi": 62,
          "name": "D4",
          "ticks": 17392,
          "time": 88.18941635546877,
          "velocity": 0.6299212598425197
        },
        {
          "duration": 0.12746703515624347,
          "durationTicks": 31,
          "midi": 57,
          "name": "A3",
          "ticks": 17424,
          "time": 88.32099523046877,
          "velocity": 0.6299212598425197
        },
        {
          "duration": 0.12746703515624347,
          "durationTicks": 31,
          "midi": 61,
          "name": "C#4",
          "ticks": 17456,
          "time": 88.45257410546877,
          "velocity": 0.6299212598425197
        },
        {
          "duration": 0.12746703515625768,
          "durationTicks": 31,
          "midi": 64,
          "name": "E4",
          "ticks": 17488,
          "time": 88.58415298046876,
          "velocity": 0.6299212598425197
        },
        {
          "duration": 0.12746703515625768,
          "durationTicks": 31,
          "midi": 69,
          "name": "A4",
          "ticks": 17520,
          "time": 88.71573185546876,
          "velocity": 0.6299212598425197
        },
        {
          "duration": 0.28421051953124277,
          "durationTicks": 61,
          "midi": 62,
          "name": "D4",
          "ticks": 17552,
          "time": 88.84731073046876,
          "velocity": 0.6299212598425197
        },
        {
          "duration": 0.28593750000000284,
          "durationTicks": 61,
          "midi": 65,
          "name": "F4",
          "ticks": 17616,
          "time": 89.14558375000001,
          "velocity": 0.6299212598425197
        },
        {
          "duration": 0.28593750000000284,
          "durationTicks": 61,
          "midi": 70,
          "name": "A#4",
          "ticks": 17616,
          "time": 89.14558375000001,
          "velocity": 0.6299212598425197
        },
        {
          "duration": 0.28593750000000284,
          "durationTicks": 61,
          "midi": 64,
          "name": "E4",
          "ticks": 17744,
          "time": 89.74558375000001,
          "velocity": 0.6299212598425197
        },
        {
          "duration": 0.28593750000000284,
          "durationTicks": 61,
          "midi": 69,
          "name": "A4",
          "ticks": 17744,
          "time": 89.74558375000001,
          "velocity": 0.6299212598425197
        },
        {
          "duration": 0.357421875,
          "durationTicks": 61,
          "midi": 62,
          "name": "D4",
          "ticks": 17872,
          "time": 90.41706812500001,
          "velocity": 0.6299212598425197
        },
        {
          "duration": 0.357421875,
          "durationTicks": 61,
          "midi": 67,
          "name": "G4",
          "ticks": 17872,
          "time": 90.41706812500001,
          "velocity": 0.6299212598425197
        },
        {
          "duration": 1.6314157968750038,
          "durationTicks": 244,
          "midi": 64,
          "name": "E4",
          "ticks": 17936,
          "time": 90.79206812500001,
          "velocity": 0.6299212598425197
        },
        {
          "duration": 1.849049453125005,
          "durationTicks": 287,
          "midi": 69,
          "name": "A4",
          "ticks": 17936,
          "time": 90.79206812500001,
          "velocity": 0.6299212598425197
        },
        {
          "duration": 1.6314157968750038,
          "durationTicks": 244,
          "midi": 61,
          "name": "C#4",
          "ticks": 17936,
          "time": 90.79206812500001,
          "velocity": 0.6299212598425197
        },
        {
          "duration": 0.12974311328125054,
          "durationTicks": 31,
          "midi": 67,
          "name": "G4",
          "ticks": 18224,
          "time": 92.64530283984377,
          "velocity": 0.6299212598425197
        },
        {
          "duration": 0.12974311328125054,
          "durationTicks": 31,
          "midi": 65,
          "name": "F4",
          "ticks": 18256,
          "time": 92.77923121484378,
          "velocity": 0.6299212598425197
        },
        {
          "duration": 0.12974311328125054,
          "durationTicks": 31,
          "midi": 64,
          "name": "E4",
          "ticks": 18288,
          "time": 92.91315958984377,
          "velocity": 0.6299212598425197
        },
        {
          "duration": 0.12974311328125054,
          "durationTicks": 31,
          "midi": 62,
          "name": "D4",
          "ticks": 18320,
          "time": 93.04708796484377,
          "velocity": 0.6299212598425197
        },
        {
          "duration": 0.12974311328125054,
          "durationTicks": 31,
          "midi": 61,
          "name": "C#4",
          "ticks": 18352,
          "time": 93.18101633984377,
          "velocity": 0.6299212598425197
        },
        {
          "duration": 0.12974311328125054,
          "durationTicks": 31,
          "midi": 59,
          "name": "B3",
          "ticks": 18384,
          "time": 93.31494471484378,
          "velocity": 0.6299212598425197
        },
        {
          "duration": 0.12974311328125054,
          "durationTicks": 31,
          "midi": 61,
          "name": "C#4",
          "ticks": 18416,
          "time": 93.44887308984377,
          "velocity": 0.6299212598425197
        },
        {
          "duration": 0.12974311328125054,
          "durationTicks": 31,
          "midi": 64,
          "name": "E4",
          "ticks": 18576,
          "time": 94.11851496484377,
          "velocity": 0.6299212598425197
        },
        {
          "duration": 0.12974311328125054,
          "durationTicks": 31,
          "midi": 65,
          "name": "F4",
          "ticks": 18608,
          "time": 94.25244333984377,
          "velocity": 0.6299212598425197
        },
        {
          "duration": 0.12974311328125054,
          "durationTicks": 31,
          "midi": 67,
          "name": "G4",
          "ticks": 18640,
          "time": 94.38637171484378,
          "velocity": 0.6299212598425197
        },
        {
          "duration": 0.12974311328125054,
          "durationTicks": 31,
          "midi": 69,
          "name": "A4",
          "ticks": 18672,
          "time": 94.52030008984377,
          "velocity": 0.6299212598425197
        },
        {
          "duration": 0.12974311328125054,
          "durationTicks": 31,
          "midi": 67,
          "name": "G4",
          "ticks": 18704,
          "time": 94.65422846484377,
          "velocity": 0.6299212598425197
        },
        {
          "duration": 0.12974311328125054,
          "durationTicks": 31,
          "midi": 65,
          "name": "F4",
          "ticks": 18736,
          "time": 94.78815683984377,
          "velocity": 0.6299212598425197
        },
        {
          "duration": 0.12974311328125054,
          "durationTicks": 31,
          "midi": 64,
          "name": "E4",
          "ticks": 18768,
          "time": 94.92208521484378,
          "velocity": 0.6299212598425197
        },
        {
          "duration": 0.12974311328125054,
          "durationTicks": 31,
          "midi": 65,
          "name": "F4",
          "ticks": 18800,
          "time": 95.05601358984377,
          "velocity": 0.6299212598425197
        },
        {
          "duration": 0.12974311328125054,
          "durationTicks": 31,
          "midi": 62,
          "name": "D4",
          "ticks": 18832,
          "time": 95.18994196484377,
          "velocity": 0.6299212598425197
        },
        {
          "duration": 0.12974311328125054,
          "durationTicks": 31,
          "midi": 65,
          "name": "F4",
          "ticks": 18864,
          "time": 95.32387033984377,
          "velocity": 0.6299212598425197
        },
        {
          "duration": 0.12974311328125054,
          "durationTicks": 31,
          "midi": 69,
          "name": "A4",
          "ticks": 18896,
          "time": 95.45779871484378,
          "velocity": 0.6299212598425197
        },
        {
          "duration": 0.12974311328125054,
          "durationTicks": 31,
          "midi": 73,
          "name": "C#5",
          "ticks": 18928,
          "time": 95.59172708984377,
          "velocity": 0.6299212598425197
        },
        {
          "duration": 0.2553009648437552,
          "durationTicks": 61,
          "midi": 74,
          "name": "D5",
          "ticks": 18960,
          "time": 95.72565546484377,
          "velocity": 0.6299212598425197
        },
        {
          "duration": 0.12974311328125054,
          "durationTicks": 31,
          "midi": 69,
          "name": "A4",
          "ticks": 19024,
          "time": 95.99351221484378,
          "velocity": 0.6299212598425197
        },
        {
          "duration": 0.12974311328125054,
          "durationTicks": 31,
          "midi": 71,
          "name": "B4",
          "ticks": 19056,
          "time": 96.12744058984377,
          "velocity": 0.6299212598425197
        },
        {
          "duration": 0.12974311328125054,
          "durationTicks": 31,
          "midi": 73,
          "name": "C#5",
          "ticks": 19088,
          "time": 96.26136896484377,
          "velocity": 0.6299212598425197
        },
        {
          "duration": 0.12974311328125054,
          "durationTicks": 31,
          "midi": 74,
          "name": "D5",
          "ticks": 19120,
          "time": 96.39529733984376,
          "velocity": 0.6299212598425197
        },
        {
          "duration": 0.12974311328125054,
          "durationTicks": 31,
          "midi": 76,
          "name": "E5",
          "ticks": 19152,
          "time": 96.52922571484378,
          "velocity": 0.6299212598425197
        },
        {
          "duration": 0.12974311328125054,
          "durationTicks": 31,
          "midi": 77,
          "name": "F5",
          "ticks": 19184,
          "time": 96.66315408984377,
          "velocity": 0.6299212598425197
        },
        {
          "duration": 0.12974311328125054,
          "durationTicks": 31,
          "midi": 79,
          "name": "G5",
          "ticks": 19216,
          "time": 96.79708246484377,
          "velocity": 0.6299212598425197
        },
        {
          "duration": 0.12974311328125054,
          "durationTicks": 31,
          "midi": 81,
          "name": "A5",
          "ticks": 19248,
          "time": 96.93101083984376,
          "velocity": 0.6299212598425197
        },
        {
          "duration": 0.4656807851562519,
          "durationTicks": 61,
          "midi": 82,
          "name": "A#5",
          "ticks": 19280,
          "time": 97.06493921484378,
          "velocity": 0.8818897637795275
        },
        {
          "duration": 0.2953124999999943,
          "durationTicks": 61,
          "midi": 74,
          "name": "D5",
          "ticks": 19344,
          "time": 97.55405750000003,
          "velocity": 0.8818897637795275
        },
        {
          "duration": 0.28593750000000284,
          "durationTicks": 61,
          "midi": 77,
          "name": "F5",
          "ticks": 19408,
          "time": 97.86343250000003,
          "velocity": 0.8818897637795275
        },
        {
          "duration": 0.28593750000000284,
          "durationTicks": 61,
          "midi": 82,
          "name": "A#5",
          "ticks": 19408,
          "time": 97.86343250000003,
          "velocity": 0.8818897637795275
        },
        {
          "duration": 0.28593750000000284,
          "durationTicks": 61,
          "midi": 69,
          "name": "A4",
          "ticks": 19472,
          "time": 98.16343250000003,
          "velocity": 0.8818897637795275
        },
        {
          "duration": 0.28593750000000284,
          "durationTicks": 61,
          "midi": 76,
          "name": "E5",
          "ticks": 19536,
          "time": 98.46343250000002,
          "velocity": 0.8818897637795275
        },
        {
          "duration": 0.28593750000000284,
          "durationTicks": 61,
          "midi": 81,
          "name": "A5",
          "ticks": 19536,
          "time": 98.46343250000002,
          "velocity": 0.8818897637795275
        },
        {
          "duration": 0.3539062500000085,
          "durationTicks": 61,
          "midi": 70,
          "name": "A#4",
          "ticks": 19600,
          "time": 98.76343250000002,
          "velocity": 0.8818897637795275
        },
        {
          "duration": 0.357421875,
          "durationTicks": 61,
          "midi": 74,
          "name": "D5",
          "ticks": 19664,
          "time": 99.13491687500003,
          "velocity": 0.8818897637795275
        },
        {
          "duration": 0.357421875,
          "durationTicks": 61,
          "midi": 79,
          "name": "G5",
          "ticks": 19664,
          "time": 99.13491687500003,
          "velocity": 0.8818897637795275
        },
        {
          "duration": 0.947265625,
          "durationTicks": 122,
          "midi": 73,
          "name": "C#5",
          "ticks": 19728,
          "time": 99.50991687500003,
          "velocity": 0.8818897637795275
        },
        {
          "duration": 0.947265625,
          "durationTicks": 122,
          "midi": 76,
          "name": "E5",
          "ticks": 19728,
          "time": 99.50991687500003,
          "velocity": 0.8818897637795275
        },
        {
          "duration": 0.947265625,
          "durationTicks": 122,
          "midi": 81,
          "name": "A5",
          "ticks": 19728,
          "time": 99.50991687500003,
          "velocity": 0.8818897637795275
        },
        {
          "duration": 0.947265625,
          "durationTicks": 122,
          "midi": 64,
          "name": "E4",
          "ticks": 19728,
          "time": 99.50991687500003,
          "velocity": 0.8818897637795275
        },
        {
          "duration": 0.14275567187499405,
          "durationTicks": 31,
          "midi": 74,
          "name": "D5",
          "ticks": 19856,
          "time": 100.50405750000003,
          "velocity": 0.8818897637795275
        },
        {
          "duration": 0.1321022617187424,
          "durationTicks": 31,
          "midi": 77,
          "name": "F5",
          "ticks": 19888,
          "time": 100.65107453515628,
          "velocity": 0.8818897637795275
        },
        {
          "duration": 0.1321022617187424,
          "durationTicks": 31,
          "midi": 82,
          "name": "A#5",
          "ticks": 19920,
          "time": 100.78743816015628,
          "velocity": 0.8818897637795275
        },
        {
          "duration": 0.1321022617187424,
          "durationTicks": 31,
          "midi": 77,
          "name": "F5",
          "ticks": 19952,
          "time": 100.92380178515629,
          "velocity": 0.8818897637795275
        },
        {
          "duration": 0.1321022617187424,
          "durationTicks": 31,
          "midi": 72,
          "name": "C5",
          "ticks": 19984,
          "time": 101.06016541015629,
          "velocity": 0.8818897637795275
        },
        {
          "duration": 0.1321022617187566,
          "durationTicks": 31,
          "midi": 76,
          "name": "E5",
          "ticks": 20016,
          "time": 101.19652903515627,
          "velocity": 0.8818897637795275
        },
        {
          "duration": 0.1321022617187566,
          "durationTicks": 31,
          "midi": 81,
          "name": "A5",
          "ticks": 20048,
          "time": 101.33289266015628,
          "velocity": 0.8818897637795275
        },
        {
          "duration": 0.1321022617187566,
          "durationTicks": 31,
          "midi": 76,
          "name": "E5",
          "ticks": 20080,
          "time": 101.46925628515628,
          "velocity": 0.8818897637795275
        },
        {
          "duration": 0.1321022617187566,
          "durationTicks": 31,
          "midi": 70,
          "name": "A#4",
          "ticks": 20112,
          "time": 101.60561991015628,
          "velocity": 0.8818897637795275
        },
        {
          "duration": 0.1321022617187566,
          "durationTicks": 31,
          "midi": 74,
          "name": "D5",
          "ticks": 20144,
          "time": 101.74198353515628,
          "velocity": 0.8818897637795275
        },
        {
          "duration": 0.1321022617187424,
          "durationTicks": 31,
          "midi": 79,
          "name": "G5",
          "ticks": 20176,
          "time": 101.87834716015628,
          "velocity": 0.8818897637795275
        },
        {
          "duration": 0.1321022617187424,
          "durationTicks": 31,
          "midi": 74,
          "name": "D5",
          "ticks": 20208,
          "time": 102.01471078515628,
          "velocity": 0.8818897637795275
        },
        {
          "duration": 0.1321022617187424,
          "durationTicks": 31,
          "midi": 69,
          "name": "A4",
          "ticks": 20240,
          "time": 102.15107441015628,
          "velocity": 0.8818897637795275
        },
        {
          "duration": 0.1321022617187424,
          "durationTicks": 31,
          "midi": 73,
          "name": "C#5",
          "ticks": 20272,
          "time": 102.28743803515628,
          "velocity": 0.8818897637795275
        },
        {
          "duration": 0.1321022617187424,
          "durationTicks": 31,
          "midi": 76,
          "name": "E5",
          "ticks": 20304,
          "time": 102.42380166015629,
          "velocity": 0.8818897637795275
        },
        {
          "duration": 0.1321022617187566,
          "durationTicks": 31,
          "midi": 81,
          "name": "A5",
          "ticks": 20336,
          "time": 102.56016528515627,
          "velocity": 0.8818897637795275
        },
        {
          "duration": 0.2846590898437569,
          "durationTicks": 61,
          "midi": 74,
          "name": "D5",
          "ticks": 20368,
          "time": 102.69652891015627,
          "velocity": 0.8818897637795275
        },
        {
          "duration": 0.28593750000000284,
          "durationTicks": 61,
          "midi": 77,
          "name": "F5",
          "ticks": 20432,
          "time": 102.99525050000004,
          "velocity": 0.8818897637795275
        },
        {
          "duration": 0.28593750000000284,
          "durationTicks": 61,
          "midi": 82,
          "name": "A#5",
          "ticks": 20432,
          "time": 102.99525050000004,
          "velocity": 0.8818897637795275
        },
        {
          "duration": 0.28593750000000284,
          "durationTicks": 61,
          "midi": 69,
          "name": "A4",
          "ticks": 20496,
          "time": 103.29525050000004,
          "velocity": 0.8818897637795275
        },
        {
          "duration": 0.28593750000000284,
          "durationTicks": 61,
          "midi": 76,
          "name": "E5",
          "ticks": 20560,
          "time": 103.59525050000003,
          "velocity": 0.8818897637795275
        },
        {
          "duration": 0.28593750000000284,
          "durationTicks": 61,
          "midi": 81,
          "name": "A5",
          "ticks": 20560,
          "time": 103.59525050000003,
          "velocity": 0.8818897637795275
        },
        {
          "duration": 0.28593750000000284,
          "durationTicks": 61,
          "midi": 70,
          "name": "A#4",
          "ticks": 20624,
          "time": 103.89525050000003,
          "velocity": 0.8818897637795275
        },
        {
          "duration": 0.28593749999998863,
          "durationTicks": 61,
          "midi": 74,
          "name": "D5",
          "ticks": 20688,
          "time": 104.19525050000004,
          "velocity": 0.8818897637795275
        },
        {
          "duration": 0.28593749999998863,
          "durationTicks": 61,
          "midi": 79,
          "name": "G5",
          "ticks": 20688,
          "time": 104.19525050000004,
          "velocity": 0.8818897637795275
        },
        {
          "duration": 0.7113281249999943,
          "durationTicks": 122,
          "midi": 73,
          "name": "C#5",
          "ticks": 20752,
          "time": 104.49525050000004,
          "velocity": 0.8818897637795275
        },
        {
          "duration": 0.7113281249999943,
          "durationTicks": 122,
          "midi": 76,
          "name": "E5",
          "ticks": 20752,
          "time": 104.49525050000004,
          "velocity": 0.8818897637795275
        },
        {
          "duration": 0.7113281249999943,
          "durationTicks": 122,
          "midi": 81,
          "name": "A5",
          "ticks": 20752,
          "time": 104.49525050000004,
          "velocity": 0.8818897637795275
        },
        {
          "duration": 0.7113281249999943,
          "durationTicks": 122,
          "midi": 64,
          "name": "E4",
          "ticks": 20752,
          "time": 104.49525050000004,
          "velocity": 0.8818897637795275
        },
        {
          "duration": 0.71484375,
          "durationTicks": 122,
          "midi": 71,
          "name": "B4",
          "ticks": 20880,
          "time": 105.24173487500003,
          "velocity": 0.8818897637795275
        },
        {
          "duration": 0.71484375,
          "durationTicks": 122,
          "midi": 74,
          "name": "D5",
          "ticks": 20880,
          "time": 105.24173487500003,
          "velocity": 0.8818897637795275
        },
        {
          "duration": 0.71484375,
          "durationTicks": 122,
          "midi": 59,
          "name": "B3",
          "ticks": 20880,
          "time": 105.24173487500003,
          "velocity": 0.8818897637795275
        },
        {
          "duration": 0.71484375,
          "durationTicks": 122,
          "midi": 62,
          "name": "D4",
          "ticks": 20880,
          "time": 105.24173487500003,
          "velocity": 0.8818897637795275
        },
        {
          "duration": 0.71484375,
          "durationTicks": 122,
          "midi": 65,
          "name": "F4",
          "ticks": 20880,
          "time": 105.24173487500003,
          "velocity": 0.8818897637795275
        },
        {
          "duration": 1.072265625,
          "durationTicks": 183,
          "midi": 73,
          "name": "C#5",
          "ticks": 21008,
          "time": 105.99173487500003,
          "velocity": 0.8818897637795275
        },
        {
          "duration": 1.4296875,
          "durationTicks": 244,
          "midi": 64,
          "name": "E4",
          "ticks": 21008,
          "time": 105.99173487500003,
          "velocity": 0.8818897637795275
        },
        {
          "duration": 1.4296875,
          "durationTicks": 244,
          "midi": 69,
          "name": "A4",
          "ticks": 21008,
          "time": 105.99173487500003,
          "velocity": 0.8818897637795275
        },
        {
          "duration": 0.357421875,
          "durationTicks": 61,
          "midi": 71,
          "name": "B4",
          "ticks": 21200,
          "time": 107.11673487500003,
          "velocity": 0.8818897637795275
        },
        {
          "duration": 0.26473719531250595,
          "durationTicks": 61,
          "midi": 69,
          "name": "A4",
          "ticks": 21264,
          "time": 107.49173487500003,
          "velocity": 0.8818897637795275
        },
        {
          "duration": 0.2599431601562401,
          "durationTicks": 61,
          "midi": 73,
          "name": "C#5",
          "ticks": 21328,
          "time": 107.76925616015629,
          "velocity": 0.8818897637795275
        },
        {
          "duration": 0.17684658984374835,
          "durationTicks": 31,
          "midi": 76,
          "name": "E5",
          "ticks": 21392,
          "time": 108.04198341015629,
          "velocity": 0.8818897637795275
        },
        {
          "duration": 0.181640625,
          "durationTicks": 31,
          "midi": 79,
          "name": "G5",
          "ticks": 21424,
          "time": 108.22468937500004,
          "velocity": 0.8818897637795275
        },
        {
          "duration": 1.107421875,
          "durationTicks": 96,
          "midi": 82,
          "name": "A#5",
          "ticks": 21456,
          "time": 108.41218937500004,
          "velocity": 0.8818897637795275
        },
        {
          "duration": 0.14453125,
          "durationTicks": 31,
          "midi": 81,
          "name": "A5",
          "ticks": 21552,
          "time": 109.51961125000004,
          "velocity": 0.8818897637795275
        },
        {
          "duration": 0.12109375,
          "durationTicks": 31,
          "midi": 79,
          "name": "G5",
          "ticks": 21584,
          "time": 109.66804875000004,
          "velocity": 0.8818897637795275
        },
        {
          "duration": 0.12109375,
          "durationTicks": 31,
          "midi": 77,
          "name": "F5",
          "ticks": 21616,
          "time": 109.79304875000004,
          "velocity": 0.8818897637795275
        },
        {
          "duration": 0.12109375,
          "durationTicks": 31,
          "midi": 76,
          "name": "E5",
          "ticks": 21648,
          "time": 109.91804875000004,
          "velocity": 0.8818897637795275
        },
        {
          "duration": 0.12109375,
          "durationTicks": 31,
          "midi": 77,
          "name": "F5",
          "ticks": 21680,
          "time": 110.04304875000004,
          "velocity": 0.8818897637795275
        },
        {
          "duration": 0.12109375,
          "durationTicks": 31,
          "midi": 76,
          "name": "E5",
          "ticks": 21712,
          "time": 110.16804875000004,
          "velocity": 0.8818897637795275
        },
        {
          "duration": 0.12109375,
          "durationTicks": 31,
          "midi": 74,
          "name": "D5",
          "ticks": 21744,
          "time": 110.29304875000004,
          "velocity": 0.8818897637795275
        },
        {
          "duration": 0.12109375,
          "durationTicks": 31,
          "midi": 73,
          "name": "C#5",
          "ticks": 21776,
          "time": 110.41804875000004,
          "velocity": 0.8818897637795275
        },
        {
          "duration": 0.12109375,
          "durationTicks": 31,
          "midi": 74,
          "name": "D5",
          "ticks": 21808,
          "time": 110.54304875000004,
          "velocity": 0.8818897637795275
        },
        {
          "duration": 0.12109375,
          "durationTicks": 31,
          "midi": 72,
          "name": "C5",
          "ticks": 21840,
          "time": 110.66804875000004,
          "velocity": 0.8818897637795275
        },
        {
          "duration": 0.12109375,
          "durationTicks": 31,
          "midi": 70,
          "name": "A#4",
          "ticks": 21872,
          "time": 110.79304875000004,
          "velocity": 0.8818897637795275
        },
        {
          "duration": 0.12109375,
          "durationTicks": 31,
          "midi": 69,
          "name": "A4",
          "ticks": 21904,
          "time": 110.91804875000004,
          "velocity": 0.8818897637795275
        },
        {
          "duration": 0.12109375,
          "durationTicks": 31,
          "midi": 67,
          "name": "G4",
          "ticks": 21936,
          "time": 111.04304875000004,
          "velocity": 0.8818897637795275
        },
        {
          "duration": 0.12109375,
          "durationTicks": 31,
          "midi": 65,
          "name": "F4",
          "ticks": 21968,
          "time": 111.16804875000004,
          "velocity": 0.8818897637795275
        },
        {
          "duration": 0.12109375,
          "durationTicks": 31,
          "midi": 64,
          "name": "E4",
          "ticks": 22000,
          "time": 111.29304875000004,
          "velocity": 0.8818897637795275
        },
        {
          "duration": 0.12109375,
          "durationTicks": 31,
          "midi": 62,
          "name": "D4",
          "ticks": 22032,
          "time": 111.41804875000004,
          "velocity": 0.8818897637795275
        },
        {
          "duration": 3.1156937382812515,
          "durationTicks": 552,
          "midi": 73,
          "name": "C#5",
          "ticks": 22064,
          "time": 111.54304875000004,
          "velocity": 0.8818897637795275
        },
        {
          "duration": 2.849609375,
          "durationTicks": 487,
          "midi": 76,
          "name": "E5",
          "ticks": 22064,
          "time": 111.54304875000004,
          "velocity": 0.8818897637795275
        },
        {
          "duration": 2.849609375,
          "durationTicks": 487,
          "midi": 70,
          "name": "A#4",
          "ticks": 22064,
          "time": 111.54304875000004,
          "velocity": 0.8818897637795275
        },
        {
          "duration": 0.11305125390624937,
          "durationTicks": 41,
          "midi": 76,
          "name": "E5",
          "ticks": 22618,
          "time": 114.66425718359379,
          "velocity": 0.8818897637795275
        },
        {
          "duration": 0.11305125390624937,
          "durationTicks": 41,
          "midi": 73,
          "name": "C#5",
          "ticks": 22661,
          "time": 114.78282313281254,
          "velocity": 0.8818897637795275
        },
        {
          "duration": 0.11029390625000701,
          "durationTicks": 40,
          "midi": 70,
          "name": "A#4",
          "ticks": 22704,
          "time": 114.90138908203129,
          "velocity": 0.8818897637795275
        },
        {
          "duration": 0.11305125390624937,
          "durationTicks": 41,
          "midi": 73,
          "name": "C#5",
          "ticks": 22746,
          "time": 115.01719768359379,
          "velocity": 0.8818897637795275
        },
        {
          "duration": 0.11305125390624937,
          "durationTicks": 41,
          "midi": 70,
          "name": "A#4",
          "ticks": 22789,
          "time": 115.13576363281254,
          "velocity": 0.8818897637795275
        },
        {
          "duration": 0.11029390625000701,
          "durationTicks": 40,
          "midi": 73,
          "name": "C#5",
          "ticks": 22832,
          "time": 115.25432958203129,
          "velocity": 0.8818897637795275
        },
        {
          "duration": 0.11305125390624937,
          "durationTicks": 41,
          "midi": 76,
          "name": "E5",
          "ticks": 22874,
          "time": 115.3701381835938,
          "velocity": 0.8818897637795275
        },
        {
          "duration": 0.11305125390624937,
          "durationTicks": 41,
          "midi": 73,
          "name": "C#5",
          "ticks": 22917,
          "time": 115.48870413281254,
          "velocity": 0.8818897637795275
        },
        {
          "duration": 0.1102939062499928,
          "durationTicks": 40,
          "midi": 70,
          "name": "A#4",
          "ticks": 22960,
          "time": 115.60727008203129,
          "velocity": 0.8818897637795275
        },
        {
          "duration": 0.11305125390624937,
          "durationTicks": 41,
          "midi": 73,
          "name": "C#5",
          "ticks": 23002,
          "time": 115.72307868359378,
          "velocity": 0.8818897637795275
        },
        {
          "duration": 0.11305125390624937,
          "durationTicks": 41,
          "midi": 70,
          "name": "A#4",
          "ticks": 23045,
          "time": 115.84164463281255,
          "velocity": 0.8818897637795275
        },
        {
          "duration": 0.1102939062499928,
          "durationTicks": 40,
          "midi": 73,
          "name": "C#5",
          "ticks": 23088,
          "time": 115.9602105820313,
          "velocity": 0.8818897637795275
        },
        {
          "duration": 0.11305125390624937,
          "durationTicks": 41,
          "midi": 76,
          "name": "E5",
          "ticks": 23130,
          "time": 116.07601918359379,
          "velocity": 0.8818897637795275
        },
        {
          "duration": 0.11305125390624937,
          "durationTicks": 41,
          "midi": 73,
          "name": "C#5",
          "ticks": 23173,
          "time": 116.19458513281253,
          "velocity": 0.8818897637795275
        },
        {
          "duration": 0.11029390625000701,
          "durationTicks": 40,
          "midi": 70,
          "name": "A#4",
          "ticks": 23216,
          "time": 116.31315108203128,
          "velocity": 0.8818897637795275
        },
        {
          "duration": 0.11305125390624937,
          "durationTicks": 41,
          "midi": 73,
          "name": "C#5",
          "ticks": 23258,
          "time": 116.42895968359379,
          "velocity": 0.8818897637795275
        },
        {
          "duration": 0.11305125390624937,
          "durationTicks": 41,
          "midi": 70,
          "name": "A#4",
          "ticks": 23301,
          "time": 116.54752563281254,
          "velocity": 0.8818897637795275
        },
        {
          "duration": 0.11029390625000701,
          "durationTicks": 40,
          "midi": 73,
          "name": "C#5",
          "ticks": 23344,
          "time": 116.66609158203129,
          "velocity": 0.8818897637795275
        },
        {
          "duration": 0.11305125390624937,
          "durationTicks": 41,
          "midi": 76,
          "name": "E5",
          "ticks": 23386,
          "time": 116.78190018359379,
          "velocity": 0.8818897637795275
        },
        {
          "duration": 0.11305125390624937,
          "durationTicks": 41,
          "midi": 73,
          "name": "C#5",
          "ticks": 23429,
          "time": 116.90046613281254,
          "velocity": 0.8818897637795275
        },
        {
          "duration": 0.11029390625000701,
          "durationTicks": 40,
          "midi": 70,
          "name": "A#4",
          "ticks": 23472,
          "time": 117.01903208203129,
          "velocity": 0.8818897637795275
        },
        {
          "duration": 0.11305125390624937,
          "durationTicks": 41,
          "midi": 73,
          "name": "C#5",
          "ticks": 23514,
          "time": 117.1348406835938,
          "velocity": 0.8818897637795275
        },
        {
          "duration": 0.11305125390624937,
          "durationTicks": 41,
          "midi": 70,
          "name": "A#4",
          "ticks": 23557,
          "time": 117.25340663281254,
          "velocity": 0.8818897637795275
        },
        {
          "duration": 0.1102939062499928,
          "durationTicks": 40,
          "midi": 67,
          "name": "G4",
          "ticks": 23600,
          "time": 117.37197258203129,
          "velocity": 0.8818897637795275
        },
        {
          "duration": 0.11305125390624937,
          "durationTicks": 41,
          "midi": 70,
          "name": "A#4",
          "ticks": 23642,
          "time": 117.4877811835938,
          "velocity": 0.8818897637795275
        },
        {
          "duration": 0.11305125390624937,
          "durationTicks": 41,
          "midi": 67,
          "name": "G4",
          "ticks": 23685,
          "time": 117.60634713281254,
          "velocity": 0.8818897637795275
        },
        {
          "duration": 0.1102939062499928,
          "durationTicks": 40,
          "midi": 64,
          "name": "E4",
          "ticks": 23728,
          "time": 117.72491308203129,
          "velocity": 0.8818897637795275
        },
        {
          "duration": 0.11305125390624937,
          "durationTicks": 41,
          "midi": 67,
          "name": "G4",
          "ticks": 23770,
          "time": 117.84072168359378,
          "velocity": 0.8818897637795275
        },
        {
          "duration": 0.11305125390626358,
          "durationTicks": 41,
          "midi": 64,
          "name": "E4",
          "ticks": 23813,
          "time": 117.95928763281253,
          "velocity": 0.8818897637795275
        },
        {
          "duration": 0.1102939062499928,
          "durationTicks": 40,
          "midi": 67,
          "name": "G4",
          "ticks": 23856,
          "time": 118.0778535820313,
          "velocity": 0.8818897637795275
        },
        {
          "duration": 0.11305125390624937,
          "durationTicks": 41,
          "midi": 70,
          "name": "A#4",
          "ticks": 23898,
          "time": 118.19366218359379,
          "velocity": 0.8818897637795275
        },
        {
          "duration": 0.11305125390624937,
          "durationTicks": 41,
          "midi": 67,
          "name": "G4",
          "ticks": 23941,
          "time": 118.31222813281254,
          "velocity": 0.8818897637795275
        },
        {
          "duration": 0.11029390625000701,
          "durationTicks": 40,
          "midi": 64,
          "name": "E4",
          "ticks": 23984,
          "time": 118.43079408203128,
          "velocity": 0.8818897637795275
        },
        {
          "duration": 0.11305125390624937,
          "durationTicks": 41,
          "midi": 67,
          "name": "G4",
          "ticks": 24026,
          "time": 118.54660268359379,
          "velocity": 0.8818897637795275
        },
        {
          "duration": 0.11305125390624937,
          "durationTicks": 41,
          "midi": 64,
          "name": "E4",
          "ticks": 24069,
          "time": 118.66516863281254,
          "velocity": 0.8818897637795275
        },
        {
          "duration": 0.11029390625000701,
          "durationTicks": 40,
          "midi": 67,
          "name": "G4",
          "ticks": 24112,
          "time": 118.78373458203129,
          "velocity": 0.8818897637795275
        },
        {
          "duration": 0.11305125390624937,
          "durationTicks": 41,
          "midi": 70,
          "name": "A#4",
          "ticks": 24154,
          "time": 118.89954318359379,
          "velocity": 0.8818897637795275
        },
        {
          "duration": 0.11305125390624937,
          "durationTicks": 41,
          "midi": 67,
          "name": "G4",
          "ticks": 24197,
          "time": 119.01810913281254,
          "velocity": 0.8818897637795275
        },
        {
          "duration": 0.11029390625000701,
          "durationTicks": 40,
          "midi": 64,
          "name": "E4",
          "ticks": 24240,
          "time": 119.13667508203129,
          "velocity": 0.8818897637795275
        },
        {
          "duration": 0.11305125390624937,
          "durationTicks": 41,
          "midi": 67,
          "name": "G4",
          "ticks": 24282,
          "time": 119.2524836835938,
          "velocity": 0.8818897637795275
        },
        {
          "duration": 0.11305125390624937,
          "durationTicks": 41,
          "midi": 64,
          "name": "E4",
          "ticks": 24325,
          "time": 119.37104963281254,
          "velocity": 0.8818897637795275
        },
        {
          "duration": 0.1102939062499928,
          "durationTicks": 40,
          "midi": 67,
          "name": "G4",
          "ticks": 24368,
          "time": 119.48961558203129,
          "velocity": 0.8818897637795275
        },
        {
          "duration": 0.11305125390626358,
          "durationTicks": 41,
          "midi": 70,
          "name": "A#4",
          "ticks": 24410,
          "time": 119.60542418359378,
          "velocity": 0.8818897637795275
        },
        {
          "duration": 0.11305125390624937,
          "durationTicks": 41,
          "midi": 67,
          "name": "G4",
          "ticks": 24453,
          "time": 119.72399013281255,
          "velocity": 0.8818897637795275
        },
        {
          "duration": 0.1102939062499928,
          "durationTicks": 40,
          "midi": 64,
          "name": "E4",
          "ticks": 24496,
          "time": 119.8425560820313,
          "velocity": 0.8818897637795275
        },
        {
          "duration": 0.11305125390624937,
          "durationTicks": 41,
          "midi": 67,
          "name": "G4",
          "ticks": 24538,
          "time": 119.95836468359379,
          "velocity": 0.8818897637795275
        },
        {
          "duration": 0.11305125390624937,
          "durationTicks": 41,
          "midi": 64,
          "name": "E4",
          "ticks": 24581,
          "time": 120.07693063281253,
          "velocity": 0.8818897637795275
        },
        {
          "duration": 0.1102939062499928,
          "durationTicks": 40,
          "midi": 61,
          "name": "C#4",
          "ticks": 24624,
          "time": 120.1954965820313,
          "velocity": 0.8818897637795275
        },
        {
          "duration": 0.11305125390624937,
          "durationTicks": 41,
          "midi": 64,
          "name": "E4",
          "ticks": 24666,
          "time": 120.31130518359379,
          "velocity": 0.8818897637795275
        },
        {
          "duration": 0.11305125390624937,
          "durationTicks": 41,
          "midi": 61,
          "name": "C#4",
          "ticks": 24709,
          "time": 120.42987113281254,
          "velocity": 0.8818897637795275
        },
        {
          "duration": 0.11029390625000701,
          "durationTicks": 40,
          "midi": 58,
          "name": "A#3",
          "ticks": 24752,
          "time": 120.54843708203128,
          "velocity": 0.8818897637795275
        },
        {
          "duration": 0.11305125390624937,
          "durationTicks": 41,
          "midi": 61,
          "name": "C#4",
          "ticks": 24794,
          "time": 120.66424568359379,
          "velocity": 0.8818897637795275
        },
        {
          "duration": 0.11305125390624937,
          "durationTicks": 41,
          "midi": 58,
          "name": "A#3",
          "ticks": 24837,
          "time": 120.78281163281254,
          "velocity": 0.8818897637795275
        },
        {
          "duration": 0.11029390625000701,
          "durationTicks": 40,
          "midi": 61,
          "name": "C#4",
          "ticks": 24880,
          "time": 120.90137758203129,
          "velocity": 0.8818897637795275
        },
        {
          "duration": 0.11305125390624937,
          "durationTicks": 41,
          "midi": 64,
          "name": "E4",
          "ticks": 24922,
          "time": 121.0171861835938,
          "velocity": 0.8818897637795275
        },
        {
          "duration": 0.11305125390624937,
          "durationTicks": 41,
          "midi": 61,
          "name": "C#4",
          "ticks": 24965,
          "time": 121.13575213281254,
          "velocity": 0.8818897637795275
        },
        {
          "duration": 0.11029390625000701,
          "durationTicks": 40,
          "midi": 58,
          "name": "A#3",
          "ticks": 25008,
          "time": 121.25431808203129,
          "velocity": 0.8818897637795275
        },
        {
          "duration": 0.11305125390624937,
          "durationTicks": 41,
          "midi": 61,
          "name": "C#4",
          "ticks": 25050,
          "time": 121.3701266835938,
          "velocity": 0.8818897637795275
        },
        {
          "duration": 0.11305125390624937,
          "durationTicks": 41,
          "midi": 58,
          "name": "A#3",
          "ticks": 25093,
          "time": 121.48869263281254,
          "velocity": 0.8818897637795275
        },
        {
          "duration": 0.1102939062499928,
          "durationTicks": 40,
          "midi": 61,
          "name": "C#4",
          "ticks": 25136,
          "time": 121.60725858203129,
          "velocity": 0.8818897637795275
        },
        {
          "duration": 0.11305125390624937,
          "durationTicks": 41,
          "midi": 64,
          "name": "E4",
          "ticks": 25178,
          "time": 121.72306718359378,
          "velocity": 0.8818897637795275
        },
        {
          "duration": 0.11305125390624937,
          "durationTicks": 41,
          "midi": 61,
          "name": "C#4",
          "ticks": 25221,
          "time": 121.84163313281255,
          "velocity": 0.8818897637795275
        },
        {
          "duration": 0.1102939062499928,
          "durationTicks": 40,
          "midi": 58,
          "name": "A#3",
          "ticks": 25264,
          "time": 121.9601990820313,
          "velocity": 0.8818897637795275
        },
        {
          "duration": 0.11305125390624937,
          "durationTicks": 41,
          "midi": 61,
          "name": "C#4",
          "ticks": 25306,
          "time": 122.07600768359379,
          "velocity": 0.8818897637795275
        },
        {
          "duration": 0.11305125390624937,
          "durationTicks": 41,
          "midi": 58,
          "name": "A#3",
          "ticks": 25349,
          "time": 122.19457363281253,
          "velocity": 0.8818897637795275
        },
        {
          "duration": 0.11029390625000701,
          "durationTicks": 40,
          "midi": 61,
          "name": "C#4",
          "ticks": 25392,
          "time": 122.31313958203128,
          "velocity": 0.8818897637795275
        },
        {
          "duration": 0.11305125390624937,
          "durationTicks": 41,
          "midi": 64,
          "name": "E4",
          "ticks": 25434,
          "time": 122.42894818359379,
          "velocity": 0.8818897637795275
        },
        {
          "duration": 0.11305125390624937,
          "durationTicks": 41,
          "midi": 61,
          "name": "C#4",
          "ticks": 25477,
          "time": 122.54751413281254,
          "velocity": 0.8818897637795275
        },
        {
          "duration": 0.11029390625000701,
          "durationTicks": 40,
          "midi": 58,
          "name": "A#3",
          "ticks": 25520,
          "time": 122.66608008203129,
          "velocity": 0.8818897637795275
        },
        {
          "duration": 0.11305125390624937,
          "durationTicks": 41,
          "midi": 61,
          "name": "C#4",
          "ticks": 25562,
          "time": 122.78188868359379,
          "velocity": 0.8818897637795275
        },
        {
          "duration": 0.11305125390624937,
          "durationTicks": 41,
          "midi": 58,
          "name": "A#3",
          "ticks": 25605,
          "time": 122.90045463281254,
          "velocity": 0.8818897637795275
        },
        {
          "duration": 0.11029390625000701,
          "durationTicks": 40,
          "midi": 61,
          "name": "C#4",
          "ticks": 25648,
          "time": 123.01902058203129,
          "velocity": 0.8818897637795275
        },
        {
          "duration": 0.11305125390624937,
          "durationTicks": 41,
          "midi": 64,
          "name": "E4",
          "ticks": 25690,
          "time": 123.1348291835938,
          "velocity": 0.8818897637795275
        },
        {
          "duration": 0.11305125390624937,
          "durationTicks": 41,
          "midi": 61,
          "name": "C#4",
          "ticks": 25733,
          "time": 123.25339513281254,
          "velocity": 0.8818897637795275
        },
        {
          "duration": 0.1102939062499928,
          "durationTicks": 40,
          "midi": 64,
          "name": "E4",
          "ticks": 25776,
          "time": 123.37196108203129,
          "velocity": 0.8818897637795275
        },
        {
          "duration": 0.11305125390623516,
          "durationTicks": 41,
          "midi": 67,
          "name": "G4",
          "ticks": 25818,
          "time": 123.4877696835938,
          "velocity": 0.8818897637795275
        },
        {
          "duration": 0.11305125390624937,
          "durationTicks": 41,
          "midi": 64,
          "name": "E4",
          "ticks": 25861,
          "time": 123.60633563281255,
          "velocity": 0.8818897637795275
        },
        {
          "duration": 0.1102939062499928,
          "durationTicks": 40,
          "midi": 61,
          "name": "C#4",
          "ticks": 25904,
          "time": 123.7249015820313,
          "velocity": 0.8818897637795275
        },
        {
          "duration": 0.11305125390624937,
          "durationTicks": 41,
          "midi": 64,
          "name": "E4",
          "ticks": 25946,
          "time": 123.84071018359379,
          "velocity": 0.8818897637795275
        },
        {
          "duration": 0.11305125390626358,
          "durationTicks": 41,
          "midi": 61,
          "name": "C#4",
          "ticks": 25989,
          "time": 123.95927613281253,
          "velocity": 0.8818897637795275
        },
        {
          "duration": 0.11029390625000701,
          "durationTicks": 40,
          "midi": 64,
          "name": "E4",
          "ticks": 26032,
          "time": 124.07784208203128,
          "velocity": 0.8818897637795275
        },
        {
          "duration": 0.11305125390624937,
          "durationTicks": 41,
          "midi": 67,
          "name": "G4",
          "ticks": 26074,
          "time": 124.19365068359379,
          "velocity": 0.8818897637795275
        },
        {
          "duration": 0.11305125390624937,
          "durationTicks": 41,
          "midi": 64,
          "name": "E4",
          "ticks": 26117,
          "time": 124.31221663281254,
          "velocity": 0.8818897637795275
        },
        {
          "duration": 0.11029390625000701,
          "durationTicks": 40,
          "midi": 61,
          "name": "C#4",
          "ticks": 26160,
          "time": 124.43078258203128,
          "velocity": 0.8818897637795275
        },
        {
          "duration": 0.11305125390624937,
          "durationTicks": 41,
          "midi": 64,
          "name": "E4",
          "ticks": 26202,
          "time": 124.54659118359379,
          "velocity": 0.8818897637795275
        },
        {
          "duration": 0.11305125390624937,
          "durationTicks": 41,
          "midi": 61,
          "name": "C#4",
          "ticks": 26245,
          "time": 124.66515713281254,
          "velocity": 0.8818897637795275
        },
        {
          "duration": 0.11029390625000701,
          "durationTicks": 40,
          "midi": 64,
          "name": "E4",
          "ticks": 26288,
          "time": 124.78372308203129,
          "velocity": 0.8818897637795275
        },
        {
          "duration": 0.11305125390624937,
          "durationTicks": 41,
          "midi": 67,
          "name": "G4",
          "ticks": 26330,
          "time": 124.89953168359379,
          "velocity": 0.8818897637795275
        },
        {
          "duration": 0.11305125390624937,
          "durationTicks": 41,
          "midi": 64,
          "name": "E4",
          "ticks": 26373,
          "time": 125.01809763281254,
          "velocity": 0.8818897637795275
        },
        {
          "duration": 0.1102939062499928,
          "durationTicks": 40,
          "midi": 61,
          "name": "C#4",
          "ticks": 26416,
          "time": 125.13666358203129,
          "velocity": 0.8818897637795275
        },
        {
          "duration": 0.11305125390624937,
          "durationTicks": 41,
          "midi": 64,
          "name": "E4",
          "ticks": 26458,
          "time": 125.2524721835938,
          "velocity": 0.8818897637795275
        },
        {
          "duration": 0.11305125390624937,
          "durationTicks": 41,
          "midi": 61,
          "name": "C#4",
          "ticks": 26501,
          "time": 125.37103813281254,
          "velocity": 0.8818897637795275
        },
        {
          "duration": 0.1102939062499928,
          "durationTicks": 40,
          "midi": 64,
          "name": "E4",
          "ticks": 26544,
          "time": 125.48960408203129,
          "velocity": 0.8818897637795275
        },
        {
          "duration": 0.11305125390626358,
          "durationTicks": 41,
          "midi": 67,
          "name": "G4",
          "ticks": 26586,
          "time": 125.60541268359378,
          "velocity": 0.8818897637795275
        },
        {
          "duration": 0.11305125390626358,
          "durationTicks": 41,
          "midi": 64,
          "name": "E4",
          "ticks": 26629,
          "time": 125.72397863281253,
          "velocity": 0.8818897637795275
        },
        {
          "duration": 0.1102939062499928,
          "durationTicks": 40,
          "midi": 67,
          "name": "G4",
          "ticks": 26672,
          "time": 125.8425445820313,
          "velocity": 0.8818897637795275
        },
        {
          "duration": 0.11305125390624937,
          "durationTicks": 41,
          "midi": 70,
          "name": "A#4",
          "ticks": 26714,
          "time": 125.95835318359379,
          "velocity": 0.8818897637795275
        },
        {
          "duration": 0.11305125390624937,
          "durationTicks": 41,
          "midi": 67,
          "name": "G4",
          "ticks": 26757,
          "time": 126.07691913281253,
          "velocity": 0.8818897637795275
        },
        {
          "duration": 0.1102939062499928,
          "durationTicks": 40,
          "midi": 70,
          "name": "A#4",
          "ticks": 26800,
          "time": 126.1954850820313,
          "velocity": 0.8818897637795275
        },
        {
          "duration": 0.11305125390624937,
          "durationTicks": 41,
          "midi": 67,
          "name": "G4",
          "ticks": 26842,
          "time": 126.31129368359379,
          "velocity": 0.8818897637795275
        },
        {
          "duration": 0.1196001679687555,
          "durationTicks": 41,
          "midi": 70,
          "name": "A#4",
          "ticks": 26885,
          "time": 126.42985963281254,
          "velocity": 0.8818897637795275
        },
        {
          "duration": 0.1171875,
          "durationTicks": 40,
          "midi": 67,
          "name": "G4",
          "ticks": 26928,
          "time": 126.55531917578129,
          "velocity": 0.8818897637795275
        },
        {
          "duration": 0.1201171875,
          "durationTicks": 41,
          "midi": 70,
          "name": "A#4",
          "ticks": 26970,
          "time": 126.67836605078129,
          "velocity": 0.8818897637795275
        },
        {
          "duration": 0.1201171875,
          "durationTicks": 41,
          "midi": 67,
          "name": "G4",
          "ticks": 27013,
          "time": 126.80434261328129,
          "velocity": 0.8818897637795275
        },
        {
          "duration": 0.1171875,
          "durationTicks": 40,
          "midi": 70,
          "name": "A#4",
          "ticks": 27056,
          "time": 126.93031917578129,
          "velocity": 0.8818897637795275
        },
        {
          "duration": 0.1201171875,
          "durationTicks": 41,
          "midi": 67,
          "name": "G4",
          "ticks": 27098,
          "time": 127.05336605078129,
          "velocity": 0.8818897637795275
        },
        {
          "duration": 0.12753906250000568,
          "durationTicks": 41,
          "midi": 70,
          "name": "A#4",
          "ticks": 27141,
          "time": 127.17934261328129,
          "velocity": 0.8818897637795275
        },
        {
          "duration": 0.125,
          "durationTicks": 40,
          "midi": 73,
          "name": "C#5",
          "ticks": 27184,
          "time": 127.31313167578129,
          "velocity": 0.8818897637795275
        },
        {
          "duration": 0.12812500000001137,
          "durationTicks": 41,
          "midi": 70,
          "name": "A#4",
          "ticks": 27226,
          "time": 127.44438167578129,
          "velocity": 0.8818897637795275
        },
        {
          "duration": 0.12812499999999716,
          "durationTicks": 41,
          "midi": 73,
          "name": "C#5",
          "ticks": 27269,
          "time": 127.57875667578129,
          "velocity": 0.8818897637795275
        },
        {
          "duration": 0.13325880468748608,
          "durationTicks": 40,
          "midi": 76,
          "name": "E5",
          "ticks": 27312,
          "time": 127.7131316757813,
          "velocity": 0.8818897637795275
        },
        {
          "duration": 0.1372766484375063,
          "durationTicks": 41,
          "midi": 73,
          "name": "C#5",
          "ticks": 27354,
          "time": 127.85308690234379,
          "velocity": 0.8818897637795275
        },
        {
          "duration": 0.1372766484374921,
          "durationTicks": 41,
          "midi": 76,
          "name": "E5",
          "ticks": 27397,
          "time": 127.99705997265629,
          "velocity": 0.8818897637795275
        },
        {
          "duration": 0.13392843750000338,
          "durationTicks": 40,
          "midi": 73,
          "name": "C#5",
          "ticks": 27440,
          "time": 128.1410330429688,
          "velocity": 0.8818897637795275
        },
        {
          "duration": 0.14706357812497117,
          "durationTicks": 41,
          "midi": 76,
          "name": "E5",
          "ticks": 27482,
          "time": 128.2816579023438,
          "velocity": 0.8818897637795275
        },
        {
          "duration": 0.14783623046872663,
          "durationTicks": 41,
          "midi": 73,
          "name": "C#5",
          "ticks": 27525,
          "time": 128.43593300390629,
          "velocity": 0.8818897637795275
        },
        {
          "duration": 0.14423046874998136,
          "durationTicks": 40,
          "midi": 76,
          "name": "E5",
          "ticks": 27568,
          "time": 128.59098075781253,
          "velocity": 0.8818897637795275
        },
        {
          "duration": 0.14783623046875505,
          "durationTicks": 41,
          "midi": 73,
          "name": "C#5",
          "ticks": 27610,
          "time": 128.74242275000003,
          "velocity": 0.8818897637795275
        },
        {
          "duration": 0.14783623046875505,
          "durationTicks": 41,
          "midi": 76,
          "name": "E5",
          "ticks": 27653,
          "time": 128.89747050390628,
          "velocity": 0.8818897637795275
        },
        {
          "duration": 1.1405047851562529,
          "durationTicks": 244,
          "midi": 69,
          "name": "A4",
          "ticks": 27696,
          "time": 129.05251825781252,
          "velocity": 0.8818897637795275
        },
        {
          "duration": 1.1405047851562529,
          "durationTicks": 244,
          "midi": 73,
          "name": "C#5",
          "ticks": 27696,
          "time": 129.05251825781252,
          "velocity": 0.8818897637795275
        },
        {
          "duration": 1.1405047851562529,
          "durationTicks": 244,
          "midi": 76,
          "name": "E5",
          "ticks": 27696,
          "time": 129.05251825781252,
          "velocity": 0.8818897637795275
        },
        {
          "duration": 1.1405047851562529,
          "durationTicks": 244,
          "midi": 81,
          "name": "A5",
          "ticks": 27696,
          "time": 129.05251825781252,
          "velocity": 0.8818897637795275
        },
        {
          "duration": 1.1405047851562529,
          "durationTicks": 244,
          "midi": 61,
          "name": "C#4",
          "ticks": 27696,
          "time": 129.05251825781252,
          "velocity": 0.8818897637795275
        },
        {
          "duration": 1.1405047851562529,
          "durationTicks": 244,
          "midi": 64,
          "name": "E4",
          "ticks": 27696,
          "time": 129.05251825781252,
          "velocity": 0.8818897637795275
        },
        {
          "duration": 1.1437500000000114,
          "durationTicks": 244,
          "midi": 69,
          "name": "A4",
          "ticks": 27952,
          "time": 130.24927304296878,
          "velocity": 0.8818897637795275
        },
        {
          "duration": 1.1437500000000114,
          "durationTicks": 244,
          "midi": 74,
          "name": "D5",
          "ticks": 27952,
          "time": 130.24927304296878,
          "velocity": 0.8818897637795275
        },
        {
          "duration": 1.1437500000000114,
          "durationTicks": 244,
          "midi": 77,
          "name": "F5",
          "ticks": 27952,
          "time": 130.24927304296878,
          "velocity": 0.8818897637795275
        },
        {
          "duration": 1.1437500000000114,
          "durationTicks": 244,
          "midi": 81,
          "name": "A5",
          "ticks": 27952,
          "time": 130.24927304296878,
          "velocity": 0.8818897637795275
        },
        {
          "duration": 1.1437500000000114,
          "durationTicks": 244,
          "midi": 62,
          "name": "D4",
          "ticks": 27952,
          "time": 130.24927304296878,
          "velocity": 0.8818897637795275
        },
        {
          "duration": 1.1437500000000114,
          "durationTicks": 244,
          "midi": 65,
          "name": "F4",
          "ticks": 27952,
          "time": 130.24927304296878,
          "velocity": 0.8818897637795275
        },
        {
          "duration": 1.4261718749999943,
          "durationTicks": 244,
          "midi": 70,
          "name": "A#4",
          "ticks": 28208,
          "time": 131.4492730429688,
          "velocity": 0.8818897637795275
        },
        {
          "duration": 1.4261718749999943,
          "durationTicks": 244,
          "midi": 74,
          "name": "D5",
          "ticks": 28208,
          "time": 131.4492730429688,
          "velocity": 0.8818897637795275
        },
        {
          "duration": 1.4261718749999943,
          "durationTicks": 244,
          "midi": 79,
          "name": "G5",
          "ticks": 28208,
          "time": 131.4492730429688,
          "velocity": 0.8818897637795275
        },
        {
          "duration": 1.4261718749999943,
          "durationTicks": 244,
          "midi": 62,
          "name": "D4",
          "ticks": 28208,
          "time": 131.4492730429688,
          "velocity": 0.8818897637795275
        },
        {
          "duration": 1.4261718749999943,
          "durationTicks": 244,
          "midi": 67,
          "name": "G4",
          "ticks": 28208,
          "time": 131.4492730429688,
          "velocity": 0.8818897637795275
        },
        {
          "duration": 1.4296875,
          "durationTicks": 244,
          "midi": 69,
          "name": "A4",
          "ticks": 28720,
          "time": 134.4457574179688,
          "velocity": 0.8818897637795275
        },
        {
          "duration": 1.4296875,
          "durationTicks": 244,
          "midi": 73,
          "name": "C#5",
          "ticks": 28720,
          "time": 134.4457574179688,
          "velocity": 0.8818897637795275
        },
        {
          "duration": 1.4296875,
          "durationTicks": 244,
          "midi": 76,
          "name": "E5",
          "ticks": 28720,
          "time": 134.4457574179688,
          "velocity": 0.8818897637795275
        },
        {
          "duration": 1.4296875,
          "durationTicks": 244,
          "midi": 79,
          "name": "G5",
          "ticks": 28720,
          "time": 134.4457574179688,
          "velocity": 0.8818897637795275
        },
        {
          "duration": 1.4296875,
          "durationTicks": 244,
          "midi": 61,
          "name": "C#4",
          "ticks": 28720,
          "time": 134.4457574179688,
          "velocity": 0.8818897637795275
        },
        {
          "duration": 1.4296875,
          "durationTicks": 244,
          "midi": 64,
          "name": "E4",
          "ticks": 28720,
          "time": 134.4457574179688,
          "velocity": 0.8818897637795275
        },
        {
          "duration": 0.5671874999999886,
          "durationTicks": 61,
          "midi": 69,
          "name": "A4",
          "ticks": 29680,
          "time": 140.4398980429688,
          "velocity": 0.8818897637795275
        },
        {
          "duration": 0.5671874999999886,
          "durationTicks": 61,
          "midi": 73,
          "name": "C#5",
          "ticks": 29680,
          "time": 140.4398980429688,
          "velocity": 0.8818897637795275
        },
        {
          "duration": 0.5671874999999886,
          "durationTicks": 61,
          "midi": 64,
          "name": "E4",
          "ticks": 29680,
          "time": 140.4398980429688,
          "velocity": 0.8818897637795275
        },
        {
          "duration": 1.143749999999983,
          "durationTicks": 122,
          "midi": 65,
          "name": "F4",
          "ticks": 29744,
          "time": 141.0352105429688,
          "velocity": 0.8818897637795275
        },
        {
          "duration": 1.143749999999983,
          "durationTicks": 122,
          "midi": 69,
          "name": "A4",
          "ticks": 29744,
          "time": 141.0352105429688,
          "velocity": 0.8818897637795275
        },
        {
          "duration": 1.143749999999983,
          "durationTicks": 122,
          "midi": 74,
          "name": "D5",
          "ticks": 29744,
          "time": 141.0352105429688,
          "velocity": 0.8818897637795275
        },
        {
          "duration": 1.143749999999983,
          "durationTicks": 122,
          "midi": 62,
          "name": "D4",
          "ticks": 29744,
          "time": 141.0352105429688,
          "velocity": 0.8818897637795275
        },
        {
          "duration": 1.1437500000000114,
          "durationTicks": 122,
          "midi": 65,
          "name": "F4",
          "ticks": 29872,
          "time": 142.2352105429688,
          "velocity": 0.8818897637795275
        },
        {
          "duration": 2.6226562500000057,
          "durationTicks": 250,
          "midi": 62,
          "name": "D4",
          "ticks": 29872,
          "time": 142.2352105429688,
          "velocity": 0.8818897637795275
        },
        {
          "duration": 2.8523437499999886,
          "durationTicks": 244,
          "midi": 64,
          "name": "E4",
          "ticks": 30000,
          "time": 143.4352105429688,
          "velocity": 0.8818897637795275
        },
        {
          "duration": 1.4296875,
          "durationTicks": 122,
          "midi": 61,
          "name": "C#4",
          "ticks": 30128,
          "time": 144.9281792929688,
          "velocity": 0.8818897637795275
        },
        {
          "duration": 6.59765625,
          "durationTicks": 487,
          "midi": 62,
          "name": "D4",
          "ticks": 30256,
          "time": 146.4281792929688,
          "velocity": 0.8818897637795275
        },
        {
          "duration": 0.1588537695312482,
          "durationTicks": 61,
          "midi": 74,
          "name": "D5",
          "ticks": 32880,
          "time": 161.78884306250004,
          "velocity": 0.7637795275590551
        },
        {
          "duration": 0.1588537695312482,
          "durationTicks": 61,
          "midi": 72,
          "name": "C5",
          "ticks": 32944,
          "time": 161.95550931250006,
          "velocity": 0.7637795275590551
        },
        {
          "duration": 0.1588537695312482,
          "durationTicks": 61,
          "midi": 74,
          "name": "D5",
          "ticks": 33008,
          "time": 162.12217556250005,
          "velocity": 0.7637795275590551
        },
        {
          "duration": 0.1588537695312482,
          "durationTicks": 61,
          "midi": 70,
          "name": "A#4",
          "ticks": 33072,
          "time": 162.28884181250004,
          "velocity": 0.7637795275590551
        },
        {
          "duration": 0.1588537695312766,
          "durationTicks": 61,
          "midi": 74,
          "name": "D5",
          "ticks": 33136,
          "time": 162.45550806250003,
          "velocity": 0.7637795275590551
        },
        {
          "duration": 0.1588537695312482,
          "durationTicks": 61,
          "midi": 69,
          "name": "A4",
          "ticks": 33200,
          "time": 162.62217431250005,
          "velocity": 0.7637795275590551
        },
        {
          "duration": 0.1588537695312482,
          "durationTicks": 61,
          "midi": 74,
          "name": "D5",
          "ticks": 33264,
          "time": 162.78884056250004,
          "velocity": 0.7637795275590551
        },
        {
          "duration": 0.1588537695312482,
          "durationTicks": 61,
          "midi": 67,
          "name": "G4",
          "ticks": 33328,
          "time": 162.95550681250003,
          "velocity": 0.7637795275590551
        },
        {
          "duration": 0.1588537695312482,
          "durationTicks": 61,
          "midi": 74,
          "name": "D5",
          "ticks": 33392,
          "time": 163.12217306250005,
          "velocity": 0.7637795275590551
        },
        {
          "duration": 0.1588537695312482,
          "durationTicks": 61,
          "midi": 66,
          "name": "F#4",
          "ticks": 33456,
          "time": 163.28883931250004,
          "velocity": 0.7637795275590551
        },
        {
          "duration": 0.1588537695312482,
          "durationTicks": 61,
          "midi": 74,
          "name": "D5",
          "ticks": 33520,
          "time": 163.45550556250004,
          "velocity": 0.7637795275590551
        },
        {
          "duration": 0.1588537695312482,
          "durationTicks": 61,
          "midi": 67,
          "name": "G4",
          "ticks": 33584,
          "time": 163.62217181250006,
          "velocity": 0.7637795275590551
        },
        {
          "duration": 0.1588537695312482,
          "durationTicks": 61,
          "midi": 74,
          "name": "D5",
          "ticks": 33648,
          "time": 163.78883806250005,
          "velocity": 0.7637795275590551
        },
        {
          "duration": 0.1588537695312482,
          "durationTicks": 61,
          "midi": 69,
          "name": "A4",
          "ticks": 33712,
          "time": 163.95550431250004,
          "velocity": 0.7637795275590551
        },
        {
          "duration": 0.1588537695312482,
          "durationTicks": 61,
          "midi": 74,
          "name": "D5",
          "ticks": 33776,
          "time": 164.12217056250003,
          "velocity": 0.7637795275590551
        },
        {
          "duration": 0.1588537695312482,
          "durationTicks": 61,
          "midi": 70,
          "name": "A#4",
          "ticks": 33840,
          "time": 164.28883681250005,
          "velocity": 0.7637795275590551
        },
        {
          "duration": 0.1588537695312482,
          "durationTicks": 61,
          "midi": 74,
          "name": "D5",
          "ticks": 33904,
          "time": 164.45550306250004,
          "velocity": 0.7637795275590551
        },
        {
          "duration": 0.1588537695312482,
          "durationTicks": 61,
          "midi": 62,
          "name": "D4",
          "ticks": 33968,
          "time": 164.62216931250003,
          "velocity": 0.7637795275590551
        },
        {
          "duration": 0.1588537695312482,
          "durationTicks": 61,
          "midi": 74,
          "name": "D5",
          "ticks": 34032,
          "time": 164.78883556250005,
          "velocity": 0.7637795275590551
        },
        {
          "duration": 0.1588537695312482,
          "durationTicks": 61,
          "midi": 64,
          "name": "E4",
          "ticks": 34096,
          "time": 164.95550181250005,
          "velocity": 0.7637795275590551
        },
        {
          "duration": 0.1588537695312482,
          "durationTicks": 61,
          "midi": 74,
          "name": "D5",
          "ticks": 34160,
          "time": 165.12216806250004,
          "velocity": 0.7637795275590551
        },
        {
          "duration": 0.1588537695312482,
          "durationTicks": 61,
          "midi": 66,
          "name": "F#4",
          "ticks": 34224,
          "time": 165.28883431250006,
          "velocity": 0.7637795275590551
        },
        {
          "duration": 0.1588537695312482,
          "durationTicks": 61,
          "midi": 74,
          "name": "D5",
          "ticks": 34288,
          "time": 165.45550056250005,
          "velocity": 0.7637795275590551
        },
        {
          "duration": 0.1588537695312482,
          "durationTicks": 61,
          "midi": 67,
          "name": "G4",
          "ticks": 34352,
          "time": 165.62216681250004,
          "velocity": 0.7637795275590551
        },
        {
          "duration": 0.1588537695312482,
          "durationTicks": 61,
          "midi": 74,
          "name": "D5",
          "ticks": 34416,
          "time": 165.78883306250003,
          "velocity": 0.7637795275590551
        },
        {
          "duration": 0.1588537695312482,
          "durationTicks": 61,
          "midi": 66,
          "name": "F#4",
          "ticks": 34480,
          "time": 165.95549931250005,
          "velocity": 0.7637795275590551
        },
        {
          "duration": 0.1588537695312482,
          "durationTicks": 61,
          "midi": 74,
          "name": "D5",
          "ticks": 34544,
          "time": 166.12216556250004,
          "velocity": 0.7637795275590551
        },
        {
          "duration": 0.1588537695312482,
          "durationTicks": 61,
          "midi": 67,
          "name": "G4",
          "ticks": 34608,
          "time": 166.28883181250004,
          "velocity": 0.7637795275590551
        },
        {
          "duration": 0.1588537695312482,
          "durationTicks": 61,
          "midi": 74,
          "name": "D5",
          "ticks": 34672,
          "time": 166.45549806250006,
          "velocity": 0.7637795275590551
        },
        {
          "duration": 0.1588537695312482,
          "durationTicks": 61,
          "midi": 69,
          "name": "A4",
          "ticks": 34736,
          "time": 166.62216431250005,
          "velocity": 0.7637795275590551
        },
        {
          "duration": 0.1588537695312482,
          "durationTicks": 61,
          "midi": 74,
          "name": "D5",
          "ticks": 34800,
          "time": 166.78883056250004,
          "velocity": 0.7637795275590551
        },
        {
          "duration": 0.2343744140625006,
          "durationTicks": 90,
          "midi": 70,
          "name": "A#4",
          "ticks": 34864,
          "time": 166.95549681250003,
          "velocity": 0.7637795275590551
        },
        {
          "duration": 0.2343744140625006,
          "durationTicks": 90,
          "midi": 74,
          "name": "D5",
          "ticks": 34992,
          "time": 167.28882931250004,
          "velocity": 0.7637795275590551
        },
        {
          "duration": 0.2343744140625006,
          "durationTicks": 90,
          "midi": 70,
          "name": "A#4",
          "ticks": 35120,
          "time": 167.62216181250005,
          "velocity": 0.7637795275590551
        },
        {
          "duration": 0.2343744140625006,
          "durationTicks": 90,
          "midi": 74,
          "name": "D5",
          "ticks": 35248,
          "time": 167.95549431250004,
          "velocity": 0.7637795275590551
        },
        {
          "duration": 0.2343744140625006,
          "durationTicks": 90,
          "midi": 75,
          "name": "D#5",
          "ticks": 35376,
          "time": 168.28882681250005,
          "velocity": 0.7637795275590551
        },
        {
          "duration": 0.2343744140625006,
          "durationTicks": 90,
          "midi": 67,
          "name": "G4",
          "ticks": 35504,
          "time": 168.62215931250003,
          "velocity": 0.7637795275590551
        },
        {
          "duration": 0.2343744140625006,
          "durationTicks": 90,
          "midi": 75,
          "name": "D#5",
          "ticks": 35632,
          "time": 168.95549181250004,
          "velocity": 0.7637795275590551
        },
        {
          "duration": 0.2343744140625006,
          "durationTicks": 90,
          "midi": 67,
          "name": "G4",
          "ticks": 35760,
          "time": 169.28882431250005,
          "velocity": 0.7637795275590551
        },
        {
          "duration": 0.2343744140625006,
          "durationTicks": 90,
          "midi": 72,
          "name": "C5",
          "ticks": 35888,
          "time": 169.62215681250004,
          "velocity": 0.7637795275590551
        },
        {
          "duration": 0.2343744140625006,
          "durationTicks": 90,
          "midi": 69,
          "name": "A4",
          "ticks": 36016,
          "time": 169.95548931250005,
          "velocity": 0.7637795275590551
        },
        {
          "duration": 0.2343744140625006,
          "durationTicks": 90,
          "midi": 72,
          "name": "C5",
          "ticks": 36144,
          "time": 170.28882181250003,
          "velocity": 0.7637795275590551
        },
        {
          "duration": 0.2343744140625006,
          "durationTicks": 90,
          "midi": 69,
          "name": "A4",
          "ticks": 36272,
          "time": 170.62215431250004,
          "velocity": 0.7637795275590551
        },
        {
          "duration": 0.2343744140625006,
          "durationTicks": 90,
          "midi": 74,
          "name": "D5",
          "ticks": 36400,
          "time": 170.95548681250006,
          "velocity": 0.7637795275590551
        },
        {
          "duration": 0.2343744140625006,
          "durationTicks": 90,
          "midi": 65,
          "name": "F4",
          "ticks": 36528,
          "time": 171.28881931250004,
          "velocity": 0.7637795275590551
        },
        {
          "duration": 0.2343744140625006,
          "durationTicks": 90,
          "midi": 74,
          "name": "D5",
          "ticks": 36656,
          "time": 171.62215181250005,
          "velocity": 0.7637795275590551
        },
        {
          "duration": 0.2343744140625006,
          "durationTicks": 90,
          "midi": 65,
          "name": "F4",
          "ticks": 36784,
          "time": 171.95548431250003,
          "velocity": 0.7637795275590551
        },
        {
          "duration": 0.2343744140625006,
          "durationTicks": 90,
          "midi": 70,
          "name": "A#4",
          "ticks": 36912,
          "time": 172.28881681250004,
          "velocity": 0.7637795275590551
        },
        {
          "duration": 0.2343744140625006,
          "durationTicks": 90,
          "midi": 67,
          "name": "G4",
          "ticks": 37040,
          "time": 172.62214931250006,
          "velocity": 0.7637795275590551
        },
        {
          "duration": 0.2343744140625006,
          "durationTicks": 90,
          "midi": 70,
          "name": "A#4",
          "ticks": 37168,
          "time": 172.95548181250004,
          "velocity": 0.7637795275590551
        },
        {
          "duration": 0.2343744140625006,
          "durationTicks": 90,
          "midi": 67,
          "name": "G4",
          "ticks": 37296,
          "time": 173.28881431250005,
          "velocity": 0.7637795275590551
        },
        {
          "duration": 0.2343744140625006,
          "durationTicks": 90,
          "midi": 73,
          "name": "C#5",
          "ticks": 37424,
          "time": 173.62214681250003,
          "velocity": 0.7637795275590551
        },
        {
          "duration": 0.2343744140625006,
          "durationTicks": 90,
          "midi": 64,
          "name": "E4",
          "ticks": 37552,
          "time": 173.95547931250005,
          "velocity": 0.7637795275590551
        },
        {
          "duration": 0.23437441406247217,
          "durationTicks": 90,
          "midi": 73,
          "name": "C#5",
          "ticks": 37680,
          "time": 174.28881181250006,
          "velocity": 0.7637795275590551
        },
        {
          "duration": 0.2343744140625006,
          "durationTicks": 90,
          "midi": 64,
          "name": "E4",
          "ticks": 37808,
          "time": 174.62214431250004,
          "velocity": 0.7637795275590551
        },
        {
          "duration": 0.2343744140625006,
          "durationTicks": 90,
          "midi": 69,
          "name": "A4",
          "ticks": 37936,
          "time": 174.95547681250005,
          "velocity": 0.7637795275590551
        },
        {
          "duration": 0.2343744140625006,
          "durationTicks": 90,
          "midi": 65,
          "name": "F4",
          "ticks": 38064,
          "time": 175.28880931250004,
          "velocity": 0.7637795275590551
        },
        {
          "duration": 0.2343744140625006,
          "durationTicks": 90,
          "midi": 69,
          "name": "A4",
          "ticks": 38192,
          "time": 175.62214181250005,
          "velocity": 0.7637795275590551
        },
        {
          "duration": 0.234374414062529,
          "durationTicks": 90,
          "midi": 65,
          "name": "F4",
          "ticks": 38320,
          "time": 175.95547431250003,
          "velocity": 0.7637795275590551
        },
        {
          "duration": 0.2343744140625006,
          "durationTicks": 90,
          "midi": 67,
          "name": "G4",
          "ticks": 38448,
          "time": 176.28880681250004,
          "velocity": 0.7637795275590551
        },
        {
          "duration": 0.2343744140625006,
          "durationTicks": 90,
          "midi": 61,
          "name": "C#4",
          "ticks": 38576,
          "time": 176.62213931250005,
          "velocity": 0.7637795275590551
        },
        {
          "duration": 0.2343744140625006,
          "durationTicks": 90,
          "midi": 67,
          "name": "G4",
          "ticks": 38704,
          "time": 176.95547181250004,
          "velocity": 0.7637795275590551
        },
        {
          "duration": 0.2343744140625006,
          "durationTicks": 90,
          "midi": 61,
          "name": "C#4",
          "ticks": 38832,
          "time": 177.28880431250005,
          "velocity": 0.7637795275590551
        },
        {
          "duration": 0.23437441406247217,
          "durationTicks": 90,
          "midi": 65,
          "name": "F4",
          "ticks": 38960,
          "time": 177.62213681250006,
          "velocity": 0.7637795275590551
        },
        {
          "duration": 0.2343744140625006,
          "durationTicks": 90,
          "midi": 62,
          "name": "D4",
          "ticks": 39088,
          "time": 177.95546931250004,
          "velocity": 0.7637795275590551
        },
        {
          "duration": 0.2343744140625006,
          "durationTicks": 90,
          "midi": 65,
          "name": "F4",
          "ticks": 39216,
          "time": 178.28880181250005,
          "velocity": 0.7637795275590551
        },
        {
          "duration": 0.2343744140625006,
          "durationTicks": 90,
          "midi": 62,
          "name": "D4",
          "ticks": 39344,
          "time": 178.62213431250004,
          "velocity": 0.7637795275590551
        },
        {
          "duration": 0.2343744140625006,
          "durationTicks": 90,
          "midi": 64,
          "name": "E4",
          "ticks": 39472,
          "time": 178.95546681250005,
          "velocity": 0.7637795275590551
        },
        {
          "duration": 0.2343744140625006,
          "durationTicks": 90,
          "midi": 58,
          "name": "A#3",
          "ticks": 39600,
          "time": 179.28879931250003,
          "velocity": 0.7637795275590551
        },
        {
          "duration": 0.2343744140625006,
          "durationTicks": 90,
          "midi": 64,
          "name": "E4",
          "ticks": 39728,
          "time": 179.62213181250004,
          "velocity": 0.7637795275590551
        },
        {
          "duration": 0.2343744140625006,
          "durationTicks": 90,
          "midi": 58,
          "name": "A#3",
          "ticks": 39856,
          "time": 179.95546431250006,
          "velocity": 0.7637795275590551
        },
        {
          "duration": 0.1588537695312766,
          "durationTicks": 61,
          "midi": 81,
          "name": "A5",
          "ticks": 40048,
          "time": 180.45546306250003,
          "velocity": 0.7637795275590551
        },
        {
          "duration": 0.1588537695312482,
          "durationTicks": 61,
          "midi": 79,
          "name": "G5",
          "ticks": 40112,
          "time": 180.62212931250005,
          "velocity": 0.7637795275590551
        },
        {
          "duration": 0.1588537695312482,
          "durationTicks": 61,
          "midi": 81,
          "name": "A5",
          "ticks": 40176,
          "time": 180.78879556250004,
          "velocity": 0.7637795275590551
        },
        {
          "duration": 0.1588537695312482,
          "durationTicks": 61,
          "midi": 77,
          "name": "F5",
          "ticks": 40240,
          "time": 180.95546181250003,
          "velocity": 0.7637795275590551
        },
        {
          "duration": 0.1588537695312482,
          "durationTicks": 61,
          "midi": 81,
          "name": "A5",
          "ticks": 40304,
          "time": 181.12212806250005,
          "velocity": 0.7637795275590551
        },
        {
          "duration": 0.1588537695312482,
          "durationTicks": 61,
          "midi": 76,
          "name": "E5",
          "ticks": 40368,
          "time": 181.28879431250004,
          "velocity": 0.7637795275590551
        },
        {
          "duration": 0.1588537695312482,
          "durationTicks": 61,
          "midi": 81,
          "name": "A5",
          "ticks": 40432,
          "time": 181.45546056250004,
          "velocity": 0.7637795275590551
        },
        {
          "duration": 0.1588537695312482,
          "durationTicks": 61,
          "midi": 74,
          "name": "D5",
          "ticks": 40496,
          "time": 181.62212681250006,
          "velocity": 0.7637795275590551
        },
        {
          "duration": 0.1588537695312482,
          "durationTicks": 61,
          "midi": 81,
          "name": "A5",
          "ticks": 40560,
          "time": 181.78879306250005,
          "velocity": 0.7637795275590551
        },
        {
          "duration": 0.1588537695312482,
          "durationTicks": 61,
          "midi": 73,
          "name": "C#5",
          "ticks": 40624,
          "time": 181.95545931250004,
          "velocity": 0.7637795275590551
        },
        {
          "duration": 0.15885376953121977,
          "durationTicks": 61,
          "midi": 81,
          "name": "A5",
          "ticks": 40688,
          "time": 182.12212556250006,
          "velocity": 0.7637795275590551
        },
        {
          "duration": 0.1588537695312482,
          "durationTicks": 61,
          "midi": 74,
          "name": "D5",
          "ticks": 40752,
          "time": 182.28879181250005,
          "velocity": 0.7637795275590551
        },
        {
          "duration": 0.1588537695312482,
          "durationTicks": 61,
          "midi": 81,
          "name": "A5",
          "ticks": 40816,
          "time": 182.45545806250004,
          "velocity": 0.7637795275590551
        },
        {
          "duration": 0.1588537695312766,
          "durationTicks": 61,
          "midi": 76,
          "name": "E5",
          "ticks": 40880,
          "time": 182.62212431250003,
          "velocity": 0.7637795275590551
        },
        {
          "duration": 0.1588537695312482,
          "durationTicks": 61,
          "midi": 81,
          "name": "A5",
          "ticks": 40944,
          "time": 182.78879056250005,
          "velocity": 0.7637795275590551
        },
        {
          "duration": 0.1588537695312482,
          "durationTicks": 61,
          "midi": 77,
          "name": "F5",
          "ticks": 41008,
          "time": 182.95545681250005,
          "velocity": 0.7637795275590551
        },
        {
          "duration": 0.1588537695312482,
          "durationTicks": 61,
          "midi": 81,
          "name": "A5",
          "ticks": 41072,
          "time": 183.12212306250004,
          "velocity": 0.7637795275590551
        },
        {
          "duration": 0.1588537695312482,
          "durationTicks": 61,
          "midi": 69,
          "name": "A4",
          "ticks": 41136,
          "time": 183.28878931250006,
          "velocity": 0.7637795275590551
        },
        {
          "duration": 0.1588537695312482,
          "durationTicks": 61,
          "midi": 81,
          "name": "A5",
          "ticks": 41200,
          "time": 183.45545556250005,
          "velocity": 0.7637795275590551
        },
        {
          "duration": 0.1588537695312482,
          "durationTicks": 61,
          "midi": 71,
          "name": "B4",
          "ticks": 41264,
          "time": 183.62212181250004,
          "velocity": 0.7637795275590551
        },
        {
          "duration": 0.1588537695312766,
          "durationTicks": 61,
          "midi": 81,
          "name": "A5",
          "ticks": 41328,
          "time": 183.78878806250003,
          "velocity": 0.7637795275590551
        },
        {
          "duration": 0.1588537695312482,
          "durationTicks": 61,
          "midi": 73,
          "name": "C#5",
          "ticks": 41392,
          "time": 183.95545431250005,
          "velocity": 0.7637795275590551
        },
        {
          "duration": 0.1588537695312482,
          "durationTicks": 61,
          "midi": 81,
          "name": "A5",
          "ticks": 41456,
          "time": 184.12212056250004,
          "velocity": 0.7637795275590551
        },
        {
          "duration": 0.1588537695312482,
          "durationTicks": 61,
          "midi": 74,
          "name": "D5",
          "ticks": 41520,
          "time": 184.28878681250004,
          "velocity": 0.7637795275590551
        },
        {
          "duration": 0.1588537695312482,
          "durationTicks": 61,
          "midi": 81,
          "name": "A5",
          "ticks": 41584,
          "time": 184.45545306250006,
          "velocity": 0.7637795275590551
        },
        {
          "duration": 0.1588537695312482,
          "durationTicks": 61,
          "midi": 73,
          "name": "C#5",
          "ticks": 41648,
          "time": 184.62211931250005,
          "velocity": 0.7637795275590551
        },
        {
          "duration": 0.1588537695312482,
          "durationTicks": 61,
          "midi": 81,
          "name": "A5",
          "ticks": 41712,
          "time": 184.78878556250004,
          "velocity": 0.7637795275590551
        },
        {
          "duration": 0.1588537695312766,
          "durationTicks": 61,
          "midi": 74,
          "name": "D5",
          "ticks": 41776,
          "time": 184.95545181250003,
          "velocity": 0.7637795275590551
        },
        {
          "duration": 0.1588537695312482,
          "durationTicks": 61,
          "midi": 81,
          "name": "A5",
          "ticks": 41840,
          "time": 185.12211806250005,
          "velocity": 0.7637795275590551
        },
        {
          "duration": 0.1588537695312482,
          "durationTicks": 61,
          "midi": 76,
          "name": "E5",
          "ticks": 41904,
          "time": 185.28878431250004,
          "velocity": 0.7637795275590551
        },
        {
          "duration": 0.1588537695312482,
          "durationTicks": 61,
          "midi": 81,
          "name": "A5",
          "ticks": 41968,
          "time": 185.45545056250003,
          "velocity": 0.7637795275590551
        },
        {
          "duration": 0.1588537695312482,
          "durationTicks": 61,
          "midi": 77,
          "name": "F5",
          "ticks": 42032,
          "time": 185.62211681250005,
          "velocity": 0.7637795275590551
        },
        {
          "duration": 0.1588537695312482,
          "durationTicks": 61,
          "midi": 81,
          "name": "A5",
          "ticks": 42096,
          "time": 185.78878306250004,
          "velocity": 0.7637795275590551
        },
        {
          "duration": 0.1588537695312482,
          "durationTicks": 61,
          "midi": 76,
          "name": "E5",
          "ticks": 42160,
          "time": 185.95544931250004,
          "velocity": 0.7637795275590551
        },
        {
          "duration": 0.1588537695312482,
          "durationTicks": 61,
          "midi": 81,
          "name": "A5",
          "ticks": 42224,
          "time": 186.12211556250006,
          "velocity": 0.7637795275590551
        },
        {
          "duration": 0.1588537695312482,
          "durationTicks": 61,
          "midi": 74,
          "name": "D5",
          "ticks": 42288,
          "time": 186.28878181250005,
          "velocity": 0.7637795275590551
        },
        {
          "duration": 0.1588537695312482,
          "durationTicks": 61,
          "midi": 81,
          "name": "A5",
          "ticks": 42352,
          "time": 186.45544806250004,
          "velocity": 0.7637795275590551
        },
        {
          "duration": 0.1588537695312482,
          "durationTicks": 61,
          "midi": 72,
          "name": "C5",
          "ticks": 42416,
          "time": 186.62211431250006,
          "velocity": 0.7637795275590551
        },
        {
          "duration": 0.1588537695312482,
          "durationTicks": 61,
          "midi": 81,
          "name": "A5",
          "ticks": 42480,
          "time": 186.78878056250005,
          "velocity": 0.7637795275590551
        },
        {
          "duration": 0.1588537695312482,
          "durationTicks": 61,
          "midi": 70,
          "name": "A#4",
          "ticks": 42544,
          "time": 186.95544681250004,
          "velocity": 0.7637795275590551
        },
        {
          "duration": 0.1588537695312766,
          "durationTicks": 61,
          "midi": 81,
          "name": "A5",
          "ticks": 42608,
          "time": 187.12211306250003,
          "velocity": 0.7637795275590551
        },
        {
          "duration": 0.1588537695312482,
          "durationTicks": 61,
          "midi": 72,
          "name": "C5",
          "ticks": 42672,
          "time": 187.28877931250005,
          "velocity": 0.7637795275590551
        },
        {
          "duration": 0.1588537695312482,
          "durationTicks": 61,
          "midi": 81,
          "name": "A5",
          "ticks": 42736,
          "time": 187.45544556250005,
          "velocity": 0.7637795275590551
        },
        {
          "duration": 0.1588537695312482,
          "durationTicks": 61,
          "midi": 74,
          "name": "D5",
          "ticks": 42800,
          "time": 187.62211181250004,
          "velocity": 0.7637795275590551
        },
        {
          "duration": 0.1588537695312482,
          "durationTicks": 61,
          "midi": 79,
          "name": "G5",
          "ticks": 42864,
          "time": 187.78877806250006,
          "velocity": 0.7637795275590551
        },
        {
          "duration": 0.1588537695312482,
          "durationTicks": 61,
          "midi": 70,
          "name": "A#4",
          "ticks": 42928,
          "time": 187.95544431250005,
          "velocity": 0.7637795275590551
        },
        {
          "duration": 0.1588537695312482,
          "durationTicks": 61,
          "midi": 79,
          "name": "G5",
          "ticks": 42992,
          "time": 188.12211056250004,
          "velocity": 0.7637795275590551
        },
        {
          "duration": 0.1588537695312766,
          "durationTicks": 61,
          "midi": 76,
          "name": "E5",
          "ticks": 43056,
          "time": 188.28877681250003,
          "velocity": 0.7637795275590551
        },
        {
          "duration": 0.1588537695312482,
          "durationTicks": 61,
          "midi": 79,
          "name": "G5",
          "ticks": 43120,
          "time": 188.45544306250005,
          "velocity": 0.7637795275590551
        },
        {
          "duration": 0.1588537695312482,
          "durationTicks": 61,
          "midi": 74,
          "name": "D5",
          "ticks": 43184,
          "time": 188.62210931250004,
          "velocity": 0.7637795275590551
        },
        {
          "duration": 0.1588537695312482,
          "durationTicks": 61,
          "midi": 79,
          "name": "G5",
          "ticks": 43248,
          "time": 188.78877556250004,
          "velocity": 0.7637795275590551
        },
        {
          "duration": 0.1588537695312482,
          "durationTicks": 61,
          "midi": 72,
          "name": "C5",
          "ticks": 43312,
          "time": 188.95544181250006,
          "velocity": 0.7637795275590551
        },
        {
          "duration": 0.1588537695312482,
          "durationTicks": 61,
          "midi": 79,
          "name": "G5",
          "ticks": 43376,
          "time": 189.12210806250005,
          "velocity": 0.7637795275590551
        },
        {
          "duration": 0.1588537695312482,
          "durationTicks": 61,
          "midi": 70,
          "name": "A#4",
          "ticks": 43440,
          "time": 189.28877431250004,
          "velocity": 0.7637795275590551
        },
        {
          "duration": 0.1588537695312766,
          "durationTicks": 61,
          "midi": 79,
          "name": "G5",
          "ticks": 43504,
          "time": 189.45544056250003,
          "velocity": 0.7637795275590551
        },
        {
          "duration": 0.1588537695312482,
          "durationTicks": 61,
          "midi": 69,
          "name": "A4",
          "ticks": 43568,
          "time": 189.62210681250005,
          "velocity": 0.7637795275590551
        },
        {
          "duration": 0.1588537695312482,
          "durationTicks": 61,
          "midi": 79,
          "name": "G5",
          "ticks": 43632,
          "time": 189.78877306250004,
          "velocity": 0.7637795275590551
        },
        {
          "duration": 0.15885376953121977,
          "durationTicks": 61,
          "midi": 70,
          "name": "A#4",
          "ticks": 43696,
          "time": 189.95543931250006,
          "velocity": 0.7637795275590551
        },
        {
          "duration": 0.1588537695312482,
          "durationTicks": 61,
          "midi": 79,
          "name": "G5",
          "ticks": 43760,
          "time": 190.12210556250005,
          "velocity": 0.7637795275590551
        },
        {
          "duration": 0.1588537695312482,
          "durationTicks": 61,
          "midi": 72,
          "name": "C5",
          "ticks": 43824,
          "time": 190.28877181250004,
          "velocity": 0.7637795275590551
        },
        {
          "duration": 0.1588537695312766,
          "durationTicks": 61,
          "midi": 77,
          "name": "F5",
          "ticks": 43888,
          "time": 190.45543806250004,
          "velocity": 0.7637795275590551
        },
        {
          "duration": 0.1588537695312482,
          "durationTicks": 61,
          "midi": 69,
          "name": "A4",
          "ticks": 43952,
          "time": 190.62210431250006,
          "velocity": 0.7637795275590551
        },
        {
          "duration": 0.1588537695312482,
          "durationTicks": 61,
          "midi": 77,
          "name": "F5",
          "ticks": 44016,
          "time": 190.78877056250005,
          "velocity": 0.7637795275590551
        },
        {
          "duration": 0.1588537695312482,
          "durationTicks": 61,
          "midi": 74,
          "name": "D5",
          "ticks": 44080,
          "time": 190.95543681250004,
          "velocity": 0.7637795275590551
        },
        {
          "duration": 0.15885376953121977,
          "durationTicks": 61,
          "midi": 77,
          "name": "F5",
          "ticks": 44144,
          "time": 191.12210306250006,
          "velocity": 0.7637795275590551
        },
        {
          "duration": 0.1588537695312482,
          "durationTicks": 61,
          "midi": 72,
          "name": "C5",
          "ticks": 44208,
          "time": 191.28876931250005,
          "velocity": 0.7637795275590551
        },
        {
          "duration": 0.1588537695312482,
          "durationTicks": 61,
          "midi": 77,
          "name": "F5",
          "ticks": 44272,
          "time": 191.45543556250004,
          "velocity": 0.7637795275590551
        },
        {
          "duration": 0.1588537695312766,
          "durationTicks": 61,
          "midi": 70,
          "name": "A#4",
          "ticks": 44336,
          "time": 191.62210181250003,
          "velocity": 0.7637795275590551
        },
        {
          "duration": 0.1588537695312482,
          "durationTicks": 61,
          "midi": 77,
          "name": "F5",
          "ticks": 44400,
          "time": 191.78876806250005,
          "velocity": 0.7637795275590551
        },
        {
          "duration": 0.1588537695312482,
          "durationTicks": 61,
          "midi": 69,
          "name": "A4",
          "ticks": 44464,
          "time": 191.95543431250005,
          "velocity": 0.7637795275590551
        },
        {
          "duration": 0.1588537695312482,
          "durationTicks": 61,
          "midi": 77,
          "name": "F5",
          "ticks": 44528,
          "time": 192.12210056250004,
          "velocity": 0.7637795275590551
        },
        {
          "duration": 0.1588537695312482,
          "durationTicks": 61,
          "midi": 67,
          "name": "G4",
          "ticks": 44592,
          "time": 192.28876681250006,
          "velocity": 0.7637795275590551
        },
        {
          "duration": 0.1588537695312482,
          "durationTicks": 61,
          "midi": 77,
          "name": "F5",
          "ticks": 44656,
          "time": 192.45543306250005,
          "velocity": 0.7637795275590551
        },
        {
          "duration": 0.1588537695312482,
          "durationTicks": 61,
          "midi": 69,
          "name": "A4",
          "ticks": 44720,
          "time": 192.62209931250004,
          "velocity": 0.7637795275590551
        },
        {
          "duration": 0.1588537695312766,
          "durationTicks": 61,
          "midi": 77,
          "name": "F5",
          "ticks": 44784,
          "time": 192.78876556250003,
          "velocity": 0.7637795275590551
        },
        {
          "duration": 0.1588537695312482,
          "durationTicks": 61,
          "midi": 70,
          "name": "A#4",
          "ticks": 44848,
          "time": 192.95543181250005,
          "velocity": 0.7637795275590551
        },
        {
          "duration": 0.1588537695312482,
          "durationTicks": 61,
          "midi": 76,
          "name": "E5",
          "ticks": 44912,
          "time": 193.12209806250004,
          "velocity": 0.7637795275590551
        },
        {
          "duration": 0.15885376953121977,
          "durationTicks": 61,
          "midi": 67,
          "name": "G4",
          "ticks": 44976,
          "time": 193.28876431250006,
          "velocity": 0.7637795275590551
        },
        {
          "duration": 0.1588537695312482,
          "durationTicks": 61,
          "midi": 76,
          "name": "E5",
          "ticks": 45040,
          "time": 193.45543056250006,
          "velocity": 0.7637795275590551
        },
        {
          "duration": 0.1588537695312482,
          "durationTicks": 61,
          "midi": 73,
          "name": "C#5",
          "ticks": 45104,
          "time": 193.62209681250005,
          "velocity": 0.7637795275590551
        },
        {
          "duration": 0.1588537695312482,
          "durationTicks": 61,
          "midi": 76,
          "name": "E5",
          "ticks": 45168,
          "time": 193.78876306250004,
          "velocity": 0.7637795275590551
        },
        {
          "duration": 0.1588537695312766,
          "durationTicks": 61,
          "midi": 70,
          "name": "A#4",
          "ticks": 45232,
          "time": 193.95542931250003,
          "velocity": 0.7637795275590551
        },
        {
          "duration": 0.1588537695312482,
          "durationTicks": 61,
          "midi": 76,
          "name": "E5",
          "ticks": 45296,
          "time": 194.12209556250005,
          "velocity": 0.7637795275590551
        },
        {
          "duration": 0.1588537695312482,
          "durationTicks": 61,
          "midi": 69,
          "name": "A4",
          "ticks": 45360,
          "time": 194.28876181250004,
          "velocity": 0.7637795275590551
        },
        {
          "duration": 0.15885376953121977,
          "durationTicks": 61,
          "midi": 76,
          "name": "E5",
          "ticks": 45424,
          "time": 194.45542806250006,
          "velocity": 0.7637795275590551
        },
        {
          "duration": 0.1588537695312482,
          "durationTicks": 61,
          "midi": 67,
          "name": "G4",
          "ticks": 45488,
          "time": 194.62209431250005,
          "velocity": 0.7637795275590551
        },
        {
          "duration": 0.1588537695312482,
          "durationTicks": 61,
          "midi": 76,
          "name": "E5",
          "ticks": 45552,
          "time": 194.78876056250004,
          "velocity": 0.7637795275590551
        },
        {
          "duration": 0.1588537695312766,
          "durationTicks": 61,
          "midi": 65,
          "name": "F4",
          "ticks": 45616,
          "time": 194.95542681250004,
          "velocity": 0.7637795275590551
        },
        {
          "duration": 0.1588537695312482,
          "durationTicks": 61,
          "midi": 76,
          "name": "E5",
          "ticks": 45680,
          "time": 195.12209306250006,
          "velocity": 0.7637795275590551
        },
        {
          "duration": 0.1588537695312482,
          "durationTicks": 61,
          "midi": 67,
          "name": "G4",
          "ticks": 45744,
          "time": 195.28875931250005,
          "velocity": 0.7637795275590551
        },
        {
          "duration": 0.1588537695312482,
          "durationTicks": 61,
          "midi": 76,
          "name": "E5",
          "ticks": 45808,
          "time": 195.45542556250004,
          "velocity": 0.7637795275590551
        },
        {
          "duration": 0.15885376953121977,
          "durationTicks": 61,
          "midi": 69,
          "name": "A4",
          "ticks": 45872,
          "time": 195.62209181250006,
          "velocity": 0.7637795275590551
        },
        {
          "duration": 0.1588537695312482,
          "durationTicks": 61,
          "midi": 74,
          "name": "D5",
          "ticks": 45936,
          "time": 195.78875806250005,
          "velocity": 0.7637795275590551
        },
        {
          "duration": 0.1588537695312482,
          "durationTicks": 61,
          "midi": 65,
          "name": "F4",
          "ticks": 46000,
          "time": 195.95542431250004,
          "velocity": 0.7637795275590551
        },
        {
          "duration": 0.3177075390624964,
          "durationTicks": 122,
          "midi": 62,
          "name": "D4",
          "ticks": 46000,
          "time": 195.95542431250004,
          "velocity": 0.7637795275590551
        },
        {
          "duration": 0.1588537695312766,
          "durationTicks": 61,
          "midi": 74,
          "name": "D5",
          "ticks": 46064,
          "time": 196.12209056250003,
          "velocity": 0.7637795275590551
        },
        {
          "duration": 0.1588537695312482,
          "durationTicks": 61,
          "midi": 64,
          "name": "E4",
          "ticks": 46128,
          "time": 196.28875681250005,
          "velocity": 0.7637795275590551
        },
        {
          "duration": 0.3177075390624964,
          "durationTicks": 122,
          "midi": 61,
          "name": "C#4",
          "ticks": 46128,
          "time": 196.28875681250005,
          "velocity": 0.7637795275590551
        },
        {
          "duration": 0.1588537695312482,
          "durationTicks": 61,
          "midi": 76,
          "name": "E5",
          "ticks": 46192,
          "time": 196.45542306250005,
          "velocity": 0.7637795275590551
        },
        {
          "duration": 0.1588537695312482,
          "durationTicks": 61,
          "midi": 64,
          "name": "E4",
          "ticks": 46256,
          "time": 196.62208931250004,
          "velocity": 0.7637795275590551
        },
        {
          "duration": 0.3177075390625248,
          "durationTicks": 122,
          "midi": 61,
          "name": "C#4",
          "ticks": 46256,
          "time": 196.62208931250004,
          "velocity": 0.7637795275590551
        },
        {
          "duration": 0.1588537695312482,
          "durationTicks": 61,
          "midi": 76,
          "name": "E5",
          "ticks": 46320,
          "time": 196.78875556250006,
          "velocity": 0.7637795275590551
        },
        {
          "duration": 0.1588537695312482,
          "durationTicks": 61,
          "midi": 65,
          "name": "F4",
          "ticks": 46384,
          "time": 196.95542181250005,
          "velocity": 0.7637795275590551
        },
        {
          "duration": 0.3177075390624964,
          "durationTicks": 122,
          "midi": 62,
          "name": "D4",
          "ticks": 46384,
          "time": 196.95542181250005,
          "velocity": 0.7637795275590551
        },
        {
          "duration": 0.1588537695312482,
          "durationTicks": 61,
          "midi": 74,
          "name": "D5",
          "ticks": 46448,
          "time": 197.12208806250004,
          "velocity": 0.7637795275590551
        },
        {
          "duration": 0.1588537695312766,
          "durationTicks": 61,
          "midi": 65,
          "name": "F4",
          "ticks": 46512,
          "time": 197.28875431250003,
          "velocity": 0.7637795275590551
        },
        {
          "duration": 0.3177075390625248,
          "durationTicks": 122,
          "midi": 62,
          "name": "D4",
          "ticks": 46512,
          "time": 197.28875431250003,
          "velocity": 0.7637795275590551
        },
        {
          "duration": 0.1588537695312482,
          "durationTicks": 61,
          "midi": 74,
          "name": "D5",
          "ticks": 46576,
          "time": 197.45542056250005,
          "velocity": 0.7637795275590551
        },
        {
          "duration": 0.1588537695312482,
          "durationTicks": 61,
          "midi": 70,
          "name": "A#4",
          "ticks": 46640,
          "time": 197.62208681250004,
          "velocity": 0.7637795275590551
        },
        {
          "duration": 0.6354150781249928,
          "durationTicks": 244,
          "midi": 64,
          "name": "E4",
          "ticks": 46640,
          "time": 197.62208681250004,
          "velocity": 0.7637795275590551
        },
        {
          "duration": 0.15885376953121977,
          "durationTicks": 61,
          "midi": 73,
          "name": "C#5",
          "ticks": 46704,
          "time": 197.78875306250006,
          "velocity": 0.7637795275590551
        },
        {
          "duration": 0.1588537695312482,
          "durationTicks": 61,
          "midi": 70,
          "name": "A#4",
          "ticks": 46768,
          "time": 197.95541931250006,
          "velocity": 0.7637795275590551
        },
        {
          "duration": 0.1588537695312482,
          "durationTicks": 61,
          "midi": 73,
          "name": "C#5",
          "ticks": 46832,
          "time": 198.12208556250005,
          "velocity": 0.7637795275590551
        },
        {
          "duration": 0.1588537695312482,
          "durationTicks": 61,
          "midi": 69,
          "name": "A4",
          "ticks": 46896,
          "time": 198.28875181250004,
          "velocity": 0.7637795275590551
        },
        {
          "duration": 0.1588537695312766,
          "durationTicks": 61,
          "midi": 74,
          "name": "D5",
          "ticks": 46960,
          "time": 198.45541806250003,
          "velocity": 0.7637795275590551
        },
        {
          "duration": 0.1588537695312482,
          "durationTicks": 61,
          "midi": 65,
          "name": "F4",
          "ticks": 47024,
          "time": 198.62208431250005,
          "velocity": 0.7637795275590551
        },
        {
          "duration": 0.3177075390624964,
          "durationTicks": 122,
          "midi": 62,
          "name": "D4",
          "ticks": 47024,
          "time": 198.62208431250005,
          "velocity": 0.7637795275590551
        },
        {
          "duration": 0.1588537695312482,
          "durationTicks": 61,
          "midi": 74,
          "name": "D5",
          "ticks": 47088,
          "time": 198.78875056250004,
          "velocity": 0.7637795275590551
        },
        {
          "duration": 0.15885376953121977,
          "durationTicks": 61,
          "midi": 64,
          "name": "E4",
          "ticks": 47152,
          "time": 198.95541681250006,
          "velocity": 0.7637795275590551
        },
        {
          "duration": 0.3177075390624964,
          "durationTicks": 122,
          "midi": 61,
          "name": "C#4",
          "ticks": 47152,
          "time": 198.95541681250006,
          "velocity": 0.7637795275590551
        },
        {
          "duration": 0.1588537695312482,
          "durationTicks": 61,
          "midi": 76,
          "name": "E5",
          "ticks": 47216,
          "time": 199.12208306250005,
          "velocity": 0.7637795275590551
        },
        {
          "duration": 0.1588537695312482,
          "durationTicks": 61,
          "midi": 64,
          "name": "E4",
          "ticks": 47280,
          "time": 199.28874931250004,
          "velocity": 0.7637795275590551
        },
        {
          "duration": 0.3177075390624964,
          "durationTicks": 122,
          "midi": 61,
          "name": "C#4",
          "ticks": 47280,
          "time": 199.28874931250004,
          "velocity": 0.7637795275590551
        },
        {
          "duration": 0.1588537695312766,
          "durationTicks": 61,
          "midi": 76,
          "name": "E5",
          "ticks": 47344,
          "time": 199.45541556250004,
          "velocity": 0.7637795275590551
        },
        {
          "duration": 0.1588537695312482,
          "durationTicks": 61,
          "midi": 65,
          "name": "F4",
          "ticks": 47408,
          "time": 199.62208181250006,
          "velocity": 0.7637795275590551
        },
        {
          "duration": 0.3177075390624964,
          "durationTicks": 122,
          "midi": 62,
          "name": "D4",
          "ticks": 47408,
          "time": 199.62208181250006,
          "velocity": 0.7637795275590551
        },
        {
          "duration": 0.1588537695312482,
          "durationTicks": 61,
          "midi": 74,
          "name": "D5",
          "ticks": 47472,
          "time": 199.78874806250005,
          "velocity": 0.7637795275590551
        },
        {
          "duration": 0.1588537695312482,
          "durationTicks": 61,
          "midi": 65,
          "name": "F4",
          "ticks": 47536,
          "time": 199.95541431250004,
          "velocity": 0.7637795275590551
        },
        {
          "duration": 0.3177075390625248,
          "durationTicks": 122,
          "midi": 62,
          "name": "D4",
          "ticks": 47536,
          "time": 199.95541431250004,
          "velocity": 0.7637795275590551
        },
        {
          "duration": 0.15885376953121977,
          "durationTicks": 61,
          "midi": 74,
          "name": "D5",
          "ticks": 47600,
          "time": 200.12208056250006,
          "velocity": 0.7637795275590551
        },
        {
          "duration": 0.6354150781249928,
          "durationTicks": 244,
          "midi": 64,
          "name": "E4",
          "ticks": 47664,
          "time": 200.28874681250005,
          "velocity": 0.7637795275590551
        },
        {
          "duration": 0.1588537695312482,
          "durationTicks": 61,
          "midi": 74,
          "name": "D5",
          "ticks": 47728,
          "time": 200.45541306250004,
          "velocity": 0.7637795275590551
        },
        {
          "duration": 0.1588537695312766,
          "durationTicks": 61,
          "midi": 73,
          "name": "C#5",
          "ticks": 47792,
          "time": 200.62207931250003,
          "velocity": 0.7637795275590551
        },
        {
          "duration": 0.1588537695312482,
          "durationTicks": 61,
          "midi": 74,
          "name": "D5",
          "ticks": 47856,
          "time": 200.78874556250005,
          "velocity": 0.7637795275590551
        },
        {
          "duration": 0.1588537695312482,
          "durationTicks": 61,
          "midi": 71,
          "name": "B4",
          "ticks": 47920,
          "time": 200.95541181250005,
          "velocity": 0.7637795275590551
        },
        {
          "duration": 0.1588537695312482,
          "durationTicks": 61,
          "midi": 74,
          "name": "D5",
          "ticks": 47984,
          "time": 201.12207806250004,
          "velocity": 0.7637795275590551
        },
        {
          "duration": 0.1588537695312482,
          "durationTicks": 61,
          "midi": 73,
          "name": "C#5",
          "ticks": 48048,
          "time": 201.28874431250006,
          "velocity": 0.7637795275590551
        },
        {
          "duration": 0.1588537695312482,
          "durationTicks": 61,
          "midi": 71,
          "name": "B4",
          "ticks": 48112,
          "time": 201.45541056250005,
          "velocity": 0.7637795275590551
        },
        {
          "duration": 0.6354150781249928,
          "durationTicks": 244,
          "midi": 73,
          "name": "C#5",
          "ticks": 48176,
          "time": 201.62207681250004,
          "velocity": 0.7637795275590551
        },
        {
          "duration": 0.1588537695312766,
          "durationTicks": 61,
          "midi": 69,
          "name": "A4",
          "ticks": 48240,
          "time": 201.78874306250003,
          "velocity": 0.7637795275590551
        },
        {
          "duration": 0.1588537695312482,
          "durationTicks": 61,
          "midi": 67,
          "name": "G4",
          "ticks": 48304,
          "time": 201.95540931250005,
          "velocity": 0.7637795275590551
        },
        {
          "duration": 0.1588537695312482,
          "durationTicks": 61,
          "midi": 69,
          "name": "A4",
          "ticks": 48368,
          "time": 202.12207556250004,
          "velocity": 0.7637795275590551
        },
        {
          "duration": 0.15885376953121977,
          "durationTicks": 61,
          "midi": 64,
          "name": "E4",
          "ticks": 48432,
          "time": 202.28874181250006,
          "velocity": 0.7637795275590551
        },
        {
          "duration": 0.1588537695312482,
          "durationTicks": 61,
          "midi": 67,
          "name": "G4",
          "ticks": 48496,
          "time": 202.45540806250006,
          "velocity": 0.7637795275590551
        },
        {
          "duration": 0.1588537695312482,
          "durationTicks": 61,
          "midi": 65,
          "name": "F4",
          "ticks": 48560,
          "time": 202.62207431250005,
          "velocity": 0.7637795275590551
        },
        {
          "duration": 0.1588537695312482,
          "durationTicks": 61,
          "midi": 64,
          "name": "E4",
          "ticks": 48624,
          "time": 202.78874056250004,
          "velocity": 0.7637795275590551
        },
        {
          "duration": 0.6354150781250212,
          "durationTicks": 244,
          "midi": 65,
          "name": "F4",
          "ticks": 48688,
          "time": 202.95540681250003,
          "velocity": 0.7637795275590551
        },
        {
          "duration": 0.1588537695312482,
          "durationTicks": 61,
          "midi": 74,
          "name": "D5",
          "ticks": 48752,
          "time": 203.12207306250005,
          "velocity": 0.7637795275590551
        },
        {
          "duration": 0.1588537695312482,
          "durationTicks": 61,
          "midi": 73,
          "name": "C#5",
          "ticks": 48816,
          "time": 203.28873931250004,
          "velocity": 0.7637795275590551
        },
        {
          "duration": 0.15885376953121977,
          "durationTicks": 61,
          "midi": 74,
          "name": "D5",
          "ticks": 48880,
          "time": 203.45540556250006,
          "velocity": 0.7637795275590551
        },
        {
          "duration": 0.1588537695312482,
          "durationTicks": 61,
          "midi": 77,
          "name": "F5",
          "ticks": 48944,
          "time": 203.62207181250005,
          "velocity": 0.7637795275590551
        },
        {
          "duration": 0.6354150781249928,
          "durationTicks": 244,
          "midi": 62,
          "name": "D4",
          "ticks": 48944,
          "time": 203.62207181250005,
          "velocity": 0.7637795275590551
        },
        {
          "duration": 0.1588537695312482,
          "durationTicks": 61,
          "midi": 74,
          "name": "D5",
          "ticks": 49008,
          "time": 203.78873806250004,
          "velocity": 0.7637795275590551
        },
        {
          "duration": 0.1588537695312766,
          "durationTicks": 61,
          "midi": 73,
          "name": "C#5",
          "ticks": 49072,
          "time": 203.95540431250004,
          "velocity": 0.7637795275590551
        },
        {
          "duration": 0.1588537695312482,
          "durationTicks": 61,
          "midi": 71,
          "name": "B4",
          "ticks": 49136,
          "time": 204.12207056250006,
          "velocity": 0.7637795275590551
        },
        {
          "duration": 0.6354150781249928,
          "durationTicks": 244,
          "midi": 73,
          "name": "C#5",
          "ticks": 49200,
          "time": 204.28873681250005,
          "velocity": 0.7637795275590551
        },
        {
          "duration": 0.1588537695312482,
          "durationTicks": 61,
          "midi": 57,
          "name": "A3",
          "ticks": 49200,
          "time": 204.28873681250005,
          "velocity": 0.7637795275590551
        },
        {
          "duration": 0.1588537695312482,
          "durationTicks": 61,
          "midi": 69,
          "name": "A4",
          "ticks": 49264,
          "time": 204.45540306250004,
          "velocity": 0.7637795275590551
        },
        {
          "duration": 0.1588537695312482,
          "durationTicks": 61,
          "midi": 67,
          "name": "G4",
          "ticks": 49328,
          "time": 204.62206931250006,
          "velocity": 0.7637795275590551
        },
        {
          "duration": 0.1588537695312482,
          "durationTicks": 61,
          "midi": 69,
          "name": "A4",
          "ticks": 49392,
          "time": 204.78873556250005,
          "velocity": 0.7637795275590551
        },
        {
          "duration": 0.9843725390625195,
          "durationTicks": 378,
          "midi": 76,
          "name": "E5",
          "ticks": 49456,
          "time": 204.95540181250004,
          "velocity": 0.7637795275590551
        },
        {
          "duration": 0.1588537695312482,
          "durationTicks": 61,
          "midi": 61,
          "name": "C#4",
          "ticks": 49456,
          "time": 204.95540181250004,
          "velocity": 0.7637795275590551
        },
        {
          "duration": 0.1588537695312766,
          "durationTicks": 61,
          "midi": 67,
          "name": "G4",
          "ticks": 49520,
          "time": 205.12206806250003,
          "velocity": 0.7637795275590551
        },
        {
          "duration": 0.1588537695312482,
          "durationTicks": 61,
          "midi": 65,
          "name": "F4",
          "ticks": 49584,
          "time": 205.28873431250005,
          "velocity": 0.7637795275590551
        },
        {
          "duration": 0.1588537695312482,
          "durationTicks": 61,
          "midi": 64,
          "name": "E4",
          "ticks": 49648,
          "time": 205.45540056250005,
          "velocity": 0.7637795275590551
        },
        {
          "duration": 0.6354150781250212,
          "durationTicks": 244,
          "midi": 65,
          "name": "F4",
          "ticks": 49712,
          "time": 205.62206681250004,
          "velocity": 0.7637795275590551
        },
        {
          "duration": 0.651040039062508,
          "durationTicks": 250,
          "midi": 74,
          "name": "D5",
          "ticks": 49840,
          "time": 205.95539931250005,
          "velocity": 0.7637795275590551
        },
        {
          "duration": 0.6354150781250212,
          "durationTicks": 244,
          "midi": 64,
          "name": "E4",
          "ticks": 49968,
          "time": 206.28873181250003,
          "velocity": 0.7637795275590551
        },
        {
          "duration": 0.3177075390624964,
          "durationTicks": 122,
          "midi": 73,
          "name": "C#5",
          "ticks": 50096,
          "time": 206.62206431250004,
          "velocity": 0.7637795275590551
        },
        {
          "duration": 0.6354150781249928,
          "durationTicks": 244,
          "midi": 72,
          "name": "C5",
          "ticks": 50224,
          "time": 206.95539681250006,
          "velocity": 0.7637795275590551
        },
        {
          "duration": 0.3177075390624964,
          "durationTicks": 122,
          "midi": 62,
          "name": "D4",
          "ticks": 50224,
          "time": 206.95539681250006,
          "velocity": 0.7637795275590551
        },
        {
          "duration": 0.651040039062508,
          "durationTicks": 250,
          "midi": 69,
          "name": "A4",
          "ticks": 50352,
          "time": 207.28872931250004,
          "velocity": 0.7637795275590551
        },
        {
          "duration": 0.6354150781249928,
          "durationTicks": 244,
          "midi": 70,
          "name": "A#4",
          "ticks": 50480,
          "time": 207.62206181250005,
          "velocity": 0.7637795275590551
        },
        {
          "duration": 0.9687475781249759,
          "durationTicks": 372,
          "midi": 67,
          "name": "G4",
          "ticks": 50608,
          "time": 207.95539431250006,
          "velocity": 0.7637795275590551
        },
        {
          "duration": 0.6354150781249928,
          "durationTicks": 244,
          "midi": 69,
          "name": "A4",
          "ticks": 50736,
          "time": 208.28872681250004,
          "velocity": 0.7637795275590551
        },
        {
          "duration": 0.6354150781250212,
          "durationTicks": 244,
          "midi": 69,
          "name": "A4",
          "ticks": 50992,
          "time": 208.95539181250004,
          "velocity": 0.7637795275590551
        },
        {
          "duration": 0.6354150781250212,
          "durationTicks": 244,
          "midi": 66,
          "name": "F#4",
          "ticks": 50992,
          "time": 208.95539181250004,
          "velocity": 0.7637795275590551
        },
        {
          "duration": 0.6354150781250212,
          "durationTicks": 244,
          "midi": 67,
          "name": "G4",
          "ticks": 51248,
          "time": 209.62205681250003,
          "velocity": 0.7637795275590551
        },
        {
          "duration": 0.6354150781250212,
          "durationTicks": 244,
          "midi": 65,
          "name": "F4",
          "ticks": 51248,
          "time": 209.62205681250003,
          "velocity": 0.7637795275590551
        },
        {
          "duration": 0.6354150781249928,
          "durationTicks": 244,
          "midi": 67,
          "name": "G4",
          "ticks": 51504,
          "time": 210.28872181250006,
          "velocity": 0.7637795275590551
        },
        {
          "duration": 0.9843725390624911,
          "durationTicks": 378,
          "midi": 63,
          "name": "D#4",
          "ticks": 51504,
          "time": 210.28872181250006,
          "velocity": 0.7637795275590551
        },
        {
          "duration": 0.3177075390624964,
          "durationTicks": 122,
          "midi": 66,
          "name": "F#4",
          "ticks": 51760,
          "time": 210.95538681250005,
          "velocity": 0.7637795275590551
        },
        {
          "duration": 0.6354150781249928,
          "durationTicks": 244,
          "midi": 69,
          "name": "A4",
          "ticks": 51888,
          "time": 211.28871931250006,
          "velocity": 0.7637795275590551
        },
        {
          "duration": 0.3177075390624964,
          "durationTicks": 122,
          "midi": 62,
          "name": "D4",
          "ticks": 51888,
          "time": 211.28871931250006,
          "velocity": 0.7637795275590551
        },
        {
          "duration": 0.3177075390624964,
          "durationTicks": 122,
          "midi": 66,
          "name": "F#4",
          "ticks": 52016,
          "time": 211.62205181250005,
          "velocity": 0.7637795275590551
        },
        {
          "duration": 0.3177075390624964,
          "durationTicks": 122,
          "midi": 75,
          "name": "D#5",
          "ticks": 52144,
          "time": 211.95538431250006,
          "velocity": 0.7637795275590551
        },
        {
          "duration": 0.6510400390624795,
          "durationTicks": 250,
          "midi": 72,
          "name": "C5",
          "ticks": 52144,
          "time": 211.95538431250006,
          "velocity": 0.7637795275590551
        },
        {
          "duration": 0.6354150781250212,
          "durationTicks": 244,
          "midi": 74,
          "name": "D5",
          "ticks": 52272,
          "time": 212.28871681250004,
          "velocity": 0.7637795275590551
        },
        {
          "duration": 0.1588537695312482,
          "durationTicks": 61,
          "midi": 70,
          "name": "A#4",
          "ticks": 52400,
          "time": 212.62204931250005,
          "velocity": 0.7637795275590551
        },
        {
          "duration": 0.1588537695312482,
          "durationTicks": 61,
          "midi": 69,
          "name": "A4",
          "ticks": 52464,
          "time": 212.78871556250004,
          "velocity": 0.7637795275590551
        },
        {
          "duration": 0.3177075390624964,
          "durationTicks": 122,
          "midi": 70,
          "name": "A#4",
          "ticks": 52528,
          "time": 212.95538181250004,
          "velocity": 0.7637795275590551
        },
        {
          "duration": 0.651040039062508,
          "durationTicks": 250,
          "midi": 79,
          "name": "G5",
          "ticks": 52656,
          "time": 213.28871431250005,
          "velocity": 0.7637795275590551
        },
        {
          "duration": 0.3177075390624964,
          "durationTicks": 122,
          "midi": 70,
          "name": "A#4",
          "ticks": 52656,
          "time": 213.28871431250005,
          "velocity": 0.7637795275590551
        },
        {
          "duration": 0.6354150781249928,
          "durationTicks": 244,
          "midi": 69,
          "name": "A4",
          "ticks": 52784,
          "time": 213.62204681250006,
          "velocity": 0.7637795275590551
        },
        {
          "duration": 0.3177075390624964,
          "durationTicks": 122,
          "midi": 78,
          "name": "F#5",
          "ticks": 52912,
          "time": 213.95537931250004,
          "velocity": 0.7637795275590551
        },
        {
          "duration": 0.6354150781249928,
          "durationTicks": 244,
          "midi": 79,
          "name": "G5",
          "ticks": 53040,
          "time": 214.28871181250005,
          "velocity": 0.7637795275590551
        },
        {
          "duration": 0.3177075390624964,
          "durationTicks": 122,
          "midi": 74,
          "name": "D5",
          "ticks": 53040,
          "time": 214.28871181250005,
          "velocity": 0.7637795275590551
        },
        {
          "duration": 0.3177075390624964,
          "durationTicks": 122,
          "midi": 72,
          "name": "C5",
          "ticks": 53168,
          "time": 214.62204431250007,
          "velocity": 0.7637795275590551
        },
        {
          "duration": 0.3177075390624964,
          "durationTicks": 122,
          "midi": 70,
          "name": "A#4",
          "ticks": 53296,
          "time": 214.95537681250005,
          "velocity": 0.7637795275590551
        },
        {
          "duration": 0.3177075390625248,
          "durationTicks": 122,
          "midi": 74,
          "name": "D5",
          "ticks": 53424,
          "time": 215.28870931250003,
          "velocity": 0.7637795275590551
        },
        {
          "duration": 0.3177075390625248,
          "durationTicks": 122,
          "midi": 69,
          "name": "A4",
          "ticks": 53424,
          "time": 215.28870931250003,
          "velocity": 0.7637795275590551
        },
        {
          "duration": 0.3177075390624964,
          "durationTicks": 122,
          "midi": 74,
          "name": "D5",
          "ticks": 53552,
          "time": 215.62204181250004,
          "velocity": 0.7637795275590551
        },
        {
          "duration": 0.3177075390624964,
          "durationTicks": 122,
          "midi": 70,
          "name": "A#4",
          "ticks": 53552,
          "time": 215.62204181250004,
          "velocity": 0.7637795275590551
        },
        {
          "duration": 0.3177075390624964,
          "durationTicks": 122,
          "midi": 74,
          "name": "D5",
          "ticks": 53680,
          "time": 215.95537431250006,
          "velocity": 0.7637795275590551
        },
        {
          "duration": 0.3177075390624964,
          "durationTicks": 122,
          "midi": 66,
          "name": "F#4",
          "ticks": 53680,
          "time": 215.95537431250006,
          "velocity": 0.7637795275590551
        },
        {
          "duration": 0.3177075390624964,
          "durationTicks": 122,
          "midi": 74,
          "name": "D5",
          "ticks": 53808,
          "time": 216.28870681250004,
          "velocity": 0.7637795275590551
        },
        {
          "duration": 0.3177075390624964,
          "durationTicks": 122,
          "midi": 67,
          "name": "G4",
          "ticks": 53808,
          "time": 216.28870681250004,
          "velocity": 0.7637795275590551
        },
        {
          "duration": 0.3177075390624964,
          "durationTicks": 122,
          "midi": 74,
          "name": "D5",
          "ticks": 53936,
          "time": 216.62203931250005,
          "velocity": 0.7637795275590551
        },
        {
          "duration": 0.3177075390624964,
          "durationTicks": 122,
          "midi": 66,
          "name": "F#4",
          "ticks": 53936,
          "time": 216.62203931250005,
          "velocity": 0.7637795275590551
        },
        {
          "duration": 0.3177075390624964,
          "durationTicks": 122,
          "midi": 74,
          "name": "D5",
          "ticks": 54064,
          "time": 216.95537181250006,
          "velocity": 0.7637795275590551
        },
        {
          "duration": 0.3177075390624964,
          "durationTicks": 122,
          "midi": 67,
          "name": "G4",
          "ticks": 54064,
          "time": 216.95537181250006,
          "velocity": 0.7637795275590551
        },
        {
          "duration": 0.3177075390624964,
          "durationTicks": 122,
          "midi": 74,
          "name": "D5",
          "ticks": 54192,
          "time": 217.28870431250004,
          "velocity": 0.7637795275590551
        },
        {
          "duration": 0.3177075390624964,
          "durationTicks": 122,
          "midi": 69,
          "name": "A4",
          "ticks": 54192,
          "time": 217.28870431250004,
          "velocity": 0.7637795275590551
        },
        {
          "duration": 0.3177075390624964,
          "durationTicks": 122,
          "midi": 74,
          "name": "D5",
          "ticks": 54320,
          "time": 217.62203681250006,
          "velocity": 0.7637795275590551
        },
        {
          "duration": 0.3177075390624964,
          "durationTicks": 122,
          "midi": 70,
          "name": "A#4",
          "ticks": 54320,
          "time": 217.62203681250006,
          "velocity": 0.7637795275590551
        },
        {
          "duration": 0.3177075390625248,
          "durationTicks": 122,
          "midi": 74,
          "name": "D5",
          "ticks": 54448,
          "time": 217.95536931250004,
          "velocity": 0.7637795275590551
        },
        {
          "duration": 0.3177075390625248,
          "durationTicks": 122,
          "midi": 69,
          "name": "A4",
          "ticks": 54448,
          "time": 217.95536931250004,
          "velocity": 0.7637795275590551
        },
        {
          "duration": 0.3177075390624964,
          "durationTicks": 122,
          "midi": 74,
          "name": "D5",
          "ticks": 54576,
          "time": 218.28870181250005,
          "velocity": 0.7637795275590551
        },
        {
          "duration": 0.3177075390624964,
          "durationTicks": 122,
          "midi": 70,
          "name": "A#4",
          "ticks": 54576,
          "time": 218.28870181250005,
          "velocity": 0.7637795275590551
        },
        {
          "duration": 0.3177075390625248,
          "durationTicks": 122,
          "midi": 74,
          "name": "D5",
          "ticks": 54704,
          "time": 218.62203431250003,
          "velocity": 0.7637795275590551
        },
        {
          "duration": 0.3177075390625248,
          "durationTicks": 122,
          "midi": 66,
          "name": "F#4",
          "ticks": 54704,
          "time": 218.62203431250003,
          "velocity": 0.7637795275590551
        },
        {
          "duration": 0.1588537695312482,
          "durationTicks": 61,
          "midi": 74,
          "name": "D5",
          "ticks": 54832,
          "time": 218.95536681250005,
          "velocity": 0.7637795275590551
        },
        {
          "duration": 0.1588537695312482,
          "durationTicks": 61,
          "midi": 67,
          "name": "G4",
          "ticks": 54832,
          "time": 218.95536681250005,
          "velocity": 0.7637795275590551
        },
        {
          "duration": 0.15885376953121977,
          "durationTicks": 61,
          "midi": 79,
          "name": "G5",
          "ticks": 54896,
          "time": 219.12203306250007,
          "velocity": 0.7637795275590551
        },
        {
          "duration": 0.15885376953121977,
          "durationTicks": 61,
          "midi": 70,
          "name": "A#4",
          "ticks": 54896,
          "time": 219.12203306250007,
          "velocity": 0.7637795275590551
        },
        {
          "duration": 0.1588537695312482,
          "durationTicks": 61,
          "midi": 77,
          "name": "F5",
          "ticks": 54960,
          "time": 219.28869931250006,
          "velocity": 0.7637795275590551
        },
        {
          "duration": 0.1588537695312482,
          "durationTicks": 61,
          "midi": 69,
          "name": "A4",
          "ticks": 54960,
          "time": 219.28869931250006,
          "velocity": 0.7637795275590551
        },
        {
          "duration": 0.1588537695312482,
          "durationTicks": 61,
          "midi": 79,
          "name": "G5",
          "ticks": 55024,
          "time": 219.45536556250005,
          "velocity": 0.7637795275590551
        },
        {
          "duration": 0.1588537695312482,
          "durationTicks": 61,
          "midi": 70,
          "name": "A#4",
          "ticks": 55024,
          "time": 219.45536556250005,
          "velocity": 0.7637795275590551
        },
        {
          "duration": 0.1588537695312482,
          "durationTicks": 61,
          "midi": 76,
          "name": "E5",
          "ticks": 55088,
          "time": 219.62203181250004,
          "velocity": 0.7637795275590551
        },
        {
          "duration": 0.1588537695312482,
          "durationTicks": 61,
          "midi": 67,
          "name": "G4",
          "ticks": 55088,
          "time": 219.62203181250004,
          "velocity": 0.7637795275590551
        },
        {
          "duration": 0.1588537695312766,
          "durationTicks": 61,
          "midi": 77,
          "name": "F5",
          "ticks": 55152,
          "time": 219.78869806250003,
          "velocity": 0.7637795275590551
        },
        {
          "duration": 0.1588537695312766,
          "durationTicks": 61,
          "midi": 69,
          "name": "A4",
          "ticks": 55152,
          "time": 219.78869806250003,
          "velocity": 0.7637795275590551
        },
        {
          "duration": 0.1588537695312482,
          "durationTicks": 61,
          "midi": 74,
          "name": "D5",
          "ticks": 55216,
          "time": 219.95536431250005,
          "velocity": 0.7637795275590551
        },
        {
          "duration": 0.1588537695312482,
          "durationTicks": 61,
          "midi": 65,
          "name": "F4",
          "ticks": 55216,
          "time": 219.95536431250005,
          "velocity": 0.7637795275590551
        },
        {
          "duration": 0.1588537695312482,
          "durationTicks": 61,
          "midi": 76,
          "name": "E5",
          "ticks": 55280,
          "time": 220.12203056250004,
          "velocity": 0.7637795275590551
        },
        {
          "duration": 0.1588537695312482,
          "durationTicks": 61,
          "midi": 67,
          "name": "G4",
          "ticks": 55280,
          "time": 220.12203056250004,
          "velocity": 0.7637795275590551
        },
        {
          "duration": 0.15885376953121977,
          "durationTicks": 61,
          "midi": 72,
          "name": "C5",
          "ticks": 55344,
          "time": 220.28869681250006,
          "velocity": 0.7637795275590551
        },
        {
          "duration": 0.15885376953121977,
          "durationTicks": 61,
          "midi": 64,
          "name": "E4",
          "ticks": 55344,
          "time": 220.28869681250006,
          "velocity": 0.7637795275590551
        },
        {
          "duration": 0.1588537695312482,
          "durationTicks": 61,
          "midi": 81,
          "name": "A5",
          "ticks": 55408,
          "time": 220.45536306250006,
          "velocity": 0.7637795275590551
        },
        {
          "duration": 0.1588537695312482,
          "durationTicks": 61,
          "midi": 72,
          "name": "C5",
          "ticks": 55408,
          "time": 220.45536306250006,
          "velocity": 0.7637795275590551
        },
        {
          "duration": 0.1588537695312482,
          "durationTicks": 61,
          "midi": 79,
          "name": "G5",
          "ticks": 55472,
          "time": 220.62202931250005,
          "velocity": 0.7637795275590551
        },
        {
          "duration": 0.1588537695312482,
          "durationTicks": 61,
          "midi": 70,
          "name": "A#4",
          "ticks": 55472,
          "time": 220.62202931250005,
          "velocity": 0.7637795275590551
        },
        {
          "duration": 0.1588537695312766,
          "durationTicks": 61,
          "midi": 81,
          "name": "A5",
          "ticks": 55536,
          "time": 220.78869556250004,
          "velocity": 0.7637795275590551
        },
        {
          "duration": 0.1588537695312766,
          "durationTicks": 61,
          "midi": 72,
          "name": "C5",
          "ticks": 55536,
          "time": 220.78869556250004,
          "velocity": 0.7637795275590551
        },
        {
          "duration": 0.1588537695312766,
          "durationTicks": 61,
          "midi": 77,
          "name": "F5",
          "ticks": 55600,
          "time": 220.95536181250003,
          "velocity": 0.7637795275590551
        },
        {
          "duration": 0.1588537695312766,
          "durationTicks": 61,
          "midi": 69,
          "name": "A4",
          "ticks": 55600,
          "time": 220.95536181250003,
          "velocity": 0.7637795275590551
        },
        {
          "duration": 0.1588537695312482,
          "durationTicks": 61,
          "midi": 79,
          "name": "G5",
          "ticks": 55664,
          "time": 221.12202806250005,
          "velocity": 0.7637795275590551
        },
        {
          "duration": 0.1588537695312482,
          "durationTicks": 61,
          "midi": 70,
          "name": "A#4",
          "ticks": 55664,
          "time": 221.12202806250005,
          "velocity": 0.7637795275590551
        },
        {
          "duration": 0.15885376953121977,
          "durationTicks": 61,
          "midi": 76,
          "name": "E5",
          "ticks": 55728,
          "time": 221.28869431250007,
          "velocity": 0.7637795275590551
        },
        {
          "duration": 0.15885376953121977,
          "durationTicks": 61,
          "midi": 67,
          "name": "G4",
          "ticks": 55728,
          "time": 221.28869431250007,
          "velocity": 0.7637795275590551
        },
        {
          "duration": 0.15885376953121977,
          "durationTicks": 61,
          "midi": 77,
          "name": "F5",
          "ticks": 55792,
          "time": 221.45536056250006,
          "velocity": 0.7637795275590551
        },
        {
          "duration": 0.15885376953121977,
          "durationTicks": 61,
          "midi": 69,
          "name": "A4",
          "ticks": 55792,
          "time": 221.45536056250006,
          "velocity": 0.7637795275590551
        },
        {
          "duration": 0.1588537695312482,
          "durationTicks": 61,
          "midi": 74,
          "name": "D5",
          "ticks": 55856,
          "time": 221.62202681250005,
          "velocity": 0.7637795275590551
        },
        {
          "duration": 0.1588537695312482,
          "durationTicks": 61,
          "midi": 65,
          "name": "F4",
          "ticks": 55856,
          "time": 221.62202681250005,
          "velocity": 0.7637795275590551
        },
        {
          "duration": 0.1588537695312482,
          "durationTicks": 61,
          "midi": 82,
          "name": "A#5",
          "ticks": 55920,
          "time": 221.78869306250004,
          "velocity": 0.7637795275590551
        },
        {
          "duration": 0.1588537695312482,
          "durationTicks": 61,
          "midi": 74,
          "name": "D5",
          "ticks": 55920,
          "time": 221.78869306250004,
          "velocity": 0.7637795275590551
        },
        {
          "duration": 0.1588537695312766,
          "durationTicks": 61,
          "midi": 81,
          "name": "A5",
          "ticks": 55984,
          "time": 221.95535931250004,
          "velocity": 0.7637795275590551
        },
        {
          "duration": 0.1588537695312766,
          "durationTicks": 61,
          "midi": 72,
          "name": "C5",
          "ticks": 55984,
          "time": 221.95535931250004,
          "velocity": 0.7637795275590551
        },
        {
          "duration": 0.1588537695312766,
          "durationTicks": 61,
          "midi": 82,
          "name": "A#5",
          "ticks": 56048,
          "time": 222.12202556250003,
          "velocity": 0.7637795275590551
        },
        {
          "duration": 0.1588537695312766,
          "durationTicks": 61,
          "midi": 74,
          "name": "D5",
          "ticks": 56048,
          "time": 222.12202556250003,
          "velocity": 0.7637795275590551
        },
        {
          "duration": 0.1588537695312482,
          "durationTicks": 61,
          "midi": 79,
          "name": "G5",
          "ticks": 56112,
          "time": 222.28869181250005,
          "velocity": 0.7637795275590551
        },
        {
          "duration": 0.1588537695312482,
          "durationTicks": 61,
          "midi": 70,
          "name": "A#4",
          "ticks": 56112,
          "time": 222.28869181250005,
          "velocity": 0.7637795275590551
        },
        {
          "duration": 0.15885376953121977,
          "durationTicks": 61,
          "midi": 81,
          "name": "A5",
          "ticks": 56176,
          "time": 222.45535806250007,
          "velocity": 0.7637795275590551
        },
        {
          "duration": 0.15885376953121977,
          "durationTicks": 61,
          "midi": 72,
          "name": "C5",
          "ticks": 56176,
          "time": 222.45535806250007,
          "velocity": 0.7637795275590551
        },
        {
          "duration": 0.15885376953121977,
          "durationTicks": 61,
          "midi": 77,
          "name": "F5",
          "ticks": 56240,
          "time": 222.62202431250006,
          "velocity": 0.7637795275590551
        },
        {
          "duration": 0.15885376953121977,
          "durationTicks": 61,
          "midi": 69,
          "name": "A4",
          "ticks": 56240,
          "time": 222.62202431250006,
          "velocity": 0.7637795275590551
        },
        {
          "duration": 0.1588537695312482,
          "durationTicks": 61,
          "midi": 79,
          "name": "G5",
          "ticks": 56304,
          "time": 222.78869056250005,
          "velocity": 0.7637795275590551
        },
        {
          "duration": 0.1588537695312482,
          "durationTicks": 61,
          "midi": 70,
          "name": "A#4",
          "ticks": 56304,
          "time": 222.78869056250005,
          "velocity": 0.7637795275590551
        },
        {
          "duration": 0.1588537695312766,
          "durationTicks": 61,
          "midi": 76,
          "name": "E5",
          "ticks": 56368,
          "time": 222.95535681250004,
          "velocity": 0.7637795275590551
        },
        {
          "duration": 0.1588537695312766,
          "durationTicks": 61,
          "midi": 67,
          "name": "G4",
          "ticks": 56368,
          "time": 222.95535681250004,
          "velocity": 0.7637795275590551
        },
        {
          "duration": 0.1588537695312766,
          "durationTicks": 61,
          "midi": 84,
          "name": "C6",
          "ticks": 56432,
          "time": 223.12202306250003,
          "velocity": 0.7637795275590551
        },
        {
          "duration": 0.1588537695312766,
          "durationTicks": 61,
          "midi": 76,
          "name": "E5",
          "ticks": 56432,
          "time": 223.12202306250003,
          "velocity": 0.7637795275590551
        },
        {
          "duration": 0.1588537695312482,
          "durationTicks": 61,
          "midi": 82,
          "name": "A#5",
          "ticks": 56496,
          "time": 223.28868931250005,
          "velocity": 0.7637795275590551
        },
        {
          "duration": 0.1588537695312482,
          "durationTicks": 61,
          "midi": 74,
          "name": "D5",
          "ticks": 56496,
          "time": 223.28868931250005,
          "velocity": 0.7637795275590551
        },
        {
          "duration": 0.1588537695312482,
          "durationTicks": 61,
          "midi": 84,
          "name": "C6",
          "ticks": 56560,
          "time": 223.45535556250005,
          "velocity": 0.7637795275590551
        },
        {
          "duration": 0.1588537695312482,
          "durationTicks": 61,
          "midi": 76,
          "name": "E5",
          "ticks": 56560,
          "time": 223.45535556250005,
          "velocity": 0.7637795275590551
        },
        {
          "duration": 0.15885376953121977,
          "durationTicks": 61,
          "midi": 81,
          "name": "A5",
          "ticks": 56624,
          "time": 223.62202181250007,
          "velocity": 0.7637795275590551
        },
        {
          "duration": 0.15885376953121977,
          "durationTicks": 61,
          "midi": 72,
          "name": "C5",
          "ticks": 56624,
          "time": 223.62202181250007,
          "velocity": 0.7637795275590551
        },
        {
          "duration": 0.1588537695312482,
          "durationTicks": 61,
          "midi": 82,
          "name": "A#5",
          "ticks": 56688,
          "time": 223.78868806250006,
          "velocity": 0.7637795275590551
        },
        {
          "duration": 0.1588537695312482,
          "durationTicks": 61,
          "midi": 74,
          "name": "D5",
          "ticks": 56688,
          "time": 223.78868806250006,
          "velocity": 0.7637795275590551
        },
        {
          "duration": 0.1588537695312482,
          "durationTicks": 61,
          "midi": 79,
          "name": "G5",
          "ticks": 56752,
          "time": 223.95535431250005,
          "velocity": 0.7637795275590551
        },
        {
          "duration": 0.1588537695312482,
          "durationTicks": 61,
          "midi": 70,
          "name": "A#4",
          "ticks": 56752,
          "time": 223.95535431250005,
          "velocity": 0.7637795275590551
        },
        {
          "duration": 0.1588537695312766,
          "durationTicks": 61,
          "midi": 81,
          "name": "A5",
          "ticks": 56816,
          "time": 224.12202056250004,
          "velocity": 0.7637795275590551
        },
        {
          "duration": 0.1588537695312766,
          "durationTicks": 61,
          "midi": 72,
          "name": "C5",
          "ticks": 56816,
          "time": 224.12202056250004,
          "velocity": 0.7637795275590551
        },
        {
          "duration": 0.1588537695312766,
          "durationTicks": 61,
          "midi": 77,
          "name": "F5",
          "ticks": 56880,
          "time": 224.28868681250003,
          "velocity": 0.7637795275590551
        },
        {
          "duration": 0.3177075390624964,
          "durationTicks": 122,
          "midi": 69,
          "name": "A4",
          "ticks": 56880,
          "time": 224.28868681250003,
          "velocity": 0.7637795275590551
        },
        {
          "duration": 0.1588537695312482,
          "durationTicks": 61,
          "midi": 75,
          "name": "D#5",
          "ticks": 56944,
          "time": 224.45535306250005,
          "velocity": 0.7637795275590551
        },
        {
          "duration": 0.1588537695312482,
          "durationTicks": 61,
          "midi": 74,
          "name": "D5",
          "ticks": 57008,
          "time": 224.62201931250004,
          "velocity": 0.7637795275590551
        },
        {
          "duration": 0.3177075390625248,
          "durationTicks": 122,
          "midi": 65,
          "name": "F4",
          "ticks": 57008,
          "time": 224.62201931250004,
          "velocity": 0.7637795275590551
        },
        {
          "duration": 0.15885376953121977,
          "durationTicks": 61,
          "midi": 72,
          "name": "C5",
          "ticks": 57072,
          "time": 224.78868556250006,
          "velocity": 0.7637795275590551
        },
        {
          "duration": 0.1588537695312482,
          "durationTicks": 61,
          "midi": 74,
          "name": "D5",
          "ticks": 57136,
          "time": 224.95535181250006,
          "velocity": 0.7637795275590551
        },
        {
          "duration": 0.1588537695312482,
          "durationTicks": 61,
          "midi": 70,
          "name": "A#4",
          "ticks": 57136,
          "time": 224.95535181250006,
          "velocity": 0.7637795275590551
        },
        {
          "duration": 0.1588537695312482,
          "durationTicks": 61,
          "midi": 72,
          "name": "C5",
          "ticks": 57200,
          "time": 225.12201806250005,
          "velocity": 0.7637795275590551
        },
        {
          "duration": 0.1588537695312482,
          "durationTicks": 61,
          "midi": 69,
          "name": "A4",
          "ticks": 57200,
          "time": 225.12201806250005,
          "velocity": 0.7637795275590551
        },
        {
          "duration": 0.1588537695312766,
          "durationTicks": 61,
          "midi": 70,
          "name": "A#4",
          "ticks": 57264,
          "time": 225.28868431250004,
          "velocity": 0.7637795275590551
        },
        {
          "duration": 0.1588537695312766,
          "durationTicks": 61,
          "midi": 67,
          "name": "G4",
          "ticks": 57264,
          "time": 225.28868431250004,
          "velocity": 0.7637795275590551
        },
        {
          "duration": 0.1588537695312766,
          "durationTicks": 61,
          "midi": 69,
          "name": "A4",
          "ticks": 57328,
          "time": 225.45535056250003,
          "velocity": 0.7637795275590551
        },
        {
          "duration": 0.1588537695312766,
          "durationTicks": 61,
          "midi": 65,
          "name": "F4",
          "ticks": 57328,
          "time": 225.45535056250003,
          "velocity": 0.7637795275590551
        },
        {
          "duration": 0.1588537695312482,
          "durationTicks": 61,
          "midi": 70,
          "name": "A#4",
          "ticks": 57392,
          "time": 225.62201681250005,
          "velocity": 0.7637795275590551
        },
        {
          "duration": 0.1588537695312482,
          "durationTicks": 61,
          "midi": 67,
          "name": "G4",
          "ticks": 57392,
          "time": 225.62201681250005,
          "velocity": 0.7637795275590551
        },
        {
          "duration": 0.15885376953121977,
          "durationTicks": 61,
          "midi": 74,
          "name": "D5",
          "ticks": 57456,
          "time": 225.78868306250007,
          "velocity": 0.7637795275590551
        },
        {
          "duration": 0.15885376953121977,
          "durationTicks": 61,
          "midi": 70,
          "name": "A#4",
          "ticks": 57456,
          "time": 225.78868306250007,
          "velocity": 0.7637795275590551
        },
        {
          "duration": 0.15885376953121977,
          "durationTicks": 61,
          "midi": 70,
          "name": "A#4",
          "ticks": 57520,
          "time": 225.95534931250006,
          "velocity": 0.7637795275590551
        },
        {
          "duration": 0.15885376953121977,
          "durationTicks": 61,
          "midi": 67,
          "name": "G4",
          "ticks": 57520,
          "time": 225.95534931250006,
          "velocity": 0.7637795275590551
        },
        {
          "duration": 0.1588537695312482,
          "durationTicks": 61,
          "midi": 69,
          "name": "A4",
          "ticks": 57584,
          "time": 226.12201556250005,
          "velocity": 0.7637795275590551
        },
        {
          "duration": 0.1588537695312482,
          "durationTicks": 61,
          "midi": 65,
          "name": "F4",
          "ticks": 57584,
          "time": 226.12201556250005,
          "velocity": 0.7637795275590551
        },
        {
          "duration": 0.1588537695312482,
          "durationTicks": 61,
          "midi": 67,
          "name": "G4",
          "ticks": 57648,
          "time": 226.28868181250004,
          "velocity": 0.7637795275590551
        },
        {
          "duration": 0.1588537695312482,
          "durationTicks": 61,
          "midi": 64,
          "name": "E4",
          "ticks": 57648,
          "time": 226.28868181250004,
          "velocity": 0.7637795275590551
        },
        {
          "duration": 0.1588537695312766,
          "durationTicks": 61,
          "midi": 70,
          "name": "A#4",
          "ticks": 57712,
          "time": 226.45534806250004,
          "velocity": 0.7637795275590551
        },
        {
          "duration": 0.1588537695312766,
          "durationTicks": 61,
          "midi": 67,
          "name": "G4",
          "ticks": 57712,
          "time": 226.45534806250004,
          "velocity": 0.7637795275590551
        },
        {
          "duration": 0.1588537695312482,
          "durationTicks": 61,
          "midi": 67,
          "name": "G4",
          "ticks": 57776,
          "time": 226.62201431250006,
          "velocity": 0.7637795275590551
        },
        {
          "duration": 0.1588537695312482,
          "durationTicks": 61,
          "midi": 64,
          "name": "E4",
          "ticks": 57776,
          "time": 226.62201431250006,
          "velocity": 0.7637795275590551
        },
        {
          "duration": 0.1588537695312482,
          "durationTicks": 61,
          "midi": 65,
          "name": "F4",
          "ticks": 57840,
          "time": 226.78868056250005,
          "velocity": 0.7637795275590551
        },
        {
          "duration": 0.1588537695312482,
          "durationTicks": 61,
          "midi": 62,
          "name": "D4",
          "ticks": 57840,
          "time": 226.78868056250005,
          "velocity": 0.7637795275590551
        },
        {
          "duration": 0.15885376953121977,
          "durationTicks": 61,
          "midi": 64,
          "name": "E4",
          "ticks": 57904,
          "time": 226.95534681250007,
          "velocity": 0.7637795275590551
        },
        {
          "duration": 0.15885376953121977,
          "durationTicks": 61,
          "midi": 60,
          "name": "C4",
          "ticks": 57904,
          "time": 226.95534681250007,
          "velocity": 0.7637795275590551
        },
        {
          "duration": 0.15885376953121977,
          "durationTicks": 61,
          "midi": 65,
          "name": "F4",
          "ticks": 57968,
          "time": 227.12201306250006,
          "velocity": 0.7637795275590551
        },
        {
          "duration": 0.15885376953121977,
          "durationTicks": 61,
          "midi": 62,
          "name": "D4",
          "ticks": 57968,
          "time": 227.12201306250006,
          "velocity": 0.7637795275590551
        },
        {
          "duration": 0.1588537695312482,
          "durationTicks": 61,
          "midi": 67,
          "name": "G4",
          "ticks": 58032,
          "time": 227.28867931250005,
          "velocity": 0.7637795275590551
        },
        {
          "duration": 0.1588537695312482,
          "durationTicks": 61,
          "midi": 64,
          "name": "E4",
          "ticks": 58032,
          "time": 227.28867931250005,
          "velocity": 0.7637795275590551
        },
        {
          "duration": 0.1588537695312766,
          "durationTicks": 61,
          "midi": 69,
          "name": "A4",
          "ticks": 58096,
          "time": 227.45534556250004,
          "velocity": 0.7637795275590551
        },
        {
          "duration": 0.1588537695312766,
          "durationTicks": 61,
          "midi": 65,
          "name": "F4",
          "ticks": 58096,
          "time": 227.45534556250004,
          "velocity": 0.7637795275590551
        },
        {
          "duration": 0.1588537695312766,
          "durationTicks": 61,
          "midi": 70,
          "name": "A#4",
          "ticks": 58160,
          "time": 227.62201181250003,
          "velocity": 0.7637795275590551
        },
        {
          "duration": 0.3177075390624964,
          "durationTicks": 122,
          "midi": 67,
          "name": "G4",
          "ticks": 58160,
          "time": 227.62201181250003,
          "velocity": 0.7637795275590551
        },
        {
          "duration": 0.1588537695312482,
          "durationTicks": 61,
          "midi": 74,
          "name": "D5",
          "ticks": 58224,
          "time": 227.78867806250005,
          "velocity": 0.7637795275590551
        },
        {
          "duration": 0.1588537695312482,
          "durationTicks": 61,
          "midi": 72,
          "name": "C5",
          "ticks": 58288,
          "time": 227.95534431250005,
          "velocity": 0.7637795275590551
        },
        {
          "duration": 0.3177075390625248,
          "durationTicks": 122,
          "midi": 64,
          "name": "E4",
          "ticks": 58288,
          "time": 227.95534431250005,
          "velocity": 0.7637795275590551
        },
        {
          "duration": 0.15885376953121977,
          "durationTicks": 61,
          "midi": 70,
          "name": "A#4",
          "ticks": 58352,
          "time": 228.12201056250007,
          "velocity": 0.7637795275590551
        },
        {
          "duration": 0.6354150781249928,
          "durationTicks": 244,
          "midi": 69,
          "name": "A4",
          "ticks": 58416,
          "time": 228.28867681250006,
          "velocity": 0.7637795275590551
        },
        {
          "duration": 0.6354150781249928,
          "durationTicks": 244,
          "midi": 65,
          "name": "F4",
          "ticks": 58416,
          "time": 228.28867681250006,
          "velocity": 0.7637795275590551
        },
        {
          "duration": 0.3177075390624964,
          "durationTicks": 122,
          "midi": 72,
          "name": "C5",
          "ticks": 58672,
          "time": 228.95534181250005,
          "velocity": 0.7637795275590551
        },
        {
          "duration": 0.3177075390624964,
          "durationTicks": 122,
          "midi": 70,
          "name": "A#4",
          "ticks": 58800,
          "time": 229.28867431250006,
          "velocity": 0.7637795275590551
        },
        {
          "duration": 0.3177075390624964,
          "durationTicks": 122,
          "midi": 69,
          "name": "A4",
          "ticks": 58928,
          "time": 229.62200681250005,
          "velocity": 0.7637795275590551
        },
        {
          "duration": 0.3177075390625248,
          "durationTicks": 122,
          "midi": 67,
          "name": "G4",
          "ticks": 59056,
          "time": 229.95533931250003,
          "velocity": 0.7637795275590551
        },
        {
          "duration": 0.3177075390624964,
          "durationTicks": 122,
          "midi": 69,
          "name": "A4",
          "ticks": 59184,
          "time": 230.28867181250007,
          "velocity": 0.7637795275590551
        },
        {
          "duration": 0.3177075390624964,
          "durationTicks": 122,
          "midi": 70,
          "name": "A#4",
          "ticks": 59312,
          "time": 230.62200431250005,
          "velocity": 0.7637795275590551
        },
        {
          "duration": 0.3177075390624964,
          "durationTicks": 122,
          "midi": 72,
          "name": "C5",
          "ticks": 59440,
          "time": 230.95533681250004,
          "velocity": 0.7637795275590551
        },
        {
          "duration": 0.3177075390624964,
          "durationTicks": 122,
          "midi": 64,
          "name": "E4",
          "ticks": 59568,
          "time": 231.28866931250005,
          "velocity": 0.7637795275590551
        },
        {
          "duration": 0.3177075390624964,
          "durationTicks": 122,
          "midi": 65,
          "name": "F4",
          "ticks": 59696,
          "time": 231.62200181250006,
          "velocity": 0.7637795275590551
        },
        {
          "duration": 0.3177075390624964,
          "durationTicks": 122,
          "midi": 67,
          "name": "G4",
          "ticks": 59824,
          "time": 231.95533431250004,
          "velocity": 0.7637795275590551
        },
        {
          "duration": 0.3177075390624964,
          "durationTicks": 122,
          "midi": 69,
          "name": "A4",
          "ticks": 59952,
          "time": 232.28866681250005,
          "velocity": 0.7637795275590551
        },
        {
          "duration": 0.3177075390624964,
          "durationTicks": 122,
          "midi": 67,
          "name": "G4",
          "ticks": 60080,
          "time": 232.62199931250007,
          "velocity": 0.7637795275590551
        },
        {
          "duration": 0.3177075390624964,
          "durationTicks": 122,
          "midi": 69,
          "name": "A4",
          "ticks": 60208,
          "time": 232.95533181250005,
          "velocity": 0.7637795275590551
        },
        {
          "duration": 0.3177075390625248,
          "durationTicks": 122,
          "midi": 70,
          "name": "A#4",
          "ticks": 60336,
          "time": 233.28866431250003,
          "velocity": 0.7637795275590551
        },
        {
          "duration": 0.1588537695312482,
          "durationTicks": 61,
          "midi": 72,
          "name": "C5",
          "ticks": 60464,
          "time": 233.62199681250004,
          "velocity": 0.7637795275590551
        },
        {
          "duration": 0.15885376953121977,
          "durationTicks": 61,
          "midi": 70,
          "name": "A#4",
          "ticks": 60528,
          "time": 233.78866306250006,
          "velocity": 0.7637795275590551
        },
        {
          "duration": 0.1588537695312482,
          "durationTicks": 61,
          "midi": 69,
          "name": "A4",
          "ticks": 60592,
          "time": 233.95532931250006,
          "velocity": 0.7637795275590551
        },
        {
          "duration": 0.1588537695312482,
          "durationTicks": 61,
          "midi": 67,
          "name": "G4",
          "ticks": 60656,
          "time": 234.12199556250005,
          "velocity": 0.7637795275590551
        },
        {
          "duration": 0.1588537695312766,
          "durationTicks": 61,
          "midi": 65,
          "name": "F4",
          "ticks": 60720,
          "time": 234.28866181250004,
          "velocity": 0.7637795275590551
        },
        {
          "duration": 0.1588537695312766,
          "durationTicks": 61,
          "midi": 63,
          "name": "D#4",
          "ticks": 60784,
          "time": 234.45532806250003,
          "velocity": 0.7637795275590551
        },
        {
          "duration": 0.1588537695312482,
          "durationTicks": 61,
          "midi": 62,
          "name": "D4",
          "ticks": 60848,
          "time": 234.62199431250005,
          "velocity": 0.7637795275590551
        },
        {
          "duration": 0.15885376953121977,
          "durationTicks": 61,
          "midi": 60,
          "name": "C4",
          "ticks": 60912,
          "time": 234.78866056250007,
          "velocity": 0.7637795275590551
        },
        {
          "duration": 0.15885376953121977,
          "durationTicks": 61,
          "midi": 74,
          "name": "D5",
          "ticks": 60976,
          "time": 234.95532681250006,
          "velocity": 0.7637795275590551
        },
        {
          "duration": 0.3177075390624964,
          "durationTicks": 122,
          "midi": 58,
          "name": "A#3",
          "ticks": 60976,
          "time": 234.95532681250006,
          "velocity": 0.7637795275590551
        },
        {
          "duration": 0.1588537695312482,
          "durationTicks": 61,
          "midi": 72,
          "name": "C5",
          "ticks": 61040,
          "time": 235.12199306250005,
          "velocity": 0.7637795275590551
        },
        {
          "duration": 0.1588537695312766,
          "durationTicks": 61,
          "midi": 70,
          "name": "A#4",
          "ticks": 61104,
          "time": 235.28865931250004,
          "velocity": 0.7637795275590551
        },
        {
          "duration": 0.1588537695312766,
          "durationTicks": 61,
          "midi": 69,
          "name": "A4",
          "ticks": 61168,
          "time": 235.45532556250004,
          "velocity": 0.7637795275590551
        },
        {
          "duration": 0.1588537695312482,
          "durationTicks": 61,
          "midi": 67,
          "name": "G4",
          "ticks": 61232,
          "time": 235.62199181250006,
          "velocity": 0.7637795275590551
        },
        {
          "duration": 0.1588537695312482,
          "durationTicks": 61,
          "midi": 65,
          "name": "F4",
          "ticks": 61296,
          "time": 235.78865806250005,
          "velocity": 0.7637795275590551
        },
        {
          "duration": 0.15885376953121977,
          "durationTicks": 61,
          "midi": 64,
          "name": "E4",
          "ticks": 61360,
          "time": 235.95532431250007,
          "velocity": 0.7637795275590551
        },
        {
          "duration": 0.15885376953121977,
          "durationTicks": 61,
          "midi": 62,
          "name": "D4",
          "ticks": 61424,
          "time": 236.12199056250006,
          "velocity": 0.7637795275590551
        },
        {
          "duration": 0.1588537695312482,
          "durationTicks": 61,
          "midi": 76,
          "name": "E5",
          "ticks": 61488,
          "time": 236.28865681250005,
          "velocity": 0.7637795275590551
        },
        {
          "duration": 0.3177075390624964,
          "durationTicks": 122,
          "midi": 60,
          "name": "C4",
          "ticks": 61488,
          "time": 236.28865681250005,
          "velocity": 0.7637795275590551
        },
        {
          "duration": 0.1588537695312766,
          "durationTicks": 61,
          "midi": 74,
          "name": "D5",
          "ticks": 61552,
          "time": 236.45532306250004,
          "velocity": 0.7637795275590551
        },
        {
          "duration": 0.1588537695312766,
          "durationTicks": 61,
          "midi": 72,
          "name": "C5",
          "ticks": 61616,
          "time": 236.62198931250003,
          "velocity": 0.7637795275590551
        },
        {
          "duration": 0.1588537695312482,
          "durationTicks": 61,
          "midi": 70,
          "name": "A#4",
          "ticks": 61680,
          "time": 236.78865556250005,
          "velocity": 0.7637795275590551
        },
        {
          "duration": 0.1588537695312482,
          "durationTicks": 61,
          "midi": 69,
          "name": "A4",
          "ticks": 61744,
          "time": 236.95532181250005,
          "velocity": 0.7637795275590551
        },
        {
          "duration": 0.15885376953121977,
          "durationTicks": 61,
          "midi": 67,
          "name": "G4",
          "ticks": 61808,
          "time": 237.12198806250007,
          "velocity": 0.7637795275590551
        },
        {
          "duration": 0.1588537695312482,
          "durationTicks": 61,
          "midi": 65,
          "name": "F4",
          "ticks": 61872,
          "time": 237.28865431250006,
          "velocity": 0.7637795275590551
        },
        {
          "duration": 0.1588537695312482,
          "durationTicks": 61,
          "midi": 64,
          "name": "E4",
          "ticks": 61936,
          "time": 237.45532056250005,
          "velocity": 0.7637795275590551
        },
        {
          "duration": 0.1588537695312766,
          "durationTicks": 61,
          "midi": 77,
          "name": "F5",
          "ticks": 62000,
          "time": 237.62198681250004,
          "velocity": 0.7637795275590551
        },
        {
          "duration": 0.3177075390624964,
          "durationTicks": 122,
          "midi": 62,
          "name": "D4",
          "ticks": 62000,
          "time": 237.62198681250004,
          "velocity": 0.7637795275590551
        },
        {
          "duration": 0.1588537695312766,
          "durationTicks": 61,
          "midi": 76,
          "name": "E5",
          "ticks": 62064,
          "time": 237.78865306250003,
          "velocity": 0.7637795275590551
        },
        {
          "duration": 0.1588537695312482,
          "durationTicks": 61,
          "midi": 74,
          "name": "D5",
          "ticks": 62128,
          "time": 237.95531931250005,
          "velocity": 0.7637795275590551
        },
        {
          "duration": 0.1588537695312482,
          "durationTicks": 61,
          "midi": 72,
          "name": "C5",
          "ticks": 62192,
          "time": 238.12198556250004,
          "velocity": 0.7637795275590551
        },
        {
          "duration": 0.15885376953121977,
          "durationTicks": 61,
          "midi": 70,
          "name": "A#4",
          "ticks": 62256,
          "time": 238.28865181250006,
          "velocity": 0.7637795275590551
        },
        {
          "duration": 0.1588537695312482,
          "durationTicks": 61,
          "midi": 69,
          "name": "A4",
          "ticks": 62320,
          "time": 238.45531806250006,
          "velocity": 0.7637795275590551
        },
        {
          "duration": 0.1588537695312482,
          "durationTicks": 61,
          "midi": 67,
          "name": "G4",
          "ticks": 62384,
          "time": 238.62198431250005,
          "velocity": 0.7637795275590551
        },
        {
          "duration": 0.1588537695312766,
          "durationTicks": 61,
          "midi": 65,
          "name": "F4",
          "ticks": 62448,
          "time": 238.78865056250004,
          "velocity": 0.7637795275590551
        },
        {
          "duration": 0.1588537695312766,
          "durationTicks": 61,
          "midi": 79,
          "name": "G5",
          "ticks": 62512,
          "time": 238.95531681250003,
          "velocity": 0.7637795275590551
        },
        {
          "duration": 0.3177075390625248,
          "durationTicks": 122,
          "midi": 64,
          "name": "E4",
          "ticks": 62512,
          "time": 238.95531681250003,
          "velocity": 0.7637795275590551
        },
        {
          "duration": 0.1588537695312482,
          "durationTicks": 61,
          "midi": 77,
          "name": "F5",
          "ticks": 62576,
          "time": 239.12198306250005,
          "velocity": 0.7637795275590551
        },
        {
          "duration": 0.15885376953121977,
          "durationTicks": 61,
          "midi": 76,
          "name": "E5",
          "ticks": 62640,
          "time": 239.28864931250007,
          "velocity": 0.7637795275590551
        },
        {
          "duration": 0.15885376953121977,
          "durationTicks": 61,
          "midi": 74,
          "name": "D5",
          "ticks": 62704,
          "time": 239.45531556250006,
          "velocity": 0.7637795275590551
        },
        {
          "duration": 0.1588537695312482,
          "durationTicks": 61,
          "midi": 72,
          "name": "C5",
          "ticks": 62768,
          "time": 239.62198181250005,
          "velocity": 0.7637795275590551
        },
        {
          "duration": 0.1588537695312766,
          "durationTicks": 61,
          "midi": 70,
          "name": "A#4",
          "ticks": 62832,
          "time": 239.78864806250004,
          "velocity": 0.7637795275590551
        },
        {
          "duration": 0.1588537695312766,
          "durationTicks": 61,
          "midi": 69,
          "name": "A4",
          "ticks": 62896,
          "time": 239.95531431250004,
          "velocity": 0.7637795275590551
        },
        {
          "duration": 0.1588537695312482,
          "durationTicks": 61,
          "midi": 67,
          "name": "G4",
          "ticks": 62960,
          "time": 240.12198056250006,
          "velocity": 0.7637795275590551
        },
        {
          "duration": 0.1588537695312482,
          "durationTicks": 61,
          "midi": 81,
          "name": "A5",
          "ticks": 63024,
          "time": 240.28864681250005,
          "velocity": 0.7637795275590551
        },
        {
          "duration": 0.3177075390624964,
          "durationTicks": 122,
          "midi": 65,
          "name": "F4",
          "ticks": 63024,
          "time": 240.28864681250005,
          "velocity": 0.7637795275590551
        },
        {
          "duration": 0.15885376953121977,
          "durationTicks": 61,
          "midi": 77,
          "name": "F5",
          "ticks": 63088,
          "time": 240.45531306250007,
          "velocity": 0.7637795275590551
        },
        {
          "duration": 0.1588537695312482,
          "durationTicks": 61,
          "midi": 76,
          "name": "E5",
          "ticks": 63152,
          "time": 240.62197931250006,
          "velocity": 0.7637795275590551
        },
        {
          "duration": 0.1588537695312482,
          "durationTicks": 61,
          "midi": 77,
          "name": "F5",
          "ticks": 63216,
          "time": 240.78864556250005,
          "velocity": 0.7637795275590551
        },
        {
          "duration": 0.3177075390624964,
          "durationTicks": 122,
          "midi": 72,
          "name": "C5",
          "ticks": 63280,
          "time": 240.95531181250004,
          "velocity": 0.7637795275590551
        },
        {
          "duration": 0.1588537695312766,
          "durationTicks": 61,
          "midi": 77,
          "name": "F5",
          "ticks": 63344,
          "time": 241.12197806250003,
          "velocity": 0.7637795275590551
        },
        {
          "duration": 0.1588537695312482,
          "durationTicks": 61,
          "midi": 76,
          "name": "E5",
          "ticks": 63408,
          "time": 241.28864431250005,
          "velocity": 0.7637795275590551
        },
        {
          "duration": 0.1588537695312482,
          "durationTicks": 61,
          "midi": 77,
          "name": "F5",
          "ticks": 63472,
          "time": 241.45531056250005,
          "velocity": 0.7637795275590551
        },
        {
          "duration": 0.15885376953121977,
          "durationTicks": 61,
          "midi": 81,
          "name": "A5",
          "ticks": 63536,
          "time": 241.62197681250007,
          "velocity": 0.7637795275590551
        },
        {
          "duration": 0.3177075390624964,
          "durationTicks": 122,
          "midi": 65,
          "name": "F4",
          "ticks": 63536,
          "time": 241.62197681250007,
          "velocity": 0.7637795275590551
        },
        {
          "duration": 0.1588537695312482,
          "durationTicks": 61,
          "midi": 77,
          "name": "F5",
          "ticks": 63600,
          "time": 241.78864306250006,
          "velocity": 0.7637795275590551
        },
        {
          "duration": 0.1588537695312482,
          "durationTicks": 61,
          "midi": 76,
          "name": "E5",
          "ticks": 63664,
          "time": 241.95530931250005,
          "velocity": 0.7637795275590551
        },
        {
          "duration": 0.1588537695312766,
          "durationTicks": 61,
          "midi": 77,
          "name": "F5",
          "ticks": 63728,
          "time": 242.12197556250004,
          "velocity": 0.7637795275590551
        },
        {
          "duration": 0.3177075390625248,
          "durationTicks": 122,
          "midi": 72,
          "name": "C5",
          "ticks": 63792,
          "time": 242.28864181250003,
          "velocity": 0.7637795275590551
        },
        {
          "duration": 0.1588537695312482,
          "durationTicks": 61,
          "midi": 77,
          "name": "F5",
          "ticks": 63856,
          "time": 242.45530806250005,
          "velocity": 0.7637795275590551
        },
        {
          "duration": 0.15885376953121977,
          "durationTicks": 61,
          "midi": 76,
          "name": "E5",
          "ticks": 63920,
          "time": 242.62197431250007,
          "velocity": 0.7637795275590551
        },
        {
          "duration": 0.15885376953121977,
          "durationTicks": 61,
          "midi": 77,
          "name": "F5",
          "ticks": 63984,
          "time": 242.78864056250006,
          "velocity": 0.7637795275590551
        },
        {
          "duration": 0.1588537695312482,
          "durationTicks": 61,
          "midi": 79,
          "name": "G5",
          "ticks": 64048,
          "time": 242.95530681250006,
          "velocity": 0.7637795275590551
        },
        {
          "duration": 0.3177075390624964,
          "durationTicks": 122,
          "midi": 64,
          "name": "E4",
          "ticks": 64048,
          "time": 242.95530681250006,
          "velocity": 0.7637795275590551
        },
        {
          "duration": 0.1588537695312482,
          "durationTicks": 61,
          "midi": 76,
          "name": "E5",
          "ticks": 64112,
          "time": 243.12197306250005,
          "velocity": 0.7637795275590551
        },
        {
          "duration": 0.1588537695312766,
          "durationTicks": 61,
          "midi": 74,
          "name": "D5",
          "ticks": 64176,
          "time": 243.28863931250004,
          "velocity": 0.7637795275590551
        },
        {
          "duration": 0.1588537695312766,
          "durationTicks": 61,
          "midi": 76,
          "name": "E5",
          "ticks": 64240,
          "time": 243.45530556250003,
          "velocity": 0.7637795275590551
        },
        {
          "duration": 0.3177075390624964,
          "durationTicks": 122,
          "midi": 72,
          "name": "C5",
          "ticks": 64304,
          "time": 243.62197181250005,
          "velocity": 0.7637795275590551
        },
        {
          "duration": 0.15885376953121977,
          "durationTicks": 61,
          "midi": 76,
          "name": "E5",
          "ticks": 64368,
          "time": 243.78863806250007,
          "velocity": 0.7637795275590551
        },
        {
          "duration": 0.15885376953121977,
          "durationTicks": 61,
          "midi": 74,
          "name": "D5",
          "ticks": 64432,
          "time": 243.95530431250006,
          "velocity": 0.7637795275590551
        },
        {
          "duration": 0.1588537695312482,
          "durationTicks": 61,
          "midi": 76,
          "name": "E5",
          "ticks": 64496,
          "time": 244.12197056250005,
          "velocity": 0.7637795275590551
        },
        {
          "duration": 0.1588537695312766,
          "durationTicks": 61,
          "midi": 79,
          "name": "G5",
          "ticks": 64560,
          "time": 244.28863681250004,
          "velocity": 0.7637795275590551
        },
        {
          "duration": 0.3177075390624964,
          "durationTicks": 122,
          "midi": 64,
          "name": "E4",
          "ticks": 64560,
          "time": 244.28863681250004,
          "velocity": 0.7637795275590551
        },
        {
          "duration": 0.1588537695312766,
          "durationTicks": 61,
          "midi": 76,
          "name": "E5",
          "ticks": 64624,
          "time": 244.45530306250004,
          "velocity": 0.7637795275590551
        },
        {
          "duration": 0.1588537695312482,
          "durationTicks": 61,
          "midi": 74,
          "name": "D5",
          "ticks": 64688,
          "time": 244.62196931250006,
          "velocity": 0.7637795275590551
        },
        {
          "duration": 0.1588537695312482,
          "durationTicks": 61,
          "midi": 76,
          "name": "E5",
          "ticks": 64752,
          "time": 244.78863556250005,
          "velocity": 0.7637795275590551
        },
        {
          "duration": 0.3177075390624964,
          "durationTicks": 122,
          "midi": 72,
          "name": "C5",
          "ticks": 64816,
          "time": 244.95530181250007,
          "velocity": 0.7637795275590551
        },
        {
          "duration": 0.1588537695312482,
          "durationTicks": 61,
          "midi": 76,
          "name": "E5",
          "ticks": 64880,
          "time": 245.12196806250006,
          "velocity": 0.7637795275590551
        },
        {
          "duration": 0.1588537695312482,
          "durationTicks": 61,
          "midi": 74,
          "name": "D5",
          "ticks": 64944,
          "time": 245.28863431250005,
          "velocity": 0.7637795275590551
        },
        {
          "duration": 0.1588537695312766,
          "durationTicks": 61,
          "midi": 76,
          "name": "E5",
          "ticks": 65008,
          "time": 245.45530056250004,
          "velocity": 0.7637795275590551
        },
        {
          "duration": 0.1588537695312482,
          "durationTicks": 61,
          "midi": 77,
          "name": "F5",
          "ticks": 67120,
          "time": 250.95528681250005,
          "velocity": 0.7637795275590551
        },
        {
          "duration": 0.3177075390624964,
          "durationTicks": 122,
          "midi": 62,
          "name": "D4",
          "ticks": 67120,
          "time": 250.95528681250005,
          "velocity": 0.7637795275590551
        },
        {
          "duration": 0.1588537695312766,
          "durationTicks": 61,
          "midi": 79,
          "name": "G5",
          "ticks": 67184,
          "time": 251.12195306250004,
          "velocity": 0.7637795275590551
        },
        {
          "duration": 0.1588537695312766,
          "durationTicks": 61,
          "midi": 77,
          "name": "F5",
          "ticks": 67248,
          "time": 251.28861931250003,
          "velocity": 0.7637795275590551
        },
        {
          "duration": 0.1588537695312482,
          "durationTicks": 61,
          "midi": 76,
          "name": "E5",
          "ticks": 67312,
          "time": 251.45528556250005,
          "velocity": 0.7637795275590551
        },
        {
          "duration": 0.15885376953121977,
          "durationTicks": 61,
          "midi": 74,
          "name": "D5",
          "ticks": 67376,
          "time": 251.62195181250007,
          "velocity": 0.7637795275590551
        },
        {
          "duration": 0.15885376953121977,
          "durationTicks": 61,
          "midi": 72,
          "name": "C5",
          "ticks": 67440,
          "time": 251.78861806250006,
          "velocity": 0.7637795275590551
        },
        {
          "duration": 0.1588537695312482,
          "durationTicks": 61,
          "midi": 71,
          "name": "B4",
          "ticks": 67504,
          "time": 251.95528431250005,
          "velocity": 0.7637795275590551
        },
        {
          "duration": 0.1588537695312482,
          "durationTicks": 61,
          "midi": 69,
          "name": "A4",
          "ticks": 67568,
          "time": 252.12195056250005,
          "velocity": 0.7637795275590551
        },
        {
          "duration": 0.1588537695312766,
          "durationTicks": 61,
          "midi": 71,
          "name": "B4",
          "ticks": 67632,
          "time": 252.28861681250004,
          "velocity": 0.7637795275590551
        },
        {
          "duration": 0.1588537695312482,
          "durationTicks": 61,
          "midi": 67,
          "name": "G4",
          "ticks": 67696,
          "time": 252.45528306250006,
          "velocity": 0.7637795275590551
        },
        {
          "duration": 0.1588537695312482,
          "durationTicks": 61,
          "midi": 71,
          "name": "B4",
          "ticks": 67760,
          "time": 252.62194931250005,
          "velocity": 0.7637795275590551
        },
        {
          "duration": 0.15885376953121977,
          "durationTicks": 61,
          "midi": 74,
          "name": "D5",
          "ticks": 67824,
          "time": 252.78861556250007,
          "velocity": 0.7637795275590551
        },
        {
          "duration": 0.15885376953121977,
          "durationTicks": 61,
          "midi": 77,
          "name": "F5",
          "ticks": 67888,
          "time": 252.95528181250006,
          "velocity": 0.7637795275590551
        },
        {
          "duration": 0.1588537695312482,
          "durationTicks": 61,
          "midi": 81,
          "name": "A5",
          "ticks": 67952,
          "time": 253.12194806250005,
          "velocity": 0.7637795275590551
        },
        {
          "duration": 0.1588537695312766,
          "durationTicks": 61,
          "midi": 77,
          "name": "F5",
          "ticks": 68016,
          "time": 253.28861431250004,
          "velocity": 0.7637795275590551
        },
        {
          "duration": 0.1588537695312766,
          "durationTicks": 61,
          "midi": 74,
          "name": "D5",
          "ticks": 68080,
          "time": 253.45528056250004,
          "velocity": 0.7637795275590551
        },
        {
          "duration": 0.1588537695312482,
          "durationTicks": 61,
          "midi": 70,
          "name": "A#4",
          "ticks": 68656,
          "time": 254.95527681250005,
          "velocity": 0.7637795275590551
        },
        {
          "duration": 0.15885376953121977,
          "durationTicks": 61,
          "midi": 67,
          "name": "G4",
          "ticks": 68720,
          "time": 255.12194306250007,
          "velocity": 0.7637795275590551
        },
        {
          "duration": 0.1588537695312482,
          "durationTicks": 61,
          "midi": 70,
          "name": "A#4",
          "ticks": 68784,
          "time": 255.28860931250006,
          "velocity": 0.7637795275590551
        },
        {
          "duration": 0.1588537695312482,
          "durationTicks": 61,
          "midi": 72,
          "name": "C5",
          "ticks": 68848,
          "time": 255.45527556250005,
          "velocity": 0.7637795275590551
        },
        {
          "duration": 0.1588537695312766,
          "durationTicks": 61,
          "midi": 76,
          "name": "E5",
          "ticks": 68912,
          "time": 255.62194181250004,
          "velocity": 0.7637795275590551
        },
        {
          "duration": 0.1588537695312766,
          "durationTicks": 61,
          "midi": 79,
          "name": "G5",
          "ticks": 68976,
          "time": 255.78860806250003,
          "velocity": 0.7637795275590551
        },
        {
          "duration": 0.1588537695312482,
          "durationTicks": 61,
          "midi": 76,
          "name": "E5",
          "ticks": 69040,
          "time": 255.95527431250005,
          "velocity": 0.7637795275590551
        },
        {
          "duration": 0.15885376953121977,
          "durationTicks": 61,
          "midi": 72,
          "name": "C5",
          "ticks": 69104,
          "time": 256.1219405625001,
          "velocity": 0.7637795275590551
        },
        {
          "duration": 0.15885376953121977,
          "durationTicks": 61,
          "midi": 69,
          "name": "A4",
          "ticks": 69680,
          "time": 257.62193681250005,
          "velocity": 0.7637795275590551
        },
        {
          "duration": 0.1588537695312766,
          "durationTicks": 61,
          "midi": 65,
          "name": "F4",
          "ticks": 69744,
          "time": 257.78860306250004,
          "velocity": 0.7637795275590551
        },
        {
          "duration": 0.1588537695312766,
          "durationTicks": 61,
          "midi": 69,
          "name": "A4",
          "ticks": 69808,
          "time": 257.95526931250004,
          "velocity": 0.7637795275590551
        },
        {
          "duration": 0.15885376953121977,
          "durationTicks": 61,
          "midi": 72,
          "name": "C5",
          "ticks": 69872,
          "time": 258.1219355625001,
          "velocity": 0.7637795275590551
        },
        {
          "duration": 0.1588537695312766,
          "durationTicks": 61,
          "midi": 74,
          "name": "D5",
          "ticks": 69936,
          "time": 258.2886018125,
          "velocity": 0.7637795275590551
        },
        {
          "duration": 0.15885376953121977,
          "durationTicks": 61,
          "midi": 77,
          "name": "F5",
          "ticks": 70000,
          "time": 258.45526806250007,
          "velocity": 0.7637795275590551
        },
        {
          "duration": 0.1588537695312766,
          "durationTicks": 61,
          "midi": 74,
          "name": "D5",
          "ticks": 70064,
          "time": 258.62193431250006,
          "velocity": 0.7637795275590551
        },
        {
          "duration": 0.15885376953121977,
          "durationTicks": 61,
          "midi": 70,
          "name": "A#4",
          "ticks": 70128,
          "time": 258.78860056250005,
          "velocity": 0.7637795275590551
        },
        {
          "duration": 0.1588537695312766,
          "durationTicks": 61,
          "midi": 67,
          "name": "G4",
          "ticks": 70704,
          "time": 260.28859681250003,
          "velocity": 0.7637795275590551
        },
        {
          "duration": 0.15885376953121977,
          "durationTicks": 61,
          "midi": 64,
          "name": "E4",
          "ticks": 70768,
          "time": 260.4552630625001,
          "velocity": 0.7637795275590551
        },
        {
          "duration": 0.15885376953121977,
          "durationTicks": 61,
          "midi": 67,
          "name": "G4",
          "ticks": 70832,
          "time": 260.6219293125001,
          "velocity": 0.7637795275590551
        },
        {
          "duration": 0.15885376953121977,
          "durationTicks": 61,
          "midi": 70,
          "name": "A#4",
          "ticks": 70896,
          "time": 260.78859556250006,
          "velocity": 0.7637795275590551
        },
        {
          "duration": 0.1588537695312766,
          "durationTicks": 61,
          "midi": 73,
          "name": "C#5",
          "ticks": 70960,
          "time": 260.95526181250005,
          "velocity": 0.7637795275590551
        },
        {
          "duration": 0.1588537695312766,
          "durationTicks": 61,
          "midi": 76,
          "name": "E5",
          "ticks": 71024,
          "time": 261.12192806250005,
          "velocity": 0.7637795275590551
        },
        {
          "duration": 0.1588537695312766,
          "durationTicks": 61,
          "midi": 73,
          "name": "C#5",
          "ticks": 71088,
          "time": 261.28859431250004,
          "velocity": 0.7637795275590551
        },
        {
          "duration": 0.1588537695312766,
          "durationTicks": 61,
          "midi": 70,
          "name": "A#4",
          "ticks": 71152,
          "time": 261.45526056250003,
          "velocity": 0.7637795275590551
        },
        {
          "duration": 0.3177075390624964,
          "durationTicks": 122,
          "midi": 69,
          "name": "A4",
          "ticks": 71728,
          "time": 262.95525681250007,
          "velocity": 0.7637795275590551
        },
        {
          "duration": 0.15885376953121977,
          "durationTicks": 61,
          "midi": 81,
          "name": "A5",
          "ticks": 71792,
          "time": 263.12192306250006,
          "velocity": 0.7637795275590551
        },
        {
          "duration": 0.1588537695312766,
          "durationTicks": 61,
          "midi": 79,
          "name": "G5",
          "ticks": 71856,
          "time": 263.28858931250005,
          "velocity": 0.7637795275590551
        },
        {
          "duration": 0.3177075390624964,
          "durationTicks": 122,
          "midi": 73,
          "name": "C#5",
          "ticks": 71856,
          "time": 263.28858931250005,
          "velocity": 0.7637795275590551
        },
        {
          "duration": 0.1588537695312766,
          "durationTicks": 61,
          "midi": 81,
          "name": "A5",
          "ticks": 71920,
          "time": 263.45525556250004,
          "velocity": 0.7637795275590551
        },
        {
          "duration": 0.1588537695312766,
          "durationTicks": 61,
          "midi": 77,
          "name": "F5",
          "ticks": 71984,
          "time": 263.62192181250003,
          "velocity": 0.7637795275590551
        },
        {
          "duration": 0.3177075390624964,
          "durationTicks": 122,
          "midi": 74,
          "name": "D5",
          "ticks": 71984,
          "time": 263.62192181250003,
          "velocity": 0.7637795275590551
        },
        {
          "duration": 0.1588537695312766,
          "durationTicks": 61,
          "midi": 81,
          "name": "A5",
          "ticks": 72048,
          "time": 263.7885880625,
          "velocity": 0.7637795275590551
        },
        {
          "duration": 0.15885376953121977,
          "durationTicks": 61,
          "midi": 76,
          "name": "E5",
          "ticks": 72112,
          "time": 263.9552543125001,
          "velocity": 0.7637795275590551
        },
        {
          "duration": 0.3177075390624964,
          "durationTicks": 122,
          "midi": 67,
          "name": "G4",
          "ticks": 72112,
          "time": 263.9552543125001,
          "velocity": 0.7637795275590551
        },
        {
          "duration": 0.15885376953121977,
          "durationTicks": 61,
          "midi": 81,
          "name": "A5",
          "ticks": 72176,
          "time": 264.12192056250007,
          "velocity": 0.7637795275590551
        },
        {
          "duration": 0.15885376953121977,
          "durationTicks": 61,
          "midi": 74,
          "name": "D5",
          "ticks": 72240,
          "time": 264.28858681250006,
          "velocity": 0.7637795275590551
        },
        {
          "duration": 0.3177075390624964,
          "durationTicks": 122,
          "midi": 65,
          "name": "F4",
          "ticks": 72240,
          "time": 264.28858681250006,
          "velocity": 0.7637795275590551
        },
        {
          "duration": 0.1588537695312766,
          "durationTicks": 61,
          "midi": 81,
          "name": "A5",
          "ticks": 72304,
          "time": 264.45525306250005,
          "velocity": 0.7637795275590551
        },
        {
          "duration": 0.1588537695312766,
          "durationTicks": 61,
          "midi": 73,
          "name": "C#5",
          "ticks": 72368,
          "time": 264.62191931250004,
          "velocity": 0.7637795275590551
        },
        {
          "duration": 0.3177075390624964,
          "durationTicks": 122,
          "midi": 69,
          "name": "A4",
          "ticks": 72368,
          "time": 264.62191931250004,
          "velocity": 0.7637795275590551
        },
        {
          "duration": 0.1588537695312766,
          "durationTicks": 61,
          "midi": 81,
          "name": "A5",
          "ticks": 72432,
          "time": 264.78858556250003,
          "velocity": 0.7637795275590551
        },
        {
          "duration": 0.1588537695312766,
          "durationTicks": 61,
          "midi": 74,
          "name": "D5",
          "ticks": 72496,
          "time": 264.9552518125,
          "velocity": 0.7637795275590551
        },
        {
          "duration": 0.3177075390625532,
          "durationTicks": 122,
          "midi": 71,
          "name": "B4",
          "ticks": 72496,
          "time": 264.9552518125,
          "velocity": 0.7637795275590551
        },
        {
          "duration": 0.15885376953121977,
          "durationTicks": 61,
          "midi": 81,
          "name": "A5",
          "ticks": 72560,
          "time": 265.1219180625001,
          "velocity": 0.7637795275590551
        },
        {
          "duration": 0.15885376953121977,
          "durationTicks": 61,
          "midi": 76,
          "name": "E5",
          "ticks": 72624,
          "time": 265.28858431250006,
          "velocity": 0.7637795275590551
        },
        {
          "duration": 0.3177075390624964,
          "durationTicks": 122,
          "midi": 73,
          "name": "C#5",
          "ticks": 72624,
          "time": 265.28858431250006,
          "velocity": 0.7637795275590551
        },
        {
          "duration": 0.15885376953121977,
          "durationTicks": 61,
          "midi": 81,
          "name": "A5",
          "ticks": 72688,
          "time": 265.45525056250005,
          "velocity": 0.7637795275590551
        },
        {
          "duration": 0.1588537695312766,
          "durationTicks": 61,
          "midi": 77,
          "name": "F5",
          "ticks": 72752,
          "time": 265.62191681250005,
          "velocity": 0.7637795275590551
        },
        {
          "duration": 0.3177075390624964,
          "durationTicks": 122,
          "midi": 74,
          "name": "D5",
          "ticks": 72752,
          "time": 265.62191681250005,
          "velocity": 0.7637795275590551
        },
        {
          "duration": 0.1588537695312766,
          "durationTicks": 61,
          "midi": 81,
          "name": "A5",
          "ticks": 72816,
          "time": 265.78858306250004,
          "velocity": 0.7637795275590551
        },
        {
          "duration": 0.15885376953121977,
          "durationTicks": 61,
          "midi": 69,
          "name": "A4",
          "ticks": 72880,
          "time": 265.9552493125001,
          "velocity": 0.7637795275590551
        },
        {
          "duration": 0.31770753906243954,
          "durationTicks": 122,
          "midi": 73,
          "name": "C#5",
          "ticks": 72880,
          "time": 265.9552493125001,
          "velocity": 0.7637795275590551
        },
        {
          "duration": 0.1588537695312766,
          "durationTicks": 61,
          "midi": 81,
          "name": "A5",
          "ticks": 72944,
          "time": 266.1219155625,
          "velocity": 0.7637795275590551
        },
        {
          "duration": 0.15885376953121977,
          "durationTicks": 61,
          "midi": 71,
          "name": "B4",
          "ticks": 73008,
          "time": 266.28858181250007,
          "velocity": 0.7637795275590551
        },
        {
          "duration": 0.3177075390624964,
          "durationTicks": 122,
          "midi": 74,
          "name": "D5",
          "ticks": 73008,
          "time": 266.28858181250007,
          "velocity": 0.7637795275590551
        },
        {
          "duration": 0.1588537695312766,
          "durationTicks": 61,
          "midi": 81,
          "name": "A5",
          "ticks": 73072,
          "time": 266.45524806250006,
          "velocity": 0.7637795275590551
        },
        {
          "duration": 0.15885376953121977,
          "durationTicks": 61,
          "midi": 73,
          "name": "C#5",
          "ticks": 73136,
          "time": 266.62191431250005,
          "velocity": 0.7637795275590551
        },
        {
          "duration": 0.3177075390624964,
          "durationTicks": 122,
          "midi": 76,
          "name": "E5",
          "ticks": 73136,
          "time": 266.62191431250005,
          "velocity": 0.7637795275590551
        },
        {
          "duration": 0.1588537695312766,
          "durationTicks": 61,
          "midi": 81,
          "name": "A5",
          "ticks": 73200,
          "time": 266.78858056250004,
          "velocity": 0.7637795275590551
        },
        {
          "duration": 0.1588537695312766,
          "durationTicks": 61,
          "midi": 77,
          "name": "F5",
          "ticks": 73264,
          "time": 266.95524681250004,
          "velocity": 0.7637795275590551
        },
        {
          "duration": 0.3177075390624964,
          "durationTicks": 122,
          "midi": 74,
          "name": "D5",
          "ticks": 73264,
          "time": 266.95524681250004,
          "velocity": 0.7637795275590551
        },
        {
          "duration": 0.15885376953121977,
          "durationTicks": 61,
          "midi": 81,
          "name": "A5",
          "ticks": 73328,
          "time": 267.1219130625001,
          "velocity": 0.7637795275590551
        },
        {
          "duration": 0.1588537695312766,
          "durationTicks": 61,
          "midi": 76,
          "name": "E5",
          "ticks": 73392,
          "time": 267.2885793125,
          "velocity": 0.7637795275590551
        },
        {
          "duration": 0.3177075390625532,
          "durationTicks": 122,
          "midi": 73,
          "name": "C#5",
          "ticks": 73392,
          "time": 267.2885793125,
          "velocity": 0.7637795275590551
        },
        {
          "duration": 0.15885376953121977,
          "durationTicks": 61,
          "midi": 81,
          "name": "A5",
          "ticks": 73456,
          "time": 267.45524556250007,
          "velocity": 0.7637795275590551
        },
        {
          "duration": 0.3177075390624964,
          "durationTicks": 122,
          "midi": 77,
          "name": "F5",
          "ticks": 73520,
          "time": 267.62191181250006,
          "velocity": 0.7637795275590551
        },
        {
          "duration": 0.3177075390624964,
          "durationTicks": 122,
          "midi": 74,
          "name": "D5",
          "ticks": 73520,
          "time": 267.62191181250006,
          "velocity": 0.7637795275590551
        },
        {
          "duration": 0.15885376953121977,
          "durationTicks": 61,
          "midi": 69,
          "name": "A4",
          "ticks": 73584,
          "time": 267.78857806250005,
          "velocity": 0.7637795275590551
        },
        {
          "duration": 0.3177075390624964,
          "durationTicks": 122,
          "midi": 76,
          "name": "E5",
          "ticks": 73648,
          "time": 267.95524431250004,
          "velocity": 0.7637795275590551
        },
        {
          "duration": 0.3177075390624964,
          "durationTicks": 122,
          "midi": 73,
          "name": "C#5",
          "ticks": 73648,
          "time": 267.95524431250004,
          "velocity": 0.7637795275590551
        },
        {
          "duration": 0.1588537695312766,
          "durationTicks": 61,
          "midi": 67,
          "name": "G4",
          "ticks": 73648,
          "time": 267.95524431250004,
          "velocity": 0.7637795275590551
        },
        {
          "duration": 0.1588537695312766,
          "durationTicks": 61,
          "midi": 69,
          "name": "A4",
          "ticks": 73712,
          "time": 268.12191056250003,
          "velocity": 0.7637795275590551
        },
        {
          "duration": 0.31770753906243954,
          "durationTicks": 122,
          "midi": 74,
          "name": "D5",
          "ticks": 73776,
          "time": 268.2885768125001,
          "velocity": 0.7637795275590551
        },
        {
          "duration": 0.15885376953121977,
          "durationTicks": 61,
          "midi": 66,
          "name": "F#4",
          "ticks": 73840,
          "time": 268.4552430625001,
          "velocity": 0.7637795275590551
        },
        {
          "duration": 0.3177075390624964,
          "durationTicks": 122,
          "midi": 72,
          "name": "C5",
          "ticks": 73904,
          "time": 268.62190931250007,
          "velocity": 0.7637795275590551
        },
        {
          "duration": 0.3177075390624964,
          "durationTicks": 122,
          "midi": 69,
          "name": "A4",
          "ticks": 73904,
          "time": 268.62190931250007,
          "velocity": 0.7637795275590551
        },
        {
          "duration": 0.15885376953121977,
          "durationTicks": 61,
          "midi": 64,
          "name": "E4",
          "ticks": 73904,
          "time": 268.62190931250007,
          "velocity": 0.7637795275590551
        },
        {
          "duration": 0.1588537695312766,
          "durationTicks": 61,
          "midi": 66,
          "name": "F#4",
          "ticks": 73968,
          "time": 268.78857556250006,
          "velocity": 0.7637795275590551
        },
        {
          "duration": 0.3177075390624964,
          "durationTicks": 122,
          "midi": 70,
          "name": "A#4",
          "ticks": 74032,
          "time": 268.95524181250005,
          "velocity": 0.7637795275590551
        },
        {
          "duration": 0.3177075390624964,
          "durationTicks": 122,
          "midi": 67,
          "name": "G4",
          "ticks": 74032,
          "time": 268.95524181250005,
          "velocity": 0.7637795275590551
        },
        {
          "duration": 0.3177075390625532,
          "durationTicks": 122,
          "midi": 69,
          "name": "A4",
          "ticks": 74160,
          "time": 269.28857431250003,
          "velocity": 0.7637795275590551
        },
        {
          "duration": 0.3177075390625532,
          "durationTicks": 122,
          "midi": 66,
          "name": "F#4",
          "ticks": 74160,
          "time": 269.28857431250003,
          "velocity": 0.7637795275590551
        },
        {
          "duration": 0.15885376953121977,
          "durationTicks": 61,
          "midi": 70,
          "name": "A#4",
          "ticks": 74288,
          "time": 269.6219068125001,
          "velocity": 0.7637795275590551
        },
        {
          "duration": 0.3177075390624964,
          "durationTicks": 122,
          "midi": 67,
          "name": "G4",
          "ticks": 74288,
          "time": 269.6219068125001,
          "velocity": 0.7637795275590551
        },
        {
          "duration": 0.15885376953121977,
          "durationTicks": 61,
          "midi": 69,
          "name": "A4",
          "ticks": 74352,
          "time": 269.78857306250006,
          "velocity": 0.7637795275590551
        },
        {
          "duration": 0.1588537695312766,
          "durationTicks": 61,
          "midi": 67,
          "name": "G4",
          "ticks": 74416,
          "time": 269.95523931250005,
          "velocity": 0.7637795275590551
        },
        {
          "duration": 0.1588537695312766,
          "durationTicks": 61,
          "midi": 65,
          "name": "F4",
          "ticks": 74480,
          "time": 270.12190556250005,
          "velocity": 0.7637795275590551
        },
        {
          "duration": 0.1588537695312766,
          "durationTicks": 61,
          "midi": 64,
          "name": "E4",
          "ticks": 74544,
          "time": 270.28857181250004,
          "velocity": 0.7637795275590551
        },
        {
          "duration": 0.1588537695312766,
          "durationTicks": 61,
          "midi": 62,
          "name": "D4",
          "ticks": 74608,
          "time": 270.45523806250003,
          "velocity": 0.7637795275590551
        },
        {
          "duration": 0.15885376953121977,
          "durationTicks": 61,
          "midi": 61,
          "name": "C#4",
          "ticks": 74672,
          "time": 270.6219043125001,
          "velocity": 0.7637795275590551
        },
        {
          "duration": 0.15885376953121977,
          "durationTicks": 61,
          "midi": 59,
          "name": "B3",
          "ticks": 74736,
          "time": 270.78857056250007,
          "velocity": 0.7637795275590551
        },
        {
          "duration": 0.1588537695312766,
          "durationTicks": 61,
          "midi": 62,
          "name": "D4",
          "ticks": 80176,
          "time": 284.95520181250004,
          "velocity": 0.8818897637795275
        },
        {
          "duration": 0.15885376953121977,
          "durationTicks": 61,
          "midi": 65,
          "name": "F4",
          "ticks": 80240,
          "time": 285.1218680625001,
          "velocity": 0.8818897637795275
        },
        {
          "duration": 0.1588537695312766,
          "durationTicks": 61,
          "midi": 62,
          "name": "D4",
          "ticks": 80304,
          "time": 285.2885343125,
          "velocity": 0.8818897637795275
        },
        {
          "duration": 0.15885376953121977,
          "durationTicks": 61,
          "midi": 57,
          "name": "A3",
          "ticks": 80368,
          "time": 285.45520056250007,
          "velocity": 0.8818897637795275
        },
        {
          "duration": 0.1588537695312766,
          "durationTicks": 61,
          "midi": 62,
          "name": "D4",
          "ticks": 82224,
          "time": 290.28852181250005,
          "velocity": 0.8818897637795275
        },
        {
          "duration": 0.1588537695312766,
          "durationTicks": 61,
          "midi": 65,
          "name": "F4",
          "ticks": 82288,
          "time": 290.45518806250004,
          "velocity": 0.8818897637795275
        },
        {
          "duration": 0.15885376953121977,
          "durationTicks": 61,
          "midi": 62,
          "name": "D4",
          "ticks": 82352,
          "time": 290.6218543125001,
          "velocity": 0.8818897637795275
        },
        {
          "duration": 0.1588537695312766,
          "durationTicks": 61,
          "midi": 57,
          "name": "A3",
          "ticks": 82416,
          "time": 290.7885205625,
          "velocity": 0.8818897637795275
        },
        {
          "duration": 0.15885376953121977,
          "durationTicks": 61,
          "midi": 61,
          "name": "C#4",
          "ticks": 83248,
          "time": 292.9551818125001,
          "velocity": 0.8818897637795275
        },
        {
          "duration": 0.1588537695312766,
          "durationTicks": 61,
          "midi": 64,
          "name": "E4",
          "ticks": 83312,
          "time": 293.1218480625,
          "velocity": 0.8818897637795275
        },
        {
          "duration": 0.15885376953121977,
          "durationTicks": 61,
          "midi": 61,
          "name": "C#4",
          "ticks": 83376,
          "time": 293.28851431250007,
          "velocity": 0.8818897637795275
        },
        {
          "duration": 0.1588537695312766,
          "durationTicks": 61,
          "midi": 58,
          "name": "A#3",
          "ticks": 83440,
          "time": 293.45518056250006,
          "velocity": 0.8818897637795275
        },
        {
          "duration": 0.15885376953121977,
          "durationTicks": 61,
          "midi": 62,
          "name": "D4",
          "ticks": 84272,
          "time": 295.62184181250007,
          "velocity": 0.8818897637795275
        },
        {
          "duration": 0.1588537695312766,
          "durationTicks": 61,
          "midi": 65,
          "name": "F4",
          "ticks": 84336,
          "time": 295.78850806250006,
          "velocity": 0.8818897637795275
        },
        {
          "duration": 0.15885376953121977,
          "durationTicks": 61,
          "midi": 62,
          "name": "D4",
          "ticks": 84400,
          "time": 295.95517431250005,
          "velocity": 0.8818897637795275
        },
        {
          "duration": 0.15885376953121977,
          "durationTicks": 61,
          "midi": 62,
          "name": "D4",
          "ticks": 84592,
          "time": 296.4551730625001,
          "velocity": 0.8818897637795275
        },
        {
          "duration": 0.15885376953133346,
          "durationTicks": 61,
          "midi": 58,
          "name": "A#3",
          "ticks": 84656,
          "time": 296.6218393125,
          "velocity": 0.8818897637795275
        },
        {
          "duration": 0.1588537695312766,
          "durationTicks": 61,
          "midi": 65,
          "name": "F4",
          "ticks": 86896,
          "time": 302.45515806250006,
          "velocity": 0.8818897637795275
        },
        {
          "duration": 0.15885376953121977,
          "durationTicks": 61,
          "midi": 64,
          "name": "E4",
          "ticks": 86960,
          "time": 302.62182431250005,
          "velocity": 0.8818897637795275
        },
        {
          "duration": 0.1588537695312766,
          "durationTicks": 61,
          "midi": 62,
          "name": "D4",
          "ticks": 87024,
          "time": 302.78849056250004,
          "velocity": 0.8818897637795275
        },
        {
          "duration": 0.1588537695312766,
          "durationTicks": 61,
          "midi": 69,
          "name": "A4",
          "ticks": 87088,
          "time": 302.95515681250004,
          "velocity": 0.8818897637795275
        },
        {
          "duration": 0.15885376953121977,
          "durationTicks": 61,
          "midi": 76,
          "name": "E5",
          "ticks": 87408,
          "time": 303.78848806250005,
          "velocity": 0.8818897637795275
        },
        {
          "duration": 0.15885376953121977,
          "durationTicks": 61,
          "midi": 74,
          "name": "D5",
          "ticks": 87472,
          "time": 303.9551543125001,
          "velocity": 0.8818897637795275
        },
        {
          "duration": 0.1588537695312766,
          "durationTicks": 61,
          "midi": 73,
          "name": "C#5",
          "ticks": 87536,
          "time": 304.12182056250003,
          "velocity": 0.8818897637795275
        },
        {
          "duration": 0.15885376953121977,
          "durationTicks": 61,
          "midi": 74,
          "name": "D5",
          "ticks": 87600,
          "time": 304.2884868125001,
          "velocity": 0.8818897637795275
        },
        {
          "duration": 0.08072896484378589,
          "durationTicks": 31,
          "midi": 75,
          "name": "D#5",
          "ticks": 87664,
          "time": 304.4551530625,
          "velocity": 0.8818897637795275
        },
        {
          "duration": 0.08072896484372905,
          "durationTicks": 31,
          "midi": 74,
          "name": "D5",
          "ticks": 87696,
          "time": 304.5384861875001,
          "velocity": 0.8818897637795275
        },
        {
          "duration": 0.08072896484372905,
          "durationTicks": 31,
          "midi": 72,
          "name": "C5",
          "ticks": 87728,
          "time": 304.62181931250007,
          "velocity": 0.8818897637795275
        },
        {
          "duration": 0.08072896484378589,
          "durationTicks": 31,
          "midi": 70,
          "name": "A#4",
          "ticks": 87760,
          "time": 304.70515243750003,
          "velocity": 0.8818897637795275
        },
        {
          "duration": 0.08072896484378589,
          "durationTicks": 31,
          "midi": 69,
          "name": "A4",
          "ticks": 87792,
          "time": 304.78848556250006,
          "velocity": 0.8818897637795275
        },
        {
          "duration": 0.08072896484372905,
          "durationTicks": 31,
          "midi": 67,
          "name": "G4",
          "ticks": 87824,
          "time": 304.8718186875001,
          "velocity": 0.8818897637795275
        },
        {
          "duration": 0.3177075390624964,
          "durationTicks": 122,
          "midi": 66,
          "name": "F#4",
          "ticks": 87856,
          "time": 304.95515181250005,
          "velocity": 0.8818897637795275
        },
        {
          "duration": 0.6510400390625364,
          "durationTicks": 250,
          "midi": 69,
          "name": "A4",
          "ticks": 87984,
          "time": 305.28848431250003,
          "velocity": 0.8818897637795275
        },
        {
          "duration": 0.3177075390624964,
          "durationTicks": 122,
          "midi": 67,
          "name": "G4",
          "ticks": 88240,
          "time": 305.95514931250005,
          "velocity": 0.8818897637795275
        },
        {
          "duration": 0.31770753906243954,
          "durationTicks": 122,
          "midi": 72,
          "name": "C5",
          "ticks": 88368,
          "time": 306.2884818125001,
          "velocity": 0.8818897637795275
        },
        {
          "duration": 0.31770753906243954,
          "durationTicks": 122,
          "midi": 71,
          "name": "B4",
          "ticks": 88496,
          "time": 306.6218143125001,
          "velocity": 0.8818897637795275
        },
        {
          "duration": 0.3177075390624964,
          "durationTicks": 122,
          "midi": 75,
          "name": "D#5",
          "ticks": 88624,
          "time": 306.95514681250006,
          "velocity": 0.8818897637795275
        },
        {
          "duration": 0.3177075390625532,
          "durationTicks": 122,
          "midi": 74,
          "name": "D5",
          "ticks": 88752,
          "time": 307.28847931250004,
          "velocity": 0.8818897637795275
        },
        {
          "duration": 0.3177075390625532,
          "durationTicks": 122,
          "midi": 75,
          "name": "D#5",
          "ticks": 88880,
          "time": 307.6218118125,
          "velocity": 0.8818897637795275
        },
        {
          "duration": 0.3177075390624964,
          "durationTicks": 122,
          "midi": 71,
          "name": "B4",
          "ticks": 89008,
          "time": 307.95514431250007,
          "velocity": 0.8818897637795275
        },
        {
          "duration": 0.3177075390624964,
          "durationTicks": 122,
          "midi": 72,
          "name": "C5",
          "ticks": 89136,
          "time": 308.28847681250005,
          "velocity": 0.8818897637795275
        },
        {
          "duration": 0.31770753906243954,
          "durationTicks": 122,
          "midi": 71,
          "name": "B4",
          "ticks": 89264,
          "time": 308.6218093125001,
          "velocity": 0.8818897637795275
        },
        {
          "duration": 0.3177075390624964,
          "durationTicks": 122,
          "midi": 72,
          "name": "C5",
          "ticks": 89392,
          "time": 308.9551418125001,
          "velocity": 0.8818897637795275
        },
        {
          "duration": 0.3177075390624964,
          "durationTicks": 122,
          "midi": 74,
          "name": "D5",
          "ticks": 89520,
          "time": 309.28847431250006,
          "velocity": 0.8818897637795275
        },
        {
          "duration": 0.3177075390625532,
          "durationTicks": 122,
          "midi": 75,
          "name": "D#5",
          "ticks": 89648,
          "time": 309.62180681250004,
          "velocity": 0.8818897637795275
        },
        {
          "duration": 0.3177075390625532,
          "durationTicks": 122,
          "midi": 74,
          "name": "D5",
          "ticks": 89776,
          "time": 309.9551393125,
          "velocity": 0.8818897637795275
        },
        {
          "duration": 0.3177075390624964,
          "durationTicks": 122,
          "midi": 75,
          "name": "D#5",
          "ticks": 89904,
          "time": 310.28847181250006,
          "velocity": 0.8818897637795275
        },
        {
          "duration": 0.3177075390624964,
          "durationTicks": 122,
          "midi": 77,
          "name": "F5",
          "ticks": 90032,
          "time": 310.62180431250005,
          "velocity": 0.8818897637795275
        },
        {
          "duration": 0.06510400390618543,
          "durationTicks": 25,
          "midi": 81,
          "name": "A5",
          "ticks": 90160,
          "time": 310.9551368125001,
          "velocity": 0.8818897637795275
        },
        {
          "duration": 0.06510400390624227,
          "durationTicks": 25,
          "midi": 79,
          "name": "G5",
          "ticks": 90192,
          "time": 311.03846993750005,
          "velocity": 0.8818897637795275
        },
        {
          "duration": 0.06510400390629911,
          "durationTicks": 25,
          "midi": 81,
          "name": "A5",
          "ticks": 90224,
          "time": 311.1218030625,
          "velocity": 0.8818897637795275
        },
        {
          "duration": 0.06510400390624227,
          "durationTicks": 25,
          "midi": 79,
          "name": "G5",
          "ticks": 90256,
          "time": 311.20513618750005,
          "velocity": 0.8818897637795275
        },
        {
          "duration": 0.06510400390624227,
          "durationTicks": 25,
          "midi": 81,
          "name": "A5",
          "ticks": 90288,
          "time": 311.28846931250007,
          "velocity": 0.8818897637795275
        },
        {
          "duration": 0.06510400390629911,
          "durationTicks": 25,
          "midi": 79,
          "name": "G5",
          "ticks": 90320,
          "time": 311.37180243750004,
          "velocity": 0.8818897637795275
        },
        {
          "duration": 0.06510400390624227,
          "durationTicks": 25,
          "midi": 81,
          "name": "A5",
          "ticks": 90352,
          "time": 311.45513556250006,
          "velocity": 0.8818897637795275
        },
        {
          "duration": 0.06510400390618543,
          "durationTicks": 25,
          "midi": 79,
          "name": "G5",
          "ticks": 90384,
          "time": 311.5384686875001,
          "velocity": 0.8818897637795275
        },
        {
          "duration": 0.06510400390624227,
          "durationTicks": 25,
          "midi": 81,
          "name": "A5",
          "ticks": 90416,
          "time": 311.62180181250005,
          "velocity": 0.8818897637795275
        },
        {
          "duration": 0.06510400390629911,
          "durationTicks": 25,
          "midi": 79,
          "name": "G5",
          "ticks": 90448,
          "time": 311.7051349375,
          "velocity": 0.8818897637795275
        },
        {
          "duration": 0.06510400390624227,
          "durationTicks": 25,
          "midi": 81,
          "name": "A5",
          "ticks": 90480,
          "time": 311.78846806250004,
          "velocity": 0.8818897637795275
        },
        {
          "duration": 0.06510400390624227,
          "durationTicks": 25,
          "midi": 79,
          "name": "G5",
          "ticks": 90512,
          "time": 311.87180118750007,
          "velocity": 0.8818897637795275
        },
        {
          "duration": 0.06510400390629911,
          "durationTicks": 25,
          "midi": 81,
          "name": "A5",
          "ticks": 90544,
          "time": 311.95513431250004,
          "velocity": 0.8818897637795275
        },
        {
          "duration": 0.06510400390624227,
          "durationTicks": 25,
          "midi": 79,
          "name": "G5",
          "ticks": 90576,
          "time": 312.03846743750006,
          "velocity": 0.8818897637795275
        },
        {
          "duration": 0.06510400390618543,
          "durationTicks": 25,
          "midi": 81,
          "name": "A5",
          "ticks": 90608,
          "time": 312.1218005625001,
          "velocity": 0.8818897637795275
        },
        {
          "duration": 0.06510400390624227,
          "durationTicks": 25,
          "midi": 79,
          "name": "G5",
          "ticks": 90640,
          "time": 312.20513368750005,
          "velocity": 0.8818897637795275
        },
        {
          "duration": 0.06510400390629911,
          "durationTicks": 25,
          "midi": 81,
          "name": "A5",
          "ticks": 90672,
          "time": 312.2884668125,
          "velocity": 0.8818897637795275
        },
        {
          "duration": 0.06510400390624227,
          "durationTicks": 25,
          "midi": 79,
          "name": "G5",
          "ticks": 90704,
          "time": 312.37179993750004,
          "velocity": 0.8818897637795275
        },
        {
          "duration": 0.06510400390624227,
          "durationTicks": 25,
          "midi": 81,
          "name": "A5",
          "ticks": 90736,
          "time": 312.45513306250007,
          "velocity": 0.8818897637795275
        },
        {
          "duration": 0.06510400390629911,
          "durationTicks": 25,
          "midi": 79,
          "name": "G5",
          "ticks": 90768,
          "time": 312.53846618750003,
          "velocity": 0.8818897637795275
        },
        {
          "duration": 0.06510400390624227,
          "durationTicks": 25,
          "midi": 81,
          "name": "A5",
          "ticks": 90800,
          "time": 312.62179931250006,
          "velocity": 0.8818897637795275
        },
        {
          "duration": 0.06510400390618543,
          "durationTicks": 25,
          "midi": 79,
          "name": "G5",
          "ticks": 90832,
          "time": 312.7051324375001,
          "velocity": 0.8818897637795275
        },
        {
          "duration": 0.06510400390629911,
          "durationTicks": 25,
          "midi": 81,
          "name": "A5",
          "ticks": 90864,
          "time": 312.78846556250005,
          "velocity": 0.8818897637795275
        },
        {
          "duration": 0.06510400390629911,
          "durationTicks": 25,
          "midi": 79,
          "name": "G5",
          "ticks": 90896,
          "time": 312.8717986875,
          "velocity": 0.8818897637795275
        },
        {
          "duration": 0.06510400390618543,
          "durationTicks": 25,
          "midi": 81,
          "name": "A5",
          "ticks": 90928,
          "time": 312.9551318125001,
          "velocity": 0.8818897637795275
        },
        {
          "duration": 0.06510400390624227,
          "durationTicks": 25,
          "midi": 79,
          "name": "G5",
          "ticks": 90960,
          "time": 313.03846493750007,
          "velocity": 0.8818897637795275
        },
        {
          "duration": 0.06510400390629911,
          "durationTicks": 25,
          "midi": 81,
          "name": "A5",
          "ticks": 90992,
          "time": 313.12179806250003,
          "velocity": 0.8818897637795275
        },
        {
          "duration": 0.06510400390624227,
          "durationTicks": 25,
          "midi": 79,
          "name": "G5",
          "ticks": 91024,
          "time": 313.20513118750006,
          "velocity": 0.8818897637795275
        },
        {
          "duration": 0.06510400390618543,
          "durationTicks": 25,
          "midi": 81,
          "name": "A5",
          "ticks": 91056,
          "time": 313.2884643125001,
          "velocity": 0.8818897637795275
        },
        {
          "duration": 0.06510400390629911,
          "durationTicks": 25,
          "midi": 79,
          "name": "G5",
          "ticks": 91088,
          "time": 313.37179743750005,
          "velocity": 0.8818897637795275
        },
        {
          "duration": 0.06510400390629911,
          "durationTicks": 25,
          "midi": 81,
          "name": "A5",
          "ticks": 91120,
          "time": 313.4551305625,
          "velocity": 0.8818897637795275
        },
        {
          "duration": 0.06510400390618543,
          "durationTicks": 25,
          "midi": 79,
          "name": "G5",
          "ticks": 91152,
          "time": 313.5384636875001,
          "velocity": 0.8818897637795275
        },
        {
          "duration": 0.06510400390624227,
          "durationTicks": 25,
          "midi": 81,
          "name": "A5",
          "ticks": 91184,
          "time": 313.62179681250007,
          "velocity": 0.8818897637795275
        },
        {
          "duration": 0.06510400390629911,
          "durationTicks": 25,
          "midi": 79,
          "name": "G5",
          "ticks": 91216,
          "time": 313.70512993750003,
          "velocity": 0.8818897637795275
        },
        {
          "duration": 0.06510400390624227,
          "durationTicks": 25,
          "midi": 81,
          "name": "A5",
          "ticks": 91248,
          "time": 313.78846306250006,
          "velocity": 0.8818897637795275
        },
        {
          "duration": 0.06510400390618543,
          "durationTicks": 25,
          "midi": 79,
          "name": "G5",
          "ticks": 91280,
          "time": 313.8717961875001,
          "velocity": 0.8818897637795275
        },
        {
          "duration": 0.06510400390629911,
          "durationTicks": 25,
          "midi": 81,
          "name": "A5",
          "ticks": 91312,
          "time": 313.95512931250005,
          "velocity": 0.8818897637795275
        },
        {
          "duration": 0.06510400390629911,
          "durationTicks": 25,
          "midi": 79,
          "name": "G5",
          "ticks": 91344,
          "time": 314.0384624375,
          "velocity": 0.8818897637795275
        },
        {
          "duration": 0.06510400390618543,
          "durationTicks": 25,
          "midi": 81,
          "name": "A5",
          "ticks": 91376,
          "time": 314.1217955625001,
          "velocity": 0.8818897637795275
        },
        {
          "duration": 0.06510400390624227,
          "durationTicks": 25,
          "midi": 79,
          "name": "G5",
          "ticks": 91408,
          "time": 314.20512868750006,
          "velocity": 0.8818897637795275
        },
        {
          "duration": 0.06510400390629911,
          "durationTicks": 25,
          "midi": 81,
          "name": "A5",
          "ticks": 91440,
          "time": 314.28846181250003,
          "velocity": 0.8818897637795275
        },
        {
          "duration": 0.06510400390624227,
          "durationTicks": 25,
          "midi": 79,
          "name": "G5",
          "ticks": 91472,
          "time": 314.37179493750006,
          "velocity": 0.8818897637795275
        },
        {
          "duration": 0.06510400390618543,
          "durationTicks": 25,
          "midi": 81,
          "name": "A5",
          "ticks": 91504,
          "time": 314.4551280625001,
          "velocity": 0.8818897637795275
        },
        {
          "duration": 0.06510400390629911,
          "durationTicks": 25,
          "midi": 79,
          "name": "G5",
          "ticks": 91536,
          "time": 314.53846118750005,
          "velocity": 0.8818897637795275
        },
        {
          "duration": 0.06510400390624227,
          "durationTicks": 25,
          "midi": 81,
          "name": "A5",
          "ticks": 91568,
          "time": 314.62179431250007,
          "velocity": 0.8818897637795275
        },
        {
          "duration": 0.06510400390618543,
          "durationTicks": 25,
          "midi": 79,
          "name": "G5",
          "ticks": 91600,
          "time": 314.7051274375001,
          "velocity": 0.8818897637795275
        },
        {
          "duration": 0.06510400390624227,
          "durationTicks": 25,
          "midi": 81,
          "name": "A5",
          "ticks": 91632,
          "time": 314.78846056250006,
          "velocity": 0.8818897637795275
        },
        {
          "duration": 0.06510400390629911,
          "durationTicks": 25,
          "midi": 79,
          "name": "G5",
          "ticks": 91664,
          "time": 314.87179368750003,
          "velocity": 0.8818897637795275
        },
        {
          "duration": 0.06510400390624227,
          "durationTicks": 25,
          "midi": 81,
          "name": "A5",
          "ticks": 91696,
          "time": 314.95512681250005,
          "velocity": 0.8818897637795275
        },
        {
          "duration": 0.06510400390624227,
          "durationTicks": 25,
          "midi": 79,
          "name": "G5",
          "ticks": 91728,
          "time": 315.0384599375001,
          "velocity": 0.8818897637795275
        },
        {
          "duration": 0.06510400390629911,
          "durationTicks": 25,
          "midi": 81,
          "name": "A5",
          "ticks": 91760,
          "time": 315.12179306250005,
          "velocity": 0.8818897637795275
        },
        {
          "duration": 0.06510400390624227,
          "durationTicks": 25,
          "midi": 79,
          "name": "G5",
          "ticks": 91792,
          "time": 315.20512618750007,
          "velocity": 0.8818897637795275
        },
        {
          "duration": 0.06510400390618543,
          "durationTicks": 25,
          "midi": 81,
          "name": "A5",
          "ticks": 91824,
          "time": 315.2884593125001,
          "velocity": 0.8818897637795275
        },
        {
          "duration": 0.06510400390624227,
          "durationTicks": 25,
          "midi": 79,
          "name": "G5",
          "ticks": 91856,
          "time": 315.37179243750006,
          "velocity": 0.8818897637795275
        },
        {
          "duration": 0.06510400390629911,
          "durationTicks": 25,
          "midi": 81,
          "name": "A5",
          "ticks": 91888,
          "time": 315.45512556250003,
          "velocity": 0.8818897637795275
        },
        {
          "duration": 0.06510400390624227,
          "durationTicks": 25,
          "midi": 79,
          "name": "G5",
          "ticks": 91920,
          "time": 315.53845868750005,
          "velocity": 0.8818897637795275
        },
        {
          "duration": 0.06510400390624227,
          "durationTicks": 25,
          "midi": 81,
          "name": "A5",
          "ticks": 91952,
          "time": 315.6217918125001,
          "velocity": 0.8818897637795275
        },
        {
          "duration": 0.06510400390629911,
          "durationTicks": 25,
          "midi": 79,
          "name": "G5",
          "ticks": 91984,
          "time": 315.70512493750005,
          "velocity": 0.8818897637795275
        },
        {
          "duration": 0.06510400390624227,
          "durationTicks": 25,
          "midi": 81,
          "name": "A5",
          "ticks": 92016,
          "time": 315.78845806250007,
          "velocity": 0.8818897637795275
        },
        {
          "duration": 0.06510400390618543,
          "durationTicks": 25,
          "midi": 79,
          "name": "G5",
          "ticks": 92048,
          "time": 315.8717911875001,
          "velocity": 0.8818897637795275
        },
        {
          "duration": 0.06510400390624227,
          "durationTicks": 25,
          "midi": 81,
          "name": "A5",
          "ticks": 92080,
          "time": 315.95512431250006,
          "velocity": 0.8818897637795275
        },
        {
          "duration": 0.06510400390629911,
          "durationTicks": 25,
          "midi": 79,
          "name": "G5",
          "ticks": 92112,
          "time": 316.0384574375,
          "velocity": 0.8818897637795275
        },
        {
          "duration": 0.06510400390624227,
          "durationTicks": 25,
          "midi": 81,
          "name": "A5",
          "ticks": 92144,
          "time": 316.12179056250005,
          "velocity": 0.8818897637795275
        },
        {
          "duration": 0.06510400390624227,
          "durationTicks": 25,
          "midi": 79,
          "name": "G5",
          "ticks": 92176,
          "time": 316.2051236875001,
          "velocity": 0.8818897637795275
        },
        {
          "duration": 0.06510400390629911,
          "durationTicks": 25,
          "midi": 81,
          "name": "A5",
          "ticks": 92208,
          "time": 316.28845681250004,
          "velocity": 0.8818897637795275
        },
        {
          "duration": 0.06510400390624227,
          "durationTicks": 25,
          "midi": 79,
          "name": "G5",
          "ticks": 92240,
          "time": 316.37178993750007,
          "velocity": 0.8818897637795275
        },
        {
          "duration": 0.15885376953121977,
          "durationTicks": 61,
          "midi": 79,
          "name": "G5",
          "ticks": 92272,
          "time": 316.4551230625001,
          "velocity": 0.8818897637795275
        },
        {
          "duration": 0.1588537695312766,
          "durationTicks": 61,
          "midi": 77,
          "name": "F5",
          "ticks": 92336,
          "time": 316.6217893125,
          "velocity": 0.8818897637795275
        },
        {
          "duration": 0.15885376953121977,
          "durationTicks": 61,
          "midi": 79,
          "name": "G5",
          "ticks": 92400,
          "time": 316.7884555625001,
          "velocity": 0.8818897637795275
        },
        {
          "duration": 0.1588537695312766,
          "durationTicks": 61,
          "midi": 75,
          "name": "D#5",
          "ticks": 92464,
          "time": 316.95512181250007,
          "velocity": 0.8818897637795275
        },
        {
          "duration": 0.15885376953121977,
          "durationTicks": 61,
          "midi": 77,
          "name": "F5",
          "ticks": 92528,
          "time": 317.12178806250006,
          "velocity": 0.8818897637795275
        },
        {
          "duration": 0.1588537695312766,
          "durationTicks": 61,
          "midi": 74,
          "name": "D5",
          "ticks": 92592,
          "time": 317.28845431250005,
          "velocity": 0.8818897637795275
        },
        {
          "duration": 0.1588537695312766,
          "durationTicks": 61,
          "midi": 75,
          "name": "D#5",
          "ticks": 92656,
          "time": 317.45512056250004,
          "velocity": 0.8818897637795275
        },
        {
          "duration": 0.15885376953121977,
          "durationTicks": 61,
          "midi": 72,
          "name": "C5",
          "ticks": 92720,
          "time": 317.6217868125001,
          "velocity": 0.8818897637795275
        },
        {
          "duration": 0.1588537695312766,
          "durationTicks": 61,
          "midi": 77,
          "name": "F5",
          "ticks": 92784,
          "time": 317.7884530625,
          "velocity": 0.8818897637795275
        },
        {
          "duration": 0.15885376953121977,
          "durationTicks": 61,
          "midi": 75,
          "name": "D#5",
          "ticks": 92848,
          "time": 317.9551193125001,
          "velocity": 0.8818897637795275
        },
        {
          "duration": 0.1588537695312766,
          "durationTicks": 61,
          "midi": 77,
          "name": "F5",
          "ticks": 92912,
          "time": 318.12178556250007,
          "velocity": 0.8818897637795275
        },
        {
          "duration": 0.15885376953121977,
          "durationTicks": 61,
          "midi": 74,
          "name": "D5",
          "ticks": 92976,
          "time": 318.28845181250006,
          "velocity": 0.8818897637795275
        },
        {
          "duration": 0.1588537695312766,
          "durationTicks": 61,
          "midi": 75,
          "name": "D#5",
          "ticks": 93040,
          "time": 318.45511806250005,
          "velocity": 0.8818897637795275
        },
        {
          "duration": 0.1588537695312766,
          "durationTicks": 61,
          "midi": 72,
          "name": "C5",
          "ticks": 93104,
          "time": 318.62178431250004,
          "velocity": 0.8818897637795275
        },
        {
          "duration": 0.15885376953121977,
          "durationTicks": 61,
          "midi": 74,
          "name": "D5",
          "ticks": 93168,
          "time": 318.7884505625001,
          "velocity": 0.8818897637795275
        },
        {
          "duration": 0.1588537695312766,
          "durationTicks": 61,
          "midi": 70,
          "name": "A#4",
          "ticks": 93232,
          "time": 318.9551168125,
          "velocity": 0.8818897637795275
        },
        {
          "duration": 0.15885376953121977,
          "durationTicks": 61,
          "midi": 75,
          "name": "D#5",
          "ticks": 93296,
          "time": 319.12178306250007,
          "velocity": 0.8818897637795275
        },
        {
          "duration": 0.1588537695312766,
          "durationTicks": 61,
          "midi": 74,
          "name": "D5",
          "ticks": 93360,
          "time": 319.28844931250006,
          "velocity": 0.8818897637795275
        },
        {
          "duration": 0.15885376953121977,
          "durationTicks": 61,
          "midi": 75,
          "name": "D#5",
          "ticks": 93424,
          "time": 319.45511556250005,
          "velocity": 0.8818897637795275
        },
        {
          "duration": 0.1588537695312766,
          "durationTicks": 61,
          "midi": 72,
          "name": "C5",
          "ticks": 93488,
          "time": 319.62178181250005,
          "velocity": 0.8818897637795275
        },
        {
          "duration": 0.1588537695312766,
          "durationTicks": 61,
          "midi": 74,
          "name": "D5",
          "ticks": 93552,
          "time": 319.78844806250004,
          "velocity": 0.8818897637795275
        },
        {
          "duration": 0.15885376953121977,
          "durationTicks": 61,
          "midi": 70,
          "name": "A#4",
          "ticks": 93616,
          "time": 319.9551143125001,
          "velocity": 0.8818897637795275
        },
        {
          "duration": 0.1588537695312766,
          "durationTicks": 61,
          "midi": 72,
          "name": "C5",
          "ticks": 93680,
          "time": 320.1217805625,
          "velocity": 0.8818897637795275
        },
        {
          "duration": 0.15885376953121977,
          "durationTicks": 61,
          "midi": 69,
          "name": "A4",
          "ticks": 93744,
          "time": 320.28844681250007,
          "velocity": 0.8818897637795275
        },
        {
          "duration": 0.1588537695312766,
          "durationTicks": 61,
          "midi": 74,
          "name": "D5",
          "ticks": 93808,
          "time": 320.45511306250006,
          "velocity": 0.8818897637795275
        },
        {
          "duration": 0.15885376953121977,
          "durationTicks": 61,
          "midi": 72,
          "name": "C5",
          "ticks": 93872,
          "time": 320.62177931250005,
          "velocity": 0.8818897637795275
        },
        {
          "duration": 0.1588537695312766,
          "durationTicks": 61,
          "midi": 74,
          "name": "D5",
          "ticks": 93936,
          "time": 320.78844556250004,
          "velocity": 0.8818897637795275
        },
        {
          "duration": 0.1588537695312766,
          "durationTicks": 61,
          "midi": 70,
          "name": "A#4",
          "ticks": 94000,
          "time": 320.95511181250004,
          "velocity": 0.8818897637795275
        },
        {
          "duration": 0.15885376953121977,
          "durationTicks": 61,
          "midi": 72,
          "name": "C5",
          "ticks": 94064,
          "time": 321.1217780625001,
          "velocity": 0.8818897637795275
        },
        {
          "duration": 0.1588537695312766,
          "durationTicks": 61,
          "midi": 69,
          "name": "A4",
          "ticks": 94128,
          "time": 321.2884443125,
          "velocity": 0.8818897637795275
        },
        {
          "duration": 0.15885376953121977,
          "durationTicks": 61,
          "midi": 70,
          "name": "A#4",
          "ticks": 94192,
          "time": 321.45511056250007,
          "velocity": 0.8818897637795275
        },
        {
          "duration": 0.1588537695312766,
          "durationTicks": 61,
          "midi": 67,
          "name": "G4",
          "ticks": 94256,
          "time": 321.62177681250006,
          "velocity": 0.8818897637795275
        },
        {
          "duration": 0.15885376953121977,
          "durationTicks": 61,
          "midi": 70,
          "name": "A#4",
          "ticks": 94320,
          "time": 321.78844306250005,
          "velocity": 0.8818897637795275
        },
        {
          "duration": 0.15885376953121977,
          "durationTicks": 61,
          "midi": 69,
          "name": "A4",
          "ticks": 94384,
          "time": 321.9551093125001,
          "velocity": 0.8818897637795275
        },
        {
          "duration": 0.1588537695312766,
          "durationTicks": 61,
          "midi": 70,
          "name": "A#4",
          "ticks": 94448,
          "time": 322.12177556250003,
          "velocity": 0.8818897637795275
        },
        {
          "duration": 0.15885376953121977,
          "durationTicks": 61,
          "midi": 72,
          "name": "C5",
          "ticks": 94512,
          "time": 322.2884418125001,
          "velocity": 0.8818897637795275
        },
        {
          "duration": 0.15885376953133346,
          "durationTicks": 61,
          "midi": 70,
          "name": "A#4",
          "ticks": 94576,
          "time": 322.4551080625,
          "velocity": 0.8818897637795275
        },
        {
          "duration": 0.15885376953121977,
          "durationTicks": 61,
          "midi": 69,
          "name": "A4",
          "ticks": 94640,
          "time": 322.62177431250007,
          "velocity": 0.8818897637795275
        },
        {
          "duration": 0.1588537695312766,
          "durationTicks": 61,
          "midi": 67,
          "name": "G4",
          "ticks": 94704,
          "time": 322.78844056250006,
          "velocity": 0.8818897637795275
        },
        {
          "duration": 0.3177075390624964,
          "durationTicks": 122,
          "midi": 66,
          "name": "F#4",
          "ticks": 94768,
          "time": 322.95510681250005,
          "velocity": 0.8818897637795275
        },
        {
          "duration": 0.3177075390625532,
          "durationTicks": 122,
          "midi": 69,
          "name": "A4",
          "ticks": 94896,
          "time": 323.28843931250003,
          "velocity": 0.8818897637795275
        },
        {
          "duration": 0.1588537695312766,
          "durationTicks": 61,
          "midi": 74,
          "name": "D5",
          "ticks": 95024,
          "time": 323.62177181250007,
          "velocity": 0.8818897637795275
        },
        {
          "duration": 0.15885376953121977,
          "durationTicks": 61,
          "midi": 67,
          "name": "G4",
          "ticks": 95088,
          "time": 323.78843806250006,
          "velocity": 0.8818897637795275
        },
        {
          "duration": 0.1588537695312766,
          "durationTicks": 61,
          "midi": 72,
          "name": "C5",
          "ticks": 95152,
          "time": 323.95510431250005,
          "velocity": 0.8818897637795275
        },
        {
          "duration": 0.15885376953121977,
          "durationTicks": 61,
          "midi": 66,
          "name": "F#4",
          "ticks": 95216,
          "time": 324.12177056250005,
          "velocity": 0.8818897637795275
        },
        {
          "duration": 0.15885376953121977,
          "durationTicks": 61,
          "midi": 70,
          "name": "A#4",
          "ticks": 95280,
          "time": 324.2884368125001,
          "velocity": 0.8818897637795275
        },
        {
          "duration": 0.1588537695312766,
          "durationTicks": 61,
          "midi": 67,
          "name": "G4",
          "ticks": 95344,
          "time": 324.45510306250003,
          "velocity": 0.8818897637795275
        },
        {
          "duration": 0.15885376953121977,
          "durationTicks": 61,
          "midi": 74,
          "name": "D5",
          "ticks": 95408,
          "time": 324.6217693125001,
          "velocity": 0.8818897637795275
        },
        {
          "duration": 0.1588537695312766,
          "durationTicks": 61,
          "midi": 69,
          "name": "A4",
          "ticks": 95472,
          "time": 324.78843556250007,
          "velocity": 0.8818897637795275
        },
        {
          "duration": 0.15885376953121977,
          "durationTicks": 61,
          "midi": 70,
          "name": "A#4",
          "ticks": 95536,
          "time": 324.95510181250006,
          "velocity": 0.8818897637795275
        },
        {
          "duration": 0.1588537695312766,
          "durationTicks": 61,
          "midi": 67,
          "name": "G4",
          "ticks": 95600,
          "time": 325.12176806250005,
          "velocity": 0.8818897637795275
        },
        {
          "duration": 0.1588537695312766,
          "durationTicks": 61,
          "midi": 69,
          "name": "A4",
          "ticks": 95664,
          "time": 325.28843431250004,
          "velocity": 0.8818897637795275
        },
        {
          "duration": 0.15885376953121977,
          "durationTicks": 61,
          "midi": 66,
          "name": "F#4",
          "ticks": 95728,
          "time": 325.4551005625001,
          "velocity": 0.8818897637795275
        },
        {
          "duration": 0.1588537695312766,
          "durationTicks": 61,
          "midi": 67,
          "name": "G4",
          "ticks": 95792,
          "time": 325.6217668125,
          "velocity": 0.8818897637795275
        },
        {
          "duration": 0.15885376953121977,
          "durationTicks": 61,
          "midi": 74,
          "name": "D5",
          "ticks": 95856,
          "time": 325.7884330625001,
          "velocity": 0.8818897637795275
        },
        {
          "duration": 0.1588537695312766,
          "durationTicks": 61,
          "midi": 66,
          "name": "F#4",
          "ticks": 95920,
          "time": 325.95509931250007,
          "velocity": 0.8818897637795275
        },
        {
          "duration": 0.15885376953121977,
          "durationTicks": 61,
          "midi": 74,
          "name": "D5",
          "ticks": 95984,
          "time": 326.12176556250006,
          "velocity": 0.8818897637795275
        },
        {
          "duration": 0.1588537695312766,
          "durationTicks": 61,
          "midi": 67,
          "name": "G4",
          "ticks": 96048,
          "time": 326.28843181250005,
          "velocity": 0.8818897637795275
        },
        {
          "duration": 0.1588537695312766,
          "durationTicks": 61,
          "midi": 74,
          "name": "D5",
          "ticks": 96112,
          "time": 326.45509806250004,
          "velocity": 0.8818897637795275
        },
        {
          "duration": 0.15885376953121977,
          "durationTicks": 61,
          "midi": 69,
          "name": "A4",
          "ticks": 96176,
          "time": 326.6217643125001,
          "velocity": 0.8818897637795275
        },
        {
          "duration": 0.1588537695312766,
          "durationTicks": 61,
          "midi": 74,
          "name": "D5",
          "ticks": 96240,
          "time": 326.7884305625,
          "velocity": 0.8818897637795275
        },
        {
          "duration": 0.15885376953121977,
          "durationTicks": 61,
          "midi": 70,
          "name": "A#4",
          "ticks": 96304,
          "time": 326.9550968125001,
          "velocity": 0.8818897637795275
        },
        {
          "duration": 0.1588537695312766,
          "durationTicks": 61,
          "midi": 67,
          "name": "G4",
          "ticks": 96368,
          "time": 327.12176306250007,
          "velocity": 0.8818897637795275
        },
        {
          "duration": 0.15885376953121977,
          "durationTicks": 61,
          "midi": 74,
          "name": "D5",
          "ticks": 96432,
          "time": 327.28842931250006,
          "velocity": 0.8818897637795275
        },
        {
          "duration": 0.1588537695312766,
          "durationTicks": 61,
          "midi": 69,
          "name": "A4",
          "ticks": 96496,
          "time": 327.45509556250005,
          "velocity": 0.8818897637795275
        },
        {
          "duration": 0.1588537695312766,
          "durationTicks": 61,
          "midi": 70,
          "name": "A#4",
          "ticks": 96560,
          "time": 327.62176181250004,
          "velocity": 0.8818897637795275
        },
        {
          "duration": 0.15885376953121977,
          "durationTicks": 61,
          "midi": 67,
          "name": "G4",
          "ticks": 96624,
          "time": 327.7884280625001,
          "velocity": 0.8818897637795275
        },
        {
          "duration": 0.1588537695312766,
          "durationTicks": 61,
          "midi": 72,
          "name": "C5",
          "ticks": 96688,
          "time": 327.9550943125,
          "velocity": 0.8818897637795275
        },
        {
          "duration": 0.15885376953121977,
          "durationTicks": 61,
          "midi": 69,
          "name": "A4",
          "ticks": 96752,
          "time": 328.12176056250007,
          "velocity": 0.8818897637795275
        },
        {
          "duration": 0.1588537695312766,
          "durationTicks": 61,
          "midi": 74,
          "name": "D5",
          "ticks": 96816,
          "time": 328.28842681250006,
          "velocity": 0.8818897637795275
        },
        {
          "duration": 0.15885376953121977,
          "durationTicks": 61,
          "midi": 72,
          "name": "C5",
          "ticks": 96880,
          "time": 328.45509306250005,
          "velocity": 0.8818897637795275
        },
        {
          "duration": 0.1588537695312766,
          "durationTicks": 61,
          "midi": 70,
          "name": "A#4",
          "ticks": 96944,
          "time": 328.62175931250005,
          "velocity": 0.8818897637795275
        },
        {
          "duration": 0.1588537695312766,
          "durationTicks": 61,
          "midi": 69,
          "name": "A4",
          "ticks": 97008,
          "time": 328.78842556250004,
          "velocity": 0.8818897637795275
        },
        {
          "duration": 0.15885376953121977,
          "durationTicks": 61,
          "midi": 70,
          "name": "A#4",
          "ticks": 97072,
          "time": 328.9550918125001,
          "velocity": 0.8818897637795275
        },
        {
          "duration": 0.1588537695312766,
          "durationTicks": 61,
          "midi": 69,
          "name": "A4",
          "ticks": 97136,
          "time": 329.1217580625,
          "velocity": 0.8818897637795275
        },
        {
          "duration": 0.15885376953121977,
          "durationTicks": 61,
          "midi": 70,
          "name": "A#4",
          "ticks": 97200,
          "time": 329.28842431250007,
          "velocity": 0.8818897637795275
        },
        {
          "duration": 0.1588537695312766,
          "durationTicks": 61,
          "midi": 67,
          "name": "G4",
          "ticks": 97264,
          "time": 329.45509056250006,
          "velocity": 0.8818897637795275
        },
        {
          "duration": 0.15885376953121977,
          "durationTicks": 61,
          "midi": 69,
          "name": "A4",
          "ticks": 97328,
          "time": 329.62175681250005,
          "velocity": 0.8818897637795275
        },
        {
          "duration": 0.15885376953121977,
          "durationTicks": 61,
          "midi": 70,
          "name": "A#4",
          "ticks": 97392,
          "time": 329.7884230625001,
          "velocity": 0.8818897637795275
        },
        {
          "duration": 0.1588537695312766,
          "durationTicks": 61,
          "midi": 72,
          "name": "C5",
          "ticks": 97456,
          "time": 329.95508931250004,
          "velocity": 0.8818897637795275
        },
        {
          "duration": 0.15885376953121977,
          "durationTicks": 61,
          "midi": 74,
          "name": "D5",
          "ticks": 97520,
          "time": 330.1217555625001,
          "velocity": 0.8818897637795275
        },
        {
          "duration": 0.1588537695312766,
          "durationTicks": 61,
          "midi": 75,
          "name": "D#5",
          "ticks": 97584,
          "time": 330.2884218125,
          "velocity": 0.8818897637795275
        },
        {
          "duration": 0.15885376953121977,
          "durationTicks": 61,
          "midi": 74,
          "name": "D5",
          "ticks": 97648,
          "time": 330.45508806250007,
          "velocity": 0.8818897637795275
        },
        {
          "duration": 0.1588537695312766,
          "durationTicks": 61,
          "midi": 72,
          "name": "C5",
          "ticks": 97712,
          "time": 330.62175431250006,
          "velocity": 0.8818897637795275
        },
        {
          "duration": 0.15885376953121977,
          "durationTicks": 61,
          "midi": 74,
          "name": "D5",
          "ticks": 97776,
          "time": 330.78842056250005,
          "velocity": 0.8818897637795275
        },
        {
          "duration": 0.15885376953121977,
          "durationTicks": 61,
          "midi": 70,
          "name": "A#4",
          "ticks": 97840,
          "time": 330.9550868125001,
          "velocity": 0.8818897637795275
        },
        {
          "duration": 0.1588537695312766,
          "durationTicks": 61,
          "midi": 72,
          "name": "C5",
          "ticks": 97904,
          "time": 331.12175306250003,
          "velocity": 0.8818897637795275
        },
        {
          "duration": 0.15885376953121977,
          "durationTicks": 61,
          "midi": 69,
          "name": "A4",
          "ticks": 97968,
          "time": 331.2884193125001,
          "velocity": 0.8818897637795275
        },
        {
          "duration": 0.15885376953133346,
          "durationTicks": 61,
          "midi": 70,
          "name": "A#4",
          "ticks": 98032,
          "time": 331.4550855625,
          "velocity": 0.8818897637795275
        },
        {
          "duration": 0.3177075390624964,
          "durationTicks": 122,
          "midi": 67,
          "name": "G4",
          "ticks": 98096,
          "time": 331.62175181250007,
          "velocity": 0.8818897637795275
        },
        {
          "duration": 0.3177075390625532,
          "durationTicks": 122,
          "midi": 71,
          "name": "B4",
          "ticks": 98224,
          "time": 331.95508431250005,
          "velocity": 0.8818897637795275
        },
        {
          "duration": 0.1588537695312766,
          "durationTicks": 61,
          "midi": 72,
          "name": "C5",
          "ticks": 98352,
          "time": 332.28841681250003,
          "velocity": 0.8818897637795275
        },
        {
          "duration": 0.15885376953121977,
          "durationTicks": 61,
          "midi": 75,
          "name": "D#5",
          "ticks": 98416,
          "time": 332.4550830625001,
          "velocity": 0.8818897637795275
        },
        {
          "duration": 0.1588537695312766,
          "durationTicks": 61,
          "midi": 77,
          "name": "F5",
          "ticks": 98480,
          "time": 332.62174931250007,
          "velocity": 0.8818897637795275
        },
        {
          "duration": 0.15885376953121977,
          "durationTicks": 61,
          "midi": 79,
          "name": "G5",
          "ticks": 98544,
          "time": 332.78841556250006,
          "velocity": 0.8818897637795275
        },
        {
          "duration": 0.1588537695312766,
          "durationTicks": 61,
          "midi": 80,
          "name": "G#5",
          "ticks": 98608,
          "time": 332.95508181250005,
          "velocity": 0.8818897637795275
        },
        {
          "duration": 0.1588537695312766,
          "durationTicks": 61,
          "midi": 79,
          "name": "G5",
          "ticks": 98672,
          "time": 333.12174806250005,
          "velocity": 0.8818897637795275
        },
        {
          "duration": 0.15885376953121977,
          "durationTicks": 61,
          "midi": 77,
          "name": "F5",
          "ticks": 98736,
          "time": 333.2884143125001,
          "velocity": 0.8818897637795275
        },
        {
          "duration": 0.1588537695312766,
          "durationTicks": 61,
          "midi": 79,
          "name": "G5",
          "ticks": 98800,
          "time": 333.45508056250003,
          "velocity": 0.8818897637795275
        },
        {
          "duration": 0.15885376953121977,
          "durationTicks": 61,
          "midi": 75,
          "name": "D#5",
          "ticks": 98864,
          "time": 333.6217468125001,
          "velocity": 0.8818897637795275
        },
        {
          "duration": 0.1588537695312766,
          "durationTicks": 61,
          "midi": 77,
          "name": "F5",
          "ticks": 98928,
          "time": 333.78841306250007,
          "velocity": 0.8818897637795275
        },
        {
          "duration": 0.15885376953121977,
          "durationTicks": 61,
          "midi": 74,
          "name": "D5",
          "ticks": 98992,
          "time": 333.95507931250006,
          "velocity": 0.8818897637795275
        },
        {
          "duration": 0.1588537695312766,
          "durationTicks": 61,
          "midi": 75,
          "name": "D#5",
          "ticks": 99056,
          "time": 334.12174556250005,
          "velocity": 0.8818897637795275
        },
        {
          "duration": 0.3177075390625532,
          "durationTicks": 122,
          "midi": 72,
          "name": "C5",
          "ticks": 99120,
          "time": 334.28841181250004,
          "velocity": 0.8818897637795275
        },
        {
          "duration": 0.3177075390625532,
          "durationTicks": 122,
          "midi": 70,
          "name": "A#4",
          "ticks": 99248,
          "time": 334.6217443125,
          "velocity": 0.8818897637795275
        },
        {
          "duration": 0.3177075390624964,
          "durationTicks": 122,
          "midi": 69,
          "name": "A4",
          "ticks": 99376,
          "time": 334.95507681250007,
          "velocity": 0.8818897637795275
        },
        {
          "duration": 0.6510400390624795,
          "durationTicks": 250,
          "midi": 70,
          "name": "A#4",
          "ticks": 99504,
          "time": 335.28840931250005,
          "velocity": 0.8818897637795275
        },
        {
          "duration": 0.6510400390624795,
          "durationTicks": 250,
          "midi": 69,
          "name": "A4",
          "ticks": 99760,
          "time": 335.9550743125001,
          "velocity": 0.8818897637795275
        },
        {
          "duration": 0.6510400390625364,
          "durationTicks": 250,
          "midi": 67,
          "name": "G4",
          "ticks": 100016,
          "time": 336.62173931250004,
          "velocity": 0.8818897637795275
        },
        {
          "duration": 0.3177075390624964,
          "durationTicks": 122,
          "midi": 66,
          "name": "F#4",
          "ticks": 100272,
          "time": 337.28840431250006,
          "velocity": 0.8818897637795275
        },
        {
          "duration": 0.3177075390624964,
          "durationTicks": 122,
          "midi": 65,
          "name": "F4",
          "ticks": 100400,
          "time": 337.62173681250005,
          "velocity": 0.8818897637795275
        },
        {
          "duration": 0.6510400390624795,
          "durationTicks": 250,
          "midi": 63,
          "name": "D#4",
          "ticks": 100528,
          "time": 337.9550693125001,
          "velocity": 0.8818897637795275
        },
        {
          "duration": 0.15885376953121977,
          "durationTicks": 61,
          "midi": 62,
          "name": "D4",
          "ticks": 100784,
          "time": 338.62173431250005,
          "velocity": 0.8818897637795275
        },
        {
          "duration": 0.15885376953121977,
          "durationTicks": 61,
          "midi": 70,
          "name": "A#4",
          "ticks": 100848,
          "time": 338.7884005625001,
          "velocity": 0.8818897637795275
        },
        {
          "duration": 0.1588537695312766,
          "durationTicks": 61,
          "midi": 69,
          "name": "A4",
          "ticks": 100912,
          "time": 338.95506681250004,
          "velocity": 0.8818897637795275
        },
        {
          "duration": 0.15885376953121977,
          "durationTicks": 61,
          "midi": 70,
          "name": "A#4",
          "ticks": 100976,
          "time": 339.1217330625001,
          "velocity": 0.8818897637795275
        },
        {
          "duration": 0.15885376953133346,
          "durationTicks": 61,
          "midi": 69,
          "name": "A4",
          "ticks": 101040,
          "time": 339.2883993125,
          "velocity": 0.8818897637795275
        },
        {
          "duration": 0.15885376953121977,
          "durationTicks": 61,
          "midi": 67,
          "name": "G4",
          "ticks": 101104,
          "time": 339.45506556250007,
          "velocity": 0.8818897637795275
        },
        {
          "duration": 0.1588537695312766,
          "durationTicks": 61,
          "midi": 66,
          "name": "F#4",
          "ticks": 101168,
          "time": 339.62173181250006,
          "velocity": 0.8818897637795275
        },
        {
          "duration": 0.15885376953121977,
          "durationTicks": 61,
          "midi": 75,
          "name": "D#5",
          "ticks": 101232,
          "time": 339.78839806250005,
          "velocity": 0.8818897637795275
        },
        {
          "duration": 0.15885376953121977,
          "durationTicks": 61,
          "midi": 74,
          "name": "D5",
          "ticks": 101296,
          "time": 339.9550643125001,
          "velocity": 0.8818897637795275
        },
        {
          "duration": 0.1588537695312766,
          "durationTicks": 61,
          "midi": 72,
          "name": "C5",
          "ticks": 101360,
          "time": 340.12173056250003,
          "velocity": 0.8818897637795275
        },
        {
          "duration": 0.15885376953121977,
          "durationTicks": 61,
          "midi": 70,
          "name": "A#4",
          "ticks": 101424,
          "time": 340.2883968125001,
          "velocity": 0.8818897637795275
        },
        {
          "duration": 0.1588537695312766,
          "durationTicks": 61,
          "midi": 81,
          "name": "A5",
          "ticks": 101488,
          "time": 340.4550630625001,
          "velocity": 0.8818897637795275
        },
        {
          "duration": 0.15885376953121977,
          "durationTicks": 61,
          "midi": 79,
          "name": "G5",
          "ticks": 101552,
          "time": 340.62172931250007,
          "velocity": 0.8818897637795275
        },
        {
          "duration": 0.1588537695312766,
          "durationTicks": 61,
          "midi": 78,
          "name": "F#5",
          "ticks": 101616,
          "time": 340.78839556250006,
          "velocity": 0.8818897637795275
        },
        {
          "duration": 0.476561308593773,
          "durationTicks": 183,
          "midi": 79,
          "name": "G5",
          "ticks": 101680,
          "time": 340.95506181250005,
          "velocity": 0.8818897637795275
        },
        {
          "duration": 0.15885376953121977,
          "durationTicks": 61,
          "midi": 77,
          "name": "F5",
          "ticks": 101872,
          "time": 341.4550605625001,
          "velocity": 0.8818897637795275
        },
        {
          "duration": 0.1588537695312766,
          "durationTicks": 61,
          "midi": 75,
          "name": "D#5",
          "ticks": 101936,
          "time": 341.62172681250007,
          "velocity": 0.8818897637795275
        },
        {
          "duration": 0.15885376953121977,
          "durationTicks": 61,
          "midi": 77,
          "name": "F5",
          "ticks": 102000,
          "time": 341.78839306250006,
          "velocity": 0.8818897637795275
        },
        {
          "duration": 0.1588537695312766,
          "durationTicks": 61,
          "midi": 74,
          "name": "D5",
          "ticks": 102064,
          "time": 341.95505931250005,
          "velocity": 0.8818897637795275
        },
        {
          "duration": 0.1588537695312766,
          "durationTicks": 61,
          "midi": 75,
          "name": "D#5",
          "ticks": 102128,
          "time": 342.12172556250005,
          "velocity": 0.8818897637795275
        },
        {
          "duration": 0.6354150781249928,
          "durationTicks": 244,
          "midi": 73,
          "name": "C#5",
          "ticks": 102192,
          "time": 342.2883918125001,
          "velocity": 0.8818897637795275
        },
        {
          "duration": 0.1588537695312766,
          "durationTicks": 61,
          "midi": 70,
          "name": "A#4",
          "ticks": 102256,
          "time": 342.45505806250003,
          "velocity": 0.8818897637795275
        },
        {
          "duration": 0.15885376953121977,
          "durationTicks": 61,
          "midi": 69,
          "name": "A4",
          "ticks": 102320,
          "time": 342.6217243125001,
          "velocity": 0.8818897637795275
        },
        {
          "duration": 0.1588537695312766,
          "durationTicks": 61,
          "midi": 67,
          "name": "G4",
          "ticks": 102384,
          "time": 342.78839056250007,
          "velocity": 0.8818897637795275
        },
        {
          "duration": 0.6354150781249928,
          "durationTicks": 244,
          "midi": 74,
          "name": "D5",
          "ticks": 102448,
          "time": 342.95505681250006,
          "velocity": 0.8818897637795275
        },
        {
          "duration": 0.6354150781249928,
          "durationTicks": 244,
          "midi": 69,
          "name": "A4",
          "ticks": 102448,
          "time": 342.95505681250006,
          "velocity": 0.8818897637795275
        },
        {
          "duration": 0.6354150781249928,
          "durationTicks": 244,
          "midi": 72,
          "name": "C5",
          "ticks": 102704,
          "time": 343.6217218125,
          "velocity": 0.8818897637795275
        },
        {
          "duration": 0.6354150781249928,
          "durationTicks": 244,
          "midi": 66,
          "name": "F#4",
          "ticks": 102704,
          "time": 343.6217218125,
          "velocity": 0.8818897637795275
        },
        {
          "duration": 0.6354150781250496,
          "durationTicks": 244,
          "midi": 70,
          "name": "A#4",
          "ticks": 102960,
          "time": 344.28838681250005,
          "velocity": 0.8818897637795275
        },
        {
          "duration": 0.1588537695312766,
          "durationTicks": 61,
          "midi": 67,
          "name": "G4",
          "ticks": 102960,
          "time": 344.28838681250005,
          "velocity": 0.8818897637795275
        },
        {
          "duration": 0.1588537695312766,
          "durationTicks": 61,
          "midi": 65,
          "name": "F4",
          "ticks": 103024,
          "time": 344.45505306250004,
          "velocity": 0.8818897637795275
        },
        {
          "duration": 0.15885376953121977,
          "durationTicks": 61,
          "midi": 63,
          "name": "D#4",
          "ticks": 103088,
          "time": 344.6217193125001,
          "velocity": 0.8818897637795275
        },
        {
          "duration": 0.1588537695312766,
          "durationTicks": 61,
          "midi": 62,
          "name": "D4",
          "ticks": 103152,
          "time": 344.7883855625,
          "velocity": 0.8818897637795275
        },
        {
          "duration": 0.3177075390624964,
          "durationTicks": 122,
          "midi": 69,
          "name": "A4",
          "ticks": 103216,
          "time": 344.9550518125001,
          "velocity": 0.8818897637795275
        },
        {
          "duration": 0.3177075390624964,
          "durationTicks": 122,
          "midi": 61,
          "name": "C#4",
          "ticks": 103216,
          "time": 344.9550518125001,
          "velocity": 0.8818897637795275
        },
        {
          "duration": 0.3177075390624964,
          "durationTicks": 122,
          "midi": 73,
          "name": "C#5",
          "ticks": 103344,
          "time": 345.28838431250006,
          "velocity": 0.8818897637795275
        },
        {
          "duration": 0.3177075390624964,
          "durationTicks": 122,
          "midi": 64,
          "name": "E4",
          "ticks": 103344,
          "time": 345.28838431250006,
          "velocity": 0.8818897637795275
        },
        {
          "duration": 0.3177075390625532,
          "durationTicks": 122,
          "midi": 74,
          "name": "D5",
          "ticks": 103472,
          "time": 345.62171681250004,
          "velocity": 0.8818897637795275
        },
        {
          "duration": 0.3177075390625532,
          "durationTicks": 122,
          "midi": 65,
          "name": "F4",
          "ticks": 103472,
          "time": 345.62171681250004,
          "velocity": 0.8818897637795275
        },
        {
          "duration": 0.3177075390625532,
          "durationTicks": 122,
          "midi": 76,
          "name": "E5",
          "ticks": 103600,
          "time": 345.9550493125,
          "velocity": 0.8818897637795275
        },
        {
          "duration": 0.3177075390625532,
          "durationTicks": 122,
          "midi": 67,
          "name": "G4",
          "ticks": 103600,
          "time": 345.9550493125,
          "velocity": 0.8818897637795275
        },
        {
          "duration": 0.6354150781249928,
          "durationTicks": 244,
          "midi": 77,
          "name": "F5",
          "ticks": 103728,
          "time": 346.28838181250006,
          "velocity": 0.8818897637795275
        },
        {
          "duration": 0.1588537695312766,
          "durationTicks": 61,
          "midi": 69,
          "name": "A4",
          "ticks": 103728,
          "time": 346.28838181250006,
          "velocity": 0.8818897637795275
        },
        {
          "duration": 0.15885376953121977,
          "durationTicks": 61,
          "midi": 67,
          "name": "G4",
          "ticks": 103792,
          "time": 346.45504806250005,
          "velocity": 0.8818897637795275
        },
        {
          "duration": 0.15885376953121977,
          "durationTicks": 61,
          "midi": 69,
          "name": "A4",
          "ticks": 103856,
          "time": 346.6217143125001,
          "velocity": 0.8818897637795275
        },
        {
          "duration": 0.9687475781249759,
          "durationTicks": 372,
          "midi": 74,
          "name": "D5",
          "ticks": 103856,
          "time": 346.6217143125001,
          "velocity": 0.8818897637795275
        },
        {
          "duration": 0.1588537695312766,
          "durationTicks": 61,
          "midi": 65,
          "name": "F4",
          "ticks": 103920,
          "time": 346.78838056250004,
          "velocity": 0.8818897637795275
        },
        {
          "duration": 1.2682259960937472,
          "durationTicks": 487,
          "midi": 76,
          "name": "E5",
          "ticks": 103984,
          "time": 346.9550468125001,
          "velocity": 0.8818897637795275
        },
        {
          "duration": 0.15885376953121977,
          "durationTicks": 61,
          "midi": 67,
          "name": "G4",
          "ticks": 103984,
          "time": 346.9550468125001,
          "velocity": 0.8818897637795275
        },
        {
          "duration": 0.1588537695312766,
          "durationTicks": 61,
          "midi": 69,
          "name": "A4",
          "ticks": 104048,
          "time": 347.1217130625,
          "velocity": 0.8818897637795275
        },
        {
          "duration": 0.15885376953121977,
          "durationTicks": 61,
          "midi": 67,
          "name": "G4",
          "ticks": 104112,
          "time": 347.28837931250007,
          "velocity": 0.8818897637795275
        },
        {
          "duration": 0.1588537695312766,
          "durationTicks": 61,
          "midi": 69,
          "name": "A4",
          "ticks": 104176,
          "time": 347.45504556250006,
          "velocity": 0.8818897637795275
        },
        {
          "duration": 0.15885376953121977,
          "durationTicks": 61,
          "midi": 70,
          "name": "A#4",
          "ticks": 104240,
          "time": 347.62171181250005,
          "velocity": 0.8818897637795275
        },
        {
          "duration": 0.6354150781249928,
          "durationTicks": 244,
          "midi": 73,
          "name": "C#5",
          "ticks": 104240,
          "time": 347.62171181250005,
          "velocity": 0.8818897637795275
        },
        {
          "duration": 0.15885376953121977,
          "durationTicks": 61,
          "midi": 69,
          "name": "A4",
          "ticks": 104304,
          "time": 347.7883780625001,
          "velocity": 0.8818897637795275
        },
        {
          "duration": 0.1588537695312766,
          "durationTicks": 61,
          "midi": 67,
          "name": "G4",
          "ticks": 104368,
          "time": 347.95504431250004,
          "velocity": 0.8818897637795275
        },
        {
          "duration": 0.15885376953121977,
          "durationTicks": 61,
          "midi": 69,
          "name": "A4",
          "ticks": 104432,
          "time": 348.1217105625001,
          "velocity": 0.8818897637795275
        },
        {
          "duration": 0.15885376953133346,
          "durationTicks": 61,
          "midi": 69,
          "name": "A4",
          "ticks": 104496,
          "time": 348.2883768125,
          "velocity": 0.8818897637795275
        },
        {
          "duration": 0.15885376953133346,
          "durationTicks": 61,
          "midi": 65,
          "name": "F4",
          "ticks": 104496,
          "time": 348.2883768125,
          "velocity": 0.8818897637795275
        },
        {
          "duration": 0.9505184570313077,
          "durationTicks": 365,
          "midi": 74,
          "name": "D5",
          "ticks": 104496,
          "time": 348.2883768125,
          "velocity": 0.8818897637795275
        },
        {
          "duration": 0.15885376953121977,
          "durationTicks": 61,
          "midi": 70,
          "name": "A#4",
          "ticks": 104560,
          "time": 348.45504306250007,
          "velocity": 0.8818897637795275
        },
        {
          "duration": 0.15885376953121977,
          "durationTicks": 61,
          "midi": 67,
          "name": "G4",
          "ticks": 104560,
          "time": 348.45504306250007,
          "velocity": 0.8818897637795275
        },
        {
          "duration": 0.1588537695312766,
          "durationTicks": 61,
          "midi": 67,
          "name": "G4",
          "ticks": 104624,
          "time": 348.62170931250006,
          "velocity": 0.8818897637795275
        },
        {
          "duration": 0.1588537695312766,
          "durationTicks": 61,
          "midi": 64,
          "name": "E4",
          "ticks": 104624,
          "time": 348.62170931250006,
          "velocity": 0.8818897637795275
        },
        {
          "duration": 0.15885376953121977,
          "durationTicks": 61,
          "midi": 69,
          "name": "A4",
          "ticks": 104688,
          "time": 348.78837556250005,
          "velocity": 0.8818897637795275
        },
        {
          "duration": 0.15885376953121977,
          "durationTicks": 61,
          "midi": 65,
          "name": "F4",
          "ticks": 104688,
          "time": 348.78837556250005,
          "velocity": 0.8818897637795275
        },
        {
          "duration": 0.31770753906243954,
          "durationTicks": 122,
          "midi": 65,
          "name": "F4",
          "ticks": 104752,
          "time": 348.9550418125001,
          "velocity": 0.8818897637795275
        },
        {
          "duration": 0.15885376953121977,
          "durationTicks": 61,
          "midi": 62,
          "name": "D4",
          "ticks": 104752,
          "time": 348.9550418125001,
          "velocity": 0.8818897637795275
        },
        {
          "duration": 0.31770753906243954,
          "durationTicks": 122,
          "midi": 69,
          "name": "A4",
          "ticks": 104880,
          "time": 349.2883743125001,
          "velocity": 0.8818897637795275
        },
        {
          "duration": 0.31770753906243954,
          "durationTicks": 122,
          "midi": 77,
          "name": "F5",
          "ticks": 104880,
          "time": 349.2883743125001,
          "velocity": 0.8818897637795275
        },
        {
          "duration": 0.3177075390624964,
          "durationTicks": 122,
          "midi": 79,
          "name": "G5",
          "ticks": 105008,
          "time": 349.62170681250007,
          "velocity": 0.8818897637795275
        },
        {
          "duration": 0.3177075390624964,
          "durationTicks": 122,
          "midi": 67,
          "name": "G4",
          "ticks": 105008,
          "time": 349.62170681250007,
          "velocity": 0.8818897637795275
        },
        {
          "duration": 0.3177075390625532,
          "durationTicks": 122,
          "midi": 74,
          "name": "D5",
          "ticks": 105136,
          "time": 349.95503931250005,
          "velocity": 0.8818897637795275
        },
        {
          "duration": 0.3177075390625532,
          "durationTicks": 122,
          "midi": 69,
          "name": "A4",
          "ticks": 105136,
          "time": 349.95503931250005,
          "velocity": 0.8818897637795275
        },
        {
          "duration": 0.3177075390625532,
          "durationTicks": 122,
          "midi": 73,
          "name": "C#5",
          "ticks": 105264,
          "time": 350.28837181250003,
          "velocity": 0.8818897637795275
        },
        {
          "duration": 0.3177075390625532,
          "durationTicks": 122,
          "midi": 67,
          "name": "G4",
          "ticks": 105264,
          "time": 350.28837181250003,
          "velocity": 0.8818897637795275
        },
        {
          "duration": 0.3177075390624964,
          "durationTicks": 122,
          "midi": 74,
          "name": "D5",
          "ticks": 105392,
          "time": 350.62170431250007,
          "velocity": 0.8818897637795275
        },
        {
          "duration": 0.3177075390624964,
          "durationTicks": 122,
          "midi": 65,
          "name": "F4",
          "ticks": 105392,
          "time": 350.62170431250007,
          "velocity": 0.8818897637795275
        },
        {
          "duration": 0.3177075390624964,
          "durationTicks": 122,
          "midi": 76,
          "name": "E5",
          "ticks": 105520,
          "time": 350.95503681250005,
          "velocity": 0.8818897637795275
        },
        {
          "duration": 0.3177075390624964,
          "durationTicks": 122,
          "midi": 67,
          "name": "G4",
          "ticks": 105520,
          "time": 350.95503681250005,
          "velocity": 0.8818897637795275
        },
        {
          "duration": 0.31770753906243954,
          "durationTicks": 122,
          "midi": 74,
          "name": "D5",
          "ticks": 105648,
          "time": 351.2883693125001,
          "velocity": 0.8818897637795275
        },
        {
          "duration": 0.31770753906243954,
          "durationTicks": 122,
          "midi": 65,
          "name": "F4",
          "ticks": 105648,
          "time": 351.2883693125001,
          "velocity": 0.8818897637795275
        },
        {
          "duration": 0.3177075390624964,
          "durationTicks": 122,
          "midi": 73,
          "name": "C#5",
          "ticks": 105776,
          "time": 351.6217018125001,
          "velocity": 0.8818897637795275
        },
        {
          "duration": 0.3177075390624964,
          "durationTicks": 122,
          "midi": 64,
          "name": "E4",
          "ticks": 105776,
          "time": 351.6217018125001,
          "velocity": 0.8818897637795275
        },
        {
          "duration": 0.3177075390624964,
          "durationTicks": 122,
          "midi": 74,
          "name": "D5",
          "ticks": 105904,
          "time": 351.95503431250006,
          "velocity": 0.8818897637795275
        },
        {
          "duration": 0.3177075390624964,
          "durationTicks": 122,
          "midi": 69,
          "name": "A4",
          "ticks": 105904,
          "time": 351.95503431250006,
          "velocity": 0.8818897637795275
        },
        {
          "duration": 0.3177075390625532,
          "durationTicks": 122,
          "midi": 76,
          "name": "E5",
          "ticks": 106032,
          "time": 352.28836681250004,
          "velocity": 0.8818897637795275
        },
        {
          "duration": 0.3177075390625532,
          "durationTicks": 122,
          "midi": 70,
          "name": "A#4",
          "ticks": 106032,
          "time": 352.28836681250004,
          "velocity": 0.8818897637795275
        },
        {
          "duration": 0.3177075390625532,
          "durationTicks": 122,
          "midi": 74,
          "name": "D5",
          "ticks": 106160,
          "time": 352.6216993125,
          "velocity": 0.8818897637795275
        },
        {
          "duration": 0.3177075390625532,
          "durationTicks": 122,
          "midi": 69,
          "name": "A4",
          "ticks": 106160,
          "time": 352.6216993125,
          "velocity": 0.8818897637795275
        },
        {
          "duration": 0.3177075390624964,
          "durationTicks": 122,
          "midi": 73,
          "name": "C#5",
          "ticks": 106288,
          "time": 352.95503181250007,
          "velocity": 0.8818897637795275
        },
        {
          "duration": 0.3177075390624964,
          "durationTicks": 122,
          "midi": 67,
          "name": "G4",
          "ticks": 106288,
          "time": 352.95503181250007,
          "velocity": 0.8818897637795275
        },
        {
          "duration": 0.3177075390624964,
          "durationTicks": 122,
          "midi": 74,
          "name": "D5",
          "ticks": 106416,
          "time": 353.28836431250005,
          "velocity": 0.8818897637795275
        },
        {
          "duration": 0.3177075390624964,
          "durationTicks": 122,
          "midi": 65,
          "name": "F4",
          "ticks": 106416,
          "time": 353.28836431250005,
          "velocity": 0.8818897637795275
        },
        {
          "duration": 0.31770753906243954,
          "durationTicks": 122,
          "midi": 76,
          "name": "E5",
          "ticks": 106544,
          "time": 353.6216968125001,
          "velocity": 0.8818897637795275
        },
        {
          "duration": 0.31770753906243954,
          "durationTicks": 122,
          "midi": 67,
          "name": "G4",
          "ticks": 106544,
          "time": 353.6216968125001,
          "velocity": 0.8818897637795275
        },
        {
          "duration": 0.3177075390624964,
          "durationTicks": 122,
          "midi": 79,
          "name": "G5",
          "ticks": 106672,
          "time": 353.9550293125001,
          "velocity": 0.8818897637795275
        },
        {
          "duration": 0.3177075390624964,
          "durationTicks": 122,
          "midi": 76,
          "name": "E5",
          "ticks": 106672,
          "time": 353.9550293125001,
          "velocity": 0.8818897637795275
        },
        {
          "duration": 0.3177075390624964,
          "durationTicks": 122,
          "midi": 77,
          "name": "F5",
          "ticks": 106800,
          "time": 354.28836181250006,
          "velocity": 0.8818897637795275
        },
        {
          "duration": 0.3177075390624964,
          "durationTicks": 122,
          "midi": 74,
          "name": "D5",
          "ticks": 106800,
          "time": 354.28836181250006,
          "velocity": 0.8818897637795275
        },
        {
          "duration": 0.3177075390625532,
          "durationTicks": 122,
          "midi": 74,
          "name": "D5",
          "ticks": 106928,
          "time": 354.62169431250004,
          "velocity": 0.8818897637795275
        },
        {
          "duration": 0.3177075390625532,
          "durationTicks": 122,
          "midi": 69,
          "name": "A4",
          "ticks": 106928,
          "time": 354.62169431250004,
          "velocity": 0.8818897637795275
        },
        {
          "duration": 0.3177075390625532,
          "durationTicks": 122,
          "midi": 70,
          "name": "A#4",
          "ticks": 107056,
          "time": 354.9550268125,
          "velocity": 0.8818897637795275
        },
        {
          "duration": 0.3177075390625532,
          "durationTicks": 122,
          "midi": 67,
          "name": "G4",
          "ticks": 107056,
          "time": 354.9550268125,
          "velocity": 0.8818897637795275
        },
        {
          "duration": 0.3177075390624964,
          "durationTicks": 122,
          "midi": 76,
          "name": "E5",
          "ticks": 107184,
          "time": 355.28835931250006,
          "velocity": 0.8818897637795275
        },
        {
          "duration": 0.3177075390624964,
          "durationTicks": 122,
          "midi": 67,
          "name": "G4",
          "ticks": 107184,
          "time": 355.28835931250006,
          "velocity": 0.8818897637795275
        },
        {
          "duration": 0.31770753906243954,
          "durationTicks": 122,
          "midi": 74,
          "name": "D5",
          "ticks": 107312,
          "time": 355.6216918125001,
          "velocity": 0.8818897637795275
        },
        {
          "duration": 0.31770753906243954,
          "durationTicks": 122,
          "midi": 69,
          "name": "A4",
          "ticks": 107312,
          "time": 355.6216918125001,
          "velocity": 0.8818897637795275
        },
        {
          "duration": 0.31770753906243954,
          "durationTicks": 122,
          "midi": 74,
          "name": "D5",
          "ticks": 107440,
          "time": 355.9550243125001,
          "velocity": 0.8818897637795275
        },
        {
          "duration": 0.31770753906243954,
          "durationTicks": 122,
          "midi": 65,
          "name": "F4",
          "ticks": 107440,
          "time": 355.9550243125001,
          "velocity": 0.8818897637795275
        },
        {
          "duration": 0.6354150781249928,
          "durationTicks": 244,
          "midi": 73,
          "name": "C#5",
          "ticks": 107568,
          "time": 356.28835681250007,
          "velocity": 0.8818897637795275
        },
        {
          "duration": 0.15885376953121977,
          "durationTicks": 61,
          "midi": 64,
          "name": "E4",
          "ticks": 107568,
          "time": 356.28835681250007,
          "velocity": 0.8818897637795275
        },
        {
          "duration": 0.1588537695312766,
          "durationTicks": 61,
          "midi": 69,
          "name": "A4",
          "ticks": 107632,
          "time": 356.45502306250006,
          "velocity": 0.8818897637795275
        },
        {
          "duration": 0.15885376953121977,
          "durationTicks": 61,
          "midi": 67,
          "name": "G4",
          "ticks": 107696,
          "time": 356.62168931250005,
          "velocity": 0.8818897637795275
        },
        {
          "duration": 0.15885376953121977,
          "durationTicks": 61,
          "midi": 69,
          "name": "A4",
          "ticks": 107760,
          "time": 356.7883555625001,
          "velocity": 0.8818897637795275
        },
        {
          "duration": 0.3177075390625532,
          "durationTicks": 122,
          "midi": 74,
          "name": "D5",
          "ticks": 107824,
          "time": 356.95502181250004,
          "velocity": 0.8818897637795275
        },
        {
          "duration": 0.1588537695312766,
          "durationTicks": 61,
          "midi": 65,
          "name": "F4",
          "ticks": 107824,
          "time": 356.95502181250004,
          "velocity": 0.8818897637795275
        },
        {
          "duration": 0.15885376953121977,
          "durationTicks": 61,
          "midi": 69,
          "name": "A4",
          "ticks": 107888,
          "time": 357.1216880625001,
          "velocity": 0.8818897637795275
        },
        {
          "duration": 0.3177075390624964,
          "durationTicks": 122,
          "midi": 76,
          "name": "E5",
          "ticks": 107952,
          "time": 357.2883543125001,
          "velocity": 0.8818897637795275
        },
        {
          "duration": 0.1588537695312766,
          "durationTicks": 61,
          "midi": 64,
          "name": "E4",
          "ticks": 107952,
          "time": 357.2883543125001,
          "velocity": 0.8818897637795275
        },
        {
          "duration": 0.15885376953121977,
          "durationTicks": 61,
          "midi": 69,
          "name": "A4",
          "ticks": 108016,
          "time": 357.45502056250007,
          "velocity": 0.8818897637795275
        },
        {
          "duration": 0.3177075390624964,
          "durationTicks": 122,
          "midi": 77,
          "name": "F5",
          "ticks": 108080,
          "time": 357.62168681250006,
          "velocity": 0.8818897637795275
        },
        {
          "duration": 0.1588537695312766,
          "durationTicks": 61,
          "midi": 62,
          "name": "D4",
          "ticks": 108080,
          "time": 357.62168681250006,
          "velocity": 0.8818897637795275
        },
        {
          "duration": 0.15885376953121977,
          "durationTicks": 61,
          "midi": 69,
          "name": "A4",
          "ticks": 108144,
          "time": 357.78835306250005,
          "velocity": 0.8818897637795275
        },
        {
          "duration": 0.31770753906243954,
          "durationTicks": 122,
          "midi": 76,
          "name": "E5",
          "ticks": 108208,
          "time": 357.9550193125001,
          "velocity": 0.8818897637795275
        },
        {
          "duration": 0.15885376953121977,
          "durationTicks": 61,
          "midi": 61,
          "name": "C#4",
          "ticks": 108208,
          "time": 357.9550193125001,
          "velocity": 0.8818897637795275
        },
        {
          "duration": 0.1588537695312766,
          "durationTicks": 61,
          "midi": 69,
          "name": "A4",
          "ticks": 108272,
          "time": 358.12168556250003,
          "velocity": 0.8818897637795275
        },
        {
          "duration": 0.31770753906243954,
          "durationTicks": 122,
          "midi": 77,
          "name": "F5",
          "ticks": 108336,
          "time": 358.2883518125001,
          "velocity": 0.8818897637795275
        },
        {
          "duration": 0.15885376953121977,
          "durationTicks": 61,
          "midi": 62,
          "name": "D4",
          "ticks": 108336,
          "time": 358.2883518125001,
          "velocity": 0.8818897637795275
        },
        {
          "duration": 0.1588537695312766,
          "durationTicks": 61,
          "midi": 69,
          "name": "A4",
          "ticks": 108400,
          "time": 358.4550180625001,
          "velocity": 0.8818897637795275
        },
        {
          "duration": 0.3177075390624964,
          "durationTicks": 122,
          "midi": 73,
          "name": "C#5",
          "ticks": 108464,
          "time": 358.62168431250007,
          "velocity": 0.8818897637795275
        },
        {
          "duration": 0.15885376953121977,
          "durationTicks": 61,
          "midi": 64,
          "name": "E4",
          "ticks": 108464,
          "time": 358.62168431250007,
          "velocity": 0.8818897637795275
        },
        {
          "duration": 0.1588537695312766,
          "durationTicks": 61,
          "midi": 69,
          "name": "A4",
          "ticks": 108528,
          "time": 358.78835056250006,
          "velocity": 0.8818897637795275
        },
        {
          "duration": 0.3177075390625532,
          "durationTicks": 122,
          "midi": 74,
          "name": "D5",
          "ticks": 108592,
          "time": 358.95501681250005,
          "velocity": 0.8818897637795275
        },
        {
          "duration": 0.1588537695312766,
          "durationTicks": 61,
          "midi": 65,
          "name": "F4",
          "ticks": 108592,
          "time": 358.95501681250005,
          "velocity": 0.8818897637795275
        },
        {
          "duration": 0.15885376953121977,
          "durationTicks": 61,
          "midi": 69,
          "name": "A4",
          "ticks": 108656,
          "time": 359.1216830625001,
          "velocity": 0.8818897637795275
        },
        {
          "duration": 0.3177075390625532,
          "durationTicks": 122,
          "midi": 73,
          "name": "C#5",
          "ticks": 108720,
          "time": 359.28834931250003,
          "velocity": 0.8818897637795275
        },
        {
          "duration": 0.1588537695312766,
          "durationTicks": 61,
          "midi": 57,
          "name": "A3",
          "ticks": 108720,
          "time": 359.28834931250003,
          "velocity": 0.8818897637795275
        },
        {
          "duration": 0.15885376953121977,
          "durationTicks": 61,
          "midi": 69,
          "name": "A4",
          "ticks": 108784,
          "time": 359.4550155625001,
          "velocity": 0.8818897637795275
        },
        {
          "duration": 0.3177075390624964,
          "durationTicks": 122,
          "midi": 74,
          "name": "D5",
          "ticks": 108848,
          "time": 359.62168181250007,
          "velocity": 0.8818897637795275
        },
        {
          "duration": 0.1588537695312766,
          "durationTicks": 61,
          "midi": 59,
          "name": "B3",
          "ticks": 108848,
          "time": 359.62168181250007,
          "velocity": 0.8818897637795275
        },
        {
          "duration": 0.15885376953121977,
          "durationTicks": 61,
          "midi": 69,
          "name": "A4",
          "ticks": 108912,
          "time": 359.78834806250006,
          "velocity": 0.8818897637795275
        },
        {
          "duration": 0.3177075390624964,
          "durationTicks": 122,
          "midi": 76,
          "name": "E5",
          "ticks": 108976,
          "time": 359.95501431250005,
          "velocity": 0.8818897637795275
        },
        {
          "duration": 0.1588537695312766,
          "durationTicks": 61,
          "midi": 61,
          "name": "C#4",
          "ticks": 108976,
          "time": 359.95501431250005,
          "velocity": 0.8818897637795275
        },
        {
          "duration": 0.1588537695312766,
          "durationTicks": 61,
          "midi": 69,
          "name": "A4",
          "ticks": 109040,
          "time": 360.12168056250005,
          "velocity": 0.8818897637795275
        },
        {
          "duration": 0.31770753906243954,
          "durationTicks": 122,
          "midi": 77,
          "name": "F5",
          "ticks": 109104,
          "time": 360.2883468125001,
          "velocity": 0.8818897637795275
        },
        {
          "duration": 0.15885376953121977,
          "durationTicks": 61,
          "midi": 62,
          "name": "D4",
          "ticks": 109104,
          "time": 360.2883468125001,
          "velocity": 0.8818897637795275
        },
        {
          "duration": 0.1588537695312766,
          "durationTicks": 61,
          "midi": 69,
          "name": "A4",
          "ticks": 109168,
          "time": 360.45501306250003,
          "velocity": 0.8818897637795275
        },
        {
          "duration": 0.3177075390624964,
          "durationTicks": 122,
          "midi": 76,
          "name": "E5",
          "ticks": 109232,
          "time": 360.6216793125001,
          "velocity": 0.8818897637795275
        },
        {
          "duration": 0.15885376953121977,
          "durationTicks": 61,
          "midi": 61,
          "name": "C#4",
          "ticks": 109232,
          "time": 360.6216793125001,
          "velocity": 0.8818897637795275
        },
        {
          "duration": 0.1588537695312766,
          "durationTicks": 61,
          "midi": 69,
          "name": "A4",
          "ticks": 109296,
          "time": 360.78834556250007,
          "velocity": 0.8818897637795275
        },
        {
          "duration": 0.3177075390624964,
          "durationTicks": 122,
          "midi": 77,
          "name": "F5",
          "ticks": 109360,
          "time": 360.95501181250006,
          "velocity": 0.8818897637795275
        },
        {
          "duration": 0.15885376953121977,
          "durationTicks": 61,
          "midi": 62,
          "name": "D4",
          "ticks": 109360,
          "time": 360.95501181250006,
          "velocity": 0.8818897637795275
        },
        {
          "duration": 0.1588537695312766,
          "durationTicks": 61,
          "midi": 69,
          "name": "A4",
          "ticks": 109424,
          "time": 361.12167806250005,
          "velocity": 0.8818897637795275
        },
        {
          "duration": 0.3177075390625532,
          "durationTicks": 122,
          "midi": 79,
          "name": "G5",
          "ticks": 109488,
          "time": 361.28834431250004,
          "velocity": 0.8818897637795275
        },
        {
          "duration": 0.1588537695312766,
          "durationTicks": 61,
          "midi": 64,
          "name": "E4",
          "ticks": 109488,
          "time": 361.28834431250004,
          "velocity": 0.8818897637795275
        },
        {
          "duration": 0.15885376953121977,
          "durationTicks": 61,
          "midi": 69,
          "name": "A4",
          "ticks": 109552,
          "time": 361.4550105625001,
          "velocity": 0.8818897637795275
        },
        {
          "duration": 0.1588537695312766,
          "durationTicks": 61,
          "midi": 81,
          "name": "A5",
          "ticks": 109616,
          "time": 361.6216768125,
          "velocity": 0.8818897637795275
        },
        {
          "duration": 0.3177075390625532,
          "durationTicks": 122,
          "midi": 65,
          "name": "F4",
          "ticks": 109616,
          "time": 361.6216768125,
          "velocity": 0.8818897637795275
        },
        {
          "duration": 0.15885376953121977,
          "durationTicks": 61,
          "midi": 82,
          "name": "A#5",
          "ticks": 109680,
          "time": 361.7883430625001,
          "velocity": 0.8818897637795275
        },
        {
          "duration": 0.1588537695312766,
          "durationTicks": 61,
          "midi": 79,
          "name": "G5",
          "ticks": 109744,
          "time": 361.95500931250007,
          "velocity": 0.8818897637795275
        },
        {
          "duration": 0.3177075390624964,
          "durationTicks": 122,
          "midi": 64,
          "name": "E4",
          "ticks": 109744,
          "time": 361.95500931250007,
          "velocity": 0.8818897637795275
        },
        {
          "duration": 0.15885376953121977,
          "durationTicks": 61,
          "midi": 81,
          "name": "A5",
          "ticks": 109808,
          "time": 362.12167556250006,
          "velocity": 0.8818897637795275
        },
        {
          "duration": 0.1588537695312766,
          "durationTicks": 61,
          "midi": 77,
          "name": "F5",
          "ticks": 109872,
          "time": 362.28834181250005,
          "velocity": 0.8818897637795275
        },
        {
          "duration": 0.3177075390624964,
          "durationTicks": 122,
          "midi": 62,
          "name": "D4",
          "ticks": 109872,
          "time": 362.28834181250005,
          "velocity": 0.8818897637795275
        },
        {
          "duration": 0.1588537695312766,
          "durationTicks": 61,
          "midi": 79,
          "name": "G5",
          "ticks": 109936,
          "time": 362.45500806250004,
          "velocity": 0.8818897637795275
        },
        {
          "duration": 0.15885376953121977,
          "durationTicks": 61,
          "midi": 76,
          "name": "E5",
          "ticks": 110000,
          "time": 362.6216743125001,
          "velocity": 0.8818897637795275
        },
        {
          "duration": 0.31770753906243954,
          "durationTicks": 122,
          "midi": 67,
          "name": "G4",
          "ticks": 110000,
          "time": 362.6216743125001,
          "velocity": 0.8818897637795275
        },
        {
          "duration": 0.1588537695312766,
          "durationTicks": 61,
          "midi": 77,
          "name": "F5",
          "ticks": 110064,
          "time": 362.7883405625,
          "velocity": 0.8818897637795275
        },
        {
          "duration": 0.15885376953121977,
          "durationTicks": 61,
          "midi": 74,
          "name": "D5",
          "ticks": 110128,
          "time": 362.9550068125001,
          "velocity": 0.8818897637795275
        },
        {
          "duration": 0.3177075390624964,
          "durationTicks": 122,
          "midi": 65,
          "name": "F4",
          "ticks": 110128,
          "time": 362.9550068125001,
          "velocity": 0.8818897637795275
        },
        {
          "duration": 0.1588537695312766,
          "durationTicks": 61,
          "midi": 69,
          "name": "A4",
          "ticks": 110192,
          "time": 363.12167306250007,
          "velocity": 0.8818897637795275
        },
        {
          "duration": 0.15885376953121977,
          "durationTicks": 61,
          "midi": 73,
          "name": "C#5",
          "ticks": 110256,
          "time": 363.28833931250006,
          "velocity": 0.8818897637795275
        },
        {
          "duration": 0.3177075390624964,
          "durationTicks": 122,
          "midi": 64,
          "name": "E4",
          "ticks": 110256,
          "time": 363.28833931250006,
          "velocity": 0.8818897637795275
        },
        {
          "duration": 0.1588537695312766,
          "durationTicks": 61,
          "midi": 69,
          "name": "A4",
          "ticks": 110320,
          "time": 363.45500556250005,
          "velocity": 0.8818897637795275
        },
        {
          "duration": 0.1588537695312766,
          "durationTicks": 61,
          "midi": 74,
          "name": "D5",
          "ticks": 110384,
          "time": 363.62167181250004,
          "velocity": 0.8818897637795275
        },
        {
          "duration": 0.3177075390625532,
          "durationTicks": 122,
          "midi": 65,
          "name": "F4",
          "ticks": 110384,
          "time": 363.62167181250004,
          "velocity": 0.8818897637795275
        },
        {
          "duration": 0.15885376953121977,
          "durationTicks": 61,
          "midi": 69,
          "name": "A4",
          "ticks": 110448,
          "time": 363.7883380625001,
          "velocity": 0.8818897637795275
        },
        {
          "duration": 0.1588537695312766,
          "durationTicks": 61,
          "midi": 76,
          "name": "E5",
          "ticks": 110512,
          "time": 363.9550043125,
          "velocity": 0.8818897637795275
        },
        {
          "duration": 0.3177075390625532,
          "durationTicks": 122,
          "midi": 61,
          "name": "C#4",
          "ticks": 110512,
          "time": 363.9550043125,
          "velocity": 0.8818897637795275
        },
        {
          "duration": 0.15885376953121977,
          "durationTicks": 61,
          "midi": 69,
          "name": "A4",
          "ticks": 110576,
          "time": 364.12167056250007,
          "velocity": 0.8818897637795275
        },
        {
          "duration": 0.1588537695312766,
          "durationTicks": 61,
          "midi": 77,
          "name": "F5",
          "ticks": 110640,
          "time": 364.28833681250006,
          "velocity": 0.8818897637795275
        },
        {
          "duration": 0.3177075390624964,
          "durationTicks": 122,
          "midi": 62,
          "name": "D4",
          "ticks": 110640,
          "time": 364.28833681250006,
          "velocity": 0.8818897637795275
        },
        {
          "duration": 0.15885376953121977,
          "durationTicks": 61,
          "midi": 69,
          "name": "A4",
          "ticks": 110704,
          "time": 364.45500306250005,
          "velocity": 0.8818897637795275
        },
        {
          "duration": 0.15885376953121977,
          "durationTicks": 61,
          "midi": 76,
          "name": "E5",
          "ticks": 110768,
          "time": 364.6216693125001,
          "velocity": 0.8818897637795275
        },
        {
          "duration": 0.31770753906243954,
          "durationTicks": 122,
          "midi": 61,
          "name": "C#4",
          "ticks": 110768,
          "time": 364.6216693125001,
          "velocity": 0.8818897637795275
        },
        {
          "duration": 0.1588537695312766,
          "durationTicks": 61,
          "midi": 69,
          "name": "A4",
          "ticks": 110832,
          "time": 364.78833556250004,
          "velocity": 0.8818897637795275
        },
        {
          "duration": 0.15885376953121977,
          "durationTicks": 61,
          "midi": 77,
          "name": "F5",
          "ticks": 110896,
          "time": 364.9550018125001,
          "velocity": 0.8818897637795275
        },
        {
          "duration": 0.31770753906243954,
          "durationTicks": 122,
          "midi": 62,
          "name": "D4",
          "ticks": 110896,
          "time": 364.9550018125001,
          "velocity": 0.8818897637795275
        },
        {
          "duration": 0.15885376953133346,
          "durationTicks": 61,
          "midi": 69,
          "name": "A4",
          "ticks": 110960,
          "time": 365.1216680625,
          "velocity": 0.8818897637795275
        },
        {
          "duration": 0.15885376953121977,
          "durationTicks": 61,
          "midi": 79,
          "name": "G5",
          "ticks": 111024,
          "time": 365.28833431250007,
          "velocity": 0.8818897637795275
        },
        {
          "duration": 0.3177075390624964,
          "durationTicks": 122,
          "midi": 59,
          "name": "B3",
          "ticks": 111024,
          "time": 365.28833431250007,
          "velocity": 0.8818897637795275
        },
        {
          "duration": 0.1588537695312766,
          "durationTicks": 61,
          "midi": 69,
          "name": "A4",
          "ticks": 111088,
          "time": 365.45500056250006,
          "velocity": 0.8818897637795275
        },
        {
          "duration": 0.15885376953121977,
          "durationTicks": 61,
          "midi": 81,
          "name": "A5",
          "ticks": 111152,
          "time": 365.62166681250005,
          "velocity": 0.8818897637795275
        },
        {
          "duration": 0.3177075390624964,
          "durationTicks": 122,
          "midi": 61,
          "name": "C#4",
          "ticks": 111152,
          "time": 365.62166681250005,
          "velocity": 0.8818897637795275
        },
        {
          "duration": 0.15885376953121977,
          "durationTicks": 61,
          "midi": 69,
          "name": "A4",
          "ticks": 111216,
          "time": 365.7883330625001,
          "velocity": 0.8818897637795275
        },
        {
          "duration": 0.1588537695312766,
          "durationTicks": 61,
          "midi": 76,
          "name": "E5",
          "ticks": 111280,
          "time": 365.95499931250004,
          "velocity": 0.8818897637795275
        },
        {
          "duration": 0.3177075390625532,
          "durationTicks": 122,
          "midi": 67,
          "name": "G4",
          "ticks": 111280,
          "time": 365.95499931250004,
          "velocity": 0.8818897637795275
        },
        {
          "duration": 0.15885376953121977,
          "durationTicks": 61,
          "midi": 69,
          "name": "A4",
          "ticks": 111344,
          "time": 366.1216655625001,
          "velocity": 0.8818897637795275
        },
        {
          "duration": 0.1588537695312766,
          "durationTicks": 61,
          "midi": 77,
          "name": "F5",
          "ticks": 111408,
          "time": 366.2883318125001,
          "velocity": 0.8818897637795275
        },
        {
          "duration": 0.3177075390624964,
          "durationTicks": 122,
          "midi": 65,
          "name": "F4",
          "ticks": 111408,
          "time": 366.2883318125001,
          "velocity": 0.8818897637795275
        },
        {
          "duration": 0.15885376953121977,
          "durationTicks": 61,
          "midi": 69,
          "name": "A4",
          "ticks": 111472,
          "time": 366.45499806250007,
          "velocity": 0.8818897637795275
        },
        {
          "duration": 0.1588537695312766,
          "durationTicks": 61,
          "midi": 79,
          "name": "G5",
          "ticks": 111536,
          "time": 366.62166431250006,
          "velocity": 0.8818897637795275
        },
        {
          "duration": 0.3177075390624964,
          "durationTicks": 122,
          "midi": 62,
          "name": "D4",
          "ticks": 111536,
          "time": 366.62166431250006,
          "velocity": 0.8818897637795275
        },
        {
          "duration": 0.15885376953121977,
          "durationTicks": 61,
          "midi": 69,
          "name": "A4",
          "ticks": 111600,
          "time": 366.78833056250005,
          "velocity": 0.8818897637795275
        },
        {
          "duration": 0.6354150781249928,
          "durationTicks": 244,
          "midi": 81,
          "name": "A5",
          "ticks": 111664,
          "time": 366.9549968125001,
          "velocity": 0.8818897637795275
        },
        {
          "duration": 0.6354150781249928,
          "durationTicks": 244,
          "midi": 61,
          "name": "C#4",
          "ticks": 111664,
          "time": 366.9549968125001,
          "velocity": 0.8818897637795275
        },
        {
          "duration": 0.15885376953121977,
          "durationTicks": 61,
          "midi": 76,
          "name": "E5",
          "ticks": 113776,
          "time": 372.4549830625001,
          "velocity": 0.8818897637795275
        },
        {
          "duration": 0.1588537695312766,
          "durationTicks": 61,
          "midi": 74,
          "name": "D5",
          "ticks": 113840,
          "time": 372.62164931250004,
          "velocity": 0.8818897637795275
        },
        {
          "duration": 0.15885376953121977,
          "durationTicks": 61,
          "midi": 73,
          "name": "C#5",
          "ticks": 113904,
          "time": 372.7883155625001,
          "velocity": 0.8818897637795275
        },
        {
          "duration": 0.3177075390625532,
          "durationTicks": 122,
          "midi": 74,
          "name": "D5",
          "ticks": 113968,
          "time": 372.9549818125,
          "velocity": 0.8818897637795275
        },
        {
          "duration": 0.15885376953121977,
          "durationTicks": 61,
          "midi": 77,
          "name": "F5",
          "ticks": 114160,
          "time": 373.45498056250005,
          "velocity": 0.8818897637795275
        },
        {
          "duration": 0.15885376953121977,
          "durationTicks": 61,
          "midi": 76,
          "name": "E5",
          "ticks": 114224,
          "time": 373.6216468125001,
          "velocity": 0.8818897637795275
        },
        {
          "duration": 0.1588537695312766,
          "durationTicks": 61,
          "midi": 77,
          "name": "F5",
          "ticks": 114288,
          "time": 373.78831306250004,
          "velocity": 0.8818897637795275
        },
        {
          "duration": 0.15885376953121977,
          "durationTicks": 61,
          "midi": 79,
          "name": "G5",
          "ticks": 114352,
          "time": 373.9549793125001,
          "velocity": 0.8818897637795275
        },
        {
          "duration": 0.15885376953133346,
          "durationTicks": 61,
          "midi": 81,
          "name": "A5",
          "ticks": 114416,
          "time": 374.1216455625,
          "velocity": 0.8818897637795275
        },
        {
          "duration": 0.15885376953121977,
          "durationTicks": 61,
          "midi": 82,
          "name": "A#5",
          "ticks": 114480,
          "time": 374.28831181250007,
          "velocity": 0.8818897637795275
        },
        {
          "duration": 0.1588537695312766,
          "durationTicks": 61,
          "midi": 81,
          "name": "A5",
          "ticks": 114544,
          "time": 374.45497806250006,
          "velocity": 0.8818897637795275
        },
        {
          "duration": 0.15885376953121977,
          "durationTicks": 61,
          "midi": 79,
          "name": "G5",
          "ticks": 114608,
          "time": 374.62164431250005,
          "velocity": 0.8818897637795275
        },
        {
          "duration": 0.15885376953121977,
          "durationTicks": 61,
          "midi": 81,
          "name": "A5",
          "ticks": 114672,
          "time": 374.7883105625001,
          "velocity": 0.8818897637795275
        },
        {
          "duration": 0.3177075390625532,
          "durationTicks": 122,
          "midi": 77,
          "name": "F5",
          "ticks": 114736,
          "time": 374.95497681250004,
          "velocity": 0.8818897637795275
        },
        {
          "duration": 0.3177075390624964,
          "durationTicks": 122,
          "midi": 76,
          "name": "E5",
          "ticks": 114864,
          "time": 375.2883093125001,
          "velocity": 0.8818897637795275
        },
        {
          "duration": 0.1588537695312766,
          "durationTicks": 61,
          "midi": 74,
          "name": "D5",
          "ticks": 114992,
          "time": 375.62164181250006,
          "velocity": 0.8818897637795275
        },
        {
          "duration": 0.1588537695312766,
          "durationTicks": 61,
          "midi": 76,
          "name": "E5",
          "ticks": 115056,
          "time": 375.78830806250005,
          "velocity": 0.8818897637795275
        },
        {
          "duration": 0.15885376953121977,
          "durationTicks": 61,
          "midi": 77,
          "name": "F5",
          "ticks": 115120,
          "time": 375.9549743125001,
          "velocity": 0.8818897637795275
        },
        {
          "duration": 0.1588537695312766,
          "durationTicks": 61,
          "midi": 75,
          "name": "D#5",
          "ticks": 115184,
          "time": 376.12164056250003,
          "velocity": 0.8818897637795275
        },
        {
          "duration": 0.15885376953121977,
          "durationTicks": 61,
          "midi": 74,
          "name": "D5",
          "ticks": 115248,
          "time": 376.2883068125001,
          "velocity": 0.8818897637795275
        },
        {
          "duration": 0.1588537695312766,
          "durationTicks": 61,
          "midi": 72,
          "name": "C5",
          "ticks": 115312,
          "time": 376.4549730625001,
          "velocity": 0.8818897637795275
        },
        {
          "duration": 0.15885376953121977,
          "durationTicks": 61,
          "midi": 70,
          "name": "A#4",
          "ticks": 115376,
          "time": 376.62163931250006,
          "velocity": 0.8818897637795275
        },
        {
          "duration": 0.1588537695312766,
          "durationTicks": 61,
          "midi": 69,
          "name": "A4",
          "ticks": 115440,
          "time": 376.78830556250006,
          "velocity": 0.8818897637795275
        },
        {
          "duration": 0.1588537695312766,
          "durationTicks": 61,
          "midi": 67,
          "name": "G4",
          "ticks": 115504,
          "time": 376.95497181250005,
          "velocity": 0.8818897637795275
        },
        {
          "duration": 0.15885376953121977,
          "durationTicks": 61,
          "midi": 69,
          "name": "A4",
          "ticks": 115568,
          "time": 377.1216380625001,
          "velocity": 0.8818897637795275
        },
        {
          "duration": 0.1588537695312766,
          "durationTicks": 61,
          "midi": 70,
          "name": "A#4",
          "ticks": 115632,
          "time": 377.28830431250003,
          "velocity": 0.8818897637795275
        },
        {
          "duration": 0.15885376953121977,
          "durationTicks": 61,
          "midi": 72,
          "name": "C5",
          "ticks": 115696,
          "time": 377.4549705625001,
          "velocity": 0.8818897637795275
        },
        {
          "duration": 0.6354150781249928,
          "durationTicks": 244,
          "midi": 69,
          "name": "A4",
          "ticks": 115760,
          "time": 377.62163681250007,
          "velocity": 0.8818897637795275
        },
        {
          "duration": 0.6510400390624795,
          "durationTicks": 250,
          "midi": 72,
          "name": "C5",
          "ticks": 116144,
          "time": 378.6216343125001,
          "velocity": 0.8818897637795275
        },
        {
          "duration": 0.3177075390625532,
          "durationTicks": 122,
          "midi": 70,
          "name": "A#4",
          "ticks": 116400,
          "time": 379.28829931250004,
          "velocity": 0.8818897637795275
        },
        {
          "duration": 0.3177075390624964,
          "durationTicks": 122,
          "midi": 79,
          "name": "G5",
          "ticks": 116656,
          "time": 379.95496431250007,
          "velocity": 0.8818897637795275
        },
        {
          "duration": 0.1588537695312766,
          "durationTicks": 61,
          "midi": 75,
          "name": "D#5",
          "ticks": 116784,
          "time": 380.28829681250005,
          "velocity": 0.8818897637795275
        },
        {
          "duration": 0.1588537695312766,
          "durationTicks": 61,
          "midi": 77,
          "name": "F5",
          "ticks": 116848,
          "time": 380.45496306250004,
          "velocity": 0.8818897637795275
        },
        {
          "duration": 0.15885376953121977,
          "durationTicks": 61,
          "midi": 74,
          "name": "D5",
          "ticks": 116912,
          "time": 380.6216293125001,
          "velocity": 0.8818897637795275
        },
        {
          "duration": 0.1588537695312766,
          "durationTicks": 61,
          "midi": 75,
          "name": "D#5",
          "ticks": 116976,
          "time": 380.7882955625,
          "velocity": 0.8818897637795275
        },
        {
          "duration": 0.15885376953121977,
          "durationTicks": 61,
          "midi": 72,
          "name": "C5",
          "ticks": 117040,
          "time": 380.9549618125001,
          "velocity": 0.8818897637795275
        },
        {
          "duration": 0.1588537695312766,
          "durationTicks": 61,
          "midi": 70,
          "name": "A#4",
          "ticks": 117104,
          "time": 381.12162806250006,
          "velocity": 0.8818897637795275
        },
        {
          "duration": 0.15885376953121977,
          "durationTicks": 61,
          "midi": 69,
          "name": "A4",
          "ticks": 117168,
          "time": 381.28829431250006,
          "velocity": 0.8818897637795275
        },
        {
          "duration": 0.15885376953121977,
          "durationTicks": 61,
          "midi": 67,
          "name": "G4",
          "ticks": 117232,
          "time": 381.4549605625001,
          "velocity": 0.8818897637795275
        },
        {
          "duration": 0.6354150781249928,
          "durationTicks": 244,
          "midi": 69,
          "name": "A4",
          "ticks": 117296,
          "time": 381.62162681250004,
          "velocity": 0.8818897637795275
        },
        {
          "duration": 0.15885376953121977,
          "durationTicks": 61,
          "midi": 60,
          "name": "C4",
          "ticks": 119600,
          "time": 387.6216118125001,
          "velocity": 0.8818897637795275
        },
        {
          "duration": 0.1588537695312766,
          "durationTicks": 61,
          "midi": 63,
          "name": "D#4",
          "ticks": 119664,
          "time": 387.78827806250007,
          "velocity": 0.8818897637795275
        },
        {
          "duration": 0.15885376953121977,
          "durationTicks": 61,
          "midi": 60,
          "name": "C4",
          "ticks": 119728,
          "time": 387.95494431250006,
          "velocity": 0.8818897637795275
        },
        {
          "duration": 0.1588537695312766,
          "durationTicks": 61,
          "midi": 58,
          "name": "A#3",
          "ticks": 119792,
          "time": 388.12161056250005,
          "velocity": 0.8818897637795275
        },
        {
          "duration": 0.1588537695312766,
          "durationTicks": 61,
          "midi": 60,
          "name": "C4",
          "ticks": 120112,
          "time": 388.95494181250007,
          "velocity": 0.8818897637795275
        },
        {
          "duration": 0.15885376953121977,
          "durationTicks": 61,
          "midi": 63,
          "name": "D#4",
          "ticks": 120176,
          "time": 389.12160806250006,
          "velocity": 0.8818897637795275
        },
        {
          "duration": 0.15885376953121977,
          "durationTicks": 61,
          "midi": 60,
          "name": "C4",
          "ticks": 120240,
          "time": 389.2882743125001,
          "velocity": 0.8818897637795275
        },
        {
          "duration": 0.1588537695312766,
          "durationTicks": 61,
          "midi": 58,
          "name": "A#3",
          "ticks": 120304,
          "time": 389.45494056250004,
          "velocity": 0.8818897637795275
        },
        {
          "duration": 0.15885376953121977,
          "durationTicks": 61,
          "midi": 67,
          "name": "G4",
          "ticks": 120624,
          "time": 390.28827181250006,
          "velocity": 0.8818897637795275
        },
        {
          "duration": 0.15885376953121977,
          "durationTicks": 61,
          "midi": 70,
          "name": "A#4",
          "ticks": 120688,
          "time": 390.4549380625001,
          "velocity": 0.8818897637795275
        },
        {
          "duration": 0.1588537695312766,
          "durationTicks": 61,
          "midi": 67,
          "name": "G4",
          "ticks": 120752,
          "time": 390.62160431250004,
          "velocity": 0.8818897637795275
        },
        {
          "duration": 0.15885376953121977,
          "durationTicks": 61,
          "midi": 62,
          "name": "D4",
          "ticks": 120816,
          "time": 390.7882705625001,
          "velocity": 0.8818897637795275
        },
        {
          "duration": 0.15885376953121977,
          "durationTicks": 61,
          "midi": 67,
          "name": "G4",
          "ticks": 121136,
          "time": 391.6216018125001,
          "velocity": 0.8818897637795275
        },
        {
          "duration": 0.1588537695312766,
          "durationTicks": 61,
          "midi": 70,
          "name": "A#4",
          "ticks": 121200,
          "time": 391.78826806250004,
          "velocity": 0.8818897637795275
        },
        {
          "duration": 0.15885376953121977,
          "durationTicks": 61,
          "midi": 67,
          "name": "G4",
          "ticks": 121264,
          "time": 391.9549343125001,
          "velocity": 0.8818897637795275
        },
        {
          "duration": 0.1588537695312766,
          "durationTicks": 61,
          "midi": 62,
          "name": "D4",
          "ticks": 121328,
          "time": 392.1216005625001,
          "velocity": 0.8818897637795275
        },
        {
          "duration": 0.1588537695312766,
          "durationTicks": 61,
          "midi": 66,
          "name": "F#4",
          "ticks": 121648,
          "time": 392.95493181250004,
          "velocity": 0.8818897637795275
        },
        {
          "duration": 0.15885376953121977,
          "durationTicks": 61,
          "midi": 69,
          "name": "A4",
          "ticks": 121712,
          "time": 393.1215980625001,
          "velocity": 0.8818897637795275
        },
        {
          "duration": 0.1588537695312766,
          "durationTicks": 61,
          "midi": 66,
          "name": "F#4",
          "ticks": 121776,
          "time": 393.2882643125001,
          "velocity": 0.8818897637795275
        },
        {
          "duration": 0.15885376953121977,
          "durationTicks": 61,
          "midi": 63,
          "name": "D#4",
          "ticks": 121840,
          "time": 393.45493056250007,
          "velocity": 0.8818897637795275
        },
        {
          "duration": 0.15885376953121977,
          "durationTicks": 61,
          "midi": 66,
          "name": "F#4",
          "ticks": 122160,
          "time": 394.2882618125001,
          "velocity": 0.8818897637795275
        },
        {
          "duration": 0.1588537695312766,
          "durationTicks": 61,
          "midi": 69,
          "name": "A4",
          "ticks": 122224,
          "time": 394.4549280625001,
          "velocity": 0.8818897637795275
        },
        {
          "duration": 0.15885376953121977,
          "durationTicks": 61,
          "midi": 66,
          "name": "F#4",
          "ticks": 122288,
          "time": 394.62159431250006,
          "velocity": 0.8818897637795275
        },
        {
          "duration": 0.1588537695312766,
          "durationTicks": 61,
          "midi": 63,
          "name": "D#4",
          "ticks": 122352,
          "time": 394.78826056250006,
          "velocity": 0.8818897637795275
        },
        {
          "duration": 0.3177075390625532,
          "durationTicks": 122,
          "midi": 62,
          "name": "D4",
          "ticks": 122416,
          "time": 394.95492681250005,
          "velocity": 0.8818897637795275
        },
        {
          "duration": 0.3177075390624964,
          "durationTicks": 122,
          "midi": 74,
          "name": "D5",
          "ticks": 122672,
          "time": 395.62159181250007,
          "velocity": 0.8818897637795275
        },
        {
          "duration": 0.3177075390624964,
          "durationTicks": 122,
          "midi": 67,
          "name": "G4",
          "ticks": 122672,
          "time": 395.62159181250007,
          "velocity": 0.8818897637795275
        },
        {
          "duration": 0.3177075390624964,
          "durationTicks": 122,
          "midi": 72,
          "name": "C5",
          "ticks": 122800,
          "time": 395.95492431250005,
          "velocity": 0.8818897637795275
        },
        {
          "duration": 0.3177075390624964,
          "durationTicks": 122,
          "midi": 66,
          "name": "F#4",
          "ticks": 122800,
          "time": 395.95492431250005,
          "velocity": 0.8818897637795275
        },
        {
          "duration": 0.6354150781249928,
          "durationTicks": 244,
          "midi": 70,
          "name": "A#4",
          "ticks": 122928,
          "time": 396.2882568125001,
          "velocity": 0.8818897637795275
        },
        {
          "duration": 0.6354150781249928,
          "durationTicks": 244,
          "midi": 67,
          "name": "G4",
          "ticks": 122928,
          "time": 396.2882568125001,
          "velocity": 0.8818897637795275
        },
        {
          "duration": 0.3177075390624964,
          "durationTicks": 122,
          "midi": 72,
          "name": "C5",
          "ticks": 123184,
          "time": 396.95492181250006,
          "velocity": 0.8818897637795275
        },
        {
          "duration": 0.3177075390624964,
          "durationTicks": 122,
          "midi": 67,
          "name": "G4",
          "ticks": 123184,
          "time": 396.95492181250006,
          "velocity": 0.8818897637795275
        },
        {
          "duration": 0.3177075390625532,
          "durationTicks": 122,
          "midi": 74,
          "name": "D5",
          "ticks": 123312,
          "time": 397.28825431250004,
          "velocity": 0.8818897637795275
        },
        {
          "duration": 0.3177075390625532,
          "durationTicks": 122,
          "midi": 71,
          "name": "B4",
          "ticks": 123312,
          "time": 397.28825431250004,
          "velocity": 0.8818897637795275
        },
        {
          "duration": 0.6354150781250496,
          "durationTicks": 244,
          "midi": 75,
          "name": "D#5",
          "ticks": 123440,
          "time": 397.6215868125,
          "velocity": 0.8818897637795275
        },
        {
          "duration": 0.6354150781250496,
          "durationTicks": 244,
          "midi": 72,
          "name": "C5",
          "ticks": 123440,
          "time": 397.6215868125,
          "velocity": 0.8818897637795275
        },
        {
          "duration": 0.31770753906243954,
          "durationTicks": 122,
          "midi": 77,
          "name": "F5",
          "ticks": 123696,
          "time": 398.2882518125001,
          "velocity": 0.8818897637795275
        },
        {
          "duration": 0.31770753906243954,
          "durationTicks": 122,
          "midi": 72,
          "name": "C5",
          "ticks": 123696,
          "time": 398.2882518125001,
          "velocity": 0.8818897637795275
        },
        {
          "duration": 0.31770753906243954,
          "durationTicks": 122,
          "midi": 79,
          "name": "G5",
          "ticks": 123824,
          "time": 398.6215843125001,
          "velocity": 0.8818897637795275
        },
        {
          "duration": 0.31770753906243954,
          "durationTicks": 122,
          "midi": 76,
          "name": "E5",
          "ticks": 123824,
          "time": 398.6215843125001,
          "velocity": 0.8818897637795275
        },
        {
          "duration": 0.6354150781249928,
          "durationTicks": 244,
          "midi": 81,
          "name": "A5",
          "ticks": 123952,
          "time": 398.9549168125001,
          "velocity": 0.8818897637795275
        },
        {
          "duration": 0.6354150781249928,
          "durationTicks": 244,
          "midi": 77,
          "name": "F5",
          "ticks": 123952,
          "time": 398.9549168125001,
          "velocity": 0.8818897637795275
        },
        {
          "duration": 0.3177075390625532,
          "durationTicks": 122,
          "midi": 77,
          "name": "F5",
          "ticks": 124208,
          "time": 399.62158181250004,
          "velocity": 0.8818897637795275
        },
        {
          "duration": 0.3177075390625532,
          "durationTicks": 122,
          "midi": 70,
          "name": "A#4",
          "ticks": 124208,
          "time": 399.62158181250004,
          "velocity": 0.8818897637795275
        },
        {
          "duration": 0.3177075390624964,
          "durationTicks": 122,
          "midi": 75,
          "name": "D#5",
          "ticks": 124336,
          "time": 399.9549143125001,
          "velocity": 0.8818897637795275
        },
        {
          "duration": 0.3177075390624964,
          "durationTicks": 122,
          "midi": 69,
          "name": "A4",
          "ticks": 124336,
          "time": 399.9549143125001,
          "velocity": 0.8818897637795275
        },
        {
          "duration": 0.1588537695312766,
          "durationTicks": 61,
          "midi": 74,
          "name": "D5",
          "ticks": 124464,
          "time": 400.28824681250006,
          "velocity": 0.8818897637795275
        },
        {
          "duration": 0.3177075390624964,
          "durationTicks": 122,
          "midi": 70,
          "name": "A#4",
          "ticks": 124464,
          "time": 400.28824681250006,
          "velocity": 0.8818897637795275
        },
        {
          "duration": 0.15885376953121977,
          "durationTicks": 61,
          "midi": 75,
          "name": "D#5",
          "ticks": 124528,
          "time": 400.45491306250005,
          "velocity": 0.8818897637795275
        },
        {
          "duration": 0.15885376953121977,
          "durationTicks": 61,
          "midi": 74,
          "name": "D5",
          "ticks": 124592,
          "time": 400.6215793125001,
          "velocity": 0.8818897637795275
        },
        {
          "duration": 0.1588537695312766,
          "durationTicks": 61,
          "midi": 72,
          "name": "C5",
          "ticks": 124656,
          "time": 400.78824556250004,
          "velocity": 0.8818897637795275
        },
        {
          "duration": 0.15885376953121977,
          "durationTicks": 61,
          "midi": 70,
          "name": "A#4",
          "ticks": 124720,
          "time": 400.9549118125001,
          "velocity": 0.8818897637795275
        },
        {
          "duration": 0.1588537695312766,
          "durationTicks": 61,
          "midi": 72,
          "name": "C5",
          "ticks": 124784,
          "time": 401.1215780625001,
          "velocity": 0.8818897637795275
        },
        {
          "duration": 0.15885376953121977,
          "durationTicks": 61,
          "midi": 70,
          "name": "A#4",
          "ticks": 124848,
          "time": 401.28824431250007,
          "velocity": 0.8818897637795275
        },
        {
          "duration": 0.1588537695312766,
          "durationTicks": 61,
          "midi": 69,
          "name": "A4",
          "ticks": 124912,
          "time": 401.45491056250006,
          "velocity": 0.8818897637795275
        },
        {
          "duration": 0.1588537695312766,
          "durationTicks": 61,
          "midi": 67,
          "name": "G4",
          "ticks": 124976,
          "time": 401.62157681250005,
          "velocity": 0.8818897637795275
        },
        {
          "duration": 0.15885376953121977,
          "durationTicks": 61,
          "midi": 72,
          "name": "C5",
          "ticks": 125040,
          "time": 401.7882430625001,
          "velocity": 0.8818897637795275
        },
        {
          "duration": 0.1588537695312766,
          "durationTicks": 61,
          "midi": 70,
          "name": "A#4",
          "ticks": 125104,
          "time": 401.95490931250004,
          "velocity": 0.8818897637795275
        },
        {
          "duration": 0.15885376953121977,
          "durationTicks": 61,
          "midi": 69,
          "name": "A4",
          "ticks": 125168,
          "time": 402.1215755625001,
          "velocity": 0.8818897637795275
        },
        {
          "duration": 0.1588537695312766,
          "durationTicks": 61,
          "midi": 67,
          "name": "G4",
          "ticks": 125232,
          "time": 402.2882418125001,
          "velocity": 0.8818897637795275
        },
        {
          "duration": 0.15885376953121977,
          "durationTicks": 61,
          "midi": 69,
          "name": "A4",
          "ticks": 125296,
          "time": 402.45490806250007,
          "velocity": 0.8818897637795275
        },
        {
          "duration": 0.1588537695312766,
          "durationTicks": 61,
          "midi": 67,
          "name": "G4",
          "ticks": 125360,
          "time": 402.62157431250006,
          "velocity": 0.8818897637795275
        },
        {
          "duration": 0.1588537695312766,
          "durationTicks": 61,
          "midi": 66,
          "name": "F#4",
          "ticks": 125424,
          "time": 402.78824056250005,
          "velocity": 0.8818897637795275
        },
        {
          "duration": 0.15885376953121977,
          "durationTicks": 61,
          "midi": 67,
          "name": "G4",
          "ticks": 125488,
          "time": 402.9549068125001,
          "velocity": 0.8818897637795275
        },
        {
          "duration": 0.1588537695312766,
          "durationTicks": 61,
          "midi": 65,
          "name": "F4",
          "ticks": 125552,
          "time": 403.12157306250003,
          "velocity": 0.8818897637795275
        },
        {
          "duration": 0.15885376953121977,
          "durationTicks": 61,
          "midi": 64,
          "name": "E4",
          "ticks": 125616,
          "time": 403.2882393125001,
          "velocity": 0.8818897637795275
        },
        {
          "duration": 0.1588537695312766,
          "durationTicks": 61,
          "midi": 62,
          "name": "D4",
          "ticks": 125680,
          "time": 403.4549055625001,
          "velocity": 0.8818897637795275
        },
        {
          "duration": 0.3177075390624964,
          "durationTicks": 122,
          "midi": 61,
          "name": "C#4",
          "ticks": 125744,
          "time": 403.62157181250006,
          "velocity": 0.8818897637795275
        },
        {
          "duration": 0.3177075390625532,
          "durationTicks": 122,
          "midi": 64,
          "name": "E4",
          "ticks": 125872,
          "time": 403.95490431250005,
          "velocity": 0.8818897637795275
        },
        {
          "duration": 0.1588537695312766,
          "durationTicks": 61,
          "midi": 65,
          "name": "F4",
          "ticks": 126000,
          "time": 404.28823681250003,
          "velocity": 0.8818897637795275
        },
        {
          "duration": 0.15885376953121977,
          "durationTicks": 61,
          "midi": 67,
          "name": "G4",
          "ticks": 126064,
          "time": 404.4549030625001,
          "velocity": 0.8818897637795275
        },
        {
          "duration": 0.1588537695312766,
          "durationTicks": 61,
          "midi": 69,
          "name": "A4",
          "ticks": 126128,
          "time": 404.62156931250007,
          "velocity": 0.8818897637795275
        },
        {
          "duration": 0.15885376953121977,
          "durationTicks": 61,
          "midi": 71,
          "name": "B4",
          "ticks": 126192,
          "time": 404.78823556250006,
          "velocity": 0.8818897637795275
        },
        {
          "duration": 0.1588537695312766,
          "durationTicks": 61,
          "midi": 73,
          "name": "C#5",
          "ticks": 126256,
          "time": 404.95490181250005,
          "velocity": 0.8818897637795275
        },
        {
          "duration": 0.1588537695312766,
          "durationTicks": 61,
          "midi": 74,
          "name": "D5",
          "ticks": 126320,
          "time": 405.12156806250005,
          "velocity": 0.8818897637795275
        },
        {
          "duration": 0.15885376953121977,
          "durationTicks": 61,
          "midi": 76,
          "name": "E5",
          "ticks": 126384,
          "time": 405.2882343125001,
          "velocity": 0.8818897637795275
        },
        {
          "duration": 0.1588537695312766,
          "durationTicks": 61,
          "midi": 77,
          "name": "F5",
          "ticks": 126448,
          "time": 405.45490056250003,
          "velocity": 0.8818897637795275
        },
        {
          "duration": 0.3177075390624964,
          "durationTicks": 122,
          "midi": 79,
          "name": "G5",
          "ticks": 126512,
          "time": 405.6215668125001,
          "velocity": 0.8818897637795275
        },
        {
          "duration": 0.15885376953121977,
          "durationTicks": 61,
          "midi": 77,
          "name": "F5",
          "ticks": 126640,
          "time": 405.95489931250006,
          "velocity": 0.8818897637795275
        },
        {
          "duration": 0.1588537695312766,
          "durationTicks": 61,
          "midi": 76,
          "name": "E5",
          "ticks": 126704,
          "time": 406.12156556250005,
          "velocity": 0.8818897637795275
        },
        {
          "duration": 0.3177075390625532,
          "durationTicks": 122,
          "midi": 74,
          "name": "D5",
          "ticks": 126768,
          "time": 406.28823181250004,
          "velocity": 0.8818897637795275
        },
        {
          "duration": 0.3177075390625532,
          "durationTicks": 122,
          "midi": 73,
          "name": "C#5",
          "ticks": 126896,
          "time": 406.6215643125,
          "velocity": 0.8818897637795275
        },
        {
          "duration": 0.3177075390624964,
          "durationTicks": 122,
          "midi": 74,
          "name": "D5",
          "ticks": 127024,
          "time": 406.95489681250007,
          "velocity": 0.8818897637795275
        },
        {
          "duration": 0.31770753906243954,
          "durationTicks": 122,
          "midi": 76,
          "name": "E5",
          "ticks": 127152,
          "time": 407.2882293125001,
          "velocity": 0.8818897637795275
        },
        {
          "duration": 0.31770753906243954,
          "durationTicks": 122,
          "midi": 77,
          "name": "F5",
          "ticks": 127280,
          "time": 407.6215618125001,
          "velocity": 0.8818897637795275
        },
        {
          "duration": 0.3177075390624964,
          "durationTicks": 122,
          "midi": 79,
          "name": "G5",
          "ticks": 127408,
          "time": 407.9548943125001,
          "velocity": 0.8818897637795275
        },
        {
          "duration": 0.3177075390624964,
          "durationTicks": 122,
          "midi": 81,
          "name": "A5",
          "ticks": 127536,
          "time": 408.28822681250006,
          "velocity": 0.8818897637795275
        },
        {
          "duration": 0.3177075390625532,
          "durationTicks": 122,
          "midi": 73,
          "name": "C#5",
          "ticks": 127664,
          "time": 408.62155931250004,
          "velocity": 0.8818897637795275
        },
        {
          "duration": 0.3177075390624964,
          "durationTicks": 122,
          "midi": 74,
          "name": "D5",
          "ticks": 127792,
          "time": 408.9548918125001,
          "velocity": 0.8818897637795275
        },
        {
          "duration": 0.3177075390624964,
          "durationTicks": 122,
          "midi": 76,
          "name": "E5",
          "ticks": 127920,
          "time": 409.28822431250006,
          "velocity": 0.8818897637795275
        },
        {
          "duration": 0.31770753906243954,
          "durationTicks": 122,
          "midi": 77,
          "name": "F5",
          "ticks": 128048,
          "time": 409.6215568125001,
          "velocity": 0.8818897637795275
        },
        {
          "duration": 0.31770753906243954,
          "durationTicks": 122,
          "midi": 76,
          "name": "E5",
          "ticks": 128176,
          "time": 409.9548893125001,
          "velocity": 0.8818897637795275
        },
        {
          "duration": 0.3177075390624964,
          "durationTicks": 122,
          "midi": 77,
          "name": "F5",
          "ticks": 128304,
          "time": 410.28822181250007,
          "velocity": 0.8818897637795275
        },
        {
          "duration": 0.3177075390625532,
          "durationTicks": 122,
          "midi": 74,
          "name": "D5",
          "ticks": 128432,
          "time": 410.62155431250005,
          "velocity": 0.8818897637795275
        },
        {
          "duration": 0.3564452929687718,
          "durationTicks": 122,
          "midi": 76,
          "name": "E5",
          "ticks": 128560,
          "time": 410.95488681250004,
          "velocity": 0.8818897637795275
        },
        {
          "duration": 0.357421875,
          "durationTicks": 122,
          "midi": 74,
          "name": "D5",
          "ticks": 128688,
          "time": 411.3289102304688,
          "velocity": 0.8818897637795275
        },
        {
          "duration": 0.357421875,
          "durationTicks": 122,
          "midi": 69,
          "name": "A4",
          "ticks": 128688,
          "time": 411.3289102304688,
          "velocity": 0.8818897637795275
        },
        {
          "duration": 0.4072261640624788,
          "durationTicks": 122,
          "midi": 74,
          "name": "D5",
          "ticks": 128816,
          "time": 411.7039102304688,
          "velocity": 0.8818897637795275
        },
        {
          "duration": 0.4072261640624788,
          "durationTicks": 122,
          "midi": 70,
          "name": "A#4",
          "ticks": 128816,
          "time": 411.7039102304688,
          "velocity": 0.8818897637795275
        },
        {
          "duration": 0.408481734375016,
          "durationTicks": 122,
          "midi": 73,
          "name": "C#5",
          "ticks": 128944,
          "time": 412.1312256601563,
          "velocity": 0.8818897637795275
        },
        {
          "duration": 0.408481734375016,
          "durationTicks": 122,
          "midi": 69,
          "name": "A4",
          "ticks": 128944,
          "time": 412.1312256601563,
          "velocity": 0.8818897637795275
        },
        {
          "duration": 0.4748883828125372,
          "durationTicks": 122,
          "midi": 74,
          "name": "D5",
          "ticks": 129072,
          "time": 412.5597966601563,
          "velocity": 0.8818897637795275
        },
        {
          "duration": 0.4748883828125372,
          "durationTicks": 122,
          "midi": 69,
          "name": "A4",
          "ticks": 129072,
          "time": 412.5597966601563,
          "velocity": 0.8818897637795275
        },
        {
          "duration": 0.4765625,
          "durationTicks": 122,
          "midi": 77,
          "name": "F5",
          "ticks": 129200,
          "time": 413.0581225429688,
          "velocity": 0.8818897637795275
        },
        {
          "duration": 0.4765625,
          "durationTicks": 122,
          "midi": 74,
          "name": "D5",
          "ticks": 129200,
          "time": 413.0581225429688,
          "velocity": 0.8818897637795275
        },
        {
          "duration": 1.1414062499999886,
          "durationTicks": 244,
          "midi": 76,
          "name": "E5",
          "ticks": 129328,
          "time": 413.5581225429688,
          "velocity": 0.8818897637795275
        },
        {
          "duration": 0.5695312500000114,
          "durationTicks": 122,
          "midi": 74,
          "name": "D5",
          "ticks": 129328,
          "time": 413.5581225429688,
          "velocity": 0.8818897637795275
        },
        {
          "duration": 0.5718749999999773,
          "durationTicks": 122,
          "midi": 72,
          "name": "C5",
          "ticks": 129456,
          "time": 414.1557787929688,
          "velocity": 0.8818897637795275
        },
        {
          "duration": 4.497656249999977,
          "durationTicks": 768,
          "midi": 74,
          "name": "D5",
          "ticks": 129584,
          "time": 414.75577879296884,
          "velocity": 0.8818897637795275
        },
        {
          "duration": 4.497656249999977,
          "durationTicks": 768,
          "midi": 65,
          "name": "F4",
          "ticks": 129584,
          "time": 414.75577879296884,
          "velocity": 0.8818897637795275
        },
        {
          "duration": 4.497656249999977,
          "durationTicks": 768,
          "midi": 70,
          "name": "A#4",
          "ticks": 129584,
          "time": 414.75577879296884,
          "velocity": 0.8818897637795275
        },
        {
          "duration": 0.12109375,
          "durationTicks": 31,
          "midi": 77,
          "name": "F5",
          "ticks": 130384,
          "time": 419.3842944179688,
          "velocity": 0.8818897637795275
        },
        {
          "duration": 0.12109375,
          "durationTicks": 31,
          "midi": 79,
          "name": "G5",
          "ticks": 130416,
          "time": 419.5092944179688,
          "velocity": 0.8818897637795275
        },
        {
          "duration": 0.12109375,
          "durationTicks": 31,
          "midi": 81,
          "name": "A5",
          "ticks": 130448,
          "time": 419.6342944179688,
          "velocity": 0.8818897637795275
        },
        {
          "duration": 0.12109375,
          "durationTicks": 31,
          "midi": 82,
          "name": "A#5",
          "ticks": 130480,
          "time": 419.7592944179688,
          "velocity": 0.8818897637795275
        },
        {
          "duration": 0.12109375,
          "durationTicks": 31,
          "midi": 69,
          "name": "A4",
          "ticks": 130512,
          "time": 419.8842944179688,
          "velocity": 0.8818897637795275
        },
        {
          "duration": 0.12109375,
          "durationTicks": 31,
          "midi": 70,
          "name": "A#4",
          "ticks": 130544,
          "time": 420.0092944179688,
          "velocity": 0.8818897637795275
        },
        {
          "duration": 0.12109375,
          "durationTicks": 31,
          "midi": 72,
          "name": "C5",
          "ticks": 130576,
          "time": 420.1342944179688,
          "velocity": 0.8818897637795275
        },
        {
          "duration": 0.12109375,
          "durationTicks": 31,
          "midi": 74,
          "name": "D5",
          "ticks": 130608,
          "time": 420.2592944179688,
          "velocity": 0.8818897637795275
        },
        {
          "duration": 0.12109375,
          "durationTicks": 31,
          "midi": 72,
          "name": "C5",
          "ticks": 130640,
          "time": 420.3842944179688,
          "velocity": 0.8818897637795275
        },
        {
          "duration": 0.12109375,
          "durationTicks": 31,
          "midi": 74,
          "name": "D5",
          "ticks": 130672,
          "time": 420.5092944179688,
          "velocity": 0.8818897637795275
        },
        {
          "duration": 0.12109375,
          "durationTicks": 31,
          "midi": 75,
          "name": "D#5",
          "ticks": 130704,
          "time": 420.6342944179688,
          "velocity": 0.8818897637795275
        },
        {
          "duration": 0.12109375,
          "durationTicks": 31,
          "midi": 77,
          "name": "F5",
          "ticks": 130736,
          "time": 420.7592944179688,
          "velocity": 0.8818897637795275
        },
        {
          "duration": 0.12109375,
          "durationTicks": 31,
          "midi": 65,
          "name": "F4",
          "ticks": 130768,
          "time": 420.8842944179688,
          "velocity": 0.8818897637795275
        },
        {
          "duration": 0.12109375,
          "durationTicks": 31,
          "midi": 67,
          "name": "G4",
          "ticks": 130800,
          "time": 421.0092944179688,
          "velocity": 0.8818897637795275
        },
        {
          "duration": 0.12109375,
          "durationTicks": 31,
          "midi": 69,
          "name": "A4",
          "ticks": 130832,
          "time": 421.1342944179688,
          "velocity": 0.8818897637795275
        },
        {
          "duration": 0.12109375,
          "durationTicks": 31,
          "midi": 70,
          "name": "A#4",
          "ticks": 130864,
          "time": 421.2592944179688,
          "velocity": 0.8818897637795275
        },
        {
          "duration": 0.12109375,
          "durationTicks": 31,
          "midi": 69,
          "name": "A4",
          "ticks": 130896,
          "time": 421.3842944179688,
          "velocity": 0.8818897637795275
        },
        {
          "duration": 0.12109375,
          "durationTicks": 31,
          "midi": 70,
          "name": "A#4",
          "ticks": 130928,
          "time": 421.5092944179688,
          "velocity": 0.8818897637795275
        },
        {
          "duration": 0.12109375,
          "durationTicks": 31,
          "midi": 72,
          "name": "C5",
          "ticks": 130960,
          "time": 421.6342944179688,
          "velocity": 0.8818897637795275
        },
        {
          "duration": 0.12109375,
          "durationTicks": 31,
          "midi": 74,
          "name": "D5",
          "ticks": 130992,
          "time": 421.7592944179688,
          "velocity": 0.8818897637795275
        },
        {
          "duration": 0.12109375,
          "durationTicks": 31,
          "midi": 69,
          "name": "A4",
          "ticks": 131024,
          "time": 421.8842944179688,
          "velocity": 0.8818897637795275
        },
        {
          "duration": 0.12109375,
          "durationTicks": 31,
          "midi": 67,
          "name": "G4",
          "ticks": 131056,
          "time": 422.0092944179688,
          "velocity": 0.8818897637795275
        },
        {
          "duration": 0.12109375,
          "durationTicks": 31,
          "midi": 65,
          "name": "F4",
          "ticks": 131088,
          "time": 422.1342944179688,
          "velocity": 0.8818897637795275
        },
        {
          "duration": 0.12109375,
          "durationTicks": 31,
          "midi": 63,
          "name": "D#4",
          "ticks": 131120,
          "time": 422.2592944179688,
          "velocity": 0.8818897637795275
        },
        {
          "duration": 0.12109375,
          "durationTicks": 31,
          "midi": 67,
          "name": "G4",
          "ticks": 131152,
          "time": 422.3842944179688,
          "velocity": 0.8818897637795275
        },
        {
          "duration": 0.12109375,
          "durationTicks": 31,
          "midi": 69,
          "name": "A4",
          "ticks": 131184,
          "time": 422.5092944179688,
          "velocity": 0.8818897637795275
        },
        {
          "duration": 0.12109375,
          "durationTicks": 31,
          "midi": 70,
          "name": "A#4",
          "ticks": 131216,
          "time": 422.6342944179688,
          "velocity": 0.8818897637795275
        },
        {
          "duration": 0.12109375,
          "durationTicks": 31,
          "midi": 72,
          "name": "C5",
          "ticks": 131248,
          "time": 422.7592944179688,
          "velocity": 0.8818897637795275
        },
        {
          "duration": 0.12109375,
          "durationTicks": 31,
          "midi": 67,
          "name": "G4",
          "ticks": 131280,
          "time": 422.8842944179688,
          "velocity": 0.8818897637795275
        },
        {
          "duration": 0.12109375,
          "durationTicks": 31,
          "midi": 65,
          "name": "F4",
          "ticks": 131312,
          "time": 423.0092944179688,
          "velocity": 0.8818897637795275
        },
        {
          "duration": 0.12109375,
          "durationTicks": 31,
          "midi": 63,
          "name": "D#4",
          "ticks": 131344,
          "time": 423.1342944179688,
          "velocity": 0.8818897637795275
        },
        {
          "duration": 0.12109375,
          "durationTicks": 31,
          "midi": 62,
          "name": "D4",
          "ticks": 131376,
          "time": 423.2592944179688,
          "velocity": 0.8818897637795275
        },
        {
          "duration": 0.12109375,
          "durationTicks": 31,
          "midi": 65,
          "name": "F4",
          "ticks": 131408,
          "time": 423.3842944179688,
          "velocity": 0.8818897637795275
        },
        {
          "duration": 0.12109375,
          "durationTicks": 31,
          "midi": 67,
          "name": "G4",
          "ticks": 131440,
          "time": 423.5092944179688,
          "velocity": 0.8818897637795275
        },
        {
          "duration": 0.12109375,
          "durationTicks": 31,
          "midi": 69,
          "name": "A4",
          "ticks": 131472,
          "time": 423.6342944179688,
          "velocity": 0.8818897637795275
        },
        {
          "duration": 0.12109375,
          "durationTicks": 31,
          "midi": 70,
          "name": "A#4",
          "ticks": 131504,
          "time": 423.7592944179688,
          "velocity": 0.8818897637795275
        },
        {
          "duration": 0.12109375,
          "durationTicks": 31,
          "midi": 60,
          "name": "C4",
          "ticks": 131664,
          "time": 424.3842944179688,
          "velocity": 0.8818897637795275
        },
        {
          "duration": 0.12109375,
          "durationTicks": 31,
          "midi": 62,
          "name": "D4",
          "ticks": 131696,
          "time": 424.5092944179688,
          "velocity": 0.8818897637795275
        },
        {
          "duration": 0.12109375,
          "durationTicks": 31,
          "midi": 63,
          "name": "D#4",
          "ticks": 131728,
          "time": 424.6342944179688,
          "velocity": 0.8818897637795275
        },
        {
          "duration": 0.12109375,
          "durationTicks": 31,
          "midi": 65,
          "name": "F4",
          "ticks": 131760,
          "time": 424.7592944179688,
          "velocity": 0.8818897637795275
        },
        {
          "duration": 0.13103692187502247,
          "durationTicks": 31,
          "midi": 58,
          "name": "A#3",
          "ticks": 132176,
          "time": 426.3842944179688,
          "velocity": 0.8818897637795275
        },
        {
          "duration": 0.13210226171878503,
          "durationTicks": 31,
          "midi": 60,
          "name": "C4",
          "ticks": 132208,
          "time": 426.51959270312506,
          "velocity": 0.8818897637795275
        },
        {
          "duration": 0.13210226171878503,
          "durationTicks": 31,
          "midi": 62,
          "name": "D4",
          "ticks": 132240,
          "time": 426.65595632812506,
          "velocity": 0.8818897637795275
        },
        {
          "duration": 0.13210226171878503,
          "durationTicks": 31,
          "midi": 63,
          "name": "D#4",
          "ticks": 132272,
          "time": 426.79231995312506,
          "velocity": 0.8818897637795275
        },
        {
          "duration": 0.1440340898437853,
          "durationTicks": 31,
          "midi": 60,
          "name": "C4",
          "ticks": 132432,
          "time": 427.47413807812507,
          "velocity": 0.8818897637795275
        },
        {
          "duration": 0.14531249999998863,
          "durationTicks": 31,
          "midi": 62,
          "name": "D4",
          "ticks": 132464,
          "time": 427.62285966796884,
          "velocity": 0.8818897637795275
        },
        {
          "duration": 0.14531249999998863,
          "durationTicks": 31,
          "midi": 64,
          "name": "E4",
          "ticks": 132496,
          "time": 427.7728596679688,
          "velocity": 0.8818897637795275
        },
        {
          "duration": 0.14531249999998863,
          "durationTicks": 31,
          "midi": 66,
          "name": "F#4",
          "ticks": 132528,
          "time": 427.92285966796885,
          "velocity": 0.8818897637795275
        },
        {
          "duration": 0.14531249999998863,
          "durationTicks": 31,
          "midi": 63,
          "name": "D#4",
          "ticks": 132560,
          "time": 428.0728596679688,
          "velocity": 0.8818897637795275
        },
        {
          "duration": 0.14531250000004547,
          "durationTicks": 31,
          "midi": 62,
          "name": "D4",
          "ticks": 132592,
          "time": 428.2228596679688,
          "velocity": 0.8818897637795275
        },
        {
          "duration": 0.14531249999998863,
          "durationTicks": 31,
          "midi": 60,
          "name": "C4",
          "ticks": 132624,
          "time": 428.37285966796884,
          "velocity": 0.8818897637795275
        },
        {
          "duration": 0.14531249999998863,
          "durationTicks": 31,
          "midi": 58,
          "name": "A#3",
          "ticks": 132656,
          "time": 428.5228596679688,
          "velocity": 0.8818897637795275
        },
        {
          "duration": 0.14531249999998863,
          "durationTicks": 31,
          "midi": 66,
          "name": "F#4",
          "ticks": 132688,
          "time": 428.67285966796885,
          "velocity": 0.8818897637795275
        },
        {
          "duration": 0.14531249999998863,
          "durationTicks": 31,
          "midi": 67,
          "name": "G4",
          "ticks": 132720,
          "time": 428.8228596679688,
          "velocity": 0.8818897637795275
        },
        {
          "duration": 0.14531250000004547,
          "durationTicks": 31,
          "midi": 69,
          "name": "A4",
          "ticks": 132752,
          "time": 428.9728596679688,
          "velocity": 0.8818897637795275
        },
        {
          "duration": 0.7113281249999659,
          "durationTicks": 122,
          "midi": 70,
          "name": "A#4",
          "ticks": 132784,
          "time": 429.12285966796884,
          "velocity": 0.8818897637795275
        },
        {
          "duration": 0.181640625,
          "durationTicks": 31,
          "midi": 72,
          "name": "C5",
          "ticks": 132816,
          "time": 429.3068440429688,
          "velocity": 0.8818897637795275
        },
        {
          "duration": 0.357421875,
          "durationTicks": 61,
          "midi": 74,
          "name": "D5",
          "ticks": 132848,
          "time": 429.4943440429688,
          "velocity": 0.8818897637795275
        },
        {
          "duration": 0.181640625,
          "durationTicks": 31,
          "midi": 67,
          "name": "G4",
          "ticks": 132880,
          "time": 429.6818440429688,
          "velocity": 0.8818897637795275
        },
        {
          "duration": 5.900390625,
          "durationTicks": 756,
          "midi": 70,
          "name": "A#4",
          "ticks": 132912,
          "time": 429.8693440429688,
          "velocity": 0.8818897637795275
        },
        {
          "duration": 5.900390625,
          "durationTicks": 756,
          "midi": 76,
          "name": "E5",
          "ticks": 132912,
          "time": 429.8693440429688,
          "velocity": 0.8818897637795275
        },
        {
          "duration": 5.900390625,
          "durationTicks": 756,
          "midi": 64,
          "name": "E4",
          "ticks": 132912,
          "time": 429.8693440429688,
          "velocity": 0.8818897637795275
        },
        {
          "duration": 5.900390625,
          "durationTicks": 756,
          "midi": 67,
          "name": "G4",
          "ticks": 132912,
          "time": 429.8693440429688,
          "velocity": 0.8818897637795275
        },
        {
          "duration": 1.90625,
          "durationTicks": 244,
          "midi": 69,
          "name": "A4",
          "ticks": 133680,
          "time": 435.8634846679688,
          "velocity": 0.8818897637795275
        },
        {
          "duration": 5.8046875,
          "durationTicks": 743,
          "midi": 74,
          "name": "D5",
          "ticks": 133680,
          "time": 435.8634846679688,
          "velocity": 0.8818897637795275
        },
        {
          "duration": 1.90625,
          "durationTicks": 244,
          "midi": 65,
          "name": "F4",
          "ticks": 133680,
          "time": 435.8634846679688,
          "velocity": 0.8818897637795275
        },
        {
          "duration": 3.8046875,
          "durationTicks": 487,
          "midi": 71,
          "name": "B4",
          "ticks": 133936,
          "time": 437.8634846679688,
          "velocity": 0.8818897637795275
        },
        {
          "duration": 3.8046875,
          "durationTicks": 487,
          "midi": 62,
          "name": "D4",
          "ticks": 133936,
          "time": 437.8634846679688,
          "velocity": 0.8818897637795275
        },
        {
          "duration": 3.8046875,
          "durationTicks": 487,
          "midi": 65,
          "name": "F4",
          "ticks": 133936,
          "time": 437.8634846679688,
          "velocity": 0.8818897637795275
        },
        {
          "duration": 0.953125,
          "durationTicks": 122,
          "midi": 71,
          "name": "B4",
          "ticks": 135344,
          "time": 447.3634846679688,
          "velocity": 0.8818897637795275
        },
        {
          "duration": 0.953125,
          "durationTicks": 122,
          "midi": 74,
          "name": "D5",
          "ticks": 135344,
          "time": 447.3634846679688,
          "velocity": 0.8818897637795275
        },
        {
          "duration": 0.953125,
          "durationTicks": 122,
          "midi": 64,
          "name": "E4",
          "ticks": 135344,
          "time": 447.3634846679688,
          "velocity": 0.8818897637795275
        },
        {
          "duration": 0.953125,
          "durationTicks": 122,
          "midi": 68,
          "name": "G#4",
          "ticks": 135344,
          "time": 447.3634846679688,
          "velocity": 0.8818897637795275
        },
        {
          "duration": 10,
          "durationTicks": 1280,
          "midi": 72,
          "name": "C5",
          "ticks": 135472,
          "time": 448.3634846679688,
          "velocity": 0.8818897637795275
        },
        {
          "duration": 2.8515625,
          "durationTicks": 365,
          "midi": 69,
          "name": "A4",
          "ticks": 135472,
          "time": 448.3634846679688,
          "velocity": 0.8818897637795275
        },
        {
          "duration": 3.8046875,
          "durationTicks": 487,
          "midi": 64,
          "name": "E4",
          "ticks": 135472,
          "time": 448.3634846679688,
          "velocity": 0.8818897637795275
        },
        {
          "duration": 0.4765625,
          "durationTicks": 61,
          "midi": 67,
          "name": "G4",
          "ticks": 135856,
          "time": 451.3634846679688,
          "velocity": 0.8818897637795275
        },
        {
          "duration": 0.4765625,
          "durationTicks": 61,
          "midi": 65,
          "name": "F4",
          "ticks": 135920,
          "time": 451.8634846679688,
          "velocity": 0.8818897637795275
        },
        {
          "duration": 6,
          "durationTicks": 768,
          "midi": 64,
          "name": "E4",
          "ticks": 135984,
          "time": 452.3634846679688,
          "velocity": 0.8818897637795275
        },
        {
          "duration": 0.11008499609374667,
          "durationTicks": 31,
          "midi": 67,
          "name": "G4",
          "ticks": 136784,
          "time": 458.48990490625005,
          "velocity": 0.8818897637795275
        },
        {
          "duration": 0.11008499609374667,
          "durationTicks": 31,
          "midi": 65,
          "name": "F4",
          "ticks": 136816,
          "time": 458.6035410312501,
          "velocity": 0.8818897637795275
        },
        {
          "duration": 0.11008499609374667,
          "durationTicks": 31,
          "midi": 67,
          "name": "G4",
          "ticks": 136848,
          "time": 458.71717715625005,
          "velocity": 0.8818897637795275
        },
        {
          "duration": 0.11008499609374667,
          "durationTicks": 31,
          "midi": 64,
          "name": "E4",
          "ticks": 136880,
          "time": 458.8308132812501,
          "velocity": 0.8818897637795275
        },
        {
          "duration": 0.11008499609374667,
          "durationTicks": 31,
          "midi": 64,
          "name": "E4",
          "ticks": 136912,
          "time": 458.94444940625004,
          "velocity": 0.8818897637795275
        },
        {
          "duration": 0.11008499609374667,
          "durationTicks": 31,
          "midi": 62,
          "name": "D4",
          "ticks": 136944,
          "time": 459.0580855312501,
          "velocity": 0.8818897637795275
        },
        {
          "duration": 0.11008499609374667,
          "durationTicks": 31,
          "midi": 64,
          "name": "E4",
          "ticks": 136976,
          "time": 459.17172165625004,
          "velocity": 0.8818897637795275
        },
        {
          "duration": 0.11008499609374667,
          "durationTicks": 31,
          "midi": 60,
          "name": "C4",
          "ticks": 137008,
          "time": 459.28535778125007,
          "velocity": 0.8818897637795275
        },
        {
          "duration": 0.11008499609374667,
          "durationTicks": 31,
          "midi": 69,
          "name": "A4",
          "ticks": 137040,
          "time": 459.39899390625004,
          "velocity": 0.8818897637795275
        },
        {
          "duration": 0.11008499609374667,
          "durationTicks": 31,
          "midi": 67,
          "name": "G4",
          "ticks": 137072,
          "time": 459.51263003125007,
          "velocity": 0.8818897637795275
        },
        {
          "duration": 0.11008499609374667,
          "durationTicks": 31,
          "midi": 69,
          "name": "A4",
          "ticks": 137104,
          "time": 459.62626615625004,
          "velocity": 0.8818897637795275
        },
        {
          "duration": 0.11008499609374667,
          "durationTicks": 31,
          "midi": 65,
          "name": "F4",
          "ticks": 137136,
          "time": 459.73990228125007,
          "velocity": 0.8818897637795275
        },
        {
          "duration": 0.11008499609374667,
          "durationTicks": 31,
          "midi": 65,
          "name": "F4",
          "ticks": 137168,
          "time": 459.85353840625004,
          "velocity": 0.8818897637795275
        },
        {
          "duration": 0.11008499609374667,
          "durationTicks": 31,
          "midi": 64,
          "name": "E4",
          "ticks": 137200,
          "time": 459.96717453125007,
          "velocity": 0.8818897637795275
        },
        {
          "duration": 0.11008499609374667,
          "durationTicks": 31,
          "midi": 65,
          "name": "F4",
          "ticks": 137232,
          "time": 460.08081065625004,
          "velocity": 0.8818897637795275
        },
        {
          "duration": 0.11008499609374667,
          "durationTicks": 31,
          "midi": 62,
          "name": "D4",
          "ticks": 137264,
          "time": 460.19444678125006,
          "velocity": 0.8818897637795275
        },
        {
          "duration": 0.11008499609374667,
          "durationTicks": 31,
          "midi": 71,
          "name": "B4",
          "ticks": 137296,
          "time": 460.30808290625004,
          "velocity": 0.8818897637795275
        },
        {
          "duration": 0.11008499609374667,
          "durationTicks": 31,
          "midi": 69,
          "name": "A4",
          "ticks": 137328,
          "time": 460.42171903125006,
          "velocity": 0.8818897637795275
        },
        {
          "duration": 0.11008499609374667,
          "durationTicks": 31,
          "midi": 71,
          "name": "B4",
          "ticks": 137360,
          "time": 460.53535515625003,
          "velocity": 0.8818897637795275
        },
        {
          "duration": 0.11008499609374667,
          "durationTicks": 31,
          "midi": 67,
          "name": "G4",
          "ticks": 137392,
          "time": 460.64899128125006,
          "velocity": 0.8818897637795275
        },
        {
          "duration": 0.11008499609374667,
          "durationTicks": 31,
          "midi": 67,
          "name": "G4",
          "ticks": 137424,
          "time": 460.76262740625003,
          "velocity": 0.8818897637795275
        },
        {
          "duration": 0.11008499609374667,
          "durationTicks": 31,
          "midi": 65,
          "name": "F4",
          "ticks": 137456,
          "time": 460.87626353125006,
          "velocity": 0.8818897637795275
        },
        {
          "duration": 0.11008499609374667,
          "durationTicks": 31,
          "midi": 67,
          "name": "G4",
          "ticks": 137488,
          "time": 460.98989965625003,
          "velocity": 0.8818897637795275
        },
        {
          "duration": 0.11008499609374667,
          "durationTicks": 31,
          "midi": 64,
          "name": "E4",
          "ticks": 137520,
          "time": 461.10353578125006,
          "velocity": 0.8818897637795275
        },
        {
          "duration": 0.11008499609380351,
          "durationTicks": 31,
          "midi": 72,
          "name": "C5",
          "ticks": 137552,
          "time": 461.21717190625003,
          "velocity": 0.8818897637795275
        },
        {
          "duration": 0.11008499609374667,
          "durationTicks": 31,
          "midi": 71,
          "name": "B4",
          "ticks": 137584,
          "time": 461.33080803125006,
          "velocity": 0.8818897637795275
        },
        {
          "duration": 0.11008499609380351,
          "durationTicks": 31,
          "midi": 72,
          "name": "C5",
          "ticks": 137616,
          "time": 461.44444415625003,
          "velocity": 0.8818897637795275
        },
        {
          "duration": 0.11008499609374667,
          "durationTicks": 31,
          "midi": 69,
          "name": "A4",
          "ticks": 137648,
          "time": 461.55808028125006,
          "velocity": 0.8818897637795275
        },
        {
          "duration": 0.11008499609380351,
          "durationTicks": 31,
          "midi": 74,
          "name": "D5",
          "ticks": 137680,
          "time": 461.67171640625,
          "velocity": 0.8818897637795275
        },
        {
          "duration": 0.11008499609374667,
          "durationTicks": 31,
          "midi": 72,
          "name": "C5",
          "ticks": 137712,
          "time": 461.78535253125006,
          "velocity": 0.8818897637795275
        },
        {
          "duration": 0.11008499609374667,
          "durationTicks": 31,
          "midi": 74,
          "name": "D5",
          "ticks": 137744,
          "time": 461.8989886562501,
          "velocity": 0.8818897637795275
        },
        {
          "duration": 0.11008499609374667,
          "durationTicks": 31,
          "midi": 71,
          "name": "B4",
          "ticks": 137776,
          "time": 462.01262478125005,
          "velocity": 0.8818897637795275
        },
        {
          "duration": 0.11008499609374667,
          "durationTicks": 31,
          "midi": 76,
          "name": "E5",
          "ticks": 137808,
          "time": 462.1262609062501,
          "velocity": 0.8818897637795275
        },
        {
          "duration": 0.11008499609374667,
          "durationTicks": 31,
          "midi": 74,
          "name": "D5",
          "ticks": 137840,
          "time": 462.23989703125005,
          "velocity": 0.8818897637795275
        },
        {
          "duration": 0.11008499609374667,
          "durationTicks": 31,
          "midi": 76,
          "name": "E5",
          "ticks": 137872,
          "time": 462.3535331562501,
          "velocity": 0.8818897637795275
        },
        {
          "duration": 0.11008499609374667,
          "durationTicks": 31,
          "midi": 72,
          "name": "C5",
          "ticks": 137904,
          "time": 462.46716928125005,
          "velocity": 0.8818897637795275
        },
        {
          "duration": 0.11008499609374667,
          "durationTicks": 31,
          "midi": 77,
          "name": "F5",
          "ticks": 137936,
          "time": 462.5808054062501,
          "velocity": 0.8818897637795275
        },
        {
          "duration": 0.11008499609374667,
          "durationTicks": 31,
          "midi": 76,
          "name": "E5",
          "ticks": 137968,
          "time": 462.69444153125005,
          "velocity": 0.8818897637795275
        },
        {
          "duration": 0.11008499609374667,
          "durationTicks": 31,
          "midi": 77,
          "name": "F5",
          "ticks": 138000,
          "time": 462.8080776562501,
          "velocity": 0.8818897637795275
        },
        {
          "duration": 0.11008499609374667,
          "durationTicks": 31,
          "midi": 74,
          "name": "D5",
          "ticks": 138032,
          "time": 462.92171378125005,
          "velocity": 0.8818897637795275
        },
        {
          "duration": 0.11008499609374667,
          "durationTicks": 31,
          "midi": 79,
          "name": "G5",
          "ticks": 138064,
          "time": 463.0353499062501,
          "velocity": 0.8818897637795275
        },
        {
          "duration": 0.11008499609374667,
          "durationTicks": 31,
          "midi": 77,
          "name": "F5",
          "ticks": 138096,
          "time": 463.14898603125005,
          "velocity": 0.8818897637795275
        },
        {
          "duration": 0.11008499609374667,
          "durationTicks": 31,
          "midi": 79,
          "name": "G5",
          "ticks": 138128,
          "time": 463.2626221562501,
          "velocity": 0.8818897637795275
        },
        {
          "duration": 0.11008499609374667,
          "durationTicks": 31,
          "midi": 76,
          "name": "E5",
          "ticks": 138160,
          "time": 463.37625828125005,
          "velocity": 0.8818897637795275
        },
        {
          "duration": 0.11008499609374667,
          "durationTicks": 31,
          "midi": 72,
          "name": "C5",
          "ticks": 138192,
          "time": 463.4898944062501,
          "velocity": 0.8818897637795275
        },
        {
          "duration": 0.11008499609374667,
          "durationTicks": 31,
          "midi": 71,
          "name": "B4",
          "ticks": 138224,
          "time": 463.60353053125004,
          "velocity": 0.8818897637795275
        },
        {
          "duration": 0.11008499609374667,
          "durationTicks": 31,
          "midi": 72,
          "name": "C5",
          "ticks": 138256,
          "time": 463.7171666562501,
          "velocity": 0.8818897637795275
        },
        {
          "duration": 0.11008499609374667,
          "durationTicks": 31,
          "midi": 69,
          "name": "A4",
          "ticks": 138288,
          "time": 463.83080278125004,
          "velocity": 0.8818897637795275
        },
        {
          "duration": 0.11008499609374667,
          "durationTicks": 31,
          "midi": 74,
          "name": "D5",
          "ticks": 138320,
          "time": 463.94443890625007,
          "velocity": 0.8818897637795275
        },
        {
          "duration": 0.11008499609374667,
          "durationTicks": 31,
          "midi": 72,
          "name": "C5",
          "ticks": 138352,
          "time": 464.05807503125004,
          "velocity": 0.8818897637795275
        },
        {
          "duration": 0.11008499609374667,
          "durationTicks": 31,
          "midi": 74,
          "name": "D5",
          "ticks": 138384,
          "time": 464.17171115625007,
          "velocity": 0.8818897637795275
        },
        {
          "duration": 0.11008499609374667,
          "durationTicks": 31,
          "midi": 71,
          "name": "B4",
          "ticks": 138416,
          "time": 464.28534728125004,
          "velocity": 0.8818897637795275
        },
        {
          "duration": 0.11008499609374667,
          "durationTicks": 31,
          "midi": 68,
          "name": "G#4",
          "ticks": 138448,
          "time": 464.39898340625007,
          "velocity": 0.8818897637795275
        },
        {
          "duration": 0.11008499609374667,
          "durationTicks": 31,
          "midi": 66,
          "name": "F#4",
          "ticks": 138480,
          "time": 464.51261953125004,
          "velocity": 0.8818897637795275
        },
        {
          "duration": 0.11008499609374667,
          "durationTicks": 31,
          "midi": 68,
          "name": "G#4",
          "ticks": 138512,
          "time": 464.62625565625007,
          "velocity": 0.8818897637795275
        },
        {
          "duration": 0.11008499609374667,
          "durationTicks": 31,
          "midi": 64,
          "name": "E4",
          "ticks": 138544,
          "time": 464.73989178125004,
          "velocity": 0.8818897637795275
        },
        {
          "duration": 0.11008499609374667,
          "durationTicks": 31,
          "midi": 72,
          "name": "C5",
          "ticks": 138576,
          "time": 464.85352790625006,
          "velocity": 0.8818897637795275
        },
        {
          "duration": 0.11008499609374667,
          "durationTicks": 31,
          "midi": 71,
          "name": "B4",
          "ticks": 138608,
          "time": 464.96716403125004,
          "velocity": 0.8818897637795275
        },
        {
          "duration": 0.11008499609374667,
          "durationTicks": 31,
          "midi": 72,
          "name": "C5",
          "ticks": 138640,
          "time": 465.08080015625006,
          "velocity": 0.8818897637795275
        },
        {
          "duration": 0.11008499609374667,
          "durationTicks": 31,
          "midi": 69,
          "name": "A4",
          "ticks": 138672,
          "time": 465.19443628125003,
          "velocity": 0.8818897637795275
        },
        {
          "duration": 0.11008499609374667,
          "durationTicks": 31,
          "midi": 65,
          "name": "F4",
          "ticks": 138704,
          "time": 465.30807240625006,
          "velocity": 0.8818897637795275
        },
        {
          "duration": 0.11008499609374667,
          "durationTicks": 31,
          "midi": 64,
          "name": "E4",
          "ticks": 138736,
          "time": 465.42170853125003,
          "velocity": 0.8818897637795275
        },
        {
          "duration": 0.11008499609374667,
          "durationTicks": 31,
          "midi": 65,
          "name": "F4",
          "ticks": 138768,
          "time": 465.53534465625006,
          "velocity": 0.8818897637795275
        },
        {
          "duration": 0.11008499609374667,
          "durationTicks": 31,
          "midi": 62,
          "name": "D4",
          "ticks": 138800,
          "time": 465.64898078125003,
          "velocity": 0.8818897637795275
        },
        {
          "duration": 0.11008499609374667,
          "durationTicks": 31,
          "midi": 71,
          "name": "B4",
          "ticks": 138832,
          "time": 465.76261690625006,
          "velocity": 0.8818897637795275
        },
        {
          "duration": 0.11008499609374667,
          "durationTicks": 31,
          "midi": 69,
          "name": "A4",
          "ticks": 138864,
          "time": 465.87625303125003,
          "velocity": 0.8818897637795275
        },
        {
          "duration": 0.11008499609374667,
          "durationTicks": 31,
          "midi": 71,
          "name": "B4",
          "ticks": 138896,
          "time": 465.98988915625006,
          "velocity": 0.8818897637795275
        },
        {
          "duration": 0.11008499609380351,
          "durationTicks": 31,
          "midi": 60,
          "name": "C4",
          "ticks": 138928,
          "time": 466.10352528125003,
          "velocity": 0.8818897637795275
        },
        {
          "duration": 0.11008499609374667,
          "durationTicks": 31,
          "midi": 69,
          "name": "A4",
          "ticks": 138960,
          "time": 466.21716140625006,
          "velocity": 0.8818897637795275
        },
        {
          "duration": 0.11008499609380351,
          "durationTicks": 31,
          "midi": 67,
          "name": "G4",
          "ticks": 138992,
          "time": 466.33079753125,
          "velocity": 0.8818897637795275
        },
        {
          "duration": 0.11008499609374667,
          "durationTicks": 31,
          "midi": 69,
          "name": "A4",
          "ticks": 139024,
          "time": 466.44443365625006,
          "velocity": 0.8818897637795275
        },
        {
          "duration": 0.11008499609374667,
          "durationTicks": 31,
          "midi": 59,
          "name": "B3",
          "ticks": 139056,
          "time": 466.5580697812501,
          "velocity": 0.8818897637795275
        },
        {
          "duration": 0.11008499609374667,
          "durationTicks": 31,
          "midi": 68,
          "name": "G#4",
          "ticks": 139088,
          "time": 466.67170590625005,
          "velocity": 0.8818897637795275
        },
        {
          "duration": 0.11008499609374667,
          "durationTicks": 31,
          "midi": 66,
          "name": "F#4",
          "ticks": 139120,
          "time": 466.7853420312501,
          "velocity": 0.8818897637795275
        },
        {
          "duration": 0.11008499609374667,
          "durationTicks": 31,
          "midi": 68,
          "name": "G#4",
          "ticks": 139152,
          "time": 466.89897815625005,
          "velocity": 0.8818897637795275
        },
        {
          "duration": 0.11008499609374667,
          "durationTicks": 31,
          "midi": 64,
          "name": "E4",
          "ticks": 139184,
          "time": 467.0126142812501,
          "velocity": 0.8818897637795275
        },
        {
          "duration": 0.11008499609374667,
          "durationTicks": 31,
          "midi": 62,
          "name": "D4",
          "ticks": 139344,
          "time": 467.58079490625005,
          "velocity": 0.8818897637795275
        },
        {
          "duration": 0.11008499609374667,
          "durationTicks": 31,
          "midi": 60,
          "name": "C4",
          "ticks": 139376,
          "time": 467.6944310312501,
          "velocity": 0.8818897637795275
        },
        {
          "duration": 0.11008499609374667,
          "durationTicks": 31,
          "midi": 59,
          "name": "B3",
          "ticks": 139408,
          "time": 467.80806715625005,
          "velocity": 0.8818897637795275
        },
        {
          "duration": 0.1164999492187917,
          "durationTicks": 31,
          "midi": 64,
          "name": "E4",
          "ticks": 139472,
          "time": 468.03533940625005,
          "velocity": 0.8818897637795275
        },
        {
          "duration": 0.11718726562503434,
          "durationTicks": 31,
          "midi": 62,
          "name": "D4",
          "ticks": 139504,
          "time": 468.1556195898438,
          "velocity": 0.8818897637795275
        },
        {
          "duration": 0.11718726562503434,
          "durationTicks": 31,
          "midi": 60,
          "name": "C4",
          "ticks": 139536,
          "time": 468.2765870898438,
          "velocity": 0.8818897637795275
        },
        {
          "duration": 0.1171872656249775,
          "durationTicks": 31,
          "midi": 65,
          "name": "F4",
          "ticks": 139600,
          "time": 468.5185220898438,
          "velocity": 0.8818897637795275
        },
        {
          "duration": 0.1171872656249775,
          "durationTicks": 31,
          "midi": 64,
          "name": "E4",
          "ticks": 139632,
          "time": 468.63948958984383,
          "velocity": 0.8818897637795275
        },
        {
          "duration": 0.1171872656249775,
          "durationTicks": 31,
          "midi": 62,
          "name": "D4",
          "ticks": 139664,
          "time": 468.76045708984384,
          "velocity": 0.8818897637795275
        },
        {
          "duration": 0.1171872656249775,
          "durationTicks": 31,
          "midi": 67,
          "name": "G4",
          "ticks": 139728,
          "time": 469.00239208984385,
          "velocity": 0.8818897637795275
        },
        {
          "duration": 0.13065887499999462,
          "durationTicks": 31,
          "midi": 65,
          "name": "F4",
          "ticks": 139760,
          "time": 469.12335958984386,
          "velocity": 0.8818897637795275
        },
        {
          "duration": 0.13210226171878503,
          "durationTicks": 31,
          "midi": 64,
          "name": "E4",
          "ticks": 139792,
          "time": 469.25827982812507,
          "velocity": 0.8818897637795275
        },
        {
          "duration": 0.13210226171878503,
          "durationTicks": 31,
          "midi": 62,
          "name": "D4",
          "ticks": 139824,
          "time": 469.39464345312507,
          "velocity": 0.8818897637795275
        },
        {
          "duration": 0.13210226171878503,
          "durationTicks": 31,
          "midi": 69,
          "name": "A4",
          "ticks": 139856,
          "time": 469.53100707812507,
          "velocity": 0.8818897637795275
        },
        {
          "duration": 0.13210226171878503,
          "durationTicks": 31,
          "midi": 67,
          "name": "G4",
          "ticks": 139888,
          "time": 469.6673707031251,
          "velocity": 0.8818897637795275
        },
        {
          "duration": 0.1440340898437853,
          "durationTicks": 31,
          "midi": 65,
          "name": "F4",
          "ticks": 139920,
          "time": 469.8037343281251,
          "velocity": 0.8818897637795275
        },
        {
          "duration": 0.14531249999998863,
          "durationTicks": 31,
          "midi": 64,
          "name": "E4",
          "ticks": 139952,
          "time": 469.95245591796885,
          "velocity": 0.8818897637795275
        },
        {
          "duration": 0.14531249999998863,
          "durationTicks": 31,
          "midi": 67,
          "name": "G4",
          "ticks": 139984,
          "time": 470.1024559179688,
          "velocity": 0.8818897637795275
        },
        {
          "duration": 0.14531249999998863,
          "durationTicks": 31,
          "midi": 69,
          "name": "A4",
          "ticks": 140016,
          "time": 470.25245591796886,
          "velocity": 0.8818897637795275
        },
        {
          "duration": 0.14531249999998863,
          "durationTicks": 31,
          "midi": 71,
          "name": "B4",
          "ticks": 140048,
          "time": 470.40245591796884,
          "velocity": 0.8818897637795275
        },
        {
          "duration": 1.7791992187500227,
          "durationTicks": 244,
          "midi": 72,
          "name": "C5",
          "ticks": 140080,
          "time": 470.5524559179688,
          "velocity": 0.8818897637795275
        },
        {
          "duration": 0.8935546875,
          "durationTicks": 122,
          "midi": 60,
          "name": "C4",
          "ticks": 140208,
          "time": 471.48204576171884,
          "velocity": 0.8818897637795275
        },
        {
          "duration": 0.8935546875,
          "durationTicks": 122,
          "midi": 64,
          "name": "E4",
          "ticks": 140208,
          "time": 471.48204576171884,
          "velocity": 0.8818897637795275
        },
        {
          "duration": 0.8935546875,
          "durationTicks": 122,
          "midi": 67,
          "name": "G4",
          "ticks": 140208,
          "time": 471.48204576171884,
          "velocity": 0.8818897637795275
        },
        {
          "duration": 0.8935546875,
          "durationTicks": 122,
          "midi": 73,
          "name": "C#5",
          "ticks": 140336,
          "time": 472.41954576171884,
          "velocity": 0.8818897637795275
        },
        {
          "duration": 0.8935546875,
          "durationTicks": 122,
          "midi": 64,
          "name": "E4",
          "ticks": 140336,
          "time": 472.41954576171884,
          "velocity": 0.8818897637795275
        },
        {
          "duration": 0.8935546875,
          "durationTicks": 122,
          "midi": 69,
          "name": "A4",
          "ticks": 140336,
          "time": 472.41954576171884,
          "velocity": 0.8818897637795275
        },
        {
          "duration": 0.135119125000017,
          "durationTicks": 31,
          "midi": 57,
          "name": "A3",
          "ticks": 140464,
          "time": 473.35704576171884,
          "velocity": 0.8818897637795275
        },
        {
          "duration": 0.12526930468749242,
          "durationTicks": 31,
          "midi": 61,
          "name": "C#4",
          "ticks": 140496,
          "time": 473.49620583203136,
          "velocity": 0.8818897637795275
        },
        {
          "duration": 0.12526930468754927,
          "durationTicks": 31,
          "midi": 64,
          "name": "E4",
          "ticks": 140528,
          "time": 473.6255160820313,
          "velocity": 0.8818897637795275
        },
        {
          "duration": 0.12526930468754927,
          "durationTicks": 31,
          "midi": 69,
          "name": "A4",
          "ticks": 140560,
          "time": 473.7548263320313,
          "velocity": 0.8818897637795275
        },
        {
          "duration": 0.492995328125005,
          "durationTicks": 122,
          "midi": 73,
          "name": "C#5",
          "ticks": 140592,
          "time": 473.8841365820313,
          "velocity": 0.8818897637795275
        },
        {
          "duration": 0.492995328125005,
          "durationTicks": 122,
          "midi": 73,
          "name": "C#5",
          "ticks": 140720,
          "time": 474.40137758203133,
          "velocity": 0.8818897637795275
        },
        {
          "duration": 0.492995328125005,
          "durationTicks": 122,
          "midi": 64,
          "name": "E4",
          "ticks": 140720,
          "time": 474.40137758203133,
          "velocity": 0.8818897637795275
        },
        {
          "duration": 0.492995328125005,
          "durationTicks": 122,
          "midi": 69,
          "name": "A4",
          "ticks": 140720,
          "time": 474.40137758203133,
          "velocity": 0.8818897637795275
        },
        {
          "duration": 0.492995328125005,
          "durationTicks": 122,
          "midi": 74,
          "name": "D5",
          "ticks": 140848,
          "time": 474.91861858203134,
          "velocity": 0.8818897637795275
        },
        {
          "duration": 0.492995328125005,
          "durationTicks": 122,
          "midi": 62,
          "name": "D4",
          "ticks": 140848,
          "time": 474.91861858203134,
          "velocity": 0.8818897637795275
        },
        {
          "duration": 0.492995328125005,
          "durationTicks": 122,
          "midi": 65,
          "name": "F4",
          "ticks": 140848,
          "time": 474.91861858203134,
          "velocity": 0.8818897637795275
        },
        {
          "duration": 0.492995328125005,
          "durationTicks": 122,
          "midi": 69,
          "name": "A4",
          "ticks": 140848,
          "time": 474.91861858203134,
          "velocity": 0.8818897637795275
        },
        {
          "duration": 0.12526930468749242,
          "durationTicks": 31,
          "midi": 57,
          "name": "A3",
          "ticks": 140976,
          "time": 475.43585958203136,
          "velocity": 0.8818897637795275
        },
        {
          "duration": 0.12526930468749242,
          "durationTicks": 31,
          "midi": 62,
          "name": "D4",
          "ticks": 141008,
          "time": 475.56516983203136,
          "velocity": 0.8818897637795275
        },
        {
          "duration": 0.12526930468749242,
          "durationTicks": 31,
          "midi": 65,
          "name": "F4",
          "ticks": 141040,
          "time": 475.69448008203136,
          "velocity": 0.8818897637795275
        },
        {
          "duration": 0.12526930468749242,
          "durationTicks": 31,
          "midi": 69,
          "name": "A4",
          "ticks": 141072,
          "time": 475.82379033203136,
          "velocity": 0.8818897637795275
        },
        {
          "duration": 0.492995328125005,
          "durationTicks": 122,
          "midi": 74,
          "name": "D5",
          "ticks": 141104,
          "time": 475.9531005820313,
          "velocity": 0.8818897637795275
        },
        {
          "duration": 0.492995328125005,
          "durationTicks": 122,
          "midi": 74,
          "name": "D5",
          "ticks": 141232,
          "time": 476.4703415820313,
          "velocity": 0.8818897637795275
        },
        {
          "duration": 0.492995328125005,
          "durationTicks": 122,
          "midi": 65,
          "name": "F4",
          "ticks": 141232,
          "time": 476.4703415820313,
          "velocity": 0.8818897637795275
        },
        {
          "duration": 0.492995328125005,
          "durationTicks": 122,
          "midi": 69,
          "name": "A4",
          "ticks": 141232,
          "time": 476.4703415820313,
          "velocity": 0.8818897637795275
        },
        {
          "duration": 0.492995328125005,
          "durationTicks": 122,
          "midi": 71,
          "name": "B4",
          "ticks": 141360,
          "time": 476.98758258203134,
          "velocity": 0.8818897637795275
        },
        {
          "duration": 0.492995328125005,
          "durationTicks": 122,
          "midi": 62,
          "name": "D4",
          "ticks": 141360,
          "time": 476.98758258203134,
          "velocity": 0.8818897637795275
        },
        {
          "duration": 0.492995328125005,
          "durationTicks": 122,
          "midi": 67,
          "name": "G4",
          "ticks": 141360,
          "time": 476.98758258203134,
          "velocity": 0.8818897637795275
        },
        {
          "duration": 0.12526930468749242,
          "durationTicks": 31,
          "midi": 67,
          "name": "G4",
          "ticks": 141584,
          "time": 477.89275433203136,
          "velocity": 0.8818897637795275
        },
        {
          "duration": 0.4929953281249482,
          "durationTicks": 122,
          "midi": 71,
          "name": "B4",
          "ticks": 141616,
          "time": 478.02206458203136,
          "velocity": 0.8818897637795275
        },
        {
          "duration": 0.492995328125005,
          "durationTicks": 122,
          "midi": 71,
          "name": "B4",
          "ticks": 141744,
          "time": 478.5393055820313,
          "velocity": 0.8818897637795275
        },
        {
          "duration": 0.492995328125005,
          "durationTicks": 122,
          "midi": 62,
          "name": "D4",
          "ticks": 141744,
          "time": 478.5393055820313,
          "velocity": 0.8818897637795275
        },
        {
          "duration": 0.492995328125005,
          "durationTicks": 122,
          "midi": 67,
          "name": "G4",
          "ticks": 141744,
          "time": 478.5393055820313,
          "velocity": 0.8818897637795275
        },
        {
          "duration": 0.492995328125005,
          "durationTicks": 122,
          "midi": 72,
          "name": "C5",
          "ticks": 141872,
          "time": 479.05654658203133,
          "velocity": 0.8818897637795275
        },
        {
          "duration": 0.492995328125005,
          "durationTicks": 122,
          "midi": 64,
          "name": "E4",
          "ticks": 141872,
          "time": 479.05654658203133,
          "velocity": 0.8818897637795275
        },
        {
          "duration": 0.492995328125005,
          "durationTicks": 122,
          "midi": 67,
          "name": "G4",
          "ticks": 141872,
          "time": 479.05654658203133,
          "velocity": 0.8818897637795275
        },
        {
          "duration": 0.12526930468749242,
          "durationTicks": 31,
          "midi": 55,
          "name": "G3",
          "ticks": 142000,
          "time": 479.57378758203134,
          "velocity": 0.8818897637795275
        },
        {
          "duration": 0.12526930468749242,
          "durationTicks": 31,
          "midi": 60,
          "name": "C4",
          "ticks": 142032,
          "time": 479.70309783203135,
          "velocity": 0.8818897637795275
        },
        {
          "duration": 0.12526930468749242,
          "durationTicks": 31,
          "midi": 64,
          "name": "E4",
          "ticks": 142064,
          "time": 479.83240808203135,
          "velocity": 0.8818897637795275
        },
        {
          "duration": 0.12526930468749242,
          "durationTicks": 31,
          "midi": 67,
          "name": "G4",
          "ticks": 142096,
          "time": 479.96171833203135,
          "velocity": 0.8818897637795275
        },
        {
          "duration": 0.492995328125005,
          "durationTicks": 122,
          "midi": 72,
          "name": "C5",
          "ticks": 142128,
          "time": 480.09102858203136,
          "velocity": 0.8818897637795275
        },
        {
          "duration": 0.492995328125005,
          "durationTicks": 122,
          "midi": 72,
          "name": "C5",
          "ticks": 142256,
          "time": 480.6082695820313,
          "velocity": 0.8818897637795275
        },
        {
          "duration": 0.492995328125005,
          "durationTicks": 122,
          "midi": 64,
          "name": "E4",
          "ticks": 142256,
          "time": 480.6082695820313,
          "velocity": 0.8818897637795275
        },
        {
          "duration": 0.492995328125005,
          "durationTicks": 122,
          "midi": 67,
          "name": "G4",
          "ticks": 142256,
          "time": 480.6082695820313,
          "velocity": 0.8818897637795275
        },
        {
          "duration": 0.492995328125005,
          "durationTicks": 122,
          "midi": 69,
          "name": "A4",
          "ticks": 142384,
          "time": 481.1255105820313,
          "velocity": 0.8818897637795275
        },
        {
          "duration": 0.492995328125005,
          "durationTicks": 122,
          "midi": 60,
          "name": "C4",
          "ticks": 142384,
          "time": 481.1255105820313,
          "velocity": 0.8818897637795275
        },
        {
          "duration": 0.492995328125005,
          "durationTicks": 122,
          "midi": 65,
          "name": "F4",
          "ticks": 142384,
          "time": 481.1255105820313,
          "velocity": 0.8818897637795275
        },
        {
          "duration": 0.12526930468749242,
          "durationTicks": 31,
          "midi": 65,
          "name": "F4",
          "ticks": 142608,
          "time": 482.03068233203135,
          "velocity": 0.8818897637795275
        },
        {
          "duration": 0.492995328125005,
          "durationTicks": 122,
          "midi": 69,
          "name": "A4",
          "ticks": 142640,
          "time": 482.15999258203135,
          "velocity": 0.8818897637795275
        },
        {
          "duration": 0.4929953281249482,
          "durationTicks": 122,
          "midi": 69,
          "name": "A4",
          "ticks": 142768,
          "time": 482.67723358203136,
          "velocity": 0.8818897637795275
        },
        {
          "duration": 0.4929953281249482,
          "durationTicks": 122,
          "midi": 60,
          "name": "C4",
          "ticks": 142768,
          "time": 482.67723358203136,
          "velocity": 0.8818897637795275
        },
        {
          "duration": 0.4929953281249482,
          "durationTicks": 122,
          "midi": 65,
          "name": "F4",
          "ticks": 142768,
          "time": 482.67723358203136,
          "velocity": 0.8818897637795275
        },
        {
          "duration": 0.492995328125005,
          "durationTicks": 122,
          "midi": 70,
          "name": "A#4",
          "ticks": 142896,
          "time": 483.1944745820313,
          "velocity": 0.8818897637795275
        },
        {
          "duration": 0.492995328125005,
          "durationTicks": 122,
          "midi": 62,
          "name": "D4",
          "ticks": 142896,
          "time": 483.1944745820313,
          "velocity": 0.8818897637795275
        },
        {
          "duration": 0.492995328125005,
          "durationTicks": 122,
          "midi": 65,
          "name": "F4",
          "ticks": 142896,
          "time": 483.1944745820313,
          "velocity": 0.8818897637795275
        },
        {
          "duration": 0.12526930468749242,
          "durationTicks": 31,
          "midi": 65,
          "name": "F4",
          "ticks": 143120,
          "time": 484.09964633203134,
          "velocity": 0.8818897637795275
        },
        {
          "duration": 0.492995328125005,
          "durationTicks": 122,
          "midi": 70,
          "name": "A#4",
          "ticks": 143152,
          "time": 484.22895658203134,
          "velocity": 0.8818897637795275
        },
        {
          "duration": 0.492995328125005,
          "durationTicks": 122,
          "midi": 70,
          "name": "A#4",
          "ticks": 143280,
          "time": 484.74619758203136,
          "velocity": 0.8818897637795275
        },
        {
          "duration": 0.492995328125005,
          "durationTicks": 122,
          "midi": 62,
          "name": "D4",
          "ticks": 143280,
          "time": 484.74619758203136,
          "velocity": 0.8818897637795275
        },
        {
          "duration": 0.492995328125005,
          "durationTicks": 122,
          "midi": 65,
          "name": "F4",
          "ticks": 143280,
          "time": 484.74619758203136,
          "velocity": 0.8818897637795275
        },
        {
          "duration": 0.492995328125005,
          "durationTicks": 122,
          "midi": 70,
          "name": "A#4",
          "ticks": 143408,
          "time": 485.2634385820313,
          "velocity": 0.8818897637795275
        },
        {
          "duration": 0.492995328125005,
          "durationTicks": 122,
          "midi": 67,
          "name": "G4",
          "ticks": 143408,
          "time": 485.2634385820313,
          "velocity": 0.8818897637795275
        },
        {
          "duration": 0.1345485976562486,
          "durationTicks": 31,
          "midi": 61,
          "name": "C#4",
          "ticks": 143632,
          "time": 486.1964482109376,
          "velocity": 0.8818897637795275
        },
        {
          "duration": 0.5295138359375073,
          "durationTicks": 122,
          "midi": 70,
          "name": "A#4",
          "ticks": 143664,
          "time": 486.3353370859376,
          "velocity": 0.8818897637795275
        },
        {
          "duration": 0.5295138359375073,
          "durationTicks": 122,
          "midi": 70,
          "name": "A#4",
          "ticks": 143792,
          "time": 486.8908925859376,
          "velocity": 0.8818897637795275
        },
        {
          "duration": 0.5295138359375073,
          "durationTicks": 122,
          "midi": 61,
          "name": "C#4",
          "ticks": 143792,
          "time": 486.8908925859376,
          "velocity": 0.8818897637795275
        },
        {
          "duration": 0.5295138359375073,
          "durationTicks": 122,
          "midi": 64,
          "name": "E4",
          "ticks": 143792,
          "time": 486.8908925859376,
          "velocity": 0.8818897637795275
        },
        {
          "duration": 0.5295138359375073,
          "durationTicks": 122,
          "midi": 67,
          "name": "G4",
          "ticks": 143792,
          "time": 486.8908925859376,
          "velocity": 0.8818897637795275
        },
        {
          "duration": 0.5295138359375073,
          "durationTicks": 122,
          "midi": 69,
          "name": "A4",
          "ticks": 143920,
          "time": 487.4464480859376,
          "velocity": 0.8818897637795275
        },
        {
          "duration": 0.5295138359375073,
          "durationTicks": 122,
          "midi": 62,
          "name": "D4",
          "ticks": 143920,
          "time": 487.4464480859376,
          "velocity": 0.8818897637795275
        },
        {
          "duration": 0.5295138359375073,
          "durationTicks": 122,
          "midi": 66,
          "name": "F#4",
          "ticks": 143920,
          "time": 487.4464480859376,
          "velocity": 0.8818897637795275
        },
        {
          "duration": 0.14531249999998863,
          "durationTicks": 31,
          "midi": 66,
          "name": "F#4",
          "ticks": 144144,
          "time": 488.45096191796887,
          "velocity": 0.8818897637795275
        },
        {
          "duration": 0.5718749999999773,
          "durationTicks": 122,
          "midi": 69,
          "name": "A4",
          "ticks": 144176,
          "time": 488.60096191796885,
          "velocity": 0.8818897637795275
        },
        {
          "duration": 1.807811859374965,
          "durationTicks": 372,
          "midi": 69,
          "name": "A4",
          "ticks": 144304,
          "time": 489.20096191796887,
          "velocity": 0.8818897637795275
        },
        {
          "duration": 0.5718749999999773,
          "durationTicks": 122,
          "midi": 62,
          "name": "D4",
          "ticks": 144304,
          "time": 489.20096191796887,
          "velocity": 0.8818897637795275
        },
        {
          "duration": 0.5718749999999773,
          "durationTicks": 122,
          "midi": 66,
          "name": "F#4",
          "ticks": 144304,
          "time": 489.20096191796887,
          "velocity": 0.8818897637795275
        },
        {
          "duration": 2.4734355937499686,
          "durationTicks": 487,
          "midi": 58,
          "name": "A#3",
          "ticks": 144432,
          "time": 489.80096191796883,
          "velocity": 0.8818897637795275
        },
        {
          "duration": 2.4734355937499686,
          "durationTicks": 487,
          "midi": 62,
          "name": "D4",
          "ticks": 144432,
          "time": 489.80096191796883,
          "velocity": 0.8818897637795275
        },
        {
          "duration": 2.536455796875032,
          "durationTicks": 487,
          "midi": 67,
          "name": "G4",
          "ticks": 144688,
          "time": 491.0712737148438,
          "velocity": 0.8818897637795275
        },
        {
          "duration": 1.2708320625000056,
          "durationTicks": 244,
          "midi": 61,
          "name": "C#4",
          "ticks": 144944,
          "time": 492.4046057148438,
          "velocity": 0.8818897637795275
        },
        {
          "duration": 1.2708320625000056,
          "durationTicks": 244,
          "midi": 64,
          "name": "E4",
          "ticks": 144944,
          "time": 492.4046057148438,
          "velocity": 0.8818897637795275
        },
        {
          "duration": 1.4277343593749947,
          "durationTicks": 244,
          "midi": 65,
          "name": "F4",
          "ticks": 145200,
          "time": 493.73793771484384,
          "velocity": 0.8818897637795275
        },
        {
          "duration": 2.9277343593749947,
          "durationTicks": 500,
          "midi": 62,
          "name": "D4",
          "ticks": 145200,
          "time": 493.73793771484384,
          "velocity": 0.8818897637795275
        },
        {
          "duration": 3.044362312500027,
          "durationTicks": 487,
          "midi": 64,
          "name": "E4",
          "ticks": 145456,
          "time": 495.23598457421883,
          "velocity": 0.8818897637795275
        },
        {
          "duration": 3.34569979687501,
          "durationTicks": 500,
          "midi": 60,
          "name": "C4",
          "ticks": 145712,
          "time": 496.73598457421883,
          "velocity": 0.8818897637795275
        },
        {
          "duration": 11.718740281250007,
          "durationTicks": 2048,
          "midi": 62,
          "name": "D4",
          "ticks": 145968,
          "time": 498.44775743359384,
          "velocity": 0.8818897637795275
        }
      ],
      "endOfTrackTicks": 148016
    },
    {
      "channel": 3,
      "controlChanges": {
        "7": [
          {
            "number": 7,
            "ticks": 0,
            "time": 0,
            "value": 0.7480314960629921
          }
        ],
        "10": [
          {
            "number": 10,
            "ticks": 0,
            "time": 0,
            "value": 0.4015748031496063
          }
        ]
      },
      "pitchBends": [],
      "instrument": {
        "family": "organ",
        "name": "church organ",
        "number": 19
      },
      "name": "Manuals ",
      "notes": [
        {
          "duration": 0.17045449999999995,
          "durationTicks": 16,
          "midi": 57,
          "name": "A3",
          "ticks": 656,
          "time": 7.866162031250001,
          "velocity": 0.8818897637795275
        },
        {
          "duration": 0.17045449999999995,
          "durationTicks": 16,
          "midi": 55,
          "name": "G3",
          "ticks": 672,
          "time": 8.03661653125,
          "velocity": 0.8818897637795275
        },
        {
          "duration": 1.9758930703125,
          "durationTicks": 144,
          "midi": 57,
          "name": "A3",
          "ticks": 688,
          "time": 8.20707103125,
          "velocity": 0.8818897637795275
        },
        {
          "duration": 0.3694852734374994,
          "durationTicks": 31,
          "midi": 52,
          "name": "E3",
          "ticks": 864,
          "time": 10.6241403515625,
          "velocity": 0.8818897637795275
        },
        {
          "duration": 0.36328125,
          "durationTicks": 31,
          "midi": 53,
          "name": "F3",
          "ticks": 896,
          "time": 11.005344375,
          "velocity": 0.8818897637795275
        },
        {
          "duration": 0.36328125,
          "durationTicks": 31,
          "midi": 49,
          "name": "C#3",
          "ticks": 928,
          "time": 11.380344375,
          "velocity": 0.8818897637795275
        },
        {
          "duration": 0.71484375,
          "durationTicks": 61,
          "midi": 50,
          "name": "D3",
          "ticks": 960,
          "time": 11.755344375,
          "velocity": 0.8818897637795275
        },
        {
          "duration": 0.3816425703124988,
          "durationTicks": 32,
          "midi": 45,
          "name": "A2",
          "ticks": 1248,
          "time": 14.89490340625,
          "velocity": 0.8818897637795275
        },
        {
          "duration": 0.21118807031249887,
          "durationTicks": 16,
          "midi": 43,
          "name": "G2",
          "ticks": 1264,
          "time": 15.06535790625,
          "velocity": 0.8818897637795275
        },
        {
          "duration": 2.205881250000001,
          "durationTicks": 160,
          "midi": 45,
          "name": "A2",
          "ticks": 1280,
          "time": 15.276545976562499,
          "velocity": 0.8818897637795275
        },
        {
          "duration": 0.19370402343750115,
          "durationTicks": 16,
          "midi": 55,
          "name": "G3",
          "ticks": 1472,
          "time": 17.923603476562498,
          "velocity": 0.8818897637795275
        },
        {
          "duration": 0.19370402343750115,
          "durationTicks": 16,
          "midi": 43,
          "name": "G2",
          "ticks": 1472,
          "time": 17.923603476562498,
          "velocity": 0.8818897637795275
        },
        {
          "duration": 0.1875,
          "durationTicks": 16,
          "midi": 53,
          "name": "F3",
          "ticks": 1488,
          "time": 18.1173075,
          "velocity": 0.8818897637795275
        },
        {
          "duration": 0.1875,
          "durationTicks": 16,
          "midi": 41,
          "name": "F2",
          "ticks": 1488,
          "time": 18.1173075,
          "velocity": 0.8818897637795275
        },
        {
          "duration": 0.1875,
          "durationTicks": 16,
          "midi": 52,
          "name": "E3",
          "ticks": 1504,
          "time": 18.3048075,
          "velocity": 0.8818897637795275
        },
        {
          "duration": 0.1875,
          "durationTicks": 16,
          "midi": 40,
          "name": "E2",
          "ticks": 1504,
          "time": 18.3048075,
          "velocity": 0.8818897637795275
        },
        {
          "duration": 0.1875,
          "durationTicks": 16,
          "midi": 50,
          "name": "D3",
          "ticks": 1520,
          "time": 18.4923075,
          "velocity": 0.8818897637795275
        },
        {
          "duration": 0.1875,
          "durationTicks": 16,
          "midi": 38,
          "name": "D2",
          "ticks": 1520,
          "time": 18.4923075,
          "velocity": 0.8818897637795275
        },
        {
          "duration": 0.36328125,
          "durationTicks": 31,
          "midi": 49,
          "name": "C#3",
          "ticks": 1536,
          "time": 18.6798075,
          "velocity": 0.8818897637795275
        },
        {
          "duration": 0.36328125,
          "durationTicks": 31,
          "midi": 37,
          "name": "C#2",
          "ticks": 1536,
          "time": 18.6798075,
          "velocity": 0.8818897637795275
        },
        {
          "duration": 0.71484375,
          "durationTicks": 61,
          "midi": 50,
          "name": "D3",
          "ticks": 1568,
          "time": 19.0548075,
          "velocity": 0.8818897637795275
        },
        {
          "duration": 0.71484375,
          "durationTicks": 61,
          "midi": 38,
          "name": "D2",
          "ticks": 1568,
          "time": 19.0548075,
          "velocity": 0.8818897637795275
        },
        {
          "duration": 4.985794124999998,
          "durationTicks": 468,
          "midi": 49,
          "name": "C#3",
          "ticks": 2070,
          "time": 24.76396896875,
          "velocity": 0.8818897637795275
        },
        {
          "duration": 4.985794124999998,
          "durationTicks": 468,
          "midi": 52,
          "name": "E3",
          "ticks": 2100,
          "time": 25.08357115625,
          "velocity": 0.8818897637795275
        },
        {
          "duration": 6.121447406249999,
          "durationTicks": 541,
          "midi": 55,
          "name": "G3",
          "ticks": 2130,
          "time": 25.403173343749998,
          "velocity": 0.8818897637795275
        },
        {
          "duration": 4.985794125000002,
          "durationTicks": 468,
          "midi": 58,
          "name": "A#3",
          "ticks": 2160,
          "time": 25.722775531249997,
          "velocity": 0.8818897637795275
        },
        {
          "duration": 4.297585218749997,
          "durationTicks": 244,
          "midi": 50,
          "name": "D3",
          "ticks": 2640,
          "time": 30.83641053125,
          "velocity": 0.8818897637795275
        },
        {
          "duration": 4.297585218749997,
          "durationTicks": 244,
          "midi": 57,
          "name": "A3",
          "ticks": 2640,
          "time": 30.83641053125,
          "velocity": 0.8818897637795275
        },
        {
          "duration": 0.9765625,
          "durationTicks": 61,
          "midi": 52,
          "name": "E3",
          "ticks": 2704,
          "time": 32.29805825,
          "velocity": 0.8818897637795275
        },
        {
          "duration": 1.90625,
          "durationTicks": 122,
          "midi": 54,
          "name": "F#3",
          "ticks": 2768,
          "time": 33.32149575,
          "velocity": 0.8818897637795275
        },
        {
          "duration": 0.1741476679687537,
          "durationTicks": 61,
          "midi": 49,
          "name": "C#3",
          "ticks": 3344,
          "time": 36.60999897265625,
          "velocity": 0.8818897637795275
        },
        {
          "duration": 0.11432906249999775,
          "durationTicks": 40,
          "midi": 50,
          "name": "D3",
          "ticks": 3408,
          "time": 36.7927213203125,
          "velocity": 0.8818897637795275
        },
        {
          "duration": 0.11718728906250675,
          "durationTicks": 41,
          "midi": 52,
          "name": "E3",
          "ticks": 3450,
          "time": 36.9127668359375,
          "velocity": 0.8818897637795275
        },
        {
          "duration": 0.11718728906249964,
          "durationTicks": 41,
          "midi": 49,
          "name": "C#3",
          "ticks": 3493,
          "time": 37.035670578125,
          "velocity": 0.8818897637795275
        },
        {
          "duration": 0.11432906249999775,
          "durationTicks": 40,
          "midi": 50,
          "name": "D3",
          "ticks": 3536,
          "time": 37.1585743203125,
          "velocity": 0.8818897637795275
        },
        {
          "duration": 0.11718728906249964,
          "durationTicks": 41,
          "midi": 52,
          "name": "E3",
          "ticks": 3578,
          "time": 37.2786198359375,
          "velocity": 0.8818897637795275
        },
        {
          "duration": 0.11718728906249964,
          "durationTicks": 41,
          "midi": 49,
          "name": "C#3",
          "ticks": 3621,
          "time": 37.401523578125,
          "velocity": 0.8818897637795275
        },
        {
          "duration": 0.11432906250000485,
          "durationTicks": 40,
          "midi": 50,
          "name": "D3",
          "ticks": 3664,
          "time": 37.5244273203125,
          "velocity": 0.8818897637795275
        },
        {
          "duration": 0.11718728906249964,
          "durationTicks": 41,
          "midi": 52,
          "name": "E3",
          "ticks": 3706,
          "time": 37.6444728359375,
          "velocity": 0.8818897637795275
        },
        {
          "duration": 0.11718728906249964,
          "durationTicks": 41,
          "midi": 49,
          "name": "C#3",
          "ticks": 3749,
          "time": 37.767376578125,
          "velocity": 0.8818897637795275
        },
        {
          "duration": 0.17040487499999557,
          "durationTicks": 61,
          "midi": 50,
          "name": "D3",
          "ticks": 3792,
          "time": 37.8902803203125,
          "velocity": 0.8818897637795275
        },
        {
          "duration": 0.1702007226562543,
          "durationTicks": 61,
          "midi": 52,
          "name": "E3",
          "ticks": 3856,
          "time": 38.069055722656245,
          "velocity": 0.8818897637795275
        },
        {
          "duration": 0.11160703124999571,
          "durationTicks": 40,
          "midi": 53,
          "name": "F3",
          "ticks": 3920,
          "time": 38.24762697265625,
          "velocity": 0.8818897637795275
        },
        {
          "duration": 0.11439720703125289,
          "durationTicks": 41,
          "midi": 55,
          "name": "G3",
          "ticks": 3962,
          "time": 38.364814355468745,
          "velocity": 0.8818897637795275
        },
        {
          "duration": 0.11439720703124578,
          "durationTicks": 41,
          "midi": 52,
          "name": "E3",
          "ticks": 4005,
          "time": 38.4847919140625,
          "velocity": 0.8818897637795275
        },
        {
          "duration": 0.11160703125000282,
          "durationTicks": 40,
          "midi": 53,
          "name": "F3",
          "ticks": 4048,
          "time": 38.604769472656244,
          "velocity": 0.8818897637795275
        },
        {
          "duration": 0.11439720703125289,
          "durationTicks": 41,
          "midi": 55,
          "name": "G3",
          "ticks": 4090,
          "time": 38.72195685546875,
          "velocity": 0.8818897637795275
        },
        {
          "duration": 0.11439720703124578,
          "durationTicks": 41,
          "midi": 52,
          "name": "E3",
          "ticks": 4133,
          "time": 38.8419344140625,
          "velocity": 0.8818897637795275
        },
        {
          "duration": 0.11160703125000282,
          "durationTicks": 40,
          "midi": 53,
          "name": "F3",
          "ticks": 4176,
          "time": 38.961911972656246,
          "velocity": 0.8818897637795275
        },
        {
          "duration": 0.11439720703124578,
          "durationTicks": 41,
          "midi": 55,
          "name": "G3",
          "ticks": 4218,
          "time": 39.07909935546875,
          "velocity": 0.8818897637795275
        },
        {
          "duration": 0.11439720703125289,
          "durationTicks": 41,
          "midi": 52,
          "name": "E3",
          "ticks": 4261,
          "time": 39.199076914062495,
          "velocity": 0.8818897637795275
        },
        {
          "duration": 0.1702007226562472,
          "durationTicks": 61,
          "midi": 53,
          "name": "F3",
          "ticks": 4304,
          "time": 39.31905447265625,
          "velocity": 0.8818897637795275
        },
        {
          "duration": 0.1702007226562543,
          "durationTicks": 61,
          "midi": 55,
          "name": "G3",
          "ticks": 4368,
          "time": 39.497625722656245,
          "velocity": 0.8818897637795275
        },
        {
          "duration": 0.10920607812499838,
          "durationTicks": 40,
          "midi": 57,
          "name": "A3",
          "ticks": 4432,
          "time": 39.67619697265625,
          "velocity": 0.8818897637795275
        },
        {
          "duration": 0.11173669140625009,
          "durationTicks": 41,
          "midi": 58,
          "name": "A#3",
          "ticks": 4474,
          "time": 39.79085362109375,
          "velocity": 0.8818897637795275
        },
        {
          "duration": 0.11173669140625009,
          "durationTicks": 41,
          "midi": 55,
          "name": "G3",
          "ticks": 4517,
          "time": 39.9080408828125,
          "velocity": 0.8818897637795275
        },
        {
          "duration": 0.10901140625000494,
          "durationTicks": 40,
          "midi": 57,
          "name": "A3",
          "ticks": 4560,
          "time": 40.02522814453125,
          "velocity": 0.8818897637795275
        },
        {
          "duration": 0.11173669140625009,
          "durationTicks": 41,
          "midi": 58,
          "name": "A#3",
          "ticks": 4602,
          "time": 40.13969012109375,
          "velocity": 0.8818897637795275
        },
        {
          "duration": 0.11173669140625009,
          "durationTicks": 41,
          "midi": 55,
          "name": "G3",
          "ticks": 4645,
          "time": 40.2568773828125,
          "velocity": 0.8818897637795275
        },
        {
          "duration": 0.10901140624999783,
          "durationTicks": 40,
          "midi": 57,
          "name": "A3",
          "ticks": 4688,
          "time": 40.37406464453125,
          "velocity": 0.8818897637795275
        },
        {
          "duration": 0.11173669140625009,
          "durationTicks": 41,
          "midi": 58,
          "name": "A#3",
          "ticks": 4730,
          "time": 40.48852662109375,
          "velocity": 0.8818897637795275
        },
        {
          "duration": 0.11173669140625009,
          "durationTicks": 41,
          "midi": 55,
          "name": "G3",
          "ticks": 4773,
          "time": 40.6057138828125,
          "velocity": 0.8818897637795275
        },
        {
          "duration": 0.16624239453125256,
          "durationTicks": 61,
          "midi": 57,
          "name": "A3",
          "ticks": 4816,
          "time": 40.72290114453125,
          "velocity": 0.8818897637795275
        },
        {
          "duration": 0.17395299609375314,
          "durationTicks": 61,
          "midi": 61,
          "name": "C#4",
          "ticks": 5424,
          "time": 42.37987451953125,
          "velocity": 0.8818897637795275
        },
        {
          "duration": 0.11432906249999775,
          "durationTicks": 40,
          "midi": 62,
          "name": "D4",
          "ticks": 5488,
          "time": 42.5624021953125,
          "velocity": 0.8818897637795275
        },
        {
          "duration": 0.11718728906250675,
          "durationTicks": 41,
          "midi": 64,
          "name": "E4",
          "ticks": 5530,
          "time": 42.682447710937495,
          "velocity": 0.8818897637795275
        },
        {
          "duration": 0.11718728906249964,
          "durationTicks": 41,
          "midi": 61,
          "name": "C#4",
          "ticks": 5573,
          "time": 42.805351453125,
          "velocity": 0.8818897637795275
        },
        {
          "duration": 0.11432906249999775,
          "durationTicks": 40,
          "midi": 62,
          "name": "D4",
          "ticks": 5616,
          "time": 42.9282551953125,
          "velocity": 0.8818897637795275
        },
        {
          "duration": 0.11718728906249964,
          "durationTicks": 41,
          "midi": 64,
          "name": "E4",
          "ticks": 5658,
          "time": 43.0483007109375,
          "velocity": 0.8818897637795275
        },
        {
          "duration": 0.11718728906249964,
          "durationTicks": 41,
          "midi": 61,
          "name": "C#4",
          "ticks": 5701,
          "time": 43.171204453125,
          "velocity": 0.8818897637795275
        },
        {
          "duration": 0.11432906250000485,
          "durationTicks": 40,
          "midi": 62,
          "name": "D4",
          "ticks": 5744,
          "time": 43.294108195312496,
          "velocity": 0.8818897637795275
        },
        {
          "duration": 0.11718728906249964,
          "durationTicks": 41,
          "midi": 64,
          "name": "E4",
          "ticks": 5786,
          "time": 43.4141537109375,
          "velocity": 0.8818897637795275
        },
        {
          "duration": 0.11718728906249964,
          "durationTicks": 41,
          "midi": 61,
          "name": "C#4",
          "ticks": 5829,
          "time": 43.537057453125,
          "velocity": 0.8818897637795275
        },
        {
          "duration": 0.17040487499999557,
          "durationTicks": 61,
          "midi": 62,
          "name": "D4",
          "ticks": 5872,
          "time": 43.6599611953125,
          "velocity": 0.8818897637795275
        },
        {
          "duration": 0.1702007226562543,
          "durationTicks": 61,
          "midi": 64,
          "name": "E4",
          "ticks": 5936,
          "time": 43.83873659765624,
          "velocity": 0.8818897637795275
        },
        {
          "duration": 0.11160703124999571,
          "durationTicks": 40,
          "midi": 65,
          "name": "F4",
          "ticks": 6000,
          "time": 44.01730784765625,
          "velocity": 0.8818897637795275
        },
        {
          "duration": 0.11439720703125289,
          "durationTicks": 41,
          "midi": 67,
          "name": "G4",
          "ticks": 6042,
          "time": 44.134495230468744,
          "velocity": 0.8818897637795275
        },
        {
          "duration": 0.11439720703125289,
          "durationTicks": 41,
          "midi": 64,
          "name": "E4",
          "ticks": 6085,
          "time": 44.2544727890625,
          "velocity": 0.8818897637795275
        },
        {
          "duration": 0.11160703125000282,
          "durationTicks": 40,
          "midi": 65,
          "name": "F4",
          "ticks": 6128,
          "time": 44.37445034765624,
          "velocity": 0.8818897637795275
        },
        {
          "duration": 0.11439720703125289,
          "durationTicks": 41,
          "midi": 67,
          "name": "G4",
          "ticks": 6170,
          "time": 44.491637730468746,
          "velocity": 0.8818897637795275
        },
        {
          "duration": 0.11439720703124578,
          "durationTicks": 41,
          "midi": 64,
          "name": "E4",
          "ticks": 6213,
          "time": 44.6116152890625,
          "velocity": 0.8818897637795275
        },
        {
          "duration": 0.11160703125000282,
          "durationTicks": 40,
          "midi": 65,
          "name": "F4",
          "ticks": 6256,
          "time": 44.731592847656245,
          "velocity": 0.8818897637795275
        },
        {
          "duration": 0.11439720703124578,
          "durationTicks": 41,
          "midi": 67,
          "name": "G4",
          "ticks": 6298,
          "time": 44.84878023046875,
          "velocity": 0.8818897637795275
        },
        {
          "duration": 0.11439720703125289,
          "durationTicks": 41,
          "midi": 64,
          "name": "E4",
          "ticks": 6341,
          "time": 44.968757789062494,
          "velocity": 0.8818897637795275
        },
        {
          "duration": 0.1664370664062531,
          "durationTicks": 61,
          "midi": 65,
          "name": "F4",
          "ticks": 6384,
          "time": 45.08873534765625,
          "velocity": 0.8818897637795275
        },
        {
          "duration": 0.16624239453124545,
          "durationTicks": 61,
          "midi": 67,
          "name": "G4",
          "ticks": 6448,
          "time": 45.26334826953125,
          "velocity": 0.8818897637795275
        },
        {
          "duration": 0.10901140625000494,
          "durationTicks": 40,
          "midi": 69,
          "name": "A4",
          "ticks": 6512,
          "time": 45.437766519531245,
          "velocity": 0.8818897637795275
        },
        {
          "duration": 0.11173669140625009,
          "durationTicks": 41,
          "midi": 70,
          "name": "A#4",
          "ticks": 6554,
          "time": 45.55222849609375,
          "velocity": 0.8818897637795275
        },
        {
          "duration": 0.11173669140625009,
          "durationTicks": 41,
          "midi": 67,
          "name": "G4",
          "ticks": 6597,
          "time": 45.669415757812494,
          "velocity": 0.8818897637795275
        },
        {
          "duration": 0.10901140624999783,
          "durationTicks": 40,
          "midi": 69,
          "name": "A4",
          "ticks": 6640,
          "time": 45.78660301953125,
          "velocity": 0.8818897637795275
        },
        {
          "duration": 0.11173669140625009,
          "durationTicks": 41,
          "midi": 70,
          "name": "A#4",
          "ticks": 6682,
          "time": 45.901064996093744,
          "velocity": 0.8818897637795275
        },
        {
          "duration": 0.11173669140625009,
          "durationTicks": 41,
          "midi": 67,
          "name": "G4",
          "ticks": 6725,
          "time": 46.0182522578125,
          "velocity": 0.8818897637795275
        },
        {
          "duration": 0.10901140624999783,
          "durationTicks": 40,
          "midi": 69,
          "name": "A4",
          "ticks": 6768,
          "time": 46.135439519531246,
          "velocity": 0.8818897637795275
        },
        {
          "duration": 0.11173669140625009,
          "durationTicks": 41,
          "midi": 70,
          "name": "A#4",
          "ticks": 6810,
          "time": 46.24990149609375,
          "velocity": 0.8818897637795275
        },
        {
          "duration": 0.11173669140625009,
          "durationTicks": 41,
          "midi": 67,
          "name": "G4",
          "ticks": 6853,
          "time": 46.367088757812496,
          "velocity": 0.8818897637795275
        },
        {
          "duration": 0.16624239453125256,
          "durationTicks": 61,
          "midi": 69,
          "name": "A4",
          "ticks": 6896,
          "time": 46.484276019531244,
          "velocity": 0.8818897637795275
        },
        {
          "duration": 0.17000605078124664,
          "durationTicks": 61,
          "midi": 69,
          "name": "A4",
          "ticks": 7504,
          "time": 48.14124939453125,
          "velocity": 0.8818897637795275
        },
        {
          "duration": 0.11160703125000282,
          "durationTicks": 40,
          "midi": 67,
          "name": "G4",
          "ticks": 7568,
          "time": 48.31962597265625,
          "velocity": 0.8818897637795275
        },
        {
          "duration": 0.11439720703125289,
          "durationTicks": 41,
          "midi": 70,
          "name": "A#4",
          "ticks": 7610,
          "time": 48.43681335546875,
          "velocity": 0.8818897637795275
        },
        {
          "duration": 0.11439720703124578,
          "durationTicks": 41,
          "midi": 64,
          "name": "E4",
          "ticks": 7653,
          "time": 48.5567909140625,
          "velocity": 0.8818897637795275
        },
        {
          "duration": 0.11160703125000282,
          "durationTicks": 40,
          "midi": 67,
          "name": "G4",
          "ticks": 7696,
          "time": 48.67676847265625,
          "velocity": 0.8818897637795275
        },
        {
          "duration": 0.11439720703124578,
          "durationTicks": 41,
          "midi": 70,
          "name": "A#4",
          "ticks": 7738,
          "time": 48.79395585546875,
          "velocity": 0.8818897637795275
        },
        {
          "duration": 0.11439720703125289,
          "durationTicks": 41,
          "midi": 64,
          "name": "E4",
          "ticks": 7781,
          "time": 48.9139334140625,
          "velocity": 0.8818897637795275
        },
        {
          "duration": 0.11160703124999571,
          "durationTicks": 40,
          "midi": 65,
          "name": "F4",
          "ticks": 7824,
          "time": 49.03391097265625,
          "velocity": 0.8818897637795275
        },
        {
          "duration": 0.11439720703125289,
          "durationTicks": 41,
          "midi": 69,
          "name": "A4",
          "ticks": 7866,
          "time": 49.15109835546875,
          "velocity": 0.8818897637795275
        },
        {
          "duration": 0.11439720703125289,
          "durationTicks": 41,
          "midi": 62,
          "name": "D4",
          "ticks": 7909,
          "time": 49.2710759140625,
          "velocity": 0.8818897637795275
        },
        {
          "duration": 0.11160703124999571,
          "durationTicks": 40,
          "midi": 65,
          "name": "F4",
          "ticks": 7952,
          "time": 49.39105347265625,
          "velocity": 0.8818897637795275
        },
        {
          "duration": 0.11439720703125289,
          "durationTicks": 41,
          "midi": 69,
          "name": "A4",
          "ticks": 7994,
          "time": 49.50824085546875,
          "velocity": 0.8818897637795275
        },
        {
          "duration": 0.11439720703124578,
          "durationTicks": 41,
          "midi": 62,
          "name": "D4",
          "ticks": 8037,
          "time": 49.6282184140625,
          "velocity": 0.8818897637795275
        },
        {
          "duration": 0.11160703125000282,
          "durationTicks": 40,
          "midi": 64,
          "name": "E4",
          "ticks": 8080,
          "time": 49.74819597265625,
          "velocity": 0.8818897637795275
        },
        {
          "duration": 0.11439720703124578,
          "durationTicks": 41,
          "midi": 67,
          "name": "G4",
          "ticks": 8122,
          "time": 49.86538335546875,
          "velocity": 0.8818897637795275
        },
        {
          "duration": 0.11439720703125289,
          "durationTicks": 41,
          "midi": 60,
          "name": "C4",
          "ticks": 8165,
          "time": 49.9853609140625,
          "velocity": 0.8818897637795275
        },
        {
          "duration": 0.11160703125000282,
          "durationTicks": 40,
          "midi": 64,
          "name": "E4",
          "ticks": 8208,
          "time": 50.10533847265625,
          "velocity": 0.8818897637795275
        },
        {
          "duration": 0.11439720703124578,
          "durationTicks": 41,
          "midi": 67,
          "name": "G4",
          "ticks": 8250,
          "time": 50.22252585546875,
          "velocity": 0.8818897637795275
        },
        {
          "duration": 0.11439720703125289,
          "durationTicks": 41,
          "midi": 60,
          "name": "C4",
          "ticks": 8293,
          "time": 50.3425034140625,
          "velocity": 0.8818897637795275
        },
        {
          "duration": 0.11160703124999571,
          "durationTicks": 40,
          "midi": 62,
          "name": "D4",
          "ticks": 8336,
          "time": 50.46248097265625,
          "velocity": 0.8818897637795275
        },
        {
          "duration": 0.11439720703125289,
          "durationTicks": 41,
          "midi": 65,
          "name": "F4",
          "ticks": 8378,
          "time": 50.57966835546875,
          "velocity": 0.8818897637795275
        },
        {
          "duration": 0.11439720703124578,
          "durationTicks": 41,
          "midi": 58,
          "name": "A#3",
          "ticks": 8421,
          "time": 50.6996459140625,
          "velocity": 0.8818897637795275
        },
        {
          "duration": 0.11160703125000282,
          "durationTicks": 40,
          "midi": 62,
          "name": "D4",
          "ticks": 8464,
          "time": 50.81962347265625,
          "velocity": 0.8818897637795275
        },
        {
          "duration": 0.11439720703125289,
          "durationTicks": 41,
          "midi": 65,
          "name": "F4",
          "ticks": 8506,
          "time": 50.93681085546875,
          "velocity": 0.8818897637795275
        },
        {
          "duration": 0.11439720703124578,
          "durationTicks": 41,
          "midi": 58,
          "name": "A#3",
          "ticks": 8549,
          "time": 51.0567884140625,
          "velocity": 0.8818897637795275
        },
        {
          "duration": 0.11160703125000282,
          "durationTicks": 40,
          "midi": 60,
          "name": "C4",
          "ticks": 8592,
          "time": 51.17676597265625,
          "velocity": 0.8818897637795275
        },
        {
          "duration": 0.11439720703124578,
          "durationTicks": 41,
          "midi": 64,
          "name": "E4",
          "ticks": 8634,
          "time": 51.29395335546875,
          "velocity": 0.8818897637795275
        },
        {
          "duration": 0.11439720703125289,
          "durationTicks": 41,
          "midi": 57,
          "name": "A3",
          "ticks": 8677,
          "time": 51.4139309140625,
          "velocity": 0.8818897637795275
        },
        {
          "duration": 0.11160703125000282,
          "durationTicks": 40,
          "midi": 60,
          "name": "C4",
          "ticks": 8720,
          "time": 51.53390847265625,
          "velocity": 0.8818897637795275
        },
        {
          "duration": 0.11439720703124578,
          "durationTicks": 41,
          "midi": 64,
          "name": "E4",
          "ticks": 8762,
          "time": 51.65109585546875,
          "velocity": 0.8818897637795275
        },
        {
          "duration": 0.11439720703125289,
          "durationTicks": 41,
          "midi": 57,
          "name": "A3",
          "ticks": 8805,
          "time": 51.7710734140625,
          "velocity": 0.8818897637795275
        },
        {
          "duration": 0.11160703124999571,
          "durationTicks": 40,
          "midi": 58,
          "name": "A#3",
          "ticks": 8848,
          "time": 51.89105097265625,
          "velocity": 0.8818897637795275
        },
        {
          "duration": 0.11439720703125289,
          "durationTicks": 41,
          "midi": 62,
          "name": "D4",
          "ticks": 8890,
          "time": 52.00823835546875,
          "velocity": 0.8818897637795275
        },
        {
          "duration": 0.11439720703124578,
          "durationTicks": 41,
          "midi": 55,
          "name": "G3",
          "ticks": 8933,
          "time": 52.1282159140625,
          "velocity": 0.8818897637795275
        },
        {
          "duration": 0.11160703125000282,
          "durationTicks": 40,
          "midi": 58,
          "name": "A#3",
          "ticks": 8976,
          "time": 52.24819347265625,
          "velocity": 0.8818897637795275
        },
        {
          "duration": 0.11439720703125289,
          "durationTicks": 41,
          "midi": 62,
          "name": "D4",
          "ticks": 9018,
          "time": 52.36538085546875,
          "velocity": 0.8818897637795275
        },
        {
          "duration": 0.11439720703124578,
          "durationTicks": 41,
          "midi": 55,
          "name": "G3",
          "ticks": 9061,
          "time": 52.4853584140625,
          "velocity": 0.8818897637795275
        },
        {
          "duration": 0.11160703125000282,
          "durationTicks": 40,
          "midi": 57,
          "name": "A3",
          "ticks": 9104,
          "time": 52.60533597265625,
          "velocity": 0.8818897637795275
        },
        {
          "duration": 0.11439720703124578,
          "durationTicks": 41,
          "midi": 60,
          "name": "C4",
          "ticks": 9146,
          "time": 52.72252335546875,
          "velocity": 0.8818897637795275
        },
        {
          "duration": 0.11439720703125289,
          "durationTicks": 41,
          "midi": 53,
          "name": "F3",
          "ticks": 9189,
          "time": 52.8425009140625,
          "velocity": 0.8818897637795275
        },
        {
          "duration": 0.11160703124999571,
          "durationTicks": 40,
          "midi": 57,
          "name": "A3",
          "ticks": 9232,
          "time": 52.96247847265625,
          "velocity": 0.8818897637795275
        },
        {
          "duration": 0.11439720703125289,
          "durationTicks": 41,
          "midi": 60,
          "name": "C4",
          "ticks": 9274,
          "time": 53.07966585546875,
          "velocity": 0.8818897637795275
        },
        {
          "duration": 0.11439720703125289,
          "durationTicks": 41,
          "midi": 53,
          "name": "F3",
          "ticks": 9317,
          "time": 53.1996434140625,
          "velocity": 0.8818897637795275
        },
        {
          "duration": 0.11160703124999571,
          "durationTicks": 40,
          "midi": 55,
          "name": "G3",
          "ticks": 9360,
          "time": 53.31962097265625,
          "velocity": 0.8818897637795275
        },
        {
          "duration": 0.11439720703125289,
          "durationTicks": 41,
          "midi": 58,
          "name": "A#3",
          "ticks": 9402,
          "time": 53.43680835546875,
          "velocity": 0.8818897637795275
        },
        {
          "duration": 0.11439720703124578,
          "durationTicks": 41,
          "midi": 52,
          "name": "E3",
          "ticks": 9445,
          "time": 53.5567859140625,
          "velocity": 0.8818897637795275
        },
        {
          "duration": 0.11160703125000282,
          "durationTicks": 40,
          "midi": 55,
          "name": "G3",
          "ticks": 9488,
          "time": 53.67676347265625,
          "velocity": 0.8818897637795275
        },
        {
          "duration": 0.11439720703124578,
          "durationTicks": 41,
          "midi": 58,
          "name": "A#3",
          "ticks": 9530,
          "time": 53.79395085546875,
          "velocity": 0.8818897637795275
        },
        {
          "duration": 0.11439720703125289,
          "durationTicks": 41,
          "midi": 52,
          "name": "E3",
          "ticks": 9573,
          "time": 53.9139284140625,
          "velocity": 0.8818897637795275
        },
        {
          "duration": 0.11676896484375021,
          "durationTicks": 40,
          "midi": 53,
          "name": "F3",
          "ticks": 9616,
          "time": 54.03390597265625,
          "velocity": 0.8818897637795275
        },
        {
          "duration": 0.1201171875,
          "durationTicks": 41,
          "midi": 57,
          "name": "A3",
          "ticks": 9658,
          "time": 54.1565343125,
          "velocity": 0.8818897637795275
        },
        {
          "duration": 0.1201171875,
          "durationTicks": 41,
          "midi": 50,
          "name": "D3",
          "ticks": 9701,
          "time": 54.282510875,
          "velocity": 0.8818897637795275
        },
        {
          "duration": 0.1171875,
          "durationTicks": 40,
          "midi": 53,
          "name": "F3",
          "ticks": 9744,
          "time": 54.4084874375,
          "velocity": 0.8818897637795275
        },
        {
          "duration": 0.1201171875,
          "durationTicks": 41,
          "midi": 57,
          "name": "A3",
          "ticks": 9786,
          "time": 54.5315343125,
          "velocity": 0.8818897637795275
        },
        {
          "duration": 0.1201171875,
          "durationTicks": 41,
          "midi": 50,
          "name": "D3",
          "ticks": 9829,
          "time": 54.657510875,
          "velocity": 0.8818897637795275
        },
        {
          "duration": 0.1326728671875017,
          "durationTicks": 40,
          "midi": 52,
          "name": "E3",
          "ticks": 9872,
          "time": 54.7834874375,
          "velocity": 0.8818897637795275
        },
        {
          "duration": 0.1372766484374992,
          "durationTicks": 41,
          "midi": 55,
          "name": "G3",
          "ticks": 9914,
          "time": 54.9228567265625,
          "velocity": 0.8818897637795275
        },
        {
          "duration": 0.1372766484374992,
          "durationTicks": 41,
          "midi": 49,
          "name": "C#3",
          "ticks": 9957,
          "time": 55.066829796875,
          "velocity": 0.8818897637795275
        },
        {
          "duration": 0.13392843749999628,
          "durationTicks": 40,
          "midi": 52,
          "name": "E3",
          "ticks": 10000,
          "time": 55.2108028671875,
          "velocity": 0.8818897637795275
        },
        {
          "duration": 0.1372766484374992,
          "durationTicks": 41,
          "midi": 55,
          "name": "G3",
          "ticks": 10042,
          "time": 55.3514277265625,
          "velocity": 0.8818897637795275
        },
        {
          "duration": 0.1372766484374992,
          "durationTicks": 41,
          "midi": 49,
          "name": "C#3",
          "ticks": 10085,
          "time": 55.495400796875,
          "velocity": 0.8818897637795275
        },
        {
          "duration": 2.7855468750000014,
          "durationTicks": 500,
          "midi": 49,
          "name": "C#3",
          "ticks": 10264,
          "time": 56.272856000000004,
          "velocity": 0.8818897637795275
        },
        {
          "duration": 2.8207031250000014,
          "durationTicks": 500,
          "midi": 52,
          "name": "E3",
          "ticks": 10294,
          "time": 56.413481000000004,
          "velocity": 0.8818897637795275
        },
        {
          "duration": 2.8558593750000014,
          "durationTicks": 500,
          "midi": 55,
          "name": "G3",
          "ticks": 10324,
          "time": 56.554106000000004,
          "velocity": 0.8818897637795275
        },
        {
          "duration": 2.8910156250000014,
          "durationTicks": 500,
          "midi": 58,
          "name": "A#3",
          "ticks": 10354,
          "time": 56.694731000000004,
          "velocity": 0.8818897637795275
        },
        {
          "duration": 2.25,
          "durationTicks": 384,
          "midi": 53,
          "name": "F3",
          "ticks": 11664,
          "time": 64.51934037500001,
          "velocity": 0.8818897637795275
        },
        {
          "duration": 2.25,
          "durationTicks": 384,
          "midi": 57,
          "name": "A3",
          "ticks": 11664,
          "time": 64.51934037500001,
          "velocity": 0.8818897637795275
        },
        {
          "duration": 2.25,
          "durationTicks": 384,
          "midi": 50,
          "name": "D3",
          "ticks": 11664,
          "time": 64.51934037500001,
          "velocity": 0.8818897637795275
        },
        {
          "duration": 0.21024769921875475,
          "durationTicks": 61,
          "midi": 69,
          "name": "A4",
          "ticks": 12336,
          "time": 68.23246007421876,
          "velocity": 0.8818897637795275
        },
        {
          "duration": 0.21024769921875475,
          "durationTicks": 61,
          "midi": 69,
          "name": "A4",
          "ticks": 12400,
          "time": 68.45304782421876,
          "velocity": 0.8818897637795275
        },
        {
          "duration": 0.21024769921875475,
          "durationTicks": 61,
          "midi": 69,
          "name": "A4",
          "ticks": 12464,
          "time": 68.67363557421876,
          "velocity": 0.8818897637795275
        },
        {
          "duration": 0.21024769921875475,
          "durationTicks": 61,
          "midi": 69,
          "name": "A4",
          "ticks": 12528,
          "time": 68.89422332421876,
          "velocity": 0.8818897637795275
        },
        {
          "duration": 0.21024769921875475,
          "durationTicks": 61,
          "midi": 69,
          "name": "A4",
          "ticks": 12592,
          "time": 69.11481107421876,
          "velocity": 0.8818897637795275
        },
        {
          "duration": 0.21024769921875475,
          "durationTicks": 61,
          "midi": 69,
          "name": "A4",
          "ticks": 12656,
          "time": 69.33539882421876,
          "velocity": 0.8818897637795275
        },
        {
          "duration": 0.21024769921875475,
          "durationTicks": 61,
          "midi": 69,
          "name": "A4",
          "ticks": 12720,
          "time": 69.55598657421876,
          "velocity": 0.8818897637795275
        },
        {
          "duration": 0.22058775000000708,
          "durationTicks": 64,
          "midi": 69,
          "name": "A4",
          "ticks": 12784,
          "time": 69.77657432421876,
          "velocity": 0.8818897637795275
        },
        {
          "duration": 0.21024769921875475,
          "durationTicks": 61,
          "midi": 69,
          "name": "A4",
          "ticks": 12848,
          "time": 69.99716207421876,
          "velocity": 0.8818897637795275
        },
        {
          "duration": 0.21024769921875475,
          "durationTicks": 61,
          "midi": 69,
          "name": "A4",
          "ticks": 12912,
          "time": 70.21774982421876,
          "velocity": 0.8818897637795275
        },
        {
          "duration": 0.21024769921875475,
          "durationTicks": 61,
          "midi": 69,
          "name": "A4",
          "ticks": 12976,
          "time": 70.43833757421876,
          "velocity": 0.8818897637795275
        },
        {
          "duration": 0.21024769921875475,
          "durationTicks": 61,
          "midi": 69,
          "name": "A4",
          "ticks": 13040,
          "time": 70.65892532421876,
          "velocity": 0.8818897637795275
        },
        {
          "duration": 0.21024769921875475,
          "durationTicks": 61,
          "midi": 69,
          "name": "A4",
          "ticks": 13104,
          "time": 70.87951307421876,
          "velocity": 0.8818897637795275
        },
        {
          "duration": 0.21024769921875475,
          "durationTicks": 61,
          "midi": 69,
          "name": "A4",
          "ticks": 13168,
          "time": 71.10010082421876,
          "velocity": 0.8818897637795275
        },
        {
          "duration": 0.21024769921875475,
          "durationTicks": 61,
          "midi": 69,
          "name": "A4",
          "ticks": 13232,
          "time": 71.32068857421876,
          "velocity": 0.8818897637795275
        },
        {
          "duration": 0.21024769921875475,
          "durationTicks": 61,
          "midi": 69,
          "name": "A4",
          "ticks": 13296,
          "time": 71.54127632421876,
          "velocity": 0.8818897637795275
        },
        {
          "duration": 0.21024769921875475,
          "durationTicks": 61,
          "midi": 69,
          "name": "A4",
          "ticks": 13360,
          "time": 71.76186407421876,
          "velocity": 0.8818897637795275
        },
        {
          "duration": 0.21024769921875475,
          "durationTicks": 61,
          "midi": 69,
          "name": "A4",
          "ticks": 13424,
          "time": 71.98245182421876,
          "velocity": 0.8818897637795275
        },
        {
          "duration": 0.21024769921875475,
          "durationTicks": 61,
          "midi": 69,
          "name": "A4",
          "ticks": 13488,
          "time": 72.20303957421876,
          "velocity": 0.8818897637795275
        },
        {
          "duration": 0.21024769921875475,
          "durationTicks": 61,
          "midi": 69,
          "name": "A4",
          "ticks": 13552,
          "time": 72.42362732421876,
          "velocity": 0.8818897637795275
        },
        {
          "duration": 0.21024769921875475,
          "durationTicks": 61,
          "midi": 69,
          "name": "A4",
          "ticks": 13616,
          "time": 72.64421507421876,
          "velocity": 0.8818897637795275
        },
        {
          "duration": 0.21024769921875475,
          "durationTicks": 61,
          "midi": 69,
          "name": "A4",
          "ticks": 13680,
          "time": 72.86480282421876,
          "velocity": 0.8818897637795275
        },
        {
          "duration": 0.21024769921875475,
          "durationTicks": 61,
          "midi": 69,
          "name": "A4",
          "ticks": 13744,
          "time": 73.08539057421876,
          "velocity": 0.8818897637795275
        },
        {
          "duration": 0.22058775000000708,
          "durationTicks": 64,
          "midi": 69,
          "name": "A4",
          "ticks": 13808,
          "time": 73.30597832421876,
          "velocity": 0.8818897637795275
        },
        {
          "duration": 0.21024769921875475,
          "durationTicks": 61,
          "midi": 69,
          "name": "A4",
          "ticks": 13872,
          "time": 73.52656607421876,
          "velocity": 0.8818897637795275
        },
        {
          "duration": 0.21024769921875475,
          "durationTicks": 61,
          "midi": 69,
          "name": "A4",
          "ticks": 13936,
          "time": 73.74715382421876,
          "velocity": 0.8818897637795275
        },
        {
          "duration": 0.21024769921875475,
          "durationTicks": 61,
          "midi": 69,
          "name": "A4",
          "ticks": 14000,
          "time": 73.96774157421876,
          "velocity": 0.8818897637795275
        },
        {
          "duration": 0.21024769921875475,
          "durationTicks": 61,
          "midi": 69,
          "name": "A4",
          "ticks": 14064,
          "time": 74.18832932421876,
          "velocity": 0.8818897637795275
        },
        {
          "duration": 0.21024769921875475,
          "durationTicks": 61,
          "midi": 69,
          "name": "A4",
          "ticks": 14128,
          "time": 74.40891707421876,
          "velocity": 0.8818897637795275
        },
        {
          "duration": 0.21024769921874054,
          "durationTicks": 61,
          "midi": 69,
          "name": "A4",
          "ticks": 14192,
          "time": 74.62950482421877,
          "velocity": 0.8818897637795275
        },
        {
          "duration": 0.21024769921875475,
          "durationTicks": 61,
          "midi": 69,
          "name": "A4",
          "ticks": 14256,
          "time": 74.85009257421876,
          "velocity": 0.8818897637795275
        },
        {
          "duration": 0.21024769921875475,
          "durationTicks": 61,
          "midi": 69,
          "name": "A4",
          "ticks": 14320,
          "time": 75.07068032421876,
          "velocity": 0.8818897637795275
        },
        {
          "duration": 0.21024769921875475,
          "durationTicks": 61,
          "midi": 69,
          "name": "A4",
          "ticks": 14384,
          "time": 75.29126807421876,
          "velocity": 0.8818897637795275
        },
        {
          "duration": 0.21024769921874054,
          "durationTicks": 61,
          "midi": 69,
          "name": "A4",
          "ticks": 14448,
          "time": 75.51185582421877,
          "velocity": 0.8818897637795275
        },
        {
          "duration": 0.21024769921875475,
          "durationTicks": 61,
          "midi": 69,
          "name": "A4",
          "ticks": 14512,
          "time": 75.73244357421876,
          "velocity": 0.8818897637795275
        },
        {
          "duration": 0.21024769921875475,
          "durationTicks": 61,
          "midi": 69,
          "name": "A4",
          "ticks": 14576,
          "time": 75.95303132421876,
          "velocity": 0.8818897637795275
        },
        {
          "duration": 0.21024769921875475,
          "durationTicks": 61,
          "midi": 69,
          "name": "A4",
          "ticks": 14640,
          "time": 76.17361907421876,
          "velocity": 0.8818897637795275
        },
        {
          "duration": 0.21024769921874054,
          "durationTicks": 61,
          "midi": 69,
          "name": "A4",
          "ticks": 14704,
          "time": 76.39420682421877,
          "velocity": 0.8818897637795275
        },
        {
          "duration": 0.21024769921875475,
          "durationTicks": 61,
          "midi": 69,
          "name": "A4",
          "ticks": 14768,
          "time": 76.61479457421876,
          "velocity": 0.8818897637795275
        },
        {
          "duration": 0.22058775000000708,
          "durationTicks": 64,
          "midi": 69,
          "name": "A4",
          "ticks": 14832,
          "time": 76.83538232421876,
          "velocity": 0.8818897637795275
        },
        {
          "duration": 0.21024769921875475,
          "durationTicks": 61,
          "midi": 69,
          "name": "A4",
          "ticks": 14896,
          "time": 77.05597007421876,
          "velocity": 0.8818897637795275
        },
        {
          "duration": 0.21024769921874054,
          "durationTicks": 61,
          "midi": 69,
          "name": "A4",
          "ticks": 14960,
          "time": 77.27655782421877,
          "velocity": 0.8818897637795275
        },
        {
          "duration": 0.21024769921875475,
          "durationTicks": 61,
          "midi": 69,
          "name": "A4",
          "ticks": 15024,
          "time": 77.49714557421876,
          "velocity": 0.8818897637795275
        },
        {
          "duration": 0.21024769921875475,
          "durationTicks": 61,
          "midi": 69,
          "name": "A4",
          "ticks": 15088,
          "time": 77.71773332421876,
          "velocity": 0.8818897637795275
        },
        {
          "duration": 0.21024769921875475,
          "durationTicks": 61,
          "midi": 69,
          "name": "A4",
          "ticks": 15152,
          "time": 77.93832107421876,
          "velocity": 0.8818897637795275
        },
        {
          "duration": 0.21024769921874054,
          "durationTicks": 61,
          "midi": 69,
          "name": "A4",
          "ticks": 15216,
          "time": 78.15890882421877,
          "velocity": 0.8818897637795275
        },
        {
          "duration": 0.21024769921875475,
          "durationTicks": 61,
          "midi": 69,
          "name": "A4",
          "ticks": 15280,
          "time": 78.37949657421876,
          "velocity": 0.8818897637795275
        },
        {
          "duration": 0.21024769921875475,
          "durationTicks": 61,
          "midi": 69,
          "name": "A4",
          "ticks": 15344,
          "time": 78.60008432421876,
          "velocity": 0.8818897637795275
        },
        {
          "duration": 0.21024769921875475,
          "durationTicks": 61,
          "midi": 69,
          "name": "A4",
          "ticks": 15408,
          "time": 78.82067207421876,
          "velocity": 0.8818897637795275
        },
        {
          "duration": 0.21024769921874054,
          "durationTicks": 61,
          "midi": 69,
          "name": "A4",
          "ticks": 15472,
          "time": 79.04125982421877,
          "velocity": 0.8818897637795275
        },
        {
          "duration": 0.21024769921875475,
          "durationTicks": 61,
          "midi": 69,
          "name": "A4",
          "ticks": 15536,
          "time": 79.26184757421876,
          "velocity": 0.8818897637795275
        },
        {
          "duration": 0.21024769921875475,
          "durationTicks": 61,
          "midi": 69,
          "name": "A4",
          "ticks": 15600,
          "time": 79.48243532421876,
          "velocity": 0.8818897637795275
        },
        {
          "duration": 0.21024769921875475,
          "durationTicks": 61,
          "midi": 69,
          "name": "A4",
          "ticks": 15664,
          "time": 79.70302307421876,
          "velocity": 0.8818897637795275
        },
        {
          "duration": 0.21024769921874054,
          "durationTicks": 61,
          "midi": 69,
          "name": "A4",
          "ticks": 15728,
          "time": 79.92361082421877,
          "velocity": 0.8818897637795275
        },
        {
          "duration": 0.21024769921875475,
          "durationTicks": 61,
          "midi": 69,
          "name": "A4",
          "ticks": 15792,
          "time": 80.14419857421876,
          "velocity": 0.8818897637795275
        },
        {
          "duration": 0.290555800781263,
          "durationTicks": 64,
          "midi": 69,
          "name": "A4",
          "ticks": 15856,
          "time": 80.36478632421876,
          "velocity": 0.8818897637795275
        },
        {
          "duration": 0.28593750000000284,
          "durationTicks": 61,
          "midi": 57,
          "name": "A3",
          "ticks": 16656,
          "time": 83.89032175000001,
          "velocity": 0.8818897637795275
        },
        {
          "duration": 0.3539062500000085,
          "durationTicks": 61,
          "midi": 58,
          "name": "A#3",
          "ticks": 16784,
          "time": 84.49032175,
          "velocity": 0.8818897637795275
        },
        {
          "duration": 1.412109375,
          "durationTicks": 122,
          "midi": 52,
          "name": "E3",
          "ticks": 16912,
          "time": 85.23680612500002,
          "velocity": 0.8818897637795275
        },
        {
          "duration": 0.28593750000000284,
          "durationTicks": 61,
          "midi": 57,
          "name": "A3",
          "ticks": 17680,
          "time": 89.44558375000001,
          "velocity": 0.6299212598425197
        },
        {
          "duration": 0.3539062500000085,
          "durationTicks": 61,
          "midi": 58,
          "name": "A#3",
          "ticks": 17808,
          "time": 90.04558375,
          "velocity": 0.6299212598425197
        },
        {
          "duration": 1.6314157968750038,
          "durationTicks": 244,
          "midi": 52,
          "name": "E3",
          "ticks": 17936,
          "time": 90.79206812500001,
          "velocity": 0.6299212598425197
        },
        {
          "duration": 0.12974311328125054,
          "durationTicks": 31,
          "midi": 57,
          "name": "A3",
          "ticks": 18448,
          "time": 93.58280146484377,
          "velocity": 0.6299212598425197
        },
        {
          "duration": 0.12974311328125054,
          "durationTicks": 31,
          "midi": 59,
          "name": "B3",
          "ticks": 18480,
          "time": 93.71672983984377,
          "velocity": 0.6299212598425197
        },
        {
          "duration": 0.12974311328125054,
          "durationTicks": 31,
          "midi": 61,
          "name": "C#4",
          "ticks": 18512,
          "time": 93.85065821484378,
          "velocity": 0.6299212598425197
        },
        {
          "duration": 0.12974311328125054,
          "durationTicks": 31,
          "midi": 62,
          "name": "D4",
          "ticks": 18544,
          "time": 93.98458658984377,
          "velocity": 0.6299212598425197
        },
        {
          "duration": 1.4296875,
          "durationTicks": 244,
          "midi": 57,
          "name": "A3",
          "ticks": 21008,
          "time": 105.99173487500003,
          "velocity": 0.8818897637795275
        },
        {
          "duration": 3.1156937382812515,
          "durationTicks": 552,
          "midi": 64,
          "name": "E4",
          "ticks": 22064,
          "time": 111.54304875000004,
          "velocity": 0.8818897637795275
        },
        {
          "duration": 2.849609375,
          "durationTicks": 487,
          "midi": 67,
          "name": "G4",
          "ticks": 22064,
          "time": 111.54304875000004,
          "velocity": 0.8818897637795275
        },
        {
          "duration": 2.849609375,
          "durationTicks": 487,
          "midi": 61,
          "name": "C#4",
          "ticks": 22064,
          "time": 111.54304875000004,
          "velocity": 0.8818897637795275
        },
        {
          "duration": 0.11305125390624937,
          "durationTicks": 41,
          "midi": 67,
          "name": "G4",
          "ticks": 22618,
          "time": 114.66425718359379,
          "velocity": 0.8818897637795275
        },
        {
          "duration": 0.11305125390624937,
          "durationTicks": 41,
          "midi": 64,
          "name": "E4",
          "ticks": 22661,
          "time": 114.78282313281254,
          "velocity": 0.8818897637795275
        },
        {
          "duration": 0.11029390625000701,
          "durationTicks": 40,
          "midi": 61,
          "name": "C#4",
          "ticks": 22704,
          "time": 114.90138908203129,
          "velocity": 0.8818897637795275
        },
        {
          "duration": 0.11305125390624937,
          "durationTicks": 41,
          "midi": 64,
          "name": "E4",
          "ticks": 22746,
          "time": 115.01719768359379,
          "velocity": 0.8818897637795275
        },
        {
          "duration": 0.11305125390624937,
          "durationTicks": 41,
          "midi": 61,
          "name": "C#4",
          "ticks": 22789,
          "time": 115.13576363281254,
          "velocity": 0.8818897637795275
        },
        {
          "duration": 0.11029390625000701,
          "durationTicks": 40,
          "midi": 64,
          "name": "E4",
          "ticks": 22832,
          "time": 115.25432958203129,
          "velocity": 0.8818897637795275
        },
        {
          "duration": 0.11305125390624937,
          "durationTicks": 41,
          "midi": 67,
          "name": "G4",
          "ticks": 22874,
          "time": 115.3701381835938,
          "velocity": 0.8818897637795275
        },
        {
          "duration": 0.11305125390624937,
          "durationTicks": 41,
          "midi": 64,
          "name": "E4",
          "ticks": 22917,
          "time": 115.48870413281254,
          "velocity": 0.8818897637795275
        },
        {
          "duration": 0.1102939062499928,
          "durationTicks": 40,
          "midi": 61,
          "name": "C#4",
          "ticks": 22960,
          "time": 115.60727008203129,
          "velocity": 0.8818897637795275
        },
        {
          "duration": 0.11305125390624937,
          "durationTicks": 41,
          "midi": 64,
          "name": "E4",
          "ticks": 23002,
          "time": 115.72307868359378,
          "velocity": 0.8818897637795275
        },
        {
          "duration": 0.11305125390624937,
          "durationTicks": 41,
          "midi": 61,
          "name": "C#4",
          "ticks": 23045,
          "time": 115.84164463281255,
          "velocity": 0.8818897637795275
        },
        {
          "duration": 0.1102939062499928,
          "durationTicks": 40,
          "midi": 64,
          "name": "E4",
          "ticks": 23088,
          "time": 115.9602105820313,
          "velocity": 0.8818897637795275
        },
        {
          "duration": 0.11305125390624937,
          "durationTicks": 41,
          "midi": 67,
          "name": "G4",
          "ticks": 23130,
          "time": 116.07601918359379,
          "velocity": 0.8818897637795275
        },
        {
          "duration": 0.11305125390624937,
          "durationTicks": 41,
          "midi": 64,
          "name": "E4",
          "ticks": 23173,
          "time": 116.19458513281253,
          "velocity": 0.8818897637795275
        },
        {
          "duration": 0.11029390625000701,
          "durationTicks": 40,
          "midi": 61,
          "name": "C#4",
          "ticks": 23216,
          "time": 116.31315108203128,
          "velocity": 0.8818897637795275
        },
        {
          "duration": 0.11305125390624937,
          "durationTicks": 41,
          "midi": 64,
          "name": "E4",
          "ticks": 23258,
          "time": 116.42895968359379,
          "velocity": 0.8818897637795275
        },
        {
          "duration": 0.11305125390624937,
          "durationTicks": 41,
          "midi": 61,
          "name": "C#4",
          "ticks": 23301,
          "time": 116.54752563281254,
          "velocity": 0.8818897637795275
        },
        {
          "duration": 0.11029390625000701,
          "durationTicks": 40,
          "midi": 64,
          "name": "E4",
          "ticks": 23344,
          "time": 116.66609158203129,
          "velocity": 0.8818897637795275
        },
        {
          "duration": 0.11305125390624937,
          "durationTicks": 41,
          "midi": 67,
          "name": "G4",
          "ticks": 23386,
          "time": 116.78190018359379,
          "velocity": 0.8818897637795275
        },
        {
          "duration": 0.11305125390624937,
          "durationTicks": 41,
          "midi": 64,
          "name": "E4",
          "ticks": 23429,
          "time": 116.90046613281254,
          "velocity": 0.8818897637795275
        },
        {
          "duration": 0.11029390625000701,
          "durationTicks": 40,
          "midi": 61,
          "name": "C#4",
          "ticks": 23472,
          "time": 117.01903208203129,
          "velocity": 0.8818897637795275
        },
        {
          "duration": 0.11305125390624937,
          "durationTicks": 41,
          "midi": 64,
          "name": "E4",
          "ticks": 23514,
          "time": 117.1348406835938,
          "velocity": 0.8818897637795275
        },
        {
          "duration": 0.11305125390624937,
          "durationTicks": 41,
          "midi": 61,
          "name": "C#4",
          "ticks": 23557,
          "time": 117.25340663281254,
          "velocity": 0.8818897637795275
        },
        {
          "duration": 0.1102939062499928,
          "durationTicks": 40,
          "midi": 58,
          "name": "A#3",
          "ticks": 23600,
          "time": 117.37197258203129,
          "velocity": 0.8818897637795275
        },
        {
          "duration": 0.11305125390624937,
          "durationTicks": 41,
          "midi": 61,
          "name": "C#4",
          "ticks": 23642,
          "time": 117.4877811835938,
          "velocity": 0.8818897637795275
        },
        {
          "duration": 0.11305125390624937,
          "durationTicks": 41,
          "midi": 58,
          "name": "A#3",
          "ticks": 23685,
          "time": 117.60634713281254,
          "velocity": 0.8818897637795275
        },
        {
          "duration": 0.1102939062499928,
          "durationTicks": 40,
          "midi": 55,
          "name": "G3",
          "ticks": 23728,
          "time": 117.72491308203129,
          "velocity": 0.8818897637795275
        },
        {
          "duration": 0.11305125390624937,
          "durationTicks": 41,
          "midi": 58,
          "name": "A#3",
          "ticks": 23770,
          "time": 117.84072168359378,
          "velocity": 0.8818897637795275
        },
        {
          "duration": 0.11305125390626358,
          "durationTicks": 41,
          "midi": 55,
          "name": "G3",
          "ticks": 23813,
          "time": 117.95928763281253,
          "velocity": 0.8818897637795275
        },
        {
          "duration": 0.1102939062499928,
          "durationTicks": 40,
          "midi": 58,
          "name": "A#3",
          "ticks": 23856,
          "time": 118.0778535820313,
          "velocity": 0.8818897637795275
        },
        {
          "duration": 0.11305125390624937,
          "durationTicks": 41,
          "midi": 61,
          "name": "C#4",
          "ticks": 23898,
          "time": 118.19366218359379,
          "velocity": 0.8818897637795275
        },
        {
          "duration": 0.11305125390624937,
          "durationTicks": 41,
          "midi": 58,
          "name": "A#3",
          "ticks": 23941,
          "time": 118.31222813281254,
          "velocity": 0.8818897637795275
        },
        {
          "duration": 0.11029390625000701,
          "durationTicks": 40,
          "midi": 55,
          "name": "G3",
          "ticks": 23984,
          "time": 118.43079408203128,
          "velocity": 0.8818897637795275
        },
        {
          "duration": 0.11305125390624937,
          "durationTicks": 41,
          "midi": 58,
          "name": "A#3",
          "ticks": 24026,
          "time": 118.54660268359379,
          "velocity": 0.8818897637795275
        },
        {
          "duration": 0.11305125390624937,
          "durationTicks": 41,
          "midi": 55,
          "name": "G3",
          "ticks": 24069,
          "time": 118.66516863281254,
          "velocity": 0.8818897637795275
        },
        {
          "duration": 0.11029390625000701,
          "durationTicks": 40,
          "midi": 58,
          "name": "A#3",
          "ticks": 24112,
          "time": 118.78373458203129,
          "velocity": 0.8818897637795275
        },
        {
          "duration": 0.11305125390624937,
          "durationTicks": 41,
          "midi": 61,
          "name": "C#4",
          "ticks": 24154,
          "time": 118.89954318359379,
          "velocity": 0.8818897637795275
        },
        {
          "duration": 0.11305125390624937,
          "durationTicks": 41,
          "midi": 58,
          "name": "A#3",
          "ticks": 24197,
          "time": 119.01810913281254,
          "velocity": 0.8818897637795275
        },
        {
          "duration": 0.11029390625000701,
          "durationTicks": 40,
          "midi": 55,
          "name": "G3",
          "ticks": 24240,
          "time": 119.13667508203129,
          "velocity": 0.8818897637795275
        },
        {
          "duration": 0.11305125390624937,
          "durationTicks": 41,
          "midi": 58,
          "name": "A#3",
          "ticks": 24282,
          "time": 119.2524836835938,
          "velocity": 0.8818897637795275
        },
        {
          "duration": 0.11305125390624937,
          "durationTicks": 41,
          "midi": 55,
          "name": "G3",
          "ticks": 24325,
          "time": 119.37104963281254,
          "velocity": 0.8818897637795275
        },
        {
          "duration": 0.1102939062499928,
          "durationTicks": 40,
          "midi": 58,
          "name": "A#3",
          "ticks": 24368,
          "time": 119.48961558203129,
          "velocity": 0.8818897637795275
        },
        {
          "duration": 0.11305125390626358,
          "durationTicks": 41,
          "midi": 61,
          "name": "C#4",
          "ticks": 24410,
          "time": 119.60542418359378,
          "velocity": 0.8818897637795275
        },
        {
          "duration": 0.11305125390624937,
          "durationTicks": 41,
          "midi": 58,
          "name": "A#3",
          "ticks": 24453,
          "time": 119.72399013281255,
          "velocity": 0.8818897637795275
        },
        {
          "duration": 0.1102939062499928,
          "durationTicks": 40,
          "midi": 55,
          "name": "G3",
          "ticks": 24496,
          "time": 119.8425560820313,
          "velocity": 0.8818897637795275
        },
        {
          "duration": 0.11305125390624937,
          "durationTicks": 41,
          "midi": 58,
          "name": "A#3",
          "ticks": 24538,
          "time": 119.95836468359379,
          "velocity": 0.8818897637795275
        },
        {
          "duration": 0.11305125390624937,
          "durationTicks": 41,
          "midi": 55,
          "name": "G3",
          "ticks": 24581,
          "time": 120.07693063281253,
          "velocity": 0.8818897637795275
        },
        {
          "duration": 0.1102939062499928,
          "durationTicks": 40,
          "midi": 52,
          "name": "E3",
          "ticks": 24624,
          "time": 120.1954965820313,
          "velocity": 0.8818897637795275
        },
        {
          "duration": 0.11305125390624937,
          "durationTicks": 41,
          "midi": 55,
          "name": "G3",
          "ticks": 24666,
          "time": 120.31130518359379,
          "velocity": 0.8818897637795275
        },
        {
          "duration": 0.11305125390624937,
          "durationTicks": 41,
          "midi": 52,
          "name": "E3",
          "ticks": 24709,
          "time": 120.42987113281254,
          "velocity": 0.8818897637795275
        },
        {
          "duration": 0.11029390625000701,
          "durationTicks": 40,
          "midi": 49,
          "name": "C#3",
          "ticks": 24752,
          "time": 120.54843708203128,
          "velocity": 0.8818897637795275
        },
        {
          "duration": 0.11305125390624937,
          "durationTicks": 41,
          "midi": 52,
          "name": "E3",
          "ticks": 24794,
          "time": 120.66424568359379,
          "velocity": 0.8818897637795275
        },
        {
          "duration": 0.11305125390624937,
          "durationTicks": 41,
          "midi": 49,
          "name": "C#3",
          "ticks": 24837,
          "time": 120.78281163281254,
          "velocity": 0.8818897637795275
        },
        {
          "duration": 0.11029390625000701,
          "durationTicks": 40,
          "midi": 52,
          "name": "E3",
          "ticks": 24880,
          "time": 120.90137758203129,
          "velocity": 0.8818897637795275
        },
        {
          "duration": 0.11305125390624937,
          "durationTicks": 41,
          "midi": 55,
          "name": "G3",
          "ticks": 24922,
          "time": 121.0171861835938,
          "velocity": 0.8818897637795275
        },
        {
          "duration": 0.11305125390624937,
          "durationTicks": 41,
          "midi": 52,
          "name": "E3",
          "ticks": 24965,
          "time": 121.13575213281254,
          "velocity": 0.8818897637795275
        },
        {
          "duration": 0.11029390625000701,
          "durationTicks": 40,
          "midi": 49,
          "name": "C#3",
          "ticks": 25008,
          "time": 121.25431808203129,
          "velocity": 0.8818897637795275
        },
        {
          "duration": 0.11305125390624937,
          "durationTicks": 41,
          "midi": 52,
          "name": "E3",
          "ticks": 25050,
          "time": 121.3701266835938,
          "velocity": 0.8818897637795275
        },
        {
          "duration": 0.11305125390624937,
          "durationTicks": 41,
          "midi": 49,
          "name": "C#3",
          "ticks": 25093,
          "time": 121.48869263281254,
          "velocity": 0.8818897637795275
        },
        {
          "duration": 0.1102939062499928,
          "durationTicks": 40,
          "midi": 52,
          "name": "E3",
          "ticks": 25136,
          "time": 121.60725858203129,
          "velocity": 0.8818897637795275
        },
        {
          "duration": 0.11305125390624937,
          "durationTicks": 41,
          "midi": 55,
          "name": "G3",
          "ticks": 25178,
          "time": 121.72306718359378,
          "velocity": 0.8818897637795275
        },
        {
          "duration": 0.11305125390624937,
          "durationTicks": 41,
          "midi": 52,
          "name": "E3",
          "ticks": 25221,
          "time": 121.84163313281255,
          "velocity": 0.8818897637795275
        },
        {
          "duration": 0.1102939062499928,
          "durationTicks": 40,
          "midi": 49,
          "name": "C#3",
          "ticks": 25264,
          "time": 121.9601990820313,
          "velocity": 0.8818897637795275
        },
        {
          "duration": 0.11305125390624937,
          "durationTicks": 41,
          "midi": 52,
          "name": "E3",
          "ticks": 25306,
          "time": 122.07600768359379,
          "velocity": 0.8818897637795275
        },
        {
          "duration": 0.11305125390624937,
          "durationTicks": 41,
          "midi": 49,
          "name": "C#3",
          "ticks": 25349,
          "time": 122.19457363281253,
          "velocity": 0.8818897637795275
        },
        {
          "duration": 0.11029390625000701,
          "durationTicks": 40,
          "midi": 52,
          "name": "E3",
          "ticks": 25392,
          "time": 122.31313958203128,
          "velocity": 0.8818897637795275
        },
        {
          "duration": 0.11305125390624937,
          "durationTicks": 41,
          "midi": 55,
          "name": "G3",
          "ticks": 25434,
          "time": 122.42894818359379,
          "velocity": 0.8818897637795275
        },
        {
          "duration": 0.11305125390624937,
          "durationTicks": 41,
          "midi": 52,
          "name": "E3",
          "ticks": 25477,
          "time": 122.54751413281254,
          "velocity": 0.8818897637795275
        },
        {
          "duration": 0.11029390625000701,
          "durationTicks": 40,
          "midi": 49,
          "name": "C#3",
          "ticks": 25520,
          "time": 122.66608008203129,
          "velocity": 0.8818897637795275
        },
        {
          "duration": 0.11305125390624937,
          "durationTicks": 41,
          "midi": 52,
          "name": "E3",
          "ticks": 25562,
          "time": 122.78188868359379,
          "velocity": 0.8818897637795275
        },
        {
          "duration": 0.11305125390624937,
          "durationTicks": 41,
          "midi": 49,
          "name": "C#3",
          "ticks": 25605,
          "time": 122.90045463281254,
          "velocity": 0.8818897637795275
        },
        {
          "duration": 0.11029390625000701,
          "durationTicks": 40,
          "midi": 52,
          "name": "E3",
          "ticks": 25648,
          "time": 123.01902058203129,
          "velocity": 0.8818897637795275
        },
        {
          "duration": 0.11305125390624937,
          "durationTicks": 41,
          "midi": 55,
          "name": "G3",
          "ticks": 25690,
          "time": 123.1348291835938,
          "velocity": 0.8818897637795275
        },
        {
          "duration": 0.11305125390624937,
          "durationTicks": 41,
          "midi": 52,
          "name": "E3",
          "ticks": 25733,
          "time": 123.25339513281254,
          "velocity": 0.8818897637795275
        },
        {
          "duration": 0.1102939062499928,
          "durationTicks": 40,
          "midi": 55,
          "name": "G3",
          "ticks": 25776,
          "time": 123.37196108203129,
          "velocity": 0.8818897637795275
        },
        {
          "duration": 0.11305125390623516,
          "durationTicks": 41,
          "midi": 58,
          "name": "A#3",
          "ticks": 25818,
          "time": 123.4877696835938,
          "velocity": 0.8818897637795275
        },
        {
          "duration": 0.11305125390624937,
          "durationTicks": 41,
          "midi": 55,
          "name": "G3",
          "ticks": 25861,
          "time": 123.60633563281255,
          "velocity": 0.8818897637795275
        },
        {
          "duration": 0.1102939062499928,
          "durationTicks": 40,
          "midi": 52,
          "name": "E3",
          "ticks": 25904,
          "time": 123.7249015820313,
          "velocity": 0.8818897637795275
        },
        {
          "duration": 0.11305125390624937,
          "durationTicks": 41,
          "midi": 55,
          "name": "G3",
          "ticks": 25946,
          "time": 123.84071018359379,
          "velocity": 0.8818897637795275
        },
        {
          "duration": 0.11305125390626358,
          "durationTicks": 41,
          "midi": 52,
          "name": "E3",
          "ticks": 25989,
          "time": 123.95927613281253,
          "velocity": 0.8818897637795275
        },
        {
          "duration": 0.11029390625000701,
          "durationTicks": 40,
          "midi": 55,
          "name": "G3",
          "ticks": 26032,
          "time": 124.07784208203128,
          "velocity": 0.8818897637795275
        },
        {
          "duration": 0.11305125390624937,
          "durationTicks": 41,
          "midi": 58,
          "name": "A#3",
          "ticks": 26074,
          "time": 124.19365068359379,
          "velocity": 0.8818897637795275
        },
        {
          "duration": 0.11305125390624937,
          "durationTicks": 41,
          "midi": 55,
          "name": "G3",
          "ticks": 26117,
          "time": 124.31221663281254,
          "velocity": 0.8818897637795275
        },
        {
          "duration": 0.11029390625000701,
          "durationTicks": 40,
          "midi": 52,
          "name": "E3",
          "ticks": 26160,
          "time": 124.43078258203128,
          "velocity": 0.8818897637795275
        },
        {
          "duration": 0.11305125390624937,
          "durationTicks": 41,
          "midi": 55,
          "name": "G3",
          "ticks": 26202,
          "time": 124.54659118359379,
          "velocity": 0.8818897637795275
        },
        {
          "duration": 0.11305125390624937,
          "durationTicks": 41,
          "midi": 52,
          "name": "E3",
          "ticks": 26245,
          "time": 124.66515713281254,
          "velocity": 0.8818897637795275
        },
        {
          "duration": 0.11029390625000701,
          "durationTicks": 40,
          "midi": 55,
          "name": "G3",
          "ticks": 26288,
          "time": 124.78372308203129,
          "velocity": 0.8818897637795275
        },
        {
          "duration": 0.11305125390624937,
          "durationTicks": 41,
          "midi": 58,
          "name": "A#3",
          "ticks": 26330,
          "time": 124.89953168359379,
          "velocity": 0.8818897637795275
        },
        {
          "duration": 0.11305125390624937,
          "durationTicks": 41,
          "midi": 55,
          "name": "G3",
          "ticks": 26373,
          "time": 125.01809763281254,
          "velocity": 0.8818897637795275
        },
        {
          "duration": 0.1102939062499928,
          "durationTicks": 40,
          "midi": 52,
          "name": "E3",
          "ticks": 26416,
          "time": 125.13666358203129,
          "velocity": 0.8818897637795275
        },
        {
          "duration": 0.11305125390624937,
          "durationTicks": 41,
          "midi": 55,
          "name": "G3",
          "ticks": 26458,
          "time": 125.2524721835938,
          "velocity": 0.8818897637795275
        },
        {
          "duration": 0.11305125390624937,
          "durationTicks": 41,
          "midi": 52,
          "name": "E3",
          "ticks": 26501,
          "time": 125.37103813281254,
          "velocity": 0.8818897637795275
        },
        {
          "duration": 0.1102939062499928,
          "durationTicks": 40,
          "midi": 55,
          "name": "G3",
          "ticks": 26544,
          "time": 125.48960408203129,
          "velocity": 0.8818897637795275
        },
        {
          "duration": 0.11305125390626358,
          "durationTicks": 41,
          "midi": 58,
          "name": "A#3",
          "ticks": 26586,
          "time": 125.60541268359378,
          "velocity": 0.8818897637795275
        },
        {
          "duration": 0.11305125390626358,
          "durationTicks": 41,
          "midi": 55,
          "name": "G3",
          "ticks": 26629,
          "time": 125.72397863281253,
          "velocity": 0.8818897637795275
        },
        {
          "duration": 0.1102939062499928,
          "durationTicks": 40,
          "midi": 52,
          "name": "E3",
          "ticks": 26672,
          "time": 125.8425445820313,
          "velocity": 0.8818897637795275
        },
        {
          "duration": 0.11305125390624937,
          "durationTicks": 41,
          "midi": 55,
          "name": "G3",
          "ticks": 26714,
          "time": 125.95835318359379,
          "velocity": 0.8818897637795275
        },
        {
          "duration": 0.11305125390624937,
          "durationTicks": 41,
          "midi": 52,
          "name": "E3",
          "ticks": 26757,
          "time": 126.07691913281253,
          "velocity": 0.8818897637795275
        },
        {
          "duration": 0.1102939062499928,
          "durationTicks": 40,
          "midi": 52,
          "name": "E3",
          "ticks": 26800,
          "time": 126.1954850820313,
          "velocity": 0.8818897637795275
        },
        {
          "duration": 0.11305125390624937,
          "durationTicks": 41,
          "midi": 55,
          "name": "G3",
          "ticks": 26842,
          "time": 126.31129368359379,
          "velocity": 0.8818897637795275
        },
        {
          "duration": 0.1196001679687555,
          "durationTicks": 41,
          "midi": 52,
          "name": "E3",
          "ticks": 26885,
          "time": 126.42985963281254,
          "velocity": 0.8818897637795275
        },
        {
          "duration": 0.1171875,
          "durationTicks": 40,
          "midi": 58,
          "name": "A#3",
          "ticks": 26928,
          "time": 126.55531917578129,
          "velocity": 0.8818897637795275
        },
        {
          "duration": 0.1201171875,
          "durationTicks": 41,
          "midi": 61,
          "name": "C#4",
          "ticks": 26970,
          "time": 126.67836605078129,
          "velocity": 0.8818897637795275
        },
        {
          "duration": 0.1201171875,
          "durationTicks": 41,
          "midi": 58,
          "name": "A#3",
          "ticks": 27013,
          "time": 126.80434261328129,
          "velocity": 0.8818897637795275
        },
        {
          "duration": 0.1171875,
          "durationTicks": 40,
          "midi": 58,
          "name": "A#3",
          "ticks": 27056,
          "time": 126.93031917578129,
          "velocity": 0.8818897637795275
        },
        {
          "duration": 0.1201171875,
          "durationTicks": 41,
          "midi": 61,
          "name": "C#4",
          "ticks": 27098,
          "time": 127.05336605078129,
          "velocity": 0.8818897637795275
        },
        {
          "duration": 0.12753906250000568,
          "durationTicks": 41,
          "midi": 58,
          "name": "A#3",
          "ticks": 27141,
          "time": 127.17934261328129,
          "velocity": 0.8818897637795275
        },
        {
          "duration": 0.125,
          "durationTicks": 40,
          "midi": 64,
          "name": "E4",
          "ticks": 27184,
          "time": 127.31313167578129,
          "velocity": 0.8818897637795275
        },
        {
          "duration": 0.12812500000001137,
          "durationTicks": 41,
          "midi": 61,
          "name": "C#4",
          "ticks": 27226,
          "time": 127.44438167578129,
          "velocity": 0.8818897637795275
        },
        {
          "duration": 0.12812499999999716,
          "durationTicks": 41,
          "midi": 64,
          "name": "E4",
          "ticks": 27269,
          "time": 127.57875667578129,
          "velocity": 0.8818897637795275
        },
        {
          "duration": 0.13325880468748608,
          "durationTicks": 40,
          "midi": 61,
          "name": "C#4",
          "ticks": 27312,
          "time": 127.7131316757813,
          "velocity": 0.8818897637795275
        },
        {
          "duration": 0.1372766484375063,
          "durationTicks": 41,
          "midi": 64,
          "name": "E4",
          "ticks": 27354,
          "time": 127.85308690234379,
          "velocity": 0.8818897637795275
        },
        {
          "duration": 0.1372766484374921,
          "durationTicks": 41,
          "midi": 61,
          "name": "C#4",
          "ticks": 27397,
          "time": 127.99705997265629,
          "velocity": 0.8818897637795275
        },
        {
          "duration": 0.13392843750000338,
          "durationTicks": 40,
          "midi": 64,
          "name": "E4",
          "ticks": 27440,
          "time": 128.1410330429688,
          "velocity": 0.8818897637795275
        },
        {
          "duration": 0.14706357812497117,
          "durationTicks": 41,
          "midi": 61,
          "name": "C#4",
          "ticks": 27482,
          "time": 128.2816579023438,
          "velocity": 0.8818897637795275
        },
        {
          "duration": 0.14783623046872663,
          "durationTicks": 41,
          "midi": 64,
          "name": "E4",
          "ticks": 27525,
          "time": 128.43593300390629,
          "velocity": 0.8818897637795275
        },
        {
          "duration": 0.14423046874998136,
          "durationTicks": 40,
          "midi": 61,
          "name": "C#4",
          "ticks": 27568,
          "time": 128.59098075781253,
          "velocity": 0.8818897637795275
        },
        {
          "duration": 0.14783623046875505,
          "durationTicks": 41,
          "midi": 64,
          "name": "E4",
          "ticks": 27610,
          "time": 128.74242275000003,
          "velocity": 0.8818897637795275
        },
        {
          "duration": 0.14783623046875505,
          "durationTicks": 41,
          "midi": 61,
          "name": "C#4",
          "ticks": 27653,
          "time": 128.89747050390628,
          "velocity": 0.8818897637795275
        },
        {
          "duration": 1.1405047851562529,
          "durationTicks": 244,
          "midi": 57,
          "name": "A3",
          "ticks": 27696,
          "time": 129.05251825781252,
          "velocity": 0.8818897637795275
        },
        {
          "duration": 1.1437500000000114,
          "durationTicks": 244,
          "midi": 57,
          "name": "A3",
          "ticks": 27952,
          "time": 130.24927304296878,
          "velocity": 0.8818897637795275
        },
        {
          "duration": 0.5671874999999886,
          "durationTicks": 61,
          "midi": 57,
          "name": "A3",
          "ticks": 29680,
          "time": 140.4398980429688,
          "velocity": 0.8818897637795275
        },
        {
          "duration": 1.143749999999983,
          "durationTicks": 122,
          "midi": 57,
          "name": "A3",
          "ticks": 29744,
          "time": 141.0352105429688,
          "velocity": 0.8818897637795275
        },
        {
          "duration": 3.3375000000000057,
          "durationTicks": 311,
          "midi": 57,
          "name": "A3",
          "ticks": 29872,
          "time": 142.2352105429688,
          "velocity": 0.8818897637795275
        },
        {
          "duration": 2.1796875,
          "durationTicks": 186,
          "midi": 55,
          "name": "G3",
          "ticks": 30192,
          "time": 145.6781792929688,
          "velocity": 0.8818897637795275
        },
        {
          "duration": 6.59765625,
          "durationTicks": 487,
          "midi": 50,
          "name": "D3",
          "ticks": 30256,
          "time": 146.4281792929688,
          "velocity": 0.8818897637795275
        },
        {
          "duration": 6.59765625,
          "durationTicks": 487,
          "midi": 57,
          "name": "A3",
          "ticks": 30256,
          "time": 146.4281792929688,
          "velocity": 0.8818897637795275
        },
        {
          "duration": 0.71484375,
          "durationTicks": 61,
          "midi": 53,
          "name": "F3",
          "ticks": 30384,
          "time": 147.9281792929688,
          "velocity": 0.8818897637795275
        },
        {
          "duration": 0.71484375,
          "durationTicks": 61,
          "midi": 52,
          "name": "E3",
          "ticks": 30448,
          "time": 148.6781792929688,
          "velocity": 0.8818897637795275
        },
        {
          "duration": 3.80078125,
          "durationTicks": 244,
          "midi": 53,
          "name": "F3",
          "ticks": 30512,
          "time": 149.4281792929688,
          "velocity": 0.8818897637795275
        },
        {
          "duration": 0.2916662890625048,
          "durationTicks": 61,
          "midi": 69,
          "name": "A4",
          "ticks": 30832,
          "time": 156.3227105429688,
          "velocity": 0.7637795275590551
        },
        {
          "duration": 0.1588537695312482,
          "durationTicks": 61,
          "midi": 67,
          "name": "G4",
          "ticks": 30896,
          "time": 156.62218931250004,
          "velocity": 0.7637795275590551
        },
        {
          "duration": 0.1588537695312482,
          "durationTicks": 61,
          "midi": 69,
          "name": "A4",
          "ticks": 30960,
          "time": 156.78885556250003,
          "velocity": 0.7637795275590551
        },
        {
          "duration": 0.1588537695312482,
          "durationTicks": 61,
          "midi": 65,
          "name": "F4",
          "ticks": 31024,
          "time": 156.95552181250005,
          "velocity": 0.7637795275590551
        },
        {
          "duration": 0.1588537695312482,
          "durationTicks": 61,
          "midi": 69,
          "name": "A4",
          "ticks": 31088,
          "time": 157.12218806250004,
          "velocity": 0.7637795275590551
        },
        {
          "duration": 0.1588537695312482,
          "durationTicks": 61,
          "midi": 64,
          "name": "E4",
          "ticks": 31152,
          "time": 157.28885431250004,
          "velocity": 0.7637795275590551
        },
        {
          "duration": 0.1588537695312482,
          "durationTicks": 61,
          "midi": 69,
          "name": "A4",
          "ticks": 31216,
          "time": 157.45552056250006,
          "velocity": 0.7637795275590551
        },
        {
          "duration": 0.1588537695312482,
          "durationTicks": 61,
          "midi": 62,
          "name": "D4",
          "ticks": 31280,
          "time": 157.62218681250005,
          "velocity": 0.7637795275590551
        },
        {
          "duration": 0.1588537695312482,
          "durationTicks": 61,
          "midi": 69,
          "name": "A4",
          "ticks": 31344,
          "time": 157.78885306250004,
          "velocity": 0.7637795275590551
        },
        {
          "duration": 0.1588537695312766,
          "durationTicks": 61,
          "midi": 61,
          "name": "C#4",
          "ticks": 31408,
          "time": 157.95551931250003,
          "velocity": 0.7637795275590551
        },
        {
          "duration": 0.1588537695312482,
          "durationTicks": 61,
          "midi": 69,
          "name": "A4",
          "ticks": 31472,
          "time": 158.12218556250005,
          "velocity": 0.7637795275590551
        },
        {
          "duration": 0.1588537695312482,
          "durationTicks": 61,
          "midi": 62,
          "name": "D4",
          "ticks": 31536,
          "time": 158.28885181250004,
          "velocity": 0.7637795275590551
        },
        {
          "duration": 0.1588537695312482,
          "durationTicks": 61,
          "midi": 69,
          "name": "A4",
          "ticks": 31600,
          "time": 158.45551806250003,
          "velocity": 0.7637795275590551
        },
        {
          "duration": 0.1588537695312482,
          "durationTicks": 61,
          "midi": 64,
          "name": "E4",
          "ticks": 31664,
          "time": 158.62218431250005,
          "velocity": 0.7637795275590551
        },
        {
          "duration": 0.1588537695312482,
          "durationTicks": 61,
          "midi": 69,
          "name": "A4",
          "ticks": 31728,
          "time": 158.78885056250004,
          "velocity": 0.7637795275590551
        },
        {
          "duration": 0.1588537695312482,
          "durationTicks": 61,
          "midi": 65,
          "name": "F4",
          "ticks": 31792,
          "time": 158.95551681250004,
          "velocity": 0.7637795275590551
        },
        {
          "duration": 0.1588537695312482,
          "durationTicks": 61,
          "midi": 69,
          "name": "A4",
          "ticks": 31856,
          "time": 159.12218306250006,
          "velocity": 0.7637795275590551
        },
        {
          "duration": 0.1588537695312482,
          "durationTicks": 61,
          "midi": 57,
          "name": "A3",
          "ticks": 31920,
          "time": 159.28884931250005,
          "velocity": 0.7637795275590551
        },
        {
          "duration": 0.1588537695312482,
          "durationTicks": 61,
          "midi": 69,
          "name": "A4",
          "ticks": 31984,
          "time": 159.45551556250004,
          "velocity": 0.7637795275590551
        },
        {
          "duration": 0.1588537695312482,
          "durationTicks": 61,
          "midi": 59,
          "name": "B3",
          "ticks": 32048,
          "time": 159.62218181250003,
          "velocity": 0.7637795275590551
        },
        {
          "duration": 0.1588537695312482,
          "durationTicks": 61,
          "midi": 69,
          "name": "A4",
          "ticks": 32112,
          "time": 159.78884806250005,
          "velocity": 0.7637795275590551
        },
        {
          "duration": 0.1588537695312482,
          "durationTicks": 61,
          "midi": 61,
          "name": "C#4",
          "ticks": 32176,
          "time": 159.95551431250004,
          "velocity": 0.7637795275590551
        },
        {
          "duration": 0.1588537695312482,
          "durationTicks": 61,
          "midi": 69,
          "name": "A4",
          "ticks": 32240,
          "time": 160.12218056250003,
          "velocity": 0.7637795275590551
        },
        {
          "duration": 0.1588537695312482,
          "durationTicks": 61,
          "midi": 62,
          "name": "D4",
          "ticks": 32304,
          "time": 160.28884681250005,
          "velocity": 0.7637795275590551
        },
        {
          "duration": 0.1588537695312482,
          "durationTicks": 61,
          "midi": 69,
          "name": "A4",
          "ticks": 32368,
          "time": 160.45551306250005,
          "velocity": 0.7637795275590551
        },
        {
          "duration": 0.1588537695312482,
          "durationTicks": 61,
          "midi": 61,
          "name": "C#4",
          "ticks": 32432,
          "time": 160.62217931250004,
          "velocity": 0.7637795275590551
        },
        {
          "duration": 0.1588537695312482,
          "durationTicks": 61,
          "midi": 69,
          "name": "A4",
          "ticks": 32496,
          "time": 160.78884556250006,
          "velocity": 0.7637795275590551
        },
        {
          "duration": 0.1588537695312482,
          "durationTicks": 61,
          "midi": 62,
          "name": "D4",
          "ticks": 32560,
          "time": 160.95551181250005,
          "velocity": 0.7637795275590551
        },
        {
          "duration": 0.1588537695312482,
          "durationTicks": 61,
          "midi": 69,
          "name": "A4",
          "ticks": 32624,
          "time": 161.12217806250004,
          "velocity": 0.7637795275590551
        },
        {
          "duration": 0.1588537695312482,
          "durationTicks": 61,
          "midi": 64,
          "name": "E4",
          "ticks": 32688,
          "time": 161.28884431250003,
          "velocity": 0.7637795275590551
        },
        {
          "duration": 0.1588537695312482,
          "durationTicks": 61,
          "midi": 69,
          "name": "A4",
          "ticks": 32752,
          "time": 161.45551056250005,
          "velocity": 0.7637795275590551
        },
        {
          "duration": 0.3177075390624964,
          "durationTicks": 122,
          "midi": 65,
          "name": "F4",
          "ticks": 32816,
          "time": 161.62217681250004,
          "velocity": 0.7637795275590551
        },
        {
          "duration": 0.3177075390624964,
          "durationTicks": 122,
          "midi": 66,
          "name": "F#4",
          "ticks": 32944,
          "time": 161.95550931250006,
          "velocity": 0.7637795275590551
        },
        {
          "duration": 0.3177075390624964,
          "durationTicks": 122,
          "midi": 67,
          "name": "G4",
          "ticks": 33072,
          "time": 162.28884181250004,
          "velocity": 0.7637795275590551
        },
        {
          "duration": 0.3177075390624964,
          "durationTicks": 122,
          "midi": 60,
          "name": "C4",
          "ticks": 33200,
          "time": 162.62217431250005,
          "velocity": 0.7637795275590551
        },
        {
          "duration": 0.3177075390624964,
          "durationTicks": 122,
          "midi": 58,
          "name": "A#3",
          "ticks": 33328,
          "time": 162.95550681250003,
          "velocity": 0.7637795275590551
        },
        {
          "duration": 0.3177075390624964,
          "durationTicks": 122,
          "midi": 57,
          "name": "A3",
          "ticks": 33456,
          "time": 163.28883931250004,
          "velocity": 0.7637795275590551
        },
        {
          "duration": 0.3177075390624964,
          "durationTicks": 122,
          "midi": 58,
          "name": "A#3",
          "ticks": 33584,
          "time": 163.62217181250006,
          "velocity": 0.7637795275590551
        },
        {
          "duration": 0.3177075390624964,
          "durationTicks": 122,
          "midi": 60,
          "name": "C4",
          "ticks": 33712,
          "time": 163.95550431250004,
          "velocity": 0.7637795275590551
        },
        {
          "duration": 0.3177075390624964,
          "durationTicks": 122,
          "midi": 62,
          "name": "D4",
          "ticks": 33840,
          "time": 164.28883681250005,
          "velocity": 0.7637795275590551
        },
        {
          "duration": 0.3177075390624964,
          "durationTicks": 122,
          "midi": 54,
          "name": "F#3",
          "ticks": 33968,
          "time": 164.62216931250003,
          "velocity": 0.7637795275590551
        },
        {
          "duration": 0.3177075390624964,
          "durationTicks": 122,
          "midi": 55,
          "name": "G3",
          "ticks": 34096,
          "time": 164.95550181250005,
          "velocity": 0.7637795275590551
        },
        {
          "duration": 0.3177075390624964,
          "durationTicks": 122,
          "midi": 57,
          "name": "A3",
          "ticks": 34224,
          "time": 165.28883431250006,
          "velocity": 0.7637795275590551
        },
        {
          "duration": 0.3177075390624964,
          "durationTicks": 122,
          "midi": 58,
          "name": "A#3",
          "ticks": 34352,
          "time": 165.62216681250004,
          "velocity": 0.7637795275590551
        },
        {
          "duration": 0.3177075390624964,
          "durationTicks": 122,
          "midi": 57,
          "name": "A3",
          "ticks": 34480,
          "time": 165.95549931250005,
          "velocity": 0.7637795275590551
        },
        {
          "duration": 0.3177075390624964,
          "durationTicks": 122,
          "midi": 58,
          "name": "A#3",
          "ticks": 34608,
          "time": 166.28883181250004,
          "velocity": 0.7637795275590551
        },
        {
          "duration": 0.3177075390624964,
          "durationTicks": 122,
          "midi": 54,
          "name": "F#3",
          "ticks": 34736,
          "time": 166.62216431250005,
          "velocity": 0.7637795275590551
        },
        {
          "duration": 0.1588537695312766,
          "durationTicks": 61,
          "midi": 55,
          "name": "G3",
          "ticks": 34864,
          "time": 166.95549681250003,
          "velocity": 0.7637795275590551
        },
        {
          "duration": 0.1588537695312482,
          "durationTicks": 61,
          "midi": 67,
          "name": "G4",
          "ticks": 34928,
          "time": 167.12216306250005,
          "velocity": 0.7637795275590551
        },
        {
          "duration": 0.1588537695312482,
          "durationTicks": 61,
          "midi": 55,
          "name": "G3",
          "ticks": 34992,
          "time": 167.28882931250004,
          "velocity": 0.7637795275590551
        },
        {
          "duration": 0.1588537695312482,
          "durationTicks": 61,
          "midi": 67,
          "name": "G4",
          "ticks": 35056,
          "time": 167.45549556250003,
          "velocity": 0.7637795275590551
        },
        {
          "duration": 0.1588537695312482,
          "durationTicks": 61,
          "midi": 62,
          "name": "D4",
          "ticks": 35120,
          "time": 167.62216181250005,
          "velocity": 0.7637795275590551
        },
        {
          "duration": 0.1588537695312482,
          "durationTicks": 61,
          "midi": 67,
          "name": "G4",
          "ticks": 35184,
          "time": 167.78882806250004,
          "velocity": 0.7637795275590551
        },
        {
          "duration": 0.1588537695312482,
          "durationTicks": 61,
          "midi": 62,
          "name": "D4",
          "ticks": 35248,
          "time": 167.95549431250004,
          "velocity": 0.7637795275590551
        },
        {
          "duration": 0.1588537695312482,
          "durationTicks": 61,
          "midi": 67,
          "name": "G4",
          "ticks": 35312,
          "time": 168.12216056250006,
          "velocity": 0.7637795275590551
        },
        {
          "duration": 0.1588537695312482,
          "durationTicks": 61,
          "midi": 60,
          "name": "C4",
          "ticks": 35376,
          "time": 168.28882681250005,
          "velocity": 0.7637795275590551
        },
        {
          "duration": 0.1588537695312482,
          "durationTicks": 61,
          "midi": 63,
          "name": "D#4",
          "ticks": 35440,
          "time": 168.45549306250004,
          "velocity": 0.7637795275590551
        },
        {
          "duration": 0.1588537695312482,
          "durationTicks": 61,
          "midi": 60,
          "name": "C4",
          "ticks": 35504,
          "time": 168.62215931250003,
          "velocity": 0.7637795275590551
        },
        {
          "duration": 0.1588537695312482,
          "durationTicks": 61,
          "midi": 63,
          "name": "D#4",
          "ticks": 35568,
          "time": 168.78882556250005,
          "velocity": 0.7637795275590551
        },
        {
          "duration": 0.1588537695312482,
          "durationTicks": 61,
          "midi": 60,
          "name": "C4",
          "ticks": 35632,
          "time": 168.95549181250004,
          "velocity": 0.7637795275590551
        },
        {
          "duration": 0.1588537695312482,
          "durationTicks": 61,
          "midi": 63,
          "name": "D#4",
          "ticks": 35696,
          "time": 169.12215806250003,
          "velocity": 0.7637795275590551
        },
        {
          "duration": 0.1588537695312482,
          "durationTicks": 61,
          "midi": 60,
          "name": "C4",
          "ticks": 35760,
          "time": 169.28882431250005,
          "velocity": 0.7637795275590551
        },
        {
          "duration": 0.1588537695312482,
          "durationTicks": 61,
          "midi": 63,
          "name": "D#4",
          "ticks": 35824,
          "time": 169.45549056250005,
          "velocity": 0.7637795275590551
        },
        {
          "duration": 0.1588537695312482,
          "durationTicks": 61,
          "midi": 60,
          "name": "C4",
          "ticks": 35888,
          "time": 169.62215681250004,
          "velocity": 0.7637795275590551
        },
        {
          "duration": 0.1588537695312482,
          "durationTicks": 61,
          "midi": 65,
          "name": "F4",
          "ticks": 35952,
          "time": 169.78882306250006,
          "velocity": 0.7637795275590551
        },
        {
          "duration": 0.1588537695312482,
          "durationTicks": 61,
          "midi": 60,
          "name": "C4",
          "ticks": 36016,
          "time": 169.95548931250005,
          "velocity": 0.7637795275590551
        },
        {
          "duration": 0.1588537695312482,
          "durationTicks": 61,
          "midi": 65,
          "name": "F4",
          "ticks": 36080,
          "time": 170.12215556250004,
          "velocity": 0.7637795275590551
        },
        {
          "duration": 0.1588537695312766,
          "durationTicks": 61,
          "midi": 60,
          "name": "C4",
          "ticks": 36144,
          "time": 170.28882181250003,
          "velocity": 0.7637795275590551
        },
        {
          "duration": 0.1588537695312482,
          "durationTicks": 61,
          "midi": 65,
          "name": "F4",
          "ticks": 36208,
          "time": 170.45548806250005,
          "velocity": 0.7637795275590551
        },
        {
          "duration": 0.1588537695312482,
          "durationTicks": 61,
          "midi": 60,
          "name": "C4",
          "ticks": 36272,
          "time": 170.62215431250004,
          "velocity": 0.7637795275590551
        },
        {
          "duration": 0.1588537695312482,
          "durationTicks": 61,
          "midi": 65,
          "name": "F4",
          "ticks": 36336,
          "time": 170.78882056250004,
          "velocity": 0.7637795275590551
        },
        {
          "duration": 0.1588537695312482,
          "durationTicks": 61,
          "midi": 58,
          "name": "A#3",
          "ticks": 36400,
          "time": 170.95548681250006,
          "velocity": 0.7637795275590551
        },
        {
          "duration": 0.1588537695312482,
          "durationTicks": 61,
          "midi": 62,
          "name": "D4",
          "ticks": 36464,
          "time": 171.12215306250005,
          "velocity": 0.7637795275590551
        },
        {
          "duration": 0.1588537695312482,
          "durationTicks": 61,
          "midi": 58,
          "name": "A#3",
          "ticks": 36528,
          "time": 171.28881931250004,
          "velocity": 0.7637795275590551
        },
        {
          "duration": 0.1588537695312766,
          "durationTicks": 61,
          "midi": 62,
          "name": "D4",
          "ticks": 36592,
          "time": 171.45548556250003,
          "velocity": 0.7637795275590551
        },
        {
          "duration": 0.1588537695312482,
          "durationTicks": 61,
          "midi": 58,
          "name": "A#3",
          "ticks": 36656,
          "time": 171.62215181250005,
          "velocity": 0.7637795275590551
        },
        {
          "duration": 0.1588537695312482,
          "durationTicks": 61,
          "midi": 62,
          "name": "D4",
          "ticks": 36720,
          "time": 171.78881806250004,
          "velocity": 0.7637795275590551
        },
        {
          "duration": 0.1588537695312482,
          "durationTicks": 61,
          "midi": 58,
          "name": "A#3",
          "ticks": 36784,
          "time": 171.95548431250003,
          "velocity": 0.7637795275590551
        },
        {
          "duration": 0.1588537695312482,
          "durationTicks": 61,
          "midi": 62,
          "name": "D4",
          "ticks": 36848,
          "time": 172.12215056250005,
          "velocity": 0.7637795275590551
        },
        {
          "duration": 0.1588537695312482,
          "durationTicks": 61,
          "midi": 58,
          "name": "A#3",
          "ticks": 36912,
          "time": 172.28881681250004,
          "velocity": 0.7637795275590551
        },
        {
          "duration": 0.1588537695312482,
          "durationTicks": 61,
          "midi": 64,
          "name": "E4",
          "ticks": 36976,
          "time": 172.45548306250004,
          "velocity": 0.7637795275590551
        },
        {
          "duration": 0.1588537695312482,
          "durationTicks": 61,
          "midi": 58,
          "name": "A#3",
          "ticks": 37040,
          "time": 172.62214931250006,
          "velocity": 0.7637795275590551
        },
        {
          "duration": 0.1588537695312482,
          "durationTicks": 61,
          "midi": 64,
          "name": "E4",
          "ticks": 37104,
          "time": 172.78881556250005,
          "velocity": 0.7637795275590551
        },
        {
          "duration": 0.1588537695312482,
          "durationTicks": 61,
          "midi": 58,
          "name": "A#3",
          "ticks": 37168,
          "time": 172.95548181250004,
          "velocity": 0.7637795275590551
        },
        {
          "duration": 0.15885376953121977,
          "durationTicks": 61,
          "midi": 64,
          "name": "E4",
          "ticks": 37232,
          "time": 173.12214806250006,
          "velocity": 0.7637795275590551
        },
        {
          "duration": 0.1588537695312482,
          "durationTicks": 61,
          "midi": 58,
          "name": "A#3",
          "ticks": 37296,
          "time": 173.28881431250005,
          "velocity": 0.7637795275590551
        },
        {
          "duration": 0.1588537695312482,
          "durationTicks": 61,
          "midi": 64,
          "name": "E4",
          "ticks": 37360,
          "time": 173.45548056250004,
          "velocity": 0.7637795275590551
        },
        {
          "duration": 0.1588537695312482,
          "durationTicks": 61,
          "midi": 57,
          "name": "A3",
          "ticks": 37424,
          "time": 173.62214681250003,
          "velocity": 0.7637795275590551
        },
        {
          "duration": 0.1588537695312482,
          "durationTicks": 61,
          "midi": 61,
          "name": "C#4",
          "ticks": 37488,
          "time": 173.78881306250005,
          "velocity": 0.7637795275590551
        },
        {
          "duration": 0.1588537695312482,
          "durationTicks": 61,
          "midi": 57,
          "name": "A3",
          "ticks": 37552,
          "time": 173.95547931250005,
          "velocity": 0.7637795275590551
        },
        {
          "duration": 0.1588537695312482,
          "durationTicks": 61,
          "midi": 61,
          "name": "C#4",
          "ticks": 37616,
          "time": 174.12214556250004,
          "velocity": 0.7637795275590551
        },
        {
          "duration": 0.1588537695312482,
          "durationTicks": 61,
          "midi": 57,
          "name": "A3",
          "ticks": 37680,
          "time": 174.28881181250006,
          "velocity": 0.7637795275590551
        },
        {
          "duration": 0.1588537695312482,
          "durationTicks": 61,
          "midi": 61,
          "name": "C#4",
          "ticks": 37744,
          "time": 174.45547806250005,
          "velocity": 0.7637795275590551
        },
        {
          "duration": 0.1588537695312482,
          "durationTicks": 61,
          "midi": 57,
          "name": "A3",
          "ticks": 37808,
          "time": 174.62214431250004,
          "velocity": 0.7637795275590551
        },
        {
          "duration": 0.1588537695312766,
          "durationTicks": 61,
          "midi": 61,
          "name": "C#4",
          "ticks": 37872,
          "time": 174.78881056250003,
          "velocity": 0.7637795275590551
        },
        {
          "duration": 0.1588537695312482,
          "durationTicks": 61,
          "midi": 53,
          "name": "F3",
          "ticks": 37936,
          "time": 174.95547681250005,
          "velocity": 0.7637795275590551
        },
        {
          "duration": 0.1588537695312482,
          "durationTicks": 61,
          "midi": 62,
          "name": "D4",
          "ticks": 38000,
          "time": 175.12214306250004,
          "velocity": 0.7637795275590551
        },
        {
          "duration": 0.1588537695312482,
          "durationTicks": 61,
          "midi": 53,
          "name": "F3",
          "ticks": 38064,
          "time": 175.28880931250004,
          "velocity": 0.7637795275590551
        },
        {
          "duration": 0.1588537695312482,
          "durationTicks": 61,
          "midi": 62,
          "name": "D4",
          "ticks": 38128,
          "time": 175.45547556250006,
          "velocity": 0.7637795275590551
        },
        {
          "duration": 0.1588537695312482,
          "durationTicks": 61,
          "midi": 53,
          "name": "F3",
          "ticks": 38192,
          "time": 175.62214181250005,
          "velocity": 0.7637795275590551
        },
        {
          "duration": 0.1588537695312482,
          "durationTicks": 61,
          "midi": 62,
          "name": "D4",
          "ticks": 38256,
          "time": 175.78880806250004,
          "velocity": 0.7637795275590551
        },
        {
          "duration": 0.1588537695312766,
          "durationTicks": 61,
          "midi": 53,
          "name": "F3",
          "ticks": 38320,
          "time": 175.95547431250003,
          "velocity": 0.7637795275590551
        },
        {
          "duration": 0.1588537695312482,
          "durationTicks": 61,
          "midi": 62,
          "name": "D4",
          "ticks": 38384,
          "time": 176.12214056250005,
          "velocity": 0.7637795275590551
        },
        {
          "duration": 0.1588537695312482,
          "durationTicks": 61,
          "midi": 52,
          "name": "E3",
          "ticks": 38448,
          "time": 176.28880681250004,
          "velocity": 0.7637795275590551
        },
        {
          "duration": 0.1588537695312482,
          "durationTicks": 61,
          "midi": 58,
          "name": "A#3",
          "ticks": 38512,
          "time": 176.45547306250003,
          "velocity": 0.7637795275590551
        },
        {
          "duration": 0.1588537695312482,
          "durationTicks": 61,
          "midi": 52,
          "name": "E3",
          "ticks": 38576,
          "time": 176.62213931250005,
          "velocity": 0.7637795275590551
        },
        {
          "duration": 0.1588537695312482,
          "durationTicks": 61,
          "midi": 58,
          "name": "A#3",
          "ticks": 38640,
          "time": 176.78880556250004,
          "velocity": 0.7637795275590551
        },
        {
          "duration": 0.1588537695312482,
          "durationTicks": 61,
          "midi": 52,
          "name": "E3",
          "ticks": 38704,
          "time": 176.95547181250004,
          "velocity": 0.7637795275590551
        },
        {
          "duration": 0.1588537695312482,
          "durationTicks": 61,
          "midi": 58,
          "name": "A#3",
          "ticks": 38768,
          "time": 177.12213806250006,
          "velocity": 0.7637795275590551
        },
        {
          "duration": 0.1588537695312482,
          "durationTicks": 61,
          "midi": 52,
          "name": "E3",
          "ticks": 38832,
          "time": 177.28880431250005,
          "velocity": 0.7637795275590551
        },
        {
          "duration": 0.1588537695312482,
          "durationTicks": 61,
          "midi": 58,
          "name": "A#3",
          "ticks": 38896,
          "time": 177.45547056250004,
          "velocity": 0.7637795275590551
        },
        {
          "duration": 0.15885376953121977,
          "durationTicks": 61,
          "midi": 50,
          "name": "D3",
          "ticks": 38960,
          "time": 177.62213681250006,
          "velocity": 0.7637795275590551
        },
        {
          "duration": 0.1588537695312482,
          "durationTicks": 61,
          "midi": 57,
          "name": "A3",
          "ticks": 39024,
          "time": 177.78880306250005,
          "velocity": 0.7637795275590551
        },
        {
          "duration": 0.1588537695312482,
          "durationTicks": 61,
          "midi": 50,
          "name": "D3",
          "ticks": 39088,
          "time": 177.95546931250004,
          "velocity": 0.7637795275590551
        },
        {
          "duration": 0.1588537695312482,
          "durationTicks": 61,
          "midi": 57,
          "name": "A3",
          "ticks": 39152,
          "time": 178.12213556250003,
          "velocity": 0.7637795275590551
        },
        {
          "duration": 0.1588537695312482,
          "durationTicks": 61,
          "midi": 50,
          "name": "D3",
          "ticks": 39216,
          "time": 178.28880181250005,
          "velocity": 0.7637795275590551
        },
        {
          "duration": 0.1588537695312482,
          "durationTicks": 61,
          "midi": 57,
          "name": "A3",
          "ticks": 39280,
          "time": 178.45546806250005,
          "velocity": 0.7637795275590551
        },
        {
          "duration": 0.1588537695312482,
          "durationTicks": 61,
          "midi": 50,
          "name": "D3",
          "ticks": 39344,
          "time": 178.62213431250004,
          "velocity": 0.7637795275590551
        },
        {
          "duration": 0.1588537695312482,
          "durationTicks": 61,
          "midi": 57,
          "name": "A3",
          "ticks": 39408,
          "time": 178.78880056250006,
          "velocity": 0.7637795275590551
        },
        {
          "duration": 0.1588537695312482,
          "durationTicks": 61,
          "midi": 52,
          "name": "E3",
          "ticks": 39472,
          "time": 178.95546681250005,
          "velocity": 0.7637795275590551
        },
        {
          "duration": 0.1588537695312482,
          "durationTicks": 61,
          "midi": 55,
          "name": "G3",
          "ticks": 39536,
          "time": 179.12213306250004,
          "velocity": 0.7637795275590551
        },
        {
          "duration": 0.1588537695312766,
          "durationTicks": 61,
          "midi": 52,
          "name": "E3",
          "ticks": 39600,
          "time": 179.28879931250003,
          "velocity": 0.7637795275590551
        },
        {
          "duration": 0.1588537695312482,
          "durationTicks": 61,
          "midi": 55,
          "name": "G3",
          "ticks": 39664,
          "time": 179.45546556250005,
          "velocity": 0.7637795275590551
        },
        {
          "duration": 0.1588537695312482,
          "durationTicks": 61,
          "midi": 52,
          "name": "E3",
          "ticks": 39728,
          "time": 179.62213181250004,
          "velocity": 0.7637795275590551
        },
        {
          "duration": 0.1588537695312482,
          "durationTicks": 61,
          "midi": 55,
          "name": "G3",
          "ticks": 39792,
          "time": 179.78879806250004,
          "velocity": 0.7637795275590551
        },
        {
          "duration": 0.1588537695312482,
          "durationTicks": 61,
          "midi": 52,
          "name": "E3",
          "ticks": 39856,
          "time": 179.95546431250006,
          "velocity": 0.7637795275590551
        },
        {
          "duration": 0.1588537695312482,
          "durationTicks": 61,
          "midi": 55,
          "name": "G3",
          "ticks": 39920,
          "time": 180.12213056250005,
          "velocity": 0.7637795275590551
        },
        {
          "duration": 0.3177075390624964,
          "durationTicks": 122,
          "midi": 57,
          "name": "A3",
          "ticks": 39984,
          "time": 180.28879681250004,
          "velocity": 0.7637795275590551
        },
        {
          "duration": 0.3177075390624964,
          "durationTicks": 122,
          "midi": 53,
          "name": "F3",
          "ticks": 39984,
          "time": 180.28879681250004,
          "velocity": 0.7637795275590551
        },
        {
          "duration": 0.3177075390624964,
          "durationTicks": 122,
          "midi": 57,
          "name": "A3",
          "ticks": 40112,
          "time": 180.62212931250005,
          "velocity": 0.7637795275590551
        },
        {
          "duration": 0.3177075390624964,
          "durationTicks": 122,
          "midi": 52,
          "name": "E3",
          "ticks": 40112,
          "time": 180.62212931250005,
          "velocity": 0.7637795275590551
        },
        {
          "duration": 0.3177075390625248,
          "durationTicks": 122,
          "midi": 57,
          "name": "A3",
          "ticks": 40240,
          "time": 180.95546181250003,
          "velocity": 0.7637795275590551
        },
        {
          "duration": 0.3177075390625248,
          "durationTicks": 122,
          "midi": 50,
          "name": "D3",
          "ticks": 40240,
          "time": 180.95546181250003,
          "velocity": 0.7637795275590551
        },
        {
          "duration": 0.3177075390624964,
          "durationTicks": 122,
          "midi": 57,
          "name": "A3",
          "ticks": 40368,
          "time": 181.28879431250004,
          "velocity": 0.7637795275590551
        },
        {
          "duration": 0.3177075390624964,
          "durationTicks": 122,
          "midi": 55,
          "name": "G3",
          "ticks": 40368,
          "time": 181.28879431250004,
          "velocity": 0.7637795275590551
        },
        {
          "duration": 0.3177075390624964,
          "durationTicks": 122,
          "midi": 57,
          "name": "A3",
          "ticks": 40496,
          "time": 181.62212681250006,
          "velocity": 0.7637795275590551
        },
        {
          "duration": 0.3177075390624964,
          "durationTicks": 122,
          "midi": 53,
          "name": "F3",
          "ticks": 40496,
          "time": 181.62212681250006,
          "velocity": 0.7637795275590551
        },
        {
          "duration": 0.3177075390624964,
          "durationTicks": 122,
          "midi": 57,
          "name": "A3",
          "ticks": 40624,
          "time": 181.95545931250004,
          "velocity": 0.7637795275590551
        },
        {
          "duration": 0.3177075390624964,
          "durationTicks": 122,
          "midi": 52,
          "name": "E3",
          "ticks": 40624,
          "time": 181.95545931250004,
          "velocity": 0.7637795275590551
        },
        {
          "duration": 0.3177075390624964,
          "durationTicks": 122,
          "midi": 57,
          "name": "A3",
          "ticks": 40752,
          "time": 182.28879181250005,
          "velocity": 0.7637795275590551
        },
        {
          "duration": 0.3177075390624964,
          "durationTicks": 122,
          "midi": 53,
          "name": "F3",
          "ticks": 40752,
          "time": 182.28879181250005,
          "velocity": 0.7637795275590551
        },
        {
          "duration": 0.3177075390624964,
          "durationTicks": 122,
          "midi": 57,
          "name": "A3",
          "ticks": 40880,
          "time": 182.62212431250003,
          "velocity": 0.7637795275590551
        },
        {
          "duration": 0.3177075390624964,
          "durationTicks": 122,
          "midi": 49,
          "name": "C#3",
          "ticks": 40880,
          "time": 182.62212431250003,
          "velocity": 0.7637795275590551
        },
        {
          "duration": 0.3177075390624964,
          "durationTicks": 122,
          "midi": 57,
          "name": "A3",
          "ticks": 41008,
          "time": 182.95545681250005,
          "velocity": 0.7637795275590551
        },
        {
          "duration": 0.3177075390624964,
          "durationTicks": 122,
          "midi": 50,
          "name": "D3",
          "ticks": 41008,
          "time": 182.95545681250005,
          "velocity": 0.7637795275590551
        },
        {
          "duration": 0.3177075390624964,
          "durationTicks": 122,
          "midi": 57,
          "name": "A3",
          "ticks": 41136,
          "time": 183.28878931250006,
          "velocity": 0.7637795275590551
        },
        {
          "duration": 0.3177075390624964,
          "durationTicks": 122,
          "midi": 49,
          "name": "C#3",
          "ticks": 41136,
          "time": 183.28878931250006,
          "velocity": 0.7637795275590551
        },
        {
          "duration": 0.3177075390624964,
          "durationTicks": 122,
          "midi": 57,
          "name": "A3",
          "ticks": 41264,
          "time": 183.62212181250004,
          "velocity": 0.7637795275590551
        },
        {
          "duration": 0.3177075390624964,
          "durationTicks": 122,
          "midi": 50,
          "name": "D3",
          "ticks": 41264,
          "time": 183.62212181250004,
          "velocity": 0.7637795275590551
        },
        {
          "duration": 0.3177075390624964,
          "durationTicks": 122,
          "midi": 57,
          "name": "A3",
          "ticks": 41392,
          "time": 183.95545431250005,
          "velocity": 0.7637795275590551
        },
        {
          "duration": 0.3177075390624964,
          "durationTicks": 122,
          "midi": 52,
          "name": "E3",
          "ticks": 41392,
          "time": 183.95545431250005,
          "velocity": 0.7637795275590551
        },
        {
          "duration": 0.3177075390625248,
          "durationTicks": 122,
          "midi": 57,
          "name": "A3",
          "ticks": 41520,
          "time": 184.28878681250004,
          "velocity": 0.7637795275590551
        },
        {
          "duration": 0.3177075390625248,
          "durationTicks": 122,
          "midi": 53,
          "name": "F3",
          "ticks": 41520,
          "time": 184.28878681250004,
          "velocity": 0.7637795275590551
        },
        {
          "duration": 0.3177075390624964,
          "durationTicks": 122,
          "midi": 57,
          "name": "A3",
          "ticks": 41648,
          "time": 184.62211931250005,
          "velocity": 0.7637795275590551
        },
        {
          "duration": 0.3177075390624964,
          "durationTicks": 122,
          "midi": 52,
          "name": "E3",
          "ticks": 41648,
          "time": 184.62211931250005,
          "velocity": 0.7637795275590551
        },
        {
          "duration": 0.3177075390625248,
          "durationTicks": 122,
          "midi": 57,
          "name": "A3",
          "ticks": 41776,
          "time": 184.95545181250003,
          "velocity": 0.7637795275590551
        },
        {
          "duration": 0.3177075390625248,
          "durationTicks": 122,
          "midi": 53,
          "name": "F3",
          "ticks": 41776,
          "time": 184.95545181250003,
          "velocity": 0.7637795275590551
        },
        {
          "duration": 0.3177075390624964,
          "durationTicks": 122,
          "midi": 57,
          "name": "A3",
          "ticks": 41904,
          "time": 185.28878431250004,
          "velocity": 0.7637795275590551
        },
        {
          "duration": 0.3177075390624964,
          "durationTicks": 122,
          "midi": 49,
          "name": "C#3",
          "ticks": 41904,
          "time": 185.28878431250004,
          "velocity": 0.7637795275590551
        },
        {
          "duration": 0.6354150781249928,
          "durationTicks": 244,
          "midi": 57,
          "name": "A3",
          "ticks": 42032,
          "time": 185.62211681250005,
          "velocity": 0.7637795275590551
        },
        {
          "duration": 0.6354150781249928,
          "durationTicks": 244,
          "midi": 50,
          "name": "D3",
          "ticks": 42032,
          "time": 185.62211681250005,
          "velocity": 0.7637795275590551
        },
        {
          "duration": 0.6354150781249928,
          "durationTicks": 244,
          "midi": 62,
          "name": "D4",
          "ticks": 42288,
          "time": 186.28878181250005,
          "velocity": 0.7637795275590551
        },
        {
          "duration": 0.6354150781249928,
          "durationTicks": 244,
          "midi": 53,
          "name": "F3",
          "ticks": 42288,
          "time": 186.28878181250005,
          "velocity": 0.7637795275590551
        },
        {
          "duration": 0.6354150781249928,
          "durationTicks": 244,
          "midi": 62,
          "name": "D4",
          "ticks": 42544,
          "time": 186.95544681250004,
          "velocity": 0.7637795275590551
        },
        {
          "duration": 0.6354150781249928,
          "durationTicks": 244,
          "midi": 55,
          "name": "G3",
          "ticks": 42544,
          "time": 186.95544681250004,
          "velocity": 0.7637795275590551
        },
        {
          "duration": 0.6354150781250212,
          "durationTicks": 244,
          "midi": 60,
          "name": "C4",
          "ticks": 43056,
          "time": 188.28877681250003,
          "velocity": 0.7637795275590551
        },
        {
          "duration": 0.6354150781250212,
          "durationTicks": 244,
          "midi": 48,
          "name": "C3",
          "ticks": 43056,
          "time": 188.28877681250003,
          "velocity": 0.7637795275590551
        },
        {
          "duration": 0.6354150781249928,
          "durationTicks": 244,
          "midi": 60,
          "name": "C4",
          "ticks": 43312,
          "time": 188.95544181250006,
          "velocity": 0.7637795275590551
        },
        {
          "duration": 0.6354150781249928,
          "durationTicks": 244,
          "midi": 52,
          "name": "E3",
          "ticks": 43312,
          "time": 188.95544181250006,
          "velocity": 0.7637795275590551
        },
        {
          "duration": 0.6354150781249928,
          "durationTicks": 244,
          "midi": 60,
          "name": "C4",
          "ticks": 43568,
          "time": 189.62210681250005,
          "velocity": 0.7637795275590551
        },
        {
          "duration": 0.6354150781249928,
          "durationTicks": 244,
          "midi": 53,
          "name": "F3",
          "ticks": 43568,
          "time": 189.62210681250005,
          "velocity": 0.7637795275590551
        },
        {
          "duration": 0.6354150781250212,
          "durationTicks": 244,
          "midi": 58,
          "name": "A#3",
          "ticks": 44080,
          "time": 190.95543681250004,
          "velocity": 0.7637795275590551
        },
        {
          "duration": 0.6354150781250212,
          "durationTicks": 244,
          "midi": 46,
          "name": "A#2",
          "ticks": 44080,
          "time": 190.95543681250004,
          "velocity": 0.7637795275590551
        },
        {
          "duration": 0.6354150781250212,
          "durationTicks": 244,
          "midi": 58,
          "name": "A#3",
          "ticks": 44336,
          "time": 191.62210181250003,
          "velocity": 0.7637795275590551
        },
        {
          "duration": 0.6354150781250212,
          "durationTicks": 244,
          "midi": 50,
          "name": "D3",
          "ticks": 44336,
          "time": 191.62210181250003,
          "velocity": 0.7637795275590551
        },
        {
          "duration": 0.6354150781249928,
          "durationTicks": 244,
          "midi": 58,
          "name": "A#3",
          "ticks": 44592,
          "time": 192.28876681250006,
          "velocity": 0.7637795275590551
        },
        {
          "duration": 0.6354150781249928,
          "durationTicks": 244,
          "midi": 52,
          "name": "E3",
          "ticks": 44592,
          "time": 192.28876681250006,
          "velocity": 0.7637795275590551
        },
        {
          "duration": 0.6354150781249928,
          "durationTicks": 244,
          "midi": 57,
          "name": "A3",
          "ticks": 45104,
          "time": 193.62209681250005,
          "velocity": 0.7637795275590551
        },
        {
          "duration": 0.6354150781249928,
          "durationTicks": 244,
          "midi": 45,
          "name": "A2",
          "ticks": 45104,
          "time": 193.62209681250005,
          "velocity": 0.7637795275590551
        },
        {
          "duration": 0.6354150781250212,
          "durationTicks": 244,
          "midi": 57,
          "name": "A3",
          "ticks": 45360,
          "time": 194.28876181250004,
          "velocity": 0.7637795275590551
        },
        {
          "duration": 0.6354150781250212,
          "durationTicks": 244,
          "midi": 49,
          "name": "C#3",
          "ticks": 45360,
          "time": 194.28876181250004,
          "velocity": 0.7637795275590551
        },
        {
          "duration": 0.6354150781249928,
          "durationTicks": 244,
          "midi": 57,
          "name": "A3",
          "ticks": 45616,
          "time": 194.95542681250004,
          "velocity": 0.7637795275590551
        },
        {
          "duration": 0.6354150781249928,
          "durationTicks": 244,
          "midi": 50,
          "name": "D3",
          "ticks": 45616,
          "time": 194.95542681250004,
          "velocity": 0.7637795275590551
        },
        {
          "duration": 0.3177075390624964,
          "durationTicks": 122,
          "midi": 53,
          "name": "F3",
          "ticks": 46000,
          "time": 195.95542431250004,
          "velocity": 0.7637795275590551
        },
        {
          "duration": 0.3177075390624964,
          "durationTicks": 122,
          "midi": 58,
          "name": "A#3",
          "ticks": 46128,
          "time": 196.28875681250005,
          "velocity": 0.7637795275590551
        },
        {
          "duration": 0.3177075390625248,
          "durationTicks": 122,
          "midi": 58,
          "name": "A#3",
          "ticks": 46256,
          "time": 196.62208931250004,
          "velocity": 0.7637795275590551
        },
        {
          "duration": 0.3177075390624964,
          "durationTicks": 122,
          "midi": 57,
          "name": "A3",
          "ticks": 46384,
          "time": 196.95542181250005,
          "velocity": 0.7637795275590551
        },
        {
          "duration": 0.3177075390625248,
          "durationTicks": 122,
          "midi": 57,
          "name": "A3",
          "ticks": 46512,
          "time": 197.28875431250003,
          "velocity": 0.7637795275590551
        },
        {
          "duration": 0.6354150781249928,
          "durationTicks": 244,
          "midi": 55,
          "name": "G3",
          "ticks": 46640,
          "time": 197.62208681250004,
          "velocity": 0.7637795275590551
        },
        {
          "duration": 0.3177075390624964,
          "durationTicks": 122,
          "midi": 57,
          "name": "A3",
          "ticks": 47024,
          "time": 198.62208431250005,
          "velocity": 0.7637795275590551
        },
        {
          "duration": 0.3177075390624964,
          "durationTicks": 122,
          "midi": 58,
          "name": "A#3",
          "ticks": 47152,
          "time": 198.95541681250006,
          "velocity": 0.7637795275590551
        },
        {
          "duration": 0.3177075390624964,
          "durationTicks": 122,
          "midi": 58,
          "name": "A#3",
          "ticks": 47280,
          "time": 199.28874931250004,
          "velocity": 0.7637795275590551
        },
        {
          "duration": 0.3177075390624964,
          "durationTicks": 122,
          "midi": 57,
          "name": "A3",
          "ticks": 47408,
          "time": 199.62208181250006,
          "velocity": 0.7637795275590551
        },
        {
          "duration": 0.3177075390625248,
          "durationTicks": 122,
          "midi": 57,
          "name": "A3",
          "ticks": 47536,
          "time": 199.95541431250004,
          "velocity": 0.7637795275590551
        },
        {
          "duration": 0.6354150781249928,
          "durationTicks": 244,
          "midi": 56,
          "name": "G#3",
          "ticks": 47664,
          "time": 200.28874681250005,
          "velocity": 0.7637795275590551
        },
        {
          "duration": 0.6354150781249928,
          "durationTicks": 244,
          "midi": 57,
          "name": "A3",
          "ticks": 48176,
          "time": 201.62207681250004,
          "velocity": 0.7637795275590551
        },
        {
          "duration": 0.1588537695312482,
          "durationTicks": 61,
          "midi": 62,
          "name": "D4",
          "ticks": 49776,
          "time": 205.78873306250006,
          "velocity": 0.7637795275590551
        },
        {
          "duration": 0.1588537695312482,
          "durationTicks": 61,
          "midi": 61,
          "name": "C#4",
          "ticks": 49840,
          "time": 205.95539931250005,
          "velocity": 0.7637795275590551
        },
        {
          "duration": 0.1588537695312482,
          "durationTicks": 61,
          "midi": 62,
          "name": "D4",
          "ticks": 49904,
          "time": 206.12206556250004,
          "velocity": 0.7637795275590551
        },
        {
          "duration": 0.16666625000002,
          "durationTicks": 64,
          "midi": 57,
          "name": "A3",
          "ticks": 49968,
          "time": 206.28873181250003,
          "velocity": 0.7637795275590551
        },
        {
          "duration": 0.1510412890625048,
          "durationTicks": 58,
          "midi": 57,
          "name": "A3",
          "ticks": 50032,
          "time": 206.45539806250005,
          "velocity": 0.7637795275590551
        },
        {
          "duration": 0.1588537695312482,
          "durationTicks": 61,
          "midi": 55,
          "name": "G3",
          "ticks": 50096,
          "time": 206.62206431250004,
          "velocity": 0.7637795275590551
        },
        {
          "duration": 0.15885376953121977,
          "durationTicks": 61,
          "midi": 57,
          "name": "A3",
          "ticks": 50160,
          "time": 206.78873056250006,
          "velocity": 0.7637795275590551
        },
        {
          "duration": 0.1588537695312482,
          "durationTicks": 61,
          "midi": 54,
          "name": "F#3",
          "ticks": 50224,
          "time": 206.95539681250006,
          "velocity": 0.7637795275590551
        },
        {
          "duration": 0.1588537695312482,
          "durationTicks": 61,
          "midi": 62,
          "name": "D4",
          "ticks": 50288,
          "time": 207.12206306250005,
          "velocity": 0.7637795275590551
        },
        {
          "duration": 0.1588537695312766,
          "durationTicks": 61,
          "midi": 61,
          "name": "C#4",
          "ticks": 50352,
          "time": 207.28872931250004,
          "velocity": 0.7637795275590551
        },
        {
          "duration": 0.1588537695312766,
          "durationTicks": 61,
          "midi": 62,
          "name": "D4",
          "ticks": 50416,
          "time": 207.45539556250003,
          "velocity": 0.7637795275590551
        },
        {
          "duration": 0.1588537695312482,
          "durationTicks": 61,
          "midi": 55,
          "name": "G3",
          "ticks": 50480,
          "time": 207.62206181250005,
          "velocity": 0.7637795275590551
        },
        {
          "duration": 0.1588537695312482,
          "durationTicks": 61,
          "midi": 65,
          "name": "F4",
          "ticks": 50544,
          "time": 207.78872806250004,
          "velocity": 0.7637795275590551
        },
        {
          "duration": 0.15885376953121977,
          "durationTicks": 61,
          "midi": 63,
          "name": "D#4",
          "ticks": 50608,
          "time": 207.95539431250006,
          "velocity": 0.7637795275590551
        },
        {
          "duration": 0.1588537695312482,
          "durationTicks": 61,
          "midi": 62,
          "name": "D4",
          "ticks": 50672,
          "time": 208.12206056250005,
          "velocity": 0.7637795275590551
        },
        {
          "duration": 0.1588537695312482,
          "durationTicks": 61,
          "midi": 61,
          "name": "C#4",
          "ticks": 50736,
          "time": 208.28872681250004,
          "velocity": 0.7637795275590551
        },
        {
          "duration": 0.1588537695312766,
          "durationTicks": 61,
          "midi": 64,
          "name": "E4",
          "ticks": 50800,
          "time": 208.45539306250004,
          "velocity": 0.7637795275590551
        },
        {
          "duration": 0.1588537695312482,
          "durationTicks": 61,
          "midi": 57,
          "name": "A3",
          "ticks": 50864,
          "time": 208.62205931250006,
          "velocity": 0.7637795275590551
        },
        {
          "duration": 0.1588537695312482,
          "durationTicks": 61,
          "midi": 61,
          "name": "C#4",
          "ticks": 50928,
          "time": 208.78872556250005,
          "velocity": 0.7637795275590551
        },
        {
          "duration": 0.1588537695312482,
          "durationTicks": 61,
          "midi": 50,
          "name": "D3",
          "ticks": 50992,
          "time": 208.95539181250004,
          "velocity": 0.7637795275590551
        },
        {
          "duration": 0.1588537695312482,
          "durationTicks": 61,
          "midi": 63,
          "name": "D#4",
          "ticks": 51056,
          "time": 209.12205806250006,
          "velocity": 0.7637795275590551
        },
        {
          "duration": 0.1588537695312482,
          "durationTicks": 61,
          "midi": 62,
          "name": "D4",
          "ticks": 51120,
          "time": 209.28872431250005,
          "velocity": 0.7637795275590551
        },
        {
          "duration": 0.1588537695312482,
          "durationTicks": 61,
          "midi": 60,
          "name": "C4",
          "ticks": 51184,
          "time": 209.45539056250004,
          "velocity": 0.7637795275590551
        },
        {
          "duration": 0.1588537695312766,
          "durationTicks": 61,
          "midi": 59,
          "name": "B3",
          "ticks": 51248,
          "time": 209.62205681250003,
          "velocity": 0.7637795275590551
        },
        {
          "duration": 0.1588537695312482,
          "durationTicks": 61,
          "midi": 62,
          "name": "D4",
          "ticks": 51312,
          "time": 209.78872306250005,
          "velocity": 0.7637795275590551
        },
        {
          "duration": 0.1588537695312482,
          "durationTicks": 61,
          "midi": 55,
          "name": "G3",
          "ticks": 51376,
          "time": 209.95538931250005,
          "velocity": 0.7637795275590551
        },
        {
          "duration": 0.1588537695312482,
          "durationTicks": 61,
          "midi": 59,
          "name": "B3",
          "ticks": 51440,
          "time": 210.12205556250004,
          "velocity": 0.7637795275590551
        },
        {
          "duration": 0.1588537695312482,
          "durationTicks": 61,
          "midi": 48,
          "name": "C3",
          "ticks": 51504,
          "time": 210.28872181250006,
          "velocity": 0.7637795275590551
        },
        {
          "duration": 0.1588537695312482,
          "durationTicks": 61,
          "midi": 62,
          "name": "D4",
          "ticks": 51568,
          "time": 210.45538806250005,
          "velocity": 0.7637795275590551
        },
        {
          "duration": 0.1588537695312482,
          "durationTicks": 61,
          "midi": 60,
          "name": "C4",
          "ticks": 51632,
          "time": 210.62205431250004,
          "velocity": 0.7637795275590551
        },
        {
          "duration": 0.1588537695312766,
          "durationTicks": 61,
          "midi": 58,
          "name": "A#3",
          "ticks": 51696,
          "time": 210.78872056250003,
          "velocity": 0.7637795275590551
        },
        {
          "duration": 0.1588537695312482,
          "durationTicks": 61,
          "midi": 57,
          "name": "A3",
          "ticks": 51760,
          "time": 210.95538681250005,
          "velocity": 0.7637795275590551
        },
        {
          "duration": 0.1588537695312482,
          "durationTicks": 61,
          "midi": 60,
          "name": "C4",
          "ticks": 51824,
          "time": 211.12205306250004,
          "velocity": 0.7637795275590551
        },
        {
          "duration": 0.15885376953121977,
          "durationTicks": 61,
          "midi": 54,
          "name": "F#3",
          "ticks": 51888,
          "time": 211.28871931250006,
          "velocity": 0.7637795275590551
        },
        {
          "duration": 0.1588537695312482,
          "durationTicks": 61,
          "midi": 57,
          "name": "A3",
          "ticks": 51952,
          "time": 211.45538556250006,
          "velocity": 0.7637795275590551
        },
        {
          "duration": 0.1588537695312482,
          "durationTicks": 61,
          "midi": 50,
          "name": "D3",
          "ticks": 52016,
          "time": 211.62205181250005,
          "velocity": 0.7637795275590551
        },
        {
          "duration": 0.1588537695312766,
          "durationTicks": 61,
          "midi": 60,
          "name": "C4",
          "ticks": 52080,
          "time": 211.78871806250004,
          "velocity": 0.7637795275590551
        },
        {
          "duration": 0.1588537695312482,
          "durationTicks": 61,
          "midi": 58,
          "name": "A#3",
          "ticks": 52144,
          "time": 211.95538431250006,
          "velocity": 0.7637795275590551
        },
        {
          "duration": 0.1588537695312482,
          "durationTicks": 61,
          "midi": 57,
          "name": "A3",
          "ticks": 52208,
          "time": 212.12205056250005,
          "velocity": 0.7637795275590551
        },
        {
          "duration": 0.1588537695312482,
          "durationTicks": 61,
          "midi": 58,
          "name": "A#3",
          "ticks": 52272,
          "time": 212.28871681250004,
          "velocity": 0.7637795275590551
        },
        {
          "duration": 0.15885376953121977,
          "durationTicks": 61,
          "midi": 69,
          "name": "A4",
          "ticks": 52336,
          "time": 212.45538306250006,
          "velocity": 0.7637795275590551
        },
        {
          "duration": 0.1588537695312482,
          "durationTicks": 61,
          "midi": 67,
          "name": "G4",
          "ticks": 52400,
          "time": 212.62204931250005,
          "velocity": 0.7637795275590551
        },
        {
          "duration": 0.1588537695312482,
          "durationTicks": 61,
          "midi": 66,
          "name": "F#4",
          "ticks": 52464,
          "time": 212.78871556250004,
          "velocity": 0.7637795275590551
        },
        {
          "duration": 0.1588537695312766,
          "durationTicks": 61,
          "midi": 67,
          "name": "G4",
          "ticks": 52528,
          "time": 212.95538181250004,
          "velocity": 0.7637795275590551
        },
        {
          "duration": 0.1588537695312482,
          "durationTicks": 61,
          "midi": 58,
          "name": "A#3",
          "ticks": 52592,
          "time": 213.12204806250006,
          "velocity": 0.7637795275590551
        },
        {
          "duration": 0.1588537695312482,
          "durationTicks": 61,
          "midi": 57,
          "name": "A3",
          "ticks": 52656,
          "time": 213.28871431250005,
          "velocity": 0.7637795275590551
        },
        {
          "duration": 0.1588537695312482,
          "durationTicks": 61,
          "midi": 55,
          "name": "G3",
          "ticks": 52720,
          "time": 213.45538056250004,
          "velocity": 0.7637795275590551
        },
        {
          "duration": 0.6354150781249928,
          "durationTicks": 244,
          "midi": 62,
          "name": "D4",
          "ticks": 52784,
          "time": 213.62204681250006,
          "velocity": 0.7637795275590551
        },
        {
          "duration": 0.3177075390624964,
          "durationTicks": 122,
          "midi": 62,
          "name": "D4",
          "ticks": 53168,
          "time": 214.62204431250007,
          "velocity": 0.7637795275590551
        },
        {
          "duration": 0.3177075390624964,
          "durationTicks": 122,
          "midi": 62,
          "name": "D4",
          "ticks": 53296,
          "time": 214.95537681250005,
          "velocity": 0.7637795275590551
        },
        {
          "duration": 0.3177075390625248,
          "durationTicks": 122,
          "midi": 62,
          "name": "D4",
          "ticks": 53424,
          "time": 215.28870931250003,
          "velocity": 0.7637795275590551
        },
        {
          "duration": 0.3177075390624964,
          "durationTicks": 122,
          "midi": 62,
          "name": "D4",
          "ticks": 53552,
          "time": 215.62204181250004,
          "velocity": 0.7637795275590551
        },
        {
          "duration": 0.3177075390624964,
          "durationTicks": 122,
          "midi": 60,
          "name": "C4",
          "ticks": 53680,
          "time": 215.95537431250006,
          "velocity": 0.7637795275590551
        },
        {
          "duration": 0.3177075390624964,
          "durationTicks": 122,
          "midi": 58,
          "name": "A#3",
          "ticks": 53808,
          "time": 216.28870681250004,
          "velocity": 0.7637795275590551
        },
        {
          "duration": 0.3177075390624964,
          "durationTicks": 122,
          "midi": 62,
          "name": "D4",
          "ticks": 53936,
          "time": 216.62203931250005,
          "velocity": 0.7637795275590551
        },
        {
          "duration": 0.3177075390624964,
          "durationTicks": 122,
          "midi": 62,
          "name": "D4",
          "ticks": 54064,
          "time": 216.95537181250006,
          "velocity": 0.7637795275590551
        },
        {
          "duration": 0.3177075390624964,
          "durationTicks": 122,
          "midi": 60,
          "name": "C4",
          "ticks": 54192,
          "time": 217.28870431250004,
          "velocity": 0.7637795275590551
        },
        {
          "duration": 0.3177075390624964,
          "durationTicks": 122,
          "midi": 58,
          "name": "A#3",
          "ticks": 54320,
          "time": 217.62203681250006,
          "velocity": 0.7637795275590551
        },
        {
          "duration": 0.3177075390625248,
          "durationTicks": 122,
          "midi": 62,
          "name": "D4",
          "ticks": 54448,
          "time": 217.95536931250004,
          "velocity": 0.7637795275590551
        },
        {
          "duration": 0.3177075390624964,
          "durationTicks": 122,
          "midi": 62,
          "name": "D4",
          "ticks": 54576,
          "time": 218.28870181250005,
          "velocity": 0.7637795275590551
        },
        {
          "duration": 0.3177075390625248,
          "durationTicks": 122,
          "midi": 60,
          "name": "C4",
          "ticks": 54704,
          "time": 218.62203431250003,
          "velocity": 0.7637795275590551
        },
        {
          "duration": 0.6354150781249928,
          "durationTicks": 244,
          "midi": 58,
          "name": "A#3",
          "ticks": 54832,
          "time": 218.95536681250005,
          "velocity": 0.7637795275590551
        },
        {
          "duration": 0.1588537695312482,
          "durationTicks": 61,
          "midi": 60,
          "name": "C4",
          "ticks": 58480,
          "time": 228.45534306250005,
          "velocity": 0.7637795275590551
        },
        {
          "duration": 0.1588537695312766,
          "durationTicks": 61,
          "midi": 58,
          "name": "A#3",
          "ticks": 58544,
          "time": 228.62200931250004,
          "velocity": 0.7637795275590551
        },
        {
          "duration": 0.1588537695312766,
          "durationTicks": 61,
          "midi": 60,
          "name": "C4",
          "ticks": 58608,
          "time": 228.78867556250003,
          "velocity": 0.7637795275590551
        },
        {
          "duration": 0.1588537695312482,
          "durationTicks": 61,
          "midi": 57,
          "name": "A3",
          "ticks": 58672,
          "time": 228.95534181250005,
          "velocity": 0.7637795275590551
        },
        {
          "duration": 0.1588537695312482,
          "durationTicks": 61,
          "midi": 60,
          "name": "C4",
          "ticks": 58736,
          "time": 229.12200806250004,
          "velocity": 0.7637795275590551
        },
        {
          "duration": 0.15885376953121977,
          "durationTicks": 61,
          "midi": 55,
          "name": "G3",
          "ticks": 58800,
          "time": 229.28867431250006,
          "velocity": 0.7637795275590551
        },
        {
          "duration": 0.1588537695312482,
          "durationTicks": 61,
          "midi": 60,
          "name": "C4",
          "ticks": 58864,
          "time": 229.45534056250006,
          "velocity": 0.7637795275590551
        },
        {
          "duration": 0.1588537695312482,
          "durationTicks": 61,
          "midi": 53,
          "name": "F3",
          "ticks": 58928,
          "time": 229.62200681250005,
          "velocity": 0.7637795275590551
        },
        {
          "duration": 0.1588537695312766,
          "durationTicks": 61,
          "midi": 60,
          "name": "C4",
          "ticks": 58992,
          "time": 229.78867306250004,
          "velocity": 0.7637795275590551
        },
        {
          "duration": 0.1588537695312766,
          "durationTicks": 61,
          "midi": 52,
          "name": "E3",
          "ticks": 59056,
          "time": 229.95533931250003,
          "velocity": 0.7637795275590551
        },
        {
          "duration": 0.1588537695312482,
          "durationTicks": 61,
          "midi": 60,
          "name": "C4",
          "ticks": 59120,
          "time": 230.12200556250005,
          "velocity": 0.7637795275590551
        },
        {
          "duration": 0.15885376953121977,
          "durationTicks": 61,
          "midi": 53,
          "name": "F3",
          "ticks": 59184,
          "time": 230.28867181250007,
          "velocity": 0.7637795275590551
        },
        {
          "duration": 0.15885376953121977,
          "durationTicks": 61,
          "midi": 60,
          "name": "C4",
          "ticks": 59248,
          "time": 230.45533806250006,
          "velocity": 0.7637795275590551
        },
        {
          "duration": 0.1588537695312482,
          "durationTicks": 61,
          "midi": 55,
          "name": "G3",
          "ticks": 59312,
          "time": 230.62200431250005,
          "velocity": 0.7637795275590551
        },
        {
          "duration": 0.1588537695312482,
          "durationTicks": 61,
          "midi": 60,
          "name": "C4",
          "ticks": 59376,
          "time": 230.78867056250004,
          "velocity": 0.7637795275590551
        },
        {
          "duration": 0.1588537695312766,
          "durationTicks": 61,
          "midi": 57,
          "name": "A3",
          "ticks": 59440,
          "time": 230.95533681250004,
          "velocity": 0.7637795275590551
        },
        {
          "duration": 0.1588537695312482,
          "durationTicks": 61,
          "midi": 60,
          "name": "C4",
          "ticks": 59504,
          "time": 231.12200306250006,
          "velocity": 0.7637795275590551
        },
        {
          "duration": 0.1588537695312482,
          "durationTicks": 61,
          "midi": 48,
          "name": "C3",
          "ticks": 59568,
          "time": 231.28866931250005,
          "velocity": 0.7637795275590551
        },
        {
          "duration": 0.15885376953121977,
          "durationTicks": 61,
          "midi": 60,
          "name": "C4",
          "ticks": 59632,
          "time": 231.45533556250007,
          "velocity": 0.7637795275590551
        },
        {
          "duration": 0.15885376953121977,
          "durationTicks": 61,
          "midi": 50,
          "name": "D3",
          "ticks": 59696,
          "time": 231.62200181250006,
          "velocity": 0.7637795275590551
        },
        {
          "duration": 0.1588537695312482,
          "durationTicks": 61,
          "midi": 60,
          "name": "C4",
          "ticks": 59760,
          "time": 231.78866806250005,
          "velocity": 0.7637795275590551
        },
        {
          "duration": 0.1588537695312766,
          "durationTicks": 61,
          "midi": 52,
          "name": "E3",
          "ticks": 59824,
          "time": 231.95533431250004,
          "velocity": 0.7637795275590551
        },
        {
          "duration": 0.1588537695312766,
          "durationTicks": 61,
          "midi": 60,
          "name": "C4",
          "ticks": 59888,
          "time": 232.12200056250003,
          "velocity": 0.7637795275590551
        },
        {
          "duration": 0.1588537695312482,
          "durationTicks": 61,
          "midi": 53,
          "name": "F3",
          "ticks": 59952,
          "time": 232.28866681250005,
          "velocity": 0.7637795275590551
        },
        {
          "duration": 0.1588537695312482,
          "durationTicks": 61,
          "midi": 60,
          "name": "C4",
          "ticks": 60016,
          "time": 232.45533306250005,
          "velocity": 0.7637795275590551
        },
        {
          "duration": 0.15885376953121977,
          "durationTicks": 61,
          "midi": 52,
          "name": "E3",
          "ticks": 60080,
          "time": 232.62199931250007,
          "velocity": 0.7637795275590551
        },
        {
          "duration": 0.1588537695312482,
          "durationTicks": 61,
          "midi": 60,
          "name": "C4",
          "ticks": 60144,
          "time": 232.78866556250006,
          "velocity": 0.7637795275590551
        },
        {
          "duration": 0.1588537695312482,
          "durationTicks": 61,
          "midi": 53,
          "name": "F3",
          "ticks": 60208,
          "time": 232.95533181250005,
          "velocity": 0.7637795275590551
        },
        {
          "duration": 0.1588537695312766,
          "durationTicks": 61,
          "midi": 60,
          "name": "C4",
          "ticks": 60272,
          "time": 233.12199806250004,
          "velocity": 0.7637795275590551
        },
        {
          "duration": 0.1588537695312766,
          "durationTicks": 61,
          "midi": 55,
          "name": "G3",
          "ticks": 60336,
          "time": 233.28866431250003,
          "velocity": 0.7637795275590551
        },
        {
          "duration": 0.1588537695312482,
          "durationTicks": 61,
          "midi": 60,
          "name": "C4",
          "ticks": 60400,
          "time": 233.45533056250005,
          "velocity": 0.7637795275590551
        },
        {
          "duration": 0.6354150781250212,
          "durationTicks": 244,
          "midi": 57,
          "name": "A3",
          "ticks": 60464,
          "time": 233.62199681250004,
          "velocity": 0.7637795275590551
        },
        {
          "duration": 0.1588537695312766,
          "durationTicks": 61,
          "midi": 62,
          "name": "D4",
          "ticks": 74096,
          "time": 269.12190806250004,
          "velocity": 0.7637795275590551
        },
        {
          "duration": 0.1588537695312766,
          "durationTicks": 61,
          "midi": 60,
          "name": "C4",
          "ticks": 74160,
          "time": 269.28857431250003,
          "velocity": 0.7637795275590551
        },
        {
          "duration": 0.15885376953121977,
          "durationTicks": 61,
          "midi": 62,
          "name": "D4",
          "ticks": 74224,
          "time": 269.4552405625001,
          "velocity": 0.7637795275590551
        },
        {
          "duration": 0.15885376953121977,
          "durationTicks": 61,
          "midi": 58,
          "name": "A#3",
          "ticks": 74288,
          "time": 269.6219068125001,
          "velocity": 0.7637795275590551
        },
        {
          "duration": 0.15885376953121977,
          "durationTicks": 61,
          "midi": 60,
          "name": "C4",
          "ticks": 74352,
          "time": 269.78857306250006,
          "velocity": 0.7637795275590551
        },
        {
          "duration": 0.1588537695312766,
          "durationTicks": 61,
          "midi": 58,
          "name": "A#3",
          "ticks": 74416,
          "time": 269.95523931250005,
          "velocity": 0.7637795275590551
        },
        {
          "duration": 0.1588537695312766,
          "durationTicks": 61,
          "midi": 57,
          "name": "A3",
          "ticks": 74480,
          "time": 270.12190556250005,
          "velocity": 0.7637795275590551
        },
        {
          "duration": 0.1588537695312766,
          "durationTicks": 61,
          "midi": 55,
          "name": "G3",
          "ticks": 74544,
          "time": 270.28857181250004,
          "velocity": 0.7637795275590551
        },
        {
          "duration": 0.1588537695312766,
          "durationTicks": 61,
          "midi": 53,
          "name": "F3",
          "ticks": 74608,
          "time": 270.45523806250003,
          "velocity": 0.7637795275590551
        },
        {
          "duration": 0.15885376953121977,
          "durationTicks": 61,
          "midi": 52,
          "name": "E3",
          "ticks": 74672,
          "time": 270.6219043125001,
          "velocity": 0.7637795275590551
        },
        {
          "duration": 0.15885376953121977,
          "durationTicks": 61,
          "midi": 50,
          "name": "D3",
          "ticks": 74736,
          "time": 270.78857056250007,
          "velocity": 0.7637795275590551
        },
        {
          "duration": 0.15885376953121977,
          "durationTicks": 61,
          "midi": 57,
          "name": "A3",
          "ticks": 74800,
          "time": 270.95523681250006,
          "velocity": 0.8818897637795275
        },
        {
          "duration": 0.15885376953121977,
          "durationTicks": 61,
          "midi": 49,
          "name": "C#3",
          "ticks": 74800,
          "time": 270.95523681250006,
          "velocity": 0.8818897637795275
        },
        {
          "duration": 0.1588537695312766,
          "durationTicks": 61,
          "midi": 45,
          "name": "A2",
          "ticks": 74864,
          "time": 271.12190306250005,
          "velocity": 0.8818897637795275
        },
        {
          "duration": 0.1588537695312766,
          "durationTicks": 61,
          "midi": 49,
          "name": "C#3",
          "ticks": 74928,
          "time": 271.28856931250004,
          "velocity": 0.8818897637795275
        },
        {
          "duration": 0.1588537695312766,
          "durationTicks": 61,
          "midi": 52,
          "name": "E3",
          "ticks": 74992,
          "time": 271.45523556250004,
          "velocity": 0.8818897637795275
        },
        {
          "duration": 0.1588537695312766,
          "durationTicks": 61,
          "midi": 55,
          "name": "G3",
          "ticks": 75056,
          "time": 271.6219018125,
          "velocity": 0.8818897637795275
        },
        {
          "duration": 0.15885376953121977,
          "durationTicks": 61,
          "midi": 58,
          "name": "A#3",
          "ticks": 75120,
          "time": 271.7885680625001,
          "velocity": 0.8818897637795275
        },
        {
          "duration": 0.15885376953121977,
          "durationTicks": 61,
          "midi": 55,
          "name": "G3",
          "ticks": 75184,
          "time": 271.95523431250007,
          "velocity": 0.8818897637795275
        },
        {
          "duration": 0.15885376953121977,
          "durationTicks": 61,
          "midi": 52,
          "name": "E3",
          "ticks": 75248,
          "time": 272.12190056250006,
          "velocity": 0.8818897637795275
        },
        {
          "duration": 0.1588537695312766,
          "durationTicks": 61,
          "midi": 50,
          "name": "D3",
          "ticks": 75824,
          "time": 273.62189681250004,
          "velocity": 0.8818897637795275
        },
        {
          "duration": 0.15885376953121977,
          "durationTicks": 61,
          "midi": 45,
          "name": "A2",
          "ticks": 75888,
          "time": 273.7885630625001,
          "velocity": 0.8818897637795275
        },
        {
          "duration": 0.1588537695312766,
          "durationTicks": 61,
          "midi": 50,
          "name": "D3",
          "ticks": 75952,
          "time": 273.9552293125,
          "velocity": 0.8818897637795275
        },
        {
          "duration": 0.15885376953121977,
          "durationTicks": 61,
          "midi": 53,
          "name": "F3",
          "ticks": 76016,
          "time": 274.1218955625001,
          "velocity": 0.8818897637795275
        },
        {
          "duration": 0.15885376953121977,
          "durationTicks": 61,
          "midi": 57,
          "name": "A3",
          "ticks": 76080,
          "time": 274.28856181250006,
          "velocity": 0.8818897637795275
        },
        {
          "duration": 0.15885376953121977,
          "durationTicks": 61,
          "midi": 62,
          "name": "D4",
          "ticks": 76144,
          "time": 274.45522806250005,
          "velocity": 0.8818897637795275
        },
        {
          "duration": 0.1588537695312766,
          "durationTicks": 61,
          "midi": 57,
          "name": "A3",
          "ticks": 76208,
          "time": 274.62189431250005,
          "velocity": 0.8818897637795275
        },
        {
          "duration": 0.1588537695312766,
          "durationTicks": 61,
          "midi": 53,
          "name": "F3",
          "ticks": 76272,
          "time": 274.78856056250004,
          "velocity": 0.8818897637795275
        },
        {
          "duration": 0.1588537695312766,
          "durationTicks": 61,
          "midi": 49,
          "name": "C#3",
          "ticks": 76848,
          "time": 276.2885568125,
          "velocity": 0.8818897637795275
        },
        {
          "duration": 0.15885376953121977,
          "durationTicks": 61,
          "midi": 45,
          "name": "A2",
          "ticks": 76912,
          "time": 276.45522306250007,
          "velocity": 0.8818897637795275
        },
        {
          "duration": 0.1588537695312766,
          "durationTicks": 61,
          "midi": 49,
          "name": "C#3",
          "ticks": 76976,
          "time": 276.62188931250006,
          "velocity": 0.8818897637795275
        },
        {
          "duration": 0.15885376953121977,
          "durationTicks": 61,
          "midi": 52,
          "name": "E3",
          "ticks": 77040,
          "time": 276.78855556250005,
          "velocity": 0.8818897637795275
        },
        {
          "duration": 0.1588537695312766,
          "durationTicks": 61,
          "midi": 55,
          "name": "G3",
          "ticks": 77104,
          "time": 276.95522181250004,
          "velocity": 0.8818897637795275
        },
        {
          "duration": 0.1588537695312766,
          "durationTicks": 61,
          "midi": 58,
          "name": "A#3",
          "ticks": 77168,
          "time": 277.12188806250003,
          "velocity": 0.8818897637795275
        },
        {
          "duration": 0.15885376953121977,
          "durationTicks": 61,
          "midi": 55,
          "name": "G3",
          "ticks": 77232,
          "time": 277.2885543125001,
          "velocity": 0.8818897637795275
        },
        {
          "duration": 0.15885376953121977,
          "durationTicks": 61,
          "midi": 52,
          "name": "E3",
          "ticks": 77296,
          "time": 277.4552205625001,
          "velocity": 0.8818897637795275
        },
        {
          "duration": 0.1588537695312766,
          "durationTicks": 61,
          "midi": 50,
          "name": "D3",
          "ticks": 77872,
          "time": 278.95521681250005,
          "velocity": 0.8818897637795275
        },
        {
          "duration": 0.1588537695312766,
          "durationTicks": 61,
          "midi": 45,
          "name": "A2",
          "ticks": 77936,
          "time": 279.12188306250005,
          "velocity": 0.8818897637795275
        },
        {
          "duration": 0.1588537695312766,
          "durationTicks": 61,
          "midi": 50,
          "name": "D3",
          "ticks": 78000,
          "time": 279.28854931250004,
          "velocity": 0.8818897637795275
        },
        {
          "duration": 0.1588537695312766,
          "durationTicks": 61,
          "midi": 53,
          "name": "F3",
          "ticks": 78064,
          "time": 279.45521556250003,
          "velocity": 0.8818897637795275
        },
        {
          "duration": 0.15885376953121977,
          "durationTicks": 61,
          "midi": 57,
          "name": "A3",
          "ticks": 78128,
          "time": 279.6218818125001,
          "velocity": 0.8818897637795275
        },
        {
          "duration": 0.15885376953121977,
          "durationTicks": 61,
          "midi": 62,
          "name": "D4",
          "ticks": 78192,
          "time": 279.78854806250007,
          "velocity": 0.8818897637795275
        },
        {
          "duration": 0.15885376953121977,
          "durationTicks": 61,
          "midi": 57,
          "name": "A3",
          "ticks": 78256,
          "time": 279.95521431250006,
          "velocity": 0.8818897637795275
        },
        {
          "duration": 0.1588537695312766,
          "durationTicks": 61,
          "midi": 53,
          "name": "F3",
          "ticks": 78320,
          "time": 280.12188056250005,
          "velocity": 0.8818897637795275
        },
        {
          "duration": 0.1588537695312766,
          "durationTicks": 61,
          "midi": 52,
          "name": "E3",
          "ticks": 78896,
          "time": 281.62187681250003,
          "velocity": 0.8818897637795275
        },
        {
          "duration": 0.1588537695312766,
          "durationTicks": 61,
          "midi": 49,
          "name": "C#3",
          "ticks": 78960,
          "time": 281.7885430625,
          "velocity": 0.8818897637795275
        },
        {
          "duration": 0.15885376953121977,
          "durationTicks": 61,
          "midi": 52,
          "name": "E3",
          "ticks": 79024,
          "time": 281.9552093125001,
          "velocity": 0.8818897637795275
        },
        {
          "duration": 0.15885376953121977,
          "durationTicks": 61,
          "midi": 55,
          "name": "G3",
          "ticks": 79088,
          "time": 282.12187556250007,
          "velocity": 0.8818897637795275
        },
        {
          "duration": 0.15885376953121977,
          "durationTicks": 61,
          "midi": 58,
          "name": "A#3",
          "ticks": 79152,
          "time": 282.28854181250006,
          "velocity": 0.8818897637795275
        },
        {
          "duration": 0.1588537695312766,
          "durationTicks": 61,
          "midi": 61,
          "name": "C#4",
          "ticks": 79216,
          "time": 282.45520806250005,
          "velocity": 0.8818897637795275
        },
        {
          "duration": 0.1588537695312766,
          "durationTicks": 61,
          "midi": 58,
          "name": "A#3",
          "ticks": 79280,
          "time": 282.62187431250004,
          "velocity": 0.8818897637795275
        },
        {
          "duration": 0.15885376953121977,
          "durationTicks": 61,
          "midi": 55,
          "name": "G3",
          "ticks": 79344,
          "time": 282.7885405625001,
          "velocity": 0.8818897637795275
        },
        {
          "duration": 0.15885376953121977,
          "durationTicks": 61,
          "midi": 53,
          "name": "F3",
          "ticks": 79920,
          "time": 284.28853681250007,
          "velocity": 0.8818897637795275
        },
        {
          "duration": 0.1588537695312766,
          "durationTicks": 61,
          "midi": 50,
          "name": "D3",
          "ticks": 79984,
          "time": 284.45520306250006,
          "velocity": 0.8818897637795275
        },
        {
          "duration": 0.15885376953121977,
          "durationTicks": 61,
          "midi": 53,
          "name": "F3",
          "ticks": 80048,
          "time": 284.62186931250005,
          "velocity": 0.8818897637795275
        },
        {
          "duration": 0.1588537695312766,
          "durationTicks": 61,
          "midi": 57,
          "name": "A3",
          "ticks": 80112,
          "time": 284.78853556250004,
          "velocity": 0.8818897637795275
        },
        {
          "duration": 0.15885376953121977,
          "durationTicks": 61,
          "midi": 52,
          "name": "E3",
          "ticks": 80944,
          "time": 286.95519681250005,
          "velocity": 0.8818897637795275
        },
        {
          "duration": 0.15885376953121977,
          "durationTicks": 61,
          "midi": 49,
          "name": "C#3",
          "ticks": 81008,
          "time": 287.1218630625001,
          "velocity": 0.8818897637795275
        },
        {
          "duration": 0.1588537695312766,
          "durationTicks": 61,
          "midi": 52,
          "name": "E3",
          "ticks": 81072,
          "time": 287.28852931250003,
          "velocity": 0.8818897637795275
        },
        {
          "duration": 0.15885376953121977,
          "durationTicks": 61,
          "midi": 55,
          "name": "G3",
          "ticks": 81136,
          "time": 287.4551955625001,
          "velocity": 0.8818897637795275
        },
        {
          "duration": 0.1588537695312766,
          "durationTicks": 61,
          "midi": 58,
          "name": "A#3",
          "ticks": 81200,
          "time": 287.6218618125,
          "velocity": 0.8818897637795275
        },
        {
          "duration": 0.15885376953121977,
          "durationTicks": 61,
          "midi": 61,
          "name": "C#4",
          "ticks": 81264,
          "time": 287.78852806250006,
          "velocity": 0.8818897637795275
        },
        {
          "duration": 0.1588537695312766,
          "durationTicks": 61,
          "midi": 58,
          "name": "A#3",
          "ticks": 81328,
          "time": 287.95519431250005,
          "velocity": 0.8818897637795275
        },
        {
          "duration": 0.15885376953121977,
          "durationTicks": 61,
          "midi": 55,
          "name": "G3",
          "ticks": 81392,
          "time": 288.12186056250005,
          "velocity": 0.8818897637795275
        },
        {
          "duration": 0.1588537695312766,
          "durationTicks": 61,
          "midi": 53,
          "name": "F3",
          "ticks": 81968,
          "time": 289.6218568125,
          "velocity": 0.8818897637795275
        },
        {
          "duration": 0.15885376953121977,
          "durationTicks": 61,
          "midi": 50,
          "name": "D3",
          "ticks": 82032,
          "time": 289.7885230625001,
          "velocity": 0.8818897637795275
        },
        {
          "duration": 0.1588537695312766,
          "durationTicks": 61,
          "midi": 53,
          "name": "F3",
          "ticks": 82096,
          "time": 289.95518931250007,
          "velocity": 0.8818897637795275
        },
        {
          "duration": 0.15885376953121977,
          "durationTicks": 61,
          "midi": 57,
          "name": "A3",
          "ticks": 82160,
          "time": 290.12185556250006,
          "velocity": 0.8818897637795275
        },
        {
          "duration": 0.1588537695312766,
          "durationTicks": 61,
          "midi": 55,
          "name": "G3",
          "ticks": 82992,
          "time": 292.28851681250006,
          "velocity": 0.8818897637795275
        },
        {
          "duration": 0.15885376953121977,
          "durationTicks": 61,
          "midi": 52,
          "name": "E3",
          "ticks": 83056,
          "time": 292.45518306250005,
          "velocity": 0.8818897637795275
        },
        {
          "duration": 0.1588537695312766,
          "durationTicks": 61,
          "midi": 55,
          "name": "G3",
          "ticks": 83120,
          "time": 292.62184931250005,
          "velocity": 0.8818897637795275
        },
        {
          "duration": 0.1588537695312766,
          "durationTicks": 61,
          "midi": 58,
          "name": "A#3",
          "ticks": 83184,
          "time": 292.78851556250004,
          "velocity": 0.8818897637795275
        },
        {
          "duration": 0.1588537695312766,
          "durationTicks": 61,
          "midi": 57,
          "name": "A3",
          "ticks": 84016,
          "time": 294.95517681250004,
          "velocity": 0.8818897637795275
        },
        {
          "duration": 0.1588537695312766,
          "durationTicks": 61,
          "midi": 53,
          "name": "F3",
          "ticks": 84080,
          "time": 295.12184306250003,
          "velocity": 0.8818897637795275
        },
        {
          "duration": 0.15885376953121977,
          "durationTicks": 61,
          "midi": 57,
          "name": "A3",
          "ticks": 84144,
          "time": 295.2885093125001,
          "velocity": 0.8818897637795275
        },
        {
          "duration": 0.1588537695312766,
          "durationTicks": 61,
          "midi": 61,
          "name": "C#4",
          "ticks": 84208,
          "time": 295.4551755625,
          "velocity": 0.8818897637795275
        },
        {
          "duration": 0.15885376953121977,
          "durationTicks": 61,
          "midi": 57,
          "name": "A3",
          "ticks": 84464,
          "time": 296.1218405625001,
          "velocity": 0.8818897637795275
        },
        {
          "duration": 0.1588537695312766,
          "durationTicks": 61,
          "midi": 58,
          "name": "A#3",
          "ticks": 84528,
          "time": 296.28850681250003,
          "velocity": 0.8818897637795275
        },
        {
          "duration": 0.15885376953121977,
          "durationTicks": 61,
          "midi": 55,
          "name": "G3",
          "ticks": 84720,
          "time": 296.78850556250006,
          "velocity": 0.8818897637795275
        },
        {
          "duration": 0.1588537695312766,
          "durationTicks": 61,
          "midi": 53,
          "name": "F3",
          "ticks": 84784,
          "time": 296.95517181250005,
          "velocity": 0.8818897637795275
        },
        {
          "duration": 0.15885376953121977,
          "durationTicks": 61,
          "midi": 57,
          "name": "A3",
          "ticks": 84848,
          "time": 297.12183806250005,
          "velocity": 0.8818897637795275
        },
        {
          "duration": 0.15885376953121977,
          "durationTicks": 61,
          "midi": 53,
          "name": "F3",
          "ticks": 84912,
          "time": 297.2885043125001,
          "velocity": 0.8818897637795275
        },
        {
          "duration": 0.1588537695312766,
          "durationTicks": 61,
          "midi": 50,
          "name": "D3",
          "ticks": 84976,
          "time": 297.45517056250003,
          "velocity": 0.8818897637795275
        },
        {
          "duration": 0.15885376953121977,
          "durationTicks": 61,
          "midi": 45,
          "name": "A2",
          "ticks": 85040,
          "time": 297.6218368125001,
          "velocity": 0.8818897637795275
        },
        {
          "duration": 0.1588537695312766,
          "durationTicks": 61,
          "midi": 50,
          "name": "D3",
          "ticks": 85104,
          "time": 297.78850306250007,
          "velocity": 0.8818897637795275
        },
        {
          "duration": 0.15885376953121977,
          "durationTicks": 61,
          "midi": 45,
          "name": "A2",
          "ticks": 85168,
          "time": 297.95516931250006,
          "velocity": 0.8818897637795275
        },
        {
          "duration": 0.1588537695312766,
          "durationTicks": 61,
          "midi": 41,
          "name": "F2",
          "ticks": 85232,
          "time": 298.12183556250005,
          "velocity": 0.8818897637795275
        },
        {
          "duration": 0.15885376953121977,
          "durationTicks": 61,
          "midi": 38,
          "name": "D2",
          "ticks": 85296,
          "time": 298.28850181250004,
          "velocity": 0.8818897637795275
        },
        {
          "duration": 0.15885376953121977,
          "durationTicks": 61,
          "midi": 50,
          "name": "D3",
          "ticks": 85360,
          "time": 298.4551680625001,
          "velocity": 0.8818897637795275
        },
        {
          "duration": 0.1588537695312766,
          "durationTicks": 61,
          "midi": 49,
          "name": "C#3",
          "ticks": 85424,
          "time": 298.6218343125,
          "velocity": 0.8818897637795275
        },
        {
          "duration": 0.15885376953121977,
          "durationTicks": 61,
          "midi": 47,
          "name": "B2",
          "ticks": 85488,
          "time": 298.7885005625001,
          "velocity": 0.8818897637795275
        },
        {
          "duration": 0.1588537695312766,
          "durationTicks": 61,
          "midi": 49,
          "name": "C#3",
          "ticks": 85552,
          "time": 298.95516681250007,
          "velocity": 0.8818897637795275
        },
        {
          "duration": 0.15885376953121977,
          "durationTicks": 61,
          "midi": 58,
          "name": "A#3",
          "ticks": 85616,
          "time": 299.12183306250006,
          "velocity": 0.8818897637795275
        },
        {
          "duration": 0.1588537695312766,
          "durationTicks": 61,
          "midi": 57,
          "name": "A3",
          "ticks": 85680,
          "time": 299.28849931250005,
          "velocity": 0.8818897637795275
        },
        {
          "duration": 0.1588537695312766,
          "durationTicks": 61,
          "midi": 55,
          "name": "G3",
          "ticks": 85744,
          "time": 299.45516556250004,
          "velocity": 0.8818897637795275
        },
        {
          "duration": 0.15885376953121977,
          "durationTicks": 61,
          "midi": 53,
          "name": "F3",
          "ticks": 85808,
          "time": 299.6218318125001,
          "velocity": 0.8818897637795275
        },
        {
          "duration": 0.1588537695312766,
          "durationTicks": 61,
          "midi": 55,
          "name": "G3",
          "ticks": 85872,
          "time": 299.7884980625,
          "velocity": 0.8818897637795275
        },
        {
          "duration": 0.15885376953121977,
          "durationTicks": 61,
          "midi": 53,
          "name": "F3",
          "ticks": 85936,
          "time": 299.9551643125001,
          "velocity": 0.8818897637795275
        },
        {
          "duration": 0.1588537695312766,
          "durationTicks": 61,
          "midi": 52,
          "name": "E3",
          "ticks": 86000,
          "time": 300.12183056250007,
          "velocity": 0.8818897637795275
        },
        {
          "duration": 0.15885376953121977,
          "durationTicks": 61,
          "midi": 50,
          "name": "D3",
          "ticks": 86064,
          "time": 300.28849681250006,
          "velocity": 0.8818897637795275
        },
        {
          "duration": 0.1588537695312766,
          "durationTicks": 61,
          "midi": 58,
          "name": "A#3",
          "ticks": 86128,
          "time": 300.45516306250005,
          "velocity": 0.8818897637795275
        },
        {
          "duration": 0.1588537695312766,
          "durationTicks": 61,
          "midi": 57,
          "name": "A3",
          "ticks": 86192,
          "time": 300.62182931250004,
          "velocity": 0.8818897637795275
        },
        {
          "duration": 0.15885376953121977,
          "durationTicks": 61,
          "midi": 55,
          "name": "G3",
          "ticks": 86256,
          "time": 300.7884955625001,
          "velocity": 0.8818897637795275
        },
        {
          "duration": 0.1588537695312766,
          "durationTicks": 61,
          "midi": 53,
          "name": "F3",
          "ticks": 86320,
          "time": 300.9551618125,
          "velocity": 0.8818897637795275
        },
        {
          "duration": 0.15885376953121977,
          "durationTicks": 61,
          "midi": 55,
          "name": "G3",
          "ticks": 86384,
          "time": 301.1218280625001,
          "velocity": 0.8818897637795275
        },
        {
          "duration": 0.1588537695312766,
          "durationTicks": 61,
          "midi": 53,
          "name": "F3",
          "ticks": 86448,
          "time": 301.28849431250006,
          "velocity": 0.8818897637795275
        },
        {
          "duration": 0.15885376953121977,
          "durationTicks": 61,
          "midi": 52,
          "name": "E3",
          "ticks": 86512,
          "time": 301.45516056250005,
          "velocity": 0.8818897637795275
        },
        {
          "duration": 0.1588537695312766,
          "durationTicks": 61,
          "midi": 50,
          "name": "D3",
          "ticks": 86576,
          "time": 301.62182681250005,
          "velocity": 0.8818897637795275
        },
        {
          "duration": 0.08072896484372905,
          "durationTicks": 31,
          "midi": 52,
          "name": "E3",
          "ticks": 86640,
          "time": 301.78849306250004,
          "velocity": 0.8818897637795275
        },
        {
          "duration": 0.08072896484378589,
          "durationTicks": 31,
          "midi": 53,
          "name": "F3",
          "ticks": 86672,
          "time": 301.87182618750006,
          "velocity": 0.8818897637795275
        },
        {
          "duration": 0.08072896484372905,
          "durationTicks": 31,
          "midi": 55,
          "name": "G3",
          "ticks": 86704,
          "time": 301.9551593125001,
          "velocity": 0.8818897637795275
        },
        {
          "duration": 0.08072896484372905,
          "durationTicks": 31,
          "midi": 57,
          "name": "A3",
          "ticks": 86736,
          "time": 302.03849243750005,
          "velocity": 0.8818897637795275
        },
        {
          "duration": 0.08072896484378589,
          "durationTicks": 31,
          "midi": 59,
          "name": "B3",
          "ticks": 86768,
          "time": 302.1218255625,
          "velocity": 0.8818897637795275
        },
        {
          "duration": 0.08072896484378589,
          "durationTicks": 31,
          "midi": 61,
          "name": "C#4",
          "ticks": 86800,
          "time": 302.20515868750005,
          "velocity": 0.8818897637795275
        },
        {
          "duration": 0.15885376953121977,
          "durationTicks": 61,
          "midi": 62,
          "name": "D4",
          "ticks": 86832,
          "time": 302.28849181250007,
          "velocity": 0.8818897637795275
        },
        {
          "duration": 0.1588537695312766,
          "durationTicks": 61,
          "midi": 57,
          "name": "A3",
          "ticks": 87088,
          "time": 302.95515681250004,
          "velocity": 0.8818897637795275
        },
        {
          "duration": 0.08072896484372905,
          "durationTicks": 31,
          "midi": 59,
          "name": "B3",
          "ticks": 87152,
          "time": 303.1218230625001,
          "velocity": 0.8818897637795275
        },
        {
          "duration": 0.08072896484372905,
          "durationTicks": 31,
          "midi": 61,
          "name": "C#4",
          "ticks": 87184,
          "time": 303.20515618750005,
          "velocity": 0.8818897637795275
        },
        {
          "duration": 0.08072896484378589,
          "durationTicks": 31,
          "midi": 62,
          "name": "D4",
          "ticks": 87216,
          "time": 303.2884893125,
          "velocity": 0.8818897637795275
        },
        {
          "duration": 0.08072896484378589,
          "durationTicks": 31,
          "midi": 64,
          "name": "E4",
          "ticks": 87248,
          "time": 303.37182243750004,
          "velocity": 0.8818897637795275
        },
        {
          "duration": 0.08072896484372905,
          "durationTicks": 31,
          "midi": 65,
          "name": "F4",
          "ticks": 87280,
          "time": 303.45515556250007,
          "velocity": 0.8818897637795275
        },
        {
          "duration": 0.08072896484372905,
          "durationTicks": 31,
          "midi": 67,
          "name": "G4",
          "ticks": 87312,
          "time": 303.53848868750003,
          "velocity": 0.8818897637795275
        },
        {
          "duration": 0.1588537695312766,
          "durationTicks": 61,
          "midi": 69,
          "name": "A4",
          "ticks": 87344,
          "time": 303.62182181250006,
          "velocity": 0.8818897637795275
        },
        {
          "duration": 0.15885376953121977,
          "durationTicks": 61,
          "midi": 67,
          "name": "G4",
          "ticks": 87408,
          "time": 303.78848806250005,
          "velocity": 0.8818897637795275
        },
        {
          "duration": 0.15885376953121977,
          "durationTicks": 61,
          "midi": 65,
          "name": "F4",
          "ticks": 87472,
          "time": 303.9551543125001,
          "velocity": 0.8818897637795275
        },
        {
          "duration": 0.1588537695312766,
          "durationTicks": 61,
          "midi": 64,
          "name": "E4",
          "ticks": 87536,
          "time": 304.12182056250003,
          "velocity": 0.8818897637795275
        },
        {
          "duration": 0.31770753906243954,
          "durationTicks": 122,
          "midi": 65,
          "name": "F4",
          "ticks": 87600,
          "time": 304.2884868125001,
          "velocity": 0.8818897637795275
        },
        {
          "duration": 0.15885376953121977,
          "durationTicks": 61,
          "midi": 63,
          "name": "D#4",
          "ticks": 87920,
          "time": 305.1218180625001,
          "velocity": 0.8818897637795275
        },
        {
          "duration": 0.1588537695312766,
          "durationTicks": 61,
          "midi": 62,
          "name": "D4",
          "ticks": 87984,
          "time": 305.28848431250003,
          "velocity": 0.8818897637795275
        },
        {
          "duration": 0.15885376953121977,
          "durationTicks": 61,
          "midi": 60,
          "name": "C4",
          "ticks": 88048,
          "time": 305.4551505625001,
          "velocity": 0.8818897637795275
        },
        {
          "duration": 0.3177075390625532,
          "durationTicks": 122,
          "midi": 58,
          "name": "A#3",
          "ticks": 88112,
          "time": 305.6218168125,
          "velocity": 0.8818897637795275
        },
        {
          "duration": 0.3177075390624964,
          "durationTicks": 122,
          "midi": 59,
          "name": "B3",
          "ticks": 88240,
          "time": 305.95514931250005,
          "velocity": 0.8818897637795275
        },
        {
          "duration": 0.31770753906243954,
          "durationTicks": 122,
          "midi": 60,
          "name": "C4",
          "ticks": 88368,
          "time": 306.2884818125001,
          "velocity": 0.8818897637795275
        },
        {
          "duration": 0.31770753906243954,
          "durationTicks": 122,
          "midi": 67,
          "name": "G4",
          "ticks": 88496,
          "time": 306.6218143125001,
          "velocity": 0.8818897637795275
        },
        {
          "duration": 0.06510400390624227,
          "durationTicks": 25,
          "midi": 69,
          "name": "A4",
          "ticks": 88624,
          "time": 306.95514681250006,
          "velocity": 0.8818897637795275
        },
        {
          "duration": 0.06510400390629911,
          "durationTicks": 25,
          "midi": 67,
          "name": "G4",
          "ticks": 88656,
          "time": 307.03847993750003,
          "velocity": 0.8818897637795275
        },
        {
          "duration": 0.06510400390624227,
          "durationTicks": 25,
          "midi": 69,
          "name": "A4",
          "ticks": 88688,
          "time": 307.12181306250005,
          "velocity": 0.8818897637795275
        },
        {
          "duration": 0.06510400390624227,
          "durationTicks": 25,
          "midi": 67,
          "name": "G4",
          "ticks": 88720,
          "time": 307.2051461875001,
          "velocity": 0.8818897637795275
        },
        {
          "duration": 0.06510400390629911,
          "durationTicks": 25,
          "midi": 69,
          "name": "A4",
          "ticks": 88752,
          "time": 307.28847931250004,
          "velocity": 0.8818897637795275
        },
        {
          "duration": 0.06510400390624227,
          "durationTicks": 25,
          "midi": 67,
          "name": "G4",
          "ticks": 88784,
          "time": 307.37181243750007,
          "velocity": 0.8818897637795275
        },
        {
          "duration": 0.06510400390618543,
          "durationTicks": 25,
          "midi": 69,
          "name": "A4",
          "ticks": 88816,
          "time": 307.4551455625001,
          "velocity": 0.8818897637795275
        },
        {
          "duration": 0.06510400390624227,
          "durationTicks": 25,
          "midi": 67,
          "name": "G4",
          "ticks": 88848,
          "time": 307.53847868750006,
          "velocity": 0.8818897637795275
        },
        {
          "duration": 0.06510400390629911,
          "durationTicks": 25,
          "midi": 69,
          "name": "A4",
          "ticks": 88880,
          "time": 307.6218118125,
          "velocity": 0.8818897637795275
        },
        {
          "duration": 0.06510400390624227,
          "durationTicks": 25,
          "midi": 67,
          "name": "G4",
          "ticks": 88912,
          "time": 307.70514493750005,
          "velocity": 0.8818897637795275
        },
        {
          "duration": 0.06510400390624227,
          "durationTicks": 25,
          "midi": 69,
          "name": "A4",
          "ticks": 88944,
          "time": 307.7884780625001,
          "velocity": 0.8818897637795275
        },
        {
          "duration": 0.06510400390629911,
          "durationTicks": 25,
          "midi": 67,
          "name": "G4",
          "ticks": 88976,
          "time": 307.87181118750004,
          "velocity": 0.8818897637795275
        },
        {
          "duration": 0.06510400390624227,
          "durationTicks": 25,
          "midi": 69,
          "name": "A4",
          "ticks": 89008,
          "time": 307.95514431250007,
          "velocity": 0.8818897637795275
        },
        {
          "duration": 0.06510400390618543,
          "durationTicks": 25,
          "midi": 67,
          "name": "G4",
          "ticks": 89040,
          "time": 308.0384774375001,
          "velocity": 0.8818897637795275
        },
        {
          "duration": 0.06510400390624227,
          "durationTicks": 25,
          "midi": 69,
          "name": "A4",
          "ticks": 89072,
          "time": 308.12181056250006,
          "velocity": 0.8818897637795275
        },
        {
          "duration": 0.06510400390629911,
          "durationTicks": 25,
          "midi": 67,
          "name": "G4",
          "ticks": 89104,
          "time": 308.2051436875,
          "velocity": 0.8818897637795275
        },
        {
          "duration": 0.06510400390624227,
          "durationTicks": 25,
          "midi": 69,
          "name": "A4",
          "ticks": 89136,
          "time": 308.28847681250005,
          "velocity": 0.8818897637795275
        },
        {
          "duration": 0.06510400390624227,
          "durationTicks": 25,
          "midi": 67,
          "name": "G4",
          "ticks": 89168,
          "time": 308.3718099375001,
          "velocity": 0.8818897637795275
        },
        {
          "duration": 0.06510400390629911,
          "durationTicks": 25,
          "midi": 69,
          "name": "A4",
          "ticks": 89200,
          "time": 308.45514306250004,
          "velocity": 0.8818897637795275
        },
        {
          "duration": 0.06510400390624227,
          "durationTicks": 25,
          "midi": 67,
          "name": "G4",
          "ticks": 89232,
          "time": 308.53847618750007,
          "velocity": 0.8818897637795275
        },
        {
          "duration": 0.06510400390618543,
          "durationTicks": 25,
          "midi": 69,
          "name": "A4",
          "ticks": 89264,
          "time": 308.6218093125001,
          "velocity": 0.8818897637795275
        },
        {
          "duration": 0.06510400390624227,
          "durationTicks": 25,
          "midi": 67,
          "name": "G4",
          "ticks": 89296,
          "time": 308.70514243750006,
          "velocity": 0.8818897637795275
        },
        {
          "duration": 0.06510400390629911,
          "durationTicks": 25,
          "midi": 69,
          "name": "A4",
          "ticks": 89328,
          "time": 308.7884755625,
          "velocity": 0.8818897637795275
        },
        {
          "duration": 0.06510400390624227,
          "durationTicks": 25,
          "midi": 67,
          "name": "G4",
          "ticks": 89360,
          "time": 308.87180868750005,
          "velocity": 0.8818897637795275
        },
        {
          "duration": 0.06510400390624227,
          "durationTicks": 25,
          "midi": 69,
          "name": "A4",
          "ticks": 89392,
          "time": 308.9551418125001,
          "velocity": 0.8818897637795275
        },
        {
          "duration": 0.06510400390629911,
          "durationTicks": 25,
          "midi": 67,
          "name": "G4",
          "ticks": 89424,
          "time": 309.03847493750004,
          "velocity": 0.8818897637795275
        },
        {
          "duration": 0.06510400390624227,
          "durationTicks": 25,
          "midi": 69,
          "name": "A4",
          "ticks": 89456,
          "time": 309.12180806250007,
          "velocity": 0.8818897637795275
        },
        {
          "duration": 0.06510400390618543,
          "durationTicks": 25,
          "midi": 67,
          "name": "G4",
          "ticks": 89488,
          "time": 309.2051411875001,
          "velocity": 0.8818897637795275
        },
        {
          "duration": 0.06510400390624227,
          "durationTicks": 25,
          "midi": 69,
          "name": "A4",
          "ticks": 89520,
          "time": 309.28847431250006,
          "velocity": 0.8818897637795275
        },
        {
          "duration": 0.06510400390629911,
          "durationTicks": 25,
          "midi": 67,
          "name": "G4",
          "ticks": 89552,
          "time": 309.3718074375,
          "velocity": 0.8818897637795275
        },
        {
          "duration": 0.06510400390624227,
          "durationTicks": 25,
          "midi": 69,
          "name": "A4",
          "ticks": 89584,
          "time": 309.45514056250005,
          "velocity": 0.8818897637795275
        },
        {
          "duration": 0.06510400390624227,
          "durationTicks": 25,
          "midi": 67,
          "name": "G4",
          "ticks": 89616,
          "time": 309.5384736875001,
          "velocity": 0.8818897637795275
        },
        {
          "duration": 0.06510400390629911,
          "durationTicks": 25,
          "midi": 69,
          "name": "A4",
          "ticks": 89648,
          "time": 309.62180681250004,
          "velocity": 0.8818897637795275
        },
        {
          "duration": 0.06510400390624227,
          "durationTicks": 25,
          "midi": 67,
          "name": "G4",
          "ticks": 89680,
          "time": 309.70513993750006,
          "velocity": 0.8818897637795275
        },
        {
          "duration": 0.06510400390618543,
          "durationTicks": 25,
          "midi": 69,
          "name": "A4",
          "ticks": 89712,
          "time": 309.7884730625001,
          "velocity": 0.8818897637795275
        },
        {
          "duration": 0.06510400390624227,
          "durationTicks": 25,
          "midi": 67,
          "name": "G4",
          "ticks": 89744,
          "time": 309.87180618750006,
          "velocity": 0.8818897637795275
        },
        {
          "duration": 0.06510400390629911,
          "durationTicks": 25,
          "midi": 69,
          "name": "A4",
          "ticks": 89776,
          "time": 309.9551393125,
          "velocity": 0.8818897637795275
        },
        {
          "duration": 0.06510400390624227,
          "durationTicks": 25,
          "midi": 67,
          "name": "G4",
          "ticks": 89808,
          "time": 310.03847243750005,
          "velocity": 0.8818897637795275
        },
        {
          "duration": 0.06510400390624227,
          "durationTicks": 25,
          "midi": 69,
          "name": "A4",
          "ticks": 89840,
          "time": 310.12180556250007,
          "velocity": 0.8818897637795275
        },
        {
          "duration": 0.06510400390629911,
          "durationTicks": 25,
          "midi": 67,
          "name": "G4",
          "ticks": 89872,
          "time": 310.20513868750004,
          "velocity": 0.8818897637795275
        },
        {
          "duration": 0.06510400390624227,
          "durationTicks": 25,
          "midi": 69,
          "name": "A4",
          "ticks": 89904,
          "time": 310.28847181250006,
          "velocity": 0.8818897637795275
        },
        {
          "duration": 0.06510400390618543,
          "durationTicks": 25,
          "midi": 67,
          "name": "G4",
          "ticks": 89936,
          "time": 310.3718049375001,
          "velocity": 0.8818897637795275
        },
        {
          "duration": 0.06510400390624227,
          "durationTicks": 25,
          "midi": 69,
          "name": "A4",
          "ticks": 89968,
          "time": 310.45513806250005,
          "velocity": 0.8818897637795275
        },
        {
          "duration": 0.06510400390629911,
          "durationTicks": 25,
          "midi": 67,
          "name": "G4",
          "ticks": 90000,
          "time": 310.5384711875,
          "velocity": 0.8818897637795275
        },
        {
          "duration": 0.06510400390624227,
          "durationTicks": 25,
          "midi": 69,
          "name": "A4",
          "ticks": 90032,
          "time": 310.62180431250005,
          "velocity": 0.8818897637795275
        },
        {
          "duration": 0.06510400390624227,
          "durationTicks": 25,
          "midi": 67,
          "name": "G4",
          "ticks": 90064,
          "time": 310.70513743750007,
          "velocity": 0.8818897637795275
        },
        {
          "duration": 0.06510400390629911,
          "durationTicks": 25,
          "midi": 69,
          "name": "A4",
          "ticks": 90096,
          "time": 310.78847056250004,
          "velocity": 0.8818897637795275
        },
        {
          "duration": 0.06510400390624227,
          "durationTicks": 25,
          "midi": 67,
          "name": "G4",
          "ticks": 90128,
          "time": 310.87180368750006,
          "velocity": 0.8818897637795275
        },
        {
          "duration": 0.15885376953121977,
          "durationTicks": 61,
          "midi": 67,
          "name": "G4",
          "ticks": 90160,
          "time": 310.9551368125001,
          "velocity": 0.8818897637795275
        },
        {
          "duration": 0.1588537695312766,
          "durationTicks": 61,
          "midi": 67,
          "name": "G4",
          "ticks": 90224,
          "time": 311.1218030625,
          "velocity": 0.8818897637795275
        },
        {
          "duration": 0.15885376953121977,
          "durationTicks": 61,
          "midi": 65,
          "name": "F4",
          "ticks": 90288,
          "time": 311.28846931250007,
          "velocity": 0.8818897637795275
        },
        {
          "duration": 0.1588537695312766,
          "durationTicks": 61,
          "midi": 67,
          "name": "G4",
          "ticks": 90352,
          "time": 311.45513556250006,
          "velocity": 0.8818897637795275
        },
        {
          "duration": 0.15885376953121977,
          "durationTicks": 61,
          "midi": 63,
          "name": "D#4",
          "ticks": 90416,
          "time": 311.62180181250005,
          "velocity": 0.8818897637795275
        },
        {
          "duration": 0.1588537695312766,
          "durationTicks": 61,
          "midi": 67,
          "name": "G4",
          "ticks": 90480,
          "time": 311.78846806250004,
          "velocity": 0.8818897637795275
        },
        {
          "duration": 0.1588537695312766,
          "durationTicks": 61,
          "midi": 62,
          "name": "D4",
          "ticks": 90544,
          "time": 311.95513431250004,
          "velocity": 0.8818897637795275
        },
        {
          "duration": 0.15885376953121977,
          "durationTicks": 61,
          "midi": 67,
          "name": "G4",
          "ticks": 90608,
          "time": 312.1218005625001,
          "velocity": 0.8818897637795275
        },
        {
          "duration": 0.1588537695312766,
          "durationTicks": 61,
          "midi": 60,
          "name": "C4",
          "ticks": 90672,
          "time": 312.2884668125,
          "velocity": 0.8818897637795275
        },
        {
          "duration": 0.15885376953121977,
          "durationTicks": 61,
          "midi": 67,
          "name": "G4",
          "ticks": 90736,
          "time": 312.45513306250007,
          "velocity": 0.8818897637795275
        },
        {
          "duration": 0.1588537695312766,
          "durationTicks": 61,
          "midi": 59,
          "name": "B3",
          "ticks": 90800,
          "time": 312.62179931250006,
          "velocity": 0.8818897637795275
        },
        {
          "duration": 0.15885376953121977,
          "durationTicks": 61,
          "midi": 67,
          "name": "G4",
          "ticks": 90864,
          "time": 312.78846556250005,
          "velocity": 0.8818897637795275
        },
        {
          "duration": 0.15885376953121977,
          "durationTicks": 61,
          "midi": 60,
          "name": "C4",
          "ticks": 90928,
          "time": 312.9551318125001,
          "velocity": 0.8818897637795275
        },
        {
          "duration": 0.1588537695312766,
          "durationTicks": 61,
          "midi": 67,
          "name": "G4",
          "ticks": 90992,
          "time": 313.12179806250003,
          "velocity": 0.8818897637795275
        },
        {
          "duration": 0.15885376953121977,
          "durationTicks": 61,
          "midi": 62,
          "name": "D4",
          "ticks": 91056,
          "time": 313.2884643125001,
          "velocity": 0.8818897637795275
        },
        {
          "duration": 0.1588537695312766,
          "durationTicks": 61,
          "midi": 67,
          "name": "G4",
          "ticks": 91120,
          "time": 313.4551305625,
          "velocity": 0.8818897637795275
        },
        {
          "duration": 0.15885376953121977,
          "durationTicks": 61,
          "midi": 63,
          "name": "D#4",
          "ticks": 91184,
          "time": 313.62179681250007,
          "velocity": 0.8818897637795275
        },
        {
          "duration": 0.1588537695312766,
          "durationTicks": 61,
          "midi": 67,
          "name": "G4",
          "ticks": 91248,
          "time": 313.78846306250006,
          "velocity": 0.8818897637795275
        },
        {
          "duration": 0.15885376953121977,
          "durationTicks": 61,
          "midi": 55,
          "name": "G3",
          "ticks": 91312,
          "time": 313.95512931250005,
          "velocity": 0.8818897637795275
        },
        {
          "duration": 0.15885376953121977,
          "durationTicks": 61,
          "midi": 67,
          "name": "G4",
          "ticks": 91376,
          "time": 314.1217955625001,
          "velocity": 0.8818897637795275
        },
        {
          "duration": 0.1588537695312766,
          "durationTicks": 61,
          "midi": 57,
          "name": "A3",
          "ticks": 91440,
          "time": 314.28846181250003,
          "velocity": 0.8818897637795275
        },
        {
          "duration": 0.15885376953121977,
          "durationTicks": 61,
          "midi": 67,
          "name": "G4",
          "ticks": 91504,
          "time": 314.4551280625001,
          "velocity": 0.8818897637795275
        },
        {
          "duration": 0.1588537695312766,
          "durationTicks": 61,
          "midi": 59,
          "name": "B3",
          "ticks": 91568,
          "time": 314.62179431250007,
          "velocity": 0.8818897637795275
        },
        {
          "duration": 0.15885376953121977,
          "durationTicks": 61,
          "midi": 67,
          "name": "G4",
          "ticks": 91632,
          "time": 314.78846056250006,
          "velocity": 0.8818897637795275
        },
        {
          "duration": 0.1588537695312766,
          "durationTicks": 61,
          "midi": 60,
          "name": "C4",
          "ticks": 91696,
          "time": 314.95512681250005,
          "velocity": 0.8818897637795275
        },
        {
          "duration": 0.15885376953121977,
          "durationTicks": 61,
          "midi": 67,
          "name": "G4",
          "ticks": 91760,
          "time": 315.12179306250005,
          "velocity": 0.8818897637795275
        },
        {
          "duration": 0.15885376953121977,
          "durationTicks": 61,
          "midi": 59,
          "name": "B3",
          "ticks": 91824,
          "time": 315.2884593125001,
          "velocity": 0.8818897637795275
        },
        {
          "duration": 0.1588537695312766,
          "durationTicks": 61,
          "midi": 67,
          "name": "G4",
          "ticks": 91888,
          "time": 315.45512556250003,
          "velocity": 0.8818897637795275
        },
        {
          "duration": 0.15885376953121977,
          "durationTicks": 61,
          "midi": 60,
          "name": "C4",
          "ticks": 91952,
          "time": 315.6217918125001,
          "velocity": 0.8818897637795275
        },
        {
          "duration": 0.1588537695312766,
          "durationTicks": 61,
          "midi": 67,
          "name": "G4",
          "ticks": 92016,
          "time": 315.78845806250007,
          "velocity": 0.8818897637795275
        },
        {
          "duration": 0.15885376953121977,
          "durationTicks": 61,
          "midi": 62,
          "name": "D4",
          "ticks": 92080,
          "time": 315.95512431250006,
          "velocity": 0.8818897637795275
        },
        {
          "duration": 0.1588537695312766,
          "durationTicks": 61,
          "midi": 67,
          "name": "G4",
          "ticks": 92144,
          "time": 316.12179056250005,
          "velocity": 0.8818897637795275
        },
        {
          "duration": 0.3177075390625532,
          "durationTicks": 122,
          "midi": 63,
          "name": "D#4",
          "ticks": 92208,
          "time": 316.28845681250004,
          "velocity": 0.8818897637795275
        },
        {
          "duration": 0.3177075390625532,
          "durationTicks": 122,
          "midi": 62,
          "name": "D4",
          "ticks": 92336,
          "time": 316.6217893125,
          "velocity": 0.8818897637795275
        },
        {
          "duration": 0.1588537695312766,
          "durationTicks": 61,
          "midi": 67,
          "name": "G4",
          "ticks": 92464,
          "time": 316.95512181250007,
          "velocity": 0.8818897637795275
        },
        {
          "duration": 0.15885376953121977,
          "durationTicks": 61,
          "midi": 68,
          "name": "G#4",
          "ticks": 92528,
          "time": 317.12178806250006,
          "velocity": 0.8818897637795275
        },
        {
          "duration": 0.1588537695312766,
          "durationTicks": 61,
          "midi": 65,
          "name": "F4",
          "ticks": 92592,
          "time": 317.28845431250005,
          "velocity": 0.8818897637795275
        },
        {
          "duration": 0.1588537695312766,
          "durationTicks": 61,
          "midi": 67,
          "name": "G4",
          "ticks": 92656,
          "time": 317.45512056250004,
          "velocity": 0.8818897637795275
        },
        {
          "duration": 0.31770753906243954,
          "durationTicks": 122,
          "midi": 63,
          "name": "D#4",
          "ticks": 92720,
          "time": 317.6217868125001,
          "velocity": 0.8818897637795275
        },
        {
          "duration": 0.3177075390624964,
          "durationTicks": 122,
          "midi": 60,
          "name": "C4",
          "ticks": 92848,
          "time": 317.9551193125001,
          "velocity": 0.8818897637795275
        },
        {
          "duration": 0.15885376953121977,
          "durationTicks": 61,
          "midi": 65,
          "name": "F4",
          "ticks": 92976,
          "time": 318.28845181250006,
          "velocity": 0.8818897637795275
        },
        {
          "duration": 0.1588537695312766,
          "durationTicks": 61,
          "midi": 67,
          "name": "G4",
          "ticks": 93040,
          "time": 318.45511806250005,
          "velocity": 0.8818897637795275
        },
        {
          "duration": 0.1588537695312766,
          "durationTicks": 61,
          "midi": 63,
          "name": "D#4",
          "ticks": 93104,
          "time": 318.62178431250004,
          "velocity": 0.8818897637795275
        },
        {
          "duration": 0.15885376953121977,
          "durationTicks": 61,
          "midi": 65,
          "name": "F4",
          "ticks": 93168,
          "time": 318.7884505625001,
          "velocity": 0.8818897637795275
        },
        {
          "duration": 0.3177075390625532,
          "durationTicks": 122,
          "midi": 62,
          "name": "D4",
          "ticks": 93232,
          "time": 318.9551168125,
          "velocity": 0.8818897637795275
        },
        {
          "duration": 0.3177075390624964,
          "durationTicks": 122,
          "midi": 58,
          "name": "A#3",
          "ticks": 93360,
          "time": 319.28844931250006,
          "velocity": 0.8818897637795275
        },
        {
          "duration": 0.1588537695312766,
          "durationTicks": 61,
          "midi": 63,
          "name": "D#4",
          "ticks": 93488,
          "time": 319.62178181250005,
          "velocity": 0.8818897637795275
        },
        {
          "duration": 0.1588537695312766,
          "durationTicks": 61,
          "midi": 65,
          "name": "F4",
          "ticks": 93552,
          "time": 319.78844806250004,
          "velocity": 0.8818897637795275
        },
        {
          "duration": 0.15885376953121977,
          "durationTicks": 61,
          "midi": 62,
          "name": "D4",
          "ticks": 93616,
          "time": 319.9551143125001,
          "velocity": 0.8818897637795275
        },
        {
          "duration": 0.1588537695312766,
          "durationTicks": 61,
          "midi": 63,
          "name": "D#4",
          "ticks": 93680,
          "time": 320.1217805625,
          "velocity": 0.8818897637795275
        },
        {
          "duration": 0.3177075390624964,
          "durationTicks": 122,
          "midi": 60,
          "name": "C4",
          "ticks": 93744,
          "time": 320.28844681250007,
          "velocity": 0.8818897637795275
        },
        {
          "duration": 0.3177075390624964,
          "durationTicks": 122,
          "midi": 66,
          "name": "F#4",
          "ticks": 93872,
          "time": 320.62177931250005,
          "velocity": 0.8818897637795275
        },
        {
          "duration": 0.1588537695312766,
          "durationTicks": 61,
          "midi": 67,
          "name": "G4",
          "ticks": 94000,
          "time": 320.95511181250004,
          "velocity": 0.8818897637795275
        },
        {
          "duration": 0.15885376953121977,
          "durationTicks": 61,
          "midi": 69,
          "name": "A4",
          "ticks": 94064,
          "time": 321.1217780625001,
          "velocity": 0.8818897637795275
        },
        {
          "duration": 0.1588537695312766,
          "durationTicks": 61,
          "midi": 65,
          "name": "F4",
          "ticks": 94128,
          "time": 321.2884443125,
          "velocity": 0.8818897637795275
        },
        {
          "duration": 0.15885376953121977,
          "durationTicks": 61,
          "midi": 67,
          "name": "G4",
          "ticks": 94192,
          "time": 321.45511056250007,
          "velocity": 0.8818897637795275
        },
        {
          "duration": 0.1588537695312766,
          "durationTicks": 61,
          "midi": 63,
          "name": "D#4",
          "ticks": 94256,
          "time": 321.62177681250006,
          "velocity": 0.8818897637795275
        },
        {
          "duration": 0.15885376953121977,
          "durationTicks": 61,
          "midi": 67,
          "name": "G4",
          "ticks": 94320,
          "time": 321.78844306250005,
          "velocity": 0.8818897637795275
        },
        {
          "duration": 0.15885376953121977,
          "durationTicks": 61,
          "midi": 66,
          "name": "F#4",
          "ticks": 94384,
          "time": 321.9551093125001,
          "velocity": 0.8818897637795275
        },
        {
          "duration": 0.1588537695312766,
          "durationTicks": 61,
          "midi": 67,
          "name": "G4",
          "ticks": 94448,
          "time": 322.12177556250003,
          "velocity": 0.8818897637795275
        },
        {
          "duration": 0.15885376953121977,
          "durationTicks": 61,
          "midi": 69,
          "name": "A4",
          "ticks": 94512,
          "time": 322.2884418125001,
          "velocity": 0.8818897637795275
        },
        {
          "duration": 0.15885376953133346,
          "durationTicks": 61,
          "midi": 67,
          "name": "G4",
          "ticks": 94576,
          "time": 322.4551080625,
          "velocity": 0.8818897637795275
        },
        {
          "duration": 0.15885376953121977,
          "durationTicks": 61,
          "midi": 66,
          "name": "F#4",
          "ticks": 94640,
          "time": 322.62177431250007,
          "velocity": 0.8818897637795275
        },
        {
          "duration": 0.1588537695312766,
          "durationTicks": 61,
          "midi": 64,
          "name": "E4",
          "ticks": 94704,
          "time": 322.78844056250006,
          "velocity": 0.8818897637795275
        },
        {
          "duration": 0.15885376953121977,
          "durationTicks": 61,
          "midi": 62,
          "name": "D4",
          "ticks": 94832,
          "time": 323.1217730625001,
          "velocity": 0.8818897637795275
        },
        {
          "duration": 0.1588537695312766,
          "durationTicks": 61,
          "midi": 60,
          "name": "C4",
          "ticks": 94896,
          "time": 323.28843931250003,
          "velocity": 0.8818897637795275
        },
        {
          "duration": 0.15885376953121977,
          "durationTicks": 61,
          "midi": 62,
          "name": "D4",
          "ticks": 94960,
          "time": 323.4551055625001,
          "velocity": 0.8818897637795275
        },
        {
          "duration": 0.1588537695312766,
          "durationTicks": 61,
          "midi": 58,
          "name": "A#3",
          "ticks": 95024,
          "time": 323.62177181250007,
          "velocity": 0.8818897637795275
        },
        {
          "duration": 0.15885376953121977,
          "durationTicks": 61,
          "midi": 62,
          "name": "D4",
          "ticks": 95088,
          "time": 323.78843806250006,
          "velocity": 0.8818897637795275
        },
        {
          "duration": 0.1588537695312766,
          "durationTicks": 61,
          "midi": 57,
          "name": "A3",
          "ticks": 95152,
          "time": 323.95510431250005,
          "velocity": 0.8818897637795275
        },
        {
          "duration": 0.15885376953121977,
          "durationTicks": 61,
          "midi": 62,
          "name": "D4",
          "ticks": 95216,
          "time": 324.12177056250005,
          "velocity": 0.8818897637795275
        },
        {
          "duration": 0.15885376953121977,
          "durationTicks": 61,
          "midi": 55,
          "name": "G3",
          "ticks": 95280,
          "time": 324.2884368125001,
          "velocity": 0.8818897637795275
        },
        {
          "duration": 0.1588537695312766,
          "durationTicks": 61,
          "midi": 62,
          "name": "D4",
          "ticks": 95344,
          "time": 324.45510306250003,
          "velocity": 0.8818897637795275
        },
        {
          "duration": 0.15885376953121977,
          "durationTicks": 61,
          "midi": 54,
          "name": "F#3",
          "ticks": 95408,
          "time": 324.6217693125001,
          "velocity": 0.8818897637795275
        },
        {
          "duration": 0.1588537695312766,
          "durationTicks": 61,
          "midi": 62,
          "name": "D4",
          "ticks": 95472,
          "time": 324.78843556250007,
          "velocity": 0.8818897637795275
        },
        {
          "duration": 0.15885376953121977,
          "durationTicks": 61,
          "midi": 55,
          "name": "G3",
          "ticks": 95536,
          "time": 324.95510181250006,
          "velocity": 0.8818897637795275
        },
        {
          "duration": 0.1588537695312766,
          "durationTicks": 61,
          "midi": 62,
          "name": "D4",
          "ticks": 95600,
          "time": 325.12176806250005,
          "velocity": 0.8818897637795275
        },
        {
          "duration": 0.1588537695312766,
          "durationTicks": 61,
          "midi": 57,
          "name": "A3",
          "ticks": 95664,
          "time": 325.28843431250004,
          "velocity": 0.8818897637795275
        },
        {
          "duration": 0.15885376953121977,
          "durationTicks": 61,
          "midi": 62,
          "name": "D4",
          "ticks": 95728,
          "time": 325.4551005625001,
          "velocity": 0.8818897637795275
        },
        {
          "duration": 0.1588537695312766,
          "durationTicks": 61,
          "midi": 58,
          "name": "A#3",
          "ticks": 95792,
          "time": 325.6217668125,
          "velocity": 0.8818897637795275
        },
        {
          "duration": 0.15885376953121977,
          "durationTicks": 61,
          "midi": 62,
          "name": "D4",
          "ticks": 95856,
          "time": 325.7884330625001,
          "velocity": 0.8818897637795275
        },
        {
          "duration": 0.1588537695312766,
          "durationTicks": 61,
          "midi": 50,
          "name": "D3",
          "ticks": 95920,
          "time": 325.95509931250007,
          "velocity": 0.8818897637795275
        },
        {
          "duration": 0.15885376953121977,
          "durationTicks": 61,
          "midi": 62,
          "name": "D4",
          "ticks": 95984,
          "time": 326.12176556250006,
          "velocity": 0.8818897637795275
        },
        {
          "duration": 0.1588537695312766,
          "durationTicks": 61,
          "midi": 52,
          "name": "E3",
          "ticks": 96048,
          "time": 326.28843181250005,
          "velocity": 0.8818897637795275
        },
        {
          "duration": 0.1588537695312766,
          "durationTicks": 61,
          "midi": 62,
          "name": "D4",
          "ticks": 96112,
          "time": 326.45509806250004,
          "velocity": 0.8818897637795275
        },
        {
          "duration": 0.15885376953121977,
          "durationTicks": 61,
          "midi": 54,
          "name": "F#3",
          "ticks": 96176,
          "time": 326.6217643125001,
          "velocity": 0.8818897637795275
        },
        {
          "duration": 0.1588537695312766,
          "durationTicks": 61,
          "midi": 62,
          "name": "D4",
          "ticks": 96240,
          "time": 326.7884305625,
          "velocity": 0.8818897637795275
        },
        {
          "duration": 0.15885376953121977,
          "durationTicks": 61,
          "midi": 55,
          "name": "G3",
          "ticks": 96304,
          "time": 326.9550968125001,
          "velocity": 0.8818897637795275
        },
        {
          "duration": 0.1588537695312766,
          "durationTicks": 61,
          "midi": 62,
          "name": "D4",
          "ticks": 96368,
          "time": 327.12176306250007,
          "velocity": 0.8818897637795275
        },
        {
          "duration": 0.15885376953121977,
          "durationTicks": 61,
          "midi": 54,
          "name": "F#3",
          "ticks": 96432,
          "time": 327.28842931250006,
          "velocity": 0.8818897637795275
        },
        {
          "duration": 0.1588537695312766,
          "durationTicks": 61,
          "midi": 62,
          "name": "D4",
          "ticks": 96496,
          "time": 327.45509556250005,
          "velocity": 0.8818897637795275
        },
        {
          "duration": 0.1588537695312766,
          "durationTicks": 61,
          "midi": 55,
          "name": "G3",
          "ticks": 96560,
          "time": 327.62176181250004,
          "velocity": 0.8818897637795275
        },
        {
          "duration": 0.15885376953121977,
          "durationTicks": 61,
          "midi": 62,
          "name": "D4",
          "ticks": 96624,
          "time": 327.7884280625001,
          "velocity": 0.8818897637795275
        },
        {
          "duration": 0.1588537695312766,
          "durationTicks": 61,
          "midi": 57,
          "name": "A3",
          "ticks": 96688,
          "time": 327.9550943125,
          "velocity": 0.8818897637795275
        },
        {
          "duration": 0.15885376953121977,
          "durationTicks": 61,
          "midi": 62,
          "name": "D4",
          "ticks": 96752,
          "time": 328.12176056250007,
          "velocity": 0.8818897637795275
        },
        {
          "duration": 0.3177075390624964,
          "durationTicks": 122,
          "midi": 58,
          "name": "A#3",
          "ticks": 96816,
          "time": 328.28842681250006,
          "velocity": 0.8818897637795275
        },
        {
          "duration": 0.3177075390624964,
          "durationTicks": 122,
          "midi": 57,
          "name": "A3",
          "ticks": 96944,
          "time": 328.62175931250005,
          "velocity": 0.8818897637795275
        },
        {
          "duration": 1.2682259960937472,
          "durationTicks": 487,
          "midi": 55,
          "name": "G3",
          "ticks": 97072,
          "time": 328.9550918125001,
          "velocity": 0.8818897637795275
        },
        {
          "duration": 0.6354150781250496,
          "durationTicks": 244,
          "midi": 54,
          "name": "F#3",
          "ticks": 97584,
          "time": 330.2884218125,
          "velocity": 0.8818897637795275
        },
        {
          "duration": 0.31770753906243954,
          "durationTicks": 122,
          "midi": 55,
          "name": "G3",
          "ticks": 97840,
          "time": 330.9550868125001,
          "velocity": 0.8818897637795275
        },
        {
          "duration": 0.31770753906243954,
          "durationTicks": 122,
          "midi": 57,
          "name": "A3",
          "ticks": 97968,
          "time": 331.2884193125001,
          "velocity": 0.8818897637795275
        },
        {
          "duration": 0.15885376953121977,
          "durationTicks": 61,
          "midi": 58,
          "name": "A#3",
          "ticks": 98096,
          "time": 331.62175181250007,
          "velocity": 0.8818897637795275
        },
        {
          "duration": 0.1588537695312766,
          "durationTicks": 61,
          "midi": 57,
          "name": "A3",
          "ticks": 98160,
          "time": 331.78841806250006,
          "velocity": 0.8818897637795275
        },
        {
          "duration": 0.15885376953121977,
          "durationTicks": 61,
          "midi": 55,
          "name": "G3",
          "ticks": 98224,
          "time": 331.95508431250005,
          "velocity": 0.8818897637795275
        },
        {
          "duration": 0.15885376953121977,
          "durationTicks": 61,
          "midi": 53,
          "name": "F3",
          "ticks": 98288,
          "time": 332.1217505625001,
          "velocity": 0.8818897637795275
        },
        {
          "duration": 0.3177075390625532,
          "durationTicks": 122,
          "midi": 51,
          "name": "D#3",
          "ticks": 98352,
          "time": 332.28841681250003,
          "velocity": 0.8818897637795275
        },
        {
          "duration": 0.3177075390624964,
          "durationTicks": 122,
          "midi": 63,
          "name": "D#4",
          "ticks": 98480,
          "time": 332.62174931250007,
          "velocity": 0.8818897637795275
        },
        {
          "duration": 0.6354150781249928,
          "durationTicks": 244,
          "midi": 62,
          "name": "D4",
          "ticks": 98608,
          "time": 332.95508181250005,
          "velocity": 0.8818897637795275
        },
        {
          "duration": 0.31770753906243954,
          "durationTicks": 122,
          "midi": 60,
          "name": "C4",
          "ticks": 98864,
          "time": 333.6217468125001,
          "velocity": 0.8818897637795275
        },
        {
          "duration": 0.3177075390624964,
          "durationTicks": 122,
          "midi": 62,
          "name": "D4",
          "ticks": 98992,
          "time": 333.95507931250006,
          "velocity": 0.8818897637795275
        },
        {
          "duration": 0.1588537695312766,
          "durationTicks": 61,
          "midi": 63,
          "name": "D#4",
          "ticks": 99120,
          "time": 334.28841181250004,
          "velocity": 0.8818897637795275
        },
        {
          "duration": 0.15885376953121977,
          "durationTicks": 61,
          "midi": 65,
          "name": "F4",
          "ticks": 99184,
          "time": 334.4550780625001,
          "velocity": 0.8818897637795275
        },
        {
          "duration": 0.1588537695312766,
          "durationTicks": 61,
          "midi": 62,
          "name": "D4",
          "ticks": 99248,
          "time": 334.6217443125,
          "velocity": 0.8818897637795275
        },
        {
          "duration": 0.15885376953121977,
          "durationTicks": 61,
          "midi": 63,
          "name": "D#4",
          "ticks": 99312,
          "time": 334.7884105625001,
          "velocity": 0.8818897637795275
        },
        {
          "duration": 0.1588537695312766,
          "durationTicks": 61,
          "midi": 60,
          "name": "C4",
          "ticks": 99376,
          "time": 334.95507681250007,
          "velocity": 0.8818897637795275
        },
        {
          "duration": 0.15885376953121977,
          "durationTicks": 61,
          "midi": 63,
          "name": "D#4",
          "ticks": 99440,
          "time": 335.12174306250006,
          "velocity": 0.8818897637795275
        },
        {
          "duration": 0.1588537695312766,
          "durationTicks": 61,
          "midi": 62,
          "name": "D4",
          "ticks": 99504,
          "time": 335.28840931250005,
          "velocity": 0.8818897637795275
        },
        {
          "duration": 0.1588537695312766,
          "durationTicks": 61,
          "midi": 65,
          "name": "F4",
          "ticks": 99568,
          "time": 335.45507556250004,
          "velocity": 0.8818897637795275
        },
        {
          "duration": 0.15885376953121977,
          "durationTicks": 61,
          "midi": 67,
          "name": "G4",
          "ticks": 99632,
          "time": 335.6217418125001,
          "velocity": 0.8818897637795275
        },
        {
          "duration": 0.1588537695312766,
          "durationTicks": 61,
          "midi": 65,
          "name": "F4",
          "ticks": 99696,
          "time": 335.7884080625,
          "velocity": 0.8818897637795275
        },
        {
          "duration": 0.15885376953121977,
          "durationTicks": 61,
          "midi": 63,
          "name": "D#4",
          "ticks": 99760,
          "time": 335.9550743125001,
          "velocity": 0.8818897637795275
        },
        {
          "duration": 0.1588537695312766,
          "durationTicks": 61,
          "midi": 65,
          "name": "F4",
          "ticks": 99824,
          "time": 336.12174056250007,
          "velocity": 0.8818897637795275
        },
        {
          "duration": 0.15885376953121977,
          "durationTicks": 61,
          "midi": 62,
          "name": "D4",
          "ticks": 99888,
          "time": 336.28840681250006,
          "velocity": 0.8818897637795275
        },
        {
          "duration": 0.1588537695312766,
          "durationTicks": 61,
          "midi": 58,
          "name": "A#3",
          "ticks": 99952,
          "time": 336.45507306250005,
          "velocity": 0.8818897637795275
        },
        {
          "duration": 0.1588537695312766,
          "durationTicks": 61,
          "midi": 63,
          "name": "D#4",
          "ticks": 100016,
          "time": 336.62173931250004,
          "velocity": 0.8818897637795275
        },
        {
          "duration": 0.15885376953121977,
          "durationTicks": 61,
          "midi": 62,
          "name": "D4",
          "ticks": 100080,
          "time": 336.7884055625001,
          "velocity": 0.8818897637795275
        },
        {
          "duration": 0.1588537695312766,
          "durationTicks": 61,
          "midi": 61,
          "name": "C#4",
          "ticks": 100144,
          "time": 336.9550718125,
          "velocity": 0.8818897637795275
        },
        {
          "duration": 0.15885376953121977,
          "durationTicks": 61,
          "midi": 57,
          "name": "A3",
          "ticks": 100208,
          "time": 337.12173806250007,
          "velocity": 0.8818897637795275
        },
        {
          "duration": 0.1588537695312766,
          "durationTicks": 61,
          "midi": 61,
          "name": "C#4",
          "ticks": 100272,
          "time": 337.28840431250006,
          "velocity": 0.8818897637795275
        },
        {
          "duration": 0.15885376953121977,
          "durationTicks": 61,
          "midi": 60,
          "name": "C4",
          "ticks": 100336,
          "time": 337.45507056250005,
          "velocity": 0.8818897637795275
        },
        {
          "duration": 0.1588537695312766,
          "durationTicks": 61,
          "midi": 59,
          "name": "B3",
          "ticks": 100400,
          "time": 337.62173681250005,
          "velocity": 0.8818897637795275
        },
        {
          "duration": 0.1588537695312766,
          "durationTicks": 61,
          "midi": 55,
          "name": "G3",
          "ticks": 100464,
          "time": 337.78840306250004,
          "velocity": 0.8818897637795275
        },
        {
          "duration": 0.15885376953121977,
          "durationTicks": 61,
          "midi": 60,
          "name": "C4",
          "ticks": 100528,
          "time": 337.9550693125001,
          "velocity": 0.8818897637795275
        },
        {
          "duration": 0.1588537695312766,
          "durationTicks": 61,
          "midi": 58,
          "name": "A#3",
          "ticks": 100592,
          "time": 338.1217355625,
          "velocity": 0.8818897637795275
        },
        {
          "duration": 0.15885376953121977,
          "durationTicks": 61,
          "midi": 57,
          "name": "A3",
          "ticks": 100656,
          "time": 338.28840181250007,
          "velocity": 0.8818897637795275
        },
        {
          "duration": 0.1588537695312766,
          "durationTicks": 61,
          "midi": 53,
          "name": "F3",
          "ticks": 100720,
          "time": 338.45506806250006,
          "velocity": 0.8818897637795275
        },
        {
          "duration": 0.15885376953121977,
          "durationTicks": 61,
          "midi": 58,
          "name": "A#3",
          "ticks": 100784,
          "time": 338.62173431250005,
          "velocity": 0.8818897637795275
        },
        {
          "duration": 0.15885376953121977,
          "durationTicks": 61,
          "midi": 61,
          "name": "C#4",
          "ticks": 100848,
          "time": 338.7884005625001,
          "velocity": 0.8818897637795275
        },
        {
          "duration": 0.1588537695312766,
          "durationTicks": 61,
          "midi": 60,
          "name": "C4",
          "ticks": 100912,
          "time": 338.95506681250004,
          "velocity": 0.8818897637795275
        },
        {
          "duration": 0.15885376953121977,
          "durationTicks": 61,
          "midi": 62,
          "name": "D4",
          "ticks": 100976,
          "time": 339.1217330625001,
          "velocity": 0.8818897637795275
        },
        {
          "duration": 0.15885376953133346,
          "durationTicks": 61,
          "midi": 60,
          "name": "C4",
          "ticks": 101040,
          "time": 339.2883993125,
          "velocity": 0.8818897637795275
        },
        {
          "duration": 0.15885376953121977,
          "durationTicks": 61,
          "midi": 58,
          "name": "A#3",
          "ticks": 101104,
          "time": 339.45506556250007,
          "velocity": 0.8818897637795275
        },
        {
          "duration": 0.1588537695312766,
          "durationTicks": 61,
          "midi": 57,
          "name": "A3",
          "ticks": 101168,
          "time": 339.62173181250006,
          "velocity": 0.8818897637795275
        },
        {
          "duration": 0.15885376953121977,
          "durationTicks": 61,
          "midi": 60,
          "name": "C4",
          "ticks": 101232,
          "time": 339.78839806250005,
          "velocity": 0.8818897637795275
        },
        {
          "duration": 0.15885376953121977,
          "durationTicks": 61,
          "midi": 58,
          "name": "A#3",
          "ticks": 101296,
          "time": 339.9550643125001,
          "velocity": 0.8818897637795275
        },
        {
          "duration": 0.1588537695312766,
          "durationTicks": 61,
          "midi": 57,
          "name": "A3",
          "ticks": 101360,
          "time": 340.12173056250003,
          "velocity": 0.8818897637795275
        },
        {
          "duration": 0.15885376953121977,
          "durationTicks": 61,
          "midi": 55,
          "name": "G3",
          "ticks": 101424,
          "time": 340.2883968125001,
          "velocity": 0.8818897637795275
        },
        {
          "duration": 0.1588537695312766,
          "durationTicks": 61,
          "midi": 60,
          "name": "C4",
          "ticks": 101488,
          "time": 340.4550630625001,
          "velocity": 0.8818897637795275
        },
        {
          "duration": 0.15885376953121977,
          "durationTicks": 61,
          "midi": 58,
          "name": "A#3",
          "ticks": 101552,
          "time": 340.62172931250007,
          "velocity": 0.8818897637795275
        },
        {
          "duration": 0.1588537695312766,
          "durationTicks": 61,
          "midi": 57,
          "name": "A3",
          "ticks": 101616,
          "time": 340.78839556250006,
          "velocity": 0.8818897637795275
        },
        {
          "duration": 0.15885376953121977,
          "durationTicks": 61,
          "midi": 58,
          "name": "A#3",
          "ticks": 101680,
          "time": 340.95506181250005,
          "velocity": 0.8818897637795275
        },
        {
          "duration": 0.15885376953121977,
          "durationTicks": 61,
          "midi": 60,
          "name": "C4",
          "ticks": 101744,
          "time": 341.1217280625001,
          "velocity": 0.8818897637795275
        },
        {
          "duration": 0.1588537695312766,
          "durationTicks": 61,
          "midi": 58,
          "name": "A#3",
          "ticks": 101808,
          "time": 341.28839431250003,
          "velocity": 0.8818897637795275
        },
        {
          "duration": 0.15885376953121977,
          "durationTicks": 61,
          "midi": 57,
          "name": "A3",
          "ticks": 101872,
          "time": 341.4550605625001,
          "velocity": 0.8818897637795275
        },
        {
          "duration": 0.1588537695312766,
          "durationTicks": 61,
          "midi": 55,
          "name": "G3",
          "ticks": 101936,
          "time": 341.62172681250007,
          "velocity": 0.8818897637795275
        },
        {
          "duration": 0.15885376953121977,
          "durationTicks": 61,
          "midi": 57,
          "name": "A3",
          "ticks": 102000,
          "time": 341.78839306250006,
          "velocity": 0.8818897637795275
        },
        {
          "duration": 0.1588537695312766,
          "durationTicks": 61,
          "midi": 53,
          "name": "F3",
          "ticks": 102064,
          "time": 341.95505931250005,
          "velocity": 0.8818897637795275
        },
        {
          "duration": 0.1588537695312766,
          "durationTicks": 61,
          "midi": 55,
          "name": "G3",
          "ticks": 102128,
          "time": 342.12172556250005,
          "velocity": 0.8818897637795275
        },
        {
          "duration": 0.6354150781249928,
          "durationTicks": 244,
          "midi": 52,
          "name": "E3",
          "ticks": 102192,
          "time": 342.2883918125001,
          "velocity": 0.8818897637795275
        },
        {
          "duration": 0.6354150781249928,
          "durationTicks": 244,
          "midi": 54,
          "name": "F#3",
          "ticks": 102448,
          "time": 342.95505681250006,
          "velocity": 0.8818897637795275
        },
        {
          "duration": 0.1588537695312766,
          "durationTicks": 61,
          "midi": 63,
          "name": "D#4",
          "ticks": 102512,
          "time": 343.12172306250005,
          "velocity": 0.8818897637795275
        },
        {
          "duration": 0.1588537695312766,
          "durationTicks": 61,
          "midi": 62,
          "name": "D4",
          "ticks": 102576,
          "time": 343.28838931250004,
          "velocity": 0.8818897637795275
        },
        {
          "duration": 0.15885376953121977,
          "durationTicks": 61,
          "midi": 60,
          "name": "C4",
          "ticks": 102640,
          "time": 343.4550555625001,
          "velocity": 0.8818897637795275
        },
        {
          "duration": 0.1588537695312766,
          "durationTicks": 61,
          "midi": 62,
          "name": "D4",
          "ticks": 102704,
          "time": 343.6217218125,
          "velocity": 0.8818897637795275
        },
        {
          "duration": 0.6354150781249928,
          "durationTicks": 244,
          "midi": 50,
          "name": "D3",
          "ticks": 102704,
          "time": 343.6217218125,
          "velocity": 0.8818897637795275
        },
        {
          "duration": 0.15885376953121977,
          "durationTicks": 61,
          "midi": 60,
          "name": "C4",
          "ticks": 102768,
          "time": 343.7883880625001,
          "velocity": 0.8818897637795275
        },
        {
          "duration": 0.1588537695312766,
          "durationTicks": 61,
          "midi": 58,
          "name": "A#3",
          "ticks": 102832,
          "time": 343.95505431250007,
          "velocity": 0.8818897637795275
        },
        {
          "duration": 0.15885376953121977,
          "durationTicks": 61,
          "midi": 57,
          "name": "A3",
          "ticks": 102896,
          "time": 344.12172056250006,
          "velocity": 0.8818897637795275
        },
        {
          "duration": 0.6354150781250496,
          "durationTicks": 244,
          "midi": 55,
          "name": "G3",
          "ticks": 102960,
          "time": 344.28838681250005,
          "velocity": 0.8818897637795275
        },
        {
          "duration": 0.15885376953121977,
          "durationTicks": 61,
          "midi": 57,
          "name": "A3",
          "ticks": 103216,
          "time": 344.9550518125001,
          "velocity": 0.8818897637795275
        },
        {
          "duration": 0.1588537695312766,
          "durationTicks": 61,
          "midi": 58,
          "name": "A#3",
          "ticks": 103280,
          "time": 345.12171806250007,
          "velocity": 0.8818897637795275
        },
        {
          "duration": 0.15885376953121977,
          "durationTicks": 61,
          "midi": 57,
          "name": "A3",
          "ticks": 103344,
          "time": 345.28838431250006,
          "velocity": 0.8818897637795275
        },
        {
          "duration": 0.1588537695312766,
          "durationTicks": 61,
          "midi": 55,
          "name": "G3",
          "ticks": 103408,
          "time": 345.45505056250005,
          "velocity": 0.8818897637795275
        },
        {
          "duration": 0.1588537695312766,
          "durationTicks": 61,
          "midi": 53,
          "name": "F3",
          "ticks": 103472,
          "time": 345.62171681250004,
          "velocity": 0.8818897637795275
        },
        {
          "duration": 0.15885376953121977,
          "durationTicks": 61,
          "midi": 55,
          "name": "G3",
          "ticks": 103536,
          "time": 345.7883830625001,
          "velocity": 0.8818897637795275
        },
        {
          "duration": 0.1588537695312766,
          "durationTicks": 61,
          "midi": 52,
          "name": "E3",
          "ticks": 103600,
          "time": 345.9550493125,
          "velocity": 0.8818897637795275
        },
        {
          "duration": 0.15885376953121977,
          "durationTicks": 61,
          "midi": 57,
          "name": "A3",
          "ticks": 103664,
          "time": 346.12171556250007,
          "velocity": 0.8818897637795275
        },
        {
          "duration": 0.6354150781249928,
          "durationTicks": 244,
          "midi": 50,
          "name": "D3",
          "ticks": 103728,
          "time": 346.28838181250006,
          "velocity": 0.8818897637795275
        },
        {
          "duration": 0.1588537695312766,
          "durationTicks": 61,
          "midi": 60,
          "name": "C4",
          "ticks": 104816,
          "time": 349.12170806250003,
          "velocity": 0.8818897637795275
        },
        {
          "duration": 0.15885376953121977,
          "durationTicks": 61,
          "midi": 58,
          "name": "A#3",
          "ticks": 104880,
          "time": 349.2883743125001,
          "velocity": 0.8818897637795275
        },
        {
          "duration": 0.1588537695312766,
          "durationTicks": 61,
          "midi": 57,
          "name": "A3",
          "ticks": 104944,
          "time": 349.4550405625001,
          "velocity": 0.8818897637795275
        },
        {
          "duration": 0.15885376953121977,
          "durationTicks": 61,
          "midi": 58,
          "name": "A#3",
          "ticks": 105008,
          "time": 349.62170681250007,
          "velocity": 0.8818897637795275
        },
        {
          "duration": 0.1588537695312766,
          "durationTicks": 61,
          "midi": 57,
          "name": "A3",
          "ticks": 105072,
          "time": 349.78837306250006,
          "velocity": 0.8818897637795275
        },
        {
          "duration": 0.1588537695312766,
          "durationTicks": 61,
          "midi": 55,
          "name": "G3",
          "ticks": 105136,
          "time": 349.95503931250005,
          "velocity": 0.8818897637795275
        },
        {
          "duration": 0.15885376953121977,
          "durationTicks": 61,
          "midi": 53,
          "name": "F3",
          "ticks": 105200,
          "time": 350.1217055625001,
          "velocity": 0.8818897637795275
        },
        {
          "duration": 0.1588537695312766,
          "durationTicks": 61,
          "midi": 52,
          "name": "E3",
          "ticks": 105264,
          "time": 350.28837181250003,
          "velocity": 0.8818897637795275
        },
        {
          "duration": 0.15885376953121977,
          "durationTicks": 61,
          "midi": 53,
          "name": "F3",
          "ticks": 105328,
          "time": 350.4550380625001,
          "velocity": 0.8818897637795275
        },
        {
          "duration": 0.1588537695312766,
          "durationTicks": 61,
          "midi": 52,
          "name": "E3",
          "ticks": 105392,
          "time": 350.62170431250007,
          "velocity": 0.8818897637795275
        },
        {
          "duration": 0.15885376953121977,
          "durationTicks": 61,
          "midi": 50,
          "name": "D3",
          "ticks": 105456,
          "time": 350.78837056250006,
          "velocity": 0.8818897637795275
        },
        {
          "duration": 0.1588537695312766,
          "durationTicks": 61,
          "midi": 49,
          "name": "C#3",
          "ticks": 105520,
          "time": 350.95503681250005,
          "velocity": 0.8818897637795275
        },
        {
          "duration": 0.1588537695312766,
          "durationTicks": 61,
          "midi": 45,
          "name": "A2",
          "ticks": 105584,
          "time": 351.12170306250005,
          "velocity": 0.8818897637795275
        },
        {
          "duration": 0.15885376953121977,
          "durationTicks": 61,
          "midi": 50,
          "name": "D3",
          "ticks": 105648,
          "time": 351.2883693125001,
          "velocity": 0.8818897637795275
        },
        {
          "duration": 0.1588537695312766,
          "durationTicks": 61,
          "midi": 45,
          "name": "A2",
          "ticks": 105712,
          "time": 351.45503556250003,
          "velocity": 0.8818897637795275
        },
        {
          "duration": 0.15885376953121977,
          "durationTicks": 61,
          "midi": 52,
          "name": "E3",
          "ticks": 105776,
          "time": 351.6217018125001,
          "velocity": 0.8818897637795275
        },
        {
          "duration": 0.1588537695312766,
          "durationTicks": 61,
          "midi": 45,
          "name": "A2",
          "ticks": 105840,
          "time": 351.78836806250007,
          "velocity": 0.8818897637795275
        },
        {
          "duration": 0.15885376953121977,
          "durationTicks": 61,
          "midi": 53,
          "name": "F3",
          "ticks": 105904,
          "time": 351.95503431250006,
          "velocity": 0.8818897637795275
        },
        {
          "duration": 0.1588537695312766,
          "durationTicks": 61,
          "midi": 45,
          "name": "A2",
          "ticks": 105968,
          "time": 352.12170056250005,
          "velocity": 0.8818897637795275
        },
        {
          "duration": 0.1588537695312766,
          "durationTicks": 61,
          "midi": 55,
          "name": "G3",
          "ticks": 106032,
          "time": 352.28836681250004,
          "velocity": 0.8818897637795275
        },
        {
          "duration": 0.15885376953121977,
          "durationTicks": 61,
          "midi": 45,
          "name": "A2",
          "ticks": 106096,
          "time": 352.4550330625001,
          "velocity": 0.8818897637795275
        },
        {
          "duration": 0.1588537695312766,
          "durationTicks": 61,
          "midi": 53,
          "name": "F3",
          "ticks": 106160,
          "time": 352.6216993125,
          "velocity": 0.8818897637795275
        },
        {
          "duration": 0.15885376953121977,
          "durationTicks": 61,
          "midi": 45,
          "name": "A2",
          "ticks": 106224,
          "time": 352.7883655625001,
          "velocity": 0.8818897637795275
        },
        {
          "duration": 0.1588537695312766,
          "durationTicks": 61,
          "midi": 52,
          "name": "E3",
          "ticks": 106288,
          "time": 352.95503181250007,
          "velocity": 0.8818897637795275
        },
        {
          "duration": 0.15885376953121977,
          "durationTicks": 61,
          "midi": 45,
          "name": "A2",
          "ticks": 106352,
          "time": 353.12169806250006,
          "velocity": 0.8818897637795275
        },
        {
          "duration": 0.1588537695312766,
          "durationTicks": 61,
          "midi": 50,
          "name": "D3",
          "ticks": 106416,
          "time": 353.28836431250005,
          "velocity": 0.8818897637795275
        },
        {
          "duration": 0.1588537695312766,
          "durationTicks": 61,
          "midi": 45,
          "name": "A2",
          "ticks": 106480,
          "time": 353.45503056250004,
          "velocity": 0.8818897637795275
        },
        {
          "duration": 0.15885376953121977,
          "durationTicks": 61,
          "midi": 49,
          "name": "C#3",
          "ticks": 106544,
          "time": 353.6216968125001,
          "velocity": 0.8818897637795275
        },
        {
          "duration": 0.1588537695312766,
          "durationTicks": 61,
          "midi": 57,
          "name": "A3",
          "ticks": 106608,
          "time": 353.7883630625,
          "velocity": 0.8818897637795275
        },
        {
          "duration": 0.15885376953121977,
          "durationTicks": 61,
          "midi": 45,
          "name": "A2",
          "ticks": 106672,
          "time": 353.9550293125001,
          "velocity": 0.8818897637795275
        },
        {
          "duration": 0.1588537695312766,
          "durationTicks": 61,
          "midi": 57,
          "name": "A3",
          "ticks": 106736,
          "time": 354.12169556250007,
          "velocity": 0.8818897637795275
        },
        {
          "duration": 0.15885376953121977,
          "durationTicks": 61,
          "midi": 50,
          "name": "D3",
          "ticks": 106800,
          "time": 354.28836181250006,
          "velocity": 0.8818897637795275
        },
        {
          "duration": 0.1588537695312766,
          "durationTicks": 61,
          "midi": 57,
          "name": "A3",
          "ticks": 106864,
          "time": 354.45502806250005,
          "velocity": 0.8818897637795275
        },
        {
          "duration": 0.1588537695312766,
          "durationTicks": 61,
          "midi": 53,
          "name": "F3",
          "ticks": 106928,
          "time": 354.62169431250004,
          "velocity": 0.8818897637795275
        },
        {
          "duration": 0.15885376953121977,
          "durationTicks": 61,
          "midi": 62,
          "name": "D4",
          "ticks": 106992,
          "time": 354.7883605625001,
          "velocity": 0.8818897637795275
        },
        {
          "duration": 0.1588537695312766,
          "durationTicks": 61,
          "midi": 55,
          "name": "G3",
          "ticks": 107056,
          "time": 354.9550268125,
          "velocity": 0.8818897637795275
        },
        {
          "duration": 0.15885376953121977,
          "durationTicks": 61,
          "midi": 62,
          "name": "D4",
          "ticks": 107120,
          "time": 355.12169306250007,
          "velocity": 0.8818897637795275
        },
        {
          "duration": 0.1588537695312766,
          "durationTicks": 61,
          "midi": 52,
          "name": "E3",
          "ticks": 107184,
          "time": 355.28835931250006,
          "velocity": 0.8818897637795275
        },
        {
          "duration": 0.15885376953121977,
          "durationTicks": 61,
          "midi": 61,
          "name": "C#4",
          "ticks": 107248,
          "time": 355.45502556250005,
          "velocity": 0.8818897637795275
        },
        {
          "duration": 0.15885376953121977,
          "durationTicks": 61,
          "midi": 53,
          "name": "F3",
          "ticks": 107312,
          "time": 355.6216918125001,
          "velocity": 0.8818897637795275
        },
        {
          "duration": 0.1588537695312766,
          "durationTicks": 61,
          "midi": 62,
          "name": "D4",
          "ticks": 107376,
          "time": 355.78835806250004,
          "velocity": 0.8818897637795275
        },
        {
          "duration": 0.15885376953121977,
          "durationTicks": 61,
          "midi": 50,
          "name": "D3",
          "ticks": 107440,
          "time": 355.9550243125001,
          "velocity": 0.8818897637795275
        },
        {
          "duration": 0.1588537695312766,
          "durationTicks": 61,
          "midi": 62,
          "name": "D4",
          "ticks": 107504,
          "time": 356.1216905625,
          "velocity": 0.8818897637795275
        },
        {
          "duration": 11.302055078125022,
          "durationTicks": 4340,
          "midi": 57,
          "name": "A3",
          "ticks": 107568,
          "time": 356.28835681250007,
          "velocity": 0.8818897637795275
        },
        {
          "duration": 0.15885376953121977,
          "durationTicks": 61,
          "midi": 67,
          "name": "G4",
          "ticks": 113776,
          "time": 372.4549830625001,
          "velocity": 0.8818897637795275
        },
        {
          "duration": 0.1588537695312766,
          "durationTicks": 61,
          "midi": 65,
          "name": "F4",
          "ticks": 113840,
          "time": 372.62164931250004,
          "velocity": 0.8818897637795275
        },
        {
          "duration": 0.15885376953121977,
          "durationTicks": 61,
          "midi": 64,
          "name": "E4",
          "ticks": 113904,
          "time": 372.7883155625001,
          "velocity": 0.8818897637795275
        },
        {
          "duration": 0.1588537695312766,
          "durationTicks": 61,
          "midi": 65,
          "name": "F4",
          "ticks": 113968,
          "time": 372.9549818125,
          "velocity": 0.8818897637795275
        },
        {
          "duration": 0.15885376953121977,
          "durationTicks": 61,
          "midi": 61,
          "name": "C#4",
          "ticks": 114032,
          "time": 373.12164806250007,
          "velocity": 0.8818897637795275
        },
        {
          "duration": 0.9687475781250328,
          "durationTicks": 372,
          "midi": 62,
          "name": "D4",
          "ticks": 114096,
          "time": 373.28831431250006,
          "velocity": 0.8818897637795275
        },
        {
          "duration": 0.6354150781249928,
          "durationTicks": 244,
          "midi": 61,
          "name": "C#4",
          "ticks": 114480,
          "time": 374.28831181250007,
          "velocity": 0.8818897637795275
        },
        {
          "duration": 0.1588537695312766,
          "durationTicks": 61,
          "midi": 62,
          "name": "D4",
          "ticks": 114736,
          "time": 374.95497681250004,
          "velocity": 0.8818897637795275
        },
        {
          "duration": 0.15885376953121977,
          "durationTicks": 61,
          "midi": 69,
          "name": "A4",
          "ticks": 114800,
          "time": 375.1216430625001,
          "velocity": 0.8818897637795275
        },
        {
          "duration": 0.1588537695312766,
          "durationTicks": 61,
          "midi": 71,
          "name": "B4",
          "ticks": 114864,
          "time": 375.2883093125001,
          "velocity": 0.8818897637795275
        },
        {
          "duration": 0.15885376953121977,
          "durationTicks": 61,
          "midi": 73,
          "name": "C#5",
          "ticks": 114928,
          "time": 375.45497556250007,
          "velocity": 0.8818897637795275
        },
        {
          "duration": 0.3177075390624964,
          "durationTicks": 122,
          "midi": 74,
          "name": "D5",
          "ticks": 114992,
          "time": 375.62164181250006,
          "velocity": 0.8818897637795275
        },
        {
          "duration": 0.31770753906243954,
          "durationTicks": 122,
          "midi": 72,
          "name": "C5",
          "ticks": 115120,
          "time": 375.9549743125001,
          "velocity": 0.8818897637795275
        },
        {
          "duration": 0.950518457031194,
          "durationTicks": 365,
          "midi": 65,
          "name": "F4",
          "ticks": 115248,
          "time": 376.2883068125001,
          "velocity": 0.8818897637795275
        },
        {
          "duration": 0.4921862695313166,
          "durationTicks": 189,
          "midi": 63,
          "name": "D#4",
          "ticks": 115632,
          "time": 377.28830431250003,
          "velocity": 0.8818897637795275
        },
        {
          "duration": 0.15885376953121977,
          "durationTicks": 61,
          "midi": 60,
          "name": "C4",
          "ticks": 115824,
          "time": 377.78830306250006,
          "velocity": 0.8818897637795275
        },
        {
          "duration": 0.1588537695312766,
          "durationTicks": 61,
          "midi": 57,
          "name": "A3",
          "ticks": 115888,
          "time": 377.95496931250005,
          "velocity": 0.8818897637795275
        },
        {
          "duration": 0.1588537695312766,
          "durationTicks": 61,
          "midi": 53,
          "name": "F3",
          "ticks": 115952,
          "time": 378.12163556250005,
          "velocity": 0.8818897637795275
        },
        {
          "duration": 0.15885376953121977,
          "durationTicks": 61,
          "midi": 57,
          "name": "A3",
          "ticks": 116016,
          "time": 378.2883018125001,
          "velocity": 0.8818897637795275
        },
        {
          "duration": 0.1588537695312766,
          "durationTicks": 61,
          "midi": 60,
          "name": "C4",
          "ticks": 116080,
          "time": 378.45496806250003,
          "velocity": 0.8818897637795275
        },
        {
          "duration": 0.15885376953121977,
          "durationTicks": 61,
          "midi": 63,
          "name": "D#4",
          "ticks": 116144,
          "time": 378.6216343125001,
          "velocity": 0.8818897637795275
        },
        {
          "duration": 0.1588537695312766,
          "durationTicks": 61,
          "midi": 60,
          "name": "C4",
          "ticks": 116208,
          "time": 378.78830056250007,
          "velocity": 0.8818897637795275
        },
        {
          "duration": 0.15885376953121977,
          "durationTicks": 61,
          "midi": 62,
          "name": "D4",
          "ticks": 116272,
          "time": 378.95496681250006,
          "velocity": 0.8818897637795275
        },
        {
          "duration": 0.1588537695312766,
          "durationTicks": 61,
          "midi": 58,
          "name": "A#3",
          "ticks": 116336,
          "time": 379.12163306250005,
          "velocity": 0.8818897637795275
        },
        {
          "duration": 0.1588537695312766,
          "durationTicks": 61,
          "midi": 55,
          "name": "G3",
          "ticks": 116400,
          "time": 379.28829931250004,
          "velocity": 0.8818897637795275
        },
        {
          "duration": 0.15885376953121977,
          "durationTicks": 61,
          "midi": 50,
          "name": "D3",
          "ticks": 116464,
          "time": 379.4549655625001,
          "velocity": 0.8818897637795275
        },
        {
          "duration": 0.1588537695312766,
          "durationTicks": 61,
          "midi": 55,
          "name": "G3",
          "ticks": 116528,
          "time": 379.6216318125,
          "velocity": 0.8818897637795275
        },
        {
          "duration": 0.15885376953121977,
          "durationTicks": 61,
          "midi": 58,
          "name": "A#3",
          "ticks": 116592,
          "time": 379.7882980625001,
          "velocity": 0.8818897637795275
        },
        {
          "duration": 0.1588537695312766,
          "durationTicks": 61,
          "midi": 62,
          "name": "D4",
          "ticks": 116656,
          "time": 379.95496431250007,
          "velocity": 0.8818897637795275
        },
        {
          "duration": 0.15885376953121977,
          "durationTicks": 61,
          "midi": 67,
          "name": "G4",
          "ticks": 116720,
          "time": 380.12163056250006,
          "velocity": 0.8818897637795275
        },
        {
          "duration": 0.1588537695312766,
          "durationTicks": 61,
          "midi": 60,
          "name": "C4",
          "ticks": 116784,
          "time": 380.28829681250005,
          "velocity": 0.8818897637795275
        },
        {
          "duration": 0.1588537695312766,
          "durationTicks": 61,
          "midi": 62,
          "name": "D4",
          "ticks": 116848,
          "time": 380.45496306250004,
          "velocity": 0.8818897637795275
        },
        {
          "duration": 0.15885376953121977,
          "durationTicks": 61,
          "midi": 58,
          "name": "A#3",
          "ticks": 116912,
          "time": 380.6216293125001,
          "velocity": 0.8818897637795275
        },
        {
          "duration": 0.1588537695312766,
          "durationTicks": 61,
          "midi": 60,
          "name": "C4",
          "ticks": 116976,
          "time": 380.7882955625,
          "velocity": 0.8818897637795275
        },
        {
          "duration": 0.15885376953121977,
          "durationTicks": 61,
          "midi": 57,
          "name": "A3",
          "ticks": 117040,
          "time": 380.9549618125001,
          "velocity": 0.8818897637795275
        },
        {
          "duration": 0.1588537695312766,
          "durationTicks": 61,
          "midi": 55,
          "name": "G3",
          "ticks": 117104,
          "time": 381.12162806250006,
          "velocity": 0.8818897637795275
        },
        {
          "duration": 0.15885376953121977,
          "durationTicks": 61,
          "midi": 54,
          "name": "F#3",
          "ticks": 117168,
          "time": 381.28829431250006,
          "velocity": 0.8818897637795275
        },
        {
          "duration": 0.15885376953121977,
          "durationTicks": 61,
          "midi": 52,
          "name": "E3",
          "ticks": 117232,
          "time": 381.4549605625001,
          "velocity": 0.8818897637795275
        },
        {
          "duration": 0.1588537695312766,
          "durationTicks": 61,
          "midi": 54,
          "name": "F#3",
          "ticks": 117296,
          "time": 381.62162681250004,
          "velocity": 0.8818897637795275
        },
        {
          "duration": 0.15885376953121977,
          "durationTicks": 61,
          "midi": 50,
          "name": "D3",
          "ticks": 117360,
          "time": 381.7882930625001,
          "velocity": 0.8818897637795275
        },
        {
          "duration": 0.15885376953133346,
          "durationTicks": 61,
          "midi": 54,
          "name": "F#3",
          "ticks": 117424,
          "time": 381.9549593125,
          "velocity": 0.8818897637795275
        },
        {
          "duration": 0.15885376953121977,
          "durationTicks": 61,
          "midi": 55,
          "name": "G3",
          "ticks": 117488,
          "time": 382.12162556250007,
          "velocity": 0.8818897637795275
        },
        {
          "duration": 0.1588537695312766,
          "durationTicks": 61,
          "midi": 57,
          "name": "A3",
          "ticks": 117552,
          "time": 382.28829181250006,
          "velocity": 0.8818897637795275
        },
        {
          "duration": 0.15885376953121977,
          "durationTicks": 61,
          "midi": 62,
          "name": "D4",
          "ticks": 117616,
          "time": 382.45495806250005,
          "velocity": 0.8818897637795275
        },
        {
          "duration": 0.15885376953121977,
          "durationTicks": 61,
          "midi": 57,
          "name": "A3",
          "ticks": 117680,
          "time": 382.6216243125001,
          "velocity": 0.8818897637795275
        },
        {
          "duration": 0.1588537695312766,
          "durationTicks": 61,
          "midi": 55,
          "name": "G3",
          "ticks": 117744,
          "time": 382.78829056250004,
          "velocity": 0.8818897637795275
        },
        {
          "duration": 0.15885376953121977,
          "durationTicks": 61,
          "midi": 54,
          "name": "F#3",
          "ticks": 117808,
          "time": 382.9549568125001,
          "velocity": 0.8818897637795275
        },
        {
          "duration": 0.1588537695312766,
          "durationTicks": 61,
          "midi": 50,
          "name": "D3",
          "ticks": 117872,
          "time": 383.1216230625001,
          "velocity": 0.8818897637795275
        },
        {
          "duration": 0.15885376953121977,
          "durationTicks": 61,
          "midi": 54,
          "name": "F#3",
          "ticks": 117936,
          "time": 383.28828931250007,
          "velocity": 0.8818897637795275
        },
        {
          "duration": 0.1588537695312766,
          "durationTicks": 61,
          "midi": 55,
          "name": "G3",
          "ticks": 118000,
          "time": 383.45495556250006,
          "velocity": 0.8818897637795275
        },
        {
          "duration": 0.15885376953121977,
          "durationTicks": 61,
          "midi": 57,
          "name": "A3",
          "ticks": 118064,
          "time": 383.62162181250005,
          "velocity": 0.8818897637795275
        },
        {
          "duration": 0.15885376953121977,
          "durationTicks": 61,
          "midi": 62,
          "name": "D4",
          "ticks": 118128,
          "time": 383.7882880625001,
          "velocity": 0.8818897637795275
        },
        {
          "duration": 0.1588537695312766,
          "durationTicks": 61,
          "midi": 57,
          "name": "A3",
          "ticks": 118192,
          "time": 383.95495431250004,
          "velocity": 0.8818897637795275
        },
        {
          "duration": 0.15885376953121977,
          "durationTicks": 61,
          "midi": 54,
          "name": "F#3",
          "ticks": 118256,
          "time": 384.1216205625001,
          "velocity": 0.8818897637795275
        },
        {
          "duration": 0.1588537695312766,
          "durationTicks": 61,
          "midi": 55,
          "name": "G3",
          "ticks": 118320,
          "time": 384.2882868125001,
          "velocity": 0.8818897637795275
        },
        {
          "duration": 0.15885376953121977,
          "durationTicks": 61,
          "midi": 50,
          "name": "D3",
          "ticks": 118384,
          "time": 384.45495306250007,
          "velocity": 0.8818897637795275
        },
        {
          "duration": 0.1588537695312766,
          "durationTicks": 61,
          "midi": 55,
          "name": "G3",
          "ticks": 118448,
          "time": 384.62161931250006,
          "velocity": 0.8818897637795275
        },
        {
          "duration": 0.1588537695312766,
          "durationTicks": 61,
          "midi": 57,
          "name": "A3",
          "ticks": 118512,
          "time": 384.78828556250005,
          "velocity": 0.8818897637795275
        },
        {
          "duration": 0.15885376953121977,
          "durationTicks": 61,
          "midi": 58,
          "name": "A#3",
          "ticks": 118576,
          "time": 384.9549518125001,
          "velocity": 0.8818897637795275
        },
        {
          "duration": 0.1588537695312766,
          "durationTicks": 61,
          "midi": 62,
          "name": "D4",
          "ticks": 118640,
          "time": 385.12161806250003,
          "velocity": 0.8818897637795275
        },
        {
          "duration": 0.15885376953121977,
          "durationTicks": 61,
          "midi": 58,
          "name": "A#3",
          "ticks": 118704,
          "time": 385.2882843125001,
          "velocity": 0.8818897637795275
        },
        {
          "duration": 0.1588537695312766,
          "durationTicks": 61,
          "midi": 57,
          "name": "A3",
          "ticks": 118768,
          "time": 385.4549505625001,
          "velocity": 0.8818897637795275
        },
        {
          "duration": 0.15885376953121977,
          "durationTicks": 61,
          "midi": 55,
          "name": "G3",
          "ticks": 118832,
          "time": 385.62161681250006,
          "velocity": 0.8818897637795275
        },
        {
          "duration": 0.1588537695312766,
          "durationTicks": 61,
          "midi": 50,
          "name": "D3",
          "ticks": 118896,
          "time": 385.78828306250006,
          "velocity": 0.8818897637795275
        },
        {
          "duration": 0.1588537695312766,
          "durationTicks": 61,
          "midi": 55,
          "name": "G3",
          "ticks": 118960,
          "time": 385.95494931250005,
          "velocity": 0.8818897637795275
        },
        {
          "duration": 0.15885376953121977,
          "durationTicks": 61,
          "midi": 57,
          "name": "A3",
          "ticks": 119024,
          "time": 386.1216155625001,
          "velocity": 0.8818897637795275
        },
        {
          "duration": 0.1588537695312766,
          "durationTicks": 61,
          "midi": 58,
          "name": "A#3",
          "ticks": 119088,
          "time": 386.28828181250003,
          "velocity": 0.8818897637795275
        },
        {
          "duration": 0.15885376953121977,
          "durationTicks": 61,
          "midi": 62,
          "name": "D4",
          "ticks": 119152,
          "time": 386.4549480625001,
          "velocity": 0.8818897637795275
        },
        {
          "duration": 0.1588537695312766,
          "durationTicks": 61,
          "midi": 60,
          "name": "C4",
          "ticks": 119216,
          "time": 386.62161431250007,
          "velocity": 0.8818897637795275
        },
        {
          "duration": 0.15885376953121977,
          "durationTicks": 61,
          "midi": 58,
          "name": "A#3",
          "ticks": 119280,
          "time": 386.78828056250006,
          "velocity": 0.8818897637795275
        },
        {
          "duration": 0.1588537695312766,
          "durationTicks": 61,
          "midi": 57,
          "name": "A3",
          "ticks": 119344,
          "time": 386.95494681250005,
          "velocity": 0.8818897637795275
        },
        {
          "duration": 0.1588537695312766,
          "durationTicks": 61,
          "midi": 54,
          "name": "F#3",
          "ticks": 119408,
          "time": 387.12161306250005,
          "velocity": 0.8818897637795275
        },
        {
          "duration": 0.15885376953121977,
          "durationTicks": 61,
          "midi": 57,
          "name": "A3",
          "ticks": 119472,
          "time": 387.2882793125001,
          "velocity": 0.8818897637795275
        },
        {
          "duration": 0.1588537695312766,
          "durationTicks": 61,
          "midi": 58,
          "name": "A#3",
          "ticks": 119536,
          "time": 387.45494556250003,
          "velocity": 0.8818897637795275
        },
        {
          "duration": 0.1588537695312766,
          "durationTicks": 61,
          "midi": 57,
          "name": "A3",
          "ticks": 119856,
          "time": 388.28827681250004,
          "velocity": 0.8818897637795275
        },
        {
          "duration": 0.15885376953121977,
          "durationTicks": 61,
          "midi": 54,
          "name": "F#3",
          "ticks": 119920,
          "time": 388.4549430625001,
          "velocity": 0.8818897637795275
        },
        {
          "duration": 0.1588537695312766,
          "durationTicks": 61,
          "midi": 57,
          "name": "A3",
          "ticks": 119984,
          "time": 388.6216093125,
          "velocity": 0.8818897637795275
        },
        {
          "duration": 0.15885376953121977,
          "durationTicks": 61,
          "midi": 58,
          "name": "A#3",
          "ticks": 120048,
          "time": 388.7882755625001,
          "velocity": 0.8818897637795275
        },
        {
          "duration": 0.15885376953121977,
          "durationTicks": 61,
          "midi": 57,
          "name": "A3",
          "ticks": 120368,
          "time": 389.6216068125001,
          "velocity": 0.8818897637795275
        },
        {
          "duration": 0.1588537695312766,
          "durationTicks": 61,
          "midi": 58,
          "name": "A#3",
          "ticks": 120432,
          "time": 389.7882730625,
          "velocity": 0.8818897637795275
        },
        {
          "duration": 0.15885376953121977,
          "durationTicks": 61,
          "midi": 62,
          "name": "D4",
          "ticks": 120496,
          "time": 389.9549393125001,
          "velocity": 0.8818897637795275
        },
        {
          "duration": 0.1588537695312766,
          "durationTicks": 61,
          "midi": 66,
          "name": "F#4",
          "ticks": 120560,
          "time": 390.12160556250006,
          "velocity": 0.8818897637795275
        },
        {
          "duration": 0.15885376953133346,
          "durationTicks": 61,
          "midi": 58,
          "name": "A#3",
          "ticks": 120880,
          "time": 390.9549368125,
          "velocity": 0.8818897637795275
        },
        {
          "duration": 0.15885376953121977,
          "durationTicks": 61,
          "midi": 55,
          "name": "G3",
          "ticks": 120944,
          "time": 391.12160306250007,
          "velocity": 0.8818897637795275
        },
        {
          "duration": 0.1588537695312766,
          "durationTicks": 61,
          "midi": 58,
          "name": "A#3",
          "ticks": 121008,
          "time": 391.28826931250006,
          "velocity": 0.8818897637795275
        },
        {
          "duration": 0.15885376953121977,
          "durationTicks": 61,
          "midi": 62,
          "name": "D4",
          "ticks": 121072,
          "time": 391.45493556250005,
          "velocity": 0.8818897637795275
        },
        {
          "duration": 0.15885376953121977,
          "durationTicks": 61,
          "midi": 60,
          "name": "C4",
          "ticks": 121392,
          "time": 392.28826681250007,
          "velocity": 0.8818897637795275
        },
        {
          "duration": 0.1588537695312766,
          "durationTicks": 61,
          "midi": 57,
          "name": "A3",
          "ticks": 121456,
          "time": 392.45493306250006,
          "velocity": 0.8818897637795275
        },
        {
          "duration": 0.1588537695312766,
          "durationTicks": 61,
          "midi": 60,
          "name": "C4",
          "ticks": 121520,
          "time": 392.62159931250005,
          "velocity": 0.8818897637795275
        },
        {
          "duration": 0.15885376953121977,
          "durationTicks": 61,
          "midi": 63,
          "name": "D#4",
          "ticks": 121584,
          "time": 392.7882655625001,
          "velocity": 0.8818897637795275
        },
        {
          "duration": 0.1588537695312766,
          "durationTicks": 61,
          "midi": 60,
          "name": "C4",
          "ticks": 121904,
          "time": 393.62159681250006,
          "velocity": 0.8818897637795275
        },
        {
          "duration": 0.1588537695312766,
          "durationTicks": 61,
          "midi": 57,
          "name": "A3",
          "ticks": 121968,
          "time": 393.78826306250005,
          "velocity": 0.8818897637795275
        },
        {
          "duration": 0.15885376953121977,
          "durationTicks": 61,
          "midi": 60,
          "name": "C4",
          "ticks": 122032,
          "time": 393.9549293125001,
          "velocity": 0.8818897637795275
        },
        {
          "duration": 0.1588537695312766,
          "durationTicks": 61,
          "midi": 63,
          "name": "D#4",
          "ticks": 122096,
          "time": 394.12159556250003,
          "velocity": 0.8818897637795275
        },
        {
          "duration": 0.3177075390625532,
          "durationTicks": 122,
          "midi": 54,
          "name": "F#3",
          "ticks": 122416,
          "time": 394.95492681250005,
          "velocity": 0.8818897637795275
        },
        {
          "duration": 0.3177075390624964,
          "durationTicks": 122,
          "midi": 55,
          "name": "G3",
          "ticks": 122672,
          "time": 395.62159181250007,
          "velocity": 0.8818897637795275
        },
        {
          "duration": 0.3177075390624964,
          "durationTicks": 122,
          "midi": 57,
          "name": "A3",
          "ticks": 122800,
          "time": 395.95492431250005,
          "velocity": 0.8818897637795275
        },
        {
          "duration": 0.6354150781249928,
          "durationTicks": 244,
          "midi": 58,
          "name": "A#3",
          "ticks": 122928,
          "time": 396.2882568125001,
          "velocity": 0.8818897637795275
        },
        {
          "duration": 0.3177075390624964,
          "durationTicks": 122,
          "midi": 63,
          "name": "D#4",
          "ticks": 123184,
          "time": 396.95492181250006,
          "velocity": 0.8818897637795275
        },
        {
          "duration": 0.3177075390625532,
          "durationTicks": 122,
          "midi": 59,
          "name": "B3",
          "ticks": 123312,
          "time": 397.28825431250004,
          "velocity": 0.8818897637795275
        },
        {
          "duration": 0.6354150781250496,
          "durationTicks": 244,
          "midi": 55,
          "name": "G3",
          "ticks": 123440,
          "time": 397.6215868125,
          "velocity": 0.8818897637795275
        },
        {
          "duration": 0.31770753906243954,
          "durationTicks": 122,
          "midi": 60,
          "name": "C4",
          "ticks": 123696,
          "time": 398.2882518125001,
          "velocity": 0.8818897637795275
        },
        {
          "duration": 0.31770753906243954,
          "durationTicks": 122,
          "midi": 58,
          "name": "A#3",
          "ticks": 123824,
          "time": 398.6215843125001,
          "velocity": 0.8818897637795275
        },
        {
          "duration": 0.6354150781249928,
          "durationTicks": 244,
          "midi": 57,
          "name": "A3",
          "ticks": 123952,
          "time": 398.9549168125001,
          "velocity": 0.8818897637795275
        },
        {
          "duration": 0.3177075390625532,
          "durationTicks": 122,
          "midi": 58,
          "name": "A#3",
          "ticks": 124208,
          "time": 399.62158181250004,
          "velocity": 0.8818897637795275
        },
        {
          "duration": 0.3177075390624964,
          "durationTicks": 122,
          "midi": 60,
          "name": "C4",
          "ticks": 124336,
          "time": 399.9549143125001,
          "velocity": 0.8818897637795275
        },
        {
          "duration": 0.1588537695312766,
          "durationTicks": 61,
          "midi": 62,
          "name": "D4",
          "ticks": 124464,
          "time": 400.28824681250006,
          "velocity": 0.8818897637795275
        },
        {
          "duration": 0.15885376953121977,
          "durationTicks": 61,
          "midi": 67,
          "name": "G4",
          "ticks": 124528,
          "time": 400.45491306250005,
          "velocity": 0.8818897637795275
        },
        {
          "duration": 0.15885376953121977,
          "durationTicks": 61,
          "midi": 65,
          "name": "F4",
          "ticks": 124592,
          "time": 400.6215793125001,
          "velocity": 0.8818897637795275
        },
        {
          "duration": 0.1588537695312766,
          "durationTicks": 61,
          "midi": 63,
          "name": "D#4",
          "ticks": 124656,
          "time": 400.78824556250004,
          "velocity": 0.8818897637795275
        },
        {
          "duration": 0.15885376953121977,
          "durationTicks": 61,
          "midi": 62,
          "name": "D4",
          "ticks": 124720,
          "time": 400.9549118125001,
          "velocity": 0.8818897637795275
        },
        {
          "duration": 0.1588537695312766,
          "durationTicks": 61,
          "midi": 63,
          "name": "D#4",
          "ticks": 124784,
          "time": 401.1215780625001,
          "velocity": 0.8818897637795275
        },
        {
          "duration": 0.15885376953121977,
          "durationTicks": 61,
          "midi": 62,
          "name": "D4",
          "ticks": 124848,
          "time": 401.28824431250007,
          "velocity": 0.8818897637795275
        },
        {
          "duration": 0.1588537695312766,
          "durationTicks": 61,
          "midi": 60,
          "name": "C4",
          "ticks": 124912,
          "time": 401.45491056250006,
          "velocity": 0.8818897637795275
        },
        {
          "duration": 0.1588537695312766,
          "durationTicks": 61,
          "midi": 58,
          "name": "A#3",
          "ticks": 124976,
          "time": 401.62157681250005,
          "velocity": 0.8818897637795275
        },
        {
          "duration": 0.15885376953121977,
          "durationTicks": 61,
          "midi": 63,
          "name": "D#4",
          "ticks": 125040,
          "time": 401.7882430625001,
          "velocity": 0.8818897637795275
        },
        {
          "duration": 0.1588537695312766,
          "durationTicks": 61,
          "midi": 62,
          "name": "D4",
          "ticks": 125104,
          "time": 401.95490931250004,
          "velocity": 0.8818897637795275
        },
        {
          "duration": 0.15885376953121977,
          "durationTicks": 61,
          "midi": 60,
          "name": "C4",
          "ticks": 125168,
          "time": 402.1215755625001,
          "velocity": 0.8818897637795275
        },
        {
          "duration": 0.1588537695312766,
          "durationTicks": 61,
          "midi": 58,
          "name": "A#3",
          "ticks": 125232,
          "time": 402.2882418125001,
          "velocity": 0.8818897637795275
        },
        {
          "duration": 0.15885376953121977,
          "durationTicks": 61,
          "midi": 60,
          "name": "C4",
          "ticks": 125296,
          "time": 402.45490806250007,
          "velocity": 0.8818897637795275
        },
        {
          "duration": 0.1588537695312766,
          "durationTicks": 61,
          "midi": 58,
          "name": "A#3",
          "ticks": 125360,
          "time": 402.62157431250006,
          "velocity": 0.8818897637795275
        },
        {
          "duration": 0.1588537695312766,
          "durationTicks": 61,
          "midi": 57,
          "name": "A3",
          "ticks": 125424,
          "time": 402.78824056250005,
          "velocity": 0.8818897637795275
        },
        {
          "duration": 0.15885376953121977,
          "durationTicks": 61,
          "midi": 58,
          "name": "A#3",
          "ticks": 125488,
          "time": 402.9549068125001,
          "velocity": 0.8818897637795275
        },
        {
          "duration": 0.1588537695312766,
          "durationTicks": 61,
          "midi": 57,
          "name": "A3",
          "ticks": 125552,
          "time": 403.12157306250003,
          "velocity": 0.8818897637795275
        },
        {
          "duration": 0.15885376953121977,
          "durationTicks": 61,
          "midi": 55,
          "name": "G3",
          "ticks": 125616,
          "time": 403.2882393125001,
          "velocity": 0.8818897637795275
        },
        {
          "duration": 0.1588537695312766,
          "durationTicks": 61,
          "midi": 53,
          "name": "F3",
          "ticks": 125680,
          "time": 403.4549055625001,
          "velocity": 0.8818897637795275
        },
        {
          "duration": 0.3177075390624964,
          "durationTicks": 122,
          "midi": 52,
          "name": "E3",
          "ticks": 125744,
          "time": 403.62157181250006,
          "velocity": 0.8818897637795275
        },
        {
          "duration": 0.3177075390625532,
          "durationTicks": 122,
          "midi": 55,
          "name": "G3",
          "ticks": 125872,
          "time": 403.95490431250005,
          "velocity": 0.8818897637795275
        },
        {
          "duration": 0.1588537695312766,
          "durationTicks": 61,
          "midi": 57,
          "name": "A3",
          "ticks": 126000,
          "time": 404.28823681250003,
          "velocity": 0.8818897637795275
        },
        {
          "duration": 0.15885376953121977,
          "durationTicks": 61,
          "midi": 59,
          "name": "B3",
          "ticks": 126064,
          "time": 404.4549030625001,
          "velocity": 0.8818897637795275
        },
        {
          "duration": 0.1588537695312766,
          "durationTicks": 61,
          "midi": 61,
          "name": "C#4",
          "ticks": 126128,
          "time": 404.62156931250007,
          "velocity": 0.8818897637795275
        },
        {
          "duration": 0.15885376953121977,
          "durationTicks": 61,
          "midi": 62,
          "name": "D4",
          "ticks": 126192,
          "time": 404.78823556250006,
          "velocity": 0.8818897637795275
        },
        {
          "duration": 0.1588537695312766,
          "durationTicks": 61,
          "midi": 64,
          "name": "E4",
          "ticks": 126256,
          "time": 404.95490181250005,
          "velocity": 0.8818897637795275
        },
        {
          "duration": 0.1588537695312766,
          "durationTicks": 61,
          "midi": 65,
          "name": "F4",
          "ticks": 126320,
          "time": 405.12156806250005,
          "velocity": 0.8818897637795275
        },
        {
          "duration": 0.15885376953121977,
          "durationTicks": 61,
          "midi": 67,
          "name": "G4",
          "ticks": 126384,
          "time": 405.2882343125001,
          "velocity": 0.8818897637795275
        },
        {
          "duration": 0.1588537695312766,
          "durationTicks": 61,
          "midi": 69,
          "name": "A4",
          "ticks": 126448,
          "time": 405.45490056250003,
          "velocity": 0.8818897637795275
        },
        {
          "duration": 0.3177075390624964,
          "durationTicks": 122,
          "midi": 70,
          "name": "A#4",
          "ticks": 126512,
          "time": 405.6215668125001,
          "velocity": 0.8818897637795275
        },
        {
          "duration": 0.15885376953121977,
          "durationTicks": 61,
          "midi": 69,
          "name": "A4",
          "ticks": 126640,
          "time": 405.95489931250006,
          "velocity": 0.8818897637795275
        },
        {
          "duration": 0.1588537695312766,
          "durationTicks": 61,
          "midi": 67,
          "name": "G4",
          "ticks": 126704,
          "time": 406.12156556250005,
          "velocity": 0.8818897637795275
        },
        {
          "duration": 0.1588537695312766,
          "durationTicks": 61,
          "midi": 65,
          "name": "F4",
          "ticks": 126768,
          "time": 406.28823181250004,
          "velocity": 0.8818897637795275
        },
        {
          "duration": 0.15885376953121977,
          "durationTicks": 61,
          "midi": 69,
          "name": "A4",
          "ticks": 126832,
          "time": 406.4548980625001,
          "velocity": 0.8818897637795275
        },
        {
          "duration": 0.1588537695312766,
          "durationTicks": 61,
          "midi": 64,
          "name": "E4",
          "ticks": 126896,
          "time": 406.6215643125,
          "velocity": 0.8818897637795275
        },
        {
          "duration": 0.15885376953121977,
          "durationTicks": 61,
          "midi": 69,
          "name": "A4",
          "ticks": 126960,
          "time": 406.7882305625001,
          "velocity": 0.8818897637795275
        },
        {
          "duration": 0.1588537695312766,
          "durationTicks": 61,
          "midi": 62,
          "name": "D4",
          "ticks": 127024,
          "time": 406.95489681250007,
          "velocity": 0.8818897637795275
        },
        {
          "duration": 0.15885376953121977,
          "durationTicks": 61,
          "midi": 69,
          "name": "A4",
          "ticks": 127088,
          "time": 407.12156306250006,
          "velocity": 0.8818897637795275
        },
        {
          "duration": 0.15885376953121977,
          "durationTicks": 61,
          "midi": 61,
          "name": "C#4",
          "ticks": 127152,
          "time": 407.2882293125001,
          "velocity": 0.8818897637795275
        },
        {
          "duration": 0.1588537695312766,
          "durationTicks": 61,
          "midi": 69,
          "name": "A4",
          "ticks": 127216,
          "time": 407.45489556250004,
          "velocity": 0.8818897637795275
        },
        {
          "duration": 0.15885376953121977,
          "durationTicks": 61,
          "midi": 62,
          "name": "D4",
          "ticks": 127280,
          "time": 407.6215618125001,
          "velocity": 0.8818897637795275
        },
        {
          "duration": 0.15885376953133346,
          "durationTicks": 61,
          "midi": 69,
          "name": "A4",
          "ticks": 127344,
          "time": 407.7882280625,
          "velocity": 0.8818897637795275
        },
        {
          "duration": 0.15885376953121977,
          "durationTicks": 61,
          "midi": 64,
          "name": "E4",
          "ticks": 127408,
          "time": 407.9548943125001,
          "velocity": 0.8818897637795275
        },
        {
          "duration": 0.1588537695312766,
          "durationTicks": 61,
          "midi": 69,
          "name": "A4",
          "ticks": 127472,
          "time": 408.12156056250006,
          "velocity": 0.8818897637795275
        },
        {
          "duration": 0.15885376953121977,
          "durationTicks": 61,
          "midi": 65,
          "name": "F4",
          "ticks": 127536,
          "time": 408.28822681250006,
          "velocity": 0.8818897637795275
        },
        {
          "duration": 0.15885376953121977,
          "durationTicks": 61,
          "midi": 69,
          "name": "A4",
          "ticks": 127600,
          "time": 408.4548930625001,
          "velocity": 0.8818897637795275
        },
        {
          "duration": 0.1588537695312766,
          "durationTicks": 61,
          "midi": 57,
          "name": "A3",
          "ticks": 127664,
          "time": 408.62155931250004,
          "velocity": 0.8818897637795275
        },
        {
          "duration": 0.15885376953121977,
          "durationTicks": 61,
          "midi": 69,
          "name": "A4",
          "ticks": 127728,
          "time": 408.7882255625001,
          "velocity": 0.8818897637795275
        },
        {
          "duration": 0.1588537695312766,
          "durationTicks": 61,
          "midi": 59,
          "name": "B3",
          "ticks": 127792,
          "time": 408.9548918125001,
          "velocity": 0.8818897637795275
        },
        {
          "duration": 0.15885376953121977,
          "durationTicks": 61,
          "midi": 69,
          "name": "A4",
          "ticks": 127856,
          "time": 409.12155806250007,
          "velocity": 0.8818897637795275
        },
        {
          "duration": 0.1588537695312766,
          "durationTicks": 61,
          "midi": 61,
          "name": "C#4",
          "ticks": 127920,
          "time": 409.28822431250006,
          "velocity": 0.8818897637795275
        },
        {
          "duration": 0.15885376953121977,
          "durationTicks": 61,
          "midi": 69,
          "name": "A4",
          "ticks": 127984,
          "time": 409.45489056250005,
          "velocity": 0.8818897637795275
        },
        {
          "duration": 0.15885376953121977,
          "durationTicks": 61,
          "midi": 62,
          "name": "D4",
          "ticks": 128048,
          "time": 409.6215568125001,
          "velocity": 0.8818897637795275
        },
        {
          "duration": 0.1588537695312766,
          "durationTicks": 61,
          "midi": 69,
          "name": "A4",
          "ticks": 128112,
          "time": 409.78822306250004,
          "velocity": 0.8818897637795275
        },
        {
          "duration": 0.15885376953121977,
          "durationTicks": 61,
          "midi": 61,
          "name": "C#4",
          "ticks": 128176,
          "time": 409.9548893125001,
          "velocity": 0.8818897637795275
        },
        {
          "duration": 0.1588537695312766,
          "durationTicks": 61,
          "midi": 69,
          "name": "A4",
          "ticks": 128240,
          "time": 410.1215555625001,
          "velocity": 0.8818897637795275
        },
        {
          "duration": 0.15885376953121977,
          "durationTicks": 61,
          "midi": 62,
          "name": "D4",
          "ticks": 128304,
          "time": 410.28822181250007,
          "velocity": 0.8818897637795275
        },
        {
          "duration": 0.1588537695312766,
          "durationTicks": 61,
          "midi": 69,
          "name": "A4",
          "ticks": 128368,
          "time": 410.45488806250006,
          "velocity": 0.8818897637795275
        },
        {
          "duration": 0.1588537695312766,
          "durationTicks": 61,
          "midi": 59,
          "name": "B3",
          "ticks": 128432,
          "time": 410.62155431250005,
          "velocity": 0.8818897637795275
        },
        {
          "duration": 0.15885376953121977,
          "durationTicks": 61,
          "midi": 69,
          "name": "A4",
          "ticks": 128496,
          "time": 410.7882205625001,
          "velocity": 0.8818897637795275
        },
        {
          "duration": 0.3564452929687718,
          "durationTicks": 122,
          "midi": 61,
          "name": "C#4",
          "ticks": 128560,
          "time": 410.95488681250004,
          "velocity": 0.8818897637795275
        },
        {
          "duration": 0.357421875,
          "durationTicks": 122,
          "midi": 62,
          "name": "D4",
          "ticks": 128688,
          "time": 411.3289102304688,
          "velocity": 0.8818897637795275
        },
        {
          "duration": 0.4072261640624788,
          "durationTicks": 122,
          "midi": 67,
          "name": "G4",
          "ticks": 128816,
          "time": 411.7039102304688,
          "velocity": 0.8818897637795275
        },
        {
          "duration": 0.408481734375016,
          "durationTicks": 122,
          "midi": 64,
          "name": "E4",
          "ticks": 128944,
          "time": 412.1312256601563,
          "velocity": 0.8818897637795275
        },
        {
          "duration": 0.4748883828125372,
          "durationTicks": 122,
          "midi": 65,
          "name": "F4",
          "ticks": 129072,
          "time": 412.5597966601563,
          "velocity": 0.8818897637795275
        },
        {
          "duration": 0.4765625,
          "durationTicks": 122,
          "midi": 69,
          "name": "A4",
          "ticks": 129200,
          "time": 413.0581225429688,
          "velocity": 0.8818897637795275
        },
        {
          "duration": 0.5695312500000114,
          "durationTicks": 122,
          "midi": 70,
          "name": "A#4",
          "ticks": 129328,
          "time": 413.5581225429688,
          "velocity": 0.8818897637795275
        },
        {
          "duration": 0.5718749999999773,
          "durationTicks": 122,
          "midi": 69,
          "name": "A4",
          "ticks": 129456,
          "time": 414.1557787929688,
          "velocity": 0.8818897637795275
        },
        {
          "duration": 4.497656249999977,
          "durationTicks": 768,
          "midi": 62,
          "name": "D4",
          "ticks": 129584,
          "time": 414.75577879296884,
          "velocity": 0.8818897637795275
        },
        {
          "duration": 4.497656249999977,
          "durationTicks": 768,
          "midi": 53,
          "name": "F3",
          "ticks": 129584,
          "time": 414.75577879296884,
          "velocity": 0.8818897637795275
        },
        {
          "duration": 4.497656249999977,
          "durationTicks": 768,
          "midi": 58,
          "name": "A#3",
          "ticks": 129584,
          "time": 414.75577879296884,
          "velocity": 0.8818897637795275
        },
        {
          "duration": 0.12109375,
          "durationTicks": 31,
          "midi": 57,
          "name": "A3",
          "ticks": 131536,
          "time": 423.8842944179688,
          "velocity": 0.8818897637795275
        },
        {
          "duration": 0.12109375,
          "durationTicks": 31,
          "midi": 58,
          "name": "A#3",
          "ticks": 131568,
          "time": 424.0092944179688,
          "velocity": 0.8818897637795275
        },
        {
          "duration": 0.12109375,
          "durationTicks": 31,
          "midi": 60,
          "name": "C4",
          "ticks": 131600,
          "time": 424.1342944179688,
          "velocity": 0.8818897637795275
        },
        {
          "duration": 0.12109375,
          "durationTicks": 31,
          "midi": 62,
          "name": "D4",
          "ticks": 131632,
          "time": 424.2592944179688,
          "velocity": 0.8818897637795275
        },
        {
          "duration": 0.12109375,
          "durationTicks": 31,
          "midi": 53,
          "name": "F3",
          "ticks": 131792,
          "time": 424.8842944179688,
          "velocity": 0.8818897637795275
        },
        {
          "duration": 0.12109375,
          "durationTicks": 31,
          "midi": 55,
          "name": "G3",
          "ticks": 131824,
          "time": 425.0092944179688,
          "velocity": 0.8818897637795275
        },
        {
          "duration": 0.12109375,
          "durationTicks": 31,
          "midi": 57,
          "name": "A3",
          "ticks": 131856,
          "time": 425.1342944179688,
          "velocity": 0.8818897637795275
        },
        {
          "duration": 0.12109375,
          "durationTicks": 31,
          "midi": 58,
          "name": "A#3",
          "ticks": 131888,
          "time": 425.2592944179688,
          "velocity": 0.8818897637795275
        },
        {
          "duration": 0.12109375,
          "durationTicks": 31,
          "midi": 57,
          "name": "A3",
          "ticks": 131920,
          "time": 425.3842944179688,
          "velocity": 0.8818897637795275
        },
        {
          "duration": 0.12109375,
          "durationTicks": 31,
          "midi": 58,
          "name": "A#3",
          "ticks": 131952,
          "time": 425.5092944179688,
          "velocity": 0.8818897637795275
        },
        {
          "duration": 0.12109375,
          "durationTicks": 31,
          "midi": 60,
          "name": "C4",
          "ticks": 131984,
          "time": 425.6342944179688,
          "velocity": 0.8818897637795275
        },
        {
          "duration": 0.12109375,
          "durationTicks": 31,
          "midi": 62,
          "name": "D4",
          "ticks": 132016,
          "time": 425.7592944179688,
          "velocity": 0.8818897637795275
        },
        {
          "duration": 0.12109375,
          "durationTicks": 31,
          "midi": 60,
          "name": "C4",
          "ticks": 132048,
          "time": 425.8842944179688,
          "velocity": 0.8818897637795275
        },
        {
          "duration": 0.12109375,
          "durationTicks": 31,
          "midi": 58,
          "name": "A#3",
          "ticks": 132080,
          "time": 426.0092944179688,
          "velocity": 0.8818897637795275
        },
        {
          "duration": 0.12109375,
          "durationTicks": 31,
          "midi": 57,
          "name": "A3",
          "ticks": 132112,
          "time": 426.1342944179688,
          "velocity": 0.8818897637795275
        },
        {
          "duration": 0.12109375,
          "durationTicks": 31,
          "midi": 55,
          "name": "G3",
          "ticks": 132144,
          "time": 426.2592944179688,
          "velocity": 0.8818897637795275
        },
        {
          "duration": 0.13210226171878503,
          "durationTicks": 31,
          "midi": 62,
          "name": "D4",
          "ticks": 132304,
          "time": 426.92868357812506,
          "velocity": 0.8818897637795275
        },
        {
          "duration": 0.1321022617187282,
          "durationTicks": 31,
          "midi": 60,
          "name": "C4",
          "ticks": 132336,
          "time": 427.06504720312506,
          "velocity": 0.8818897637795275
        },
        {
          "duration": 0.1321022617187282,
          "durationTicks": 31,
          "midi": 58,
          "name": "A#3",
          "ticks": 132368,
          "time": 427.20141082812506,
          "velocity": 0.8818897637795275
        },
        {
          "duration": 0.1321022617187282,
          "durationTicks": 31,
          "midi": 57,
          "name": "A3",
          "ticks": 132400,
          "time": 427.33777445312506,
          "velocity": 0.8818897637795275
        },
        {
          "duration": 0.357421875,
          "durationTicks": 61,
          "midi": 55,
          "name": "G3",
          "ticks": 132848,
          "time": 429.4943440429688,
          "velocity": 0.8818897637795275
        },
        {
          "duration": 5.900390625,
          "durationTicks": 756,
          "midi": 61,
          "name": "C#4",
          "ticks": 132912,
          "time": 429.8693440429688,
          "velocity": 0.8818897637795275
        },
        {
          "duration": 1.90625,
          "durationTicks": 244,
          "midi": 62,
          "name": "D4",
          "ticks": 133680,
          "time": 435.8634846679688,
          "velocity": 0.8818897637795275
        },
        {
          "duration": 3.8046875,
          "durationTicks": 487,
          "midi": 59,
          "name": "B3",
          "ticks": 133936,
          "time": 437.8634846679688,
          "velocity": 0.8818897637795275
        },
        {
          "duration": 0.953125,
          "durationTicks": 122,
          "midi": 59,
          "name": "B3",
          "ticks": 135344,
          "time": 447.3634846679688,
          "velocity": 0.8818897637795275
        },
        {
          "duration": 0.953125,
          "durationTicks": 122,
          "midi": 52,
          "name": "E3",
          "ticks": 135344,
          "time": 447.3634846679688,
          "velocity": 0.8818897637795275
        },
        {
          "duration": 0.953125,
          "durationTicks": 122,
          "midi": 56,
          "name": "G#3",
          "ticks": 135344,
          "time": 447.3634846679688,
          "velocity": 0.8818897637795275
        },
        {
          "duration": 10,
          "durationTicks": 1280,
          "midi": 60,
          "name": "C4",
          "ticks": 135472,
          "time": 448.3634846679688,
          "velocity": 0.8818897637795275
        },
        {
          "duration": 10,
          "durationTicks": 1280,
          "midi": 52,
          "name": "E3",
          "ticks": 135472,
          "time": 448.3634846679688,
          "velocity": 0.8818897637795275
        },
        {
          "duration": 3.8046875,
          "durationTicks": 487,
          "midi": 57,
          "name": "A3",
          "ticks": 135472,
          "time": 448.3634846679688,
          "velocity": 0.8818897637795275
        },
        {
          "duration": 6,
          "durationTicks": 768,
          "midi": 55,
          "name": "G3",
          "ticks": 135984,
          "time": 452.3634846679688,
          "velocity": 0.8818897637795275
        },
        {
          "duration": 0.11008499609374667,
          "durationTicks": 31,
          "midi": 60,
          "name": "C4",
          "ticks": 139216,
          "time": 467.12625040625005,
          "velocity": 0.8818897637795275
        },
        {
          "duration": 0.11008499609374667,
          "durationTicks": 31,
          "midi": 59,
          "name": "B3",
          "ticks": 139248,
          "time": 467.2398865312501,
          "velocity": 0.8818897637795275
        },
        {
          "duration": 0.11008499609374667,
          "durationTicks": 31,
          "midi": 57,
          "name": "A3",
          "ticks": 139280,
          "time": 467.35352265625005,
          "velocity": 0.8818897637795275
        },
        {
          "duration": 0.11008499609374667,
          "durationTicks": 31,
          "midi": 56,
          "name": "G#3",
          "ticks": 139312,
          "time": 467.4671587812501,
          "velocity": 0.8818897637795275
        },
        {
          "duration": 0.11008499609374667,
          "durationTicks": 31,
          "midi": 57,
          "name": "A3",
          "ticks": 139440,
          "time": 467.9217032812501,
          "velocity": 0.8818897637795275
        },
        {
          "duration": 0.11718726562503434,
          "durationTicks": 31,
          "midi": 59,
          "name": "B3",
          "ticks": 139568,
          "time": 468.3975545898438,
          "velocity": 0.8818897637795275
        },
        {
          "duration": 0.1171872656249775,
          "durationTicks": 31,
          "midi": 60,
          "name": "C4",
          "ticks": 139696,
          "time": 468.88142458984385,
          "velocity": 0.8818897637795275
        },
        {
          "duration": 0.8935546875,
          "durationTicks": 122,
          "midi": 55,
          "name": "G3",
          "ticks": 140208,
          "time": 471.48204576171884,
          "velocity": 0.8818897637795275
        },
        {
          "duration": 0.8935546875,
          "durationTicks": 122,
          "midi": 57,
          "name": "A3",
          "ticks": 140336,
          "time": 472.41954576171884,
          "velocity": 0.8818897637795275
        },
        {
          "duration": 0.492995328125005,
          "durationTicks": 122,
          "midi": 57,
          "name": "A3",
          "ticks": 140720,
          "time": 474.40137758203133,
          "velocity": 0.8818897637795275
        },
        {
          "duration": 0.492995328125005,
          "durationTicks": 122,
          "midi": 57,
          "name": "A3",
          "ticks": 140848,
          "time": 474.91861858203134,
          "velocity": 0.8818897637795275
        },
        {
          "duration": 0.492995328125005,
          "durationTicks": 122,
          "midi": 57,
          "name": "A3",
          "ticks": 141232,
          "time": 476.4703415820313,
          "velocity": 0.8818897637795275
        },
        {
          "duration": 0.492995328125005,
          "durationTicks": 122,
          "midi": 55,
          "name": "G3",
          "ticks": 141360,
          "time": 476.98758258203134,
          "velocity": 0.8818897637795275
        },
        {
          "duration": 0.12526930468749242,
          "durationTicks": 31,
          "midi": 55,
          "name": "G3",
          "ticks": 141488,
          "time": 477.50482358203135,
          "velocity": 0.8818897637795275
        },
        {
          "duration": 0.12526930468749242,
          "durationTicks": 31,
          "midi": 59,
          "name": "B3",
          "ticks": 141520,
          "time": 477.63413383203135,
          "velocity": 0.8818897637795275
        },
        {
          "duration": 0.12526930468749242,
          "durationTicks": 31,
          "midi": 62,
          "name": "D4",
          "ticks": 141552,
          "time": 477.76344408203136,
          "velocity": 0.8818897637795275
        },
        {
          "duration": 0.492995328125005,
          "durationTicks": 122,
          "midi": 55,
          "name": "G3",
          "ticks": 141744,
          "time": 478.5393055820313,
          "velocity": 0.8818897637795275
        },
        {
          "duration": 0.492995328125005,
          "durationTicks": 122,
          "midi": 55,
          "name": "G3",
          "ticks": 141872,
          "time": 479.05654658203133,
          "velocity": 0.8818897637795275
        },
        {
          "duration": 0.492995328125005,
          "durationTicks": 122,
          "midi": 55,
          "name": "G3",
          "ticks": 142256,
          "time": 480.6082695820313,
          "velocity": 0.8818897637795275
        },
        {
          "duration": 0.492995328125005,
          "durationTicks": 122,
          "midi": 57,
          "name": "A3",
          "ticks": 142384,
          "time": 481.1255105820313,
          "velocity": 0.8818897637795275
        },
        {
          "duration": 0.12526930468749242,
          "durationTicks": 31,
          "midi": 53,
          "name": "F3",
          "ticks": 142512,
          "time": 481.64275158203134,
          "velocity": 0.8818897637795275
        },
        {
          "duration": 0.12526930468749242,
          "durationTicks": 31,
          "midi": 57,
          "name": "A3",
          "ticks": 142544,
          "time": 481.77206183203134,
          "velocity": 0.8818897637795275
        },
        {
          "duration": 0.12526930468749242,
          "durationTicks": 31,
          "midi": 60,
          "name": "C4",
          "ticks": 142576,
          "time": 481.90137208203134,
          "velocity": 0.8818897637795275
        },
        {
          "duration": 0.4929953281249482,
          "durationTicks": 122,
          "midi": 53,
          "name": "F3",
          "ticks": 142768,
          "time": 482.67723358203136,
          "velocity": 0.8818897637795275
        },
        {
          "duration": 0.492995328125005,
          "durationTicks": 122,
          "midi": 53,
          "name": "F3",
          "ticks": 142896,
          "time": 483.1944745820313,
          "velocity": 0.8818897637795275
        },
        {
          "duration": 0.12526930468749242,
          "durationTicks": 31,
          "midi": 53,
          "name": "F3",
          "ticks": 143024,
          "time": 483.71171558203133,
          "velocity": 0.8818897637795275
        },
        {
          "duration": 0.12526930468749242,
          "durationTicks": 31,
          "midi": 58,
          "name": "A#3",
          "ticks": 143056,
          "time": 483.84102583203133,
          "velocity": 0.8818897637795275
        },
        {
          "duration": 0.12526930468749242,
          "durationTicks": 31,
          "midi": 62,
          "name": "D4",
          "ticks": 143088,
          "time": 483.97033608203134,
          "velocity": 0.8818897637795275
        },
        {
          "duration": 0.492995328125005,
          "durationTicks": 122,
          "midi": 53,
          "name": "F3",
          "ticks": 143280,
          "time": 484.74619758203136,
          "velocity": 0.8818897637795275
        },
        {
          "duration": 0.492995328125005,
          "durationTicks": 122,
          "midi": 52,
          "name": "E3",
          "ticks": 143408,
          "time": 485.2634385820313,
          "velocity": 0.8818897637795275
        },
        {
          "duration": 0.13365060156252184,
          "durationTicks": 31,
          "midi": 52,
          "name": "E3",
          "ticks": 143536,
          "time": 485.7806795820313,
          "velocity": 0.8818897637795275
        },
        {
          "duration": 0.1345485976562486,
          "durationTicks": 31,
          "midi": 55,
          "name": "G3",
          "ticks": 143568,
          "time": 485.9186704609376,
          "velocity": 0.8818897637795275
        },
        {
          "duration": 0.1345485976562486,
          "durationTicks": 31,
          "midi": 58,
          "name": "A#3",
          "ticks": 143600,
          "time": 486.0575593359376,
          "velocity": 0.8818897637795275
        },
        {
          "duration": 0.5295138359375073,
          "durationTicks": 122,
          "midi": 52,
          "name": "E3",
          "ticks": 143792,
          "time": 486.8908925859376,
          "velocity": 0.8818897637795275
        },
        {
          "duration": 0.5295138359375073,
          "durationTicks": 122,
          "midi": 54,
          "name": "F#3",
          "ticks": 143920,
          "time": 487.4464480859376,
          "velocity": 0.8818897637795275
        },
        {
          "duration": 0.14427083203128177,
          "durationTicks": 31,
          "midi": 50,
          "name": "D3",
          "ticks": 144048,
          "time": 488.0020035859376,
          "velocity": 0.8818897637795275
        },
        {
          "duration": 0.14531249999998863,
          "durationTicks": 31,
          "midi": 57,
          "name": "A3",
          "ticks": 144080,
          "time": 488.15096191796886,
          "velocity": 0.8818897637795275
        },
        {
          "duration": 0.14531249999998863,
          "durationTicks": 31,
          "midi": 62,
          "name": "D4",
          "ticks": 144112,
          "time": 488.30096191796883,
          "velocity": 0.8818897637795275
        },
        {
          "duration": 0.5718749999999773,
          "durationTicks": 122,
          "midi": 54,
          "name": "F#3",
          "ticks": 144304,
          "time": 489.20096191796887,
          "velocity": 0.8818897637795275
        },
        {
          "duration": 2.4734355937499686,
          "durationTicks": 487,
          "midi": 55,
          "name": "G3",
          "ticks": 144432,
          "time": 489.80096191796883,
          "velocity": 0.8818897637795275
        },
        {
          "duration": 1.2708320625000056,
          "durationTicks": 244,
          "midi": 58,
          "name": "A#3",
          "ticks": 144944,
          "time": 492.4046057148438,
          "velocity": 0.8818897637795275
        },
        {
          "duration": 1.4277343593749947,
          "durationTicks": 244,
          "midi": 57,
          "name": "A3",
          "ticks": 145200,
          "time": 493.73793771484384,
          "velocity": 0.8818897637795275
        },
        {
          "duration": 3.044362312500027,
          "durationTicks": 487,
          "midi": 57,
          "name": "A3",
          "ticks": 145456,
          "time": 495.23598457421883,
          "velocity": 0.8818897637795275
        },
        {
          "duration": 1.6339269375000072,
          "durationTicks": 244,
          "midi": 53,
          "name": "F3",
          "ticks": 145968,
          "time": 498.44775743359384,
          "velocity": 0.8818897637795275
        },
        {
          "duration": 1.9029017656249607,
          "durationTicks": 244,
          "midi": 58,
          "name": "A#3",
          "ticks": 146224,
          "time": 500.16204143359386,
          "velocity": 0.8818897637795275
        },
        {
          "duration": 1.9029017656249607,
          "durationTicks": 244,
          "midi": 55,
          "name": "G3",
          "ticks": 146224,
          "time": 500.16204143359386,
          "velocity": 0.8818897637795275
        },
        {
          "duration": 8.007804515625025,
          "durationTicks": 1536,
          "midi": 57,
          "name": "A3",
          "ticks": 146480,
          "time": 502.1586931992188,
          "velocity": 0.8818897637795275
        },
        {
          "duration": 8.007804515625025,
          "durationTicks": 1536,
          "midi": 53,
          "name": "F3",
          "ticks": 146480,
          "time": 502.1586931992188,
          "velocity": 0.8818897637795275
        }
      ],
      "endOfTrackTicks": 148016
    },
    {
      "channel": 2,
      "controlChanges": {
        "7": [
          {
            "number": 7,
            "ticks": 0,
            "time": 0,
            "value": 0.8740157480314961
          }
        ],
        "10": [
          {
            "number": 10,
            "ticks": 0,
            "time": 0,
            "value": 0.5039370078740157
          }
        ]
      },
      "pitchBends": [],
      "instrument": {
        "family": "organ",
        "name": "church organ",
        "number": 19
      },
      "name": "Pedals",
      "notes": [
        {
          "duration": 11.938563249999998,
          "durationTicks": 967,
          "midi": 26,
          "name": "D1",
          "ticks": 1904,
          "time": 22.9923075,
          "velocity": 0.8818897637795275
        },
        {
          "duration": 4.1221540078125045,
          "durationTicks": 756,
          "midi": 26,
          "name": "D1",
          "ticks": 10128,
          "time": 55.6393738671875,
          "velocity": 0.8818897637795275
        },
        {
          "duration": 2.25,
          "durationTicks": 384,
          "midi": 26,
          "name": "D1",
          "ticks": 11664,
          "time": 64.51934037500001,
          "velocity": 0.8818897637795275
        },
        {
          "duration": 0.5699353359374868,
          "durationTicks": 122,
          "midi": 38,
          "name": "D2",
          "ticks": 16528,
          "time": 83.29226141406252,
          "velocity": 0.8818897637795275
        },
        {
          "duration": 0.5718750000000057,
          "durationTicks": 122,
          "midi": 36,
          "name": "C2",
          "ticks": 16656,
          "time": 83.89032175000001,
          "velocity": 0.8818897637795275
        },
        {
          "duration": 0.7113281250000085,
          "durationTicks": 122,
          "midi": 34,
          "name": "A#1",
          "ticks": 16784,
          "time": 84.49032175,
          "velocity": 0.8818897637795275
        },
        {
          "duration": 1.412109375,
          "durationTicks": 122,
          "midi": 33,
          "name": "A1",
          "ticks": 16912,
          "time": 85.23680612500002,
          "velocity": 0.8818897637795275
        },
        {
          "duration": 0.5701480195312456,
          "durationTicks": 122,
          "midi": 38,
          "name": "D2",
          "ticks": 17552,
          "time": 88.84731073046876,
          "velocity": 0.6299212598425197
        },
        {
          "duration": 0.5718750000000057,
          "durationTicks": 122,
          "midi": 36,
          "name": "C2",
          "ticks": 17680,
          "time": 89.44558375000001,
          "velocity": 0.6299212598425197
        },
        {
          "duration": 0.7113281250000085,
          "durationTicks": 122,
          "midi": 34,
          "name": "A#1",
          "ticks": 17808,
          "time": 90.04558375,
          "velocity": 0.6299212598425197
        },
        {
          "duration": 1.6314157968750038,
          "durationTicks": 244,
          "midi": 33,
          "name": "A1",
          "ticks": 17936,
          "time": 90.79206812500001,
          "velocity": 0.6299212598425197
        },
        {
          "duration": 0.5812499999999972,
          "durationTicks": 122,
          "midi": 38,
          "name": "D2",
          "ticks": 19344,
          "time": 97.55405750000003,
          "velocity": 0.8818897637795275
        },
        {
          "duration": 0.5718750000000057,
          "durationTicks": 122,
          "midi": 36,
          "name": "C2",
          "ticks": 19472,
          "time": 98.16343250000003,
          "velocity": 0.8818897637795275
        },
        {
          "duration": 0.7113281250000085,
          "durationTicks": 122,
          "midi": 34,
          "name": "A#1",
          "ticks": 19600,
          "time": 98.76343250000002,
          "velocity": 0.8818897637795275
        },
        {
          "duration": 0.947265625,
          "durationTicks": 122,
          "midi": 33,
          "name": "A1",
          "ticks": 19728,
          "time": 99.50991687500003,
          "velocity": 0.8818897637795275
        },
        {
          "duration": 0.5705965898437597,
          "durationTicks": 122,
          "midi": 38,
          "name": "D2",
          "ticks": 20368,
          "time": 102.69652891015627,
          "velocity": 0.8818897637795275
        },
        {
          "duration": 0.5718750000000057,
          "durationTicks": 122,
          "midi": 36,
          "name": "C2",
          "ticks": 20496,
          "time": 103.29525050000004,
          "velocity": 0.8818897637795275
        },
        {
          "duration": 0.5718750000000057,
          "durationTicks": 122,
          "midi": 34,
          "name": "A#1",
          "ticks": 20624,
          "time": 103.89525050000003,
          "velocity": 0.8818897637795275
        },
        {
          "duration": 0.7113281249999943,
          "durationTicks": 122,
          "midi": 33,
          "name": "A1",
          "ticks": 20752,
          "time": 104.49525050000004,
          "velocity": 0.8818897637795275
        },
        {
          "duration": 0.71484375,
          "durationTicks": 122,
          "midi": 32,
          "name": "G#1",
          "ticks": 20880,
          "time": 105.24173487500003,
          "velocity": 0.8818897637795275
        },
        {
          "duration": 1.4296875,
          "durationTicks": 244,
          "midi": 31,
          "name": "G1",
          "ticks": 21008,
          "time": 105.99173487500003,
          "velocity": 0.8818897637795275
        },
        {
          "duration": 2.849609375,
          "durationTicks": 487,
          "midi": 43,
          "name": "G2",
          "ticks": 22064,
          "time": 111.54304875000004,
          "velocity": 0.8818897637795275
        },
        {
          "duration": 1.1405047851562529,
          "durationTicks": 244,
          "midi": 43,
          "name": "G2",
          "ticks": 27696,
          "time": 129.05251825781252,
          "velocity": 0.8818897637795275
        },
        {
          "duration": 1.1437500000000114,
          "durationTicks": 244,
          "midi": 41,
          "name": "F2",
          "ticks": 27952,
          "time": 130.24927304296878,
          "velocity": 0.8818897637795275
        },
        {
          "duration": 2.1351562499999943,
          "durationTicks": 365,
          "midi": 46,
          "name": "A#2",
          "ticks": 28208,
          "time": 131.4492730429688,
          "velocity": 0.8818897637795275
        },
        {
          "duration": 0.357421875,
          "durationTicks": 61,
          "midi": 45,
          "name": "A2",
          "ticks": 28592,
          "time": 133.6957574179688,
          "velocity": 0.8818897637795275
        },
        {
          "duration": 0.357421875,
          "durationTicks": 61,
          "midi": 43,
          "name": "G2",
          "ticks": 28656,
          "time": 134.0707574179688,
          "velocity": 0.8818897637795275
        },
        {
          "duration": 1.072265625,
          "durationTicks": 183,
          "midi": 45,
          "name": "A2",
          "ticks": 28720,
          "time": 134.4457574179688,
          "velocity": 0.8818897637795275
        },
        {
          "duration": 0.357421875,
          "durationTicks": 61,
          "midi": 40,
          "name": "E2",
          "ticks": 28912,
          "time": 135.5707574179688,
          "velocity": 0.8818897637795275
        },
        {
          "duration": 0.357421875,
          "durationTicks": 61,
          "midi": 41,
          "name": "F2",
          "ticks": 28976,
          "time": 135.9457574179688,
          "velocity": 0.8818897637795275
        },
        {
          "duration": 0.357421875,
          "durationTicks": 61,
          "midi": 38,
          "name": "D2",
          "ticks": 29040,
          "time": 136.3207574179688,
          "velocity": 0.8818897637795275
        },
        {
          "duration": 0.357421875,
          "durationTicks": 61,
          "midi": 40,
          "name": "E2",
          "ticks": 29104,
          "time": 136.6957574179688,
          "velocity": 0.8818897637795275
        },
        {
          "duration": 0.357421875,
          "durationTicks": 61,
          "midi": 37,
          "name": "C#2",
          "ticks": 29168,
          "time": 137.0707574179688,
          "velocity": 0.8818897637795275
        },
        {
          "duration": 0.357421875,
          "durationTicks": 61,
          "midi": 38,
          "name": "D2",
          "ticks": 29232,
          "time": 137.4457574179688,
          "velocity": 0.8818897637795275
        },
        {
          "duration": 0.357421875,
          "durationTicks": 61,
          "midi": 35,
          "name": "B1",
          "ticks": 29296,
          "time": 137.8207574179688,
          "velocity": 0.8818897637795275
        },
        {
          "duration": 0.357421875,
          "durationTicks": 61,
          "midi": 37,
          "name": "C#2",
          "ticks": 29360,
          "time": 138.1957574179688,
          "velocity": 0.8818897637795275
        },
        {
          "duration": 0.357421875,
          "durationTicks": 61,
          "midi": 33,
          "name": "A1",
          "ticks": 29424,
          "time": 138.5707574179688,
          "velocity": 0.8818897637795275
        },
        {
          "duration": 0.470703125,
          "durationTicks": 61,
          "midi": 34,
          "name": "A#1",
          "ticks": 29488,
          "time": 138.9457574179688,
          "velocity": 0.8818897637795275
        },
        {
          "duration": 0.4765625,
          "durationTicks": 61,
          "midi": 32,
          "name": "G#1",
          "ticks": 29552,
          "time": 139.4398980429688,
          "velocity": 0.8818897637795275
        },
        {
          "duration": 0.4765625,
          "durationTicks": 61,
          "midi": 33,
          "name": "A1",
          "ticks": 29616,
          "time": 139.9398980429688,
          "velocity": 0.8818897637795275
        },
        {
          "duration": 0.5671874999999886,
          "durationTicks": 61,
          "midi": 43,
          "name": "G2",
          "ticks": 29680,
          "time": 140.4398980429688,
          "velocity": 0.8818897637795275
        },
        {
          "duration": 1.143749999999983,
          "durationTicks": 122,
          "midi": 41,
          "name": "F2",
          "ticks": 29744,
          "time": 141.0352105429688,
          "velocity": 0.8818897637795275
        },
        {
          "duration": 1.1437500000000114,
          "durationTicks": 122,
          "midi": 38,
          "name": "D2",
          "ticks": 29872,
          "time": 142.2352105429688,
          "velocity": 0.8818897637795275
        },
        {
          "duration": 2.8523437499999886,
          "durationTicks": 244,
          "midi": 33,
          "name": "A1",
          "ticks": 30000,
          "time": 143.4352105429688,
          "velocity": 0.8818897637795275
        },
        {
          "duration": 6.59765625,
          "durationTicks": 487,
          "midi": 26,
          "name": "D1",
          "ticks": 30256,
          "time": 146.4281792929688,
          "velocity": 0.8818897637795275
        },
        {
          "duration": 0.1588537695312482,
          "durationTicks": 61,
          "midi": 38,
          "name": "D2",
          "ticks": 52848,
          "time": 213.78871306250005,
          "velocity": 0.7637795275590551
        },
        {
          "duration": 0.1588537695312482,
          "durationTicks": 61,
          "midi": 36,
          "name": "C2",
          "ticks": 52912,
          "time": 213.95537931250004,
          "velocity": 0.7637795275590551
        },
        {
          "duration": 0.1588537695312766,
          "durationTicks": 61,
          "midi": 38,
          "name": "D2",
          "ticks": 52976,
          "time": 214.12204556250003,
          "velocity": 0.7637795275590551
        },
        {
          "duration": 0.1588537695312482,
          "durationTicks": 61,
          "midi": 34,
          "name": "A#1",
          "ticks": 53040,
          "time": 214.28871181250005,
          "velocity": 0.7637795275590551
        },
        {
          "duration": 0.1588537695312482,
          "durationTicks": 61,
          "midi": 38,
          "name": "D2",
          "ticks": 53104,
          "time": 214.45537806250005,
          "velocity": 0.7637795275590551
        },
        {
          "duration": 0.15885376953121977,
          "durationTicks": 61,
          "midi": 33,
          "name": "A1",
          "ticks": 53168,
          "time": 214.62204431250007,
          "velocity": 0.7637795275590551
        },
        {
          "duration": 0.1588537695312482,
          "durationTicks": 61,
          "midi": 38,
          "name": "D2",
          "ticks": 53232,
          "time": 214.78871056250006,
          "velocity": 0.7637795275590551
        },
        {
          "duration": 0.1588537695312482,
          "durationTicks": 61,
          "midi": 31,
          "name": "G1",
          "ticks": 53296,
          "time": 214.95537681250005,
          "velocity": 0.7637795275590551
        },
        {
          "duration": 0.1588537695312482,
          "durationTicks": 61,
          "midi": 38,
          "name": "D2",
          "ticks": 53360,
          "time": 215.12204306250004,
          "velocity": 0.7637795275590551
        },
        {
          "duration": 0.1588537695312766,
          "durationTicks": 61,
          "midi": 30,
          "name": "F#1",
          "ticks": 53424,
          "time": 215.28870931250003,
          "velocity": 0.7637795275590551
        },
        {
          "duration": 0.1588537695312482,
          "durationTicks": 61,
          "midi": 38,
          "name": "D2",
          "ticks": 53488,
          "time": 215.45537556250005,
          "velocity": 0.7637795275590551
        },
        {
          "duration": 0.1588537695312482,
          "durationTicks": 61,
          "midi": 31,
          "name": "G1",
          "ticks": 53552,
          "time": 215.62204181250004,
          "velocity": 0.7637795275590551
        },
        {
          "duration": 0.15885376953121977,
          "durationTicks": 61,
          "midi": 38,
          "name": "D2",
          "ticks": 53616,
          "time": 215.78870806250006,
          "velocity": 0.7637795275590551
        },
        {
          "duration": 0.1588537695312482,
          "durationTicks": 61,
          "midi": 33,
          "name": "A1",
          "ticks": 53680,
          "time": 215.95537431250006,
          "velocity": 0.7637795275590551
        },
        {
          "duration": 0.1588537695312482,
          "durationTicks": 61,
          "midi": 38,
          "name": "D2",
          "ticks": 53744,
          "time": 216.12204056250005,
          "velocity": 0.7637795275590551
        },
        {
          "duration": 0.1588537695312766,
          "durationTicks": 61,
          "midi": 34,
          "name": "A#1",
          "ticks": 53808,
          "time": 216.28870681250004,
          "velocity": 0.7637795275590551
        },
        {
          "duration": 0.1588537695312482,
          "durationTicks": 61,
          "midi": 38,
          "name": "D2",
          "ticks": 53872,
          "time": 216.45537306250006,
          "velocity": 0.7637795275590551
        },
        {
          "duration": 0.1588537695312482,
          "durationTicks": 61,
          "midi": 26,
          "name": "D1",
          "ticks": 53936,
          "time": 216.62203931250005,
          "velocity": 0.7637795275590551
        },
        {
          "duration": 0.1588537695312482,
          "durationTicks": 61,
          "midi": 38,
          "name": "D2",
          "ticks": 54000,
          "time": 216.78870556250004,
          "velocity": 0.7637795275590551
        },
        {
          "duration": 0.15885376953121977,
          "durationTicks": 61,
          "midi": 28,
          "name": "E1",
          "ticks": 54064,
          "time": 216.95537181250006,
          "velocity": 0.7637795275590551
        },
        {
          "duration": 0.1588537695312482,
          "durationTicks": 61,
          "midi": 38,
          "name": "D2",
          "ticks": 54128,
          "time": 217.12203806250005,
          "velocity": 0.7637795275590551
        },
        {
          "duration": 0.1588537695312482,
          "durationTicks": 61,
          "midi": 30,
          "name": "F#1",
          "ticks": 54192,
          "time": 217.28870431250004,
          "velocity": 0.7637795275590551
        },
        {
          "duration": 0.1588537695312766,
          "durationTicks": 61,
          "midi": 38,
          "name": "D2",
          "ticks": 54256,
          "time": 217.45537056250004,
          "velocity": 0.7637795275590551
        },
        {
          "duration": 0.1588537695312482,
          "durationTicks": 61,
          "midi": 31,
          "name": "G1",
          "ticks": 54320,
          "time": 217.62203681250006,
          "velocity": 0.7637795275590551
        },
        {
          "duration": 0.1588537695312482,
          "durationTicks": 61,
          "midi": 38,
          "name": "D2",
          "ticks": 54384,
          "time": 217.78870306250005,
          "velocity": 0.7637795275590551
        },
        {
          "duration": 0.1588537695312482,
          "durationTicks": 61,
          "midi": 30,
          "name": "F#1",
          "ticks": 54448,
          "time": 217.95536931250004,
          "velocity": 0.7637795275590551
        },
        {
          "duration": 0.1588537695312482,
          "durationTicks": 61,
          "midi": 38,
          "name": "D2",
          "ticks": 54512,
          "time": 218.12203556250006,
          "velocity": 0.7637795275590551
        },
        {
          "duration": 0.1588537695312482,
          "durationTicks": 61,
          "midi": 31,
          "name": "G1",
          "ticks": 54576,
          "time": 218.28870181250005,
          "velocity": 0.7637795275590551
        },
        {
          "duration": 0.1588537695312482,
          "durationTicks": 61,
          "midi": 38,
          "name": "D2",
          "ticks": 54640,
          "time": 218.45536806250004,
          "velocity": 0.7637795275590551
        },
        {
          "duration": 0.1588537695312766,
          "durationTicks": 61,
          "midi": 33,
          "name": "A1",
          "ticks": 54704,
          "time": 218.62203431250003,
          "velocity": 0.7637795275590551
        },
        {
          "duration": 0.1588537695312482,
          "durationTicks": 61,
          "midi": 38,
          "name": "D2",
          "ticks": 54768,
          "time": 218.78870056250005,
          "velocity": 0.7637795275590551
        },
        {
          "duration": 0.6354150781249928,
          "durationTicks": 244,
          "midi": 34,
          "name": "A#1",
          "ticks": 54832,
          "time": 218.95536681250005,
          "velocity": 0.7637795275590551
        },
        {
          "duration": 0.3177075390624964,
          "durationTicks": 122,
          "midi": 35,
          "name": "B1",
          "ticks": 55216,
          "time": 219.95536431250005,
          "velocity": 0.7637795275590551
        },
        {
          "duration": 0.6354150781249928,
          "durationTicks": 244,
          "midi": 36,
          "name": "C2",
          "ticks": 55344,
          "time": 220.28869681250006,
          "velocity": 0.7637795275590551
        },
        {
          "duration": 0.3177075390624964,
          "durationTicks": 122,
          "midi": 37,
          "name": "C#2",
          "ticks": 55728,
          "time": 221.28869431250007,
          "velocity": 0.7637795275590551
        },
        {
          "duration": 0.6354150781249928,
          "durationTicks": 244,
          "midi": 38,
          "name": "D2",
          "ticks": 55856,
          "time": 221.62202681250005,
          "velocity": 0.7637795275590551
        },
        {
          "duration": 0.3177075390624964,
          "durationTicks": 122,
          "midi": 38,
          "name": "D2",
          "ticks": 56240,
          "time": 222.62202431250006,
          "velocity": 0.7637795275590551
        },
        {
          "duration": 0.6354150781249928,
          "durationTicks": 244,
          "midi": 40,
          "name": "E2",
          "ticks": 56368,
          "time": 222.95535681250004,
          "velocity": 0.7637795275590551
        },
        {
          "duration": 0.3177075390624964,
          "durationTicks": 122,
          "midi": 40,
          "name": "E2",
          "ticks": 56752,
          "time": 223.95535431250005,
          "velocity": 0.7637795275590551
        },
        {
          "duration": 0.3177075390624964,
          "durationTicks": 122,
          "midi": 41,
          "name": "F2",
          "ticks": 56880,
          "time": 224.28868681250003,
          "velocity": 0.7637795275590551
        },
        {
          "duration": 0.3177075390625248,
          "durationTicks": 122,
          "midi": 33,
          "name": "A1",
          "ticks": 57008,
          "time": 224.62201931250004,
          "velocity": 0.7637795275590551
        },
        {
          "duration": 0.3177075390624964,
          "durationTicks": 122,
          "midi": 34,
          "name": "A#1",
          "ticks": 57136,
          "time": 224.95535181250006,
          "velocity": 0.7637795275590551
        },
        {
          "duration": 0.3177075390624964,
          "durationTicks": 122,
          "midi": 38,
          "name": "D2",
          "ticks": 57264,
          "time": 225.28868431250004,
          "velocity": 0.7637795275590551
        },
        {
          "duration": 0.6354150781249928,
          "durationTicks": 244,
          "midi": 31,
          "name": "G1",
          "ticks": 57392,
          "time": 225.62201681250005,
          "velocity": 0.7637795275590551
        },
        {
          "duration": 0.651040039062508,
          "durationTicks": 250,
          "midi": 34,
          "name": "A#1",
          "ticks": 57776,
          "time": 226.62201431250006,
          "velocity": 0.7637795275590551
        },
        {
          "duration": 0.3177075390624964,
          "durationTicks": 122,
          "midi": 33,
          "name": "A1",
          "ticks": 58032,
          "time": 227.28867931250005,
          "velocity": 0.7637795275590551
        },
        {
          "duration": 0.3177075390624964,
          "durationTicks": 122,
          "midi": 31,
          "name": "G1",
          "ticks": 58160,
          "time": 227.62201181250003,
          "velocity": 0.7637795275590551
        },
        {
          "duration": 0.3177075390625248,
          "durationTicks": 122,
          "midi": 36,
          "name": "C2",
          "ticks": 58288,
          "time": 227.95534431250005,
          "velocity": 0.7637795275590551
        },
        {
          "duration": 0.6354150781249928,
          "durationTicks": 244,
          "midi": 29,
          "name": "F1",
          "ticks": 58416,
          "time": 228.28867681250006,
          "velocity": 0.7637795275590551
        },
        {
          "duration": 0.15885376953121977,
          "durationTicks": 61,
          "midi": 43,
          "name": "G2",
          "ticks": 88176,
          "time": 305.78848306250006,
          "velocity": 0.8818897637795275
        },
        {
          "duration": 0.1588537695312766,
          "durationTicks": 61,
          "midi": 41,
          "name": "F2",
          "ticks": 88240,
          "time": 305.95514931250005,
          "velocity": 0.8818897637795275
        },
        {
          "duration": 0.15885376953121977,
          "durationTicks": 61,
          "midi": 43,
          "name": "G2",
          "ticks": 88304,
          "time": 306.12181556250005,
          "velocity": 0.8818897637795275
        },
        {
          "duration": 0.15885376953121977,
          "durationTicks": 61,
          "midi": 39,
          "name": "D#2",
          "ticks": 88368,
          "time": 306.2884818125001,
          "velocity": 0.8818897637795275
        },
        {
          "duration": 0.1588537695312766,
          "durationTicks": 61,
          "midi": 43,
          "name": "G2",
          "ticks": 88432,
          "time": 306.45514806250003,
          "velocity": 0.8818897637795275
        },
        {
          "duration": 0.15885376953121977,
          "durationTicks": 61,
          "midi": 38,
          "name": "D2",
          "ticks": 88496,
          "time": 306.6218143125001,
          "velocity": 0.8818897637795275
        },
        {
          "duration": 0.1588537695312766,
          "durationTicks": 61,
          "midi": 43,
          "name": "G2",
          "ticks": 88560,
          "time": 306.78848056250007,
          "velocity": 0.8818897637795275
        },
        {
          "duration": 0.15885376953121977,
          "durationTicks": 61,
          "midi": 36,
          "name": "C2",
          "ticks": 88624,
          "time": 306.95514681250006,
          "velocity": 0.8818897637795275
        },
        {
          "duration": 0.1588537695312766,
          "durationTicks": 61,
          "midi": 43,
          "name": "G2",
          "ticks": 88688,
          "time": 307.12181306250005,
          "velocity": 0.8818897637795275
        },
        {
          "duration": 0.1588537695312766,
          "durationTicks": 61,
          "midi": 35,
          "name": "B1",
          "ticks": 88752,
          "time": 307.28847931250004,
          "velocity": 0.8818897637795275
        },
        {
          "duration": 0.15885376953121977,
          "durationTicks": 61,
          "midi": 43,
          "name": "G2",
          "ticks": 88816,
          "time": 307.4551455625001,
          "velocity": 0.8818897637795275
        },
        {
          "duration": 0.1588537695312766,
          "durationTicks": 61,
          "midi": 36,
          "name": "C2",
          "ticks": 88880,
          "time": 307.6218118125,
          "velocity": 0.8818897637795275
        },
        {
          "duration": 0.15885376953121977,
          "durationTicks": 61,
          "midi": 43,
          "name": "G2",
          "ticks": 88944,
          "time": 307.7884780625001,
          "velocity": 0.8818897637795275
        },
        {
          "duration": 0.1588537695312766,
          "durationTicks": 61,
          "midi": 38,
          "name": "D2",
          "ticks": 89008,
          "time": 307.95514431250007,
          "velocity": 0.8818897637795275
        },
        {
          "duration": 0.15885376953121977,
          "durationTicks": 61,
          "midi": 43,
          "name": "G2",
          "ticks": 89072,
          "time": 308.12181056250006,
          "velocity": 0.8818897637795275
        },
        {
          "duration": 0.1588537695312766,
          "durationTicks": 61,
          "midi": 39,
          "name": "D#2",
          "ticks": 89136,
          "time": 308.28847681250005,
          "velocity": 0.8818897637795275
        },
        {
          "duration": 0.1588537695312766,
          "durationTicks": 61,
          "midi": 43,
          "name": "G2",
          "ticks": 89200,
          "time": 308.45514306250004,
          "velocity": 0.8818897637795275
        },
        {
          "duration": 0.15885376953121977,
          "durationTicks": 61,
          "midi": 31,
          "name": "G1",
          "ticks": 89264,
          "time": 308.6218093125001,
          "velocity": 0.8818897637795275
        },
        {
          "duration": 0.1588537695312766,
          "durationTicks": 61,
          "midi": 43,
          "name": "G2",
          "ticks": 89328,
          "time": 308.7884755625,
          "velocity": 0.8818897637795275
        },
        {
          "duration": 0.15885376953121977,
          "durationTicks": 61,
          "midi": 33,
          "name": "A1",
          "ticks": 89392,
          "time": 308.9551418125001,
          "velocity": 0.8818897637795275
        },
        {
          "duration": 0.1588537695312766,
          "durationTicks": 61,
          "midi": 43,
          "name": "G2",
          "ticks": 89456,
          "time": 309.12180806250007,
          "velocity": 0.8818897637795275
        },
        {
          "duration": 0.15885376953121977,
          "durationTicks": 61,
          "midi": 35,
          "name": "B1",
          "ticks": 89520,
          "time": 309.28847431250006,
          "velocity": 0.8818897637795275
        },
        {
          "duration": 0.1588537695312766,
          "durationTicks": 61,
          "midi": 43,
          "name": "G2",
          "ticks": 89584,
          "time": 309.45514056250005,
          "velocity": 0.8818897637795275
        },
        {
          "duration": 0.1588537695312766,
          "durationTicks": 61,
          "midi": 36,
          "name": "C2",
          "ticks": 89648,
          "time": 309.62180681250004,
          "velocity": 0.8818897637795275
        },
        {
          "duration": 0.15885376953121977,
          "durationTicks": 61,
          "midi": 43,
          "name": "G2",
          "ticks": 89712,
          "time": 309.7884730625001,
          "velocity": 0.8818897637795275
        },
        {
          "duration": 0.1588537695312766,
          "durationTicks": 61,
          "midi": 35,
          "name": "B1",
          "ticks": 89776,
          "time": 309.9551393125,
          "velocity": 0.8818897637795275
        },
        {
          "duration": 0.15885376953121977,
          "durationTicks": 61,
          "midi": 43,
          "name": "G2",
          "ticks": 89840,
          "time": 310.12180556250007,
          "velocity": 0.8818897637795275
        },
        {
          "duration": 0.1588537695312766,
          "durationTicks": 61,
          "midi": 36,
          "name": "C2",
          "ticks": 89904,
          "time": 310.28847181250006,
          "velocity": 0.8818897637795275
        },
        {
          "duration": 0.15885376953121977,
          "durationTicks": 61,
          "midi": 43,
          "name": "G2",
          "ticks": 89968,
          "time": 310.45513806250005,
          "velocity": 0.8818897637795275
        },
        {
          "duration": 0.1588537695312766,
          "durationTicks": 61,
          "midi": 38,
          "name": "D2",
          "ticks": 90032,
          "time": 310.62180431250005,
          "velocity": 0.8818897637795275
        },
        {
          "duration": 0.1588537695312766,
          "durationTicks": 61,
          "midi": 43,
          "name": "G2",
          "ticks": 90096,
          "time": 310.78847056250004,
          "velocity": 0.8818897637795275
        },
        {
          "duration": 0.31770753906243954,
          "durationTicks": 122,
          "midi": 39,
          "name": "D#2",
          "ticks": 90160,
          "time": 310.9551368125001,
          "velocity": 0.8818897637795275
        },
        {
          "duration": 0.3177075390624964,
          "durationTicks": 122,
          "midi": 38,
          "name": "D2",
          "ticks": 90288,
          "time": 311.28846931250007,
          "velocity": 0.8818897637795275
        },
        {
          "duration": 0.3177075390624964,
          "durationTicks": 122,
          "midi": 36,
          "name": "C2",
          "ticks": 90416,
          "time": 311.62180181250005,
          "velocity": 0.8818897637795275
        },
        {
          "duration": 0.3177075390625532,
          "durationTicks": 122,
          "midi": 35,
          "name": "B1",
          "ticks": 90544,
          "time": 311.95513431250004,
          "velocity": 0.8818897637795275
        },
        {
          "duration": 0.3177075390625532,
          "durationTicks": 122,
          "midi": 36,
          "name": "C2",
          "ticks": 90672,
          "time": 312.2884668125,
          "velocity": 0.8818897637795275
        },
        {
          "duration": 0.3177075390624964,
          "durationTicks": 122,
          "midi": 38,
          "name": "D2",
          "ticks": 90800,
          "time": 312.62179931250006,
          "velocity": 0.8818897637795275
        },
        {
          "duration": 0.31770753906243954,
          "durationTicks": 122,
          "midi": 39,
          "name": "D#2",
          "ticks": 90928,
          "time": 312.9551318125001,
          "velocity": 0.8818897637795275
        },
        {
          "duration": 0.31770753906243954,
          "durationTicks": 122,
          "midi": 41,
          "name": "F2",
          "ticks": 91056,
          "time": 313.2884643125001,
          "velocity": 0.8818897637795275
        },
        {
          "duration": 0.3177075390624964,
          "durationTicks": 122,
          "midi": 43,
          "name": "G2",
          "ticks": 91184,
          "time": 313.62179681250007,
          "velocity": 0.8818897637795275
        },
        {
          "duration": 0.3177075390624964,
          "durationTicks": 122,
          "midi": 35,
          "name": "B1",
          "ticks": 91312,
          "time": 313.95512931250005,
          "velocity": 0.8818897637795275
        },
        {
          "duration": 0.3177075390625532,
          "durationTicks": 122,
          "midi": 36,
          "name": "C2",
          "ticks": 91440,
          "time": 314.28846181250003,
          "velocity": 0.8818897637795275
        },
        {
          "duration": 0.3177075390624964,
          "durationTicks": 122,
          "midi": 38,
          "name": "D2",
          "ticks": 91568,
          "time": 314.62179431250007,
          "velocity": 0.8818897637795275
        },
        {
          "duration": 0.3177075390624964,
          "durationTicks": 122,
          "midi": 39,
          "name": "D#2",
          "ticks": 91696,
          "time": 314.95512681250005,
          "velocity": 0.8818897637795275
        },
        {
          "duration": 0.31770753906243954,
          "durationTicks": 122,
          "midi": 38,
          "name": "D2",
          "ticks": 91824,
          "time": 315.2884593125001,
          "velocity": 0.8818897637795275
        },
        {
          "duration": 0.31770753906243954,
          "durationTicks": 122,
          "midi": 39,
          "name": "D#2",
          "ticks": 91952,
          "time": 315.6217918125001,
          "velocity": 0.8818897637795275
        },
        {
          "duration": 0.3177075390624964,
          "durationTicks": 122,
          "midi": 41,
          "name": "F2",
          "ticks": 92080,
          "time": 315.95512431250006,
          "velocity": 0.8818897637795275
        },
        {
          "duration": 0.3177075390625532,
          "durationTicks": 122,
          "midi": 43,
          "name": "G2",
          "ticks": 92208,
          "time": 316.28845681250004,
          "velocity": 0.8818897637795275
        },
        {
          "duration": 0.3177075390625532,
          "durationTicks": 122,
          "midi": 35,
          "name": "B1",
          "ticks": 92336,
          "time": 316.6217893125,
          "velocity": 0.8818897637795275
        },
        {
          "duration": 0.3177075390624964,
          "durationTicks": 122,
          "midi": 36,
          "name": "C2",
          "ticks": 92464,
          "time": 316.95512181250007,
          "velocity": 0.8818897637795275
        },
        {
          "duration": 0.3177075390624964,
          "durationTicks": 122,
          "midi": 38,
          "name": "D2",
          "ticks": 92592,
          "time": 317.28845431250005,
          "velocity": 0.8818897637795275
        },
        {
          "duration": 0.31770753906243954,
          "durationTicks": 122,
          "midi": 39,
          "name": "D#2",
          "ticks": 92720,
          "time": 317.6217868125001,
          "velocity": 0.8818897637795275
        },
        {
          "duration": 0.3177075390624964,
          "durationTicks": 122,
          "midi": 33,
          "name": "A1",
          "ticks": 92848,
          "time": 317.9551193125001,
          "velocity": 0.8818897637795275
        },
        {
          "duration": 0.3177075390624964,
          "durationTicks": 122,
          "midi": 34,
          "name": "A#1",
          "ticks": 92976,
          "time": 318.28845181250006,
          "velocity": 0.8818897637795275
        },
        {
          "duration": 0.3177075390625532,
          "durationTicks": 122,
          "midi": 36,
          "name": "C2",
          "ticks": 93104,
          "time": 318.62178431250004,
          "velocity": 0.8818897637795275
        },
        {
          "duration": 0.3177075390625532,
          "durationTicks": 122,
          "midi": 38,
          "name": "D2",
          "ticks": 93232,
          "time": 318.9551168125,
          "velocity": 0.8818897637795275
        },
        {
          "duration": 0.3177075390624964,
          "durationTicks": 122,
          "midi": 31,
          "name": "G1",
          "ticks": 93360,
          "time": 319.28844931250006,
          "velocity": 0.8818897637795275
        },
        {
          "duration": 0.3177075390624964,
          "durationTicks": 122,
          "midi": 33,
          "name": "A1",
          "ticks": 93488,
          "time": 319.62178181250005,
          "velocity": 0.8818897637795275
        },
        {
          "duration": 0.31770753906243954,
          "durationTicks": 122,
          "midi": 34,
          "name": "A#1",
          "ticks": 93616,
          "time": 319.9551143125001,
          "velocity": 0.8818897637795275
        },
        {
          "duration": 0.3177075390624964,
          "durationTicks": 122,
          "midi": 36,
          "name": "C2",
          "ticks": 93744,
          "time": 320.28844681250007,
          "velocity": 0.8818897637795275
        },
        {
          "duration": 0.3177075390624964,
          "durationTicks": 122,
          "midi": 38,
          "name": "D2",
          "ticks": 93872,
          "time": 320.62177931250005,
          "velocity": 0.8818897637795275
        },
        {
          "duration": 0.3177075390625532,
          "durationTicks": 122,
          "midi": 43,
          "name": "G2",
          "ticks": 94000,
          "time": 320.95511181250004,
          "velocity": 0.8818897637795275
        },
        {
          "duration": 0.3177075390625532,
          "durationTicks": 122,
          "midi": 38,
          "name": "D2",
          "ticks": 94128,
          "time": 321.2884443125,
          "velocity": 0.8818897637795275
        },
        {
          "duration": 0.3177075390624964,
          "durationTicks": 122,
          "midi": 39,
          "name": "D#2",
          "ticks": 94256,
          "time": 321.62177681250006,
          "velocity": 0.8818897637795275
        },
        {
          "duration": 0.31770753906243954,
          "durationTicks": 122,
          "midi": 34,
          "name": "A#1",
          "ticks": 94384,
          "time": 321.9551093125001,
          "velocity": 0.8818897637795275
        },
        {
          "duration": 0.31770753906243954,
          "durationTicks": 122,
          "midi": 33,
          "name": "A1",
          "ticks": 94512,
          "time": 322.2884418125001,
          "velocity": 0.8818897637795275
        },
        {
          "duration": 0.3177075390624964,
          "durationTicks": 122,
          "midi": 36,
          "name": "C2",
          "ticks": 94640,
          "time": 322.62177431250007,
          "velocity": 0.8818897637795275
        },
        {
          "duration": 5.9687350781250075,
          "durationTicks": 2292,
          "midi": 38,
          "name": "D2",
          "ticks": 94768,
          "time": 322.95510681250005,
          "velocity": 0.8818897637795275
        },
        {
          "duration": 0.3177075390624964,
          "durationTicks": 122,
          "midi": 31,
          "name": "G1",
          "ticks": 97200,
          "time": 329.28842431250007,
          "velocity": 0.8818897637795275
        },
        {
          "duration": 0.3177075390624964,
          "durationTicks": 122,
          "midi": 36,
          "name": "C2",
          "ticks": 97328,
          "time": 329.62175681250005,
          "velocity": 0.8818897637795275
        },
        {
          "duration": 0.3177075390625532,
          "durationTicks": 122,
          "midi": 33,
          "name": "A1",
          "ticks": 97456,
          "time": 329.95508931250004,
          "velocity": 0.8818897637795275
        },
        {
          "duration": 0.3177075390625532,
          "durationTicks": 122,
          "midi": 38,
          "name": "D2",
          "ticks": 97584,
          "time": 330.2884218125,
          "velocity": 0.8818897637795275
        },
        {
          "duration": 0.3177075390624964,
          "durationTicks": 122,
          "midi": 26,
          "name": "D1",
          "ticks": 97712,
          "time": 330.62175431250006,
          "velocity": 0.8818897637795275
        },
        {
          "duration": 0.6354150781249928,
          "durationTicks": 244,
          "midi": 31,
          "name": "G1",
          "ticks": 97840,
          "time": 330.9550868125001,
          "velocity": 0.8818897637795275
        },
        {
          "duration": 0.3177075390625532,
          "durationTicks": 122,
          "midi": 31,
          "name": "G1",
          "ticks": 98224,
          "time": 331.95508431250005,
          "velocity": 0.8818897637795275
        },
        {
          "duration": 0.9505184570313077,
          "durationTicks": 365,
          "midi": 36,
          "name": "C2",
          "ticks": 98352,
          "time": 332.28841681250003,
          "velocity": 0.8818897637795275
        },
        {
          "duration": 0.31770753906243954,
          "durationTicks": 122,
          "midi": 35,
          "name": "B1",
          "ticks": 98736,
          "time": 333.2884143125001,
          "velocity": 0.8818897637795275
        },
        {
          "duration": 0.6354150781249928,
          "durationTicks": 244,
          "midi": 36,
          "name": "C2",
          "ticks": 98864,
          "time": 333.6217468125001,
          "velocity": 0.8818897637795275
        },
        {
          "duration": 0.1588537695312766,
          "durationTicks": 61,
          "midi": 45,
          "name": "A2",
          "ticks": 111728,
          "time": 367.12166306250003,
          "velocity": 0.8818897637795275
        },
        {
          "duration": 0.15885376953121977,
          "durationTicks": 61,
          "midi": 43,
          "name": "G2",
          "ticks": 111792,
          "time": 367.2883293125001,
          "velocity": 0.8818897637795275
        },
        {
          "duration": 0.1588537695312766,
          "durationTicks": 61,
          "midi": 45,
          "name": "A2",
          "ticks": 111856,
          "time": 367.4549955625001,
          "velocity": 0.8818897637795275
        },
        {
          "duration": 0.15885376953121977,
          "durationTicks": 61,
          "midi": 41,
          "name": "F2",
          "ticks": 111920,
          "time": 367.62166181250007,
          "velocity": 0.8818897637795275
        },
        {
          "duration": 0.1588537695312766,
          "durationTicks": 61,
          "midi": 45,
          "name": "A2",
          "ticks": 111984,
          "time": 367.78832806250006,
          "velocity": 0.8818897637795275
        },
        {
          "duration": 0.1588537695312766,
          "durationTicks": 61,
          "midi": 40,
          "name": "E2",
          "ticks": 112048,
          "time": 367.95499431250005,
          "velocity": 0.8818897637795275
        },
        {
          "duration": 0.15885376953121977,
          "durationTicks": 61,
          "midi": 45,
          "name": "A2",
          "ticks": 112112,
          "time": 368.1216605625001,
          "velocity": 0.8818897637795275
        },
        {
          "duration": 0.1588537695312766,
          "durationTicks": 61,
          "midi": 38,
          "name": "D2",
          "ticks": 112176,
          "time": 368.28832681250003,
          "velocity": 0.8818897637795275
        },
        {
          "duration": 0.15885376953121977,
          "durationTicks": 61,
          "midi": 45,
          "name": "A2",
          "ticks": 112240,
          "time": 368.4549930625001,
          "velocity": 0.8818897637795275
        },
        {
          "duration": 0.1588537695312766,
          "durationTicks": 61,
          "midi": 37,
          "name": "C#2",
          "ticks": 112304,
          "time": 368.62165931250007,
          "velocity": 0.8818897637795275
        },
        {
          "duration": 0.15885376953121977,
          "durationTicks": 61,
          "midi": 45,
          "name": "A2",
          "ticks": 112368,
          "time": 368.78832556250006,
          "velocity": 0.8818897637795275
        },
        {
          "duration": 0.1588537695312766,
          "durationTicks": 61,
          "midi": 38,
          "name": "D2",
          "ticks": 112432,
          "time": 368.95499181250005,
          "velocity": 0.8818897637795275
        },
        {
          "duration": 0.1588537695312766,
          "durationTicks": 61,
          "midi": 45,
          "name": "A2",
          "ticks": 112496,
          "time": 369.12165806250005,
          "velocity": 0.8818897637795275
        },
        {
          "duration": 0.15885376953121977,
          "durationTicks": 61,
          "midi": 40,
          "name": "E2",
          "ticks": 112560,
          "time": 369.2883243125001,
          "velocity": 0.8818897637795275
        },
        {
          "duration": 0.1588537695312766,
          "durationTicks": 61,
          "midi": 45,
          "name": "A2",
          "ticks": 112624,
          "time": 369.45499056250003,
          "velocity": 0.8818897637795275
        },
        {
          "duration": 0.15885376953121977,
          "durationTicks": 61,
          "midi": 41,
          "name": "F2",
          "ticks": 112688,
          "time": 369.6216568125001,
          "velocity": 0.8818897637795275
        },
        {
          "duration": 0.1588537695312766,
          "durationTicks": 61,
          "midi": 45,
          "name": "A2",
          "ticks": 112752,
          "time": 369.78832306250007,
          "velocity": 0.8818897637795275
        },
        {
          "duration": 0.15885376953121977,
          "durationTicks": 61,
          "midi": 33,
          "name": "A1",
          "ticks": 112816,
          "time": 369.95498931250006,
          "velocity": 0.8818897637795275
        },
        {
          "duration": 0.1588537695312766,
          "durationTicks": 61,
          "midi": 45,
          "name": "A2",
          "ticks": 112880,
          "time": 370.12165556250005,
          "velocity": 0.8818897637795275
        },
        {
          "duration": 0.1588537695312766,
          "durationTicks": 61,
          "midi": 35,
          "name": "B1",
          "ticks": 112944,
          "time": 370.28832181250004,
          "velocity": 0.8818897637795275
        },
        {
          "duration": 0.15885376953121977,
          "durationTicks": 61,
          "midi": 45,
          "name": "A2",
          "ticks": 113008,
          "time": 370.4549880625001,
          "velocity": 0.8818897637795275
        },
        {
          "duration": 0.1588537695312766,
          "durationTicks": 61,
          "midi": 37,
          "name": "C#2",
          "ticks": 113072,
          "time": 370.6216543125,
          "velocity": 0.8818897637795275
        },
        {
          "duration": 0.15885376953121977,
          "durationTicks": 61,
          "midi": 45,
          "name": "A2",
          "ticks": 113136,
          "time": 370.7883205625001,
          "velocity": 0.8818897637795275
        },
        {
          "duration": 0.1588537695312766,
          "durationTicks": 61,
          "midi": 38,
          "name": "D2",
          "ticks": 113200,
          "time": 370.95498681250007,
          "velocity": 0.8818897637795275
        },
        {
          "duration": 0.15885376953121977,
          "durationTicks": 61,
          "midi": 45,
          "name": "A2",
          "ticks": 113264,
          "time": 371.12165306250006,
          "velocity": 0.8818897637795275
        },
        {
          "duration": 0.1588537695312766,
          "durationTicks": 61,
          "midi": 37,
          "name": "C#2",
          "ticks": 113328,
          "time": 371.28831931250005,
          "velocity": 0.8818897637795275
        },
        {
          "duration": 0.1588537695312766,
          "durationTicks": 61,
          "midi": 45,
          "name": "A2",
          "ticks": 113392,
          "time": 371.45498556250004,
          "velocity": 0.8818897637795275
        },
        {
          "duration": 0.15885376953121977,
          "durationTicks": 61,
          "midi": 38,
          "name": "D2",
          "ticks": 113456,
          "time": 371.6216518125001,
          "velocity": 0.8818897637795275
        },
        {
          "duration": 0.1588537695312766,
          "durationTicks": 61,
          "midi": 45,
          "name": "A2",
          "ticks": 113520,
          "time": 371.7883180625,
          "velocity": 0.8818897637795275
        },
        {
          "duration": 0.15885376953121977,
          "durationTicks": 61,
          "midi": 40,
          "name": "E2",
          "ticks": 113584,
          "time": 371.9549843125001,
          "velocity": 0.8818897637795275
        },
        {
          "duration": 0.1588537695312766,
          "durationTicks": 61,
          "midi": 45,
          "name": "A2",
          "ticks": 113648,
          "time": 372.12165056250007,
          "velocity": 0.8818897637795275
        },
        {
          "duration": 0.6354150781249928,
          "durationTicks": 244,
          "midi": 41,
          "name": "F2",
          "ticks": 113712,
          "time": 372.28831681250006,
          "velocity": 0.8818897637795275
        },
        {
          "duration": 0.3177075390624964,
          "durationTicks": 122,
          "midi": 41,
          "name": "F2",
          "ticks": 114096,
          "time": 373.28831431250006,
          "velocity": 0.8818897637795275
        },
        {
          "duration": 0.31770753906243954,
          "durationTicks": 122,
          "midi": 43,
          "name": "G2",
          "ticks": 114224,
          "time": 373.6216468125001,
          "velocity": 0.8818897637795275
        },
        {
          "duration": 0.31770753906243954,
          "durationTicks": 122,
          "midi": 40,
          "name": "E2",
          "ticks": 114352,
          "time": 373.9549793125001,
          "velocity": 0.8818897637795275
        },
        {
          "duration": 0.3177075390624964,
          "durationTicks": 122,
          "midi": 45,
          "name": "A2",
          "ticks": 114480,
          "time": 374.28831181250007,
          "velocity": 0.8818897637795275
        },
        {
          "duration": 0.3177075390625532,
          "durationTicks": 122,
          "midi": 33,
          "name": "A1",
          "ticks": 114608,
          "time": 374.62164431250005,
          "velocity": 0.8818897637795275
        },
        {
          "duration": 0.6354150781249928,
          "durationTicks": 244,
          "midi": 38,
          "name": "D2",
          "ticks": 114736,
          "time": 374.95497681250004,
          "velocity": 0.8818897637795275
        },
        {
          "duration": 0.31770753906243954,
          "durationTicks": 122,
          "midi": 33,
          "name": "A1",
          "ticks": 115120,
          "time": 375.9549743125001,
          "velocity": 0.8818897637795275
        },
        {
          "duration": 0.31770753906243954,
          "durationTicks": 122,
          "midi": 34,
          "name": "A#1",
          "ticks": 115248,
          "time": 376.2883068125001,
          "velocity": 0.8818897637795275
        },
        {
          "duration": 0.3177075390624964,
          "durationTicks": 122,
          "midi": 31,
          "name": "G1",
          "ticks": 115376,
          "time": 376.62163931250006,
          "velocity": 0.8818897637795275
        },
        {
          "duration": 0.3177075390625532,
          "durationTicks": 122,
          "midi": 36,
          "name": "C2",
          "ticks": 115504,
          "time": 376.95497181250005,
          "velocity": 0.8818897637795275
        },
        {
          "duration": 0.3177075390625532,
          "durationTicks": 122,
          "midi": 24,
          "name": "C1",
          "ticks": 115632,
          "time": 377.28830431250003,
          "velocity": 0.8818897637795275
        },
        {
          "duration": 0.6354150781249928,
          "durationTicks": 244,
          "midi": 29,
          "name": "F1",
          "ticks": 115760,
          "time": 377.62163681250007,
          "velocity": 0.8818897637795275
        },
        {
          "duration": 0.3177075390624964,
          "durationTicks": 122,
          "midi": 33,
          "name": "A1",
          "ticks": 116144,
          "time": 378.6216343125001,
          "velocity": 0.8818897637795275
        },
        {
          "duration": 0.6354150781249928,
          "durationTicks": 244,
          "midi": 34,
          "name": "A#1",
          "ticks": 116272,
          "time": 378.95496681250006,
          "velocity": 0.8818897637795275
        },
        {
          "duration": 0.3177075390624964,
          "durationTicks": 122,
          "midi": 34,
          "name": "A#1",
          "ticks": 116656,
          "time": 379.95496431250007,
          "velocity": 0.8818897637795275
        },
        {
          "duration": 0.6354150781250496,
          "durationTicks": 244,
          "midi": 36,
          "name": "C2",
          "ticks": 116784,
          "time": 380.28829681250005,
          "velocity": 0.8818897637795275
        },
        {
          "duration": 0.3177075390624964,
          "durationTicks": 122,
          "midi": 33,
          "name": "A1",
          "ticks": 117168,
          "time": 381.28829431250006,
          "velocity": 0.8818897637795275
        },
        {
          "duration": 0.6354150781249928,
          "durationTicks": 244,
          "midi": 38,
          "name": "D2",
          "ticks": 117296,
          "time": 381.62162681250004,
          "velocity": 0.8818897637795275
        },
        {
          "duration": 0.6354150781249928,
          "durationTicks": 244,
          "midi": 38,
          "name": "D2",
          "ticks": 117808,
          "time": 382.9549568125001,
          "velocity": 0.8818897637795275
        },
        {
          "duration": 0.6354150781249928,
          "durationTicks": 244,
          "midi": 38,
          "name": "D2",
          "ticks": 118320,
          "time": 384.2882868125001,
          "velocity": 0.8818897637795275
        },
        {
          "duration": 0.6354150781249928,
          "durationTicks": 244,
          "midi": 38,
          "name": "D2",
          "ticks": 118832,
          "time": 385.62161681250006,
          "velocity": 0.8818897637795275
        },
        {
          "duration": 0.6354150781250496,
          "durationTicks": 244,
          "midi": 38,
          "name": "D2",
          "ticks": 119344,
          "time": 386.95494681250005,
          "velocity": 0.8818897637795275
        },
        {
          "duration": 0.6354150781249928,
          "durationTicks": 244,
          "midi": 38,
          "name": "D2",
          "ticks": 119856,
          "time": 388.28827681250004,
          "velocity": 0.8818897637795275
        },
        {
          "duration": 0.6354150781249928,
          "durationTicks": 244,
          "midi": 38,
          "name": "D2",
          "ticks": 120368,
          "time": 389.6216068125001,
          "velocity": 0.8818897637795275
        },
        {
          "duration": 0.6354150781250496,
          "durationTicks": 244,
          "midi": 38,
          "name": "D2",
          "ticks": 120880,
          "time": 390.9549368125,
          "velocity": 0.8818897637795275
        },
        {
          "duration": 0.6354150781249928,
          "durationTicks": 244,
          "midi": 38,
          "name": "D2",
          "ticks": 121392,
          "time": 392.28826681250007,
          "velocity": 0.8818897637795275
        },
        {
          "duration": 0.6354150781249928,
          "durationTicks": 244,
          "midi": 38,
          "name": "D2",
          "ticks": 121904,
          "time": 393.62159681250006,
          "velocity": 0.8818897637795275
        },
        {
          "duration": 0.15885376953121977,
          "durationTicks": 61,
          "midi": 38,
          "name": "D2",
          "ticks": 122480,
          "time": 395.1215930625001,
          "velocity": 0.8818897637795275
        },
        {
          "duration": 0.1588537695312766,
          "durationTicks": 61,
          "midi": 36,
          "name": "C2",
          "ticks": 122544,
          "time": 395.28825931250003,
          "velocity": 0.8818897637795275
        },
        {
          "duration": 0.15885376953121977,
          "durationTicks": 61,
          "midi": 38,
          "name": "D2",
          "ticks": 122608,
          "time": 395.4549255625001,
          "velocity": 0.8818897637795275
        },
        {
          "duration": 0.1588537695312766,
          "durationTicks": 61,
          "midi": 34,
          "name": "A#1",
          "ticks": 122672,
          "time": 395.62159181250007,
          "velocity": 0.8818897637795275
        },
        {
          "duration": 0.15885376953121977,
          "durationTicks": 61,
          "midi": 38,
          "name": "D2",
          "ticks": 122736,
          "time": 395.78825806250006,
          "velocity": 0.8818897637795275
        },
        {
          "duration": 0.1588537695312766,
          "durationTicks": 61,
          "midi": 33,
          "name": "A1",
          "ticks": 122800,
          "time": 395.95492431250005,
          "velocity": 0.8818897637795275
        },
        {
          "duration": 0.1588537695312766,
          "durationTicks": 61,
          "midi": 38,
          "name": "D2",
          "ticks": 122864,
          "time": 396.12159056250005,
          "velocity": 0.8818897637795275
        },
        {
          "duration": 0.15885376953121977,
          "durationTicks": 61,
          "midi": 31,
          "name": "G1",
          "ticks": 122928,
          "time": 396.2882568125001,
          "velocity": 0.8818897637795275
        },
        {
          "duration": 0.1588537695312766,
          "durationTicks": 61,
          "midi": 43,
          "name": "G2",
          "ticks": 122992,
          "time": 396.45492306250003,
          "velocity": 0.8818897637795275
        },
        {
          "duration": 0.15885376953121977,
          "durationTicks": 61,
          "midi": 41,
          "name": "F2",
          "ticks": 123056,
          "time": 396.6215893125001,
          "velocity": 0.8818897637795275
        },
        {
          "duration": 0.1588537695312766,
          "durationTicks": 61,
          "midi": 43,
          "name": "G2",
          "ticks": 123120,
          "time": 396.78825556250007,
          "velocity": 0.8818897637795275
        },
        {
          "duration": 0.15885376953121977,
          "durationTicks": 61,
          "midi": 39,
          "name": "D#2",
          "ticks": 123184,
          "time": 396.95492181250006,
          "velocity": 0.8818897637795275
        },
        {
          "duration": 0.1588537695312766,
          "durationTicks": 61,
          "midi": 43,
          "name": "G2",
          "ticks": 123248,
          "time": 397.12158806250005,
          "velocity": 0.8818897637795275
        },
        {
          "duration": 0.1588537695312766,
          "durationTicks": 61,
          "midi": 38,
          "name": "D2",
          "ticks": 123312,
          "time": 397.28825431250004,
          "velocity": 0.8818897637795275
        },
        {
          "duration": 0.15885376953121977,
          "durationTicks": 61,
          "midi": 43,
          "name": "G2",
          "ticks": 123376,
          "time": 397.4549205625001,
          "velocity": 0.8818897637795275
        },
        {
          "duration": 0.1588537695312766,
          "durationTicks": 61,
          "midi": 36,
          "name": "C2",
          "ticks": 123440,
          "time": 397.6215868125,
          "velocity": 0.8818897637795275
        },
        {
          "duration": 0.15885376953121977,
          "durationTicks": 61,
          "midi": 36,
          "name": "C2",
          "ticks": 123504,
          "time": 397.7882530625001,
          "velocity": 0.8818897637795275
        },
        {
          "duration": 0.1588537695312766,
          "durationTicks": 61,
          "midi": 34,
          "name": "A#1",
          "ticks": 123568,
          "time": 397.95491931250007,
          "velocity": 0.8818897637795275
        },
        {
          "duration": 0.15885376953121977,
          "durationTicks": 61,
          "midi": 36,
          "name": "C2",
          "ticks": 123632,
          "time": 398.12158556250006,
          "velocity": 0.8818897637795275
        },
        {
          "duration": 0.15885376953121977,
          "durationTicks": 61,
          "midi": 33,
          "name": "A1",
          "ticks": 123696,
          "time": 398.2882518125001,
          "velocity": 0.8818897637795275
        },
        {
          "duration": 0.1588537695312766,
          "durationTicks": 61,
          "midi": 36,
          "name": "C2",
          "ticks": 123760,
          "time": 398.45491806250004,
          "velocity": 0.8818897637795275
        },
        {
          "duration": 0.15885376953121977,
          "durationTicks": 61,
          "midi": 31,
          "name": "G1",
          "ticks": 123824,
          "time": 398.6215843125001,
          "velocity": 0.8818897637795275
        },
        {
          "duration": 0.1588537695312766,
          "durationTicks": 61,
          "midi": 36,
          "name": "C2",
          "ticks": 123888,
          "time": 398.7882505625,
          "velocity": 0.8818897637795275
        },
        {
          "duration": 0.15885376953121977,
          "durationTicks": 61,
          "midi": 29,
          "name": "F1",
          "ticks": 123952,
          "time": 398.9549168125001,
          "velocity": 0.8818897637795275
        },
        {
          "duration": 0.1588537695312766,
          "durationTicks": 61,
          "midi": 41,
          "name": "F2",
          "ticks": 124016,
          "time": 399.12158306250006,
          "velocity": 0.8818897637795275
        },
        {
          "duration": 0.15885376953121977,
          "durationTicks": 61,
          "midi": 39,
          "name": "D#2",
          "ticks": 124080,
          "time": 399.28824931250006,
          "velocity": 0.8818897637795275
        },
        {
          "duration": 0.15885376953121977,
          "durationTicks": 61,
          "midi": 41,
          "name": "F2",
          "ticks": 124144,
          "time": 399.4549155625001,
          "velocity": 0.8818897637795275
        },
        {
          "duration": 0.1588537695312766,
          "durationTicks": 61,
          "midi": 38,
          "name": "D2",
          "ticks": 124208,
          "time": 399.62158181250004,
          "velocity": 0.8818897637795275
        },
        {
          "duration": 0.15885376953121977,
          "durationTicks": 61,
          "midi": 41,
          "name": "F2",
          "ticks": 124272,
          "time": 399.7882480625001,
          "velocity": 0.8818897637795275
        },
        {
          "duration": 0.1588537695312766,
          "durationTicks": 61,
          "midi": 36,
          "name": "C2",
          "ticks": 124336,
          "time": 399.9549143125001,
          "velocity": 0.8818897637795275
        },
        {
          "duration": 0.15885376953121977,
          "durationTicks": 61,
          "midi": 41,
          "name": "F2",
          "ticks": 124400,
          "time": 400.12158056250007,
          "velocity": 0.8818897637795275
        },
        {
          "duration": 0.3177075390624964,
          "durationTicks": 122,
          "midi": 34,
          "name": "A#1",
          "ticks": 124464,
          "time": 400.28824681250006,
          "velocity": 0.8818897637795275
        },
        {
          "duration": 0.31770753906243954,
          "durationTicks": 122,
          "midi": 39,
          "name": "D#2",
          "ticks": 124592,
          "time": 400.6215793125001,
          "velocity": 0.8818897637795275
        },
        {
          "duration": 0.31770753906243954,
          "durationTicks": 122,
          "midi": 41,
          "name": "F2",
          "ticks": 124720,
          "time": 400.9549118125001,
          "velocity": 0.8818897637795275
        },
        {
          "duration": 0.3177075390624964,
          "durationTicks": 122,
          "midi": 29,
          "name": "F1",
          "ticks": 124848,
          "time": 401.28824431250007,
          "velocity": 0.8818897637795275
        },
        {
          "duration": 0.3177075390625532,
          "durationTicks": 122,
          "midi": 31,
          "name": "G1",
          "ticks": 124976,
          "time": 401.62157681250005,
          "velocity": 0.8818897637795275
        },
        {
          "duration": 0.3177075390625532,
          "durationTicks": 122,
          "midi": 36,
          "name": "C2",
          "ticks": 125104,
          "time": 401.95490931250004,
          "velocity": 0.8818897637795275
        },
        {
          "duration": 0.3177075390624964,
          "durationTicks": 122,
          "midi": 38,
          "name": "D2",
          "ticks": 125232,
          "time": 402.2882418125001,
          "velocity": 0.8818897637795275
        },
        {
          "duration": 0.3177075390624964,
          "durationTicks": 122,
          "midi": 26,
          "name": "D1",
          "ticks": 125360,
          "time": 402.62157431250006,
          "velocity": 0.8818897637795275
        },
        {
          "duration": 0.6354150781249928,
          "durationTicks": 244,
          "midi": 31,
          "name": "G1",
          "ticks": 125488,
          "time": 402.9549068125001,
          "velocity": 0.8818897637795275
        },
        {
          "duration": 0.1588537695312766,
          "durationTicks": 61,
          "midi": 33,
          "name": "A1",
          "ticks": 125808,
          "time": 403.78823806250006,
          "velocity": 0.8818897637795275
        },
        {
          "duration": 0.1588537695312766,
          "durationTicks": 61,
          "midi": 31,
          "name": "G1",
          "ticks": 125872,
          "time": 403.95490431250005,
          "velocity": 0.8818897637795275
        },
        {
          "duration": 0.15885376953121977,
          "durationTicks": 61,
          "midi": 33,
          "name": "A1",
          "ticks": 125936,
          "time": 404.1215705625001,
          "velocity": 0.8818897637795275
        },
        {
          "duration": 0.3177075390625532,
          "durationTicks": 122,
          "midi": 29,
          "name": "F1",
          "ticks": 126000,
          "time": 404.28823681250003,
          "velocity": 0.8818897637795275
        },
        {
          "duration": 0.3177075390624964,
          "durationTicks": 122,
          "midi": 26,
          "name": "D1",
          "ticks": 126128,
          "time": 404.62156931250007,
          "velocity": 0.8818897637795275
        },
        {
          "duration": 0.6354150781250496,
          "durationTicks": 244,
          "midi": 33,
          "name": "A1",
          "ticks": 126256,
          "time": 404.95490181250005,
          "velocity": 0.8818897637795275
        },
        {
          "duration": 3.934885996093726,
          "durationTicks": 1511,
          "midi": 26,
          "name": "D1",
          "ticks": 126512,
          "time": 405.6215668125001,
          "velocity": 0.8818897637795275
        },
        {
          "duration": 0.3177075390625532,
          "durationTicks": 122,
          "midi": 38,
          "name": "D2",
          "ticks": 128432,
          "time": 410.62155431250005,
          "velocity": 0.8818897637795275
        },
        {
          "duration": 0.3564452929687718,
          "durationTicks": 122,
          "midi": 33,
          "name": "A1",
          "ticks": 128560,
          "time": 410.95488681250004,
          "velocity": 0.8818897637795275
        },
        {
          "duration": 0.357421875,
          "durationTicks": 122,
          "midi": 29,
          "name": "F1",
          "ticks": 128688,
          "time": 411.3289102304688,
          "velocity": 0.8818897637795275
        },
        {
          "duration": 0.4072261640624788,
          "durationTicks": 122,
          "midi": 31,
          "name": "G1",
          "ticks": 128816,
          "time": 411.7039102304688,
          "velocity": 0.8818897637795275
        },
        {
          "duration": 0.408481734375016,
          "durationTicks": 122,
          "midi": 33,
          "name": "A1",
          "ticks": 128944,
          "time": 412.1312256601563,
          "velocity": 0.8818897637795275
        },
        {
          "duration": 0.4748883828125372,
          "durationTicks": 122,
          "midi": 29,
          "name": "F1",
          "ticks": 129072,
          "time": 412.5597966601563,
          "velocity": 0.8818897637795275
        },
        {
          "duration": 0.4765625,
          "durationTicks": 122,
          "midi": 26,
          "name": "D1",
          "ticks": 129200,
          "time": 413.0581225429688,
          "velocity": 0.8818897637795275
        },
        {
          "duration": 0.5695312500000114,
          "durationTicks": 122,
          "midi": 31,
          "name": "G1",
          "ticks": 129328,
          "time": 413.5581225429688,
          "velocity": 0.8818897637795275
        },
        {
          "duration": 0.5718749999999773,
          "durationTicks": 122,
          "midi": 33,
          "name": "A1",
          "ticks": 129456,
          "time": 414.1557787929688,
          "velocity": 0.8818897637795275
        },
        {
          "duration": 4.497656249999977,
          "durationTicks": 768,
          "midi": 34,
          "name": "A#1",
          "ticks": 129584,
          "time": 414.75577879296884,
          "velocity": 0.8818897637795275
        },
        {
          "duration": 3.798828125,
          "durationTicks": 487,
          "midi": 37,
          "name": "C#2",
          "ticks": 132912,
          "time": 429.8693440429688,
          "velocity": 0.8818897637795275
        },
        {
          "duration": 2.8515625,
          "durationTicks": 365,
          "midi": 41,
          "name": "F2",
          "ticks": 133424,
          "time": 433.8634846679688,
          "velocity": 0.8818897637795275
        },
        {
          "duration": 0.953125,
          "durationTicks": 122,
          "midi": 38,
          "name": "D2",
          "ticks": 133808,
          "time": 436.8634846679688,
          "velocity": 0.8818897637795275
        },
        {
          "duration": 3.8046875,
          "durationTicks": 487,
          "midi": 32,
          "name": "G#1",
          "ticks": 133936,
          "time": 437.8634846679688,
          "velocity": 0.8818897637795275
        },
        {
          "duration": 0.357421875,
          "durationTicks": 61,
          "midi": 44,
          "name": "G#2",
          "ticks": 134512,
          "time": 442.2443440429688,
          "velocity": 0.8818897637795275
        },
        {
          "duration": 0.357421875,
          "durationTicks": 61,
          "midi": 47,
          "name": "B2",
          "ticks": 134576,
          "time": 442.6193440429688,
          "velocity": 0.8818897637795275
        },
        {
          "duration": 0.357421875,
          "durationTicks": 61,
          "midi": 41,
          "name": "F2",
          "ticks": 134640,
          "time": 442.9943440429688,
          "velocity": 0.8818897637795275
        },
        {
          "duration": 0.357421875,
          "durationTicks": 61,
          "midi": 44,
          "name": "G#2",
          "ticks": 134704,
          "time": 443.3693440429688,
          "velocity": 0.8818897637795275
        },
        {
          "duration": 0.357421875,
          "durationTicks": 61,
          "midi": 38,
          "name": "D2",
          "ticks": 134768,
          "time": 443.7443440429688,
          "velocity": 0.8818897637795275
        },
        {
          "duration": 0.357421875,
          "durationTicks": 61,
          "midi": 41,
          "name": "F2",
          "ticks": 134832,
          "time": 444.1193440429688,
          "velocity": 0.8818897637795275
        },
        {
          "duration": 0.357421875,
          "durationTicks": 61,
          "midi": 35,
          "name": "B1",
          "ticks": 134896,
          "time": 444.4943440429688,
          "velocity": 0.8818897637795275
        },
        {
          "duration": 0.357421875,
          "durationTicks": 61,
          "midi": 38,
          "name": "D2",
          "ticks": 134960,
          "time": 444.8693440429688,
          "velocity": 0.8818897637795275
        },
        {
          "duration": 0.357421875,
          "durationTicks": 61,
          "midi": 32,
          "name": "G#1",
          "ticks": 135024,
          "time": 445.2443440429688,
          "velocity": 0.8818897637795275
        },
        {
          "duration": 0.71484375,
          "durationTicks": 122,
          "midi": 33,
          "name": "A1",
          "ticks": 135088,
          "time": 445.6193440429688,
          "velocity": 0.8818897637795275
        },
        {
          "duration": 11.994140625,
          "durationTicks": 1536,
          "midi": 28,
          "name": "E1",
          "ticks": 135216,
          "time": 446.3693440429688,
          "velocity": 0.8818897637795275
        },
        {
          "duration": 0.8935546875,
          "durationTicks": 122,
          "midi": 40,
          "name": "E2",
          "ticks": 140208,
          "time": 471.48204576171884,
          "velocity": 0.8818897637795275
        },
        {
          "duration": 0.8935546875,
          "durationTicks": 122,
          "midi": 43,
          "name": "G2",
          "ticks": 140336,
          "time": 472.41954576171884,
          "velocity": 0.8818897637795275
        },
        {
          "duration": 0.492995328125005,
          "durationTicks": 122,
          "midi": 43,
          "name": "G2",
          "ticks": 140720,
          "time": 474.40137758203133,
          "velocity": 0.8818897637795275
        },
        {
          "duration": 0.492995328125005,
          "durationTicks": 122,
          "midi": 41,
          "name": "F2",
          "ticks": 140848,
          "time": 474.91861858203134,
          "velocity": 0.8818897637795275
        },
        {
          "duration": 0.492995328125005,
          "durationTicks": 122,
          "midi": 41,
          "name": "F2",
          "ticks": 141232,
          "time": 476.4703415820313,
          "velocity": 0.8818897637795275
        },
        {
          "duration": 0.492995328125005,
          "durationTicks": 122,
          "midi": 41,
          "name": "F2",
          "ticks": 141360,
          "time": 476.98758258203134,
          "velocity": 0.8818897637795275
        },
        {
          "duration": 0.492995328125005,
          "durationTicks": 122,
          "midi": 41,
          "name": "F2",
          "ticks": 141744,
          "time": 478.5393055820313,
          "velocity": 0.8818897637795275
        },
        {
          "duration": 0.492995328125005,
          "durationTicks": 122,
          "midi": 40,
          "name": "E2",
          "ticks": 141872,
          "time": 479.05654658203133,
          "velocity": 0.8818897637795275
        },
        {
          "duration": 0.492995328125005,
          "durationTicks": 122,
          "midi": 40,
          "name": "E2",
          "ticks": 142256,
          "time": 480.6082695820313,
          "velocity": 0.8818897637795275
        },
        {
          "duration": 0.492995328125005,
          "durationTicks": 122,
          "midi": 40,
          "name": "E2",
          "ticks": 142384,
          "time": 481.1255105820313,
          "velocity": 0.8818897637795275
        },
        {
          "duration": 0.4929953281249482,
          "durationTicks": 122,
          "midi": 40,
          "name": "E2",
          "ticks": 142768,
          "time": 482.67723358203136,
          "velocity": 0.8818897637795275
        },
        {
          "duration": 0.492995328125005,
          "durationTicks": 122,
          "midi": 38,
          "name": "D2",
          "ticks": 142896,
          "time": 483.1944745820313,
          "velocity": 0.8818897637795275
        },
        {
          "duration": 0.492995328125005,
          "durationTicks": 122,
          "midi": 38,
          "name": "D2",
          "ticks": 143280,
          "time": 484.74619758203136,
          "velocity": 0.8818897637795275
        },
        {
          "duration": 0.492995328125005,
          "durationTicks": 122,
          "midi": 37,
          "name": "C#2",
          "ticks": 143408,
          "time": 485.2634385820313,
          "velocity": 0.8818897637795275
        },
        {
          "duration": 0.5295138359375073,
          "durationTicks": 122,
          "midi": 37,
          "name": "C#2",
          "ticks": 143792,
          "time": 486.8908925859376,
          "velocity": 0.8818897637795275
        },
        {
          "duration": 0.5295138359375073,
          "durationTicks": 122,
          "midi": 36,
          "name": "C2",
          "ticks": 143920,
          "time": 487.4464480859376,
          "velocity": 0.8818897637795275
        },
        {
          "duration": 0.5718749999999773,
          "durationTicks": 122,
          "midi": 36,
          "name": "C2",
          "ticks": 144304,
          "time": 489.20096191796887,
          "velocity": 0.8818897637795275
        },
        {
          "duration": 1.2078118593749991,
          "durationTicks": 244,
          "midi": 31,
          "name": "G1",
          "ticks": 144432,
          "time": 489.80096191796883,
          "velocity": 0.8818897637795275
        },
        {
          "duration": 1.2708320625000056,
          "durationTicks": 244,
          "midi": 34,
          "name": "A#1",
          "ticks": 144688,
          "time": 491.0712737148438,
          "velocity": 0.8818897637795275
        },
        {
          "duration": 1.2708320625000056,
          "durationTicks": 244,
          "midi": 28,
          "name": "E1",
          "ticks": 144944,
          "time": 492.4046057148438,
          "velocity": 0.8818897637795275
        },
        {
          "duration": 1.4277343593749947,
          "durationTicks": 244,
          "midi": 29,
          "name": "F1",
          "ticks": 145200,
          "time": 493.73793771484384,
          "velocity": 0.8818897637795275
        },
        {
          "duration": 3.044362312500027,
          "durationTicks": 487,
          "midi": 33,
          "name": "A1",
          "ticks": 145456,
          "time": 495.23598457421883,
          "velocity": 0.8818897637795275
        },
        {
          "duration": 1.6339269375000072,
          "durationTicks": 244,
          "midi": 34,
          "name": "A#1",
          "ticks": 145968,
          "time": 498.44775743359384,
          "velocity": 0.8818897637795275
        },
        {
          "duration": 1.9029017656249607,
          "durationTicks": 244,
          "midi": 31,
          "name": "G1",
          "ticks": 146224,
          "time": 500.16204143359386,
          "velocity": 0.8818897637795275
        },
        {
          "duration": 8.007804515625025,
          "durationTicks": 1536,
          "midi": 26,
          "name": "D1",
          "ticks": 146480,
          "time": 502.1586931992188,
          "velocity": 0.8818897637795275
        },
        {
          "duration": 8.007804515625025,
          "durationTicks": 1536,
          "midi": 38,
          "name": "D2",
          "ticks": 146480,
          "time": 502.1586931992188,
          "velocity": 0.8818897637795275
        }
      ],
      "endOfTrackTicks": 148016
    }
  ]
}
